<?xml version="1.0" encoding="UTF-8" standalone="no"?>
<!DOCTYPE svg PUBLIC "-//W3C//DTD SVG 1.1//EN" "http://www.w3.org/Graphics/SVG/1.1/DTD/svg11.dtd">
<svg width="256" height="220" viewBox="0 0 1002 761" version="1.1" xmlns="http://www.w3.org/2000/svg" xmlns:xlink="http://www.w3.org/1999/xlink" xml:space="preserve" xmlns:serif="http://www.serif.com/" style="fill-rule:evenodd;clip-rule:evenodd;stroke-linecap:square;">
    <ellipse cx="256.143" cy="627.966" rx="230.373" ry="107.083" style="fill:none;stroke:#8dcc33;stroke-width:12.5px;"/>
  <path d="M256.14,620.837l-0,-289.386" style="fill:none;stroke:#ff5151;stroke-width:6.25px;stroke-linecap:round;stroke-linejoin:round;stroke-miterlimit:1.5;stroke-dasharray:9.38,12.5,0,0,0,0;"/>
  <path d="M256.938,617.764l215.562,0" style="fill:none;stroke:#ff5151;stroke-width:6.25px;stroke-linecap:round;stroke-linejoin:round;stroke-miterlimit:1.5;stroke-dasharray:9.38,12.5,0,0,0,0;"/>
  <path d="M40.577,617.764l215.561,0" style="fill:none;stroke:#ff5151;stroke-width:6.25px;stroke-linecap:round;stroke-linejoin:round;stroke-miterlimit:1.5;stroke-dasharray:9.38,12.5,0,0,0,0;"/>
  <path d="M267.141,321.352l91.374,0" style="fill:none;stroke:#ff5151;stroke-width:4.17px;stroke-linecap:round;stroke-linejoin:round;stroke-miterlimit:1.5;stroke-dasharray:6.25,8.33,0,0,0,0;"/>
  <path d="M153.77,321.352l91.373,0" style="fill:none;stroke:#ff5151;stroke-width:4.17px;stroke-linecap:round;stroke-linejoin:round;stroke-miterlimit:1.5;stroke-dasharray:6.25,8.33,0,0,0,0;"/>
  <path d="M873.444,313.063l91.373,-0" style="fill:none;stroke:#ff5151;stroke-width:4.17px;stroke-linecap:round;stroke-linejoin:round;stroke-miterlimit:1.5;stroke-dasharray:6.25,8.33,0,0,0,0;"/>
  <path d="M756.478,313.063l91.374,-0" style="fill:none;stroke:#ff5151;stroke-width:4.17px;stroke-linecap:round;stroke-linejoin:round;stroke-miterlimit:1.5;stroke-dasharray:6.25,8.33,0,0,0,0;"/>
  <ellipse cx="255.762" cy="326.485" rx="115.897" ry="53.872" style="fill:none;stroke:#8dcc33;stroke-width:12.5px;"/>
  <ellipse cx="859.95" cy="312.983" rx="115.897" ry="53.872" style="fill:none;stroke:#9370db;stroke-width:12.5px;"/>
  <g transform="matrix(50,0,0,50,341.522,215.55)">
    </g>
  <text x="174.822px" y="215.55px" style="font-family:'ArialMT', 'Arial', sans-serif;font-size:50px;fill:#8dcc33;stroke:#1e3a5f;stroke-width:1.67px;stroke-linecap:butt;stroke-linejoin:round;stroke-miterlimit:2;">frustum</text>
  <g transform="matrix(50,0,0,50,1002.48,458.07)">
    </g>
  <text x="719.03px" y="458.07px" style="font-family:'ArialMT', 'Arial', sans-serif;font-size:50px;fill:#9370db;stroke:#1e3a5f;stroke-width:1.67px;stroke-linecap:butt;stroke-linejoin:round;stroke-miterlimit:2;">smaller cone</text>
  <path d="M860.325,304.735l0,-274.562" style="fill:none;stroke:#ff5151;stroke-width:4.17px;stroke-linecap:round;stroke-linejoin:round;stroke-miterlimit:1.5;stroke-dasharray:6.25,8.33,0,0,0,0;"/>
  <path d="M373.934,326.38l110.79,288.396" style="fill:none;stroke:#8dcc33;stroke-width:12.5px;stroke-linecap:round;stroke-linejoin:round;stroke-miterlimit:1.5;"/>
  <path d="M860.327,6.25l116.481,306.352" style="fill:none;stroke:#9370db;stroke-width:12.5px;stroke-linecap:round;stroke-linejoin:round;stroke-miterlimit:1.5;"/>
  <path d="M137.849,326.545l-111.062,288.016" style="fill:none;stroke:#8dcc33;stroke-width:12.5px;stroke-linecap:round;stroke-linejoin:round;stroke-miterlimit:1.5;"/>
  <path d="M860.338,6.254l-118.119,306.316" style="fill:none;stroke:#9370db;stroke-width:12.5px;stroke-linecap:round;stroke-linejoin:round;stroke-miterlimit:1.5;"/>
  <path d="M244.696,617.444c0,-3.654 5.239,-6.621 11.692,-6.621c6.453,0 11.692,2.967 11.692,6.621c0,3.653 -5.239,6.62 -11.692,6.62c-6.453,0 -11.692,-2.967 -11.692,-6.62Z" style="fill:#4cc1a1;"/>
  <path d="M250.003,321.191c0,-1.838 2.636,-3.331 5.883,-3.331c3.246,0 5.882,1.493 5.882,3.331c-0,1.838 -2.636,3.33 -5.882,3.33c-3.247,0 -5.883,-1.492 -5.883,-3.33Z" style="fill:#4cc1a1;"/>
  <path d="M854.438,312.984c-0,-1.839 2.636,-3.331 5.882,-3.331c3.247,-0 5.882,1.492 5.882,3.331c0,1.838 -2.635,3.33 -5.882,3.33c-3.246,0 -5.882,-1.492 -5.882,-3.33Z" style="fill:#4cc1a1;"/>
</svg>
