<?xml version="1.0" encoding="UTF-8" standalone="no"?>
<!DOCTYPE svg PUBLIC "-//W3C//DTD SVG 1.1//EN" "http://www.w3.org/Graphics/SVG/1.1/DTD/svg11.dtd">
<svg width="356" height="145" viewBox="0 0 1128 395" version="1.1" xmlns="http://www.w3.org/2000/svg" xmlns:xlink="http://www.w3.org/1999/xlink" xml:space="preserve" xmlns:serif="http://www.serif.com/" style="fill-rule:evenodd;clip-rule:evenodd;stroke-linecap:round;stroke-linejoin:round;stroke-miterlimit:1.5;">
    <path d="M399.074,179.456l-0,-28.53" style="fill:none;stroke:#8dcc33;stroke-width:12.5px;"/>
  <path d="M730,179.456l-0,-28.53" style="fill:none;stroke:#8dcc33;stroke-width:12.5px;"/>
  <path d="M67.499,182.064l986.317,-0" style="fill:none;stroke:#9370db;stroke-width:12.5px;stroke-linecap:square;"/>
  <path d="M16.316,201.913c-0,1.107 1.165,1.753 3.494,1.937c0.912,0 1.368,0.254 1.368,0.761c-0,0.046 -0.051,0.346 -0.152,0.9c-0.152,0.646 -0.304,1.061 -0.456,1.245c-0.152,0.185 -0.481,0.277 -0.988,0.277l-0.911,-0c-0.507,-0 -1.368,-0.023 -2.583,-0.069c-1.216,-0.046 -2.836,-0.069 -4.862,-0.069c-3.596,-0 -5.9,0.046 -6.913,0.138l-0.608,-0c-0.355,-0.323 -0.532,-0.577 -0.532,-0.761c0.101,-1.246 0.431,-2.053 0.988,-2.422l1.063,0c3.546,-0.138 6.128,-1.292 7.749,-3.46c0.304,-0.276 4.887,-7.311 13.75,-21.104c8.863,-13.792 13.371,-20.781 13.523,-20.965c0.354,-0.554 0.962,-0.831 1.823,-0.831l1.899,0c0.304,0.415 0.456,0.646 0.456,0.692l2.127,22.35c1.418,14.9 2.178,22.419 2.279,22.557c0.254,0.507 1.9,0.761 4.938,0.761c1.266,0 1.899,0.231 1.899,0.692c0,0.092 -0.075,0.415 -0.227,0.969c-0.152,0.692 -0.279,1.107 -0.38,1.245c-0.102,0.139 -0.456,0.231 -1.064,0.277l-1.063,-0c-0.557,-0 -1.545,-0.023 -2.963,-0.069c-1.418,-0.046 -3.267,-0.069 -5.546,-0.069c-4.761,-0 -7.875,0.046 -9.344,0.138l-0.912,-0c-0.304,-0.277 -0.455,-0.484 -0.455,-0.623c-0,-0.138 0.05,-0.553 0.151,-1.245c0.203,-0.6 0.355,-0.969 0.456,-1.107l0.304,-0.208l1.52,0c2.734,-0.138 4.355,-0.53 4.862,-1.176l-0.912,-10.379l-18.081,-0l-2.583,4.013c-2.076,3.183 -3.114,5.051 -3.114,5.605Zm23.398,-12.87c0,-0.508 -0.304,-4.106 -0.912,-10.795c-0.607,-6.688 -0.962,-10.056 -1.063,-10.102l-2.051,2.975c-0.811,1.246 -2.406,3.714 -4.786,7.404l-6.837,10.518l7.824,0.069c5.217,-0 7.825,-0.023 7.825,-0.069Z" style="fill:#8dcc33;fill-rule:nonzero;stroke:#1e3a5f;stroke-width:1.54px;stroke-linecap:butt;stroke-linejoin:miter;stroke-miterlimit:4;"/>
  <path d="M1082.58,160.728c-1.433,0 -2.281,-0.024 -2.547,-0.072c-0.265,-0.049 -0.398,-0.315 -0.398,-0.8c0,-1.309 0.292,-2.108 0.876,-2.399c0.053,-0.049 3.502,-0.073 10.346,-0.073c13.742,0 20.985,0.049 21.727,0.146c3.343,0.484 6.129,1.575 8.357,3.271c2.229,1.697 3.369,3.926 3.422,6.689c0,3.102 -1.538,5.889 -4.616,8.361c-3.077,2.472 -6.605,4.144 -10.585,5.017l-0.796,0.218c3.396,0.436 6.182,1.551 8.357,3.344c2.175,1.793 3.29,4.023 3.343,6.689c-0,3.538 -1.91,6.955 -5.731,10.251c-3.82,3.296 -8.515,5.162 -14.087,5.598c-0.371,0.049 -5.969,0.073 -16.793,0.073c-10.611,0 -15.997,-0.048 -16.156,-0.145c-0.212,-0.146 -0.318,-0.34 -0.318,-0.582c-0,-0.339 0.053,-0.678 0.159,-1.018c0.265,-0.921 0.531,-1.43 0.796,-1.527c0.212,-0.048 0.61,-0.072 1.194,-0.072l0.477,-0c1.433,-0 3.025,-0.073 4.776,-0.218c0.742,-0.146 1.246,-0.437 1.512,-0.873c0.159,-0.194 2.069,-6.931 5.73,-20.212c3.661,-13.28 5.492,-20.284 5.492,-21.011c-0,-0.339 -1.513,-0.558 -4.537,-0.655Zm33.268,6.762c-0,-1.454 -0.398,-2.811 -1.194,-4.071c-0.796,-1.261 -2.096,-2.085 -3.9,-2.472c-0.371,-0.097 -2.812,-0.17 -7.322,-0.219l-3.343,0c-1.167,0 -2.096,0.025 -2.785,0.073l-1.035,0c-0.796,0.049 -1.3,0.291 -1.512,0.727c-0.106,0.194 -0.955,3.102 -2.547,8.725c0,0.145 -0.026,0.291 -0.079,0.436l-2.468,9.161l6.447,-0c4.298,-0 6.765,-0.049 7.401,-0.146c3.184,-0.484 6.023,-1.89 8.516,-4.217c2.494,-2.326 3.767,-4.992 3.821,-7.997Zm-4.298,22.902c-0,-2.133 -0.61,-3.902 -1.831,-5.308c-1.22,-1.405 -2.812,-2.229 -4.775,-2.471c-0.318,-0.049 -2.52,-0.073 -6.606,-0.073c-6.261,-0 -9.418,0.024 -9.471,0.073c0,0.096 -0.451,1.866 -1.353,5.307c-0.902,3.441 -1.83,6.858 -2.785,10.251l-1.433,5.09c0,0.193 0.319,0.29 0.955,0.29c0.637,0 2.786,0.049 6.447,0.146c4.722,-0 7.269,-0.024 7.64,-0.073c3.29,-0.339 6.314,-1.745 9.073,-4.217c2.759,-2.472 4.139,-5.477 4.139,-9.015Z" style="fill:#8dcc33;fill-rule:nonzero;stroke:#1e3a5f;stroke-width:1.61px;stroke-linecap:butt;stroke-linejoin:miter;stroke-miterlimit:4;"/>
  <path d="M710.704,225.21c-0,-3.886 1.213,-7.621 3.64,-11.203c2.427,-3.582 5.488,-6.421 9.182,-8.516c3.695,-2.096 7.39,-3.16 11.084,-3.194c3.26,-0 5.85,0.862 7.77,2.585c0.326,0.338 0.598,0.625 0.815,0.862c0.218,0.237 0.362,0.406 0.435,0.507l0.054,0.152c0.109,0 0.598,-0.439 1.467,-1.318c0.254,-0.203 0.525,-0.439 0.815,-0.71c0.29,-0.27 0.58,-0.54 0.87,-0.811c0.289,-0.27 0.47,-0.456 0.543,-0.557l0.815,-0.761l0.326,0c0.507,0 0.761,0.119 0.761,0.355c-0,0.135 -0.58,2.45 -1.739,6.945c-1.304,4.698 -1.956,7.063 -1.956,7.097c-0.073,0.169 -0.163,0.27 -0.272,0.304c-0.108,0.034 -0.434,0.068 -0.978,0.102l-0.869,-0c-0.217,-0.203 -0.326,-0.355 -0.326,-0.457c-0,-0.033 0.018,-0.152 0.054,-0.355c0.036,-0.202 0.073,-0.54 0.109,-1.013c0.036,-0.474 0.054,-1.014 0.054,-1.623c0,-2.399 -0.579,-4.494 -1.738,-6.285c-1.16,-1.792 -3.134,-2.704 -5.923,-2.738c-0.942,0 -1.956,0.118 -3.043,0.355c-1.086,0.237 -2.39,0.642 -3.912,1.217c-1.521,0.574 -3.024,1.52 -4.509,2.838c-1.485,1.318 -2.807,2.89 -3.967,4.715c-1.159,1.926 -2.082,4.174 -2.771,6.742c-0.688,2.568 -1.032,4.664 -1.032,6.286c0,3.853 1.376,6.624 4.129,8.314c1.739,1.149 3.876,1.723 6.412,1.723c3.296,0 6.23,-1.149 8.802,-3.447c2.572,-2.298 4.274,-4.799 5.107,-7.503c0.145,-0.439 0.254,-0.692 0.326,-0.76c0.073,-0.068 0.362,-0.101 0.87,-0.101c0.724,-0 1.086,0.152 1.086,0.456c0,0.169 -0.018,0.321 -0.054,0.456c-1.051,3.616 -3.296,6.725 -6.738,9.328c-3.441,2.602 -7.135,3.903 -11.084,3.903c-4.093,-0 -7.552,-1.267 -10.377,-3.802c-2.826,-2.535 -4.238,-5.897 -4.238,-10.088Z" style="fill:#8dcc33;fill-rule:nonzero;stroke:#1e3a5f;stroke-width:1.11px;stroke-linecap:butt;stroke-linejoin:miter;stroke-miterlimit:4;"/>
  <path d="M729.999,20.41l-35.721,12.429l9.132,-12.225l-9.132,-12.633l35.721,12.429Z" style="fill:#0dcaf2;"/>
  <path d="M98.43,98.8l35.722,-12.429l-9.133,12.633l9.133,12.225l-35.722,-12.429Z" style="fill:#0dcaf2;"/>
  <path d="M101.581,20.42l601.679,-0" style="fill:none;stroke:#0dcaf2;stroke-width:6.25px;"/>
  <path d="M738.897,20.42l227.768,-0" style="fill:none;stroke:#0dcaf2;stroke-width:6.25px;"/>
  <path d="M123.713,98.801l842.953,-0" style="fill:none;stroke:#0dcaf2;stroke-width:6.25px;"/>
  <path d="M969.721,20.421c-0,-0 53.571,-0.002 53.571,39.19c-0,39.193 -53.571,39.191 -53.571,39.191" style="fill:none;stroke:#0dcaf2;stroke-width:6.25px;stroke-linecap:square;"/>
  <circle cx="399.074" cy="181.985" r="11.692" style="fill:#ff5151;"/>
  <circle cx="730" cy="181.985" r="11.692" style="fill:#ff5151;"/>
  <g>
        <g>
            <g>
                <g>
                    <g>
                        <path d="M391.726,205.13c0,-0.245 -1.069,-0.402 -3.208,-0.472c-0.863,0 -1.425,-0.017 -1.688,-0.052c-0.263,-0.035 -0.394,-0.192 -0.394,-0.472c-0,-0.279 0.075,-0.628 0.225,-1.047c0.15,-0.419 0.281,-0.681 0.394,-0.786c0.075,-0.035 3.808,-0.053 11.199,-0.053c6.266,0.035 9.774,0.053 10.524,0.053c0.75,-0 1.501,0.105 2.251,0.314c2.701,0.594 4.99,1.973 6.866,4.139c1.876,2.165 2.832,5.063 2.87,8.695c-0,5.448 -2.007,10.338 -6.022,14.668c-4.014,4.331 -8.741,6.915 -14.181,7.753l-0.788,0.105l-10.918,0.052l-9.23,0c-0.9,0 -1.482,-0.035 -1.744,-0.105c-0.263,-0.069 -0.413,-0.227 -0.45,-0.471c-0,-0.07 0.056,-0.314 0.168,-0.733c0.151,-0.559 0.301,-0.873 0.451,-0.943c0.15,-0.07 0.581,-0.123 1.294,-0.157c1.013,-0 2.139,-0.053 3.377,-0.158c0.525,-0.104 0.881,-0.314 1.069,-0.628c0.113,-0.14 1.463,-4.994 4.052,-14.563c2.589,-9.569 3.883,-14.616 3.883,-15.139Zm23.411,8.329c0,-1.327 -0.206,-2.515 -0.619,-3.562c-0.412,-1.048 -0.9,-1.869 -1.463,-2.462c-0.563,-0.594 -1.257,-1.101 -2.082,-1.52c-0.826,-0.419 -1.557,-0.698 -2.195,-0.838c-0.638,-0.139 -1.294,-0.262 -1.97,-0.366l-2.42,-0c-0.637,-0 -1.256,-0.018 -1.857,-0.053l-2.42,0c-1.65,0 -2.588,0.175 -2.814,0.524c-0.075,0.14 -1.444,5.169 -4.108,15.087c-2.664,9.918 -3.995,14.929 -3.995,15.034c-0,0.14 0.206,0.21 0.619,0.21c0.412,-0 1.857,0.017 4.333,0.052l1.069,0c0.525,0 0.976,0.018 1.351,0.053c4.727,-0 8.629,-1.432 11.705,-4.296c1.351,-1.257 2.458,-2.724 3.321,-4.4c0.863,-1.677 1.669,-3.894 2.42,-6.653c0.75,-2.759 1.125,-5.029 1.125,-6.81Z" style="fill:#8dcc33;fill-rule:nonzero;stroke:#1e3a5f;stroke-width:1.34px;stroke-linecap:butt;stroke-linejoin:miter;stroke-miterlimit:4;"/>
                    </g>
                </g>
            </g>
        </g>
    </g>
  <g>
        <path d="M47.81,25.253c0,-5.58 2.1,-10.883 6.298,-15.911c4.199,-5.027 8.923,-7.569 14.171,-7.624c2.818,-0 5.304,1.354 7.459,4.061c0.884,-1.658 2.154,-2.486 3.812,-2.486c0.718,-0 1.353,0.221 1.906,0.662c0.552,0.442 0.829,0.995 0.829,1.658c-0,0.718 -1.022,5.138 -3.067,13.259c-2.044,8.122 -3.093,12.707 -3.149,13.757c0,1.381 0.194,2.293 0.58,2.735c0.387,0.442 0.967,0.69 1.741,0.745c0.497,-0.055 1.049,-0.303 1.657,-0.745c1.16,-1.105 2.293,-3.757 3.398,-7.956c0.331,-1.105 0.608,-1.685 0.829,-1.74c0.11,-0.056 0.386,-0.083 0.828,-0.083l0.332,-0c1.049,-0 1.574,0.248 1.574,0.746c0,0.331 -0.138,1.077 -0.414,2.237c-0.276,1.16 -0.829,2.652 -1.657,4.475c-0.829,1.823 -1.713,3.205 -2.652,4.144c-0.719,0.718 -1.603,1.298 -2.652,1.74c-0.442,0.111 -1.105,0.166 -1.989,0.166c-1.879,-0 -3.453,-0.415 -4.724,-1.243c-1.27,-0.829 -2.099,-1.685 -2.486,-2.569l-0.497,-1.243c-0.055,-0.056 -0.166,-0.028 -0.332,0.083c-0.11,0.11 -0.221,0.221 -0.331,0.331c-3.26,3.094 -6.575,4.641 -9.945,4.641c-3.038,-0 -5.718,-1.105 -8.038,-3.315c-2.321,-2.21 -3.481,-5.718 -3.481,-10.525Zm26.353,-14.171c0,-0.331 -0.138,-0.939 -0.414,-1.823c-0.276,-0.884 -0.912,-1.851 -1.906,-2.9c-0.995,-1.05 -2.265,-1.602 -3.812,-1.658c-1.934,0 -3.785,0.857 -5.553,2.569c-1.767,1.713 -3.149,3.951 -4.143,6.713c-1.602,4.364 -2.735,8.895 -3.398,13.591l0,0.911c0,0.442 -0.027,0.774 -0.083,0.995c0,2.486 0.498,4.199 1.492,5.138c0.994,0.939 2.182,1.436 3.563,1.491c2.1,0 4.172,-0.911 6.216,-2.734c2.044,-1.823 3.259,-3.232 3.646,-4.227c0.111,-0.221 0.856,-3.176 2.238,-8.867c1.381,-5.69 2.099,-8.757 2.154,-9.199Z" style="fill:#0dcaf2;fill-rule:nonzero;stroke:#1e3a5f;stroke-width:0.83px;stroke-linecap:butt;stroke-linejoin:miter;stroke-miterlimit:4;"/>
    </g>
  <g>
        <path d="M1041.49,338.624c-0,-0.553 0.11,-1.188 0.331,-1.906c0.221,-0.718 0.553,-1.077 0.995,-1.077c0.055,-0 2.044,-0.139 5.967,-0.415c3.922,-0.276 5.939,-0.442 6.049,-0.497c0.663,-0 0.995,0.249 0.995,0.746c-0,0.497 -0.94,4.447 -2.818,11.85c-0.442,1.879 -0.912,3.812 -1.409,5.801c-0.497,1.989 -0.911,3.481 -1.243,4.475l-0.331,1.575c-0,0.166 0.165,0.083 0.497,-0.249c2.707,-2.21 5.497,-3.315 8.37,-3.315c3.425,0 6.187,1.271 8.287,3.813c2.099,2.541 3.177,5.745 3.232,9.613c-0,6.132 -2.182,11.684 -6.547,16.657c-4.364,4.972 -9.061,7.458 -14.088,7.458c-2.762,0 -5.276,-1.05 -7.541,-3.149c-2.265,-2.099 -3.426,-5.497 -3.481,-10.193l0,-0.746c0,-1.16 0.221,-2.762 0.663,-4.807c0.442,-2.044 1.796,-7.486 4.061,-16.325c2.762,-10.884 4.143,-16.657 4.143,-17.32c0,-0.663 -1.049,-1.05 -3.149,-1.16l-2.154,-0c-0.166,-0 -0.36,-0.083 -0.581,-0.249c-0.221,-0.166 -0.303,-0.359 -0.248,-0.58Zm21.795,26.684l-0,-0.497c-0,-4.088 -1.685,-6.132 -5.055,-6.132c-0.939,-0 -1.906,0.221 -2.901,0.663c-0.994,0.442 -1.906,1.022 -2.734,1.74c-0.829,0.718 -1.547,1.381 -2.155,1.989c-0.608,0.608 -1.105,1.215 -1.492,1.823l-0.497,0.663l-1.74,7.127c-1.216,4.751 -1.823,8.121 -1.823,10.11c-0,2.652 0.663,4.641 1.988,5.967c0.884,0.884 1.989,1.326 3.315,1.326c1.823,-0 3.674,-0.884 5.553,-2.652c1.381,-1.271 2.486,-2.818 3.315,-4.641c0.828,-1.823 1.74,-4.723 2.734,-8.701c0.995,-3.978 1.492,-6.906 1.492,-8.785Z" style="fill:#ff7faf;fill-rule:nonzero;stroke:#1e3a5f;stroke-width:0.83px;stroke-linecap:butt;stroke-linejoin:miter;stroke-miterlimit:4;"/>
    </g>
  <path d="M729.976,363.937l35.722,-12.429l-9.133,12.634l9.133,12.224l-35.722,-12.429Z" style="fill:#ff7faf;"/>
  <path d="M98.406,363.937l35.722,-12.429l-9.133,12.634l9.133,12.224l-35.722,-12.429Z" style="fill:#ff7faf;"/>
  <path d="M1023.3,363.947l-267.067,0" style="fill:none;stroke:#ff7faf;stroke-width:6.25px;"/>
  <path d="M721.24,363.947l-596.577,0" style="fill:none;stroke:#ff7faf;stroke-width:6.25px;"/>
  <path d="M1054.57,202.717l0,-41.285" style="fill:none;stroke:#8dcc33;stroke-width:12.5px;"/>
  <path d="M67.405,201.555l-0,-38.995" style="fill:none;stroke:#8dcc33;stroke-width:12.5px;"/>
</svg>
