<?xml version="1.0" encoding="UTF-8" standalone="no"?>
<!DOCTYPE svg PUBLIC "-//W3C//DTD SVG 1.1//EN" "http://www.w3.org/Graphics/SVG/1.1/DTD/svg11.dtd">
<svg width="356" height="145" viewBox="0 0 1120 395" version="1.1" xmlns="http://www.w3.org/2000/svg" xmlns:xlink="http://www.w3.org/1999/xlink" xml:space="preserve" xmlns:serif="http://www.serif.com/" style="fill-rule:evenodd;clip-rule:evenodd;stroke-linecap:round;stroke-linejoin:round;stroke-miterlimit:1.5;">
    <path d="M395.213,179.456l0,-28.53" style="fill:none;stroke:#8dcc33;stroke-width:12.5px;"/>
  <path d="M726.139,179.456l0,-28.53" style="fill:none;stroke:#8dcc33;stroke-width:12.5px;"/>
  <path d="M63.638,182.064l986.318,-0" style="fill:none;stroke:#9370db;stroke-width:12.5px;stroke-linecap:square;"/>
  <path d="M15.177,200.374c-0,1.03 1.083,1.63 3.25,1.802c0.848,0 1.272,0.236 1.272,0.708c0,0.043 -0.047,0.322 -0.141,0.837c-0.141,0.6 -0.283,0.987 -0.424,1.158c-0.141,0.172 -0.448,0.258 -0.919,0.258l-0.848,-0c-0.471,-0 -1.272,-0.022 -2.402,-0.065c-1.131,-0.043 -2.639,-0.064 -4.523,-0.064c-3.345,0 -5.488,0.043 -6.43,0.129l-0.566,-0c-0.33,-0.301 -0.494,-0.537 -0.494,-0.708c0.094,-1.159 0.4,-1.91 0.918,-2.253l0.99,0c3.297,-0.129 5.7,-1.201 7.207,-3.218c0.283,-0.258 4.546,-6.801 12.791,-19.631c8.244,-12.829 12.437,-19.33 12.578,-19.502c0.33,-0.515 0.895,-0.772 1.696,-0.772l1.767,-0c0.282,0.386 0.424,0.601 0.424,0.644l1.978,20.789c1.319,13.859 2.026,20.853 2.12,20.982c0.236,0.472 1.767,0.708 4.593,0.708c1.178,0 1.767,0.215 1.767,0.644c0,0.086 -0.071,0.386 -0.212,0.901c-0.141,0.643 -0.259,1.03 -0.353,1.158c-0.095,0.129 -0.424,0.215 -0.99,0.258l-0.989,-0c-0.518,-0 -1.437,-0.022 -2.756,-0.065c-1.319,-0.043 -3.038,-0.064 -5.158,-0.064c-4.429,0 -7.326,0.043 -8.692,0.129l-0.848,-0c-0.283,-0.258 -0.424,-0.451 -0.424,-0.58c-0,-0.128 0.047,-0.514 0.141,-1.158c0.189,-0.558 0.33,-0.901 0.424,-1.03l0.283,-0.193l1.413,0c2.544,-0.129 4.052,-0.493 4.523,-1.094l-0.848,-9.655l-16.819,0l-2.402,3.733c-1.932,2.961 -2.897,4.699 -2.897,5.214Zm21.764,-11.972c0,-0.472 -0.282,-3.818 -0.848,-10.04c-0.565,-6.222 -0.895,-9.354 -0.989,-9.397l-1.908,2.767c-0.754,1.159 -2.238,3.455 -4.452,6.887l-6.36,9.783l7.279,0.065c4.852,-0 7.278,-0.022 7.278,-0.065Z" style="fill:#8dcc33;fill-rule:nonzero;stroke:#1e3a5f;stroke-width:1.43px;stroke-linecap:butt;stroke-linejoin:miter;stroke-miterlimit:4;"/>
  <path d="M1077.4,162.225c-1.326,-0 -2.112,-0.022 -2.358,-0.067c-0.246,-0.045 -0.369,-0.292 -0.369,-0.741c0,-1.212 0.271,-1.953 0.811,-2.222c0.049,-0.045 3.243,-0.067 9.582,-0.067c12.727,-0 19.434,0.045 20.122,0.134c3.096,0.449 5.676,1.459 7.74,3.03c2.063,1.571 3.12,3.636 3.169,6.195c0,2.873 -1.425,5.454 -4.275,7.743c-2.85,2.29 -6.118,3.838 -9.803,4.646l-0.737,0.202c3.145,0.404 5.724,1.437 7.739,3.098c2.015,1.661 3.047,3.725 3.096,6.194c-0,3.277 -1.769,6.442 -5.307,9.494c-3.538,3.053 -7.887,4.781 -13.046,5.185c-0.344,0.045 -5.528,0.067 -15.553,0.067c-9.827,0 -14.815,-0.045 -14.962,-0.134c-0.197,-0.135 -0.295,-0.315 -0.295,-0.539c-0,-0.314 0.049,-0.628 0.147,-0.943c0.246,-0.853 0.492,-1.324 0.737,-1.414c0.197,-0.045 0.565,-0.067 1.106,-0.067l0.442,-0c1.327,-0 2.801,-0.067 4.423,-0.202c0.688,-0.135 1.154,-0.404 1.4,-0.808c0.147,-0.18 1.916,-6.419 5.307,-18.719c3.391,-12.299 5.086,-18.786 5.086,-19.459c-0,-0.314 -1.401,-0.516 -4.202,-0.606Zm30.81,6.262c0,-1.347 -0.368,-2.604 -1.105,-3.771c-0.737,-1.167 -1.941,-1.93 -3.612,-2.289c-0.344,-0.09 -2.604,-0.157 -6.781,-0.202l-3.096,-0c-1.081,-0 -1.941,0.022 -2.58,0.067l-0.958,0c-0.737,0.045 -1.204,0.27 -1.4,0.674c-0.099,0.179 -0.885,2.873 -2.359,8.08c0,0.134 -0.024,0.269 -0.074,0.404l-2.285,8.484l5.971,-0c3.98,-0 6.265,-0.045 6.855,-0.135c2.948,-0.449 5.577,-1.751 7.886,-3.905c2.31,-2.155 3.489,-4.624 3.538,-7.407Zm-3.98,21.21c0,-1.975 -0.565,-3.614 -1.695,-4.915c-1.13,-1.302 -2.604,-2.065 -4.423,-2.29c-0.294,-0.045 -2.334,-0.067 -6.117,-0.067c-5.799,-0 -8.722,0.022 -8.772,0.067c0,0.09 -0.417,1.729 -1.253,4.916c-0.835,3.187 -1.695,6.351 -2.579,9.494l-1.327,4.713c-0,0.18 0.295,0.269 0.884,0.269c0.59,0 2.58,0.045 5.971,0.135c4.373,-0 6.732,-0.022 7.076,-0.067c3.046,-0.315 5.847,-1.616 8.402,-3.906c2.556,-2.289 3.833,-5.072 3.833,-8.349Z" style="fill:#8dcc33;fill-rule:nonzero;stroke:#1e3a5f;stroke-width:1.5px;stroke-linecap:butt;stroke-linejoin:miter;stroke-miterlimit:4;"/>
  <path d="M701.943,236.309c0,-4.876 1.523,-9.562 4.568,-14.057c3.045,-4.495 6.886,-8.057 11.522,-10.686c4.636,-2.629 9.272,-3.965 13.908,-4.007c4.09,-0 7.34,1.081 9.749,3.244c0.409,0.424 0.75,0.784 1.023,1.081c0.272,0.297 0.454,0.509 0.545,0.636l0.068,0.191c0.137,-0 0.75,-0.551 1.841,-1.654c0.318,-0.254 0.659,-0.551 1.023,-0.89c0.363,-0.34 0.727,-0.679 1.091,-1.018c0.363,-0.339 0.59,-0.573 0.681,-0.7l1.023,-0.954l0.409,0c0.636,0 0.954,0.148 0.954,0.445c0,0.17 -0.727,3.075 -2.181,8.715c-1.636,5.894 -2.455,8.862 -2.455,8.905c-0.09,0.212 -0.204,0.339 -0.34,0.381c-0.137,0.043 -0.546,0.085 -1.228,0.128l-1.09,-0c-0.273,-0.255 -0.409,-0.446 -0.409,-0.573c-0,-0.042 0.022,-0.191 0.068,-0.445c0.045,-0.255 0.091,-0.679 0.136,-1.272c0.046,-0.594 0.068,-1.272 0.068,-2.036c0,-3.011 -0.727,-5.64 -2.181,-7.887c-1.455,-2.248 -3.932,-3.393 -7.432,-3.435c-1.181,-0 -2.454,0.148 -3.817,0.445c-1.364,0.297 -3,0.806 -4.909,1.527c-1.909,0.721 -3.795,1.908 -5.659,3.562c-1.863,1.654 -3.522,3.626 -4.977,5.915c-1.454,2.418 -2.613,5.237 -3.477,8.46c-0.863,3.223 -1.295,5.852 -1.295,7.888c-0,4.834 1.727,8.311 5.181,10.431c2.182,1.442 4.864,2.163 8.045,2.163c4.136,0 7.818,-1.442 11.045,-4.325c3.227,-2.884 5.363,-6.022 6.408,-9.414c0.182,-0.552 0.318,-0.87 0.409,-0.954c0.091,-0.085 0.455,-0.128 1.091,-0.128c0.909,0 1.364,0.191 1.364,0.573c-0,0.212 -0.023,0.403 -0.068,0.572c-1.319,4.538 -4.136,8.439 -8.454,11.704c-4.318,3.265 -8.954,4.898 -13.908,4.898c-5.136,0 -9.477,-1.59 -13.022,-4.771c-3.545,-3.18 -5.318,-7.399 -5.318,-12.658Z" style="fill:#8dcc33;fill-rule:nonzero;stroke:#1e3a5f;stroke-width:1.4px;stroke-linecap:butt;stroke-linejoin:miter;stroke-miterlimit:4;"/>
  <path d="M726.139,20.41l-35.722,12.429l9.133,-12.225l-9.133,-12.633l35.722,12.429Z" style="fill:#0dcaf2;"/>
  <path d="M395.214,98.805l35.721,-12.429l-9.132,12.633l9.132,12.225l-35.721,-12.429Z" style="fill:#0dcaf2;"/>
  <path d="M97.72,20.42l601.679,-0" style="fill:none;stroke:#0dcaf2;stroke-width:6.25px;"/>
  <path d="M735.036,20.42l227.768,-0" style="fill:none;stroke:#0dcaf2;stroke-width:6.25px;"/>
  <path d="M419.361,98.801l543.444,-0" style="fill:none;stroke:#0dcaf2;stroke-width:6.25px;"/>
  <path d="M965.86,20.421c0,-0 53.571,-0.002 53.571,39.19c0,39.193 -53.571,39.191 -53.571,39.191" style="fill:none;stroke:#0dcaf2;stroke-width:6.25px;stroke-linecap:square;"/>
  <path d="M139.787,285.551c0,-0 -53.586,0 -53.596,39.202c-0.01,39.204 53.576,39.199 53.576,39.199" style="fill:none;stroke:#ff7faf;stroke-width:6.25px;stroke-linecap:square;"/>
  <circle cx="395.214" cy="181.985" r="11.692" style="fill:#ff5151;"/>
  <circle cx="726.14" cy="181.985" r="11.692" style="fill:#ff5151;"/>
  <g>
        <g>
            <g>
                <g>
                    <g>
                        <g>
                            <path d="M385.602,211.217c-0,-0.311 -1.402,-0.512 -4.207,-0.601c-1.131,0 -1.869,-0.022 -2.214,-0.067c-0.344,-0.044 -0.516,-0.244 -0.516,-0.6c-0,-0.357 0.098,-0.802 0.295,-1.336c0.197,-0.534 0.369,-0.868 0.517,-1.001c0.098,-0.045 4.993,-0.067 14.686,-0.067c8.216,0.044 12.817,0.067 13.801,0.067c0.984,-0 1.968,0.133 2.952,0.4c3.542,0.757 6.543,2.515 9.003,5.275c2.46,2.76 3.715,6.455 3.764,11.084c0,6.945 -2.632,13.177 -7.897,18.696c-5.264,5.52 -11.463,8.814 -18.597,9.883l-1.034,0.133l-14.317,0.067l-12.103,-0c-1.181,-0 -1.944,-0.045 -2.288,-0.134c-0.344,-0.089 -0.541,-0.289 -0.59,-0.601c-0,-0.089 0.073,-0.4 0.221,-0.934c0.197,-0.713 0.394,-1.113 0.59,-1.202c0.197,-0.089 0.763,-0.156 1.698,-0.201c1.328,0 2.804,-0.066 4.428,-0.2c0.689,-0.133 1.156,-0.401 1.402,-0.801c0.148,-0.178 1.919,-6.366 5.314,-18.563c3.395,-12.197 5.092,-18.629 5.092,-19.297Zm30.701,10.617c-0,-1.692 -0.271,-3.205 -0.812,-4.541c-0.541,-1.335 -1.181,-2.381 -1.919,-3.138c-0.738,-0.757 -1.648,-1.402 -2.73,-1.936c-1.083,-0.534 -2.042,-0.891 -2.878,-1.069c-0.837,-0.178 -1.698,-0.333 -2.583,-0.467l-3.174,0c-0.836,0 -1.648,-0.022 -2.435,-0.067l-3.174,0c-2.165,0 -3.395,0.223 -3.69,0.668c-0.098,0.178 -1.894,6.588 -5.387,19.23c-3.493,12.642 -5.24,19.03 -5.24,19.164c-0,0.178 0.271,0.267 0.812,0.267c0.541,-0 2.435,0.022 5.682,0.067l1.403,-0c0.688,-0 1.279,0.022 1.771,0.066c6.199,0 11.316,-1.825 15.35,-5.475c1.772,-1.602 3.223,-3.472 4.355,-5.609c1.131,-2.136 2.189,-4.963 3.173,-8.48c0.984,-3.516 1.476,-6.41 1.476,-8.68Z" style="fill:#8dcc33;fill-rule:nonzero;stroke:#1e3a5f;stroke-width:1.74px;stroke-linecap:butt;stroke-linejoin:miter;stroke-miterlimit:4;"/>
                        </g>
                    </g>
                </g>
            </g>
        </g>
    </g>
  <g>
        <g>
            <path d="M43.95,25.253c-0,-5.58 2.099,-10.883 6.298,-15.911c4.199,-5.027 8.922,-7.569 14.171,-7.624c2.818,-0 5.304,1.354 7.458,4.061c0.884,-1.658 2.155,-2.486 3.812,-2.486c0.719,-0 1.354,0.221 1.906,0.662c0.553,0.442 0.829,0.995 0.829,1.658c0,0.718 -1.022,5.138 -3.066,13.259c-2.044,8.122 -3.094,12.707 -3.149,13.757c-0,1.381 0.193,2.293 0.58,2.735c0.387,0.442 0.967,0.69 1.74,0.745c0.497,-0.055 1.05,-0.303 1.658,-0.745c1.16,-1.105 2.292,-3.757 3.397,-7.956c0.332,-1.105 0.608,-1.685 0.829,-1.74c0.11,-0.056 0.387,-0.083 0.829,-0.083l0.331,-0c1.05,-0 1.575,0.248 1.575,0.746c-0,0.331 -0.138,1.077 -0.415,2.237c-0.276,1.16 -0.828,2.652 -1.657,4.475c-0.829,1.823 -1.713,3.205 -2.652,4.144c-0.718,0.718 -1.602,1.298 -2.652,1.74c-0.442,0.111 -1.105,0.166 -1.989,0.166c-1.878,-0 -3.453,-0.415 -4.723,-1.243c-1.271,-0.829 -2.1,-1.685 -2.486,-2.569l-0.498,-1.243c-0.055,-0.056 -0.165,-0.028 -0.331,0.083c-0.111,0.11 -0.221,0.221 -0.332,0.331c-3.259,3.094 -6.574,4.641 -9.944,4.641c-3.039,-0 -5.718,-1.105 -8.039,-3.315c-2.32,-2.21 -3.48,-5.718 -3.48,-10.525Zm26.353,-14.171c-0,-0.331 -0.138,-0.939 -0.415,-1.823c-0.276,-0.884 -0.911,-1.851 -1.906,-2.9c-0.994,-1.05 -2.265,-1.602 -3.812,-1.658c-1.933,0 -3.784,0.857 -5.552,2.569c-1.768,1.713 -3.149,3.951 -4.144,6.713c-1.602,4.364 -2.734,8.895 -3.397,13.591l-0,0.911c-0,0.442 -0.028,0.774 -0.083,0.995c-0,2.486 0.497,4.199 1.491,5.138c0.995,0.939 2.183,1.436 3.564,1.491c2.099,0 4.171,-0.911 6.215,-2.734c2.044,-1.823 3.26,-3.232 3.647,-4.227c0.11,-0.221 0.856,-3.176 2.237,-8.867c1.381,-5.69 2.099,-8.757 2.155,-9.199Z" style="fill:#0dcaf2;fill-rule:nonzero;stroke:#1e3a5f;stroke-width:0.83px;stroke-linecap:butt;stroke-linejoin:miter;stroke-miterlimit:4;"/>
        </g>
    </g>
  <g>
        <g>
            <path d="M1037.63,338.624c0,-0.553 0.111,-1.188 0.332,-1.906c0.221,-0.718 0.552,-1.077 0.994,-1.077c0.056,-0 2.044,-0.139 5.967,-0.415c3.923,-0.276 5.939,-0.442 6.05,-0.497c0.663,-0 0.994,0.249 0.994,0.746c0,0.497 -0.939,4.447 -2.818,11.85c-0.442,1.879 -0.911,3.812 -1.408,5.801c-0.498,1.989 -0.912,3.481 -1.243,4.475l-0.332,1.575c0,0.166 0.166,0.083 0.497,-0.249c2.707,-2.21 5.497,-3.315 8.37,-3.315c3.426,0 6.188,1.271 8.287,3.813c2.1,2.541 3.177,5.745 3.232,9.613c0,6.132 -2.182,11.684 -6.546,16.657c-4.365,4.972 -9.061,7.458 -14.089,7.458c-2.762,0 -5.276,-1.05 -7.541,-3.149c-2.265,-2.099 -3.425,-5.497 -3.48,-10.193l-0,-0.746c-0,-1.16 0.221,-2.762 0.663,-4.807c0.442,-2.044 1.795,-7.486 4.06,-16.325c2.763,-10.884 4.144,-16.657 4.144,-17.32c-0,-0.663 -1.05,-1.05 -3.149,-1.16l-2.155,-0c-0.166,-0 -0.359,-0.083 -0.58,-0.249c-0.221,-0.166 -0.304,-0.359 -0.249,-0.58Zm21.795,26.684l0,-0.497c0,-4.088 -1.685,-6.132 -5.055,-6.132c-0.939,-0 -1.906,0.221 -2.9,0.663c-0.995,0.442 -1.906,1.022 -2.735,1.74c-0.829,0.718 -1.547,1.381 -2.155,1.989c-0.607,0.608 -1.105,1.215 -1.491,1.823l-0.498,0.663l-1.74,7.127c-1.215,4.751 -1.823,8.121 -1.823,10.11c0,2.652 0.663,4.641 1.989,5.967c0.884,0.884 1.989,1.326 3.315,1.326c1.823,-0 3.674,-0.884 5.552,-2.652c1.381,-1.271 2.486,-2.818 3.315,-4.641c0.829,-1.823 1.74,-4.723 2.735,-8.701c0.994,-3.978 1.491,-6.906 1.491,-8.785Z" style="fill:#ff7faf;fill-rule:nonzero;stroke:#1e3a5f;stroke-width:0.83px;stroke-linecap:butt;stroke-linejoin:miter;stroke-miterlimit:4;"/>
        </g>
    </g>
  <path d="M726.115,363.937l35.722,-12.429l-9.133,12.634l9.133,12.224l-35.722,-12.429Z" style="fill:#ff7faf;"/>
  <path d="M395.213,285.551l-35.721,12.429l9.132,-12.225l-9.132,-12.633l35.721,12.429Z" style="fill:#ff7faf;"/>
  <path d="M1019.44,363.947l-267.066,0" style="fill:none;stroke:#ff7faf;stroke-width:6.25px;"/>
  <path d="M717.38,363.947l-575.197,0" style="fill:none;stroke:#ff7faf;stroke-width:6.25px;"/>
  <path d="M368.915,285.55l-226.615,0" style="fill:none;stroke:#ff7faf;stroke-width:6.25px;"/>
  <path d="M1050.71,202.717l-0,-41.285" style="fill:none;stroke:#8dcc33;stroke-width:12.5px;"/>
  <path d="M63.544,201.555l0,-38.995" style="fill:none;stroke:#8dcc33;stroke-width:12.5px;"/>
</svg>
