<?xml version="1.0" encoding="UTF-8" standalone="no"?>
<!DOCTYPE svg PUBLIC "-//W3C//DTD SVG 1.1//EN" "http://www.w3.org/Graphics/SVG/1.1/DTD/svg11.dtd">
<svg width="356" height="145" viewBox="0 0 1476 520" version="1.1" xmlns="http://www.w3.org/2000/svg" xmlns:xlink="http://www.w3.org/1999/xlink" xml:space="preserve" xmlns:serif="http://www.serif.com/" style="fill-rule:evenodd;clip-rule:evenodd;stroke-linecap:round;stroke-linejoin:round;stroke-miterlimit:1.5;">
    <path d="M521.53,235.978l0,-37.518" style="fill:none;stroke:#8dcc33;stroke-width:16.44px;"/>
  <path d="M956.702,235.978l-0,-37.518" style="fill:none;stroke:#8dcc33;stroke-width:16.44px;"/>
  <path d="M85.505,239.407l1297.02,0" style="fill:none;stroke:#9370db;stroke-width:16.44px;stroke-linecap:square;"/>
  <path d="M956.7,26.83l-46.973,16.345l12.009,-16.076l-12.009,-16.613l46.973,16.344Z" style="fill:#0dcaf2;"/>
  <path d="M521.53,129.921l46.975,-16.345l-12.01,16.613l12.01,16.076l-46.975,-16.344Z" style="fill:#0dcaf2;"/>
  <path d="M130.323,26.843l791.215,0" style="fill:none;stroke:#0dcaf2;stroke-width:8.22px;"/>
  <path d="M968.401,26.843l299.518,0" style="fill:none;stroke:#0dcaf2;stroke-width:8.22px;"/>
  <path d="M553.284,129.915l714.636,0" style="fill:none;stroke:#0dcaf2;stroke-width:8.22px;"/>
  <path d="M1271.94,26.845c-0,-0 70.446,-0.003 70.446,51.535c0,51.539 -70.446,51.537 -70.446,51.537" style="fill:none;stroke:#0dcaf2;stroke-width:8.22px;stroke-linecap:square;"/>
  <circle cx="521.53" cy="239.303" r="15.375" style="fill:#ff5151;"/>
  <circle cx="956.702" cy="239.303" r="15.375" style="fill:#ff5151;"/>
  <path d="M59.614,33.199c-0,-7.338 2.761,-14.311 8.282,-20.923c5.522,-6.611 11.734,-9.954 18.635,-10.026c3.706,0 6.975,1.781 9.809,5.34c1.162,-2.18 2.832,-3.269 5.012,-3.269c0.945,0 1.78,0.291 2.507,0.871c0.726,0.581 1.09,1.308 1.09,2.18c-0,0.944 -1.344,6.757 -4.033,17.436c-2.688,10.68 -4.068,16.71 -4.141,18.09c-0,1.816 0.255,3.016 0.762,3.597c0.509,0.581 1.272,0.907 2.29,0.98c0.653,-0.073 1.379,-0.399 2.179,-0.98c1.525,-1.453 3.015,-4.941 4.468,-10.462c0.436,-1.453 0.8,-2.216 1.09,-2.288c0.145,-0.074 0.508,-0.11 1.089,-0.11l0.437,0c1.379,0 2.07,0.327 2.07,0.981c-0,0.436 -0.182,1.417 -0.545,2.942c-0.363,1.526 -1.09,3.488 -2.179,5.885c-1.09,2.397 -2.252,4.214 -3.487,5.449c-0.946,0.944 -2.108,1.707 -3.488,2.288c-0.581,0.146 -1.453,0.219 -2.615,0.219c-2.471,-0 -4.541,-0.546 -6.212,-1.635c-1.67,-1.09 -2.76,-2.216 -3.269,-3.378l-0.654,-1.635c-0.072,-0.073 -0.218,-0.037 -0.436,0.109c-0.145,0.145 -0.291,0.291 -0.436,0.436c-4.287,4.068 -8.646,6.103 -13.078,6.103c-3.995,-0 -7.519,-1.453 -10.57,-4.36c-3.052,-2.906 -4.577,-7.519 -4.577,-13.84Zm34.654,-18.635c0,-0.435 -0.181,-1.235 -0.544,-2.397c-0.363,-1.163 -1.199,-2.434 -2.506,-3.814c-1.309,-1.381 -2.979,-2.107 -5.013,-2.18c-2.544,-0 -4.978,1.127 -7.303,3.378c-2.323,2.253 -4.141,5.196 -5.448,8.828c-2.106,5.738 -3.596,11.697 -4.468,17.872l-0,1.198c-0,0.581 -0.036,1.018 -0.109,1.308c-0,3.27 0.655,5.522 1.962,6.757c1.307,1.235 2.869,1.888 4.685,1.961c2.762,-0 5.486,-1.198 8.174,-3.596c2.688,-2.397 4.286,-4.25 4.795,-5.558c0.146,-0.291 1.125,-4.177 2.943,-11.66c1.816,-7.483 2.76,-11.516 2.832,-12.097Z" style="fill:#0dcaf2;fill-rule:nonzero;stroke:#1e3a5f;stroke-width:1.09px;stroke-linecap:butt;stroke-linejoin:miter;stroke-miterlimit:4;"/>
  <path d="M1366.32,445.285c-0,-0.727 0.144,-1.562 0.435,-2.506c0.291,-0.944 0.727,-1.416 1.309,-1.416c0.072,-0 2.687,-0.183 7.846,-0.546c5.158,-0.363 7.81,-0.581 7.955,-0.653c0.872,-0 1.308,0.327 1.308,0.981c0,0.653 -1.236,5.847 -3.706,15.582c-0.581,2.471 -1.199,5.013 -1.852,7.629c-0.654,2.615 -1.198,4.577 -1.635,5.884l-0.435,2.072c-0,0.218 0.217,0.109 0.653,-0.328c3.56,-2.906 7.229,-4.359 11.007,-4.359c4.504,-0 8.136,1.671 10.897,5.014c2.761,3.341 4.178,7.555 4.251,12.641c-0,8.064 -2.87,15.365 -8.61,21.904c-5.739,6.539 -11.915,9.808 -18.526,9.808c-3.632,-0 -6.938,-1.381 -9.916,-4.141c-2.979,-2.76 -4.505,-7.229 -4.578,-13.404l0,-0.981c0,-1.526 0.291,-3.632 0.872,-6.321c0.581,-2.688 2.362,-9.845 5.34,-21.468c3.632,-14.313 5.448,-21.904 5.448,-22.776c0,-0.872 -1.379,-1.381 -4.141,-1.525l-2.832,-0c-0.218,-0 -0.473,-0.11 -0.764,-0.328c-0.291,-0.218 -0.399,-0.472 -0.326,-0.763Zm28.66,35.09l0,-0.653c0,-5.376 -2.215,-8.064 -6.647,-8.064c-1.235,0 -2.506,0.291 -3.815,0.872c-1.307,0.581 -2.506,1.344 -3.595,2.288c-1.09,0.944 -2.034,1.816 -2.834,2.616c-0.799,0.799 -1.453,1.597 -1.962,2.397l-0.653,0.872l-2.289,9.372c-1.599,6.247 -2.397,10.679 -2.397,13.295c0,3.487 0.872,6.103 2.614,7.846c1.163,1.163 2.616,1.744 4.36,1.744c2.397,-0 4.831,-1.163 7.302,-3.487c1.816,-1.672 3.269,-3.706 4.359,-6.103c1.089,-2.398 2.288,-6.211 3.596,-11.442c1.308,-5.231 1.961,-9.082 1.961,-11.553Z" style="fill:#ff7faf;fill-rule:nonzero;stroke:#1e3a5f;stroke-width:1.09px;stroke-linecap:butt;stroke-linejoin:miter;stroke-miterlimit:4;"/>
  <path d="M956.67,478.572l46.975,-16.344l-12.01,16.614l12.01,16.075l-46.975,-16.345Z" style="fill:#ff7faf;"/>
  <path d="M521.53,478.587l46.975,-16.344l-12.01,16.612l12.01,16.076l-46.975,-16.344Z" style="fill:#ff7faf;"/>
  <path d="M1342.39,478.586l-351.197,-0" style="fill:none;stroke:#ff7faf;stroke-width:8.22px;"/>
  <path d="M945.182,478.586l-391.105,-0" style="fill:none;stroke:#ff7faf;stroke-width:8.22px;"/>
  <path d="M1383.52,266.566l0,-54.29" style="fill:none;stroke:#8dcc33;stroke-width:16.44px;"/>
  <path d="M85.382,265.038l-0,-51.279" style="fill:none;stroke:#8dcc33;stroke-width:16.44px;"/>
  <path d="M20.445,264.06c0,1.387 1.46,2.196 4.379,2.427c1.142,0 1.714,0.318 1.714,0.954c-0,0.058 -0.064,0.434 -0.191,1.127c-0.19,0.81 -0.381,1.33 -0.571,1.561c-0.19,0.231 -0.603,0.347 -1.238,0.347l-1.142,-0c-0.635,-0 -1.713,-0.029 -3.237,-0.087c-1.523,-0.058 -3.554,-0.087 -6.092,-0.087c-4.506,0 -7.394,0.058 -8.663,0.174l-0.761,-0c-0.445,-0.405 -0.667,-0.723 -0.667,-0.954c0.127,-1.561 0.54,-2.572 1.238,-3.035l1.333,0c4.442,-0.173 7.679,-1.618 9.709,-4.335c0.381,-0.347 6.125,-9.162 17.231,-26.445c11.106,-17.283 16.754,-26.041 16.945,-26.272c0.444,-0.694 1.205,-1.04 2.284,-1.04l2.38,-0c0.381,0.52 0.571,0.809 0.571,0.867l2.666,28.006c1.777,18.67 2.729,28.092 2.856,28.266c0.317,0.635 2.379,0.953 6.187,0.953c1.587,0 2.38,0.289 2.38,0.867c0,0.116 -0.095,0.521 -0.285,1.214c-0.191,0.867 -0.349,1.388 -0.476,1.561c-0.127,0.173 -0.572,0.289 -1.333,0.347l-1.333,-0c-0.698,-0 -1.936,-0.029 -3.712,-0.087c-1.777,-0.058 -4.094,-0.087 -6.95,-0.087c-5.965,0 -9.868,0.058 -11.709,0.174l-1.142,-0c-0.381,-0.347 -0.571,-0.607 -0.571,-0.78c-0,-0.174 0.063,-0.694 0.19,-1.561c0.254,-0.752 0.444,-1.214 0.571,-1.387l0.381,-0.261l1.904,0c3.427,-0.173 5.458,-0.664 6.092,-1.474l-1.142,-13.005l-22.656,-0l-3.237,5.028c-2.602,3.989 -3.903,6.33 -3.903,7.024Zm29.32,-16.128c0,-0.635 -0.381,-5.144 -1.142,-13.526c-0.762,-8.381 -1.206,-12.601 -1.333,-12.659l-2.57,3.729c-1.016,1.56 -3.015,4.653 -5.998,9.277l-8.567,13.179l9.805,0.087c6.537,0 9.805,-0.029 9.805,-0.087Z" style="fill:#8dcc33;fill-rule:nonzero;stroke:#1e3a5f;stroke-width:1.93px;stroke-linecap:butt;stroke-linejoin:miter;stroke-miterlimit:4;"/>
  <path d="M1419.18,212.8c-1.779,-0 -2.833,-0.03 -3.163,-0.09c-0.329,-0.061 -0.494,-0.392 -0.494,-0.994c0,-1.625 0.363,-2.618 1.087,-2.979c0.066,-0.06 4.349,-0.09 12.849,-0.09c17.065,-0 26.059,0.06 26.982,0.18c4.151,0.602 7.61,1.956 10.377,4.063c2.768,2.107 4.184,4.876 4.25,8.307c0,3.852 -1.911,7.313 -5.732,10.383c-3.822,3.069 -8.204,5.146 -13.145,6.229l-0.989,0.271c4.217,0.542 7.677,1.926 10.378,4.153c2.702,2.227 4.085,4.996 4.151,8.307c0,4.394 -2.372,8.637 -7.116,12.73c-4.744,4.093 -10.575,6.411 -17.494,6.952c-0.461,0.061 -7.412,0.091 -20.854,0.091c-13.178,-0 -19.866,-0.061 -20.063,-0.181c-0.264,-0.181 -0.396,-0.421 -0.396,-0.722c0,-0.422 0.066,-0.843 0.198,-1.264c0.33,-1.144 0.659,-1.776 0.988,-1.896c0.264,-0.06 0.758,-0.091 1.483,-0.091l0.593,0c1.779,0 3.756,-0.09 5.93,-0.27c0.923,-0.181 1.548,-0.542 1.878,-1.084c0.198,-0.241 2.57,-8.607 7.116,-25.1c4.546,-16.492 6.82,-25.19 6.82,-26.093c-0,-0.421 -1.878,-0.692 -5.634,-0.812Zm41.313,8.397c-0,-1.806 -0.494,-3.492 -1.483,-5.057c-0.988,-1.564 -2.602,-2.588 -4.843,-3.069c-0.461,-0.121 -3.492,-0.211 -9.092,-0.271l-4.151,-0c-1.45,-0 -2.603,0.03 -3.46,0.09l-1.284,0c-0.989,0.06 -1.615,0.361 -1.878,0.903c-0.132,0.241 -1.186,3.852 -3.163,10.834c0,0.181 -0.033,0.362 -0.099,0.542l-3.064,11.376l8.006,0c5.337,0 8.401,-0.06 9.192,-0.18c3.953,-0.602 7.478,-2.348 10.575,-5.237c3.097,-2.889 4.678,-6.2 4.744,-9.931Zm-5.337,28.44c-0,-2.648 -0.758,-4.845 -2.273,-6.591c-1.516,-1.746 -3.493,-2.769 -5.93,-3.07c-0.396,-0.06 -3.13,-0.09 -8.204,-0.09c-7.775,-0 -11.695,0.03 -11.761,0.09c-0,0.121 -0.56,2.318 -1.68,6.591c-1.12,4.274 -2.273,8.517 -3.459,12.731l-1.779,6.32c-0,0.24 0.395,0.361 1.186,0.361c0.79,-0 3.459,0.06 8.005,0.18c5.864,0 9.027,-0.03 9.488,-0.09c4.085,-0.421 7.841,-2.167 11.267,-5.236c3.427,-3.07 5.14,-6.802 5.14,-11.196Z" style="fill:#8dcc33;fill-rule:nonzero;stroke:#1e3a5f;stroke-width:2.01px;stroke-linecap:butt;stroke-linejoin:miter;stroke-miterlimit:4;"/>
  <path d="M924.369,311.68c0,-6.514 2.034,-12.772 6.101,-18.776c4.067,-6.003 9.197,-10.761 15.389,-14.273c6.192,-3.511 12.384,-5.295 18.576,-5.352c5.464,0 9.804,1.444 13.021,4.333c0.547,0.566 1.002,1.048 1.366,1.444c0.365,0.397 0.607,0.68 0.729,0.85l0.091,0.255c0.182,-0 1.001,-0.737 2.458,-2.209c0.425,-0.34 0.881,-0.737 1.366,-1.19c0.486,-0.453 0.972,-0.906 1.457,-1.359c0.486,-0.453 0.789,-0.765 0.911,-0.934l1.366,-1.275l0.546,0c0.85,0 1.275,0.198 1.275,0.595c-0,0.226 -0.971,4.106 -2.914,11.639c-2.185,7.873 -3.278,11.837 -3.278,11.894c-0.122,0.283 -0.273,0.453 -0.455,0.51c-0.183,0.056 -0.729,0.113 -1.639,0.17l-1.457,-0c-0.365,-0.34 -0.547,-0.595 -0.547,-0.765c0,-0.057 0.031,-0.255 0.091,-0.595c0.061,-0.34 0.122,-0.906 0.182,-1.699c0.061,-0.793 0.091,-1.699 0.091,-2.718c0,-4.022 -0.971,-7.533 -2.913,-10.535c-1.943,-3.002 -5.251,-4.531 -9.926,-4.588c-1.578,0 -3.278,0.198 -5.099,0.595c-1.821,0.396 -4.007,1.076 -6.556,2.039c-2.55,0.963 -5.069,2.549 -7.558,4.757c-2.489,2.209 -4.705,4.843 -6.647,7.901c-1.943,3.229 -3.491,6.995 -4.644,11.3c-1.154,4.304 -1.731,7.816 -1.731,10.534c0,6.457 2.307,11.101 6.921,13.933c2.914,1.926 6.495,2.889 10.745,2.889c5.524,-0 10.441,-1.926 14.751,-5.777c4.31,-3.852 7.164,-8.043 8.56,-12.574c0.243,-0.736 0.425,-1.161 0.546,-1.274c0.122,-0.113 0.607,-0.17 1.457,-0.17c1.214,-0 1.821,0.255 1.821,0.765c0,0.283 -0.03,0.538 -0.091,0.764c-1.76,6.06 -5.524,11.271 -11.291,15.632c-5.767,4.361 -11.959,6.542 -18.576,6.542c-6.86,-0 -12.657,-2.124 -17.392,-6.372c-4.735,-4.248 -7.103,-9.883 -7.103,-16.906Z" style="fill:#8dcc33;fill-rule:nonzero;stroke:#1e3a5f;stroke-width:1.87px;stroke-linecap:butt;stroke-linejoin:miter;stroke-miterlimit:4;"/>
  <g>
        <g>
            <g>
                <g>
                    <g>
                        <g>
                            <path d="M509.58,278.282c0,-0.419 -1.75,-0.688 -5.25,-0.808c-1.413,0 -2.334,-0.029 -2.764,-0.089c-0.43,-0.06 -0.645,-0.329 -0.645,-0.808c0,-0.479 0.123,-1.078 0.369,-1.796c0.246,-0.718 0.46,-1.167 0.645,-1.346c0.123,-0.06 6.233,-0.09 18.33,-0.09c10.256,0.06 15.998,0.09 17.226,0.09c1.228,-0 2.456,0.179 3.684,0.538c4.422,1.018 8.168,3.382 11.238,7.092c3.071,3.711 4.637,8.678 4.698,14.902c0,9.337 -3.285,17.715 -9.856,25.137c-6.571,7.421 -14.308,11.849 -23.213,13.286l-1.289,0.179l-17.871,0.09l-15.106,0c-1.474,0 -2.426,-0.06 -2.856,-0.179c-0.43,-0.12 -0.675,-0.389 -0.737,-0.808c0,-0.12 0.092,-0.539 0.276,-1.257c0.246,-0.958 0.492,-1.496 0.737,-1.616c0.246,-0.12 0.952,-0.21 2.119,-0.269c1.658,-0 3.5,-0.09 5.527,-0.27c0.86,-0.179 1.443,-0.538 1.75,-1.077c0.184,-0.239 2.395,-8.558 6.632,-24.957c4.238,-16.398 6.356,-25.046 6.356,-25.944Zm38.32,14.274c-0,-2.274 -0.338,-4.309 -1.013,-6.104c-0.676,-1.796 -1.474,-3.202 -2.395,-4.22c-0.922,-1.017 -2.058,-1.885 -3.409,-2.603c-1.351,-0.718 -2.548,-1.197 -3.592,-1.436c-1.044,-0.24 -2.119,-0.449 -3.224,-0.629l-3.961,0c-1.044,0 -2.057,-0.03 -3.04,-0.09l-3.961,0c-2.702,0 -4.237,0.3 -4.605,0.898c-0.123,0.24 -2.365,8.858 -6.725,25.854c-4.36,16.997 -6.54,25.585 -6.54,25.765c0,0.239 0.338,0.359 1.013,0.359c0.676,0 3.04,0.03 7.093,0.09l1.75,-0c0.86,-0 1.597,0.03 2.211,0.09c7.738,-0 14.124,-2.454 19.16,-7.362c2.211,-2.154 4.022,-4.668 5.435,-7.541c1.412,-2.872 2.732,-6.673 3.961,-11.401c1.228,-4.728 1.842,-8.618 1.842,-11.67Z" style="fill:#8dcc33;fill-rule:nonzero;stroke:#1e3a5f;stroke-width:2.25px;stroke-linecap:butt;stroke-linejoin:miter;stroke-miterlimit:4;"/>
                        </g>
                    </g>
                </g>
            </g>
        </g>
    </g>
</svg>
