<?xml version="1.0" encoding="UTF-8" standalone="no"?>
<!DOCTYPE svg PUBLIC "-//W3C//DTD SVG 1.1//EN" "http://www.w3.org/Graphics/SVG/1.1/DTD/svg11.dtd">
<svg width="456" height="110" viewBox="0 0 1128 256" version="1.1" xmlns="http://www.w3.org/2000/svg" xmlns:xlink="http://www.w3.org/1999/xlink" xml:space="preserve" xmlns:serif="http://www.serif.com/" style="fill-rule:evenodd;clip-rule:evenodd;stroke-linecap:round;stroke-linejoin:round;stroke-miterlimit:1.5;">
    <path d="M362.35,193.174l-0,-28.53" style="fill:none;stroke:#8dcc33;stroke-width:12.5px;"/>
  <path d="M971.555,193.174l-0,-28.53" style="fill:none;stroke:#8dcc33;stroke-width:12.5px;"/>
  <path d="M67.499,195.782l986.317,-0" style="fill:none;stroke:#9370db;stroke-width:12.5px;stroke-linecap:square;"/>
  <g transform="matrix(38.5338,0,0,38.5338,580.344,112.834)">
    </g>
  <text x="453.98px" y="112.834px" style="font-family:'ArialMT', 'Arial', sans-serif;font-size:38.534px;fill:#0dcaf2;stroke:#1e3a5f;stroke-width:0.83px;stroke-linecap:butt;stroke-miterlimit:2;">80km/h</text>
  <g>
        <g>
            <path d="M13.583,132.396c-0,-2.774 0.867,-5.042 2.601,-6.803c1.734,-1.761 3.682,-2.655 5.843,-2.681c1.2,-0 1.947,0.013 2.241,0.04c0.72,0.106 1.427,0.293 2.121,0.56c0.694,0.267 1.241,0.507 1.641,0.72c0.4,0.214 0.6,0.374 0.6,0.481l-0.56,3.081l-0.4,-0.24c-0.24,-0.133 -0.561,-0.307 -0.961,-0.52c-0.4,-0.214 -0.76,-0.387 -1.08,-0.52c-0.801,-0.294 -1.828,-0.441 -3.082,-0.441l-0.24,0c-1.868,0 -3.282,0.881 -4.242,2.642c-0.534,1.067 -0.8,2.281 -0.8,3.641c-0,1.761 0.44,3.242 1.32,4.443c0.881,1.2 2.161,1.801 3.842,1.801c1.974,-0 3.829,-0.507 5.563,-1.521l0.56,-0.32l0.08,0.84c0.027,0.56 0.053,1.107 0.08,1.641l0.08,0.8c-0.187,0.134 -0.453,0.294 -0.8,0.48c-0.347,0.187 -1.094,0.427 -2.241,0.721c-1.148,0.293 -2.295,0.453 -3.442,0.48c-2.561,0 -4.656,-0.907 -6.283,-2.721c-1.628,-1.815 -2.441,-4.016 -2.441,-6.604Z" style="fill:#8dcc33;fill-rule:nonzero;stroke:#1e3a5f;stroke-width:0.83px;stroke-linecap:butt;stroke-linejoin:miter;stroke-miterlimit:4;"/>
          <path d="M39.435,125.833c-0.72,0 -1.414,0.067 -2.081,0.2c-0.667,0.134 -1.24,0.294 -1.72,0.481c-0.481,0.186 -0.881,0.386 -1.201,0.6c-0.32,0.213 -0.587,0.387 -0.8,0.52c-0.214,0.133 -0.321,0.2 -0.321,0.2l-0.04,-0.72c-0.053,-0.48 -0.093,-0.987 -0.12,-1.521c-0.026,-0.534 -0.053,-0.854 -0.08,-0.96c0,-0.054 0.054,-0.107 0.16,-0.16c0.134,-0.054 0.267,-0.121 0.401,-0.201c1.707,-0.907 3.521,-1.36 5.442,-1.36l0.441,-0c2.161,-0 3.895,0.8 5.202,2.401c0.667,0.774 1.094,1.561 1.281,2.361c0.186,0.8 0.293,1.988 0.32,3.562l-0,1.801c-0,0.88 -0.013,1.614 -0.04,2.201l-0,6.083l-3.602,-0l0,-1.561l-0.44,0.28c-1.654,1.121 -3.615,1.681 -5.883,1.681l-0.28,0c-1.147,0 -2.148,-0.427 -3.002,-1.281c-1.04,-1.04 -1.56,-2.427 -1.56,-4.162c-0,-0.427 0.013,-0.693 0.04,-0.8c0.426,-1.414 1.64,-2.441 3.641,-3.082c2.001,-0.64 4.202,-1.027 6.604,-1.16l0.76,-0l0,-1.001c0,-0.747 -0.013,-1.187 -0.04,-1.32c-0.133,-0.854 -0.48,-1.574 -1.041,-2.161c-0.56,-0.587 -1.24,-0.894 -2.041,-0.921Zm2.682,8.044c-4.776,0.16 -7.164,0.961 -7.164,2.401c0,0.561 0.267,1.094 0.801,1.601c0.533,0.507 1.387,0.774 2.561,0.801c2.028,-0 3.375,-0.774 4.042,-2.322c0.133,-0.346 0.2,-0.907 0.2,-1.68l0,-0.801l-0.44,0Z" style="fill:#8dcc33;fill-rule:nonzero;stroke:#1e3a5f;stroke-width:0.83px;stroke-linecap:butt;stroke-linejoin:miter;stroke-miterlimit:4;"/>
          <path d="M56.084,125.753c1.761,-1.761 3.748,-2.641 5.963,-2.641l0.28,-0l-0,3.281l-0.4,0c-1.468,0.107 -2.762,0.601 -3.882,1.481c-1.121,0.881 -1.828,2.055 -2.121,3.522c-0.054,0.24 -0.094,1.961 -0.12,5.162l-0,4.763l-3.602,-0l-0,-18.009l3.401,-0l0,2.921l0.481,-0.48Z" style="fill:#8dcc33;fill-rule:nonzero;stroke:#1e3a5f;stroke-width:0.83px;stroke-linecap:butt;stroke-linejoin:miter;stroke-miterlimit:4;"/>
        </g>
    <g>
            <path d="M71.451,118.189l-0.52,0.201c-0.373,0.133 -0.907,0.266 -1.601,0.4c-0.693,0.133 -1.467,0.226 -2.321,0.28l-0.76,-0l-0,-1.841l0.76,-0c1.254,-0.053 2.415,-0.254 3.482,-0.6c1.067,-0.347 1.814,-0.667 2.241,-0.961c0.427,-0.293 0.8,-0.587 1.12,-0.88c0.054,-0.08 0.214,-0.12 0.481,-0.12c0.24,-0 0.467,0.08 0.68,0.24l0,11.966l0.04,12.006c0.187,0.186 0.347,0.306 0.48,0.36c0.134,0.053 0.454,0.107 0.961,0.16c0.507,0.053 1.334,0.08 2.481,0.08l1.041,-0l-0,1.841l-0.441,-0c-0.56,-0.08 -2.681,-0.12 -6.363,-0.12c-3.628,-0 -5.723,0.04 -6.283,0.12l-0.48,-0l-0,-1.841l2.561,-0c0.427,-0 0.76,-0.013 1.001,-0.04c0.24,-0.027 0.453,-0.067 0.64,-0.12c0.187,-0.053 0.293,-0.08 0.32,-0.08c0.027,-0 0.107,-0.067 0.24,-0.2c0.134,-0.134 0.214,-0.187 0.24,-0.16l0,-20.691Z" style="fill:#8dcc33;fill-rule:nonzero;stroke:#1e3a5f;stroke-width:0.83px;stroke-linecap:butt;stroke-linejoin:miter;stroke-miterlimit:4;"/>
        </g>
    </g>
  <g>
        <g>
            <path d="M1054.51,59.773c0,-2.775 0.868,-5.043 2.602,-6.804c1.734,-1.761 3.682,-2.654 5.843,-2.681c1.2,-0 1.947,0.013 2.241,0.04c0.72,0.107 1.427,0.293 2.121,0.56c0.693,0.267 1.24,0.507 1.641,0.721c0.4,0.213 0.6,0.373 0.6,0.48l-0.56,3.081l-0.401,-0.24c-0.24,-0.133 -0.56,-0.307 -0.96,-0.52c-0.4,-0.213 -0.76,-0.387 -1.081,-0.52c-0.8,-0.294 -1.827,-0.441 -3.081,-0.441l-0.24,0c-1.868,0 -3.282,0.881 -4.242,2.642c-0.534,1.067 -0.801,2.281 -0.801,3.642c0,1.76 0.44,3.241 1.321,4.442c0.88,1.2 2.161,1.801 3.842,1.801c1.974,-0 3.828,-0.507 5.563,-1.521l0.56,-0.32l0.08,0.84c0.027,0.56 0.053,1.107 0.08,1.641l0.08,0.8c-0.187,0.134 -0.454,0.294 -0.8,0.481c-0.347,0.186 -1.094,0.426 -2.242,0.72c-1.147,0.293 -2.294,0.454 -3.441,0.48c-2.562,0 -4.656,-0.907 -6.283,-2.721c-1.628,-1.814 -2.442,-4.015 -2.442,-6.603Z" style="fill:#ff7faf;fill-rule:nonzero;stroke:#1e3a5f;stroke-width:0.83px;stroke-linecap:butt;stroke-linejoin:miter;stroke-miterlimit:4;"/>
          <path d="M1080.37,53.209c-0.72,0 -1.414,0.067 -2.081,0.2c-0.667,0.134 -1.24,0.294 -1.721,0.481c-0.48,0.186 -0.88,0.387 -1.2,0.6c-0.32,0.213 -0.587,0.387 -0.801,0.52c-0.213,0.134 -0.32,0.2 -0.32,0.2l-0.04,-0.72c-0.053,-0.48 -0.093,-0.987 -0.12,-1.521c-0.027,-0.533 -0.053,-0.854 -0.08,-0.96c0,-0.054 0.053,-0.107 0.16,-0.16c0.134,-0.054 0.267,-0.12 0.4,-0.2c1.708,-0.908 3.522,-1.361 5.443,-1.361l0.44,-0c2.161,-0 3.896,0.8 5.203,2.401c0.667,0.774 1.094,1.561 1.28,2.361c0.187,0.801 0.294,1.988 0.321,3.562l-0,1.801c-0,0.88 -0.014,1.614 -0.04,2.201l-0,6.083l-3.602,0l-0,-1.561l-0.44,0.28c-1.655,1.121 -3.616,1.681 -5.883,1.681l-0.28,0c-1.148,0 -2.148,-0.427 -3.002,-1.28c-1.04,-1.041 -1.561,-2.428 -1.561,-4.162c0,-0.427 0.014,-0.694 0.04,-0.801c0.427,-1.414 1.641,-2.441 3.642,-3.081c2.001,-0.641 4.202,-1.028 6.603,-1.161l0.761,0l-0,-1c-0,-0.748 -0.014,-1.188 -0.04,-1.321c-0.134,-0.854 -0.481,-1.574 -1.041,-2.161c-0.56,-0.587 -1.24,-0.894 -2.041,-0.921Zm2.682,8.044c-4.776,0.16 -7.164,0.961 -7.164,2.402c-0,0.56 0.267,1.093 0.8,1.6c0.534,0.507 1.388,0.774 2.562,0.801c2.027,-0 3.375,-0.774 4.042,-2.321c0.133,-0.347 0.2,-0.908 0.2,-1.681l-0,-0.801l-0.44,0Z" style="fill:#ff7faf;fill-rule:nonzero;stroke:#1e3a5f;stroke-width:0.83px;stroke-linecap:butt;stroke-linejoin:miter;stroke-miterlimit:4;"/>
          <path d="M1097.01,53.129c1.761,-1.761 3.749,-2.641 5.963,-2.641l0.281,0l-0,3.282l-0.401,-0c-1.467,0.106 -2.761,0.6 -3.882,1.48c-1.12,0.881 -1.827,2.055 -2.121,3.522c-0.053,0.24 -0.093,1.961 -0.12,5.163l0,4.762l-3.601,0l-0,-18.009l3.401,0l0,2.922l0.48,-0.481Z" style="fill:#ff7faf;fill-rule:nonzero;stroke:#1e3a5f;stroke-width:0.83px;stroke-linecap:butt;stroke-linejoin:miter;stroke-miterlimit:4;"/>
        </g>
    <g>
            <path d="M1108.22,51.529c-0.72,-0 -1.294,-0.241 -1.721,-0.721c-0.427,-0.48 -0.64,-1.067 -0.64,-1.761c-0,-1.894 0.707,-3.535 2.121,-4.922c1.414,-1.387 3.175,-2.081 5.282,-2.081c2.428,-0 4.456,0.747 6.083,2.241c1.628,1.494 2.455,3.428 2.482,5.803c-0,1.147 -0.267,2.241 -0.801,3.281c-0.533,1.041 -1.174,1.948 -1.921,2.722c-0.747,0.773 -1.814,1.761 -3.201,2.961c-0.961,0.827 -2.295,2.055 -4.002,3.682l-2.361,2.241l3.041,0.04c4.189,0 6.417,-0.067 6.683,-0.2c0.187,-0.053 0.507,-1.241 0.961,-3.562l-0,-0.12l1.601,0l-0,0.12c-0.027,0.08 -0.2,1.294 -0.521,3.642c-0.32,2.348 -0.52,3.575 -0.6,3.682l0,0.12l-14.847,0l-0,-1.241c-0,-0.186 0.08,-0.386 0.24,-0.6c0.16,-0.213 0.56,-0.68 1.201,-1.401c0.773,-0.853 1.44,-1.6 2.001,-2.241c0.24,-0.266 0.693,-0.76 1.36,-1.48c0.667,-0.721 1.121,-1.214 1.361,-1.481c0.24,-0.267 0.627,-0.707 1.16,-1.321c0.534,-0.613 0.908,-1.067 1.121,-1.36c0.213,-0.294 0.52,-0.694 0.92,-1.201c0.401,-0.507 0.681,-0.934 0.841,-1.281c0.16,-0.347 0.36,-0.733 0.6,-1.16c0.24,-0.427 0.414,-0.854 0.52,-1.281c0.107,-0.427 0.201,-0.827 0.281,-1.201c0.08,-0.373 0.12,-0.813 0.12,-1.32c-0,-1.681 -0.454,-3.135 -1.361,-4.362c-0.907,-1.228 -2.201,-1.841 -3.882,-1.841c-0.88,-0 -1.654,0.227 -2.321,0.68c-0.667,0.454 -1.134,0.894 -1.401,1.321c-0.267,0.427 -0.4,0.68 -0.4,0.76c-0,0.027 0.067,0.04 0.2,0.04c0.48,0 0.974,0.187 1.481,0.56c0.507,0.374 0.76,0.988 0.76,1.841c0,0.667 -0.213,1.228 -0.64,1.681c-0.427,0.454 -1.027,0.694 -1.801,0.721Z" style="fill:#ff7faf;fill-rule:nonzero;stroke:#1e3a5f;stroke-width:0.83px;stroke-linecap:butt;stroke-linejoin:miter;stroke-miterlimit:4;"/>
        </g>
    </g>
  <path d="M16.316,215.63c-0,1.107 1.165,1.753 3.494,1.938c0.912,-0 1.368,0.253 1.368,0.761c-0,0.046 -0.051,0.346 -0.152,0.899c-0.152,0.646 -0.304,1.061 -0.456,1.246c-0.152,0.184 -0.481,0.277 -0.988,0.277l-0.911,-0c-0.507,-0 -1.368,-0.023 -2.583,-0.07c-1.216,-0.046 -2.836,-0.069 -4.862,-0.069c-3.596,0 -5.9,0.046 -6.913,0.139l-0.608,-0c-0.355,-0.323 -0.532,-0.577 -0.532,-0.761c0.101,-1.246 0.431,-2.053 0.988,-2.422l1.063,-0c3.546,-0.139 6.128,-1.292 7.749,-3.46c0.304,-0.277 4.887,-7.311 13.75,-21.104c8.863,-13.793 13.371,-20.781 13.523,-20.966c0.354,-0.553 0.962,-0.83 1.823,-0.83l1.899,-0c0.304,0.415 0.456,0.646 0.456,0.692l2.127,22.349c1.418,14.9 2.178,22.419 2.279,22.558c0.254,0.507 1.9,0.761 4.938,0.761c1.266,-0 1.899,0.23 1.899,0.692c0,0.092 -0.075,0.415 -0.227,0.968c-0.152,0.692 -0.279,1.107 -0.38,1.246c-0.102,0.138 -0.456,0.231 -1.064,0.277l-1.063,-0c-0.557,-0 -1.545,-0.023 -2.963,-0.07c-1.418,-0.046 -3.267,-0.069 -5.546,-0.069c-4.761,0 -7.875,0.046 -9.344,0.139l-0.912,-0c-0.304,-0.277 -0.455,-0.485 -0.455,-0.623c-0,-0.138 0.05,-0.554 0.151,-1.246c0.203,-0.599 0.355,-0.968 0.456,-1.107l0.304,-0.207l1.52,-0c2.734,-0.139 4.355,-0.531 4.862,-1.177l-0.912,-10.379l-18.081,0l-2.583,4.014c-2.076,3.183 -3.114,5.051 -3.114,5.604Zm23.398,-12.87c0,-0.507 -0.304,-4.105 -0.912,-10.794c-0.607,-6.689 -0.962,-10.056 -1.063,-10.102l-2.051,2.975c-0.811,1.246 -2.406,3.713 -4.786,7.404l-6.837,10.517l7.824,0.069c5.217,0 7.825,-0.023 7.825,-0.069Z" style="fill:#8dcc33;fill-rule:nonzero;stroke:#1e3a5f;stroke-width:1.54px;stroke-linecap:butt;stroke-linejoin:miter;stroke-miterlimit:4;"/>
  <path d="M1082.58,174.446c-1.433,0 -2.281,-0.024 -2.547,-0.073c-0.265,-0.048 -0.398,-0.315 -0.398,-0.799c0,-1.309 0.292,-2.109 0.876,-2.4c0.053,-0.048 3.502,-0.072 10.346,-0.072c13.742,-0 20.985,0.048 21.727,0.145c3.343,0.485 6.129,1.575 8.357,3.272c2.229,1.696 3.369,3.926 3.422,6.689c0,3.102 -1.538,5.889 -4.616,8.361c-3.077,2.472 -6.605,4.144 -10.585,5.016l-0.796,0.218c3.396,0.437 6.182,1.551 8.357,3.345c2.175,1.793 3.29,4.023 3.343,6.689c-0,3.538 -1.91,6.955 -5.731,10.251c-3.82,3.296 -8.515,5.162 -14.087,5.598c-0.371,0.049 -5.969,0.073 -16.793,0.073c-10.611,-0 -15.997,-0.049 -16.156,-0.146c-0.212,-0.145 -0.318,-0.339 -0.318,-0.581c-0,-0.34 0.053,-0.679 0.159,-1.018c0.265,-0.921 0.531,-1.43 0.796,-1.527c0.212,-0.048 0.61,-0.073 1.194,-0.073l0.477,0c1.433,0 3.025,-0.072 4.776,-0.218c0.742,-0.145 1.246,-0.436 1.512,-0.872c0.159,-0.194 2.069,-6.931 5.73,-20.212c3.661,-13.281 5.492,-20.284 5.492,-21.012c-0,-0.339 -1.513,-0.557 -4.537,-0.654Zm33.268,6.762c-0,-1.454 -0.398,-2.812 -1.194,-4.072c-0.796,-1.26 -2.096,-2.084 -3.9,-2.472c-0.371,-0.097 -2.812,-0.169 -7.322,-0.218l-3.343,0c-1.167,0 -2.096,0.024 -2.785,0.073l-1.035,-0c-0.796,0.048 -1.3,0.291 -1.512,0.727c-0.106,0.194 -0.955,3.102 -2.547,8.724c0,0.146 -0.026,0.291 -0.079,0.437l-2.468,9.16l6.447,0c4.298,0 6.765,-0.048 7.401,-0.145c3.184,-0.485 6.023,-1.89 8.516,-4.217c2.494,-2.326 3.767,-4.992 3.821,-7.997Zm-4.298,22.902c-0,-2.133 -0.61,-3.902 -1.831,-5.308c-1.22,-1.406 -2.812,-2.229 -4.775,-2.472c-0.318,-0.048 -2.52,-0.073 -6.606,-0.073c-6.261,0 -9.418,0.025 -9.471,0.073c0,0.097 -0.451,1.866 -1.353,5.308c-0.902,3.441 -1.83,6.858 -2.785,10.251l-1.433,5.089c0,0.194 0.319,0.291 0.955,0.291c0.637,0 2.786,0.048 6.447,0.145c4.722,0 7.269,-0.024 7.64,-0.072c3.29,-0.34 6.314,-1.745 9.073,-4.217c2.759,-2.472 4.139,-5.477 4.139,-9.015Z" style="fill:#8dcc33;fill-rule:nonzero;stroke:#1e3a5f;stroke-width:1.61px;stroke-linecap:butt;stroke-linejoin:miter;stroke-miterlimit:4;"/>
  <path d="M343.053,238.928c0,-3.887 1.214,-7.621 3.64,-11.203c2.427,-3.583 5.488,-6.421 9.183,-8.517c3.695,-2.095 7.389,-3.16 11.084,-3.193c3.26,-0 5.85,0.861 7.77,2.585c0.326,0.338 0.597,0.625 0.815,0.862c0.217,0.236 0.362,0.405 0.434,0.507l0.055,0.152c0.108,-0 0.597,-0.44 1.467,-1.318c0.253,-0.203 0.525,-0.44 0.815,-0.71c0.289,-0.27 0.579,-0.541 0.869,-0.811c0.29,-0.27 0.471,-0.456 0.543,-0.558l0.815,-0.76l0.326,-0c0.507,-0 0.761,0.118 0.761,0.355c-0,0.135 -0.58,2.45 -1.739,6.945c-1.304,4.697 -1.956,7.063 -1.956,7.097c-0.072,0.169 -0.163,0.27 -0.271,0.304c-0.109,0.034 -0.435,0.067 -0.978,0.101l-0.87,0c-0.217,-0.203 -0.326,-0.355 -0.326,-0.456c0,-0.034 0.018,-0.152 0.055,-0.355c0.036,-0.203 0.072,-0.541 0.108,-1.014c0.037,-0.473 0.055,-1.014 0.055,-1.622c-0,-2.399 -0.58,-4.495 -1.739,-6.286c-1.159,-1.791 -3.133,-2.703 -5.922,-2.737c-0.942,-0 -1.956,0.118 -3.043,0.355c-1.087,0.236 -2.391,0.642 -3.912,1.216c-1.521,0.575 -3.025,1.521 -4.51,2.839c-1.485,1.318 -2.807,2.89 -3.966,4.714c-1.159,1.927 -2.083,4.174 -2.771,6.743c-0.688,2.568 -1.033,4.663 -1.033,6.286c0,3.852 1.377,6.623 4.13,8.313c1.739,1.149 3.876,1.724 6.411,1.724c3.296,-0 6.23,-1.149 8.802,-3.447c2.572,-2.298 4.274,-4.799 5.108,-7.503c0.144,-0.439 0.253,-0.693 0.326,-0.76c0.072,-0.068 0.362,-0.102 0.869,-0.102c0.724,0 1.087,0.152 1.087,0.457c-0,0.169 -0.019,0.321 -0.055,0.456c-1.05,3.616 -3.296,6.725 -6.737,9.327c-3.441,2.603 -7.136,3.904 -11.084,3.904c-4.093,-0 -7.553,-1.268 -10.378,-3.802c-2.825,-2.535 -4.238,-5.898 -4.238,-10.088Z" style="fill:#8dcc33;fill-rule:nonzero;stroke:#1e3a5f;stroke-width:1.11px;stroke-linecap:butt;stroke-linejoin:miter;stroke-miterlimit:4;"/>
  <path d="M971.542,128.228l-35.722,12.429l9.133,-12.225l-9.133,-12.633l35.722,12.429Z" style="fill:#0dcaf2;"/>
  <path d="M88.521,128.238l856.281,0" style="fill:none;stroke:#0dcaf2;stroke-width:6.25px;"/>
  <circle cx="362.35" cy="195.702" r="11.692" style="fill:#ff5151;"/>
  <circle cx="971.555" cy="195.702" r="11.692" style="fill:#ff5151;"/>
  <g>
        <g>
            <g>
                <g>
                    <g>
                        <path d="M964.226,218.847c-0,-0.244 -1.07,-0.401 -3.208,-0.471c-0.863,-0 -1.426,-0.018 -1.689,-0.053c-0.262,-0.034 -0.393,-0.192 -0.393,-0.471c-0,-0.279 0.075,-0.629 0.225,-1.048c0.15,-0.419 0.281,-0.681 0.394,-0.785c0.075,-0.035 3.808,-0.053 11.199,-0.053c6.265,0.035 9.773,0.053 10.524,0.053c0.75,-0 1.5,0.104 2.251,0.314c2.701,0.594 4.99,1.973 6.865,4.138c1.876,2.165 2.833,5.064 2.871,8.696c-0,5.448 -2.008,10.337 -6.022,14.668c-4.015,4.33 -8.742,6.915 -14.182,7.753l-0.788,0.104l-10.918,0.053l-9.229,-0c-0.9,-0 -1.482,-0.035 -1.745,-0.105c-0.262,-0.07 -0.412,-0.227 -0.45,-0.471c0,-0.07 0.057,-0.315 0.169,-0.734c0.15,-0.559 0.3,-0.873 0.45,-0.943c0.15,-0.07 0.582,-0.122 1.295,-0.157c1.013,0 2.138,-0.052 3.376,-0.157c0.526,-0.105 0.882,-0.314 1.07,-0.629c0.112,-0.139 1.463,-4.994 4.051,-14.563c2.589,-9.568 3.884,-14.615 3.884,-15.139Zm23.411,8.329c-0,-1.327 -0.206,-2.514 -0.619,-3.562c-0.413,-1.047 -0.901,-1.868 -1.463,-2.462c-0.563,-0.593 -1.257,-1.1 -2.083,-1.519c-0.825,-0.419 -1.557,-0.698 -2.194,-0.838c-0.638,-0.14 -1.295,-0.262 -1.97,-0.367l-2.42,0c-0.638,0 -1.257,-0.017 -1.857,-0.052l-2.42,-0c-1.651,-0 -2.589,0.174 -2.814,0.524c-0.075,0.139 -1.444,5.168 -4.108,15.086c-2.664,9.919 -3.996,14.93 -3.996,15.035c0,0.14 0.206,0.209 0.619,0.209c0.413,0 1.857,0.018 4.334,0.053l1.069,-0c0.525,-0 0.975,0.017 1.35,0.052c4.728,0 8.63,-1.432 11.706,-4.295c1.351,-1.258 2.457,-2.724 3.32,-4.401c0.863,-1.676 1.67,-3.894 2.42,-6.653c0.751,-2.758 1.126,-5.028 1.126,-6.81Z" style="fill:#8dcc33;fill-rule:nonzero;stroke:#1e3a5f;stroke-width:1.34px;stroke-linecap:butt;stroke-linejoin:miter;stroke-miterlimit:4;"/>
                    </g>
                </g>
            </g>
        </g>
    </g>
  <path d="M362.545,55.578l35.722,-12.429l-9.133,12.633l9.133,12.225l-35.722,-12.429Z" style="fill:#ff7faf;"/>
  <path d="M1045.89,55.588l-657.09,-0" style="fill:none;stroke:#ff7faf;stroke-width:6.25px;"/>
  <path d="M1054.57,216.435l0,-41.285" style="fill:none;stroke:#8dcc33;stroke-width:12.5px;"/>
  <path d="M67.405,215.273l-0,-38.995" style="fill:none;stroke:#8dcc33;stroke-width:12.5px;"/>
  <g>
        <g>
            <path d="M644.269,30.469c1.558,0 2.984,-0.686 4.277,-2.059c1.294,-1.373 1.954,-2.97 1.98,-4.792c0,-1.663 -0.686,-2.812 -2.059,-3.445c-2.798,-0.713 -4.594,-1.202 -5.386,-1.466c-0.792,-0.264 -1.346,-0.528 -1.663,-0.792c-1.584,-1.109 -2.376,-2.706 -2.376,-4.792c-0,-1.61 0.422,-3.075 1.267,-4.395c0.845,-1.321 1.703,-2.311 2.574,-2.971c0.766,-0.66 1.69,-1.188 2.772,-1.584c1.083,-0.396 1.928,-0.607 2.535,-0.633l0.713,-0c2.534,-0 4.369,0.845 5.504,2.534c0.027,0 0.198,-0.171 0.515,-0.515c0.317,-0.343 0.66,-0.726 1.03,-1.148c0.37,-0.423 0.634,-0.713 0.792,-0.871l0.158,-0c0.08,-0 0.146,-0.014 0.198,-0.04c0.344,0 0.515,0.092 0.515,0.277c0,0.185 -0.369,1.782 -1.109,4.792c-0.739,3.01 -1.161,4.568 -1.267,4.673c-0.106,0.106 -0.317,0.145 -0.634,0.119c-0.528,-0 -0.792,-0.119 -0.792,-0.356c0,-0.159 0.014,-0.291 0.04,-0.396c-0,-0.08 0.013,-0.33 0.04,-0.753c0.026,-0.422 0.052,-0.766 0.079,-1.03c-0,-0.897 -0.119,-1.676 -0.357,-2.336c-0.237,-0.66 -0.475,-1.149 -0.712,-1.465c-0.238,-0.317 -0.568,-0.647 -0.991,-0.99c-0.95,-0.555 -2.032,-0.832 -3.247,-0.832c-1.505,-0 -2.904,0.607 -4.198,1.822c-1.293,1.214 -1.953,2.613 -1.98,4.197c0,0.793 0.198,1.479 0.594,2.06c0.396,0.581 0.937,0.99 1.624,1.227c0.106,0.053 1.03,0.304 2.772,0.753c1.743,0.449 2.627,0.686 2.653,0.713c0.898,0.29 1.769,0.924 2.614,1.901c0.845,0.976 1.267,2.297 1.267,3.96c0,0.686 -0.105,1.426 -0.316,2.218c-0.132,0.58 -0.37,1.227 -0.713,1.94c-0.343,0.713 -0.819,1.492 -1.426,2.337c-0.607,0.844 -1.478,1.636 -2.614,2.376c-1.135,0.739 -2.376,1.241 -3.722,1.505c-0.317,0.052 -0.766,0.079 -1.347,0.079c-2.613,-0 -4.646,-0.726 -6.098,-2.178l-0.397,-0.436l-1.108,1.228c-0.608,0.713 -0.977,1.122 -1.109,1.227c-0.132,0.106 -0.304,0.159 -0.515,0.159c-0.343,-0 -0.515,-0.106 -0.515,-0.317c0,-0.079 0.766,-3.181 2.297,-9.306c0.053,-0.159 0.317,-0.238 0.792,-0.238l0.515,-0c0.158,0.158 0.238,0.304 0.238,0.436c-0,0.052 -0.014,0.171 -0.04,0.356c-0.026,0.185 -0.079,0.462 -0.158,0.832c-0.08,0.369 -0.106,0.805 -0.08,1.306c0.053,1.03 0.291,1.901 0.713,2.614c0.423,0.713 0.99,1.241 1.703,1.584c0.713,0.343 1.399,0.581 2.059,0.713c0.66,0.132 1.36,0.198 2.099,0.198Z" style="fill:#ff7faf;fill-rule:nonzero;stroke:#1e3a5f;stroke-width:0.83px;stroke-linecap:butt;stroke-linejoin:miter;stroke-miterlimit:4;"/>
        </g>
    <g>
            <path d="M669.504,21.519c-0,-0.634 0.224,-1.188 0.673,-1.663c0.449,-0.475 1.016,-0.713 1.703,-0.713c0.634,-0 1.188,0.211 1.663,0.634c0.475,0.422 0.726,0.99 0.753,1.702c-0,0.66 -0.225,1.228 -0.674,1.703c-0.448,0.476 -1.016,0.713 -1.703,0.713c-0.686,0 -1.254,-0.224 -1.702,-0.673c-0.449,-0.449 -0.687,-1.017 -0.713,-1.703Z" style="fill:#ff7faf;fill-rule:nonzero;stroke:#1e3a5f;stroke-width:0.83px;stroke-linecap:butt;stroke-linejoin:miter;stroke-miterlimit:4;"/>
        </g>
    <g>
            <path d="M694.659,8.53l-0.515,0.198c-0.369,0.132 -0.897,0.264 -1.584,0.396c-0.686,0.132 -1.452,0.224 -2.297,0.277l-0.752,-0l-0,-1.822l0.752,0c1.241,-0.053 2.39,-0.251 3.446,-0.594c1.056,-0.343 1.795,-0.66 2.217,-0.95c0.423,-0.291 0.792,-0.581 1.109,-0.872c0.053,-0.079 0.211,-0.118 0.475,-0.118c0.238,-0 0.462,0.079 0.674,0.237l-0,11.841l0.039,11.881c0.185,0.185 0.343,0.303 0.475,0.356c0.132,0.053 0.449,0.106 0.951,0.159c0.502,0.052 1.32,0.079 2.455,0.079l1.03,-0l-0,1.822l-0.436,-0c-0.554,-0.08 -2.653,-0.119 -6.296,-0.119c-3.591,-0 -5.664,0.039 -6.218,0.119l-0.475,-0l-0,-1.822l2.534,-0c0.423,-0 0.753,-0.013 0.99,-0.04c0.238,-0.026 0.449,-0.066 0.634,-0.119c0.185,-0.052 0.29,-0.079 0.317,-0.079c0.026,0 0.105,-0.066 0.237,-0.198c0.132,-0.132 0.212,-0.185 0.238,-0.158l0,-20.474Z" style="fill:#ff7faf;fill-rule:nonzero;stroke:#1e3a5f;stroke-width:0.83px;stroke-linecap:butt;stroke-linejoin:miter;stroke-miterlimit:4;"/>
      <path d="M709.827,8.252c1.478,-2.138 3.498,-3.207 6.059,-3.207c1.267,-0 2.534,0.343 3.802,1.029c1.267,0.687 2.297,1.901 3.089,3.644c0.976,2.191 1.465,5.201 1.465,9.029c-0,4.092 -0.568,7.221 -1.703,9.386c-0.528,1.108 -1.254,1.993 -2.178,2.653c-0.924,0.66 -1.729,1.069 -2.416,1.228c-0.686,0.158 -1.36,0.25 -2.02,0.277c-0.686,-0 -1.372,-0.079 -2.059,-0.238c-0.686,-0.158 -1.492,-0.581 -2.416,-1.267c-0.924,-0.686 -1.65,-1.571 -2.178,-2.653c-1.135,-2.165 -1.703,-5.294 -1.703,-9.386c0,-4.594 0.753,-8.092 2.258,-10.495Zm8.91,-0.475c-0.792,-0.845 -1.729,-1.267 -2.812,-1.267c-1.108,-0 -2.059,0.422 -2.851,1.267c-0.66,0.687 -1.096,1.637 -1.307,2.851c-0.211,1.215 -0.317,3.749 -0.317,7.604c0,4.171 0.106,6.917 0.317,8.237c0.211,1.32 0.687,2.363 1.426,3.129c0.739,0.792 1.65,1.188 2.732,1.188c1.056,-0 1.954,-0.396 2.693,-1.188c0.766,-0.792 1.241,-1.901 1.426,-3.327c0.185,-1.425 0.29,-4.105 0.317,-8.039c-0,-3.828 -0.106,-6.349 -0.317,-7.564c-0.211,-1.214 -0.647,-2.178 -1.307,-2.891Z" style="fill:#ff7faf;fill-rule:nonzero;stroke:#1e3a5f;stroke-width:0.83px;stroke-linecap:butt;stroke-linejoin:miter;stroke-miterlimit:4;"/>
        </g>
    <g>
            <path d="M744.241,7.46c-0.977,0 -1.914,-0.119 -2.812,-0.356c-0.897,-0.238 -1.61,-0.475 -2.138,-0.713c-0.528,-0.238 -0.806,-0.356 -0.832,-0.356c0.343,0.871 0.515,2.099 0.515,3.683c-0,2.376 -0.515,4.29 -1.545,5.742c-1.029,1.452 -2.231,2.191 -3.603,2.218c-1.505,-0 -2.839,-0.726 -4,-2.178c-1.162,-1.453 -1.756,-3.38 -1.782,-5.782c-0,-2.35 0.594,-4.264 1.782,-5.743c1.188,-1.478 2.521,-2.231 4,-2.257c1.029,-0 1.953,0.409 2.772,1.228c2.297,2.033 4.831,3.049 7.603,3.049c3.063,-0 5.518,-1.188 7.366,-3.564c0.317,-0.423 0.555,-0.647 0.713,-0.673c0.053,-0.027 0.119,-0.04 0.198,-0.04c0.238,-0 0.436,0.092 0.594,0.277c0.159,0.185 0.225,0.409 0.198,0.673c-13.596,20.409 -20.5,30.679 -20.712,30.811c-0.105,0.105 -0.237,0.158 -0.396,0.158c-0.343,0 -0.581,-0.145 -0.713,-0.435c-0.132,-0.238 -0.132,-0.476 0,-0.713c0.027,-0.079 2.944,-4.449 8.753,-13.108c2.798,-4.172 4.937,-7.366 6.415,-9.584c1.479,-2.218 2.218,-3.327 2.218,-3.327c-1.399,0.66 -2.931,0.99 -4.594,0.99Zm-10.217,8.713c0.739,-0 1.478,-0.555 2.217,-1.664c0.74,-1.108 1.122,-2.706 1.149,-4.791c-0,-1.822 -0.33,-3.353 -0.99,-4.594c-0.66,-1.241 -1.545,-1.875 -2.654,-1.901c-0.184,-0 -0.369,0.039 -0.554,0.119c-0.185,0.079 -0.436,0.224 -0.752,0.435c-0.317,0.211 -0.581,0.608 -0.793,1.188c-0.211,0.581 -0.382,1.281 -0.514,2.099c-0.053,0.528 -0.08,1.413 -0.08,2.654l0,0.831c0,2.403 0.436,4.04 1.307,4.911c0.476,0.475 0.977,0.713 1.505,0.713l0.159,-0Zm11.603,9.465c0,-2.324 0.581,-4.225 1.743,-5.703c1.161,-1.479 2.521,-2.231 4.079,-2.257c1.372,-0 2.56,0.726 3.564,2.178c1.003,1.452 1.518,3.379 1.544,5.782c0.027,2.402 -0.488,4.329 -1.544,5.782c-1.056,1.452 -2.258,2.191 -3.604,2.217c-1.479,0 -2.812,-0.739 -4,-2.217c-1.188,-1.479 -1.782,-3.406 -1.782,-5.782Zm5.98,6.494c0.739,0 1.478,-0.554 2.218,-1.663c0.739,-1.109 1.122,-2.719 1.148,-4.831c0,-1.822 -0.33,-3.353 -0.99,-4.594c-0.66,-1.241 -1.544,-1.861 -2.653,-1.861c-0.185,-0 -0.37,0.039 -0.555,0.118c-0.184,0.08 -0.435,0.225 -0.752,0.436c-0.317,0.211 -0.581,0.607 -0.792,1.188c-0.211,0.581 -0.383,1.28 -0.515,2.099c-0.026,0.317 -0.04,1.188 -0.04,2.614l0,0.871c0,3.749 0.924,5.623 2.773,5.623l0.158,0Z" style="fill:#ff7faf;fill-rule:nonzero;stroke:#1e3a5f;stroke-width:0.83px;stroke-linecap:butt;stroke-linejoin:miter;stroke-miterlimit:4;"/>
        </g>
    <g>
            <g>
                <path d="M775.566,1.718c0.238,-0 0.436,0.079 0.594,0.238c0.159,0.158 0.238,0.343 0.238,0.554c-0,0.132 -2.284,6.495 -6.851,19.088c-4.568,12.594 -6.931,19.036 -7.089,19.326c-0.185,0.264 -0.409,0.396 -0.673,0.396c-0.185,0 -0.357,-0.066 -0.515,-0.198c-0.159,-0.132 -0.238,-0.317 -0.238,-0.554c0,-0.264 2.297,-6.706 6.891,-19.326c4.594,-12.62 6.93,-18.996 7.01,-19.128c0.105,-0.264 0.316,-0.396 0.633,-0.396Z" style="fill:#ff7faf;fill-rule:nonzero;stroke:#1e3a5f;stroke-width:0.83px;stroke-linecap:butt;stroke-linejoin:miter;stroke-miterlimit:4;"/>
            </g>
        </g>
    <g>
            <path d="M784.041,4.371c0.027,0 0.977,-0.066 2.851,-0.198c1.875,-0.132 2.839,-0.211 2.891,-0.237c0.317,-0 0.476,0.118 0.476,0.356c-0,0.291 -0.476,2.284 -1.426,5.98c-1.003,3.907 -1.505,5.901 -1.505,5.98c0,0.053 0.093,-0.013 0.277,-0.198c1.611,-1.426 3.327,-2.139 5.149,-2.139c1.425,0 2.574,0.357 3.445,1.07c0.871,0.713 1.32,1.755 1.346,3.128c0,1.347 -0.501,3.432 -1.504,6.257c-1.004,2.825 -1.505,4.515 -1.505,5.069c0.026,0.37 0.092,0.621 0.198,0.753c0.105,0.132 0.303,0.198 0.594,0.198c0.739,-0 1.425,-0.396 2.059,-1.188c0.634,-0.792 1.149,-1.875 1.545,-3.248c0.079,-0.29 0.158,-0.462 0.237,-0.514c0.079,-0.053 0.291,-0.08 0.634,-0.08c0.528,0 0.792,0.106 0.792,0.317c-0,0.027 -0.053,0.225 -0.159,0.594c-0.422,1.558 -1.095,2.838 -2.019,3.842c-0.898,1.135 -1.967,1.703 -3.208,1.703l-0.198,-0c-1.241,-0 -2.139,-0.357 -2.693,-1.07c-0.554,-0.712 -0.832,-1.465 -0.832,-2.257c0,-0.422 0.476,-1.98 1.426,-4.673c0.95,-2.693 1.439,-4.713 1.465,-6.059c0,-1.558 -0.581,-2.337 -1.742,-2.337l-0.198,0c-2.192,0 -4.092,1.294 -5.703,3.881l-0.277,0.515l-1.347,5.346c-0.844,3.433 -1.333,5.307 -1.465,5.624c-0.343,0.713 -0.924,1.069 -1.742,1.069c-0.37,0 -0.687,-0.119 -0.951,-0.356c-0.264,-0.238 -0.409,-0.475 -0.435,-0.713c-0,-0.37 0.963,-4.383 2.89,-12.039l2.931,-11.722c0,-0.344 -0.092,-0.555 -0.277,-0.634c-0.185,-0.079 -0.7,-0.145 -1.545,-0.198l-0.831,0c-0.159,-0.158 -0.238,-0.264 -0.238,-0.317c0,-0.053 0.026,-0.303 0.079,-0.752c0.132,-0.502 0.304,-0.753 0.515,-0.753Z" style="fill:#ff7faf;fill-rule:nonzero;stroke:#1e3a5f;stroke-width:0.83px;stroke-linecap:butt;stroke-linejoin:miter;stroke-miterlimit:4;"/>
        </g>
    </g>
</svg>
