<?xml version="1.0" encoding="UTF-8" standalone="no"?>
<!DOCTYPE svg PUBLIC "-//W3C//DTD SVG 1.1//EN" "http://www.w3.org/Graphics/SVG/1.1/DTD/svg11.dtd">
<svg width="456" height="120" viewBox="0 0 1114 237" version="1.1" xmlns="http://www.w3.org/2000/svg" xmlns:xlink="http://www.w3.org/1999/xlink" xml:space="preserve" xmlns:serif="http://www.serif.com/" style="fill-rule:evenodd;clip-rule:evenodd;stroke-linecap:round;stroke-linejoin:round;stroke-miterlimit:1.5;">
    <path d="M830.483,171.675l0,-28.53" style="fill:none;stroke:#8dcc33;stroke-width:12.5px;"/>
  <path d="M378.707,171.675l-0,-28.53" style="fill:none;stroke:#8dcc33;stroke-width:12.5px;"/>
  <path d="M357.467,117.609l33.616,0" style="fill:none;stroke:#8dcc33;stroke-width:1.25px;"/>
  <path d="M357.411,117.738l-0,12.353" style="fill:none;stroke:#8dcc33;stroke-width:1.25px;"/>
  <path d="M366.447,109.125l0,12.353" style="fill:none;stroke:#8dcc33;stroke-width:1.25px;stroke-dasharray:1.88,2.13,0,0,0,0;"/>
  <path d="M400.031,108.995l0,12.508" style="fill:none;stroke:#8dcc33;stroke-width:1.25px;"/>
  <path d="M391.093,117.725l0,12.353" style="fill:none;stroke:#8dcc33;stroke-width:1.25px;"/>
  <path d="M366.355,108.892l-8.954,8.619" style="fill:none;stroke:#8dcc33;stroke-width:1.25px;"/>
  <path d="M366.424,121.578l-8.954,8.619" style="fill:none;stroke:#8dcc33;stroke-width:1.25px;stroke-dasharray:1.88,2.13,0,0,0,0;"/>
  <path d="M400.01,121.647l-8.881,8.55" style="fill:none;stroke:#8dcc33;stroke-width:1.25px;"/>
  <path d="M400.027,108.944l-8.899,8.567" style="fill:none;stroke:#8dcc33;stroke-width:1.25px;"/>
  <path d="M357.467,130.22l33.616,-0" style="fill:none;stroke:#8dcc33;stroke-width:1.25px;"/>
  <path d="M366.424,121.525l33.536,-0" style="fill:none;stroke:#8dcc33;stroke-width:1.25px;stroke-dasharray:1.88,2.13,0,0,0,0;"/>
  <path d="M366.414,108.839l33.617,0" style="fill:none;stroke:#8dcc33;stroke-width:1.25px;"/>
  <path d="M69.396,174.283l986.318,-0" style="fill:none;stroke:#9370db;stroke-width:12.5px;stroke-linecap:square;"/>
  <g transform="matrix(33.3333,0,0,33.3333,63.1953,24.3607)">
    </g>
  <text x="-1.681px" y="24.361px" style="font-family:'ArialMT', 'Arial', sans-serif;font-size:33.333px;fill:#8dcc33;stroke:#1e3a5f;stroke-width:1px;stroke-linecap:butt;stroke-miterlimit:2;">boat</text>
  <g transform="matrix(33.3333,0,0,33.3333,127.337,235.598)">
    </g>
  <text x="12.461px" y="235.598px" style="font-family:'ArialMT', 'Arial', sans-serif;font-size:33.333px;fill:#8dcc33;stroke:#1e3a5f;stroke-width:1px;stroke-linecap:butt;stroke-miterlimit:2;">8:00AM</text>
  <g transform="matrix(33.3333,0,0,33.3333,436.724,65.9236)">
    </g>
  <text x="321.848px" y="65.924px" style="font-family:'ArialMT', 'Arial', sans-serif;font-size:33.333px;fill:#8dcc33;stroke:#1e3a5f;stroke-width:1px;stroke-linecap:butt;stroke-miterlimit:2;">9:20AM</text>
  <g transform="matrix(33.3333,0,0,33.3333,436.725,235.607)">
    </g>
  <text x="321.849px" y="235.607px" style="font-family:'ArialMT', 'Arial', sans-serif;font-size:33.333px;fill:#ff5151;stroke:#1e3a5f;stroke-width:1px;stroke-linecap:butt;stroke-miterlimit:2;">8:20AM</text>
  <g transform="matrix(33.3333,0,0,33.3333,888.484,235.598)">
    </g>
  <text x="773.607px" y="235.598px" style="font-family:'ArialMT', 'Arial', sans-serif;font-size:33.333px;fill:#8dcc33;stroke:#1e3a5f;stroke-width:1px;stroke-linecap:butt;stroke-miterlimit:2;">8:50AM</text>
  <path d="M27.534,188.998c-0,0.829 0.871,1.312 2.615,1.45c0.682,0 1.024,0.19 1.024,0.57c-0,0.034 -0.038,0.259 -0.114,0.673c-0.114,0.483 -0.228,0.794 -0.341,0.932c-0.114,0.138 -0.36,0.207 -0.74,0.207l-0.682,0c-0.379,0 -1.023,-0.017 -1.933,-0.051c-0.91,-0.035 -2.123,-0.052 -3.639,-0.052c-2.691,-0 -4.416,0.034 -5.174,0.103l-0.455,0c-0.265,-0.241 -0.398,-0.431 -0.398,-0.569c0.076,-0.933 0.322,-1.537 0.739,-1.813l0.796,0c2.654,-0.104 4.587,-0.967 5.8,-2.589c0.227,-0.208 3.658,-5.473 10.291,-15.796c6.634,-10.323 10.008,-15.554 10.121,-15.692c0.266,-0.414 0.72,-0.621 1.365,-0.621l1.421,-0c0.228,0.31 0.341,0.483 0.341,0.518l1.593,16.727c1.061,11.152 1.63,16.78 1.705,16.883c0.19,0.38 1.422,0.57 3.696,0.57c0.948,0 1.422,0.173 1.422,0.518c-0,0.069 -0.057,0.311 -0.171,0.725c-0.114,0.518 -0.208,0.829 -0.284,0.932c-0.076,0.104 -0.341,0.173 -0.796,0.207l-0.796,0c-0.417,0 -1.156,-0.017 -2.218,-0.051c-1.061,-0.035 -2.445,-0.052 -4.151,-0.052c-3.563,-0 -5.894,0.034 -6.993,0.103l-0.683,0c-0.227,-0.207 -0.341,-0.362 -0.341,-0.466c0,-0.103 0.038,-0.414 0.114,-0.932c0.152,-0.449 0.265,-0.725 0.341,-0.829l0.228,-0.155l1.137,0c2.047,-0.104 3.26,-0.397 3.639,-0.88l-0.682,-7.769l-13.533,0l-1.933,3.004c-1.554,2.382 -2.331,3.781 -2.331,4.195Zm17.512,-9.633c0,-0.38 -0.227,-3.073 -0.682,-8.079c-0.455,-5.006 -0.72,-7.526 -0.796,-7.561l-1.535,2.227c-0.607,0.932 -1.801,2.779 -3.582,5.541l-5.118,7.872l5.857,0.052c3.904,0 5.856,-0.017 5.856,-0.052Z" style="fill:#8dcc33;fill-rule:nonzero;stroke:#1e3a5f;stroke-width:1.15px;stroke-linecap:butt;stroke-linejoin:miter;stroke-miterlimit:4;"/>
  <path d="M1080,158.181c-1.075,0 -1.712,-0.018 -1.911,-0.054c-0.199,-0.037 -0.299,-0.237 -0.299,-0.601c0,-0.982 0.219,-1.582 0.657,-1.8c0.04,-0.036 2.628,-0.055 7.765,-0.055c10.312,0 15.747,0.037 16.305,0.11c2.508,0.363 4.599,1.182 6.271,2.455c1.672,1.273 2.528,2.946 2.568,5.019c0,2.328 -1.154,4.42 -3.464,6.275c-2.309,1.855 -4.957,3.11 -7.943,3.764l-0.598,0.164c2.549,0.327 4.639,1.164 6.272,2.51c1.632,1.346 2.468,3.019 2.508,5.019c0,2.656 -1.433,5.22 -4.3,7.693c-2.867,2.474 -6.391,3.874 -10.572,4.202c-0.278,0.036 -4.479,0.054 -12.602,0.054c-7.963,0 -12.005,-0.036 -12.124,-0.109c-0.159,-0.109 -0.239,-0.255 -0.239,-0.436c0,-0.255 0.04,-0.51 0.12,-0.764c0.199,-0.691 0.398,-1.073 0.597,-1.146c0.159,-0.036 0.458,-0.055 0.896,-0.055l0.358,0c1.075,0 2.27,-0.054 3.584,-0.163c0.557,-0.109 0.935,-0.328 1.134,-0.655c0.12,-0.146 1.553,-5.201 4.301,-15.168c2.747,-9.966 4.121,-15.222 4.121,-15.768c-0,-0.254 -1.135,-0.418 -3.405,-0.491Zm24.966,5.074c-0,-1.091 -0.299,-2.109 -0.896,-3.055c-0.598,-0.946 -1.573,-1.564 -2.927,-1.855c-0.279,-0.073 -2.11,-0.127 -5.495,-0.164l-2.508,0c-0.876,0 -1.573,0.018 -2.09,0.055l-0.777,-0c-0.597,0.036 -0.975,0.218 -1.135,0.545c-0.079,0.146 -0.716,2.328 -1.911,6.548c0,0.109 -0.02,0.218 -0.06,0.327l-1.851,6.875l4.838,-0c3.225,-0 5.076,-0.037 5.554,-0.11c2.389,-0.363 4.519,-1.418 6.391,-3.164c1.871,-1.746 2.827,-3.747 2.867,-6.002Zm-3.226,17.187c0,-1.601 -0.457,-2.928 -1.373,-3.983c-0.916,-1.055 -2.111,-1.673 -3.584,-1.855c-0.239,-0.037 -1.891,-0.055 -4.957,-0.055c-4.698,0 -7.068,0.018 -7.107,0.055c-0,0.073 -0.339,1.4 -1.016,3.983c-0.677,2.582 -1.373,5.147 -2.09,7.693l-1.075,3.819c-0,0.145 0.239,0.218 0.717,0.218c0.477,0 2.09,0.037 4.837,0.109c3.544,0 5.455,-0.018 5.734,-0.054c2.469,-0.255 4.738,-1.31 6.809,-3.165c2.07,-1.855 3.105,-4.11 3.105,-6.765Z" style="fill:#8dcc33;fill-rule:nonzero;stroke:#1e3a5f;stroke-width:1.21px;stroke-linecap:butt;stroke-linejoin:miter;stroke-miterlimit:4;"/>
  <path d="M830.495,12.638l-35.721,12.429l9.132,-12.225l-9.132,-12.633l35.721,12.429Z" style="fill:#8dcc33;"/>
  <path d="M378.716,91.017l35.722,-12.429l-9.133,12.633l9.133,12.225l-35.722,-12.429Z" style="fill:#8dcc33;"/>
  <path d="M72.431,12.639l732.888,-0" style="fill:none;stroke:#8dcc33;stroke-width:6.25px;"/>
  <path d="M402.094,91.02l436.947,-0" style="fill:none;stroke:#8dcc33;stroke-width:6.25px;"/>
  <path d="M839.694,12.64c0,-0 53.571,-0.002 53.571,39.19c0,39.193 -53.571,39.19 -53.571,39.19" style="fill:none;stroke:#8dcc33;stroke-width:6.25px;"/>
  <circle cx="830.484" cy="174.204" r="11.692" style="fill:#ff5151;"/>
  <circle cx="378.707" cy="174.204" r="11.692" style="fill:#ff5151;"/>
  <path d="M1056.47,194.936l-0,-41.285" style="fill:none;stroke:#8dcc33;stroke-width:12.5px;"/>
  <path d="M69.302,193.774l0,-38.995" style="fill:none;stroke:#8dcc33;stroke-width:12.5px;"/>
</svg>
