<?xml version="1.0" encoding="UTF-8" standalone="no"?>
<!DOCTYPE svg PUBLIC "-//W3C//DTD SVG 1.1//EN" "http://www.w3.org/Graphics/SVG/1.1/DTD/svg11.dtd">
<svg width="456" height="120" viewBox="0 0 1112 257" version="1.1" xmlns="http://www.w3.org/2000/svg" xmlns:xlink="http://www.w3.org/1999/xlink" xml:space="preserve" xmlns:serif="http://www.serif.com/" style="fill-rule:evenodd;clip-rule:evenodd;stroke-linecap:round;stroke-linejoin:round;stroke-miterlimit:1.5;">
    <path d="M425.189,193.174l0,-28.53" style="fill:none;stroke:#8dcc33;stroke-width:12.5px;"/>
  <path d="M876.892,193.174l-0,-28.53" style="fill:none;stroke:#8dcc33;stroke-width:12.5px;"/>
  <path d="M55.634,195.782l986.318,-0" style="fill:none;stroke:#9370db;stroke-width:12.5px;stroke-linecap:square;"/>
  <g transform="matrix(38.5338,0,0,38.5338,528.659,112.834)">
    </g>
  <text x="402.295px" y="112.834px" style="font-family:'ArialMT', 'Arial', sans-serif;font-size:38.534px;fill:#0dcaf2;stroke:#1e3a5f;stroke-width:0.83px;stroke-linecap:butt;stroke-miterlimit:2;">80km/h</text>
  <g>
        <g>
            <path d="M1.718,132.396c-0,-2.774 0.867,-5.042 2.601,-6.803c1.734,-1.761 3.682,-2.655 5.843,-2.681c1.201,-0 1.948,0.013 2.241,0.04c0.721,0.106 1.428,0.293 2.121,0.56c0.694,0.267 1.241,0.507 1.641,0.72c0.4,0.214 0.6,0.374 0.6,0.481l-0.56,3.081l-0.4,-0.24c-0.24,-0.133 -0.56,-0.307 -0.961,-0.52c-0.4,-0.214 -0.76,-0.387 -1.08,-0.52c-0.8,-0.294 -1.828,-0.441 -3.082,-0.441l-0.24,0c-1.867,0 -3.281,0.881 -4.242,2.642c-0.533,1.067 -0.8,2.281 -0.8,3.641c-0,1.761 0.44,3.242 1.32,4.443c0.881,1.2 2.162,1.801 3.842,1.801c1.975,-0 3.829,-0.507 5.563,-1.521l0.56,-0.32l0.08,0.84c0.027,0.56 0.054,1.107 0.08,1.641l0.08,0.8c-0.186,0.134 -0.453,0.294 -0.8,0.48c-0.347,0.187 -1.094,0.427 -2.241,0.721c-1.147,0.293 -2.294,0.453 -3.442,0.48c-2.561,0 -4.655,-0.907 -6.283,-2.721c-1.627,-1.815 -2.441,-4.016 -2.441,-6.604Z" style="fill:#8dcc33;fill-rule:nonzero;stroke:#1e3a5f;stroke-width:0.83px;stroke-linecap:butt;stroke-linejoin:miter;stroke-miterlimit:4;"/>
          <path d="M27.571,125.833c-0.721,0 -1.414,0.067 -2.081,0.2c-0.667,0.134 -1.241,0.294 -1.721,0.481c-0.48,0.186 -0.881,0.386 -1.201,0.6c-0.32,0.213 -0.587,0.387 -0.8,0.52c-0.214,0.133 -0.32,0.2 -0.32,0.2l-0.04,-0.72c-0.054,-0.48 -0.094,-0.987 -0.12,-1.521c-0.027,-0.534 -0.054,-0.854 -0.08,-0.96c-0,-0.054 0.053,-0.107 0.16,-0.16c0.133,-0.054 0.266,-0.121 0.4,-0.201c1.707,-0.907 3.522,-1.36 5.443,-1.36l0.44,-0c2.161,-0 3.895,0.8 5.202,2.401c0.667,0.774 1.094,1.561 1.281,2.361c0.187,0.8 0.293,1.988 0.32,3.562l0,1.801c0,0.88 -0.013,1.614 -0.04,2.201l0,6.083l-3.602,-0l0,-1.561l-0.44,0.28c-1.654,1.121 -3.615,1.681 -5.883,1.681l-0.28,0c-1.147,0 -2.148,-0.427 -3.001,-1.281c-1.041,-1.04 -1.561,-2.427 -1.561,-4.162c-0,-0.427 0.013,-0.693 0.04,-0.8c0.427,-1.414 1.641,-2.441 3.642,-3.082c2.001,-0.64 4.202,-1.027 6.603,-1.16l0.76,-0l0,-1.001c0,-0.747 -0.013,-1.187 -0.04,-1.32c-0.133,-0.854 -0.48,-1.574 -1.04,-2.161c-0.561,-0.587 -1.241,-0.894 -2.041,-0.921Zm2.681,8.044c-4.776,0.16 -7.163,0.961 -7.163,2.401c-0,0.561 0.266,1.094 0.8,1.601c0.534,0.507 1.387,0.774 2.561,0.801c2.028,-0 3.375,-0.774 4.042,-2.322c0.134,-0.346 0.2,-0.907 0.2,-1.68l0,-0.801l-0.44,0Z" style="fill:#8dcc33;fill-rule:nonzero;stroke:#1e3a5f;stroke-width:0.83px;stroke-linecap:butt;stroke-linejoin:miter;stroke-miterlimit:4;"/>
          <path d="M44.219,125.753c1.761,-1.761 3.748,-2.641 5.963,-2.641l0.28,-0l0,3.281l-0.4,0c-1.468,0.107 -2.762,0.601 -3.882,1.481c-1.121,0.881 -1.828,2.055 -2.121,3.522c-0.053,0.24 -0.093,1.961 -0.12,5.162l-0,4.763l-3.602,-0l0,-18.009l3.402,-0l-0,2.921l0.48,-0.48Z" style="fill:#8dcc33;fill-rule:nonzero;stroke:#1e3a5f;stroke-width:0.83px;stroke-linecap:butt;stroke-linejoin:miter;stroke-miterlimit:4;"/>
        </g>
    <g>
            <path d="M59.587,118.189l-0.521,0.201c-0.373,0.133 -0.907,0.266 -1.6,0.4c-0.694,0.133 -1.468,0.226 -2.322,0.28l-0.76,-0l-0,-1.841l0.76,-0c1.254,-0.053 2.415,-0.254 3.482,-0.6c1.067,-0.347 1.814,-0.667 2.241,-0.961c0.427,-0.293 0.801,-0.587 1.121,-0.88c0.053,-0.08 0.213,-0.12 0.48,-0.12c0.24,-0 0.467,0.08 0.68,0.24l0,11.966l0.04,12.006c0.187,0.186 0.347,0.306 0.481,0.36c0.133,0.053 0.453,0.107 0.96,0.16c0.507,0.053 1.334,0.08 2.481,0.08l1.041,-0l-0,1.841l-0.44,-0c-0.561,-0.08 -2.682,-0.12 -6.364,-0.12c-3.628,-0 -5.722,0.04 -6.283,0.12l-0.48,-0l0,-1.841l2.561,-0c0.427,-0 0.761,-0.013 1.001,-0.04c0.24,-0.027 0.453,-0.067 0.64,-0.12c0.187,-0.053 0.294,-0.08 0.32,-0.08c0.027,-0 0.107,-0.067 0.24,-0.2c0.134,-0.134 0.214,-0.187 0.241,-0.16l-0,-20.691Z" style="fill:#8dcc33;fill-rule:nonzero;stroke:#1e3a5f;stroke-width:0.83px;stroke-linecap:butt;stroke-linejoin:miter;stroke-miterlimit:4;"/>
        </g>
    </g>
  <g>
        <g>
            <path d="M1042.65,59.773c-0,-2.775 0.867,-5.043 2.601,-6.804c1.734,-1.761 3.682,-2.654 5.843,-2.681c1.2,-0 1.948,0.013 2.241,0.04c0.72,0.107 1.427,0.293 2.121,0.56c0.694,0.267 1.241,0.507 1.641,0.721c0.4,0.213 0.6,0.373 0.6,0.48l-0.56,3.081l-0.4,-0.24c-0.24,-0.133 -0.561,-0.307 -0.961,-0.52c-0.4,-0.213 -0.76,-0.387 -1.08,-0.52c-0.801,-0.294 -1.828,-0.441 -3.082,-0.441l-0.24,0c-1.868,0 -3.282,0.881 -4.242,2.642c-0.534,1.067 -0.8,2.281 -0.8,3.642c-0,1.76 0.44,3.241 1.32,4.442c0.881,1.2 2.161,1.801 3.842,1.801c1.974,-0 3.829,-0.507 5.563,-1.521l0.56,-0.32l0.08,0.84c0.027,0.56 0.054,1.107 0.08,1.641l0.08,0.8c-0.187,0.134 -0.453,0.294 -0.8,0.481c-0.347,0.186 -1.094,0.426 -2.241,0.72c-1.148,0.293 -2.295,0.454 -3.442,0.48c-2.561,0 -4.656,-0.907 -6.283,-2.721c-1.628,-1.814 -2.441,-4.015 -2.441,-6.603Z" style="fill:#ff7faf;fill-rule:nonzero;stroke:#1e3a5f;stroke-width:0.83px;stroke-linecap:butt;stroke-linejoin:miter;stroke-miterlimit:4;"/>
          <path d="M1068.5,53.209c-0.72,0 -1.414,0.067 -2.081,0.2c-0.667,0.134 -1.24,0.294 -1.72,0.481c-0.481,0.186 -0.881,0.387 -1.201,0.6c-0.32,0.213 -0.587,0.387 -0.8,0.52c-0.214,0.134 -0.321,0.2 -0.321,0.2l-0.04,-0.72c-0.053,-0.48 -0.093,-0.987 -0.12,-1.521c-0.026,-0.533 -0.053,-0.854 -0.08,-0.96c0,-0.054 0.054,-0.107 0.16,-0.16c0.134,-0.054 0.267,-0.12 0.401,-0.2c1.707,-0.908 3.521,-1.361 5.442,-1.361l0.441,-0c2.161,-0 3.895,0.8 5.202,2.401c0.667,0.774 1.094,1.561 1.281,2.361c0.186,0.801 0.293,1.988 0.32,3.562l-0,1.801c-0,0.88 -0.013,1.614 -0.04,2.201l-0,6.083l-3.602,0l0,-1.561l-0.44,0.28c-1.654,1.121 -3.615,1.681 -5.883,1.681l-0.28,0c-1.147,0 -2.148,-0.427 -3.002,-1.28c-1.04,-1.041 -1.56,-2.428 -1.56,-4.162c-0,-0.427 0.013,-0.694 0.04,-0.801c0.426,-1.414 1.64,-2.441 3.641,-3.081c2.001,-0.641 4.202,-1.028 6.604,-1.161l0.76,0l0,-1c0,-0.748 -0.013,-1.188 -0.04,-1.321c-0.133,-0.854 -0.48,-1.574 -1.041,-2.161c-0.56,-0.587 -1.24,-0.894 -2.041,-0.921Zm2.682,8.044c-4.776,0.16 -7.164,0.961 -7.164,2.402c0,0.56 0.267,1.093 0.801,1.6c0.533,0.507 1.387,0.774 2.561,0.801c2.028,-0 3.375,-0.774 4.042,-2.321c0.133,-0.347 0.2,-0.908 0.2,-1.681l0,-0.801l-0.44,0Z" style="fill:#ff7faf;fill-rule:nonzero;stroke:#1e3a5f;stroke-width:0.83px;stroke-linecap:butt;stroke-linejoin:miter;stroke-miterlimit:4;"/>
          <path d="M1085.15,53.129c1.761,-1.761 3.748,-2.641 5.963,-2.641l0.28,0l-0,3.282l-0.4,-0c-1.468,0.106 -2.762,0.6 -3.882,1.48c-1.121,0.881 -1.828,2.055 -2.121,3.522c-0.054,0.24 -0.094,1.961 -0.12,5.163l-0,4.762l-3.602,0l-0,-18.009l3.401,0l0,2.922l0.481,-0.481Z" style="fill:#ff7faf;fill-rule:nonzero;stroke:#1e3a5f;stroke-width:0.83px;stroke-linecap:butt;stroke-linejoin:miter;stroke-miterlimit:4;"/>
        </g>
    <g>
            <path d="M1096.35,51.529c-0.72,-0 -1.294,-0.241 -1.721,-0.721c-0.426,-0.48 -0.64,-1.067 -0.64,-1.761c0,-1.894 0.707,-3.535 2.121,-4.922c1.414,-1.387 3.175,-2.081 5.283,-2.081c2.428,-0 4.455,0.747 6.083,2.241c1.627,1.494 2.454,3.428 2.481,5.803c-0,1.147 -0.267,2.241 -0.8,3.281c-0.534,1.041 -1.174,1.948 -1.921,2.722c-0.747,0.773 -1.815,1.761 -3.202,2.961c-0.96,0.827 -2.294,2.055 -4.002,3.682l-2.361,2.241l3.041,0.04c4.189,0 6.417,-0.067 6.684,-0.2c0.186,-0.053 0.507,-1.241 0.96,-3.562l0,-0.12l1.601,0l-0,0.12c-0.027,0.08 -0.2,1.294 -0.52,3.642c-0.32,2.348 -0.521,3.575 -0.601,3.682l0,0.12l-14.847,0l0,-1.241c0,-0.186 0.08,-0.386 0.24,-0.6c0.16,-0.213 0.56,-0.68 1.201,-1.401c0.774,-0.853 1.441,-1.6 2.001,-2.241c0.24,-0.266 0.693,-0.76 1.36,-1.48c0.667,-0.721 1.121,-1.214 1.361,-1.481c0.24,-0.267 0.627,-0.707 1.161,-1.321c0.533,-0.613 0.907,-1.067 1.12,-1.36c0.214,-0.294 0.521,-0.694 0.921,-1.201c0.4,-0.507 0.68,-0.934 0.84,-1.281c0.16,-0.347 0.36,-0.733 0.6,-1.16c0.241,-0.427 0.414,-0.854 0.521,-1.281c0.106,-0.427 0.2,-0.827 0.28,-1.201c0.08,-0.373 0.12,-0.813 0.12,-1.32c-0,-1.681 -0.454,-3.135 -1.361,-4.362c-0.907,-1.228 -2.201,-1.841 -3.882,-1.841c-0.88,-0 -1.654,0.227 -2.321,0.68c-0.667,0.454 -1.134,0.894 -1.401,1.321c-0.266,0.427 -0.4,0.68 -0.4,0.76c0,0.027 0.067,0.04 0.2,0.04c0.481,0 0.974,0.187 1.481,0.56c0.507,0.374 0.76,0.988 0.76,1.841c0,0.667 -0.213,1.228 -0.64,1.681c-0.427,0.454 -1.027,0.694 -1.801,0.721Z" style="fill:#ff7faf;fill-rule:nonzero;stroke:#1e3a5f;stroke-width:0.83px;stroke-linecap:butt;stroke-linejoin:miter;stroke-miterlimit:4;"/>
        </g>
    </g>
  <path d="M14.495,210.395c0,0.828 0.872,1.312 2.616,1.45c0.682,-0 1.023,0.19 1.023,0.57c0,0.034 -0.037,0.258 -0.113,0.673c-0.114,0.483 -0.228,0.794 -0.341,0.932c-0.114,0.138 -0.361,0.207 -0.74,0.207l-0.682,0c-0.379,0 -1.023,-0.017 -1.933,-0.052c-0.91,-0.034 -2.123,-0.051 -3.639,-0.051c-2.691,-0 -4.416,0.034 -5.174,0.103l-0.455,0c-0.266,-0.242 -0.398,-0.431 -0.398,-0.57c0.076,-0.932 0.322,-1.536 0.739,-1.812l0.796,-0c2.653,-0.104 4.587,-0.967 5.8,-2.59c0.227,-0.207 3.658,-5.472 10.291,-15.795c6.634,-10.323 10.007,-15.554 10.121,-15.692c0.265,-0.414 0.72,-0.621 1.365,-0.621l1.421,-0c0.228,0.31 0.341,0.483 0.341,0.517l1.592,16.728c1.062,11.152 1.63,16.78 1.706,16.883c0.19,0.38 1.422,0.57 3.696,0.57c0.948,-0 1.422,0.173 1.422,0.518c-0,0.069 -0.057,0.31 -0.171,0.725c-0.114,0.518 -0.208,0.828 -0.284,0.932c-0.076,0.104 -0.341,0.173 -0.796,0.207l-0.796,0c-0.417,0 -1.156,-0.017 -2.218,-0.052c-1.061,-0.034 -2.445,-0.051 -4.151,-0.051c-3.563,-0 -5.894,0.034 -6.993,0.103l-0.683,0c-0.227,-0.207 -0.341,-0.362 -0.341,-0.466c0,-0.104 0.038,-0.414 0.114,-0.932c0.152,-0.449 0.265,-0.725 0.341,-0.829l0.228,-0.155l1.137,-0c2.047,-0.104 3.26,-0.397 3.639,-0.881l-0.683,-7.768l-13.532,0l-1.933,3.004c-1.554,2.382 -2.332,3.78 -2.332,4.195Zm17.513,-9.633c0,-0.38 -0.227,-3.073 -0.682,-8.079c-0.455,-5.006 -0.72,-7.527 -0.796,-7.561l-1.535,2.227c-0.607,0.932 -1.801,2.779 -3.583,5.541l-5.117,7.872l5.857,0.052c3.904,-0 5.856,-0.017 5.856,-0.052Z" style="fill:#8dcc33;fill-rule:nonzero;stroke:#1e3a5f;stroke-width:1.15px;stroke-linecap:butt;stroke-linejoin:miter;stroke-miterlimit:4;"/>
  <path d="M1066.63,179.636c-1.075,0 -1.712,-0.018 -1.911,-0.054c-0.199,-0.037 -0.299,-0.237 -0.299,-0.6c0,-0.982 0.219,-1.583 0.657,-1.801c0.04,-0.036 2.628,-0.054 7.765,-0.054c10.312,-0 15.747,0.036 16.305,0.109c2.508,0.363 4.599,1.182 6.271,2.455c1.672,1.273 2.528,2.946 2.568,5.019c0,2.328 -1.155,4.42 -3.464,6.275c-2.309,1.855 -4.957,3.11 -7.943,3.765l-0.598,0.163c2.549,0.328 4.639,1.164 6.271,2.51c1.633,1.346 2.469,3.019 2.509,5.02c-0,2.655 -1.433,5.219 -4.3,7.693c-2.867,2.473 -6.391,3.873 -10.572,4.201c-0.278,0.036 -4.479,0.054 -12.602,0.054c-7.963,0 -12.005,-0.036 -12.124,-0.109c-0.159,-0.109 -0.239,-0.254 -0.239,-0.436c-0,-0.255 0.04,-0.51 0.119,-0.764c0.2,-0.691 0.399,-1.073 0.598,-1.146c0.159,-0.036 0.458,-0.054 0.896,-0.054l0.358,-0c1.075,-0 2.269,-0.055 3.583,-0.164c0.558,-0.109 0.936,-0.328 1.135,-0.655c0.12,-0.145 1.553,-5.201 4.3,-15.168c2.748,-9.966 4.122,-15.222 4.122,-15.768c-0,-0.254 -1.135,-0.418 -3.405,-0.491Zm24.965,5.074c0,-1.091 -0.298,-2.109 -0.895,-3.055c-0.598,-0.946 -1.573,-1.564 -2.927,-1.855c-0.279,-0.073 -2.11,-0.127 -5.495,-0.164l-2.508,0c-0.876,0 -1.573,0.019 -2.091,0.055l-0.776,-0c-0.597,0.036 -0.976,0.218 -1.135,0.546c-0.079,0.145 -0.717,2.327 -1.911,6.547c-0,0.109 -0.02,0.218 -0.06,0.327l-1.851,6.875l4.838,-0c3.225,-0 5.076,-0.037 5.554,-0.109c2.389,-0.364 4.519,-1.419 6.391,-3.165c1.871,-1.746 2.827,-3.746 2.866,-6.002Zm-3.225,17.187c0,-1.6 -0.458,-2.928 -1.373,-3.983c-0.916,-1.055 -2.111,-1.673 -3.584,-1.855c-0.239,-0.036 -1.891,-0.055 -4.957,-0.055c-4.699,0 -7.068,0.019 -7.107,0.055c-0,0.073 -0.339,1.4 -1.016,3.983c-0.677,2.582 -1.374,5.147 -2.09,7.693l-1.075,3.819c-0,0.146 0.239,0.218 0.716,0.218c0.478,0 2.091,0.037 4.838,0.11c3.544,-0 5.455,-0.019 5.734,-0.055c2.469,-0.255 4.738,-1.309 6.809,-3.165c2.07,-1.855 3.105,-4.11 3.105,-6.765Z" style="fill:#8dcc33;fill-rule:nonzero;stroke:#1e3a5f;stroke-width:1.21px;stroke-linecap:butt;stroke-linejoin:miter;stroke-miterlimit:4;"/>
  <path d="M405.652,239.278c-0,-3.938 1.229,-7.722 3.689,-11.352c2.459,-3.629 5.56,-6.506 9.304,-8.629c3.743,-2.123 7.487,-3.202 11.231,-3.236c3.303,-0 5.927,0.873 7.872,2.62c0.331,0.342 0.606,0.633 0.826,0.873c0.22,0.24 0.367,0.411 0.441,0.513l0.055,0.155c0.11,-0 0.605,-0.446 1.486,-1.336c0.257,-0.205 0.532,-0.445 0.826,-0.719c0.294,-0.274 0.587,-0.548 0.881,-0.822c0.293,-0.274 0.477,-0.462 0.55,-0.565l0.826,-0.77l0.331,-0c0.513,-0 0.77,0.119 0.77,0.359c0,0.137 -0.587,2.483 -1.761,7.037c-1.322,4.76 -1.982,7.157 -1.982,7.191c-0.074,0.172 -0.166,0.274 -0.276,0.308c-0.11,0.035 -0.44,0.069 -0.991,0.103l-0.881,0c-0.22,-0.205 -0.33,-0.359 -0.33,-0.462c0,-0.034 0.019,-0.154 0.055,-0.36c0.037,-0.205 0.074,-0.548 0.11,-1.027c0.037,-0.479 0.055,-1.027 0.055,-1.644c0,-2.431 -0.587,-4.554 -1.761,-6.369c-1.175,-1.815 -3.175,-2.739 -6.001,-2.774c-0.955,0 -1.982,0.12 -3.083,0.36c-1.101,0.24 -2.423,0.651 -3.964,1.233c-1.542,0.582 -3.065,1.541 -4.57,2.876c-1.504,1.336 -2.844,2.928 -4.019,4.777c-1.174,1.952 -2.11,4.229 -2.807,6.832c-0.698,2.602 -1.046,4.725 -1.046,6.369c-0,3.904 1.394,6.712 4.184,8.424c1.761,1.164 3.927,1.746 6.496,1.746c3.34,0 6.313,-1.164 8.919,-3.493c2.606,-2.328 4.331,-4.862 5.175,-7.602c0.147,-0.445 0.257,-0.702 0.33,-0.77c0.074,-0.069 0.367,-0.103 0.881,-0.103c0.734,0 1.101,0.154 1.101,0.462c0,0.172 -0.018,0.326 -0.055,0.463c-1.064,3.664 -3.34,6.814 -6.827,9.451c-3.486,2.637 -7.23,3.955 -11.231,3.955c-4.147,0 -7.652,-1.284 -10.515,-3.852c-2.863,-2.569 -4.294,-5.976 -4.294,-10.222Z" style="fill:#8dcc33;fill-rule:nonzero;stroke:#1e3a5f;stroke-width:1.13px;stroke-linecap:butt;stroke-linejoin:miter;stroke-miterlimit:4;"/>
  <path d="M876.879,128.228l-35.722,12.429l9.133,-12.225l-9.133,-12.633l35.722,12.429Z" style="fill:#0dcaf2;"/>
  <path d="M76.657,128.238l776.711,0" style="fill:none;stroke:#0dcaf2;stroke-width:6.25px;"/>
  <circle cx="425.19" cy="195.702" r="11.692" style="fill:#ff5151;"/>
  <circle cx="876.892" cy="195.702" r="11.692" style="fill:#ff5151;"/>
  <g>
        <g>
            <g>
                <g>
                    <g>
                        <path d="M869.197,219.204c0,-0.253 -1.114,-0.416 -3.344,-0.488c-0.899,0 -1.486,-0.018 -1.76,-0.054c-0.274,-0.036 -0.41,-0.199 -0.41,-0.487c-0,-0.289 0.078,-0.65 0.234,-1.084c0.157,-0.433 0.294,-0.704 0.411,-0.812c0.078,-0.036 3.97,-0.054 11.674,-0.054c6.532,0.036 10.189,0.054 10.971,0.054c0.782,-0 1.564,0.108 2.347,0.325c2.816,0.614 5.201,2.04 7.157,4.279c1.955,2.239 2.953,5.236 2.992,8.991c-0,5.633 -2.093,10.688 -6.277,15.166c-4.185,4.477 -9.113,7.15 -14.784,8.016l-0.822,0.109l-11.381,0.054l-9.621,-0c-0.939,-0 -1.545,-0.036 -1.819,-0.109c-0.273,-0.072 -0.43,-0.234 -0.469,-0.487c0,-0.072 0.059,-0.325 0.176,-0.758c0.156,-0.578 0.313,-0.903 0.469,-0.975c0.157,-0.073 0.607,-0.127 1.35,-0.163c1.056,0 2.229,-0.054 3.52,-0.162c0.547,-0.109 0.919,-0.325 1.114,-0.65c0.118,-0.145 1.526,-5.164 4.224,-15.058c2.699,-9.894 4.048,-15.112 4.048,-15.653Zm24.405,8.612c0,-1.372 -0.215,-2.6 -0.645,-3.683c-0.43,-1.084 -0.939,-1.932 -1.525,-2.546c-0.587,-0.614 -1.311,-1.138 -2.171,-1.571c-0.86,-0.433 -1.623,-0.722 -2.288,-0.866c-0.665,-0.145 -1.349,-0.271 -2.053,-0.38l-2.523,0c-0.665,0 -1.31,-0.018 -1.936,-0.054l-2.523,0c-1.72,0 -2.698,0.181 -2.933,0.542c-0.078,0.144 -1.506,5.344 -4.283,15.599c-2.776,10.255 -4.165,15.437 -4.165,15.545c0,0.145 0.215,0.217 0.646,0.217c0.43,-0 1.936,0.018 4.517,0.054l1.114,0c0.548,0 1.017,0.018 1.408,0.054c4.928,0 8.996,-1.48 12.203,-4.441c1.408,-1.3 2.562,-2.817 3.461,-4.55c0.9,-1.733 1.741,-4.026 2.523,-6.879c0.782,-2.853 1.173,-5.2 1.173,-7.041Z" style="fill:#8dcc33;fill-rule:nonzero;stroke:#1e3a5f;stroke-width:1.39px;stroke-linecap:butt;stroke-linejoin:miter;stroke-miterlimit:4;"/>
                    </g>
                </g>
            </g>
        </g>
    </g>
  <path d="M425.385,55.578l35.721,-12.429l-9.132,12.633l9.132,12.225l-35.721,-12.429Z" style="fill:#ff7faf;"/>
  <path d="M1034.03,55.588l-587.073,-0" style="fill:none;stroke:#ff7faf;stroke-width:6.25px;"/>
  <path d="M1042.7,216.435l0,-41.285" style="fill:none;stroke:#8dcc33;stroke-width:12.5px;"/>
  <path d="M55.54,215.273l-0,-38.995" style="fill:none;stroke:#8dcc33;stroke-width:12.5px;"/>
  <g>
        <g>
            <path d="M667.47,30.469c1.558,0 2.984,-0.686 4.277,-2.059c1.294,-1.373 1.954,-2.97 1.98,-4.792c0,-1.663 -0.686,-2.812 -2.059,-3.445c-2.799,-0.713 -4.594,-1.202 -5.386,-1.466c-0.792,-0.264 -1.346,-0.528 -1.663,-0.792c-1.584,-1.109 -2.376,-2.706 -2.376,-4.792c-0,-1.61 0.422,-3.075 1.267,-4.395c0.845,-1.321 1.703,-2.311 2.574,-2.971c0.766,-0.66 1.69,-1.188 2.772,-1.584c1.083,-0.396 1.928,-0.607 2.535,-0.633l0.713,-0c2.534,-0 4.369,0.845 5.504,2.534c0.027,0 0.198,-0.171 0.515,-0.515c0.317,-0.343 0.66,-0.726 1.03,-1.148c0.369,-0.423 0.633,-0.713 0.792,-0.871l0.158,-0c0.079,-0 0.145,-0.014 0.198,-0.04c0.344,0 0.515,0.092 0.515,0.277c0,0.185 -0.369,1.782 -1.109,4.792c-0.739,3.01 -1.161,4.568 -1.267,4.673c-0.106,0.106 -0.317,0.145 -0.634,0.119c-0.528,-0 -0.792,-0.119 -0.792,-0.356c0,-0.159 0.014,-0.291 0.04,-0.396c-0,-0.08 0.013,-0.33 0.04,-0.753c0.026,-0.422 0.052,-0.766 0.079,-1.03c-0,-0.897 -0.119,-1.676 -0.357,-2.336c-0.237,-0.66 -0.475,-1.149 -0.713,-1.465c-0.237,-0.317 -0.567,-0.647 -0.99,-0.99c-0.95,-0.555 -2.033,-0.832 -3.247,-0.832c-1.505,-0 -2.904,0.607 -4.198,1.822c-1.293,1.214 -1.954,2.613 -1.98,4.197c0,0.793 0.198,1.479 0.594,2.06c0.396,0.581 0.937,0.99 1.624,1.227c0.105,0.053 1.029,0.304 2.772,0.753c1.742,0.449 2.627,0.686 2.653,0.713c0.898,0.29 1.769,0.924 2.614,1.901c0.845,0.976 1.267,2.297 1.267,3.96c0,0.686 -0.105,1.426 -0.316,2.218c-0.132,0.58 -0.37,1.227 -0.713,1.94c-0.344,0.713 -0.819,1.492 -1.426,2.337c-0.607,0.844 -1.478,1.636 -2.614,2.376c-1.135,0.739 -2.376,1.241 -3.722,1.505c-0.317,0.052 -0.766,0.079 -1.347,0.079c-2.614,-0 -4.646,-0.726 -6.099,-2.178l-0.396,-0.436l-1.108,1.228c-0.608,0.713 -0.977,1.122 -1.109,1.227c-0.132,0.106 -0.304,0.159 -0.515,0.159c-0.343,-0 -0.515,-0.106 -0.515,-0.317c0,-0.079 0.766,-3.181 2.297,-9.306c0.053,-0.159 0.317,-0.238 0.792,-0.238l0.515,-0c0.158,0.158 0.237,0.304 0.237,0.436c0,0.052 -0.013,0.171 -0.039,0.356c-0.027,0.185 -0.079,0.462 -0.159,0.832c-0.079,0.369 -0.105,0.805 -0.079,1.306c0.053,1.03 0.291,1.901 0.713,2.614c0.422,0.713 0.99,1.241 1.703,1.584c0.713,0.343 1.399,0.581 2.059,0.713c0.66,0.132 1.36,0.198 2.099,0.198Z" style="fill:#ff7faf;fill-rule:nonzero;stroke:#1e3a5f;stroke-width:0.83px;stroke-linecap:butt;stroke-linejoin:miter;stroke-miterlimit:4;"/>
        </g>
    <g>
            <path d="M692.705,21.519c-0,-0.634 0.224,-1.188 0.673,-1.663c0.449,-0.475 1.016,-0.713 1.703,-0.713c0.633,-0 1.188,0.211 1.663,0.634c0.475,0.422 0.726,0.99 0.753,1.702c-0,0.66 -0.225,1.228 -0.674,1.703c-0.449,0.476 -1.016,0.713 -1.703,0.713c-0.686,0 -1.254,-0.224 -1.702,-0.673c-0.449,-0.449 -0.687,-1.017 -0.713,-1.703Z" style="fill:#ff7faf;fill-rule:nonzero;stroke:#1e3a5f;stroke-width:0.83px;stroke-linecap:butt;stroke-linejoin:miter;stroke-miterlimit:4;"/>
        </g>
    <g>
            <path d="M717.86,8.53l-0.515,0.198c-0.369,0.132 -0.897,0.264 -1.584,0.396c-0.686,0.132 -1.452,0.224 -2.297,0.277l-0.752,-0l-0,-1.822l0.752,0c1.241,-0.053 2.389,-0.251 3.446,-0.594c1.056,-0.343 1.795,-0.66 2.217,-0.95c0.423,-0.291 0.792,-0.581 1.109,-0.872c0.053,-0.079 0.211,-0.118 0.475,-0.118c0.238,-0 0.462,0.079 0.674,0.237l-0,11.841l0.039,11.881c0.185,0.185 0.343,0.303 0.475,0.356c0.132,0.053 0.449,0.106 0.951,0.159c0.501,0.052 1.32,0.079 2.455,0.079l1.03,-0l-0,1.822l-0.436,-0c-0.554,-0.08 -2.653,-0.119 -6.297,-0.119c-3.59,-0 -5.663,0.039 -6.217,0.119l-0.475,-0l-0,-1.822l2.534,-0c0.423,-0 0.753,-0.013 0.99,-0.04c0.238,-0.026 0.449,-0.066 0.634,-0.119c0.185,-0.052 0.29,-0.079 0.317,-0.079c0.026,0 0.105,-0.066 0.237,-0.198c0.132,-0.132 0.212,-0.185 0.238,-0.158l-0,-20.474Z" style="fill:#ff7faf;fill-rule:nonzero;stroke:#1e3a5f;stroke-width:0.83px;stroke-linecap:butt;stroke-linejoin:miter;stroke-miterlimit:4;"/>
      <path d="M733.028,8.252c1.478,-2.138 3.498,-3.207 6.059,-3.207c1.267,-0 2.534,0.343 3.802,1.029c1.267,0.687 2.296,1.901 3.089,3.644c0.976,2.191 1.465,5.201 1.465,9.029c-0,4.092 -0.568,7.221 -1.703,9.386c-0.528,1.108 -1.254,1.993 -2.178,2.653c-0.924,0.66 -1.73,1.069 -2.416,1.228c-0.686,0.158 -1.36,0.25 -2.02,0.277c-0.686,-0 -1.373,-0.079 -2.059,-0.238c-0.686,-0.158 -1.492,-0.581 -2.416,-1.267c-0.924,-0.686 -1.65,-1.571 -2.178,-2.653c-1.135,-2.165 -1.703,-5.294 -1.703,-9.386c0,-4.594 0.753,-8.092 2.258,-10.495Zm8.91,-0.475c-0.792,-0.845 -1.729,-1.267 -2.812,-1.267c-1.109,-0 -2.059,0.422 -2.851,1.267c-0.66,0.687 -1.096,1.637 -1.307,2.851c-0.211,1.215 -0.317,3.749 -0.317,7.604c0,4.171 0.106,6.917 0.317,8.237c0.211,1.32 0.687,2.363 1.426,3.129c0.739,0.792 1.65,1.188 2.732,1.188c1.056,-0 1.954,-0.396 2.693,-1.188c0.766,-0.792 1.241,-1.901 1.426,-3.327c0.185,-1.425 0.29,-4.105 0.317,-8.039c-0,-3.828 -0.106,-6.349 -0.317,-7.564c-0.211,-1.214 -0.647,-2.178 -1.307,-2.891Z" style="fill:#ff7faf;fill-rule:nonzero;stroke:#1e3a5f;stroke-width:0.83px;stroke-linecap:butt;stroke-linejoin:miter;stroke-miterlimit:4;"/>
        </g>
    <g>
            <path d="M767.442,7.46c-0.977,0 -1.914,-0.119 -2.812,-0.356c-0.898,-0.238 -1.61,-0.475 -2.138,-0.713c-0.528,-0.238 -0.806,-0.356 -0.832,-0.356c0.343,0.871 0.515,2.099 0.515,3.683c-0,2.376 -0.515,4.29 -1.545,5.742c-1.029,1.452 -2.231,2.191 -3.603,2.218c-1.505,-0 -2.839,-0.726 -4,-2.178c-1.162,-1.453 -1.756,-3.38 -1.782,-5.782c-0,-2.35 0.594,-4.264 1.782,-5.743c1.188,-1.478 2.521,-2.231 4,-2.257c1.029,-0 1.953,0.409 2.772,1.228c2.297,2.033 4.831,3.049 7.603,3.049c3.063,-0 5.518,-1.188 7.366,-3.564c0.317,-0.423 0.555,-0.647 0.713,-0.673c0.053,-0.027 0.119,-0.04 0.198,-0.04c0.238,-0 0.436,0.092 0.594,0.277c0.159,0.185 0.225,0.409 0.198,0.673c-13.597,20.409 -20.501,30.679 -20.712,30.811c-0.105,0.105 -0.237,0.158 -0.396,0.158c-0.343,0 -0.581,-0.145 -0.713,-0.435c-0.132,-0.238 -0.132,-0.476 0,-0.713c0.027,-0.079 2.944,-4.449 8.752,-13.108c2.799,-4.172 4.938,-7.366 6.416,-9.584c1.478,-2.218 2.218,-3.327 2.218,-3.327c-1.4,0.66 -2.931,0.99 -4.594,0.99Zm-10.217,8.713c0.739,-0 1.478,-0.555 2.217,-1.664c0.739,-1.108 1.122,-2.706 1.149,-4.791c-0,-1.822 -0.33,-3.353 -0.99,-4.594c-0.66,-1.241 -1.545,-1.875 -2.654,-1.901c-0.185,-0 -0.369,0.039 -0.554,0.119c-0.185,0.079 -0.436,0.224 -0.753,0.435c-0.316,0.211 -0.58,0.608 -0.792,1.188c-0.211,0.581 -0.382,1.281 -0.514,2.099c-0.053,0.528 -0.08,1.413 -0.08,2.654l0,0.831c0,2.403 0.436,4.04 1.307,4.911c0.475,0.475 0.977,0.713 1.505,0.713l0.159,-0Zm11.603,9.465c-0,-2.324 0.581,-4.225 1.742,-5.703c1.162,-1.479 2.522,-2.231 4.079,-2.257c1.373,-0 2.561,0.726 3.565,2.178c1.003,1.452 1.518,3.379 1.544,5.782c0.027,2.402 -0.488,4.329 -1.544,5.782c-1.056,1.452 -2.258,2.191 -3.604,2.217c-1.479,0 -2.812,-0.739 -4,-2.217c-1.188,-1.479 -1.782,-3.406 -1.782,-5.782Zm5.98,6.494c0.739,0 1.478,-0.554 2.218,-1.663c0.739,-1.109 1.122,-2.719 1.148,-4.831c0,-1.822 -0.33,-3.353 -0.99,-4.594c-0.66,-1.241 -1.544,-1.861 -2.653,-1.861c-0.185,-0 -0.37,0.039 -0.555,0.118c-0.185,0.08 -0.435,0.225 -0.752,0.436c-0.317,0.211 -0.581,0.607 -0.792,1.188c-0.211,0.581 -0.383,1.28 -0.515,2.099c-0.026,0.317 -0.04,1.188 -0.04,2.614l0,0.871c0,3.749 0.924,5.623 2.772,5.623l0.159,0Z" style="fill:#ff7faf;fill-rule:nonzero;stroke:#1e3a5f;stroke-width:0.83px;stroke-linecap:butt;stroke-linejoin:miter;stroke-miterlimit:4;"/>
        </g>
    <g>
            <g>
                <path d="M798.767,1.718c0.238,-0 0.436,0.079 0.594,0.238c0.159,0.158 0.238,0.343 0.238,0.554c-0,0.132 -2.284,6.495 -6.851,19.088c-4.568,12.594 -6.931,19.036 -7.089,19.326c-0.185,0.264 -0.409,0.396 -0.673,0.396c-0.185,0 -0.357,-0.066 -0.515,-0.198c-0.159,-0.132 -0.238,-0.317 -0.238,-0.554c0,-0.264 2.297,-6.706 6.891,-19.326c4.594,-12.62 6.93,-18.996 7.01,-19.128c0.105,-0.264 0.316,-0.396 0.633,-0.396Z" style="fill:#ff7faf;fill-rule:nonzero;stroke:#1e3a5f;stroke-width:0.83px;stroke-linecap:butt;stroke-linejoin:miter;stroke-miterlimit:4;"/>
            </g>
        </g>
    <g>
            <path d="M807.242,4.371c0.026,0 0.977,-0.066 2.851,-0.198c1.875,-0.132 2.839,-0.211 2.891,-0.237c0.317,-0 0.476,0.118 0.476,0.356c-0,0.291 -0.476,2.284 -1.426,5.98c-1.003,3.907 -1.505,5.901 -1.505,5.98c0,0.053 0.092,-0.013 0.277,-0.198c1.611,-1.426 3.327,-2.139 5.149,-2.139c1.425,0 2.574,0.357 3.445,1.07c0.871,0.713 1.32,1.755 1.346,3.128c0,1.347 -0.501,3.432 -1.504,6.257c-1.004,2.825 -1.505,4.515 -1.505,5.069c0.026,0.37 0.092,0.621 0.198,0.753c0.105,0.132 0.303,0.198 0.594,0.198c0.739,-0 1.425,-0.396 2.059,-1.188c0.634,-0.792 1.148,-1.875 1.544,-3.248c0.08,-0.29 0.159,-0.462 0.238,-0.514c0.079,-0.053 0.29,-0.08 0.634,-0.08c0.528,0 0.792,0.106 0.792,0.317c-0,0.027 -0.053,0.225 -0.159,0.594c-0.422,1.558 -1.095,2.838 -2.019,3.842c-0.898,1.135 -1.967,1.703 -3.208,1.703l-0.198,-0c-1.241,-0 -2.139,-0.357 -2.693,-1.07c-0.555,-0.712 -0.832,-1.465 -0.832,-2.257c0,-0.422 0.475,-1.98 1.426,-4.673c0.95,-2.693 1.439,-4.713 1.465,-6.059c0,-1.558 -0.581,-2.337 -1.742,-2.337l-0.198,0c-2.192,0 -4.093,1.294 -5.703,3.881l-0.277,0.515l-1.347,5.346c-0.845,3.433 -1.333,5.307 -1.465,5.624c-0.343,0.713 -0.924,1.069 -1.742,1.069c-0.37,0 -0.687,-0.119 -0.951,-0.356c-0.264,-0.238 -0.409,-0.475 -0.436,-0.713c0,-0.37 0.964,-4.383 2.891,-12.039l2.931,-11.722c-0,-0.344 -0.092,-0.555 -0.277,-0.634c-0.185,-0.079 -0.7,-0.145 -1.545,-0.198l-0.831,0c-0.159,-0.158 -0.238,-0.264 -0.238,-0.317c0,-0.053 0.026,-0.303 0.079,-0.752c0.132,-0.502 0.304,-0.753 0.515,-0.753Z" style="fill:#ff7faf;fill-rule:nonzero;stroke:#1e3a5f;stroke-width:0.83px;stroke-linecap:butt;stroke-linejoin:miter;stroke-miterlimit:4;"/>
        </g>
    </g>
</svg>
