<?xml version="1.0" encoding="UTF-8" standalone="no"?>
<!DOCTYPE svg PUBLIC "-//W3C//DTD SVG 1.1//EN" "http://www.w3.org/Graphics/SVG/1.1/DTD/svg11.dtd">
<svg width="456" height="120" viewBox="0 0 1900 438" version="1.1" xmlns="http://www.w3.org/2000/svg" xmlns:xlink="http://www.w3.org/1999/xlink" xml:space="preserve" xmlns:serif="http://www.serif.com/" style="fill-rule:evenodd;clip-rule:evenodd;stroke-linecap:round;stroke-linejoin:round;stroke-miterlimit:1.5;">
    <path d="M726.48,330.052l0,-48.748" style="fill:none;stroke:#8dcc33;stroke-width:21.36px;"/>
  <path d="M1498.28,330.052l-0,-48.748" style="fill:none;stroke:#8dcc33;stroke-width:21.36px;"/>
  <path d="M95.046,334.508l1685.26,-0" style="fill:none;stroke:#9370db;stroke-width:21.36px;stroke-linecap:square;"/>
  <text x="687.363px" y="192.78px" style="font-family:'ArialMT', 'Arial', sans-serif;font-size:65.84px;fill:#0dcaf2;stroke:#1e3a5f;stroke-width:1.42px;stroke-linecap:butt;stroke-miterlimit:2;">80km/h</text>
  <g>
        <path d="M2.924,226.204c-0,-4.739 1.481,-8.615 4.444,-11.623c2.963,-3.009 6.291,-4.537 9.983,-4.581c2.052,-0 3.329,0.022 3.829,0.068c1.232,0.181 2.44,0.501 3.624,0.957c1.186,0.456 2.121,0.866 2.804,1.23c0.684,0.366 1.025,0.639 1.025,0.822l-0.956,5.264l-0.684,-0.41c-0.41,-0.227 -0.957,-0.524 -1.642,-0.888c-0.683,-0.366 -1.298,-0.662 -1.845,-0.889c-1.367,-0.502 -3.124,-0.753 -5.266,-0.753l-0.41,-0c-3.19,-0 -5.606,1.505 -7.248,4.514c-0.911,1.823 -1.367,3.897 -1.367,6.221c-0,3.009 0.752,5.539 2.255,7.591c1.506,2.051 3.694,3.078 6.565,3.078c3.374,-0 6.542,-0.867 9.505,-2.599l0.957,-0.547l0.136,1.435c0.047,0.957 0.093,1.892 0.137,2.804l0.137,1.367c-0.318,0.229 -0.774,0.503 -1.367,0.82c-0.593,0.32 -1.869,0.73 -3.829,1.232c-1.96,0.501 -3.92,0.774 -5.881,0.82c-4.376,0 -7.954,-1.549 -10.736,-4.649c-2.78,-3.101 -4.17,-6.862 -4.17,-11.284Z" style="fill:#0dcaf2;fill-rule:nonzero;stroke:#1e3a5f;stroke-width:1.42px;stroke-linecap:butt;stroke-linejoin:miter;stroke-miterlimit:4;"/>
    <path d="M47.097,214.991c-1.232,-0 -2.416,0.114 -3.556,0.341c-1.139,0.229 -2.12,0.503 -2.94,0.822c-0.82,0.318 -1.506,0.66 -2.052,1.025c-0.547,0.364 -1.003,0.662 -1.367,0.889c-0.366,0.227 -0.547,0.342 -0.547,0.342l-0.068,-1.231c-0.093,-0.82 -0.161,-1.686 -0.205,-2.598c-0.047,-0.913 -0.093,-1.46 -0.137,-1.641c-0,-0.092 0.09,-0.183 0.273,-0.273c0.228,-0.092 0.455,-0.207 0.684,-0.344c2.916,-1.549 6.018,-2.323 9.3,-2.323l0.752,-0c3.692,-0 6.655,1.367 8.888,4.102c1.14,1.323 1.869,2.667 2.189,4.034c0.319,1.367 0.5,3.397 0.546,6.086l0,3.078c0,1.503 -0.022,2.757 -0.068,3.76l0,10.394l-6.154,-0l-0,-2.667l-0.752,0.478c-2.826,1.916 -6.177,2.872 -10.052,2.872l-0.479,0c-1.959,0 -3.67,-0.729 -5.127,-2.188c-1.779,-1.777 -2.667,-4.147 -2.667,-7.112c-0,-0.729 0.022,-1.184 0.068,-1.367c0.73,-2.416 2.804,-4.17 6.223,-5.266c3.419,-1.093 7.18,-1.754 11.282,-1.982l1.299,0l-0,-1.71c-0,-1.276 -0.023,-2.028 -0.069,-2.255c-0.227,-1.46 -0.82,-2.69 -1.777,-3.693c-0.958,-1.003 -2.12,-1.527 -3.487,-1.573Zm4.581,13.744c-8.161,0.273 -12.239,1.642 -12.239,4.102c-0,0.959 0.454,1.87 1.367,2.736c0.912,0.866 2.37,1.322 4.376,1.368c3.465,0 5.766,-1.322 6.906,-3.967c0.229,-0.591 0.342,-1.55 0.342,-2.871l-0,-1.368l-0.752,-0Z" style="fill:#0dcaf2;fill-rule:nonzero;stroke:#1e3a5f;stroke-width:1.42px;stroke-linecap:butt;stroke-linejoin:miter;stroke-miterlimit:4;"/>
    <path d="M75.542,214.854c3.009,-3.009 6.404,-4.513 10.189,-4.513l0.478,0l0,5.606l-0.683,0c-2.508,0.183 -4.719,1.027 -6.633,2.531c-1.916,1.505 -3.124,3.511 -3.624,6.018c-0.091,0.41 -0.159,3.35 -0.205,8.82l-0,8.138l-6.155,-0l0,-30.771l5.813,0l0,4.991l0.82,-0.82Z" style="fill:#0dcaf2;fill-rule:nonzero;stroke:#1e3a5f;stroke-width:1.42px;stroke-linecap:butt;stroke-linejoin:miter;stroke-miterlimit:4;"/>
    </g>
  <g>
        <path d="M101.801,201.93l-0.891,0.343c-0.637,0.228 -1.549,0.455 -2.733,0.684c-1.186,0.227 -2.509,0.386 -3.968,0.478l-1.299,0l0,-3.145l1.299,-0c2.143,-0.091 4.126,-0.434 5.95,-1.026c1.823,-0.593 3.099,-1.139 3.829,-1.642c0.729,-0.5 1.368,-1.003 1.915,-1.503c0.09,-0.137 0.364,-0.205 0.82,-0.205c0.41,-0 0.798,0.136 1.162,0.41l-0,20.445l0.068,20.514c0.32,0.318 0.593,0.523 0.822,0.615c0.227,0.091 0.774,0.183 1.64,0.274c0.867,0.09 2.28,0.136 4.24,0.136l1.778,0l0,3.146l-0.752,-0c-0.958,-0.137 -4.582,-0.205 -10.873,-0.205c-6.199,-0 -9.777,0.068 -10.736,0.205l-0.82,-0l0,-3.146l4.376,0c0.73,0 1.3,-0.022 1.71,-0.068c0.41,-0.046 0.774,-0.114 1.094,-0.205c0.319,-0.091 0.502,-0.137 0.547,-0.137c0.046,0 0.182,-0.114 0.41,-0.341c0.229,-0.229 0.365,-0.32 0.412,-0.274l-0,-35.353Z" style="fill:#0dcaf2;fill-rule:nonzero;stroke:#1e3a5f;stroke-width:1.42px;stroke-linecap:butt;stroke-linejoin:miter;stroke-miterlimit:4;"/>
    </g>
  <g>
        <path d="M1781.49,102.118c0,-4.741 1.482,-8.616 4.445,-11.625c2.962,-3.009 6.291,-4.535 9.983,-4.581c2.051,-0 3.329,0.022 3.829,0.068c1.23,0.183 2.438,0.501 3.624,0.957c1.186,0.456 2.121,0.866 2.804,1.232c0.684,0.364 1.025,0.637 1.025,0.82l-0.957,5.264l-0.683,-0.41c-0.41,-0.227 -0.959,-0.524 -1.642,-0.888c-0.683,-0.364 -1.299,-0.661 -1.845,-0.889c-1.369,-0.502 -3.124,-0.753 -5.266,-0.753l-0.41,-0c-3.192,-0 -5.608,1.505 -7.248,4.514c-0.913,1.823 -1.367,3.898 -1.367,6.223c-0,3.007 0.751,5.538 2.255,7.59c1.505,2.05 3.692,3.077 6.565,3.077c3.372,-0 6.542,-0.866 9.505,-2.599l0.957,-0.547l0.136,1.436c0.046,0.956 0.093,1.891 0.137,2.803l0.137,1.367c-0.32,0.229 -0.774,0.503 -1.367,0.822c-0.593,0.318 -1.869,0.728 -3.829,1.23c-1.962,0.501 -3.922,0.776 -5.881,0.821c-4.376,-0 -7.956,-1.55 -10.736,-4.65c-2.781,-3.099 -4.171,-6.86 -4.171,-11.282Z" style="fill:#ff7faf;fill-rule:nonzero;stroke:#1e3a5f;stroke-width:1.42px;stroke-linecap:butt;stroke-linejoin:miter;stroke-miterlimit:4;"/>
    <path d="M1825.66,90.903c-1.231,-0 -2.416,0.114 -3.556,0.342c-1.14,0.229 -2.119,0.502 -2.939,0.821c-0.822,0.318 -1.505,0.662 -2.052,1.026c-0.547,0.364 -1.003,0.661 -1.367,0.888c-0.365,0.229 -0.548,0.342 -0.548,0.342l-0.069,-1.23c-0.09,-0.821 -0.159,-1.687 -0.205,-2.599c-0.044,-0.911 -0.09,-1.459 -0.136,-1.641c-0,-0.092 0.092,-0.182 0.273,-0.273c0.229,-0.092 0.456,-0.205 0.685,-0.342c2.917,-1.551 6.016,-2.325 9.299,-2.325l0.753,-0c3.692,-0 6.655,1.367 8.888,4.102c1.14,1.323 1.87,2.668 2.189,4.034c0.318,1.369 0.501,3.397 0.547,6.087l-0,3.077c-0,1.503 -0.022,2.758 -0.068,3.761l-0,10.393l-6.155,0l0,-2.667l-0.752,0.478c-2.826,1.916 -6.176,2.873 -10.052,2.873l-0.478,-0c-1.96,-0 -3.67,-0.73 -5.129,-2.187c-1.777,-1.779 -2.666,-4.149 -2.666,-7.112c0,-0.729 0.022,-1.186 0.068,-1.368c0.728,-2.416 2.803,-4.171 6.222,-5.265c3.419,-1.095 7.179,-1.756 11.283,-1.983l1.299,-0l0,-1.709c0,-1.278 -0.022,-2.03 -0.068,-2.257c-0.228,-1.459 -0.82,-2.69 -1.779,-3.692c-0.957,-1.003 -2.119,-1.528 -3.487,-1.574Zm4.582,13.744c-8.16,0.273 -12.24,1.642 -12.24,4.104c-0,0.957 0.456,1.868 1.368,2.734c0.911,0.866 2.37,1.323 4.376,1.369c3.465,-0 5.767,-1.323 6.906,-3.966c0.228,-0.593 0.342,-1.552 0.342,-2.872l0,-1.369l-0.752,0Z" style="fill:#ff7faf;fill-rule:nonzero;stroke:#1e3a5f;stroke-width:1.42px;stroke-linecap:butt;stroke-linejoin:miter;stroke-miterlimit:4;"/>
    <path d="M1854.11,90.766c3.009,-3.009 6.404,-4.512 10.189,-4.512l0.478,-0l0,5.607l-0.683,0c-2.508,0.182 -4.719,1.026 -6.633,2.529c-1.915,1.505 -3.123,3.511 -3.624,6.018c-0.092,0.41 -0.161,3.351 -0.205,8.822l-0,8.136l-6.155,0l0,-30.771l5.812,0l-0,4.993l0.821,-0.822Z" style="fill:#ff7faf;fill-rule:nonzero;stroke:#1e3a5f;stroke-width:1.42px;stroke-linecap:butt;stroke-linejoin:miter;stroke-miterlimit:4;"/>
    </g>
  <g>
        <path d="M1873.25,88.032c-1.23,0 -2.211,-0.411 -2.94,-1.232c-0.728,-0.82 -1.094,-1.823 -1.094,-3.008c0,-3.237 1.208,-6.04 3.624,-8.41c2.416,-2.37 5.425,-3.556 9.027,-3.556c4.148,-0 7.612,1.276 10.393,3.829c2.78,2.553 4.193,5.857 4.239,9.915c0,1.96 -0.456,3.829 -1.366,5.606c-0.913,1.779 -2.006,3.329 -3.283,4.651c-1.276,1.321 -3.101,3.009 -5.471,5.059c-1.64,1.413 -3.919,3.512 -6.838,6.292l-4.034,3.829l5.196,0.068c7.158,-0 10.964,-0.115 11.421,-0.342c0.317,-0.09 0.866,-2.12 1.64,-6.086l-0,-0.205l2.735,0l0,0.205c-0.046,0.137 -0.341,2.211 -0.888,6.223c-0.547,4.012 -0.89,6.108 -1.027,6.291l0,0.205l-25.368,0l0,-2.12c0,-0.318 0.137,-0.66 0.41,-1.025c0.273,-0.364 0.957,-1.162 2.052,-2.394c1.323,-1.458 2.462,-2.734 3.419,-3.829c0.41,-0.455 1.184,-1.299 2.324,-2.529c1.14,-1.232 1.915,-2.074 2.325,-2.531c0.41,-0.456 1.072,-1.208 1.984,-2.257c0.911,-1.047 1.55,-1.823 1.914,-2.323c0.365,-0.503 0.89,-1.186 1.573,-2.052c0.684,-0.867 1.162,-1.596 1.436,-2.189c0.273,-0.593 0.615,-1.253 1.025,-1.982c0.412,-0.73 0.707,-1.459 0.89,-2.189c0.181,-0.73 0.342,-1.413 0.478,-2.052c0.137,-0.637 0.205,-1.389 0.205,-2.255c0,-2.873 -0.775,-5.357 -2.325,-7.454c-1.55,-2.098 -3.761,-3.145 -6.633,-3.145c-1.504,-0 -2.826,0.388 -3.966,1.162c-1.139,0.775 -1.937,1.527 -2.393,2.257c-0.455,0.729 -0.684,1.162 -0.684,1.298c0,0.047 0.115,0.069 0.342,0.069c0.822,-0 1.664,0.319 2.53,0.957c0.867,0.639 1.299,1.688 1.299,3.145c-0,1.14 -0.364,2.098 -1.094,2.872c-0.729,0.776 -1.754,1.186 -3.077,1.232Z" style="fill:#ff7faf;fill-rule:nonzero;stroke:#1e3a5f;stroke-width:1.42px;stroke-linecap:butt;stroke-linejoin:miter;stroke-miterlimit:4;"/>
    </g>
  <path d="M24.755,359.476c-0,1.415 1.49,2.242 4.47,2.478c1.165,-0 1.748,0.324 1.748,0.973c-0,0.059 -0.064,0.441 -0.194,1.15c-0.194,0.826 -0.389,1.357 -0.582,1.593c-0.195,0.236 -0.617,0.354 -1.265,0.354l-1.165,-0c-0.647,-0 -1.748,-0.03 -3.303,-0.089c-1.554,-0.058 -3.627,-0.087 -6.217,-0.087c-4.598,-0 -7.546,0.058 -8.841,0.176l-0.777,-0c-0.455,-0.414 -0.68,-0.737 -0.68,-0.974c0.13,-1.593 0.55,-2.625 1.262,-3.096l1.36,-0c4.533,-0.178 7.838,-1.653 9.911,-4.426c0.387,-0.353 6.25,-9.349 17.583,-26.988c11.335,-17.638 17.098,-26.576 17.293,-26.812c0.453,-0.707 1.23,-1.061 2.332,-1.061l2.428,0c0.39,0.53 0.583,0.826 0.583,0.884l2.72,28.582c1.815,19.054 2.785,28.671 2.915,28.847c0.325,0.649 2.43,0.974 6.315,0.974c1.62,-0 2.43,0.295 2.43,0.885c-0,0.118 -0.097,0.529 -0.292,1.238c-0.195,0.885 -0.356,1.415 -0.486,1.593c-0.129,0.178 -0.582,0.295 -1.36,0.354l-1.36,-0c-0.712,-0 -1.975,-0.03 -3.789,-0.089c-1.813,-0.058 -4.178,-0.087 -7.093,-0.087c-6.088,-0 -10.071,0.058 -11.948,0.176l-1.167,-0c-0.388,-0.354 -0.583,-0.619 -0.583,-0.797c-0,-0.177 0.065,-0.707 0.195,-1.592c0.259,-0.767 0.453,-1.239 0.582,-1.417l0.39,-0.264l1.943,-0c3.497,-0.178 5.57,-0.679 6.217,-1.506l-1.167,-13.272l-23.121,-0l-3.303,5.132c-2.655,4.07 -3.984,6.459 -3.984,7.168Zm29.923,-16.459c0,-0.649 -0.388,-5.251 -1.165,-13.804c-0.778,-8.554 -1.23,-12.861 -1.36,-12.919l-2.623,3.805c-1.037,1.592 -3.077,4.748 -6.122,9.467l-8.743,13.451l10.007,0.089c6.671,-0 10.006,-0.029 10.006,-0.089Z" style="fill:#8dcc33;fill-rule:nonzero;stroke:#1e3a5f;stroke-width:1.96px;stroke-linecap:butt;stroke-linejoin:miter;stroke-miterlimit:4;"/>
  <path d="M1822.47,306.92c-1.837,0 -2.926,-0.031 -3.266,-0.092c-0.34,-0.063 -0.511,-0.405 -0.511,-1.025c0,-1.678 0.375,-2.705 1.123,-3.077c0.068,-0.062 4.49,-0.093 13.268,-0.093c17.619,0 26.905,0.062 27.859,0.186c4.285,0.621 7.858,2.02 10.715,4.195c2.856,2.175 4.319,5.034 4.387,8.576c0,3.978 -1.973,7.552 -5.918,10.721c-3.946,3.17 -8.47,5.314 -13.572,6.433l-1.022,0.279c4.356,0.56 7.927,1.989 10.715,4.289c2.79,2.299 4.219,5.158 4.287,8.577c0,4.536 -2.448,8.917 -7.347,13.145c-4.899,4.225 -10.92,6.617 -18.064,7.177c-0.475,0.062 -7.653,0.093 -21.532,0.093c-13.606,-0 -20.512,-0.062 -20.715,-0.186c-0.272,-0.187 -0.409,-0.434 -0.409,-0.745c0,-0.436 0.069,-0.872 0.204,-1.306c0.341,-1.181 0.681,-1.833 1.021,-1.958c0.272,-0.061 0.783,-0.092 1.531,-0.092l0.612,-0c1.837,-0 3.877,-0.094 6.122,-0.28c0.953,-0.187 1.599,-0.561 1.939,-1.12c0.205,-0.247 2.654,-8.886 7.347,-25.916c4.696,-17.028 7.043,-26.009 7.043,-26.942c0,-0.434 -1.939,-0.714 -5.817,-0.839Zm42.656,8.67c-0,-1.864 -0.51,-3.604 -1.53,-5.22c-1.021,-1.616 -2.687,-2.672 -5.001,-3.17c-0.477,-0.124 -3.605,-0.217 -9.389,-0.28l-4.285,0c-1.497,0 -2.688,0.033 -3.573,0.094l-1.326,0c-1.02,0.062 -1.667,0.373 -1.939,0.933c-0.135,0.248 -1.225,3.976 -3.265,11.187c-0,0.186 -0.034,0.372 -0.103,0.558l-3.162,11.747l8.266,0c5.51,0 8.673,-0.063 9.49,-0.186c4.082,-0.622 7.721,-2.425 10.92,-5.408c3.196,-2.983 4.83,-6.401 4.897,-10.255Zm-5.511,29.366c0,-2.734 -0.782,-5.003 -2.346,-6.805c-1.565,-1.803 -3.607,-2.859 -6.124,-3.17c-0.408,-0.061 -3.231,-0.094 -8.469,-0.094c-8.029,0 -12.077,0.033 -12.143,0.094c-0,0.125 -0.58,2.392 -1.736,6.806c-1.157,4.411 -2.348,8.794 -3.571,13.144l-1.837,6.525c-0,0.25 0.408,0.373 1.223,0.373c0.817,-0 3.573,0.063 8.267,0.188c6.055,-0 9.32,-0.033 9.797,-0.094c4.218,-0.436 8.095,-2.237 11.634,-5.408c3.537,-3.17 5.305,-7.022 5.305,-11.559Z" style="fill:#8dcc33;fill-rule:nonzero;stroke:#1e3a5f;stroke-width:2.07px;stroke-linecap:butt;stroke-linejoin:miter;stroke-miterlimit:4;"/>
  <path d="M693.099,408.827c-0,-6.729 2.1,-13.195 6.303,-19.397c4.201,-6.201 9.5,-11.116 15.897,-14.744c6.395,-3.627 12.792,-5.471 19.19,-5.529c5.643,0 10.127,1.492 13.45,4.477c0.565,0.584 1.035,1.081 1.411,1.491c0.376,0.41 0.627,0.703 0.754,0.877l0.094,0.265c0.188,-0 1.033,-0.762 2.539,-2.283c0.439,-0.35 0.909,-0.76 1.411,-1.228c0.502,-0.469 1.003,-0.937 1.505,-1.405c0.501,-0.468 0.815,-0.789 0.94,-0.965l1.411,-1.316l0.566,0c0.877,0 1.316,0.203 1.316,0.613c-0,0.235 -1.003,4.243 -3.009,12.024c-2.259,8.133 -3.387,12.229 -3.387,12.287c-0.126,0.294 -0.283,0.468 -0.471,0.526c-0.188,0.06 -0.752,0.118 -1.694,0.176l-1.505,0c-0.376,-0.35 -0.564,-0.613 -0.564,-0.789c0,-0.058 0.033,-0.263 0.094,-0.615c0.063,-0.351 0.127,-0.937 0.188,-1.755c0.063,-0.819 0.094,-1.755 0.094,-2.809c0,-4.154 -1.003,-7.781 -3.009,-10.882c-2.007,-3.102 -5.425,-4.68 -10.253,-4.74c-1.632,-0 -3.387,0.205 -5.268,0.615c-1.881,0.41 -4.14,1.112 -6.773,2.107c-2.635,0.994 -5.237,2.633 -7.808,4.914c-2.57,2.282 -4.86,5.003 -6.867,8.162c-2.006,3.335 -3.606,7.226 -4.797,11.673c-1.192,4.446 -1.787,8.074 -1.787,10.883c0,6.67 2.382,11.468 7.149,14.393c3.009,1.989 6.71,2.983 11.099,2.983c5.707,0 10.787,-1.989 15.24,-5.968c4.452,-3.978 7.4,-8.307 8.842,-12.989c0.251,-0.76 0.439,-1.199 0.564,-1.316c0.126,-0.118 0.627,-0.176 1.505,-0.176c1.254,0 1.881,0.264 1.881,0.79c0,0.294 -0.031,0.557 -0.094,0.791c-1.818,6.26 -5.707,11.642 -11.665,16.148c-5.956,4.506 -12.353,6.758 -19.189,6.758c-7.086,-0 -13.075,-2.194 -17.967,-6.582c-4.891,-4.389 -7.336,-10.211 -7.336,-17.465Z" style="fill:#8dcc33;fill-rule:nonzero;stroke:#1e3a5f;stroke-width:1.93px;stroke-linecap:butt;stroke-linejoin:miter;stroke-miterlimit:4;"/>
  <path d="M1498.25,219.083l-61.036,21.236l15.605,-20.888l-15.605,-21.585l61.036,21.237Z" style="fill:#0dcaf2;"/>
  <path d="M130.967,219.1l1327.11,-0" style="fill:none;stroke:#0dcaf2;stroke-width:10.68px;"/>
  <circle cx="726.482" cy="334.371" r="19.977" style="fill:#ff5151;"/>
  <circle cx="1498.28" cy="334.371" r="19.977" style="fill:#ff5151;"/>
  <g>
        <g>
            <g>
                <g>
                    <path d="M1485.13,374.527c-0,-0.432 -1.903,-0.71 -5.714,-0.833c-1.536,-0 -2.539,-0.031 -3.007,-0.093c-0.468,-0.061 -0.7,-0.34 -0.7,-0.832c-0,-0.494 0.133,-1.11 0.399,-1.852c0.269,-0.74 0.503,-1.203 0.703,-1.387c0.133,-0.062 6.783,-0.093 19.946,-0.093c11.161,0.062 17.409,0.093 18.746,0.093c1.336,-0 2.672,0.184 4.01,0.555c4.811,1.049 8.886,3.486 12.228,7.311c3.341,3.826 5.046,8.947 5.113,15.363c-0,9.624 -3.576,18.261 -10.725,25.913c-7.151,7.649 -15.571,12.216 -25.261,13.696l-1.404,0.186l-19.446,0.093l-16.439,-0c-1.604,-0 -2.64,-0.062 -3.108,-0.187c-0.466,-0.123 -0.735,-0.4 -0.801,-0.832c-0,-0.123 0.1,-0.555 0.3,-1.295c0.267,-0.988 0.535,-1.543 0.802,-1.666c0.268,-0.125 1.037,-0.217 2.306,-0.278c1.805,-0 3.809,-0.093 6.015,-0.277c0.934,-0.186 1.57,-0.555 1.903,-1.111c0.202,-0.248 2.608,-8.823 7.217,-25.728c4.612,-16.906 6.917,-25.821 6.917,-26.746Zm41.699,14.715c0,-2.344 -0.367,-4.442 -1.102,-6.293c-0.735,-1.852 -1.604,-3.301 -2.606,-4.35c-1.003,-1.049 -2.24,-1.944 -3.709,-2.684c-1.469,-0.74 -2.773,-1.234 -3.909,-1.48c-1.137,-0.248 -2.305,-0.463 -3.508,-0.649l-4.311,-0c-1.136,-0 -2.238,-0.031 -3.308,-0.092l-4.311,-0c-2.939,-0 -4.61,0.309 -5.011,0.926c-0.134,0.246 -2.574,9.131 -7.318,26.653c-4.744,17.522 -7.117,26.376 -7.117,26.56c0,0.248 0.368,0.371 1.104,0.371c0.735,0 3.308,0.031 7.718,0.092l1.903,0c0.937,0 1.738,0.031 2.406,0.093c8.42,-0 15.371,-2.529 20.85,-7.588c2.406,-2.222 4.378,-4.814 5.914,-7.775c1.538,-2.961 2.975,-6.879 4.311,-11.753c1.336,-4.875 2.004,-8.885 2.004,-12.031Z" style="fill:#8dcc33;fill-rule:nonzero;stroke:#1e3a5f;stroke-width:2.37px;stroke-linecap:butt;stroke-linejoin:miter;stroke-miterlimit:4;"/>
                </g>
            </g>
        </g>
    </g>
  <path d="M726.815,94.951l61.034,-21.237l-15.603,21.585l15.603,20.888l-61.034,-21.236Z" style="fill:#ff7faf;"/>
  <path d="M1766.77,94.968l-1003.09,-0" style="fill:none;stroke:#ff7faf;stroke-width:10.68px;"/>
  <path d="M1781.58,369.796l-0,-70.541" style="fill:none;stroke:#8dcc33;stroke-width:21.36px;"/>
  <path d="M94.886,367.811l-0,-66.628" style="fill:none;stroke:#8dcc33;stroke-width:21.36px;"/>
  <g>
        <path d="M1140.45,52.049c2.662,-0 5.098,-1.173 7.307,-3.519c2.211,-2.345 3.339,-5.074 3.383,-8.187c0,-2.842 -1.172,-4.805 -3.518,-5.887c-4.782,-1.218 -7.849,-2.053 -9.202,-2.504c-1.354,-0.451 -2.3,-0.903 -2.842,-1.354c-2.706,-1.895 -4.06,-4.623 -4.06,-8.187c0,-2.751 0.722,-5.254 2.165,-7.51c1.444,-2.257 2.91,-3.949 4.398,-5.076c1.309,-1.128 2.888,-2.03 4.737,-2.707c1.85,-0.676 3.294,-1.037 4.331,-1.081l1.218,-0c4.33,-0 7.465,1.444 9.405,4.329c0.046,0 0.338,-0.292 0.88,-0.88c0.541,-0.586 1.127,-1.24 1.759,-1.961c0.631,-0.723 1.082,-1.218 1.354,-1.488l0.27,-0c0.135,-0 0.247,-0.024 0.338,-0.069c0.588,0 0.88,0.158 0.88,0.474c-0,0.316 -0.631,3.044 -1.895,8.187c-1.263,5.143 -1.984,7.806 -2.165,7.985c-0.181,0.181 -0.541,0.248 -1.083,0.203c-0.902,0 -1.353,-0.203 -1.353,-0.608c-0,-0.272 0.024,-0.497 0.068,-0.677c0,-0.136 0.022,-0.564 0.068,-1.286c0.045,-0.721 0.089,-1.309 0.135,-1.76c0,-1.533 -0.203,-2.864 -0.61,-3.992c-0.405,-1.127 -0.811,-1.963 -1.218,-2.503c-0.405,-0.541 -0.969,-1.105 -1.691,-1.691c-1.624,-0.948 -3.474,-1.422 -5.548,-1.422c-2.572,0 -4.962,1.037 -7.173,3.113c-2.209,2.075 -3.339,4.465 -3.383,7.171c-0,1.355 0.338,2.528 1.015,3.52c0.676,0.993 1.601,1.692 2.774,2.097c0.18,0.09 1.759,0.519 4.737,1.286c2.976,0.768 4.488,1.172 4.533,1.219c1.534,0.495 3.022,1.578 4.466,3.248c1.444,1.667 2.165,3.924 2.165,6.766c0,1.172 -0.179,2.436 -0.54,3.79c-0.225,0.991 -0.632,2.096 -1.218,3.314c-0.588,1.219 -1.4,2.55 -2.437,3.993c-1.037,1.443 -2.525,2.796 -4.466,4.06c-1.939,1.263 -4.06,2.121 -6.36,2.572c-0.541,0.089 -1.308,0.135 -2.301,0.135c-4.466,-0 -7.938,-1.241 -10.421,-3.722l-0.677,-0.745l-1.893,2.098c-1.039,1.219 -1.669,1.918 -1.895,2.097c-0.225,0.181 -0.519,0.272 -0.88,0.272c-0.586,-0 -0.88,-0.181 -0.88,-0.542c0,-0.135 1.309,-5.435 3.925,-15.901c0.091,-0.271 0.542,-0.406 1.353,-0.406l0.88,-0c0.27,0.27 0.405,0.519 0.405,0.745c0,0.089 -0.022,0.292 -0.066,0.608c-0.047,0.316 -0.135,0.789 -0.272,1.422c-0.135,0.63 -0.179,1.375 -0.135,2.231c0.091,1.76 0.497,3.248 1.218,4.466c0.721,1.219 1.692,2.121 2.91,2.707c1.218,0.586 2.39,0.993 3.518,1.218c1.128,0.226 2.324,0.339 3.587,0.339Z" style="fill:#ff7faf;fill-rule:nonzero;stroke:#1e3a5f;stroke-width:1.42px;stroke-linecap:butt;stroke-linejoin:miter;stroke-miterlimit:4;"/>
    </g>
  <g>
        <path d="M1183.57,36.756c-0,-1.083 0.383,-2.03 1.15,-2.841c0.767,-0.812 1.736,-1.218 2.91,-1.218c1.081,-0 2.029,0.36 2.841,1.083c0.812,0.721 1.241,1.691 1.287,2.908c-0,1.128 -0.385,2.098 -1.152,2.91c-0.767,0.813 -1.736,1.218 -2.91,1.218c-1.172,-0 -2.142,-0.383 -2.908,-1.15c-0.767,-0.767 -1.174,-1.738 -1.218,-2.91Z" style="fill:#ff7faf;fill-rule:nonzero;stroke:#1e3a5f;stroke-width:1.42px;stroke-linecap:butt;stroke-linejoin:miter;stroke-miterlimit:4;"/>
    </g>
  <g>
        <path d="M1226.55,14.563l-0.88,0.338c-0.631,0.226 -1.533,0.451 -2.707,0.677c-1.172,0.225 -2.481,0.382 -3.925,0.473l-1.284,0l-0,-3.113l1.284,-0c2.121,-0.091 4.082,-0.429 5.888,-1.015c1.805,-0.586 3.067,-1.128 3.788,-1.623c0.723,-0.497 1.354,-0.993 1.895,-1.49c0.091,-0.135 0.361,-0.202 0.812,-0.202c0.407,0 0.789,0.135 1.151,0.405l0,20.232l0.067,20.3c0.316,0.316 0.586,0.518 0.812,0.609c0.225,0.09 0.767,0.181 1.625,0.271c0.856,0.089 2.255,0.135 4.194,0.135l1.76,0l0,3.113l-0.745,0c-0.946,-0.136 -4.533,-0.203 -10.759,-0.203c-6.134,0 -9.676,0.067 -10.623,0.203l-0.811,0l-0,-3.113l4.329,0c0.723,0 1.287,-0.022 1.692,-0.068c0.407,-0.044 0.767,-0.113 1.083,-0.203c0.316,-0.089 0.496,-0.135 0.542,-0.135c0.044,-0 0.179,-0.113 0.405,-0.339c0.225,-0.225 0.362,-0.316 0.407,-0.27l-0,-34.982Z" style="fill:#ff7faf;fill-rule:nonzero;stroke:#1e3a5f;stroke-width:1.42px;stroke-linecap:butt;stroke-linejoin:miter;stroke-miterlimit:4;"/>
    <path d="M1252.46,14.088c2.525,-3.653 5.977,-5.48 10.353,-5.48c2.165,0 4.329,0.586 6.496,1.758c2.165,1.174 3.923,3.249 5.278,6.227c1.668,3.743 2.503,8.886 2.503,15.427c0,6.992 -0.97,12.338 -2.91,16.037c-0.902,1.893 -2.142,3.405 -3.721,4.533c-1.579,1.128 -2.956,1.827 -4.128,2.098c-1.172,0.27 -2.324,0.428 -3.452,0.474c-1.172,-0 -2.346,-0.135 -3.518,-0.407c-1.172,-0.27 -2.549,-0.993 -4.128,-2.165c-1.579,-1.172 -2.819,-2.684 -3.721,-4.533c-1.939,-3.699 -2.91,-9.045 -2.91,-16.037c-0,-7.85 1.287,-13.826 3.858,-17.932Zm15.224,-0.812c-1.353,-1.444 -2.954,-2.165 -4.805,-2.165c-1.895,0 -3.518,0.721 -4.871,2.165c-1.128,1.174 -1.873,2.797 -2.233,4.872c-0.361,2.076 -0.542,6.405 -0.542,12.992c0,7.127 0.181,11.819 0.542,14.074c0.36,2.255 1.174,4.038 2.436,5.346c1.263,1.354 2.82,2.03 4.668,2.03c1.805,0 3.339,-0.676 4.602,-2.03c1.308,-1.353 2.12,-3.248 2.436,-5.684c0.316,-2.435 0.496,-7.014 0.542,-13.736c-0,-6.541 -0.181,-10.848 -0.542,-12.924c-0.36,-2.074 -1.105,-3.722 -2.233,-4.94Z" style="fill:#ff7faf;fill-rule:nonzero;stroke:#1e3a5f;stroke-width:1.42px;stroke-linecap:butt;stroke-linejoin:miter;stroke-miterlimit:4;"/>
    </g>
  <g>
        <path d="M1311.27,12.735c-1.669,-0 -3.27,-0.204 -4.805,-0.609c-1.534,-0.406 -2.751,-0.811 -3.653,-1.218c-0.902,-0.407 -1.377,-0.608 -1.421,-0.608c0.586,1.488 0.88,3.586 0.88,6.293c-0,4.059 -0.88,7.33 -2.64,9.811c-1.758,2.481 -3.812,3.743 -6.156,3.789c-2.572,0 -4.851,-1.24 -6.835,-3.721c-1.985,-2.483 -3,-5.775 -3.045,-9.879c0,-4.016 1.015,-7.286 3.045,-9.813c2.03,-2.525 4.308,-3.812 6.835,-3.856c1.758,-0 3.337,0.698 4.736,2.098c3.925,3.473 8.254,5.209 12.991,5.209c5.233,0 9.428,-2.029 12.585,-6.089c0.542,-0.723 0.949,-1.106 1.219,-1.15c0.09,-0.046 0.203,-0.068 0.338,-0.068c0.407,-0 0.745,0.157 1.015,0.473c0.272,0.316 0.384,0.699 0.338,1.15c-23.232,34.871 -35.028,52.419 -35.389,52.645c-0.179,0.179 -0.405,0.269 -0.677,0.269c-0.586,0 -0.992,-0.247 -1.218,-0.743c-0.225,-0.406 -0.225,-0.813 0,-1.218c0.046,-0.135 5.03,-7.602 14.954,-22.397c4.783,-7.128 8.437,-12.586 10.963,-16.375c2.525,-3.79 3.789,-5.685 3.789,-5.685c-2.392,1.128 -5.008,1.692 -7.849,1.692Zm-17.457,14.887c1.263,-0 2.525,-0.948 3.788,-2.843c1.263,-1.893 1.917,-4.624 1.963,-8.186c0,-3.113 -0.564,-5.729 -1.691,-7.85c-1.128,-2.12 -2.64,-3.203 -4.535,-3.248c-0.316,0 -0.631,0.067 -0.947,0.203c-0.316,0.135 -0.745,0.383 -1.286,0.744c-0.54,0.36 -0.991,1.039 -1.354,2.03c-0.36,0.992 -0.652,2.188 -0.878,3.586c-0.09,0.902 -0.136,2.414 -0.136,4.535l-0,1.42c-0,4.105 0.745,6.902 2.233,8.391c0.811,0.811 1.669,1.218 2.571,1.218l0.272,-0Zm19.825,16.172c0,-3.971 0.993,-7.219 2.977,-9.744c1.985,-2.527 4.309,-3.812 6.969,-3.857c2.346,0 4.376,1.241 6.091,3.722c1.714,2.481 2.594,5.773 2.639,9.879c0.046,4.104 -0.834,7.397 -2.639,9.879c-1.804,2.481 -3.858,3.744 -6.158,3.788c-2.527,0 -4.804,-1.262 -6.834,-3.788c-2.03,-2.527 -3.045,-5.819 -3.045,-9.879Zm10.218,11.096c1.262,-0 2.525,-0.947 3.79,-2.841c1.262,-1.895 1.917,-4.646 1.961,-8.255c0,-3.113 -0.564,-5.729 -1.692,-7.849c-1.127,-2.121 -2.638,-3.18 -4.533,-3.18c-0.316,-0 -0.632,0.067 -0.948,0.202c-0.316,0.136 -0.743,0.384 -1.285,0.744c-0.541,0.361 -0.992,1.038 -1.353,2.03c-0.36,0.993 -0.654,2.187 -0.88,3.587c-0.044,0.541 -0.068,2.03 -0.068,4.466l-0,1.488c-0,6.406 1.579,9.608 4.736,9.608l0.272,-0Z" style="fill:#ff7faf;fill-rule:nonzero;stroke:#1e3a5f;stroke-width:1.42px;stroke-linecap:butt;stroke-linejoin:miter;stroke-miterlimit:4;"/>
    </g>
  <g>
        <g>
            <path d="M1364.79,2.924c0.407,-0 0.745,0.135 1.015,0.406c0.272,0.27 0.407,0.586 0.407,0.947c-0,0.225 -3.903,11.097 -11.706,32.614c-7.805,21.519 -11.843,32.526 -12.113,33.021c-0.316,0.451 -0.699,0.677 -1.15,0.677c-0.316,-0 -0.61,-0.113 -0.88,-0.338c-0.271,-0.226 -0.406,-0.542 -0.406,-0.947c-0,-0.451 3.924,-11.458 11.774,-33.021c7.849,-21.563 11.841,-32.457 11.977,-32.683c0.18,-0.451 0.54,-0.676 1.082,-0.676Z" style="fill:#ff7faf;fill-rule:nonzero;stroke:#1e3a5f;stroke-width:1.42px;stroke-linecap:butt;stroke-linejoin:miter;stroke-miterlimit:4;"/>
        </g>
    </g>
  <g>
        <path d="M1379.27,7.457c0.044,-0 1.669,-0.113 4.871,-0.339c3.204,-0.225 4.851,-0.36 4.94,-0.405c0.541,0 0.813,0.202 0.813,0.609c-0,0.497 -0.813,3.902 -2.437,10.217c-1.713,6.676 -2.571,10.083 -2.571,10.218c-0,0.09 0.157,-0.022 0.473,-0.338c2.753,-2.437 5.685,-3.655 8.798,-3.655c2.435,-0 4.398,0.61 5.886,1.828c1.488,1.218 2.256,2.999 2.3,5.345c-0,2.301 -0.856,5.864 -2.57,10.691c-1.715,4.826 -2.571,7.714 -2.571,8.661c0.044,0.632 0.157,1.061 0.338,1.286c0.179,0.226 0.518,0.339 1.015,0.339c1.263,-0 2.435,-0.677 3.518,-2.03c1.083,-1.354 1.962,-3.204 2.638,-5.55c0.137,-0.495 0.272,-0.789 0.407,-0.878c0.135,-0.091 0.495,-0.137 1.083,-0.137c0.902,0 1.353,0.181 1.353,0.542c0,0.046 -0.09,0.384 -0.271,1.015c-0.721,2.662 -1.871,4.849 -3.45,6.564c-1.534,1.94 -3.361,2.91 -5.481,2.91l-0.339,0c-2.12,0 -3.654,-0.61 -4.601,-1.828c-0.948,-1.217 -1.422,-2.503 -1.422,-3.857c0,-0.721 0.812,-3.383 2.437,-7.984c1.623,-4.601 2.459,-8.053 2.503,-10.353c0,-2.662 -0.993,-3.993 -2.976,-3.993l-0.339,0c-3.745,0 -6.993,2.211 -9.744,6.632l-0.473,0.879l-2.302,9.135c-1.444,5.866 -2.277,9.068 -2.503,9.609c-0.586,1.218 -1.579,1.827 -2.976,1.827c-0.633,-0 -1.174,-0.204 -1.625,-0.609c-0.451,-0.406 -0.699,-0.811 -0.745,-1.218c-0,-0.632 1.647,-7.489 4.939,-20.57l5.008,-20.029c0,-0.587 -0.157,-0.948 -0.473,-1.083c-0.316,-0.135 -1.196,-0.248 -2.64,-0.338l-1.42,-0c-0.271,-0.27 -0.406,-0.451 -0.406,-0.542c-0,-0.09 0.044,-0.518 0.135,-1.285c0.225,-0.858 0.519,-1.286 0.88,-1.286Z" style="fill:#ff7faf;fill-rule:nonzero;stroke:#1e3a5f;stroke-width:1.42px;stroke-linecap:butt;stroke-linejoin:miter;stroke-miterlimit:4;"/>
    </g>
</svg>
