<?xml version="1.0" encoding="UTF-8" standalone="no"?>
<!DOCTYPE svg PUBLIC "-//W3C//DTD SVG 1.1//EN" "http://www.w3.org/Graphics/SVG/1.1/DTD/svg11.dtd">
<svg width="356" height="210" viewBox="0 0 2142 1248" version="1.1" xmlns="http://www.w3.org/2000/svg" xmlns:xlink="http://www.w3.org/1999/xlink" xml:space="preserve" xmlns:serif="http://www.serif.com/" style="fill-rule:evenodd;clip-rule:evenodd;stroke-linecap:square;">
    <ellipse cx="1828.31" cy="967.984" rx="287.823" ry="99.089" style="fill:none;stroke:#9370db;stroke-width:12.5px;"/>
  <path d="M2114.23,968.245l-257.498,-0.024" style="fill:none;stroke:#8dcc33;stroke-width:8.33px;stroke-linecap:round;stroke-linejoin:round;stroke-miterlimit:1.5;stroke-dasharray:12.5,16.67,0,0,0,0;"/>
  <ellipse cx="1828.83" cy="968.231" rx="15.904" ry="8.649" style="fill:#ff0;"/>
  <path d="M1828.83,977.422c-0.063,-0.001 -7.209,0.21 -12.441,-3.155c-7.69,-4.945 -3.851,-12.888 7.623,-14.83c11.512,-1.948 23.224,3.437 20.988,10.494c-0.976,3.08 -4.711,4.927 -5.24,5.188c-4.915,2.43 -10.505,2.295 -10.93,2.303Zm0.001,-1.084c0.139,0.001 6.712,0.171 11.613,-2.832c7.5,-4.596 3.045,-11.453 -7.345,-13.059c-12.165,-1.88 -23.555,4.636 -18.35,10.996c1.725,2.108 4.899,3.274 5.379,3.45c4.128,1.517 8.192,1.435 8.701,1.445l0.002,-0Z" style="fill:#f33;"/>
  <g transform="matrix(100,0,0,100,851.34,1226.01)">
    </g>
  <text x="228.733px" y="1226.01px" style="font-family:'ArialMT', 'Arial', sans-serif;font-size:100px;fill:#1e3a5f;">Figure 12–1-1</text>
  <g transform="matrix(100,0,0,100,2138.6,1226.04)">
    </g>
  <text x="1515.99px" y="1226.04px" style="font-family:'ArialMT', 'Arial', sans-serif;font-size:100px;fill:#1e3a5f;">Figure 12–1-2</text>
  <path d="M1828.34,25.76l0.031,923.455" style="fill:none;stroke:#8dcc33;stroke-width:8.33px;stroke-linecap:round;stroke-linejoin:round;stroke-miterlimit:1.5;stroke-dasharray:12.5,16.67,0,0,0,0;"/>
  <path d="M1050.7,18.652l-1030.7,1030.62" style="fill:none;stroke:#8dcc33;stroke-width:8.33px;stroke-linecap:round;stroke-linejoin:round;stroke-miterlimit:1.5;stroke-dasharray:12.5,16.67,0,0,0,0;"/>
  <circle cx="863.297" cy="205.839" r="15.163" style="fill:#ff0;"/>
  <path d="M863.297,222.81c-0.094,-0.002 -7.419,0.379 -12.83,-5.867c-7.789,-8.99 -4.086,-22.983 6.996,-27.044c11.682,-4.28 23.987,5.172 22.716,17.672c-0.519,5.108 -3.199,8.688 -5.176,10.55c-4.993,4.704 -10.425,4.656 -11.706,4.689Zm-0.005,-3.61l-0,-0.006c12.091,-0.229 17.474,-14.086 9.78,-22.45c-6.114,-6.646 -17.522,-5.457 -21.814,3.309c-3.876,7.915 1.106,18.038 10.672,19.072c0.681,0.074 0.681,0.049 1.362,0.075Z" style="fill:#f33;"/>
  <path d="M1828.32,25.825l-287.834,942.188" style="fill:none;stroke:#9370db;stroke-width:12.5px;stroke-linecap:round;stroke-linejoin:round;stroke-miterlimit:1.5;"/>
  <path d="M1828.32,25.825l287.812,942.193" style="fill:none;stroke:#9370db;stroke-width:12.5px;stroke-linecap:round;stroke-linejoin:round;stroke-miterlimit:1.5;"/>
  <rect x="6.57" y="6.25" width="1056.49" height="1056.49" style="fill:none;stroke:#9370db;stroke-width:12.5px;stroke-linecap:round;stroke-linejoin:round;stroke-miterlimit:1.5;"/>
  <path d="M6.25,100.443c0,-0 962.639,-94.193 962.639,961.862" style="fill:none;stroke:#9370db;stroke-width:12.5px;stroke-linecap:round;stroke-linejoin:round;stroke-miterlimit:1.5;"/>
  <circle cx="863.297" cy="205.841" r="199.486" style="fill:none;stroke:#9370db;stroke-width:12.5px;stroke-linecap:round;stroke-linejoin:round;"/>
</svg>
