<?xml version="1.0" encoding="UTF-8" standalone="no"?>
<!DOCTYPE svg PUBLIC "-//W3C//DTD SVG 1.1//EN" "http://www.w3.org/Graphics/SVG/1.1/DTD/svg11.dtd">
<svg width="190" height="170" viewBox="0 0 446 370" version="1.1" xmlns="http://www.w3.org/2000/svg" xmlns:xlink="http://www.w3.org/1999/xlink" xml:space="preserve" xmlns:serif="http://www.serif.com/" style="fill-rule:evenodd;clip-rule:evenodd;stroke-linecap:round;stroke-linejoin:round;stroke-miterlimit:1.5;">
    <path d="M408.587,31.971l-120.409,120.409" style="fill:none;stroke:#8dcc33;stroke-width:6.25px;"/>
  <path d="M221.327,219.231l-118.849,118.849" style="fill:none;stroke:#8dcc33;stroke-width:6.25px;"/>
  <path d="M222.207,151.677l-119.725,-119.725" style="fill:none;stroke:#8dcc33;stroke-width:6.25px;"/>
  <path d="M408.59,338.06l-119.598,-119.597" style="fill:none;stroke:#8dcc33;stroke-width:6.25px;"/>
  <g transform="matrix(45.8333,0,0,45.8333,90.5608,33.5763)">
    </g>
  <text x="-1.173px" y="33.576px" style="font-family:'ArialMT', 'Arial', sans-serif;font-size:45.833px;fill:#8dcc33;stroke:#1e3a5f;stroke-width:0.42px;stroke-linecap:butt;stroke-miterlimit:2;">30%</text>
  <g transform="matrix(45.8333,0,0,45.8333,90.5582,368.513)">
    </g>
  <text x="-1.176px" y="368.513px" style="font-family:'ArialMT', 'Arial', sans-serif;font-size:45.833px;fill:#8dcc33;stroke:#1e3a5f;stroke-width:0.42px;stroke-linecap:butt;stroke-miterlimit:2;">20%</text>
  <g transform="matrix(45.8333,0,0,45.8333,447.498,33.911)">
    </g>
  <text x="422.007px" y="33.911px" style="font-family:'ArialMT', 'Arial', sans-serif;font-size:45.833px;fill:#8dcc33;stroke:#1e3a5f;stroke-width:0.42px;stroke-linecap:butt;stroke-miterlimit:2;">4</text>
  <g transform="matrix(45.8333,0,0,45.8333,446.357,368.628)">
    </g>
  <text x="420.867px" y="368.628px" style="font-family:'ArialMT', 'Arial', sans-serif;font-size:45.833px;fill:#8dcc33;stroke:#1e3a5f;stroke-width:0.42px;stroke-linecap:butt;stroke-miterlimit:2;">6</text>
  <g transform="matrix(45.8333,0,0,45.8333,301.555,201.3)">
    </g>
  <text x="209.821px" y="201.3px" style="font-family:'ArialMT', 'Arial', sans-serif;font-size:45.833px;fill:#8dcc33;stroke:#1e3a5f;stroke-width:0.42px;stroke-linecap:butt;stroke-miterlimit:2;">24%</text>
  <path d="M416.603,346.081l-13.808,-6.68l6.125,-0.886l1.003,-6.242l6.68,13.808Z" style="fill:#8dcc33;"/>
  <path d="M94.046,23.136l13.807,6.68l-6.241,1.004l-0.887,6.124l-6.679,-13.808Z" style="fill:#8dcc33;"/>
  <path d="M94.232,346.332l6.679,-13.808l0.887,6.125l6.242,1.003l-13.808,6.68Z" style="fill:#8dcc33;"/>
  <path d="M416.985,23.579l-6.679,13.807l-1.004,-6.241l-6.124,-0.887l13.807,-6.679Z" style="fill:#8dcc33;"/>
</svg>
