<?xml version="1.0" encoding="UTF-8" standalone="no"?>
<!DOCTYPE svg PUBLIC "-//W3C//DTD SVG 1.1//EN" "http://www.w3.org/Graphics/SVG/1.1/DTD/svg11.dtd">
<svg width="456" height="130" viewBox="0 0 1308 327" version="1.1" xmlns="http://www.w3.org/2000/svg" xmlns:xlink="http://www.w3.org/1999/xlink" xml:space="preserve" xmlns:serif="http://www.serif.com/" style="fill-rule:evenodd;clip-rule:evenodd;stroke-linecap:round;stroke-linejoin:round;stroke-miterlimit:1.5;">
    <path d="M997.958,257.537l0,-41.285" style="fill:none;stroke:#1e3a5f;stroke-width:12.5px;"/>
  <path d="M329.897,257.798l-0,-41.286" style="fill:none;stroke:#1e3a5f;stroke-width:12.5px;"/>
  <path d="M551.737,257.798l0,-41.286" style="fill:none;stroke:#1e3a5f;stroke-width:12.5px;"/>
  <path d="M219.121,255.628l-0,-38.995" style="fill:none;stroke:#1e3a5f;stroke-width:12.5px;"/>
  <path d="M220.035,70.815l388.434,0" style="fill:none;stroke:#8dcc33;stroke-width:12.5px;"/>
  <path d="M219.331,203.305l-0,-130.717" style="fill:none;stroke:#8dcc33;stroke-width:12.5px;"/>
  <path d="M615.309,260.326l380.314,0" style="fill:none;stroke:#90c;stroke-width:12.5px;stroke-linecap:square;"/>
  <path d="M223.419,260.326l380.314,0" style="fill:none;stroke:#90c;stroke-width:12.5px;stroke-linecap:square;"/>
  <path d="M8.839,260.326l205.953,0" style="fill:none;stroke:#90c;stroke-width:12.5px;stroke-linecap:square;"/>
  <path d="M1004.24,260.326l205.953,0" style="fill:none;stroke:#90c;stroke-width:12.5px;stroke-linecap:square;"/>
  <path d="M1244.19,260.496l-43.243,26.406l11.056,-26.84l-11.056,-25.973l43.243,26.407Z" style="fill:#f20d44;"/>
  <circle cx="218.913" cy="260.033" r="11.692" style="fill:#f20d44;"/>
  <circle cx="330.223" cy="260.792" r="11.692" style="fill:#f20d44;"/>
  <circle cx="552.063" cy="260.792" r="11.692" style="fill:#f20d44;"/>
  <circle cx="999.022" cy="260.337" r="11.692" style="fill:#f20d44;"/>
  <path d="M610.208,70.815l387.099,0" style="fill:none;stroke:#8dcc33;stroke-width:12.5px;"/>
  <path d="M997.91,203.305l-0,-130.717" style="fill:none;stroke:#8dcc33;stroke-width:12.5px;"/>
  <path d="M330.221,203.305l0,-130.717" style="fill:none;stroke:#0dcaf2;stroke-width:12.5px;"/>
  <path d="M552.062,203.305l-0,-130.717" style="fill:none;stroke:#0dcaf2;stroke-width:12.5px;"/>
  <g>
        <path id="MJX-18-NCM-N-35" d="M990.135,303.269c0.337,0 0.74,-0.269 1.076,-0.74c2.018,-3.026 4.774,-4.505 8.271,-4.505c2.353,0 4.169,1.345 5.379,4.102c0.74,1.815 1.143,4.572 1.143,8.271c0,4.236 -0.537,7.194 -1.546,8.943c-1.681,2.757 -3.967,4.169 -6.859,4.169c-4.505,-0 -8.069,-3.228 -9.279,-6.724c0.202,0.067 0.336,-0 0.605,-0c2.017,-0 3.698,-1.547 3.698,-3.564c0,-2.085 -1.681,-3.497 -3.698,-3.497c-2.353,0 -3.362,1.278 -3.362,3.766c0,6.724 5.447,12.439 12.171,12.439c4.101,0 7.598,-1.479 10.422,-4.437c2.824,-2.959 4.236,-6.523 4.236,-10.625c0,-3.9 -1.143,-7.262 -3.429,-10.153c-2.488,-3.161 -5.581,-4.707 -9.346,-4.707c-3.161,-0 -5.918,1.009 -8.137,3.026l0,-11.969c1.816,0.538 3.564,0.807 5.38,0.807c3.093,-0 5.782,-0.74 8.069,-2.287c2.084,-1.277 3.496,-2.555 4.303,-3.765c0.404,-0.538 0.605,-0.941 0.605,-1.143c0,-0.673 -0.336,-1.009 -1.008,-1.009c-3.699,1.412 -6.859,2.152 -9.414,2.152c-3.026,-0 -5.917,-0.605 -8.674,-1.883c-0.337,-0.134 -0.606,-0.202 -0.875,-0.202c-0.605,0 -0.941,0.606 -0.941,1.883l0,19.635c0,1.412 0,2.017 1.21,2.017Z" style="fill:#8dcc33;fill-rule:nonzero;stroke:#1e3a5f;stroke-width:1px;stroke-linecap:butt;stroke-miterlimit:2;"/>
    </g>
  <g>
        <g>
            <path id="MJX-19-NCM-I-1D465" d="M1307.75,242.783c0,-5.186 -5.077,-7.779 -10.718,-7.779c-4.852,0 -8.688,2.593 -11.622,7.779c-2.369,-5.186 -6.318,-7.779 -12.073,-7.779c-5.528,0 -10.042,2.593 -13.652,7.666c-3.046,4.397 -4.626,7.666 -4.626,9.808c-0,1.015 0.564,1.578 1.692,1.578c1.016,0 1.693,-0.563 1.918,-1.578c2.144,-6.539 6.883,-14.205 14.443,-14.205c3.723,0 5.528,2.368 5.528,6.99c0,2.367 -2.031,11.161 -5.98,26.267c-1.918,7.553 -5.303,11.274 -10.154,11.274c-1.58,-0 -3.047,-0.339 -4.288,-0.902c2.934,-1.128 4.401,-3.157 4.401,-6.088c-0,-2.931 -1.467,-4.397 -4.514,-4.397c-3.723,0 -6.544,3.157 -6.544,6.877c0,5.186 5.303,7.779 10.832,7.779c4.739,-0 8.575,-2.593 11.621,-7.779c2.144,5.186 6.206,7.779 12.073,7.779c5.416,-0 9.929,-2.593 13.54,-7.666c3.046,-4.397 4.626,-7.666 4.626,-9.808c-0,-1.015 -0.564,-1.578 -1.693,-1.578c-1.015,-0 -1.579,0.563 -1.918,1.578c-1.918,6.426 -6.995,14.205 -14.329,14.205c-3.724,-0 -5.642,-2.255 -5.642,-6.877c0,-1.466 0.564,-4.622 1.806,-9.695l3.836,-15.22c2.144,-8.455 5.641,-12.739 10.606,-12.739c1.579,0 3.046,0.339 4.287,0.902c-3.046,1.015 -4.513,3.044 -4.513,6.088c0,2.931 1.58,4.397 4.626,4.397c3.611,-0 6.431,-3.27 6.431,-6.877Z" style="fill:#90c;fill-rule:nonzero;"/>
        </g>
    </g>
  <g>
        <g>
            <path id="MJX-21-NCM-N-3C" d="M563.22,49.76c1.177,0.485 2.424,-0.415 2.424,-1.524c0,-0.693 -0.346,-1.178 -0.97,-1.455l-36.997,-17.459l36.997,-17.46c0.624,-0.277 0.97,-0.762 0.97,-1.385c0,-1.178 -0.554,-1.732 -1.662,-1.732c-0.277,-0 -0.555,0.069 -0.762,0.138l-39.769,18.845c-0.693,0.347 -1.039,0.832 -1.039,1.594c-0,0.762 0.346,1.247 1.039,1.593l39.769,18.845Z" style="fill:#8dcc33;fill-rule:nonzero;stroke:#1e3a5f;stroke-width:1px;stroke-linecap:butt;stroke-miterlimit:2;"/>
        </g>
    <g>
            <path id="MJX-21-NCM-N-3C1" serif:id="MJX-21-NCM-N-3C" d="M563.22,49.76c1.177,0.485 2.424,-0.415 2.424,-1.524c0,-0.693 -0.346,-1.178 -0.97,-1.455l-36.997,-17.459l36.997,-17.46c0.624,-0.277 0.97,-0.762 0.97,-1.385c0,-1.178 -0.554,-1.732 -1.662,-1.732c-0.277,-0 -0.555,0.069 -0.762,0.138l-39.769,18.845c-0.693,0.347 -1.039,0.832 -1.039,1.594c-0,0.762 0.346,1.247 1.039,1.593l39.769,18.845Z" style="fill:#8dcc33;fill-rule:nonzero;stroke:#1e3a5f;stroke-width:1px;stroke-linecap:butt;stroke-miterlimit:2;"/>
        </g>
    <g>
            <path id="MJX-21-NCM-N-3C2" serif:id="MJX-21-NCM-N-3C" d="M695.412,49.76c1.178,0.485 2.425,-0.415 2.425,-1.524c-0,-0.693 -0.346,-1.178 -0.97,-1.455l-36.997,-17.459l36.997,-17.46c0.624,-0.277 0.97,-0.762 0.97,-1.385c-0,-1.178 -0.554,-1.732 -1.663,-1.732c-0.277,-0 -0.554,0.069 -0.762,0.138l-39.769,18.845c-0.692,0.347 -1.039,0.832 -1.039,1.594c0,0.762 0.347,1.247 1.039,1.593l39.769,18.845Z" style="fill:#8dcc33;fill-rule:nonzero;stroke:#1e3a5f;stroke-width:1px;stroke-linecap:butt;stroke-miterlimit:2;"/>
        </g>
    <g>
            <path id="MJX-21-NCM-I-1D465" d="M626.739,20.8c-0,-3.187 -3.118,-4.781 -6.582,-4.781c-2.98,0 -5.335,1.594 -7.137,4.781c-1.455,-3.187 -3.879,-4.781 -7.413,-4.781c-3.395,0 -6.166,1.594 -8.383,4.712c-1.871,2.702 -2.841,4.711 -2.841,6.027c0,0.624 0.347,0.97 1.039,0.97c0.624,0 1.04,-0.346 1.178,-0.97c1.317,-4.018 4.227,-8.729 8.869,-8.729c2.286,-0 3.394,1.455 3.394,4.295c0,1.455 -1.247,6.859 -3.672,16.143c-1.177,4.642 -3.256,6.929 -6.235,6.929c-0.97,-0 -1.871,-0.208 -2.633,-0.555c1.802,-0.692 2.702,-1.94 2.702,-3.741c0,-1.801 -0.9,-2.702 -2.771,-2.702c-2.287,0 -4.019,1.94 -4.019,4.226c0,3.187 3.257,4.781 6.652,4.781c2.91,-0 5.265,-1.594 7.136,-4.781c1.316,3.187 3.81,4.781 7.413,4.781c3.326,-0 6.097,-1.594 8.314,-4.711c1.871,-2.702 2.841,-4.712 2.841,-6.028c-0,-0.624 -0.347,-0.97 -1.039,-0.97c-0.624,-0 -0.97,0.346 -1.178,0.97c-1.178,3.949 -4.296,8.73 -8.799,8.73c-2.287,-0 -3.464,-1.386 -3.464,-4.227c-0,-0.9 0.346,-2.84 1.108,-5.958l2.356,-9.353c1.316,-5.197 3.464,-7.829 6.512,-7.829c0.97,-0 1.871,0.208 2.633,0.554c-1.871,0.624 -2.771,1.871 -2.771,3.741c-0,1.802 0.97,2.702 2.84,2.702c2.217,0 3.95,-2.009 3.95,-4.226Z" style="fill:#8dcc33;fill-rule:nonzero;stroke:#1e3a5f;stroke-width:1px;stroke-linecap:butt;stroke-miterlimit:2;"/>
        </g>
    <g>
            <path id="MJX-21-NCM-N-35" d="M730.421,24.818c0.347,0 0.762,-0.277 1.109,-0.762c2.078,-3.117 4.919,-4.642 8.522,-4.642c2.424,0 4.295,1.386 5.542,4.227c0.762,1.87 1.178,4.711 1.178,8.522c0,4.364 -0.554,7.413 -1.594,9.214c-1.732,2.841 -4.087,4.296 -7.066,4.296c-4.642,-0 -8.314,-3.326 -9.562,-6.929c0.208,0.07 0.347,0 0.624,0c2.079,0 3.811,-1.593 3.811,-3.672c-0,-2.147 -1.732,-3.602 -3.811,-3.602c-2.425,-0 -3.464,1.316 -3.464,3.88c-0,6.928 5.612,12.817 12.54,12.817c4.226,-0 7.829,-1.524 10.739,-4.573c2.91,-3.048 4.365,-6.72 4.365,-10.947c-0,-4.018 -1.178,-7.482 -3.534,-10.461c-2.563,-3.257 -5.75,-4.85 -9.63,-4.85c-3.256,-0 -6.097,1.039 -8.383,3.118l-0,-12.333c1.87,0.554 3.672,0.832 5.542,0.832c3.188,-0 5.959,-0.763 8.314,-2.356c2.148,-1.316 3.603,-2.633 4.435,-3.88c0.415,-0.554 0.623,-0.97 0.623,-1.178c0,-0.693 -0.346,-1.039 -1.039,-1.039c-3.811,1.455 -7.067,2.217 -9.7,2.217c-3.118,0 -6.097,-0.623 -8.937,-1.94c-0.347,-0.138 -0.624,-0.208 -0.901,-0.208c-0.624,0 -0.97,0.624 -0.97,1.94l0,20.231c0,1.455 0,2.078 1.247,2.078Z" style="fill:#8dcc33;fill-rule:nonzero;stroke:#1e3a5f;stroke-width:1px;stroke-linecap:butt;stroke-miterlimit:2;"/>
        </g>
    </g>
  <g>
        <g>
            <path id="MJX-42-NCM-N-2212" d="M222.247,307.293l-38.273,0c-0.991,0 -1.486,0.497 -1.486,1.419c-0,0.922 0.495,1.418 1.486,1.418l38.273,0c0.991,0 1.487,-0.496 1.487,-1.418c-0,-0.851 -0.744,-1.419 -1.487,-1.419Z" style="fill:#8dcc33;fill-rule:nonzero;stroke:#1e3a5f;stroke-width:1px;stroke-linecap:butt;stroke-miterlimit:2;"/>
        </g>
    <g>
            <path id="MJX-42-NCM-N-32" d="M241.879,279.21c-3.158,-0 -5.821,1.276 -8.113,3.83c-2.291,2.553 -3.468,5.531 -3.468,9.148c0,2.411 1.548,4.184 3.468,4.184c1.858,0 3.406,-1.844 3.406,-3.971c0,-2.341 -1.486,-3.972 -3.468,-3.972c-0.185,0 -0.309,0 -0.433,0.071c1.177,-3.475 3.901,-6.524 7.803,-6.524c5.078,-0 7.927,5.035 7.927,11.134c0,4.751 -2.105,9.857 -6.317,15.247l-11.643,15.035c-0.805,1.063 -0.743,0.992 -0.743,3.049l22.976,0l1.796,-12.765l-2.043,-0c-0.496,3.617 -0.929,5.673 -1.301,6.312c-0.309,0.354 -2.167,0.496 -5.574,0.496l-10.342,-0l6.007,-6.737c4.212,-4.539 9.538,-9.432 11.334,-13.191c1.238,-2.482 1.858,-4.964 1.858,-7.446c-0,-8.368 -5.698,-13.9 -13.13,-13.9Z" style="fill:#8dcc33;fill-rule:nonzero;stroke:#1e3a5f;stroke-width:1px;stroke-linecap:butt;stroke-miterlimit:2;"/>
        </g>
    </g>
  <g>
        <g>
            <path id="MJX-42-NCM-N-22121" serif:id="MJX-42-NCM-N-2212" d="M462.145,28.716l-38.273,0c-0.991,0 -1.486,0.497 -1.486,1.419c-0,0.921 0.495,1.418 1.486,1.418l38.273,-0c0.991,-0 1.486,-0.497 1.486,-1.418c0,-0.851 -0.743,-1.419 -1.486,-1.419Z" style="fill:#8dcc33;fill-rule:nonzero;stroke:#1e3a5f;stroke-width:1px;stroke-linecap:butt;stroke-miterlimit:2;"/>
        </g>
    <g>
            <path id="MJX-42-NCM-N-321" serif:id="MJX-42-NCM-N-32" d="M481.777,0.633c-3.158,-0 -5.821,1.276 -8.113,3.829c-2.291,2.553 -3.468,5.532 -3.468,9.149c0,2.411 1.548,4.184 3.468,4.184c1.858,-0 3.406,-1.844 3.406,-3.972c0,-2.34 -1.486,-3.971 -3.468,-3.971c-0.186,0 -0.309,0 -0.433,0.071c1.176,-3.475 3.901,-6.524 7.803,-6.524c5.078,-0 7.927,5.035 7.927,11.134c0,4.751 -2.106,9.857 -6.317,15.247l-11.643,15.034c-0.805,1.064 -0.743,0.993 -0.743,3.05l22.976,-0l1.796,-12.765l-2.043,-0c-0.496,3.617 -0.929,5.673 -1.301,6.311c-0.31,0.355 -2.168,0.497 -5.574,0.497l-10.342,-0l6.007,-6.737c4.211,-4.539 9.537,-9.432 11.333,-13.191c1.239,-2.482 1.858,-4.964 1.858,-7.446c0,-8.369 -5.697,-13.9 -13.129,-13.9Z" style="fill:#8dcc33;fill-rule:nonzero;stroke:#1e3a5f;stroke-width:1px;stroke-linecap:butt;stroke-miterlimit:2;"/>
        </g>
    </g>
  <g>
        <g>
            <path id="MJX-42-NCM-N-22122" serif:id="MJX-42-NCM-N-2212" d="M334.653,307.309l-38.273,0c-0.991,0 -1.487,0.497 -1.487,1.419c0,0.922 0.496,1.418 1.487,1.418l38.273,0c0.991,0 1.486,-0.496 1.486,-1.418c0,-0.851 -0.743,-1.419 -1.486,-1.419Z" style="fill:#0dcaf2;fill-rule:nonzero;stroke:#1e3a5f;stroke-width:1px;stroke-linecap:butt;stroke-miterlimit:2;"/>
        </g>
    <g>
            <path id="MJX-42-NCM-N-31" d="M356.267,279.226c-2.539,2.978 -6.255,4.468 -11.148,4.468l0,2.766c3.221,-0 5.884,-0.568 7.927,-1.702l0,35.884c0,1.276 -0.247,2.127 -0.805,2.482c-0.557,0.355 -2.105,0.567 -4.583,0.567l-2.167,0l-0,2.766c1.548,-0.142 4.892,-0.213 10.033,-0.213c5.14,0 8.484,0.071 10.032,0.213l0,-2.766l-2.167,0c-2.539,0 -4.088,-0.212 -4.583,-0.567c-0.496,-0.355 -0.805,-1.206 -0.805,-2.482l-0,-39.289c-0,-1.702 -0.124,-2.127 -1.734,-2.127Z" style="fill:#0dcaf2;fill-rule:nonzero;stroke:#1e3a5f;stroke-width:1px;stroke-linecap:butt;stroke-miterlimit:2;"/>
        </g>
    </g>
  <g>
        <path id="MJX-42-NCM-N-311" serif:id="MJX-42-NCM-N-31" d="M553.002,279.202c-2.539,2.979 -6.255,4.468 -11.148,4.468l0,2.766c3.221,0 5.884,-0.567 7.927,-1.702l0,35.884c0,1.277 -0.247,2.128 -0.805,2.482c-0.557,0.355 -2.105,0.568 -4.583,0.568l-2.167,-0l-0,2.766c1.548,-0.142 4.892,-0.213 10.033,-0.213c5.14,-0 8.484,0.071 10.032,0.213l0,-2.766l-2.167,-0c-2.539,-0 -4.088,-0.213 -4.583,-0.568c-0.496,-0.354 -0.805,-1.205 -0.805,-2.482l-0,-39.288c-0,-1.702 -0.124,-2.128 -1.734,-2.128Z" style="fill:#0dcaf2;fill-rule:nonzero;stroke:#1e3a5f;stroke-width:1px;stroke-linecap:butt;stroke-miterlimit:2;"/>
    </g>
  <g>
        <g>
            <path id="MJX-31-NCM-I-1D465" d="M464.257,154.113c0,-1.844 -1.804,-2.766 -3.809,-2.766c-1.724,-0 -3.087,0.922 -4.129,2.766c-0.842,-1.844 -2.246,-2.766 -4.29,-2.766c-1.965,-0 -3.569,0.922 -4.852,2.726c-1.082,1.564 -1.643,2.727 -1.643,3.488c-0,0.361 0.2,0.562 0.601,0.562c0.361,-0 0.601,-0.201 0.682,-0.562c0.761,-2.325 2.445,-5.051 5.132,-5.051c1.323,-0 1.964,0.842 1.964,2.485c0,0.842 -0.722,3.97 -2.125,9.342c-0.681,2.686 -1.884,4.009 -3.608,4.009c-0.562,0 -1.083,-0.12 -1.524,-0.32c1.043,-0.401 1.564,-1.123 1.564,-2.165c-0,-1.043 -0.521,-1.564 -1.604,-1.564c-1.323,0 -2.325,1.123 -2.325,2.446c-0,1.844 1.884,2.766 3.849,2.766c1.684,0 3.047,-0.922 4.129,-2.766c0.762,1.844 2.205,2.766 4.29,2.766c1.925,0 3.528,-0.922 4.811,-2.726c1.083,-1.564 1.644,-2.727 1.644,-3.488c0,-0.361 -0.2,-0.562 -0.601,-0.562c-0.361,0 -0.561,0.201 -0.682,0.562c-0.681,2.285 -2.485,5.051 -5.092,5.051c-1.323,0 -2.004,-0.801 -2.004,-2.445c-0,-0.521 0.2,-1.644 0.641,-3.448l1.363,-5.413c0.762,-3.007 2.005,-4.53 3.769,-4.53c0.562,-0 1.083,0.12 1.524,0.32c-1.083,0.361 -1.604,1.083 -1.604,2.165c0,1.043 0.561,1.564 1.644,1.564c1.283,-0 2.285,-1.163 2.285,-2.446Z" style="fill:#0dcaf2;fill-rule:nonzero;stroke:#1e3a5f;stroke-width:1px;stroke-linecap:butt;stroke-miterlimit:2;"/>
        </g>
    <g>
            <path id="MJX-31-NCM-N-3C" d="M503.898,170.872c0.681,0.281 1.403,-0.24 1.403,-0.882c-0,-0.401 -0.201,-0.681 -0.561,-0.842l-21.41,-10.103l21.41,-10.104c0.36,-0.16 0.561,-0.441 0.561,-0.802c-0,-0.681 -0.321,-1.002 -0.962,-1.002c-0.161,0 -0.321,0.04 -0.441,0.08l-23.014,10.906c-0.401,0.2 -0.601,0.481 -0.601,0.922c-0,0.441 0.2,0.721 0.601,0.922l23.014,10.905Z" style="fill:#0dcaf2;fill-rule:nonzero;stroke:#1e3a5f;stroke-width:1px;stroke-linecap:butt;stroke-miterlimit:2;"/>
        </g>
    <g>
            <path id="MJX-31-NCM-N-3C1" serif:id="MJX-31-NCM-N-3C" d="M427.405,170.872c0.682,0.281 1.404,-0.24 1.404,-0.882c-0,-0.401 -0.201,-0.681 -0.562,-0.842l-21.41,-10.103l21.41,-10.104c0.361,-0.16 0.562,-0.441 0.562,-0.802c-0,-0.681 -0.321,-1.002 -0.963,-1.002c-0.16,0 -0.32,0.04 -0.441,0.08l-23.013,10.906c-0.401,0.2 -0.602,0.481 -0.602,0.922c0,0.441 0.201,0.721 0.602,0.922l23.013,10.905Z" style="fill:#0dcaf2;fill-rule:nonzero;stroke:#1e3a5f;stroke-width:1px;stroke-linecap:butt;stroke-miterlimit:2;"/>
        </g>
    <g>
            <g>
                <path id="MJX-42-NCM-N-22123" serif:id="MJX-42-NCM-N-2212" d="M370.555,157.956l-22.335,0c-0.578,0 -0.867,0.29 -0.867,0.828c0,0.538 0.289,0.827 0.867,0.827l22.335,0c0.579,0 0.868,-0.289 0.868,-0.827c-0,-0.497 -0.434,-0.828 -0.868,-0.828Z" style="fill:#0dcaf2;fill-rule:nonzero;stroke:#1e3a5f;stroke-width:1px;stroke-linecap:butt;stroke-miterlimit:2;"/>
            </g>
      <g>
                <path id="MJX-42-NCM-N-312" serif:id="MJX-42-NCM-N-31" d="M383.169,141.567c-1.482,1.739 -3.651,2.608 -6.506,2.608l0,1.614c1.88,-0 3.434,-0.331 4.626,-0.993l0,20.94c0,0.745 -0.144,1.242 -0.47,1.449c-0.325,0.207 -1.228,0.331 -2.674,0.331l-1.265,0l0,1.614c0.904,-0.083 2.855,-0.124 5.855,-0.124c3,-0 4.951,0.041 5.855,0.124l-0,-1.614l-1.265,0c-1.482,0 -2.385,-0.124 -2.675,-0.331c-0.289,-0.207 -0.469,-0.704 -0.469,-1.449l-0,-22.927c-0,-0.993 -0.073,-1.242 -1.012,-1.242Z" style="fill:#0dcaf2;fill-rule:nonzero;stroke:#1e3a5f;stroke-width:1px;stroke-linecap:butt;stroke-miterlimit:2;"/>
            </g>
        </g>
    <g>
            <path id="MJX-42-NCM-N-313" serif:id="MJX-42-NCM-N-31" d="M530.083,141.65c-1.482,1.738 -3.65,2.607 -6.505,2.607l-0,1.614c1.879,0 3.433,-0.331 4.626,-0.993l-0,20.941c-0,0.745 -0.145,1.242 -0.47,1.448c-0.325,0.207 -1.229,0.332 -2.674,0.332l-1.265,-0l-0,1.614c0.903,-0.083 2.855,-0.125 5.855,-0.125c2.999,0 4.951,0.042 5.854,0.125l0,-1.614l-1.265,-0c-1.481,-0 -2.385,-0.125 -2.674,-0.332c-0.289,-0.206 -0.47,-0.703 -0.47,-1.448l0,-22.928c0,-0.993 -0.072,-1.241 -1.012,-1.241Z" style="fill:#0dcaf2;fill-rule:nonzero;stroke:#1e3a5f;stroke-width:1px;stroke-linecap:butt;stroke-miterlimit:2;"/>
        </g>
    </g>
</svg>
