<?xml version="1.0" encoding="UTF-8" standalone="no"?>
<!DOCTYPE svg PUBLIC "-//W3C//DTD SVG 1.1//EN" "http://www.w3.org/Graphics/SVG/1.1/DTD/svg11.dtd">
<svg width="226" height="285" viewBox="0 0 576 679" version="1.1" xmlns="http://www.w3.org/2000/svg" xmlns:xlink="http://www.w3.org/1999/xlink" xml:space="preserve" xmlns:serif="http://www.serif.com/" style="fill-rule:evenodd;clip-rule:evenodd;stroke-linecap:round;stroke-linejoin:round;stroke-miterlimit:1.5;">
    <path d="M-567.081,-693.285l677.728,0" style="fill:none;stroke:#0dcaf2;stroke-width:6.25px;"/>
  <path d="M572.56,105.493l-569.435,569.436" style="fill:none;stroke:#8dcc33;stroke-width:6.25px;"/>
  <path d="M251.973,-693.285l677.728,0" style="fill:none;stroke:#0dcaf2;stroke-width:6.25px;"/>
  <path d="M572.567,674.892l-569.435,-569.435" style="fill:none;stroke:#9370db;stroke-width:6.25px;"/>
  <g transform="matrix(47.4544,0,0,47.4544,476.21,34.3855)">
    </g>
  <text x="99.054px" y="34.386px" style="font-family:'ArialMT', 'Arial', sans-serif;font-size:47.454px;fill:#8e44ad;stroke:#1e3a5f;stroke-width:0.83px;stroke-linecap:butt;stroke-miterlimit:2;">two lines intersect</text>
  <path d="M-1719.93,-870.795l-19.704,28.503" style="fill:none;stroke:#0dcaf2;stroke-width:6.25px;"/>
  <circle cx="287.849" cy="390.175" r="8.92" style="fill:#ff0;"/>
  <path d="M287.849,399.998c-0.04,-0.001 -4.29,0.225 -7.427,-3.395c-5.133,-5.925 -1.531,-15.193 6.178,-16.173c7.946,-1.011 13.68,7.447 9.886,14.427c-0.79,1.454 -1.95,2.699 -3.342,3.592c-2.538,1.628 -4.973,1.537 -5.295,1.549Zm0.005,-1.807c0.205,0.006 3.559,0.11 6.056,-2.772c4.421,-5.104 0.87,-13.088 -5.854,-13.258c-6.761,-0.171 -10.68,7.659 -6.512,12.961c0.715,0.909 1.63,1.665 2.658,2.192c1.784,0.914 3.378,0.869 3.643,0.877c0.002,-0 0.005,-0 0.009,-0Z" style="fill:#f33;"/>
</svg>
