<?xml version="1.0" encoding="UTF-8" standalone="no"?>
<!DOCTYPE svg PUBLIC "-//W3C//DTD SVG 1.1//EN" "http://www.w3.org/Graphics/SVG/1.1/DTD/svg11.dtd">
<svg width="512" height="378" viewBox="0 0 964 689" version="1.1" xmlns="http://www.w3.org/2000/svg" xmlns:xlink="http://www.w3.org/1999/xlink" xml:space="preserve" xmlns:serif="http://www.serif.com/" style="fill-rule:evenodd;clip-rule:evenodd;stroke-linecap:round;stroke-linejoin:round;stroke-miterlimit:1.5;">
    <path d="M195.091,120.919l3.903,-12.946l-12.699,4.646c4.275,-0.124 8.672,4.026 8.796,8.3Z" style="fill:#9370db;"/>
  <path d="M192.354,115.01c-26.647,28.238 -124.39,131.818 -124.39,131.818" style="fill:none;stroke:#9370db;stroke-width:4.03px;"/>
  <path d="M198.27,502.204l4.278,-12.827l-12.828,4.273c4.276,0.001 8.551,4.278 8.55,8.554Z" style="fill:#9370db;"/>
  <path d="M195.706,496.217c-27.656,27.644 -129.692,129.639 -129.692,129.639" style="fill:none;stroke:#9370db;stroke-width:4.03px;"/>
  <path d="M776.299,493.528l-12.828,-4.273l4.279,12.827c-0.001,-4.277 4.273,-8.553 8.549,-8.554Z" style="fill:#9370db;"/>
  <path d="M770.313,496.095c27.672,27.66 129.816,129.761 129.816,129.761" style="fill:none;stroke:#9370db;stroke-width:4.03px;"/>
  <path d="M364.159,502.133l4.278,-12.827l-12.828,4.273c4.276,0.001 8.551,4.278 8.55,8.554Z" style="fill:#9370db;"/>
  <path d="M361.595,496.146c-27.665,27.653 -129.764,129.71 -129.764,129.71" style="fill:none;stroke:#9370db;stroke-width:4.03px;"/>
  <path d="M610.479,493.526l-12.828,-4.273l4.279,12.826c-0.001,-4.276 4.273,-8.552 8.549,-8.553Z" style="fill:#9370db;"/>
  <path d="M604.493,496.093c27.672,27.66 129.818,129.763 129.818,129.763" style="fill:none;stroke:#9370db;stroke-width:4.03px;"/>
  <path d="M87.502,487.89l-13.52,-0.172l7.974,10.92c-1.3,-4.073 1.473,-9.447 5.546,-10.748Z" style="fill:#9370db;"/>
  <path d="M82.58,492.155c45.807,23.638 259.098,133.701 259.098,133.701" style="fill:none;stroke:#9370db;stroke-width:4.03px;"/>
  <path d="M880.961,498.378l7.974,-10.919l-13.52,0.172c4.073,1.3 6.846,6.674 5.546,10.747Z" style="fill:#9370db;"/>
  <path d="M880.337,491.895c-45.86,23.665 -259.602,133.961 -259.602,133.961" style="fill:none;stroke:#9370db;stroke-width:4.03px;"/>
  <path d="M55.839,112.619l-12.697,-4.646l3.902,12.946c0.124,-4.274 4.522,-8.424 8.795,-8.3Z" style="fill:#9370db;"/>
  <path d="M49.782,115.01c26.647,28.238 124.389,131.818 124.389,131.818" style="fill:none;stroke:#9370db;stroke-width:4.03px;"/>
  <rect x="3.271" y="418.15" width="68.075" height="68.075" style="fill:none;stroke:#8dcc33;stroke-width:6.05px;stroke-linecap:square;stroke-miterlimit:4;"/>
  <rect x="559.815" y="418.15" width="68.075" height="68.075" style="fill:none;stroke:#8dcc33;stroke-width:6.05px;stroke-linecap:square;stroke-miterlimit:4;"/>
  <rect x="3.271" y="37.492" width="68.075" height="68.075" style="fill:none;stroke:#8dcc33;stroke-width:6.05px;stroke-linecap:square;stroke-miterlimit:4;"/>
  <rect x="169.374" y="418.15" width="68.075" height="68.075" style="fill:none;stroke:#8dcc33;stroke-width:6.05px;stroke-linecap:square;stroke-miterlimit:4;"/>
  <rect x="725.918" y="418.15" width="68.075" height="68.075" style="fill:none;stroke:#8dcc33;stroke-width:6.05px;stroke-linecap:square;stroke-miterlimit:4;"/>
  <rect x="169.374" y="37.492" width="68.075" height="68.075" style="fill:none;stroke:#8dcc33;stroke-width:6.05px;stroke-linecap:square;stroke-miterlimit:4;"/>
  <rect x="335.124" y="418.15" width="68.075" height="68.075" style="fill:none;stroke:#8dcc33;stroke-width:6.05px;stroke-linecap:square;stroke-miterlimit:4;"/>
  <rect x="891.668" y="418.15" width="68.075" height="68.075" style="fill:none;stroke:#8dcc33;stroke-width:6.05px;stroke-linecap:square;stroke-miterlimit:4;"/>
  <circle cx="37.309" cy="650.697" r="34.285" style="fill:none;stroke:#8dcc33;stroke-width:6.05px;stroke-linecap:square;stroke-miterlimit:4;"/>
  <circle cx="593.854" cy="650.697" r="34.285" style="fill:none;stroke:#8dcc33;stroke-width:6.05px;stroke-linecap:square;stroke-miterlimit:4;"/>
  <circle cx="37.309" cy="270.038" r="34.285" style="fill:none;stroke:#8dcc33;stroke-width:6.05px;stroke-linecap:square;stroke-miterlimit:4;"/>
  <circle cx="203.411" cy="650.697" r="34.285" style="fill:none;stroke:#8dcc33;stroke-width:6.05px;stroke-linecap:square;stroke-miterlimit:4;"/>
  <circle cx="759.955" cy="650.697" r="34.285" style="fill:none;stroke:#8dcc33;stroke-width:6.05px;stroke-linecap:square;stroke-miterlimit:4;"/>
  <circle cx="203.411" cy="270.038" r="34.285" style="fill:none;stroke:#8dcc33;stroke-width:6.05px;stroke-linecap:square;stroke-miterlimit:4;"/>
  <circle cx="369.161" cy="650.697" r="34.285" style="fill:none;stroke:#8dcc33;stroke-width:6.05px;stroke-linecap:square;stroke-miterlimit:4;"/>
  <circle cx="925.706" cy="650.697" r="34.285" style="fill:none;stroke:#8dcc33;stroke-width:6.05px;stroke-linecap:square;stroke-miterlimit:4;"/>
  <text x="2.17px" y="17.593px" style="font-family:'ArialMT', 'Arial', sans-serif;font-size:24.188px;fill:#9370db;stroke:#1e3a5f;stroke-width:0.42px;stroke-linecap:butt;stroke-miterlimit:2;">2 incorrect matches: 1 way</text>
  <text x="2.17px" y="395.124px" style="font-family:'ArialMT', 'Arial', sans-serif;font-size:24.188px;fill:#9370db;stroke:#1e3a5f;stroke-width:0.42px;stroke-linecap:butt;stroke-miterlimit:2;">3 incorrect matches: 2 way</text>
  <text x="25.664px" y="469.573px" style="font-family:'ArialMT', 'Arial', sans-serif;font-size:48.375px;fill:#8dcc33;stroke:#1e3a5f;stroke-width:0.8px;stroke-linecap:butt;stroke-miterlimit:2;">1</text>
  <text x="582.208px" y="469.573px" style="font-family:'ArialMT', 'Arial', sans-serif;font-size:48.375px;fill:#8dcc33;stroke:#1e3a5f;stroke-width:0.8px;stroke-linecap:butt;stroke-miterlimit:2;">1</text>
  <text x="25.664px" y="88.914px" style="font-family:'ArialMT', 'Arial', sans-serif;font-size:48.375px;fill:#8dcc33;stroke:#1e3a5f;stroke-width:0.8px;stroke-linecap:butt;stroke-miterlimit:2;">1</text>
  <text x="190.505px" y="469.573px" style="font-family:'ArialMT', 'Arial', sans-serif;font-size:48.375px;fill:#8dcc33;stroke:#1e3a5f;stroke-width:0.8px;stroke-linecap:butt;stroke-miterlimit:2;">2</text>
  <text x="747.049px" y="469.573px" style="font-family:'ArialMT', 'Arial', sans-serif;font-size:48.375px;fill:#8dcc33;stroke:#1e3a5f;stroke-width:0.8px;stroke-linecap:butt;stroke-miterlimit:2;">2</text>
  <text x="190.505px" y="88.914px" style="font-family:'ArialMT', 'Arial', sans-serif;font-size:48.375px;fill:#8dcc33;stroke:#1e3a5f;stroke-width:0.8px;stroke-linecap:butt;stroke-miterlimit:2;">2</text>
  <text x="355.793px" y="469.265px" style="font-family:'ArialMT', 'Arial', sans-serif;font-size:48.375px;fill:#8dcc33;stroke:#1e3a5f;stroke-width:0.8px;stroke-linecap:butt;stroke-miterlimit:2;">3</text>
  <text x="912.337px" y="469.265px" style="font-family:'ArialMT', 'Arial', sans-serif;font-size:48.375px;fill:#8dcc33;stroke:#1e3a5f;stroke-width:0.8px;stroke-linecap:butt;stroke-miterlimit:2;">3</text>
  <text x="25.664px" y="668.082px" style="font-family:'ArialMT', 'Arial', sans-serif;font-size:48.375px;fill:#8dcc33;stroke:#1e3a5f;stroke-width:0.8px;stroke-linecap:butt;stroke-miterlimit:2;">1</text>
  <text x="582.208px" y="668.082px" style="font-family:'ArialMT', 'Arial', sans-serif;font-size:48.375px;fill:#8dcc33;stroke:#1e3a5f;stroke-width:0.8px;stroke-linecap:butt;stroke-miterlimit:2;">1</text>
  <text x="25.664px" y="287.423px" style="font-family:'ArialMT', 'Arial', sans-serif;font-size:48.375px;fill:#8dcc33;stroke:#1e3a5f;stroke-width:0.8px;stroke-linecap:butt;stroke-miterlimit:2;">1</text>
  <text x="190.505px" y="668.082px" style="font-family:'ArialMT', 'Arial', sans-serif;font-size:48.375px;fill:#8dcc33;stroke:#1e3a5f;stroke-width:0.8px;stroke-linecap:butt;stroke-miterlimit:2;">2</text>
  <text x="747.049px" y="668.082px" style="font-family:'ArialMT', 'Arial', sans-serif;font-size:48.375px;fill:#8dcc33;stroke:#1e3a5f;stroke-width:0.8px;stroke-linecap:butt;stroke-miterlimit:2;">2</text>
  <text x="190.505px" y="287.423px" style="font-family:'ArialMT', 'Arial', sans-serif;font-size:48.375px;fill:#8dcc33;stroke:#1e3a5f;stroke-width:0.8px;stroke-linecap:butt;stroke-miterlimit:2;">2</text>
  <text x="355.793px" y="667.774px" style="font-family:'ArialMT', 'Arial', sans-serif;font-size:48.375px;fill:#8dcc33;stroke:#1e3a5f;stroke-width:0.8px;stroke-linecap:butt;stroke-miterlimit:2;">3</text>
  <text x="912.337px" y="667.774px" style="font-family:'ArialMT', 'Arial', sans-serif;font-size:48.375px;fill:#8dcc33;stroke:#1e3a5f;stroke-width:0.8px;stroke-linecap:butt;stroke-miterlimit:2;">3</text>
</svg>
