<?xml version="1.0" encoding="UTF-8" standalone="no"?>
<!DOCTYPE svg PUBLIC "-//W3C//DTD SVG 1.1//EN" "http://www.w3.org/Graphics/SVG/1.1/DTD/svg11.dtd">
<svg width="512" height="296" viewBox="0 0 1757 917" version="1.1" xmlns="http://www.w3.org/2000/svg" xmlns:xlink="http://www.w3.org/1999/xlink" xml:space="preserve" xmlns:serif="http://www.serif.com/" style="fill-rule:evenodd;clip-rule:evenodd;stroke-linejoin:round;stroke-miterlimit:2;">
    <path id="MJX-44-TEX-I-1D466" d="M386.972,11.879c0,-0.692 0.416,-1.873 1.243,-3.551c0.831,-1.674 2.162,-3.426 3.988,-5.249c1.826,-1.823 3.876,-2.71 6.145,-2.66c2.27,-0 4.096,0.567 5.479,1.699c1.383,1.135 2.102,2.713 2.158,4.731c-0.108,0.937 -0.192,1.454 -0.248,1.554c0,0.149 -0.443,1.28 -1.33,3.401c-0.884,2.118 -1.799,4.508 -2.738,7.169c-0.943,2.663 -1.386,4.781 -1.33,6.359c-0,2.118 0.387,3.597 1.163,4.434c0.775,0.84 1.937,1.28 3.488,1.333c1.274,0 2.465,-0.273 3.572,-0.815c1.107,-0.543 1.962,-1.107 2.573,-1.699c0.608,-0.593 1.355,-1.405 2.242,-2.441c-0,-0.049 0.136,-0.542 0.415,-1.479c0.276,-0.936 0.664,-2.39 1.163,-4.359c0.496,-1.972 1.023,-3.795 1.575,-5.473c2.106,-7.391 3.268,-11.261 3.488,-11.605c0.72,-1.33 1.91,-1.997 3.572,-1.997c0.72,-0 1.299,0.174 1.743,0.518c0.443,0.344 0.747,0.642 0.915,0.887c0.164,0.248 0.22,0.468 0.164,0.666c-0,0.639 -1.355,5.814 -4.068,15.525c-2.713,9.708 -4.263,15.032 -4.651,15.968c-1.55,4.09 -4.232,7.342 -8.052,9.758c-3.82,2.415 -7.64,3.646 -11.46,3.696c-2.49,-0 -4.676,-0.543 -6.561,-1.628c-1.882,-1.082 -2.822,-2.71 -2.822,-4.877c0,-1.086 0.193,-1.997 0.58,-2.735c0.388,-0.741 0.915,-1.284 1.578,-1.628c0.664,-0.344 1.219,-0.592 1.662,-0.738c0.444,-0.149 0.912,-0.223 1.411,-0.223c2.437,-0 3.653,1.035 3.653,3.104c-0,0.986 -0.332,1.851 -0.996,2.589c-0.663,0.738 -1.302,1.231 -1.91,1.479c-0.607,0.245 -0.967,0.369 -1.079,0.369l-0.248,0.074c0.109,0.245 0.636,0.543 1.575,0.887c0.943,0.344 1.882,0.518 2.825,0.518l0.664,-0c0.942,-0 1.662,-0.05 2.158,-0.149c1.829,-0.444 3.516,-1.38 5.066,-2.809c1.55,-1.43 2.741,-2.958 3.572,-4.583c0.828,-1.628 1.467,-3.008 1.907,-4.139c0.443,-1.135 0.666,-1.873 0.666,-2.217l-0.499,0.294c-0.332,0.199 -0.859,0.468 -1.578,0.813c-0.719,0.344 -1.439,0.641 -2.158,0.886c-1.107,0.248 -2.186,0.372 -3.24,0.372c-2.546,0 -4.787,-0.542 -6.725,-1.627c-1.938,-1.086 -3.21,-2.834 -3.82,-5.25c-0.053,-0.344 -0.081,-1.107 -0.081,-2.291c0,-2.809 0.967,-6.48 2.905,-11.014c1.938,-4.536 2.906,-7.419 2.906,-8.65l-0,-1.036c-0,-0.146 -0.109,-0.319 -0.332,-0.518c-0.22,-0.195 -0.524,-0.294 -0.912,-0.294l-0.335,-0c-1.271,-0 -2.434,0.468 -3.485,1.404c-1.054,0.937 -1.882,1.948 -2.493,3.03c-0.607,1.085 -1.079,2.12 -1.41,3.106c-0.332,0.986 -0.552,1.529 -0.664,1.625c-0.112,0.099 -0.555,0.149 -1.33,0.149l-1.163,0c-0.332,-0.295 -0.496,-0.518 -0.496,-0.663Z" style="fill:#8dcc33;fill-rule:nonzero;stroke:#1e3a5f;stroke-width:0.83px;"/>
  <path id="MJX-44-TEX-I-1D4661" serif:id="MJX-44-TEX-I-1D466" d="M1308.86,11.879c0,-0.692 0.416,-1.873 1.244,-3.551c0.831,-1.674 2.161,-3.426 3.987,-5.249c1.826,-1.823 3.876,-2.71 6.146,-2.66c2.269,-0 4.096,0.567 5.478,1.699c1.383,1.135 2.103,2.713 2.158,4.731c-0.108,0.937 -0.192,1.454 -0.248,1.554c0,0.149 -0.443,1.28 -1.33,3.401c-0.883,2.118 -1.798,4.508 -2.738,7.169c-0.942,2.663 -1.386,4.781 -1.33,6.359c0,2.118 0.388,3.597 1.163,4.434c0.775,0.84 1.938,1.28 3.488,1.333c1.274,0 2.465,-0.273 3.572,-0.815c1.107,-0.543 1.963,-1.107 2.574,-1.699c0.607,-0.593 1.354,-1.405 2.241,-2.441c0,-0.049 0.137,-0.542 0.416,-1.479c0.276,-0.936 0.663,-2.39 1.162,-4.359c0.497,-1.972 1.024,-3.795 1.576,-5.473c2.105,-7.391 3.268,-11.261 3.488,-11.605c0.719,-1.33 1.91,-1.997 3.572,-1.997c0.719,-0 1.299,0.174 1.742,0.518c0.444,0.344 0.747,0.642 0.915,0.887c0.164,0.248 0.22,0.468 0.164,0.666c0,0.639 -1.355,5.814 -4.068,15.525c-2.713,9.708 -4.263,15.032 -4.651,15.968c-1.55,4.09 -4.232,7.342 -8.052,9.758c-3.82,2.415 -7.64,3.646 -11.46,3.696c-2.49,-0 -4.676,-0.543 -6.561,-1.628c-1.882,-1.082 -2.821,-2.71 -2.821,-4.877c-0,-1.086 0.192,-1.997 0.58,-2.735c0.387,-0.741 0.914,-1.284 1.578,-1.628c0.663,-0.344 1.218,-0.592 1.662,-0.738c0.443,-0.149 0.911,-0.223 1.41,-0.223c2.438,-0 3.653,1.035 3.653,3.104c-0,0.986 -0.332,1.851 -0.995,2.589c-0.664,0.738 -1.303,1.231 -1.91,1.479c-0.608,0.245 -0.968,0.369 -1.079,0.369l-0.248,0.074c0.108,0.245 0.635,0.543 1.575,0.887c0.942,0.344 1.882,0.518 2.824,0.518l0.664,-0c0.943,-0 1.662,-0.05 2.158,-0.149c1.829,-0.444 3.516,-1.38 5.066,-2.809c1.551,-1.43 2.741,-2.958 3.572,-4.583c0.828,-1.628 1.467,-3.008 1.907,-4.139c0.444,-1.135 0.667,-1.873 0.667,-2.217l-0.499,0.294c-0.332,0.199 -0.859,0.468 -1.579,0.813c-0.719,0.344 -1.438,0.641 -2.158,0.886c-1.107,0.248 -2.186,0.372 -3.24,0.372c-2.545,0 -4.787,-0.542 -6.725,-1.627c-1.938,-1.086 -3.209,-2.834 -3.82,-5.25c-0.053,-0.344 -0.081,-1.107 -0.081,-2.291c0,-2.809 0.968,-6.48 2.906,-11.014c1.938,-4.536 2.905,-7.419 2.905,-8.65l-0,-1.036c-0,-0.146 -0.109,-0.319 -0.332,-0.518c-0.22,-0.195 -0.524,-0.294 -0.911,-0.294l-0.335,-0c-1.272,-0 -2.434,0.468 -3.485,1.404c-1.055,0.937 -1.882,1.948 -2.493,3.03c-0.608,1.085 -1.079,2.12 -1.411,3.106c-0.332,0.986 -0.552,1.529 -0.664,1.625c-0.111,0.099 -0.555,0.149 -1.33,0.149l-1.162,0c-0.332,-0.295 -0.497,-0.518 -0.497,-0.663Z" style="fill:#8dcc33;fill-rule:nonzero;stroke:#1e3a5f;stroke-width:0.83px;"/>
  <path id="MJX-44-TEX-I-1D465" d="M796.685,429.506c0.388,-2.072 1.882,-4.462 4.484,-7.172c2.601,-2.71 5.81,-4.09 9.63,-4.139c1.938,-0 3.708,0.443 5.315,1.33c1.606,0.886 2.796,1.996 3.571,3.327c2.323,-3.104 5.12,-4.657 8.385,-4.657c2.049,-0 3.819,0.542 5.314,1.624c1.494,1.085 2.27,2.54 2.325,4.363c0,1.429 -0.387,2.589 -1.162,3.476c-0.775,0.886 -1.523,1.429 -2.242,1.624c-0.719,0.199 -1.355,0.298 -1.91,0.298c-1.051,-0 -1.91,-0.273 -2.574,-0.816c-0.663,-0.542 -0.995,-1.255 -0.995,-2.142c0,-2.267 1.383,-3.82 4.152,-4.657c-0.611,-0.642 -1.718,-0.961 -3.324,-0.961c-0.719,-0 -1.243,0.049 -1.575,0.148c-2.105,0.788 -3.656,2.413 -4.651,4.878c-3.321,10.892 -4.983,17.248 -4.983,19.072c0,1.382 0.444,2.365 1.33,2.958c0.884,0.592 1.855,0.886 2.906,0.886c2.046,0 4.068,-0.812 6.061,-2.437c1.994,-1.628 3.349,-3.624 4.068,-5.99c0.168,-0.493 0.332,-0.763 0.5,-0.812c0.164,-0.05 0.607,-0.1 1.327,-0.149l0.332,-0c0.83,-0 1.246,0.198 1.246,0.592c-0,0.05 -0.056,0.319 -0.164,0.812c-0.887,2.809 -2.605,5.299 -5.151,7.467c-2.545,2.17 -5.506,3.252 -8.883,3.252c-3.876,0 -6.809,-1.55 -8.802,-4.657c-2.27,3.057 -4.871,4.583 -7.805,4.583l-0.499,-0c-2.713,-0 -4.651,-0.639 -5.813,-1.92c-1.163,-1.283 -1.771,-2.638 -1.827,-4.068c0,-1.575 0.527,-2.858 1.578,-3.844c1.052,-0.983 2.298,-1.476 3.737,-1.476c2.381,-0 3.572,1.035 3.572,3.103c-0,0.986 -0.332,1.848 -0.999,2.589c-0.663,0.738 -1.299,1.231 -1.907,1.476c-0.61,0.248 -0.97,0.372 -1.082,0.372l-0.248,0.072c0,0.049 0.168,0.149 0.499,0.297c0.332,0.149 0.776,0.32 1.327,0.518c0.555,0.196 1.079,0.27 1.579,0.22c1.993,0 3.708,-1.107 5.147,-3.327c0.499,-0.787 1.134,-2.461 1.91,-5.026c0.775,-2.561 1.55,-5.224 2.325,-7.984c0.775,-2.759 1.219,-4.387 1.33,-4.877c0.276,-1.333 0.416,-2.294 0.416,-2.884c-0,-1.379 -0.416,-2.365 -1.247,-2.958c-0.831,-0.592 -1.773,-0.886 -2.824,-0.886c-2.214,-0 -4.289,0.787 -6.226,2.365c-1.938,1.579 -3.296,3.597 -4.068,6.062c-0.112,0.444 -0.252,0.688 -0.416,0.738c-0.167,0.05 -0.611,0.099 -1.33,0.149l-1.163,-0c-0.332,-0.295 -0.496,-0.568 -0.496,-0.812Z" style="fill:#8dcc33;fill-rule:nonzero;stroke:#1e3a5f;stroke-width:0.83px;"/>
  <path id="MJX-44-TEX-I-1D4651" serif:id="MJX-44-TEX-I-1D465" d="M1717,429.506c0.388,-2.072 1.882,-4.462 4.484,-7.172c2.601,-2.71 5.81,-4.09 9.63,-4.139c1.938,-0 3.709,0.443 5.315,1.33c1.606,0.886 2.796,1.996 3.572,3.327c2.322,-3.104 5.119,-4.657 8.384,-4.657c2.049,-0 3.82,0.542 5.314,1.624c1.495,1.085 2.27,2.54 2.326,4.363c-0,1.429 -0.388,2.589 -1.163,3.476c-0.775,0.886 -1.523,1.429 -2.242,1.624c-0.719,0.199 -1.355,0.298 -1.91,0.298c-1.051,-0 -1.91,-0.273 -2.573,-0.816c-0.664,-0.542 -0.996,-1.255 -0.996,-2.142c0,-2.267 1.383,-3.82 4.152,-4.657c-0.611,-0.642 -1.718,-0.961 -3.324,-0.961c-0.719,-0 -1.243,0.049 -1.575,0.148c-2.105,0.788 -3.656,2.413 -4.651,4.878c-3.321,10.892 -4.983,17.248 -4.983,19.072c0,1.382 0.444,2.365 1.331,2.958c0.883,0.592 1.854,0.886 2.905,0.886c2.046,0 4.068,-0.812 6.062,-2.437c1.993,-1.628 3.348,-3.624 4.068,-5.99c0.167,-0.493 0.331,-0.763 0.499,-0.812c0.164,-0.05 0.607,-0.1 1.327,-0.149l0.332,-0c0.831,-0 1.246,0.198 1.246,0.592c0,0.05 -0.056,0.319 -0.164,0.812c-0.887,2.809 -2.605,5.299 -5.15,7.467c-2.546,2.17 -5.507,3.252 -8.884,3.252c-3.875,0 -6.809,-1.55 -8.802,-4.657c-2.27,3.057 -4.871,4.583 -7.805,4.583l-0.499,-0c-2.713,-0 -4.651,-0.639 -5.813,-1.92c-1.163,-1.283 -1.771,-2.638 -1.827,-4.068c0,-1.575 0.527,-2.858 1.579,-3.844c1.051,-0.983 2.297,-1.476 3.736,-1.476c2.381,-0 3.572,1.035 3.572,3.103c-0,0.986 -0.332,1.848 -0.999,2.589c-0.663,0.738 -1.299,1.231 -1.907,1.476c-0.61,0.248 -0.97,0.372 -1.082,0.372l-0.248,0.072c0,0.049 0.168,0.149 0.499,0.297c0.332,0.149 0.776,0.32 1.328,0.518c0.555,0.196 1.079,0.27 1.578,0.22c1.993,0 3.708,-1.107 5.147,-3.327c0.499,-0.787 1.135,-2.461 1.91,-5.026c0.775,-2.561 1.55,-5.224 2.325,-7.984c0.775,-2.759 1.219,-4.387 1.33,-4.877c0.276,-1.333 0.416,-2.294 0.416,-2.884c-0,-1.379 -0.416,-2.365 -1.247,-2.958c-0.831,-0.592 -1.773,-0.886 -2.824,-0.886c-2.214,-0 -4.288,0.787 -6.226,2.365c-1.938,1.579 -3.296,3.597 -4.068,6.062c-0.112,0.444 -0.251,0.688 -0.416,0.738c-0.167,0.05 -0.611,0.099 -1.33,0.149l-1.163,-0c-0.331,-0.295 -0.496,-0.568 -0.496,-0.812Z" style="fill:#8dcc33;fill-rule:nonzero;stroke:#1e3a5f;stroke-width:0.83px;"/>
  <g>
        <g>
            <g>
                <path id="MJX-262-NCM-N-3C" d="M1357.3,916.134c1.804,0.743 3.714,-0.636 3.714,-2.334c-0,-1.061 -0.531,-1.803 -1.486,-2.228l-56.653,-26.735l56.653,-26.735c0.955,-0.425 1.486,-1.167 1.486,-2.122c-0,-1.804 -0.849,-2.652 -2.547,-2.652c-0.424,-0 -0.848,0.106 -1.167,0.212l-60.897,28.857c-1.061,0.53 -1.591,1.273 -1.591,2.44c-0,1.167 0.53,1.91 1.591,2.44l60.897,28.857Z" style="fill:#ff5151;fill-rule:nonzero;stroke:#1e3a5f;stroke-width:0.83px;"/>
            </g>
        </g>
    </g>
  <g>
        <g>
            <path id="MJX-21-TEX-I-1D458" d="M294.9,842.845c-0,-0.707 0.141,-1.522 0.424,-2.441c0.283,-0.92 0.708,-1.38 1.274,-1.38c0.071,-0 2.619,-0.177 7.643,-0.531c5.024,-0.354 7.608,-0.566 7.749,-0.637c0.849,-0 1.274,0.283 1.274,0.849c0,0.496 -1.769,7.891 -5.308,22.186c-3.538,14.012 -5.307,21.266 -5.307,21.761c1.344,-0.708 2.37,-1.38 3.078,-2.017c1.699,-1.274 4.14,-3.503 7.325,-6.687c3.184,-3.185 5.661,-5.343 7.43,-6.476c2.831,-1.91 5.52,-2.866 8.067,-2.866c2.124,0 3.787,0.672 4.99,2.017c1.203,1.345 1.84,3.255 1.911,5.732c-0,1.769 -0.248,3.256 -0.744,4.459c-0.495,1.203 -1.167,2.087 -2.016,2.653c-0.85,0.567 -1.593,0.956 -2.229,1.168c-0.638,0.212 -1.274,0.318 -1.912,0.318c-1.414,0 -2.547,-0.389 -3.396,-1.167c-0.849,-0.779 -1.274,-1.805 -1.274,-3.078c-0,-1.769 0.566,-3.22 1.699,-4.353c1.132,-1.132 2.264,-1.875 3.397,-2.229l1.698,-0.319c-0.85,-0.848 -1.698,-1.273 -2.548,-1.273l-0.424,0c-2.265,0.212 -4.494,1.097 -6.688,2.654c-2.194,1.556 -4.777,3.821 -7.749,6.793c-2.972,2.972 -5.308,5.131 -7.006,6.476c0.141,0.071 0.672,0.177 1.592,0.318c0.92,0.142 1.769,0.354 2.548,0.637c0.778,0.283 1.698,0.566 2.76,0.849c1.061,0.283 2.017,0.779 2.866,1.487c0.849,0.707 1.627,1.344 2.335,1.91c0.708,0.566 1.31,1.486 1.805,2.76c0.495,1.274 0.708,2.441 0.636,3.503c0,1.203 -0.177,2.654 -0.53,4.353c-0.354,1.698 -0.566,3.113 -0.637,4.245c0,2.831 0.955,4.246 2.866,4.246c3.397,0 6.157,-4.211 8.28,-12.632c0.142,-0.566 0.849,-0.849 2.123,-0.849l0.424,-0c1.133,-0 1.699,0.319 1.699,0.955c0,0.354 -0.106,0.85 -0.319,1.487c-2.901,9.978 -7.076,14.967 -12.526,14.967c-3.184,0 -5.767,-0.92 -7.749,-2.76c-1.981,-1.84 -2.971,-4.494 -2.971,-7.961c-0,-1.274 0.106,-2.371 0.318,-3.291c0.212,-0.92 0.318,-1.769 0.318,-2.548c0,-1.557 -0.495,-2.901 -1.486,-4.034c-0.991,-1.132 -2.229,-1.946 -3.715,-2.441c-1.486,-0.495 -2.689,-0.885 -3.61,-1.168c-0.919,-0.283 -1.557,-0.389 -1.91,-0.318l-0.212,-0c-0.85,2.972 -1.593,5.839 -2.229,8.598c-0.638,2.76 -1.133,4.812 -1.487,6.157c-0.354,1.345 -0.672,2.654 -0.955,3.928c-0.283,1.274 -0.531,2.123 -0.743,2.547c-0.213,0.425 -0.46,0.885 -0.743,1.38c-0.283,0.496 -0.672,0.814 -1.168,0.956c-0.92,0.636 -1.911,0.955 -2.973,0.955c-1.202,0 -2.122,-0.354 -2.759,-1.061c-0.637,-0.708 -0.956,-1.31 -0.956,-1.805c0,-0.708 1.31,-6.369 3.928,-16.984c2.618,-10.616 5.202,-21.054 7.75,-31.315l3.927,-15.392c0.071,-0.92 -0.177,-1.487 -0.743,-1.699c-0.567,-0.212 -1.947,-0.389 -4.14,-0.53l-1.911,-0c-0.212,-0 -0.46,-0.106 -0.743,-0.319c-0.283,-0.212 -0.389,-0.46 -0.318,-0.743Z" style="fill:#ff5151;fill-rule:nonzero;stroke:#1e3a5f;stroke-width:1px;"/>
        </g>
    </g>
  <g>
        <g>
            <path id="MJX-21-TEX-N-3E" d="M375.766,856.325c0,-0.567 0.142,-1.027 0.425,-1.38c0.282,-0.354 0.566,-0.566 0.849,-0.638l0.318,-0.106c0.496,0 5.945,2.442 16.348,7.325c10.403,4.883 20.699,9.73 30.89,14.542l15.18,7.325c0.495,0.354 0.743,0.884 0.743,1.592c-0,0.708 -0.248,1.239 -0.743,1.593c-0.142,0.141 -10.474,5.06 -30.997,14.755l-30.571,14.436l-0.637,0c-1.274,-0.141 -1.911,-0.849 -1.911,-2.123l0,-0.318c-0.071,-0.495 0.46,-1.062 1.592,-1.698c1.345,-0.708 6.652,-3.256 15.923,-7.643c5.52,-2.619 10.12,-4.777 13.8,-6.476l26.325,-12.526l-26.325,-12.525c-20.381,-9.625 -30.714,-14.614 -30.997,-14.968c-0.141,-0.283 -0.212,-0.672 -0.212,-1.167Z" style="fill:#ff5151;fill-rule:nonzero;stroke:#1e3a5f;stroke-width:1px;"/>
        </g>
    </g>
  <g>
        <g>
            <path id="MJX-21-TEX-N-30" d="M489.115,849.428c3.963,-5.732 9.377,-8.598 16.241,-8.598c3.397,-0 6.794,0.92 10.191,2.76c3.396,1.84 6.157,5.095 8.28,9.766c2.618,5.873 3.927,13.941 3.927,24.202c0,10.969 -1.521,19.355 -4.564,25.158c-1.416,2.972 -3.362,5.343 -5.839,7.112c-2.476,1.77 -4.635,2.867 -6.475,3.291c-1.84,0.425 -3.644,0.672 -5.413,0.743c-1.84,-0 -3.68,-0.212 -5.521,-0.637c-1.84,-0.424 -3.998,-1.557 -6.475,-3.397c-2.476,-1.839 -4.423,-4.21 -5.838,-7.112c-3.043,-5.803 -4.564,-14.189 -4.564,-25.158c-0,-12.314 2.016,-21.691 6.05,-28.13Zm23.884,-1.274c-2.123,-2.265 -4.635,-3.397 -7.536,-3.397c-2.973,-0 -5.521,1.132 -7.643,3.397c-1.77,1.84 -2.937,4.387 -3.503,7.643c-0.567,3.255 -0.85,10.049 -0.85,20.381c0,11.181 0.283,18.541 0.85,22.079c0.566,3.539 1.84,6.334 3.821,8.387c1.981,2.123 4.423,3.184 7.325,3.184c2.83,0 5.236,-1.061 7.218,-3.184c2.052,-2.124 3.326,-5.096 3.821,-8.917c0.496,-3.821 0.778,-11.005 0.849,-21.549c0,-10.261 -0.283,-17.019 -0.849,-20.275c-0.566,-3.256 -1.733,-5.838 -3.503,-7.749Z" style="fill:#ff5151;fill-rule:nonzero;stroke:#1e3a5f;stroke-width:1px;"/>
        </g>
    </g>
  <g>
        <g>
            <path id="MJX-21-TEX-I-1D4581" serif:id="MJX-21-TEX-I-1D458" d="M1214.68,843.952c-0,-0.708 0.141,-1.522 0.424,-2.442c0.283,-0.92 0.708,-1.38 1.274,-1.38c0.071,0 2.619,-0.177 7.643,-0.53c5.025,-0.354 7.608,-0.566 7.749,-0.638c0.849,0 1.274,0.284 1.274,0.85c-0,0.495 -1.77,7.89 -5.308,22.186c-3.538,14.012 -5.307,21.266 -5.307,21.761c1.345,-0.708 2.37,-1.38 3.078,-2.017c1.699,-1.274 4.14,-3.503 7.324,-6.688c3.185,-3.185 5.662,-5.343 7.431,-6.475c2.831,-1.911 5.52,-2.866 8.068,-2.866c2.123,-0 3.786,0.672 4.989,2.017c1.203,1.345 1.84,3.255 1.911,5.732c-0,1.769 -0.248,3.255 -0.743,4.458c-0.496,1.203 -1.168,2.088 -2.017,2.654c-0.85,0.566 -1.592,0.955 -2.23,1.168c-0.636,0.212 -1.273,0.318 -1.91,0.318c-1.416,0 -2.548,-0.389 -3.397,-1.167c-0.85,-0.779 -1.274,-1.805 -1.274,-3.079c-0,-1.769 0.567,-3.22 1.698,-4.352c1.133,-1.132 2.265,-1.875 3.397,-2.229l1.699,-0.318c-0.849,-0.85 -1.699,-1.274 -2.548,-1.274l-0.424,-0c-2.265,0.212 -4.494,1.097 -6.688,2.654c-2.194,1.556 -4.777,3.821 -7.749,6.793c-2.972,2.972 -5.308,5.131 -7.006,6.475c0.141,0.071 0.672,0.177 1.592,0.319c0.92,0.141 1.769,0.353 2.548,0.637c0.778,0.283 1.698,0.566 2.759,0.849c1.062,0.283 2.018,0.779 2.867,1.486c0.849,0.708 1.627,1.345 2.335,1.911c0.708,0.566 1.31,1.486 1.805,2.76c0.495,1.274 0.707,2.441 0.637,3.502c-0,1.204 -0.177,2.655 -0.531,4.353c-0.354,1.698 -0.566,3.114 -0.637,4.246c0,2.831 0.955,4.246 2.866,4.246c3.397,-0 6.157,-4.21 8.28,-12.632c0.142,-0.566 0.849,-0.849 2.123,-0.849l0.424,-0c1.133,-0 1.699,0.318 1.699,0.955c-0,0.354 -0.106,0.849 -0.318,1.486c-2.902,9.979 -7.077,14.968 -12.526,14.968c-3.185,-0 -5.768,-0.921 -7.75,-2.76c-1.981,-1.84 -2.972,-4.494 -2.972,-7.962c0,-1.274 0.106,-2.37 0.319,-3.29c0.212,-0.921 0.318,-1.77 0.318,-2.548c0,-1.557 -0.495,-2.901 -1.486,-4.034c-0.991,-1.132 -2.229,-1.946 -3.715,-2.441c-1.486,-0.496 -2.689,-0.885 -3.609,-1.168c-0.92,-0.283 -1.557,-0.389 -1.911,-0.319l-0.212,0c-0.85,2.973 -1.593,5.839 -2.23,8.599c-0.636,2.76 -1.132,4.812 -1.486,6.157c-0.354,1.345 -0.672,2.653 -0.955,3.927c-0.283,1.274 -0.531,2.124 -0.743,2.548c-0.213,0.425 -0.46,0.884 -0.743,1.38c-0.283,0.495 -0.673,0.814 -1.168,0.955c-0.92,0.637 -1.911,0.956 -2.972,0.956c-1.203,-0 -2.123,-0.354 -2.76,-1.062c-0.637,-0.707 -0.955,-1.309 -0.955,-1.804c-0,-0.708 1.309,-6.37 3.927,-16.985c2.619,-10.615 5.202,-21.053 7.749,-31.315l3.928,-15.391c0.071,-0.921 -0.177,-1.487 -0.743,-1.699c-0.566,-0.213 -1.946,-0.389 -4.14,-0.531l-1.911,0c-0.212,0 -0.46,-0.106 -0.743,-0.318c-0.283,-0.212 -0.389,-0.46 -0.318,-0.743Z" style="fill:#ff5151;fill-rule:nonzero;stroke:#1e3a5f;stroke-width:1px;"/>
        </g>
    </g>
  <g>
        <g>
            <path id="MJX-21-TEX-N-301" serif:id="MJX-21-TEX-N-30" d="M1408.89,850.535c3.963,-5.733 9.376,-8.599 16.241,-8.599c3.397,-0 6.794,0.92 10.191,2.76c3.396,1.84 6.157,5.095 8.279,9.766c2.619,5.874 3.928,13.941 3.928,24.203c0,10.969 -1.521,19.355 -4.564,25.158c-1.416,2.972 -3.362,5.343 -5.839,7.112c-2.477,1.769 -4.635,2.866 -6.475,3.29c-1.84,0.425 -3.644,0.673 -5.414,0.744c-1.84,-0 -3.68,-0.212 -5.52,-0.637c-1.84,-0.425 -3.998,-1.557 -6.475,-3.397c-2.477,-1.84 -4.423,-4.211 -5.838,-7.112c-3.044,-5.803 -4.565,-14.189 -4.565,-25.158c-0,-12.314 2.017,-21.691 6.051,-28.13Zm23.884,-1.274c-2.123,-2.265 -4.636,-3.397 -7.537,-3.397c-2.972,-0 -5.52,1.132 -7.643,3.397c-1.769,1.84 -2.936,4.387 -3.503,7.643c-0.566,3.255 -0.849,10.048 -0.849,20.381c0,11.181 0.283,18.541 0.849,22.079c0.567,3.539 1.84,6.334 3.822,8.386c1.981,2.123 4.423,3.185 7.324,3.185c2.831,-0 5.237,-1.062 7.218,-3.185c2.053,-2.123 3.326,-5.095 3.822,-8.917c0.495,-3.821 0.778,-11.004 0.849,-21.548c0,-10.262 -0.283,-17.02 -0.849,-20.275c-0.566,-3.255 -1.734,-5.839 -3.503,-7.749Z" style="fill:#ff5151;fill-rule:nonzero;stroke:#1e3a5f;stroke-width:1px;"/>
        </g>
    </g>
  <path d="M778.343,434.809l-742.42,0" style="fill:none;stroke:#8dcc33;stroke-width:8.11px;stroke-linecap:round;stroke-miterlimit:1.5;"/>
  <path d="M1699.32,434.809l-742.421,0" style="fill:none;stroke:#8dcc33;stroke-width:8.11px;stroke-linecap:round;stroke-miterlimit:1.5;"/>
  <path d="M407.132,806.017l0,-742.421" style="fill:none;stroke:#8dcc33;stroke-width:8.11px;stroke-linecap:round;stroke-miterlimit:1.5;"/>
  <path d="M1328.11,806.017l-0,-742.421" style="fill:none;stroke:#8dcc33;stroke-width:8.11px;stroke-linecap:round;stroke-miterlimit:1.5;"/>
  <path d="M669.069,124.733l-665.013,460.834" style="fill:none;stroke:#ff5151;stroke-width:8.11px;stroke-linecap:round;stroke-miterlimit:1.5;"/>
  <path d="M1061.54,129.843l665.013,460.835" style="fill:none;stroke:#ff5151;stroke-width:8.11px;stroke-linecap:round;stroke-miterlimit:1.5;"/>
  <text x="484.378px" y="317.618px" style="font-family:'ArialMT', 'Arial', sans-serif;font-size:32.45px;fill:#8dcc33;stroke:#1e3a5f;stroke-width:1px;">must pass through</text>
  <text x="1374.98px" y="594.392px" style="font-family:'ArialMT', 'Arial', sans-serif;font-size:32.45px;fill:#8dcc33;stroke:#1e3a5f;stroke-width:1px;">must pass through</text>
  <text x="97.305px" y="585.929px" style="font-family:'ArialMT', 'Arial', sans-serif;font-size:32.45px;fill:#8dcc33;stroke:#1e3a5f;stroke-width:1px;">must pass through</text>
  <text x="1001.58px" y="331.826px" style="font-family:'ArialMT', 'Arial', sans-serif;font-size:32.45px;fill:#8dcc33;stroke:#1e3a5f;stroke-width:1px;">must pass through</text>
  <text x="199.849px" y="303.697px" style="font-family:'ArialMT', 'Arial', sans-serif;font-size:32.45px;fill:#8dcc33;stroke:#1e3a5f;stroke-width:1px;">maybe</text>
  <text x="1091.73px" y="586.821px" style="font-family:'ArialMT', 'Arial', sans-serif;font-size:32.45px;fill:#8dcc33;stroke:#1e3a5f;stroke-width:1px;">maybe</text>
  <text x="481.486px" y="584.594px" style="font-family:'ArialMT', 'Arial', sans-serif;font-size:32.45px;fill:#8dcc33;stroke:#1e3a5f;stroke-width:1px;">maybe</text>
  <text x="1464.81px" y="326.317px" style="font-family:'ArialMT', 'Arial', sans-serif;font-size:32.45px;fill:#8dcc33;stroke:#1e3a5f;stroke-width:1px;">maybe</text>
</svg>
