<?xml version="1.0" encoding="UTF-8" standalone="no"?>
<!DOCTYPE svg PUBLIC "-//W3C//DTD SVG 1.1//EN" "http://www.w3.org/Graphics/SVG/1.1/DTD/svg11.dtd">
<svg width="256" height="68" viewBox="0 0 953 173" version="1.1" xmlns="http://www.w3.org/2000/svg" xmlns:xlink="http://www.w3.org/1999/xlink" xml:space="preserve" xmlns:serif="http://www.serif.com/" style="fill-rule:evenodd;clip-rule:evenodd;stroke-linecap:round;stroke-linejoin:round;stroke-miterlimit:1.5;">
    <path d="M646.908,7.405l-310.863,157.579" style="fill:none;stroke:#8dcc33;stroke-width:14.81px;"/>
  <path d="M318.268,7.405l-310.863,157.579" style="fill:none;stroke:#8dcc33;stroke-width:14.81px;"/>
  <path d="M945.062,7.405l-310.862,157.579" style="fill:none;stroke:#8dcc33;stroke-width:14.81px;"/>
  <circle cx="491.402" cy="86.392" r="19.329" style="fill:#ff0;"/>
  <path d="M491.402,105.721c-10.668,-0 -19.329,-8.662 -19.329,-19.329c-0,-10.668 8.661,-19.328 19.329,-19.328c10.667,0 19.328,8.66 19.328,19.328c-0,10.667 -8.661,19.329 -19.328,19.329Zm0.012,-4.285c13.012,-0.263 19.029,-14.466 12.152,-23.894c-6.869,-9.414 -21.324,-7.747 -25.955,2.832c-4.045,9.239 2.052,20.825 13.778,21.062l0.025,0Z" style="fill:#f33;"/>
  <circle cx="113.394" cy="37.024" r="19.329" style="fill:#ff0;"/>
  <path d="M113.394,56.352c-10.669,-0 -19.329,-8.661 -19.329,-19.328c0,-10.668 8.66,-19.329 19.329,-19.329c10.667,-0 19.328,8.661 19.328,19.329c-0,10.667 -8.661,19.328 -19.328,19.328Zm0.012,-4.284c13.011,-0.263 19.029,-14.466 12.151,-23.894c-6.868,-9.415 -21.325,-7.747 -25.955,2.831c-4.045,9.241 2.053,20.826 13.779,21.063l0.025,0Z" style="fill:#f33;"/>
  <circle cx="838.224" cy="135.061" r="19.329" style="fill:#ff0;"/>
  <path d="M838.224,154.388c-10.668,0 -19.328,-8.66 -19.328,-19.327c0,-10.668 8.66,-19.329 19.328,-19.329c10.667,-0 19.329,8.661 19.329,19.329c-0,10.667 -8.662,19.327 -19.329,19.327Zm0.013,-4.283c13.011,-0.263 19.029,-14.466 12.151,-23.894c-6.869,-9.415 -21.324,-7.747 -25.955,2.83c-4.045,9.241 2.052,20.827 13.779,21.064l0.025,0Z" style="fill:#f33;"/>
</svg>
