<?xml version="1.0" encoding="UTF-8" standalone="no"?>
<!DOCTYPE svg PUBLIC "-//W3C//DTD SVG 1.1//EN" "http://www.w3.org/Graphics/SVG/1.1/DTD/svg11.dtd">
<svg width="410" height="170" viewBox="0 0 952 370" version="1.1" xmlns="http://www.w3.org/2000/svg" xmlns:xlink="http://www.w3.org/1999/xlink" xml:space="preserve" xmlns:serif="http://www.serif.com/" style="fill-rule:evenodd;clip-rule:evenodd;stroke-linecap:round;stroke-linejoin:round;stroke-miterlimit:1.5;">
    <path d="M404.981,31.975l-120.408,120.409" style="fill:none;stroke:#8dcc33;stroke-width:6.25px;"/>
  <path d="M915.886,31.975l-120.409,120.409" style="fill:none;stroke:#8dcc33;stroke-width:6.25px;"/>
  <path d="M217.722,219.235l-118.849,118.848" style="fill:none;stroke:#8dcc33;stroke-width:6.25px;"/>
  <path d="M728.626,219.235l-118.849,118.848" style="fill:none;stroke:#8dcc33;stroke-width:6.25px;"/>
  <path d="M218.602,151.68l-119.726,-119.725" style="fill:none;stroke:#8dcc33;stroke-width:6.25px;"/>
  <path d="M729.506,151.68l-119.725,-119.725" style="fill:none;stroke:#8dcc33;stroke-width:6.25px;"/>
  <path d="M404.985,338.064l-119.598,-119.598" style="fill:none;stroke:#8dcc33;stroke-width:6.25px;"/>
  <path d="M915.889,338.064l-119.597,-119.598" style="fill:none;stroke:#8dcc33;stroke-width:6.25px;"/>
  <g transform="matrix(45.8333,0,0,45.8333,86.9515,33.5763)">
    </g>
  <text x="-4.782px" y="33.576px" style="font-family:'ArialMT', 'Arial', sans-serif;font-size:45.833px;fill:#8dcc33;stroke:#1e3a5f;stroke-width:0.42px;stroke-linecap:butt;stroke-miterlimit:2;">10%</text>
  <g transform="matrix(45.8333,0,0,45.8333,597.856,33.5763)">
    </g>
  <text x="506.122px" y="33.576px" style="font-family:'ArialMT', 'Arial', sans-serif;font-size:45.833px;fill:#8dcc33;stroke:#1e3a5f;stroke-width:0.42px;stroke-linecap:butt;stroke-miterlimit:2;">15%</text>
  <g transform="matrix(45.8333,0,0,45.8333,442.551,33.6891)">
    </g>
  <text x="417.061px" y="33.689px" style="font-family:'ArialMT', 'Arial', sans-serif;font-size:45.833px;fill:#8dcc33;stroke:#1e3a5f;stroke-width:0.42px;stroke-linecap:butt;stroke-miterlimit:2;">3</text>
  <g transform="matrix(45.8333,0,0,45.8333,953.456,33.6891)">
    </g>
  <text x="927.966px" y="33.689px" style="font-family:'ArialMT', 'Arial', sans-serif;font-size:45.833px;fill:#8dcc33;stroke:#1e3a5f;stroke-width:0.42px;stroke-linecap:butt;stroke-miterlimit:2;">3</text>
  <g transform="matrix(45.8333,0,0,45.8333,443.089,368.916)">
    </g>
  <text x="417.599px" y="368.916px" style="font-family:'ArialMT', 'Arial', sans-serif;font-size:45.833px;fill:#8dcc33;stroke:#1e3a5f;stroke-width:0.42px;stroke-linecap:butt;stroke-miterlimit:2;">2</text>
  <g transform="matrix(45.8333,0,0,45.8333,953.993,368.916)">
    </g>
  <text x="928.503px" y="368.916px" style="font-family:'ArialMT', 'Arial', sans-serif;font-size:45.833px;fill:#8dcc33;stroke:#1e3a5f;stroke-width:0.42px;stroke-linecap:butt;stroke-miterlimit:2;">2</text>
  <g transform="matrix(45.8333,0,0,45.8333,284.967,201.302)">
    </g>
  <text x="218.724px" y="201.302px" style="font-family:'ArialMT', 'Arial', sans-serif;font-size:45.833px;fill:#8dcc33;stroke:#1e3a5f;stroke-width:0.42px;stroke-linecap:butt;stroke-miterlimit:2;">8%</text>
  <g transform="matrix(45.8333,0,0,45.8333,86.943,368.52)">
    </g>
  <text x="20.699px" y="368.52px" style="font-family:'ArialMT', 'Arial', sans-serif;font-size:45.833px;fill:#8dcc33;stroke:#1e3a5f;stroke-width:0.42px;stroke-linecap:butt;stroke-miterlimit:2;">5%</text>
  <g transform="matrix(45.8333,0,0,45.8333,597.863,368.52)">
    </g>
  <text x="506.129px" y="368.52px" style="font-family:'ArialMT', 'Arial', sans-serif;font-size:45.833px;fill:#8dcc33;stroke:#1e3a5f;stroke-width:0.42px;stroke-linecap:butt;stroke-miterlimit:2;">10%</text>
  <path d="M412.998,346.084l-13.808,-6.679l6.124,-0.887l1.004,-6.242l6.68,13.808Z" style="fill:#8dcc33;"/>
  <path d="M923.902,346.084l-13.808,-6.679l6.125,-0.887l1.004,-6.242l6.679,13.808Z" style="fill:#8dcc33;"/>
  <path d="M90.44,23.14l13.808,6.679l-6.242,1.004l-0.886,6.125l-6.68,-13.808Z" style="fill:#8dcc33;"/>
  <path d="M601.345,23.14l13.808,6.679l-6.242,1.004l-0.887,6.125l-6.679,-13.808Z" style="fill:#8dcc33;"/>
  <path d="M90.627,346.335l6.679,-13.808l0.887,6.125l6.241,1.004l-13.807,6.679Z" style="fill:#8dcc33;"/>
  <path d="M601.531,346.335l6.68,-13.808l0.886,6.125l6.242,1.004l-13.808,6.679Z" style="fill:#8dcc33;"/>
  <path d="M413.38,23.582l-6.679,13.808l-1.004,-6.242l-6.125,-0.887l13.808,-6.679Z" style="fill:#8dcc33;"/>
  <path d="M924.285,23.582l-6.68,13.808l-1.004,-6.242l-6.124,-0.887l13.808,-6.679Z" style="fill:#8dcc33;"/>
  <g>
        <text x="742.064px" y="199.761px" style="font-family:'PingFangSC-Medium', 'PingFang SC', sans-serif;font-weight:500;font-size:40.409px;fill:#9370db;stroke:#1e3a5f;stroke-width:0.42px;stroke-linecap:butt;stroke-miterlimit:2;">②</text>
    </g>
</svg>
