<?xml version="1.0" encoding="UTF-8" standalone="no"?>
<!DOCTYPE svg PUBLIC "-//W3C//DTD SVG 1.1//EN" "http://www.w3.org/Graphics/SVG/1.1/DTD/svg11.dtd">
<svg width="465" height="182" viewBox="0 0 1562 582" version="1.1" xmlns="http://www.w3.org/2000/svg" xmlns:xlink="http://www.w3.org/1999/xlink" xml:space="preserve" xmlns:serif="http://www.serif.com/" style="fill-rule:evenodd;clip-rule:evenodd;stroke-linecap:round;stroke-linejoin:round;stroke-miterlimit:1.5;">
    <path d="M153.376,435.532l0.494,55.984" style="fill:none;fill-rule:nonzero;stroke:#ff5151;stroke-width:8.4px;"/>
  <g>
        <path id="MJX-51-NCM-I-1D434" d="M1499.03,525.913c1.894,-0 8.422,0.316 10.421,0.316c1.58,-0 2.318,-0.843 2.318,-2.422c-0,-0.948 -0.632,-1.58 -2.002,-1.685c-3.053,-0.105 -4.526,-1.157 -4.526,-3.158c0,-0.947 0.948,-3.054 2.948,-6.212c2.842,-4.737 4.842,-8.212 6.212,-10.527l25.584,-0c-0,0.737 0.103,2.21 0.419,4.526c0.738,7.686 1.159,11.897 1.159,12.423c-0,2.002 -2.316,2.948 -7.054,2.948c-2,0 -2.948,0.843 -2.948,2.528c-0,1.052 0.632,1.579 1.896,1.579c2.526,-0 10.527,-0.316 13.054,-0.316c2.106,-0 9.58,0.316 11.687,0.316c1.579,-0 2.316,-0.843 2.316,-2.527c-0,-1.053 -0.948,-1.58 -2.843,-1.58c-2.947,0 -4.738,-0.211 -5.265,-0.525c-0.525,-0.316 -0.946,-1.264 -1.052,-2.844l-6.317,-65.063c-0.316,-2.001 -0.21,-2.842 -2.421,-2.842c-1.264,-0 -2.317,0.63 -3.053,2l-36.218,60.747c-3.158,5.263 -7.369,8.106 -12.527,8.527c-1.685,0.105 -2.528,0.948 -2.528,2.528c0,1.052 0.632,1.579 1.791,1.579c1.684,-0 7.263,-0.316 8.949,-0.316m37.375,-60.431l3.158,32.636l-22.636,0l19.478,-32.636Z" style="fill:#0dcaf2;fill-rule:nonzero;stroke:#1e3a5f;stroke-width:1.6px;stroke-linecap:butt;stroke-miterlimit:2;"/>
    </g>
  <g>
        <path id="MJX-51-NCM-I-1D436" d="M11.115,515.444c-0,-13.475 5.895,-27.162 12.528,-34.741c5.369,-6.212 14.634,-12.424 25.057,-12.424c10.949,0 16.319,8.317 16.319,19.687c0,0.948 -0.316,4.317 -0.316,5.265c0,0.947 0.632,1.473 2,1.473c0.527,0 0.948,-0.105 1.264,-0.21c0.525,-0.738 0.841,-1.473 1.052,-2.211l6.528,-26.635c-0,-0.948 -0.527,-1.475 -1.579,-1.475c-0.421,-0 -1.053,0.421 -1.896,1.369l-6.842,7.685c-4.106,-6.001 -9.897,-9.054 -17.372,-9.054c-5.791,-0 -11.476,1.369 -17.266,4.001c-11.686,5.474 -20.215,14.107 -25.689,25.898c-2.737,5.791 -4.105,11.686 -4.105,17.689c0,8.422 2.632,15.266 8.001,20.74c5.369,5.474 12.212,8.211 20.634,8.211c8.319,0 15.898,-3.053 22.742,-9.054c2.842,-2.421 5.263,-5.369 7.263,-8.633c2.843,-4.738 4.317,-8.002 4.317,-10.002c0,-0.948 -0.526,-1.473 -1.683,-1.473c-0.948,0 -1.475,0.42 -1.686,1.368c-2.21,6.844 -5.685,12.318 -10.422,16.214c-6.002,4.947 -12.318,7.474 -18.845,7.474c-12.634,-0 -20.004,-8.528 -20.004,-21.162Z" style="fill:#0dcaf2;fill-rule:nonzero;stroke:#1e3a5f;stroke-width:1.6px;stroke-linecap:butt;stroke-miterlimit:2;"/>
    </g>
  <g>
        <path id="MJX-51-NCM-I-1D437" d="M389.062,31.818l-34.954,-0c-2.421,-0 -3.578,0.105 -3.578,2.421c-0,1.159 1.157,1.686 3.472,1.686c2.107,-0 6.317,-0.316 6.317,1.367c0,0.211 -0.105,0.843 -0.419,1.896l-13.898,55.903c-0.527,2.318 -1.579,3.686 -3.159,4.212c-0.737,0.211 -2.632,0.316 -5.895,0.316c-2.316,0 -3.37,0.211 -3.37,2.421c0,1.159 1.159,1.686 3.37,1.686l34.427,-0c7.158,-0 14.002,-2.107 20.635,-6.423c11.264,-7.265 22.004,-21.477 22.004,-38.744c-0,-15.58 -9.581,-26.741 -24.952,-26.741m15.055,22.847c-0,11.896 -5.369,26.319 -10.843,33.374c-6.001,7.684 -13.898,11.58 -23.795,11.58l-11.686,0c-1.157,0 -1.895,0 -2.316,-0.105c-0.632,-0 -0.948,-0.211 -0.948,-0.527c0,-0.21 0.211,-0.946 0.527,-2.316l14.212,-57.167c0.948,-3.474 0.843,-3.579 5.265,-3.579l11.16,-0c11.791,-0 18.424,6.948 18.424,18.74Z" style="fill:#0dcaf2;fill-rule:nonzero;stroke:#1e3a5f;stroke-width:1.6px;stroke-linecap:butt;stroke-miterlimit:2;"/>
    </g>
  <g>
        <path id="MJX-51-NCM-I-1D438" d="M598.106,511.584c-0,1.053 1.159,1.58 3.369,1.58c4.212,-0 6.317,0.421 6.317,1.367c-0,0.316 -0.211,1.054 -0.527,2.423l-13.685,55.062c-0.527,2.316 -1.58,3.684 -3.159,4.21c-0.737,0.211 -2.632,0.316 -5.896,0.316c-2.315,0 -3.369,0.211 -3.369,2.422c0,1.158 1.159,1.685 3.369,1.685l54.009,-0c2.527,-0 2.737,-0.211 3.58,-2.001l4.212,-9.476c2.842,-6.526 4.842,-11.37 6.001,-14.634c-0.211,-0.946 -0.527,-1.578 -1.686,-1.578c-0.735,-0 -1.367,0.527 -1.789,1.473c-2.632,6.212 -5.158,10.95 -7.686,14.319c-4.21,5.685 -10.422,7.79 -20.319,7.79l-15.266,0c-1.053,0 -1.789,0 -2.21,-0.105c-0.632,0 -0.948,-0.211 -0.948,-0.527c0,-0.21 0.211,-0.946 0.527,-2.315l6.949,-28.111l10,0c4.949,0 7.581,0.632 8.108,2.002c0.211,0.525 0.316,1.262 0.316,2.315c-0,1.368 -0.211,3.054 -0.737,5.053c-0.211,0.527 -0.316,0.948 -0.316,1.264c-0,1.052 0.632,1.579 1.789,1.579c0.948,-0 1.58,-0.841 2.001,-2.421l5.896,-24.425c-0,-1.054 -0.527,-1.579 -1.686,-1.579c-0.841,0 -1.473,0.736 -1.789,2.211c-1.053,4.104 -2.421,6.738 -4.212,8c-1.789,1.264 -4.737,1.896 -9.054,1.896l-9.265,0l6.107,-24.53c0.842,-3.58 0.842,-3.685 5.265,-3.685l14.634,-0c5.369,-0 9.054,0.526 11.054,1.578c2.947,1.58 4.422,4.739 4.422,9.476c0,1.79 -0.105,3.685 -0.421,5.474c-0,0.211 -0,0.527 -0.106,0.948l0,0.948c0,1.157 0.527,1.684 1.579,1.684c1.053,-0 1.685,-0.947 1.896,-2.948l2.105,-18.003c0.316,-2.948 -0.421,-3.264 -3.264,-3.264l-52.535,0c-2.421,0 -3.58,0.105 -3.58,2.527Z" style="fill:#0dcaf2;fill-rule:nonzero;stroke:#1e3a5f;stroke-width:1.6px;stroke-linecap:butt;stroke-miterlimit:2;"/>
    </g>
  <g>
        <path d="M22.502,7.37c-1.816,0 -2.892,-0.033 -3.227,-0.1c-0.337,-0.067 -0.504,-0.437 -0.504,-1.109c-0,-1.817 0.368,-2.926 1.109,-3.33c0.067,-0.067 4.437,-0.1 13.111,-0.1c17.414,-0 26.592,0.067 27.534,0.201c4.236,0.674 7.766,2.187 10.59,4.539c2.823,2.354 4.269,5.446 4.336,9.279c-0,4.303 -1.949,8.17 -5.849,11.598c-3.899,3.43 -8.371,5.749 -13.415,6.959l-1.007,0.303c4.303,0.605 7.833,2.152 10.59,4.64c2.756,2.488 4.168,5.581 4.235,9.279c0,4.908 -2.421,9.648 -7.261,14.22c-4.841,4.573 -10.793,7.161 -17.852,7.766c-0.471,0.067 -7.565,0.101 -21.281,0.101c-13.448,-0 -20.272,-0.067 -20.473,-0.201c-0.27,-0.203 -0.404,-0.471 -0.404,-0.808c-0,-0.471 0.067,-0.941 0.201,-1.412c0.337,-1.277 0.674,-1.983 1.009,-2.118c0.269,-0.067 0.774,-0.101 1.513,-0.101l0.605,0c1.816,0 3.833,-0.1 6.052,-0.301c0.941,-0.203 1.58,-0.607 1.916,-1.212c0.202,-0.268 2.623,-9.614 7.262,-28.038c4.638,-18.423 6.959,-28.138 6.959,-29.146c-0,-0.471 -1.917,-0.774 -5.749,-0.909Zm42.158,9.38c0,-2.017 -0.504,-3.9 -1.513,-5.648c-1.008,-1.748 -2.655,-2.892 -4.942,-3.43c-0.471,-0.134 -3.564,-0.234 -9.278,-0.302l-4.237,0c-1.478,0 -2.656,0.034 -3.529,0.101l-1.312,0c-1.009,0.067 -1.647,0.404 -1.917,1.009c-0.134,0.268 -1.21,4.303 -3.227,12.102c0,0.203 -0.033,0.404 -0.101,0.605l-3.126,12.709l8.17,-0c5.445,-0 8.572,-0.067 9.38,-0.203c4.033,-0.672 7.63,-2.622 10.79,-5.849c3.16,-3.227 4.775,-6.925 4.842,-11.094Zm-5.447,31.77c0,-2.959 -0.772,-5.413 -2.319,-7.362c-1.546,-1.951 -3.564,-3.093 -6.052,-3.43c-0.404,-0.067 -3.193,-0.101 -8.371,-0.101c-7.934,0 -11.935,0.034 -12.002,0.101c0,0.134 -0.571,2.589 -1.714,7.362c-1.143,4.774 -2.32,9.514 -3.53,14.221l-1.815,7.06c0,0.27 0.402,0.404 1.21,0.404c0.806,0 3.53,0.067 8.17,0.201c5.983,0 9.21,-0.033 9.681,-0.1c4.169,-0.471 8.001,-2.421 11.498,-5.85c3.497,-3.429 5.244,-7.598 5.244,-12.506Z" style="fill:#0dcaf2;fill-rule:nonzero;stroke:#1e3a5f;stroke-width:1.32px;stroke-linecap:butt;stroke-linejoin:miter;stroke-miterlimit:4;"/>
    </g>
  <g>
        <g>
            <path id="MJX-163-NCM-I-1D439" d="M953.683,228.19c0,1.063 1.169,1.594 3.402,1.594c4.253,0 6.379,0.426 6.379,1.382c-0,0.32 -0.212,1.065 -0.532,2.447l-13.821,55.603c-0.637,2.34 -1.701,3.722 -3.189,4.253c-0.744,0.213 -2.659,0.32 -5.955,0.32c-2.338,-0 -3.401,0.212 -3.401,2.445c0,1.17 0.637,1.701 2.019,1.701l13.822,-0.319l15.735,0.319c1.701,0 2.552,-0.851 2.552,-2.447c-0,-1.806 -1.17,-1.699 -3.934,-1.699c-4.678,-0 -7.336,-0.214 -7.974,-0.746c-0.319,-0.105 -0.425,-0.531 -0.425,-1.063l6.804,-28.174l9.887,0c4.892,0 8.293,0.212 8.293,4.254c0,1.382 -0.212,3.083 -0.744,5.102c-0.107,0.319 -0.212,0.745 -0.319,1.17c0,1.17 0.532,1.701 1.702,1.701c0.531,-0.107 1.275,-0.851 2.02,-2.445l5.741,-22.858c0.212,-0.851 0.319,-1.489 0.319,-1.808c-0.319,-0.956 -0.958,-1.489 -1.701,-1.489c-0.851,-0 -1.489,0.85 -1.914,2.446c-1.063,4.04 -2.552,6.592 -4.253,7.867c-1.702,1.277 -4.678,1.914 -8.93,1.914l-9.038,-0l6.592,-26.154c0.85,-3.615 0.85,-3.722 5.316,-3.722l13.821,0c10.314,0 14.991,1.596 14.991,11.057c0,2.128 -0.107,4.041 -0.319,5.636c-0.107,1.17 -0.212,1.806 -0.212,1.913c-0,1.17 0.531,1.702 1.594,1.702c1.063,-0 1.702,-0.958 1.914,-2.977l2.126,-18.181c0.319,-2.977 -0.425,-3.296 -3.296,-3.296l-51.457,-0c-2.446,-0 -3.615,0.107 -3.615,2.552Z" style="fill:#0dcaf2;fill-rule:nonzero;stroke:#1e3a5f;stroke-width:1.32px;stroke-linecap:butt;stroke-miterlimit:2;"/>
        </g>
    </g>
  <path d="M1481.94,491.547l-1384.39,0" style="fill:none;fill-rule:nonzero;stroke:#0dcaf2;stroke-width:10.42px;"/>
  <path d="M97.262,46.216l1384.67,445.331" style="fill:none;fill-rule:nonzero;stroke:#0dcaf2;stroke-width:10.42px;"/>
  <path d="M97.262,491.547l260.754,-361.454" style="fill:none;fill-rule:nonzero;stroke:#8dcc33;stroke-width:10.42px;"/>
  <path d="M626.799,491.547l-268.783,-361.454" style="fill:none;fill-rule:nonzero;stroke:#8dcc33;stroke-width:10.42px;"/>
  <path d="M946.659,319.396l-319.857,172.151" style="fill:none;fill-rule:nonzero;stroke:#8dcc33;stroke-width:10.42px;"/>
  <path d="M153.364,434.643l-56.083,0.365" style="fill:none;fill-rule:nonzero;stroke:#ff5151;stroke-width:8.42px;"/>
  <path d="M97.262,46.216l-0,445.331" style="fill:none;fill-rule:nonzero;stroke:#8dcc33;stroke-width:10.42px;"/>
  <g>
        <path id="MJX-208-NCM-N-39" d="M110.738,407.488c-1.324,-0 -1.966,0.683 -1.966,2.047c0,3.009 2.448,4.455 5.618,4.455c3.21,-0 5.779,-1.606 7.664,-4.857c1.566,-2.687 2.369,-5.777 2.369,-9.229c-0,-5.097 -0.923,-8.708 -2.769,-10.836c-1.566,-1.805 -3.371,-2.687 -5.417,-2.687c-2.369,-0 -4.335,0.842 -5.901,2.568c-1.725,1.806 -2.568,3.972 -2.568,6.5c0,2.448 0.723,4.534 2.168,6.261c1.525,1.845 3.492,2.769 5.859,2.769c2.086,0 3.691,-1.123 4.775,-3.371l-0,0.521c-0,4.374 -0.763,7.345 -2.327,8.949c-1.245,1.324 -2.568,1.966 -3.893,1.966c-1.605,-0 -2.769,-0.361 -3.532,-1.124c1.245,0 1.887,-0.721 1.887,-1.966c-0,-1.124 -0.843,-1.966 -1.967,-1.966m5.096,-4.254c-1.564,0 -2.729,-0.802 -3.53,-2.406c-0.442,-0.924 -0.683,-2.73 -0.683,-5.339c0,-2.608 0.281,-4.373 0.803,-5.377c0.882,-1.606 2.167,-2.407 3.813,-2.407c1.644,0 2.849,1.003 3.61,3.009c0.442,1.083 0.723,2.93 0.723,5.538c-0,3.492 -1.566,6.982 -4.736,6.982Z" style="fill:#ff5151;fill-rule:nonzero;stroke:#1e3a5f;stroke-width:0.67px;stroke-linecap:butt;stroke-miterlimit:2;"/>
    <path id="MJX-208-NCM-N-30" d="M136.14,413.99c5.658,-0 8.467,-4.576 8.467,-13.724c0,-6.14 -1.285,-10.234 -3.813,-12.24c-1.404,-1.084 -2.968,-1.645 -4.614,-1.645c-5.658,-0 -8.466,4.614 -8.466,13.885c-0,7.383 1.966,13.724 8.426,13.724m4.495,-21.912c0.281,1.405 0.4,3.973 0.4,7.706c0,3.691 -0.159,6.421 -0.44,8.186c-0.522,3.209 -2.008,4.815 -4.455,4.815c-0.924,-0 -1.846,-0.361 -2.689,-1.042c-1.084,-0.924 -1.725,-2.811 -2.006,-5.7c-0.121,-1.002 -0.161,-3.09 -0.161,-6.259c-0,-3.492 0.121,-5.939 0.321,-7.264c0.362,-2.207 1.083,-3.611 2.207,-4.213c0.884,-0.482 1.645,-0.723 2.328,-0.723c2.608,-0 4.053,2.127 4.495,4.494Z" style="fill:#ff5151;fill-rule:nonzero;stroke:#1e3a5f;stroke-width:0.67px;stroke-linecap:butt;stroke-miterlimit:2;"/>
    </g>
  <g>
        <path id="MJX-208-NCM-N-2218" d="M157.637,389.44c-0,-1.419 -0.255,-2.014 -1.248,-3.007c-0.824,-0.823 -1.845,-1.248 -3.009,-1.248c-2.325,0 -4.255,1.928 -4.255,4.255c0,2.327 1.93,4.257 4.255,4.257c2.327,-0 4.257,-1.93 4.257,-4.257m-1.334,0c-0,1.192 -0.17,1.419 -0.851,2.072c-0.568,0.566 -1.248,0.85 -2.072,0.85c-1.616,0 -2.922,-1.305 -2.922,-2.922c0,-1.617 1.306,-2.922 2.922,-2.922c1.619,-0 2.923,1.305 2.923,2.922Z" style="fill:#ff5151;fill-rule:nonzero;stroke:#1e3a5f;stroke-width:0.67px;stroke-linecap:butt;stroke-miterlimit:2;"/>
    </g>
  <g>
        <path id="MJX-208-NCM-N-34" d="M126.394,76.089c-0.473,0 -0.893,0.262 -1.207,0.735l-15.839,24.334l0,1.888l13.689,-0l0,4.301c0,0.943 -0.21,1.574 -0.578,1.836c-0.367,0.261 -1.362,0.367 -3.094,0.367l-1.31,-0l-0,2.046c1.521,-0.106 3.932,-0.158 7.185,-0.158c3.251,-0 5.664,0.052 7.185,0.158l-0,-2.046l-1.312,-0c-1.73,-0 -2.728,-0.106 -3.095,-0.367c-0.367,-0.262 -0.576,-0.893 -0.576,-1.836l0,-4.301l5.139,-0l0,-2.045l-5.139,0l0,-24.021c0,-0.523 -0.367,-0.891 -1.048,-0.891m-3.042,6.504l-0,18.408l-11.959,0l11.959,-18.408Z" style="fill:#ff7faf;fill-rule:nonzero;stroke:#1e3a5f;stroke-width:0.67px;stroke-linecap:butt;stroke-miterlimit:2;"/>
    </g>
  <g>
        <path id="MJX-208-NCM-I-1D465" d="M161.742,92.032c-0,-2.412 -2.361,-3.618 -4.983,-3.618c-2.255,-0 -4.038,1.206 -5.402,3.618c-1.102,-2.412 -2.937,-3.618 -5.612,-3.618c-2.569,-0 -4.667,1.206 -6.346,3.567c-1.415,2.044 -2.149,3.565 -2.149,4.561c-0,0.473 0.261,0.736 0.786,0.736c0.471,-0 0.787,-0.263 0.891,-0.736c0.998,-3.04 3.2,-6.607 6.714,-6.607c1.73,-0 2.57,1.101 2.57,3.251c-0,1.101 -0.945,5.193 -2.78,12.22c-0.892,3.515 -2.465,5.245 -4.72,5.245c-0.734,-0 -1.417,-0.158 -1.993,-0.42c1.363,-0.523 2.044,-1.468 2.044,-2.831c0,-1.365 -0.681,-2.046 -2.097,-2.046c-1.73,-0 -3.042,1.468 -3.042,3.2c0,2.411 2.466,3.618 5.036,3.618c2.202,-0 3.985,-1.207 5.401,-3.618c0.997,2.411 2.885,3.618 5.613,3.618c2.517,-0 4.614,-1.207 6.293,-3.567c1.415,-2.045 2.15,-3.566 2.15,-4.562c-0,-0.472 -0.262,-0.734 -0.787,-0.734c-0.473,0 -0.734,0.262 -0.891,0.734c-0.892,2.99 -3.253,6.608 -6.662,6.608c-1.73,-0 -2.622,-1.049 -2.622,-3.199c0,-0.683 0.264,-2.151 0.84,-4.511l1.782,-7.08c0.998,-3.933 2.623,-5.926 4.93,-5.926c0.735,-0 1.416,0.158 1.994,0.419c-1.416,0.473 -2.099,1.416 -2.099,2.832c0,1.364 0.734,2.046 2.152,2.046c1.677,-0 2.989,-1.521 2.989,-3.2Z" style="fill:#ff7faf;fill-rule:nonzero;stroke:#1e3a5f;stroke-width:0.67px;stroke-linecap:butt;stroke-miterlimit:2;"/>
    </g>
  <g>
        <path id="MJX-208-NCM-N-341" serif:id="MJX-208-NCM-N-34" d="M291.213,121.109c-0.473,0 -0.893,0.262 -1.207,0.735l-15.839,24.334l0,1.888l13.689,-0l0,4.301c0,0.943 -0.21,1.572 -0.578,1.835c-0.367,0.262 -1.363,0.368 -3.094,0.368l-1.311,-0l0,2.044c1.521,-0.104 3.933,-0.156 7.186,-0.156c3.251,-0 5.664,0.052 7.185,0.156l-0,-2.044l-1.312,-0c-1.73,-0 -2.728,-0.106 -3.095,-0.368c-0.367,-0.263 -0.576,-0.892 -0.576,-1.835l0,-4.301l5.139,-0l0,-2.045l-5.139,0l0,-24.021c0,-0.524 -0.367,-0.891 -1.048,-0.891m-3.042,6.503l-0,18.409l-11.958,0l11.958,-18.409Z" style="fill:#ff7faf;fill-rule:nonzero;stroke:#1e3a5f;stroke-width:0.67px;stroke-linecap:butt;stroke-miterlimit:2;"/>
    </g>
  <g>
        <path id="MJX-208-NCM-I-1D4651" serif:id="MJX-208-NCM-I-1D465" d="M326.561,137.052c-0,-2.412 -2.361,-3.618 -4.983,-3.618c-2.255,-0 -4.038,1.206 -5.402,3.618c-1.102,-2.412 -2.937,-3.618 -5.612,-3.618c-2.569,-0 -4.667,1.206 -6.346,3.565c-1.415,2.046 -2.149,3.567 -2.149,4.563c-0,0.473 0.261,0.734 0.786,0.734c0.473,0 0.787,-0.261 0.891,-0.734c0.997,-3.042 3.2,-6.607 6.714,-6.607c1.73,-0 2.57,1.101 2.57,3.251c-0,1.101 -0.945,5.192 -2.78,12.22c-0.891,3.513 -2.465,5.245 -4.72,5.245c-0.734,-0 -1.417,-0.158 -1.993,-0.42c1.363,-0.525 2.046,-1.468 2.046,-2.831c-0,-1.365 -0.683,-2.046 -2.099,-2.046c-1.73,-0 -3.042,1.468 -3.042,3.198c0,2.413 2.466,3.62 5.036,3.62c2.202,-0 3.985,-1.207 5.402,-3.62c0.996,2.413 2.884,3.62 5.612,3.62c2.517,-0 4.614,-1.207 6.293,-3.567c1.415,-2.045 2.149,-3.566 2.149,-4.563c0,-0.471 -0.261,-0.734 -0.786,-0.734c-0.471,-0 -0.735,0.263 -0.891,0.734c-0.892,2.991 -3.253,6.609 -6.662,6.609c-1.73,-0 -2.622,-1.049 -2.622,-3.2c0,-0.682 0.263,-2.15 0.84,-4.51l1.782,-7.08c0.998,-3.933 2.623,-5.926 4.93,-5.926c0.735,-0 1.416,0.156 1.994,0.419c-1.416,0.473 -2.097,1.416 -2.097,2.832c-0,1.364 0.734,2.046 2.149,2.046c1.678,-0 2.99,-1.521 2.99,-3.2Z" style="fill:#ff7faf;fill-rule:nonzero;stroke:#1e3a5f;stroke-width:0.67px;stroke-linecap:butt;stroke-miterlimit:2;"/>
    </g>
  <g>
        <path id="MJX-208-NCM-N-33" d="M544.839,460.116c3.46,-1.311 6.713,-4.614 6.713,-9.073c0,-2.256 -1.101,-4.091 -3.253,-5.507c-1.888,-1.206 -4.037,-1.835 -6.451,-1.835c-2.358,-0 -4.405,0.629 -6.24,1.835c-2.046,1.363 -3.095,3.148 -3.095,5.403c0,1.73 1.154,2.936 2.833,2.936c1.678,0 2.832,-1.206 2.832,-2.884c-0,-1.731 -0.996,-2.674 -2.99,-2.78c1.365,-1.835 3.515,-2.78 6.451,-2.78c3.148,0 4.721,1.835 4.721,5.56c0,2.203 -0.419,4.038 -1.206,5.559c-1.418,2.517 -3.357,2.99 -6.609,2.99c-0.629,0.105 -0.944,0.367 -0.944,0.839c0,0.787 0.368,0.787 1.416,0.787l2.255,-0c3.934,-0 5.926,2.779 5.926,8.39c0,4.458 -1.625,8.339 -5.611,8.339c-3.409,0 -5.926,-1.154 -7.447,-3.461c1.835,0.052 3.198,-1.311 3.198,-3.094c0,-1.784 -1.31,-3.094 -3.093,-3.094c-2.046,-0 -3.095,1.048 -3.095,3.198c0,2.57 1.154,4.616 3.462,6.242c2.045,1.416 4.458,2.097 7.133,2.097c2.989,0 5.559,-0.996 7.814,-2.936c2.255,-1.941 3.356,-4.353 3.356,-7.291c0,-4.93 -3.881,-8.339 -8.076,-9.44Z" style="fill:#ff7faf;fill-rule:nonzero;stroke:#1e3a5f;stroke-width:0.67px;stroke-linecap:butt;stroke-miterlimit:2;"/>
    </g>
  <g>
        <path id="MJX-208-NCM-I-1D4652" serif:id="MJX-208-NCM-I-1D465" d="M582.81,459.067c-0,-2.411 -2.361,-3.618 -4.983,-3.618c-2.255,0 -4.038,1.207 -5.402,3.618c-1.102,-2.411 -2.937,-3.618 -5.612,-3.618c-2.57,0 -4.667,1.207 -6.346,3.566c-1.415,2.046 -2.149,3.567 -2.149,4.563c-0,0.472 0.261,0.734 0.786,0.734c0.471,-0 0.787,-0.262 0.891,-0.734c0.997,-3.042 3.2,-6.608 6.713,-6.608c1.731,0 2.571,1.101 2.571,3.251c-0,1.101 -0.945,5.192 -2.78,12.221c-0.893,3.513 -2.465,5.244 -4.72,5.244c-0.734,0 -1.417,-0.158 -1.993,-0.42c1.363,-0.525 2.044,-1.468 2.044,-2.832c0,-1.363 -0.681,-2.045 -2.097,-2.045c-1.73,0 -3.042,1.468 -3.042,3.198c0,2.414 2.466,3.62 5.036,3.62c2.202,0 3.985,-1.206 5.4,-3.62c0.998,2.414 2.886,3.62 5.612,3.62c2.518,0 4.616,-1.206 6.295,-3.567c1.415,-2.044 2.149,-3.565 2.149,-4.563c0,-0.471 -0.261,-0.734 -0.786,-0.734c-0.473,-0 -0.735,0.263 -0.891,0.734c-0.892,2.989 -3.253,6.609 -6.662,6.609c-1.73,0 -2.622,-1.048 -2.622,-3.2c0,-0.681 0.262,-2.15 0.84,-4.51l1.782,-7.08c0.998,-3.934 2.623,-5.926 4.93,-5.926c0.735,0 1.416,0.156 1.994,0.42c-1.416,0.471 -2.099,1.415 -2.099,2.831c0,1.363 0.734,2.046 2.151,2.046c1.678,0 2.99,-1.521 2.99,-3.2Z" style="fill:#ff7faf;fill-rule:nonzero;stroke:#1e3a5f;stroke-width:0.67px;stroke-linecap:butt;stroke-miterlimit:2;"/>
    </g>
  <g>
        <path id="MJX-208-NCM-N-331" serif:id="MJX-208-NCM-N-33" d="M182.118,456.898c3.46,-1.312 6.713,-4.615 6.713,-9.073c-0,-2.255 -1.101,-4.091 -3.253,-5.508c-1.888,-1.205 -4.038,-1.835 -6.449,-1.835c-2.361,-0 -4.407,0.63 -6.242,1.835c-2.045,1.365 -3.095,3.148 -3.095,5.403c0,1.73 1.154,2.936 2.833,2.936c1.677,0 2.831,-1.206 2.831,-2.884c0,-1.73 -0.996,-2.675 -2.989,-2.78c1.365,-1.835 3.514,-2.779 6.451,-2.779c3.147,0 4.721,1.836 4.721,5.559c-0,2.203 -0.42,4.038 -1.207,5.559c-1.415,2.517 -3.356,2.99 -6.609,2.99c-0.628,0.105 -0.943,0.367 -0.943,0.839c0,0.787 0.367,0.787 1.416,0.787l2.255,-0c3.934,-0 5.926,2.78 5.926,8.392c-0,4.457 -1.625,8.337 -5.612,8.337c-3.409,0 -5.926,-1.152 -7.447,-3.46c1.836,0.053 3.2,-1.312 3.2,-3.095c0,-1.782 -1.312,-3.094 -3.094,-3.094c-2.046,-0 -3.095,1.048 -3.095,3.2c0,2.569 1.154,4.614 3.462,6.24c2.044,1.416 4.457,2.097 7.132,2.097c2.99,0 5.559,-0.996 7.814,-2.936c2.255,-1.941 3.357,-4.353 3.357,-7.289c-0,-4.93 -3.882,-8.339 -8.076,-9.441Z" style="fill:#ff7faf;fill-rule:nonzero;stroke:#1e3a5f;stroke-width:0.67px;stroke-linecap:butt;stroke-miterlimit:2;"/>
    </g>
  <g>
        <path id="MJX-208-NCM-I-1D4653" serif:id="MJX-208-NCM-I-1D465" d="M220.088,455.848c0,-2.411 -2.36,-3.618 -4.982,-3.618c-2.255,-0 -4.038,1.207 -5.403,3.618c-1.101,-2.411 -2.936,-3.618 -5.611,-3.618c-2.57,-0 -4.667,1.207 -6.346,3.567c-1.416,2.045 -2.15,3.565 -2.15,4.563c0,0.471 0.262,0.734 0.787,0.734c0.471,0 0.787,-0.263 0.891,-0.734c0.997,-3.042 3.2,-6.609 6.714,-6.609c1.73,-0 2.57,1.101 2.57,3.251c-0,1.101 -0.945,5.193 -2.781,12.221c-0.892,3.514 -2.464,5.244 -4.719,5.244c-0.734,0 -1.417,-0.158 -1.993,-0.42c1.363,-0.523 2.044,-1.468 2.044,-2.831c-0,-1.365 -0.681,-2.046 -2.097,-2.046c-1.73,-0 -3.042,1.468 -3.042,3.2c-0,2.411 2.466,3.618 5.035,3.618c2.203,0 3.985,-1.207 5.401,-3.618c0.998,2.411 2.886,3.618 5.613,3.618c2.517,0 4.614,-1.207 6.293,-3.567c1.416,-2.045 2.15,-3.566 2.15,-4.561c0,-0.473 -0.262,-0.735 -0.787,-0.735c-0.472,0 -0.734,0.262 -0.89,0.735c-0.892,2.989 -3.253,6.607 -6.662,6.607c-1.73,0 -2.622,-1.049 -2.622,-3.198c-0,-0.683 0.263,-2.152 0.839,-4.511l1.783,-7.081c0.997,-3.933 2.622,-5.926 4.93,-5.926c0.734,-0 1.416,0.158 1.993,0.42c-1.415,0.472 -2.098,1.415 -2.098,2.831c-0,1.365 0.734,2.046 2.151,2.046c1.678,0 2.989,-1.521 2.989,-3.2Z" style="fill:#ff7faf;fill-rule:nonzero;stroke:#1e3a5f;stroke-width:0.67px;stroke-linecap:butt;stroke-miterlimit:2;"/>
    </g>
  <g>
        <path id="MJX-208-NCM-N-32" d="M430.81,165.023c-2.675,0 -4.93,0.944 -6.871,2.832c-1.941,1.888 -2.937,4.09 -2.937,6.765c0,1.784 1.311,3.095 2.937,3.095c1.574,-0 2.884,-1.363 2.884,-2.937c0,-1.732 -1.258,-2.937 -2.937,-2.937c-0.156,0 -0.261,0 -0.367,0.052c0.998,-2.57 3.304,-4.825 6.609,-4.825c4.3,-0 6.713,3.723 6.713,8.234c0,3.514 -1.783,7.29 -5.35,11.277l-9.86,11.118c-0.681,0.787 -0.629,0.734 -0.629,2.255l19.457,-0l1.521,-9.441l-1.73,0c-0.42,2.675 -0.787,4.196 -1.101,4.669c-0.263,0.262 -1.835,0.367 -4.721,0.367l-8.757,-0l5.086,-4.983c3.567,-3.356 8.078,-6.976 9.599,-9.755c1.048,-1.835 1.572,-3.67 1.572,-5.507c-0,-6.188 -4.825,-10.279 -11.118,-10.279Z" style="fill:#ff7faf;fill-rule:nonzero;stroke:#1e3a5f;stroke-width:0.67px;stroke-linecap:butt;stroke-miterlimit:2;"/>
    </g>
  <g>
        <path id="MJX-208-NCM-I-1D4654" serif:id="MJX-208-NCM-I-1D465" d="M472.242,180.39c0,-2.414 -2.36,-3.618 -4.983,-3.618c-2.255,-0 -4.038,1.204 -5.402,3.618c-1.101,-2.414 -2.937,-3.618 -5.612,-3.618c-2.569,-0 -4.666,1.204 -6.345,3.565c-1.416,2.046 -2.15,3.567 -2.15,4.563c-0,0.472 0.262,0.734 0.787,0.734c0.472,0 0.787,-0.262 0.89,-0.734c0.998,-3.042 3.2,-6.607 6.715,-6.607c1.73,-0 2.569,1.101 2.569,3.251c0,1.101 -0.945,5.191 -2.78,12.219c-0.891,3.514 -2.464,5.246 -4.719,5.246c-0.735,-0 -1.418,-0.158 -1.994,-0.42c1.363,-0.525 2.046,-1.468 2.046,-2.833c0,-1.363 -0.683,-2.045 -2.098,-2.045c-1.731,0 -3.042,1.469 -3.042,3.199c-0,2.413 2.465,3.618 5.035,3.618c2.202,-0 3.985,-1.205 5.402,-3.618c0.996,2.413 2.884,3.618 5.612,3.618c2.517,-0 4.614,-1.205 6.293,-3.565c1.416,-2.047 2.15,-3.568 2.15,-4.563c-0,-0.473 -0.262,-0.735 -0.787,-0.735c-0.471,0 -0.734,0.262 -0.891,0.735c-0.892,2.989 -3.252,6.609 -6.661,6.609c-1.73,-0 -2.623,-1.051 -2.623,-3.2c0,-0.682 0.264,-2.15 0.84,-4.511l1.783,-7.08c0.997,-3.934 2.622,-5.925 4.93,-5.925c0.734,-0 1.415,0.156 1.993,0.418c-1.416,0.472 -2.097,1.417 -2.097,2.833c-0,1.363 0.734,2.044 2.15,2.044c1.677,0 2.989,-1.521 2.989,-3.198Z" style="fill:#ff7faf;fill-rule:nonzero;stroke:#1e3a5f;stroke-width:0.67px;stroke-linecap:butt;stroke-miterlimit:2;"/>
    </g>
  <g>
        <path id="MJX-208-NCM-N-321" serif:id="MJX-208-NCM-N-32" d="M854.739,301.485c-2.674,-0 -4.93,0.944 -6.87,2.832c-1.941,1.889 -2.937,4.091 -2.937,6.766c0,1.783 1.31,3.095 2.937,3.095c1.573,-0 2.884,-1.365 2.884,-2.939c-0,-1.73 -1.258,-2.936 -2.937,-2.936c-0.156,-0 -0.262,-0 -0.367,0.052c0.997,-2.569 3.304,-4.824 6.609,-4.824c4.3,-0 6.713,3.723 6.713,8.233c-0,3.515 -1.783,7.291 -5.35,11.276l-9.86,11.119c-0.682,0.786 -0.629,0.735 -0.629,2.256l19.457,-0l1.521,-9.441l-1.73,0c-0.42,2.675 -0.787,4.195 -1.101,4.667c-0.264,0.263 -1.836,0.367 -4.721,0.367l-8.759,0l5.088,-4.983c3.565,-3.356 8.077,-6.974 9.597,-9.754c1.05,-1.836 1.573,-3.671 1.573,-5.507c0,-6.189 -4.825,-10.279 -11.118,-10.279Z" style="fill:#ff7faf;fill-rule:nonzero;stroke:#1e3a5f;stroke-width:0.67px;stroke-linecap:butt;stroke-miterlimit:2;"/>
    </g>
  <g>
        <path id="MJX-208-NCM-I-1D4655" serif:id="MJX-208-NCM-I-1D465" d="M896.172,316.852c-0,-2.413 -2.361,-3.619 -4.983,-3.619c-2.255,-0 -4.038,1.206 -5.403,3.619c-1.101,-2.413 -2.936,-3.619 -5.611,-3.619c-2.57,-0 -4.667,1.206 -6.346,3.567c-1.415,2.044 -2.15,3.565 -2.15,4.563c0,0.471 0.262,0.734 0.787,0.734c0.471,-0 0.787,-0.263 0.891,-0.734c0.997,-3.042 3.2,-6.609 6.714,-6.609c1.73,-0 2.57,1.101 2.57,3.251c-0,1.103 -0.945,5.193 -2.781,12.22c-0.892,3.515 -2.464,5.245 -4.719,5.245c-0.734,-0 -1.417,-0.158 -1.993,-0.42c1.363,-0.523 2.046,-1.468 2.046,-2.831c-0,-1.365 -0.683,-2.046 -2.099,-2.046c-1.73,-0 -3.042,1.468 -3.042,3.2c0,2.411 2.466,3.618 5.035,3.618c2.203,-0 3.986,-1.207 5.401,-3.618c0.998,2.411 2.886,3.618 5.613,3.618c2.517,-0 4.614,-1.207 6.293,-3.566c1.416,-2.046 2.15,-3.567 2.15,-4.563c0,-0.472 -0.261,-0.734 -0.787,-0.734c-0.472,0 -0.734,0.262 -0.89,0.734c-0.892,2.99 -3.253,6.608 -6.662,6.608c-1.73,-0 -2.622,-1.049 -2.622,-3.199c-0,-0.683 0.263,-2.151 0.839,-4.51l1.783,-7.081c0.998,-3.933 2.622,-5.926 4.93,-5.926c0.734,-0 1.416,0.158 1.994,0.419c-1.416,0.473 -2.099,1.416 -2.099,2.832c-0,1.364 0.736,2.046 2.151,2.046c1.678,-0 2.99,-1.521 2.99,-3.199Z" style="fill:#ff7faf;fill-rule:nonzero;stroke:#1e3a5f;stroke-width:0.67px;stroke-linecap:butt;stroke-miterlimit:2;"/>
    </g>
  <path id="MJX-208-NCM-I-1D4656" serif:id="MJX-208-NCM-I-1D465" d="M724.828,462.658c0,-2.411 -2.36,-3.618 -4.982,-3.618c-2.256,0 -4.038,1.207 -5.403,3.618c-1.101,-2.411 -2.937,-3.618 -5.611,-3.618c-2.57,0 -4.667,1.207 -6.346,3.567c-1.416,2.045 -2.15,3.566 -2.15,4.562c0,0.472 0.262,0.735 0.787,0.735c0.471,0 0.787,-0.263 0.89,-0.735c0.998,-3.041 3.2,-6.608 6.713,-6.608c1.732,0 2.571,1.101 2.571,3.251c0,1.101 -0.944,5.194 -2.78,12.221c-0.892,3.514 -2.464,5.244 -4.719,5.244c-0.734,0 -1.418,-0.158 -1.994,-0.42c1.363,-0.523 2.045,-1.468 2.045,-2.831c-0,-1.364 -0.682,-2.046 -2.097,-2.046c-1.73,0 -3.042,1.468 -3.042,3.2c-0,2.412 2.466,3.618 5.035,3.618c2.203,0 3.985,-1.206 5.401,-3.618c0.997,2.412 2.886,3.618 5.611,3.618c2.519,0 4.616,-1.206 6.295,-3.567c1.416,-2.044 2.15,-3.565 2.15,-4.561c-0,-0.473 -0.262,-0.734 -0.787,-0.734c-0.472,-0 -0.734,0.261 -0.89,0.734c-0.893,2.989 -3.253,6.607 -6.662,6.607c-1.73,0 -2.622,-1.048 -2.622,-3.198c-0,-0.683 0.261,-2.152 0.839,-4.511l1.783,-7.081c0.997,-3.933 2.622,-5.926 4.93,-5.926c0.734,0 1.416,0.158 1.993,0.42c-1.415,0.472 -2.098,1.415 -2.098,2.831c-0,1.365 0.734,2.046 2.151,2.046c1.677,0 2.989,-1.521 2.989,-3.2Z" style="fill:#ff7faf;fill-rule:nonzero;stroke:#1e3a5f;stroke-width:0.67px;stroke-linecap:butt;stroke-miterlimit:2;"/>
  <path id="MJX-208-NCM-I-1D4657" serif:id="MJX-208-NCM-I-1D465" d="M1359.49,463.196c0,-2.411 -2.36,-3.618 -4.982,-3.618c-2.255,-0 -4.038,1.207 -5.403,3.618c-1.101,-2.411 -2.936,-3.618 -5.611,-3.618c-2.57,-0 -4.667,1.207 -6.346,3.565c-1.416,2.046 -2.15,3.567 -2.15,4.563c0,0.473 0.262,0.735 0.787,0.735c0.472,-0 0.787,-0.262 0.891,-0.735c0.997,-3.042 3.2,-6.607 6.714,-6.607c1.73,-0 2.57,1.101 2.57,3.251c-0,1.101 -0.945,5.192 -2.781,12.221c-0.89,3.512 -2.464,5.244 -4.719,5.244c-0.734,0 -1.417,-0.158 -1.993,-0.42c1.363,-0.525 2.046,-1.468 2.046,-2.833c-0,-1.363 -0.683,-2.044 -2.099,-2.044c-1.73,-0 -3.042,1.468 -3.042,3.198c-0,2.413 2.466,3.62 5.035,3.62c2.203,0 3.986,-1.207 5.401,-3.62c0.998,2.413 2.886,3.62 5.613,3.62c2.517,0 4.614,-1.207 6.293,-3.567c1.416,-2.045 2.15,-3.566 2.15,-4.563c0,-0.472 -0.262,-0.734 -0.787,-0.734c-0.472,-0 -0.734,0.262 -0.89,0.734c-0.892,2.989 -3.253,6.609 -6.662,6.609c-1.73,0 -2.622,-1.05 -2.622,-3.2c-0,-0.681 0.263,-2.15 0.839,-4.51l1.783,-7.08c0.998,-3.934 2.622,-5.926 4.93,-5.926c0.734,-0 1.416,0.156 1.993,0.42c-1.415,0.471 -2.098,1.415 -2.098,2.831c-0,1.363 0.735,2.046 2.151,2.046c1.678,0 2.989,-1.521 2.989,-3.2Z" style="fill:#ff7faf;fill-rule:nonzero;stroke:#1e3a5f;stroke-width:0.67px;stroke-linecap:butt;stroke-miterlimit:2;"/>
  <path d="M946.679,319.401l535.257,172.146" style="fill:none;fill-rule:nonzero;stroke:#8dcc33;stroke-width:10.42px;"/>
</svg>
