<?xml version="1.0" encoding="UTF-8" standalone="no"?>
<!DOCTYPE svg PUBLIC "-//W3C//DTD SVG 1.1//EN" "http://www.w3.org/Graphics/SVG/1.1/DTD/svg11.dtd">
<svg width="256" height="188" viewBox="0 0 790 546" version="1.1" xmlns="http://www.w3.org/2000/svg" xmlns:xlink="http://www.w3.org/1999/xlink" xml:space="preserve" xmlns:serif="http://www.serif.com/" style="fill-rule:evenodd;clip-rule:evenodd;stroke-linejoin:round;stroke-miterlimit:2;">
    <g>
        <g>
            <path id="MJX-51-NCM-I-1D434" d="M12.132,86.479c1.112,-0 4.939,0.185 6.112,0.185c0.926,0 1.358,-0.494 1.358,-1.42c0,-0.555 -0.37,-0.926 -1.173,-0.988c-1.79,-0.061 -2.654,-0.679 -2.654,-1.852c-0,-0.555 0.555,-1.79 1.728,-3.642c1.667,-2.778 2.84,-4.815 3.643,-6.174l15.001,0c0,0.433 0.062,1.297 0.247,2.655c0.432,4.507 0.679,6.976 0.679,7.285c0,1.173 -1.358,1.728 -4.136,1.728c-1.173,0 -1.728,0.494 -1.728,1.482c-0,0.617 0.37,0.926 1.111,0.926c1.481,0 6.173,-0.185 7.655,-0.185c1.235,-0 5.618,0.185 6.853,0.185c0.926,0 1.358,-0.494 1.358,-1.482c-0,-0.617 -0.556,-0.926 -1.667,-0.926c-1.729,0 -2.778,-0.123 -3.087,-0.308c-0.309,-0.185 -0.556,-0.741 -0.617,-1.667l-3.704,-38.152c-0.186,-1.173 -0.124,-1.667 -1.42,-1.667c-0.741,-0 -1.358,0.37 -1.791,1.173l-21.236,35.621c-1.852,3.087 -4.322,4.753 -7.347,5c-0.988,0.062 -1.481,0.556 -1.481,1.482c-0,0.617 0.37,0.926 1.049,0.926c0.988,0 4.26,-0.185 5.247,-0.185m21.916,-35.436l1.852,19.138l-13.273,-0l11.421,-19.138Z" style="fill:#0dcaf2;fill-rule:nonzero;stroke:#1e3a5f;stroke-width:1px;"/>
        </g>
    </g>
  <g>
        <g>
            <path id="MJX-51-NCM-I-1D436" d="M747.847,490.839c-0,-7.902 3.457,-15.928 7.346,-20.373c3.149,-3.642 8.581,-7.284 14.693,-7.284c6.421,-0 9.569,4.877 9.569,11.544c0,0.556 -0.185,2.531 -0.185,3.087c-0,0.556 0.37,0.864 1.173,0.864c0.309,0 0.556,-0.062 0.741,-0.123c0.308,-0.432 0.494,-0.865 0.617,-1.297l3.828,-15.619c-0,-0.555 -0.309,-0.864 -0.926,-0.864c-0.247,0 -0.618,0.247 -1.112,0.803l-4.012,4.506c-2.408,-3.519 -5.803,-5.309 -10.187,-5.309c-3.395,0 -6.729,0.803 -10.124,2.346c-6.853,3.21 -11.853,8.273 -15.063,15.187c-1.606,3.395 -2.408,6.852 -2.408,10.371c-0,4.939 1.543,8.952 4.692,12.162c3.148,3.21 7.161,4.815 12.1,4.815c4.877,0 9.322,-1.79 13.335,-5.309c1.666,-1.42 3.086,-3.148 4.259,-5.062c1.667,-2.778 2.531,-4.692 2.531,-5.865c0,-0.556 -0.308,-0.864 -0.987,-0.864c-0.556,-0 -0.865,0.247 -0.988,0.802c-1.297,4.013 -3.334,7.223 -6.112,9.508c-3.519,2.901 -7.223,4.383 -11.05,4.383c-7.409,-0 -11.73,-5.001 -11.73,-12.409Z" style="fill:#0dcaf2;fill-rule:nonzero;stroke:#1e3a5f;stroke-width:1px;"/>
        </g>
    </g>
  <g>
        <g>
            <path id="MJX-51-NCM-I-1D437" d="M771.238,45.441l-20.496,-0c-1.42,-0 -2.099,0.061 -2.099,1.42c-0,0.679 0.679,0.987 2.037,0.987c1.235,0 3.704,-0.185 3.704,0.803c0,0.123 -0.062,0.494 -0.247,1.111l-8.149,32.781c-0.308,1.358 -0.926,2.161 -1.852,2.47c-0.432,0.123 -1.543,0.185 -3.457,0.185c-1.358,-0 -1.975,0.123 -1.975,1.42c-0,0.679 0.679,0.988 1.975,0.988l20.187,-0c4.198,-0 8.211,-1.235 12.1,-3.766c6.606,-4.26 12.903,-12.594 12.903,-22.719c-0,-9.136 -5.618,-15.68 -14.631,-15.68m8.828,13.396c-0,6.976 -3.149,15.434 -6.359,19.57c-3.519,4.507 -8.149,6.791 -13.952,6.791l-6.852,-0c-0.68,-0 -1.112,-0 -1.359,-0.062c-0.37,0 -0.555,-0.123 -0.555,-0.308c-0,-0.124 0.123,-0.556 0.308,-1.359l8.335,-33.522c0.555,-2.037 0.494,-2.099 3.086,-2.099l6.544,0c6.915,0 10.804,4.075 10.804,10.989Z" style="fill:#0dcaf2;fill-rule:nonzero;stroke:#1e3a5f;stroke-width:1px;"/>
        </g>
    </g>
  <g>
        <g>
            <path id="MJX-51-NCM-I-1D438" d="M10.439,361.403c0,0.617 0.679,0.926 1.976,0.926c2.469,0 3.704,0.247 3.704,0.803c-0,0.185 -0.124,0.617 -0.309,1.419l-8.025,32.288c-0.309,1.358 -0.926,2.161 -1.852,2.469c-0.432,0.124 -1.544,0.185 -3.457,0.185c-1.359,0 -1.976,0.124 -1.976,1.42c0,0.679 0.679,0.988 1.976,0.988l31.67,0c1.481,0 1.605,-0.123 2.099,-1.173l2.469,-5.556c1.667,-3.828 2.84,-6.667 3.519,-8.581c-0.124,-0.556 -0.309,-0.926 -0.988,-0.926c-0.432,-0 -0.803,0.309 -1.049,0.864c-1.544,3.642 -3.025,6.421 -4.507,8.396c-2.469,3.334 -6.112,4.568 -11.915,4.568l-8.951,0c-0.618,0 -1.05,0 -1.297,-0.061c-0.37,-0 -0.556,-0.124 -0.556,-0.309c0,-0.123 0.124,-0.556 0.309,-1.358l4.075,-16.483l5.864,-0c2.902,-0 4.445,0.37 4.754,1.173c0.124,0.308 0.185,0.74 0.185,1.358c0,0.802 -0.123,1.79 -0.432,2.963c-0.123,0.309 -0.185,0.556 -0.185,0.741c-0,0.617 0.37,0.926 1.049,0.926c0.556,-0 0.926,-0.494 1.173,-1.42l3.458,-14.322c-0,-0.618 -0.309,-0.927 -0.988,-0.927c-0.494,0 -0.865,0.433 -1.05,1.297c-0.617,2.408 -1.42,3.951 -2.469,4.692c-1.05,0.741 -2.778,1.111 -5.309,1.111l-5.433,-0l3.581,-14.384c0.493,-2.099 0.493,-2.161 3.086,-2.161l8.582,0c3.148,0 5.309,0.309 6.482,0.926c1.728,0.926 2.593,2.778 2.593,5.556c-0,1.05 -0.062,2.161 -0.247,3.21c-0,0.124 -0,0.309 -0.062,0.556l-0,0.556c-0,0.679 0.309,0.987 0.926,0.987c0.617,0 0.988,-0.555 1.111,-1.728l1.235,-10.557c0.185,-1.728 -0.247,-1.914 -1.914,-1.914l-30.806,0c-1.42,0 -2.099,0.062 -2.099,1.482Z" style="fill:#0dcaf2;fill-rule:nonzero;stroke:#1e3a5f;stroke-width:1px;"/>
        </g>
    </g>
  <g>
        <g>
            <path d="M13.788,466.321c-1.065,0 -1.695,-0.019 -1.893,-0.059c-0.197,-0.039 -0.295,-0.256 -0.295,-0.65c-0,-1.065 0.217,-1.715 0.65,-1.952c0.04,-0.039 2.602,-0.059 7.689,-0.059c10.211,-0 15.593,0.039 16.145,0.118c2.484,0.394 4.554,1.281 6.21,2.661c1.656,1.38 2.503,3.194 2.543,5.441c-0,2.524 -1.144,4.791 -3.43,6.802c-2.287,2.01 -4.909,3.371 -7.866,4.08l-0.592,0.178c2.524,0.354 4.594,1.261 6.21,2.72c1.617,1.459 2.445,3.273 2.484,5.441c0,2.878 -1.419,5.658 -4.258,8.339c-2.839,2.681 -6.328,4.199 -10.468,4.554c-0.276,0.039 -4.435,0.059 -12.479,0.059c-7.885,-0 -11.887,-0.04 -12.005,-0.119c-0.158,-0.118 -0.237,-0.275 -0.237,-0.473c0,-0.276 0.04,-0.552 0.119,-0.828c0.197,-0.749 0.394,-1.163 0.591,-1.242c0.158,-0.039 0.453,-0.059 0.887,-0.059l0.355,0c1.065,0 2.247,-0.059 3.548,-0.177c0.552,-0.118 0.927,-0.355 1.124,-0.71c0.118,-0.157 1.538,-5.638 4.258,-16.441c2.721,-10.803 4.081,-16.5 4.081,-17.091c-0,-0.276 -1.124,-0.454 -3.371,-0.533Zm24.721,5.5c-0,-1.182 -0.296,-2.286 -0.887,-3.312c-0.592,-1.025 -1.558,-1.695 -2.898,-2.01c-0.276,-0.079 -2.09,-0.138 -5.441,-0.178l-2.484,0c-0.868,0 -1.558,0.02 -2.07,0.059l-0.769,0c-0.591,0.04 -0.966,0.237 -1.124,0.592c-0.078,0.158 -0.709,2.523 -1.892,7.097c-0,0.118 -0.02,0.236 -0.059,0.355l-1.834,7.451l4.791,0c3.193,0 5.027,-0.039 5.5,-0.118c2.365,-0.394 4.475,-1.538 6.328,-3.43c1.853,-1.893 2.799,-4.061 2.839,-6.506Zm-3.194,18.63c0,-1.735 -0.453,-3.174 -1.36,-4.318c-0.907,-1.143 -2.09,-1.813 -3.549,-2.01c-0.236,-0.04 -1.872,-0.06 -4.908,-0.06c-4.653,0 -6.999,0.02 -7.038,0.06c0,0.078 -0.335,1.518 -1.005,4.317c-0.671,2.799 -1.361,5.579 -2.07,8.339l-1.065,4.139c0,0.158 0.237,0.237 0.71,0.237c0.473,0 2.07,0.039 4.79,0.118c3.509,0 5.402,-0.019 5.678,-0.059c2.444,-0.276 4.692,-1.419 6.742,-3.43c2.05,-2.011 3.075,-4.455 3.075,-7.333Z" style="fill:#0dcaf2;fill-rule:nonzero;stroke:#1e3a5f;stroke-width:0.83px;stroke-linejoin:miter;stroke-miterlimit:4;"/>
        </g>
    </g>
  <g>
        <g>
            <g>
                <path id="MJX-163-NCM-I-1D439" d="M537.716,502.556c0,0.65 0.73,0.975 2.122,0.975c2.653,0 3.979,0.26 3.979,0.845c0,0.195 -0.132,0.65 -0.331,1.495l-8.622,33.996c-0.398,1.431 -1.061,2.276 -1.989,2.601c-0.465,0.13 -1.658,0.195 -3.714,0.195c-1.459,-0 -2.122,0.13 -2.122,1.495c-0,0.715 0.397,1.04 1.26,1.04l8.621,-0.195l9.816,0.195c1.061,-0 1.591,-0.52 1.591,-1.495c0,-1.105 -0.729,-1.04 -2.454,-1.04c-2.918,-0 -4.576,-0.13 -4.974,-0.455c-0.199,-0.065 -0.265,-0.325 -0.265,-0.65l4.245,-17.226l6.167,-0c3.051,-0 5.173,0.13 5.173,2.6c0,0.845 -0.132,1.885 -0.464,3.12c-0.066,0.195 -0.133,0.455 -0.199,0.715c0,0.715 0.332,1.04 1.061,1.04c0.332,-0.065 0.796,-0.52 1.26,-1.495l3.582,-13.975c0.132,-0.52 0.198,-0.91 0.198,-1.105c-0.198,-0.585 -0.596,-0.91 -1.061,-0.91c-0.53,-0 -0.928,0.52 -1.193,1.495c-0.664,2.47 -1.592,4.03 -2.653,4.81c-1.061,0.78 -2.918,1.17 -5.571,1.17l-5.637,-0l4.112,-15.991c0.53,-2.21 0.53,-2.275 3.316,-2.275l8.621,0c6.433,0 9.351,0.975 9.351,6.76c0,1.3 -0.066,2.471 -0.199,3.446c-0.066,0.715 -0.132,1.105 -0.132,1.17c-0,0.715 0.331,1.04 0.994,1.04c0.664,-0 1.062,-0.585 1.194,-1.82l1.327,-11.116c0.199,-1.82 -0.266,-2.015 -2.056,-2.015l-32.099,0c-1.525,0 -2.255,0.065 -2.255,1.56Z" style="fill:#0dcaf2;fill-rule:nonzero;stroke:#1e3a5f;stroke-width:0.83px;"/>
            </g>
        </g>
    </g>
  <g>
        <g>
            <path id="MJX-217-NCM-I-1D43A" d="M762.835,176.085c5.266,0 9.394,-1.642 12.446,-4.925c0.359,0.79 1.914,3.527 2.752,3.527c0.299,-0 0.479,-0.183 0.598,-0.426c0.12,-0.243 0.539,-1.459 1.077,-3.648l1.077,-4.621c0.359,-1.399 0.599,-2.432 0.778,-3.101c0.658,-2.675 0.658,-2.615 3.89,-2.675c0.777,-0 1.136,-0.487 1.136,-1.46c0,-0.608 -0.299,-0.912 -0.957,-0.912c-1.137,0 -5.086,0.244 -6.223,0.183l-8.317,-0.183c-0.957,0 -1.436,0.487 -1.436,1.46c0,0.547 0.359,0.79 1.077,0.851c3.411,0.182 5.206,0.304 5.385,0.425c0.18,0.122 0.24,0.365 0.24,0.669c-0,0.426 -0.419,2.25 -1.197,5.412c-1.197,4.377 -5.624,7.053 -11.189,7.053c-7.3,-0 -11.668,-4.925 -11.668,-12.343c0,-1.155 0.12,-2.615 0.299,-4.256c0.659,-4.986 3.89,-11.978 6.462,-15.201c2.992,-3.83 8.497,-7.661 14.6,-7.661c6.223,0 9.274,4.803 9.274,11.37c0,0.547 -0.179,2.493 -0.179,3.04c-0,0.547 0.359,0.851 1.137,0.851c0.299,0 0.538,-0.06 0.718,-0.121c0.299,-0.426 0.479,-0.851 0.598,-1.277l3.71,-15.383c-0,-0.547 -0.299,-0.851 -0.898,-0.851c-0.239,-0 -0.598,0.243 -1.077,0.79l-3.889,4.439c-2.333,-3.466 -5.624,-5.229 -9.873,-5.229c-3.29,-0 -6.522,0.79 -9.812,2.31c-6.642,3.162 -11.489,8.148 -14.6,14.958c-1.556,3.344 -2.334,6.749 -2.334,10.214c0,9.729 6.822,16.721 16.395,16.721Z" style="fill:#0dcaf2;fill-rule:nonzero;stroke:#1e3a5f;stroke-width:1px;"/>
        </g>
    </g>
  <path d="M77.953,66.249c1.22,-1.219 3.2,-1.219 4.42,0c1.219,1.22 1.219,3.2 -0,4.42l-8.103,8.103c-1.22,1.219 -3.2,1.219 -4.42,-0c-1.219,-1.22 -1.219,-3.2 0,-4.42l8.103,-8.103Z" style="fill:#fc0;"/>
  <path d="M344.624,249.315c1.219,-1.22 3.2,-1.22 4.419,-0c1.22,1.219 1.22,3.199 0,4.419l-4.964,4.964c-1.219,1.22 -3.2,1.22 -4.419,0c-1.22,-1.219 -1.22,-3.2 -0,-4.419l4.964,-4.964Z" style="fill:#fc0;"/>
  <path d="M358.938,257.45c1.22,-1.219 3.2,-1.219 4.419,0c1.22,1.22 1.22,3.2 0,4.42l-8.328,8.328c-1.219,1.219 -3.199,1.219 -4.419,-0c-1.22,-1.22 -1.22,-3.2 0,-4.42l8.328,-8.328Z" style="fill:#fc0;"/>
  <path d="M376.71,267.992c1.22,-1.22 3.2,-1.22 4.42,-0c1.219,1.219 1.219,3.2 -0,4.419l-13.502,13.502c-1.22,1.22 -3.2,1.22 -4.42,0c-1.219,-1.219 -1.219,-3.2 0,-4.419l13.502,-13.502Z" style="fill:#fc0;"/>
  <path d="M391.219,277.085c1.22,-1.22 3.2,-1.22 4.42,-0c1.219,1.219 1.219,3.2 -0,4.419l-16.393,16.392c-1.219,1.22 -3.199,1.22 -4.419,0c-1.22,-1.219 -1.22,-3.199 0,-4.419l16.392,-16.392Z" style="fill:#fc0;"/>
  <path d="M405.862,287.142c1.219,-1.219 3.199,-1.219 4.419,0c1.22,1.22 1.22,3.2 0,4.42l-17.841,17.841c-1.22,1.22 -3.2,1.22 -4.42,-0c-1.219,-1.22 -1.219,-3.2 0,-4.419l17.842,-17.842Z" style="fill:#fc0;"/>
  <path d="M421.653,296.768c1.219,-1.22 3.2,-1.22 4.419,-0c1.22,1.22 1.22,3.2 0,4.419l-20.664,20.665c-1.22,1.22 -3.2,1.22 -4.42,0c-1.219,-1.219 -1.219,-3.2 0,-4.419l20.665,-20.665Z" style="fill:#fc0;"/>
  <path d="M435.076,304.847c1.22,-1.219 3.2,-1.219 4.419,0c1.22,1.22 1.22,3.2 0,4.42l-24.573,24.573c-1.22,1.22 -3.2,1.22 -4.42,0c-1.219,-1.219 -1.219,-3.199 0,-4.419l24.574,-24.574Z" style="fill:#fc0;"/>
  <path d="M452.493,314.812c1.22,-1.22 3.2,-1.22 4.42,-0c1.219,1.219 1.219,3.2 -0,4.419l-27.916,27.916c-1.22,1.22 -3.2,1.22 -4.419,0c-1.22,-1.219 -1.22,-3.2 -0,-4.419l27.915,-27.916Z" style="fill:#fc0;"/>
  <path d="M470.699,324.193c1.219,-1.22 3.199,-1.22 4.419,-0c1.22,1.219 1.22,3.2 0,4.419l-32.941,32.941c-1.219,1.22 -3.2,1.22 -4.419,0c-1.22,-1.22 -1.22,-3.2 -0,-4.419l32.941,-32.941Z" style="fill:#fc0;"/>
  <path d="M488.574,336.485c1.219,-1.22 3.199,-1.22 4.419,-0c1.22,1.22 1.22,3.2 -0,4.419l-36.776,36.776c-1.219,1.219 -3.199,1.219 -4.419,-0c-1.22,-1.22 -1.22,-3.2 0,-4.42l36.776,-36.775Z" style="fill:#fc0;"/>
  <path d="M508.047,348.22c1.219,-1.219 3.199,-1.219 4.419,0c1.22,1.22 1.22,3.2 0,4.42l-40.845,40.845c-1.22,1.219 -3.2,1.219 -4.419,-0c-1.22,-1.22 -1.22,-3.2 -0,-4.42l40.845,-40.845Z" style="fill:#fc0;"/>
  <path d="M527.111,361.254c1.22,-1.219 3.2,-1.219 4.419,0c1.22,1.22 1.22,3.2 0,4.42l-43.861,43.861c-1.219,1.219 -3.2,1.219 -4.419,-0c-1.22,-1.22 -1.22,-3.2 -0,-4.42l43.861,-43.861Z" style="fill:#fc0;"/>
  <path d="M546.218,372.209c1.219,-1.22 3.2,-1.22 4.419,-0c1.22,1.219 1.22,3.2 0,4.419l-47.812,47.813c-1.22,1.219 -3.2,1.219 -4.42,-0c-1.219,-1.22 -1.219,-3.2 0,-4.42l47.813,-47.812Z" style="fill:#fc0;"/>
  <path d="M565.976,385.348c1.219,-1.219 3.2,-1.219 4.419,0c1.22,1.22 1.22,3.2 0,4.42l-52.116,52.116c-1.219,1.219 -3.2,1.219 -4.419,-0c-1.22,-1.22 -1.22,-3.2 -0,-4.42l52.116,-52.116Z" style="fill:#fc0;"/>
  <path d="M586.518,397.366c1.22,-1.219 3.2,-1.219 4.42,0c1.219,1.22 1.219,3.2 -0,4.42l-56.786,56.786c-1.22,1.219 -3.2,1.219 -4.42,-0c-1.219,-1.22 -1.219,-3.2 0,-4.42l56.786,-56.786Z" style="fill:#fc0;"/>
  <path d="M604.404,408.619c1.22,-1.22 3.2,-1.22 4.42,-0c1.219,1.22 1.219,3.2 -0,4.419l-61.325,61.325c-1.22,1.219 -3.2,1.219 -4.419,-0c-1.22,-1.22 -1.22,-3.2 -0,-4.42l61.324,-61.324Z" style="fill:#fc0;"/>
  <path d="M623.837,420.084c1.219,-1.219 3.199,-1.219 4.419,0c1.22,1.22 1.22,3.2 -0,4.42l-59.316,59.315c-1.219,1.22 -3.199,1.22 -4.419,0c-1.22,-1.219 -1.22,-3.2 -0,-4.419l59.316,-59.316Z" style="fill:#fc0;"/>
  <path d="M643.369,432.23c1.219,-1.219 3.2,-1.219 4.419,0c1.22,1.22 1.22,3.2 0,4.42l-47.76,47.76c-1.22,1.22 -3.2,1.22 -4.42,0c-1.219,-1.219 -1.219,-3.2 0,-4.419l47.761,-47.761Z" style="fill:#fc0;"/>
  <path d="M664.401,444.724c1.22,-1.22 3.2,-1.22 4.42,-0c1.219,1.219 1.219,3.2 -0,4.419l-34.996,34.996c-1.22,1.22 -3.2,1.22 -4.42,0c-1.219,-1.219 -1.219,-3.2 0,-4.419l34.996,-34.996Z" style="fill:#fc0;"/>
  <path d="M687.258,459.868c1.219,-1.219 3.2,-1.219 4.419,0c1.22,1.22 1.22,3.2 0,4.42l-20.863,20.863c-1.22,1.22 -3.2,1.22 -4.419,0c-1.22,-1.219 -1.22,-3.2 -0,-4.419l20.863,-20.864Z" style="fill:#fc0;"/>
  <path d="M96.713,64.844c1.22,-1.219 3.2,-1.219 4.42,0c1.219,1.22 1.219,3.2 -0,4.42l-15.819,15.819c-1.22,1.22 -3.2,1.22 -4.42,0c-1.219,-1.219 -1.219,-3.2 0,-4.419l15.819,-15.82Z" style="fill:#fc0;"/>
  <path d="M116.486,65.24c1.22,-1.219 3.2,-1.219 4.42,0c1.219,1.22 1.219,3.2 -0,4.42l-23.298,23.297c-1.219,1.22 -3.2,1.22 -4.419,0c-1.22,-1.219 -1.22,-3.2 -0,-4.419l23.297,-23.298Z" style="fill:#fc0;"/>
  <path d="M137.699,65.472c1.22,-1.219 3.2,-1.219 4.419,0c1.22,1.22 1.22,3.2 0,4.419l-31.063,31.064c-1.22,1.219 -3.2,1.219 -4.419,-0c-1.22,-1.22 -1.22,-3.2 -0,-4.42l31.063,-31.063Z" style="fill:#fc0;"/>
  <path d="M161.621,65.349c1.22,-1.22 3.2,-1.22 4.42,-0c1.219,1.219 1.219,3.2 -0,4.419l-40.304,40.304c-1.219,1.219 -3.2,1.219 -4.419,-0c-1.22,-1.22 -1.22,-3.2 -0,-4.42l40.303,-40.303Z" style="fill:#fc0;"/>
  <path d="M187.443,65.769c1.22,-1.22 3.2,-1.22 4.42,-0c1.219,1.219 1.219,3.199 -0,4.419l-50.219,50.218c-1.219,1.22 -3.2,1.22 -4.419,0c-1.22,-1.219 -1.22,-3.199 -0,-4.419l50.218,-50.218Z" style="fill:#fc0;"/>
  <path d="M213.243,65.534c1.22,-1.22 3.2,-1.22 4.42,-0c1.219,1.219 1.219,3.2 -0,4.419l-59.408,59.407c-1.219,1.22 -3.2,1.22 -4.419,0c-1.22,-1.219 -1.22,-3.199 -0,-4.419l59.407,-59.407Z" style="fill:#fc0;"/>
  <path d="M235.579,72.464c1.219,-1.219 3.199,-1.219 4.419,0c1.22,1.22 1.22,3.2 -0,4.42l-63.441,63.441c-1.22,1.219 -3.2,1.219 -4.42,-0c-1.219,-1.22 -1.219,-3.2 0,-4.42l63.442,-63.441Z" style="fill:#fc0;"/>
  <path d="M246.599,89.657c1.219,-1.219 3.2,-1.219 4.419,0c1.22,1.22 1.22,3.2 0,4.42l-57.242,57.242c-1.219,1.219 -3.2,1.219 -4.419,-0c-1.22,-1.22 -1.22,-3.2 -0,-4.42l57.242,-57.242Z" style="fill:#fc0;"/>
  <path d="M255.183,107.432c1.22,-1.22 3.2,-1.22 4.419,-0c1.22,1.219 1.22,3.2 0,4.419l-50.273,50.274c-1.22,1.219 -3.2,1.219 -4.42,-0c-1.219,-1.22 -1.219,-3.2 0,-4.42l50.274,-50.273Z" style="fill:#fc0;"/>
  <path d="M264.674,127.342c1.219,-1.22 3.2,-1.22 4.419,0c1.22,1.22 1.22,3.2 0,4.419l-41.808,41.809c-1.22,1.219 -3.2,1.219 -4.42,-0c-1.219,-1.22 -1.219,-3.2 0,-4.42l41.809,-41.808Z" style="fill:#fc0;"/>
  <path d="M274.641,144.958c1.22,-1.22 3.2,-1.22 4.419,-0c1.22,1.219 1.22,3.2 0,4.419l-34.248,34.249c-1.22,1.219 -3.2,1.219 -4.419,-0c-1.22,-1.22 -1.22,-3.2 -0,-4.42l34.248,-34.248Z" style="fill:#fc0;"/>
  <path d="M282.519,164.083c1.219,-1.22 3.2,-1.22 4.419,-0c1.22,1.22 1.22,3.2 0,4.419l-25.555,25.556c-1.22,1.219 -3.2,1.219 -4.419,-0c-1.22,-1.22 -1.22,-3.2 -0,-4.42l25.555,-25.555Z" style="fill:#fc0;"/>
  <path d="M293.187,186.611c1.22,-1.219 3.2,-1.219 4.42,0c1.219,1.22 1.219,3.2 -0,4.42l-15.138,15.138c-1.22,1.219 -3.2,1.219 -4.42,-0c-1.219,-1.22 -1.219,-3.2 0,-4.42l15.138,-15.138Z" style="fill:#fc0;"/>
  <path d="M302.313,218.864c0.044,0.853 -0.259,1.72 -0.91,2.371c-1.22,1.22 -3.2,1.22 -4.42,0l-0.73,-0.73c-1.22,-1.221 -1.22,-3.199 0,-4.42l7.895,-7.895c1.22,-1.219 3.2,-1.219 4.42,0c1.219,1.22 1.219,3.2 -0,4.42l-6.255,6.254Z" style="fill:#fc0;"/>
  <g>
        <g>
            <path id="MJX-252-NCM-I-1D43B" d="M270.114,1.472c-0,-0.648 -0.389,-0.972 -1.166,-0.972l-8.226,0.194l-8.225,-0.194c-1.036,-0 -1.49,0.583 -1.49,1.554c0,0.454 0.195,0.778 0.518,0.842c0.648,0.065 1.166,0.13 1.49,0.13c2.008,0.065 3.109,0.194 3.433,0.259c0.324,0.065 0.518,0.259 0.518,0.583c-0.065,0.194 -0.13,0.583 -0.259,1.166l-3.821,15.414l-19.042,0l3.756,-14.702c0.324,-1.36 0.907,-2.202 1.749,-2.526c0.453,-0.129 1.555,-0.194 3.368,-0.194c1.749,-0 2.461,-0 2.461,-1.554c0,-0.648 -0.388,-0.972 -1.166,-0.972l-8.225,0.194l-8.29,-0.194c-1.037,-0 -1.49,0.583 -1.49,1.554c0,0.454 0.194,0.778 0.583,0.842c0.648,0.065 1.166,0.13 1.49,0.13c2.007,0.065 3.173,0.194 3.497,0.259c0.324,0.065 0.453,0.259 0.453,0.583c0,0.129 -0.064,0.518 -0.259,1.166l-8.614,34.391c-0.324,1.425 -0.971,2.267 -1.943,2.591c-0.453,0.129 -1.619,0.194 -3.627,0.194c-1.425,0 -2.008,0.13 -2.008,1.555c0,0.647 0.389,0.971 1.166,0.971l8.161,-0.194l4.08,0.065c0.713,-0 3.433,0.129 4.145,0.129c1.037,0 1.555,-0.518 1.555,-1.554c-0,-0.648 -0.713,-0.972 -2.073,-0.972c-2.59,0 -3.886,-0.259 -3.886,-0.842c0,0 0.065,-0.194 0.195,-1.036l4.339,-17.358l18.977,0l-4.34,17.358c-0.194,0.972 -0.971,1.619 -2.266,1.813c-0.324,0.065 -1.425,0.065 -3.304,0.065c-1.23,0 -1.813,0.518 -1.813,1.555c-0,0.647 0.389,0.971 1.166,0.971l8.16,-0.194l4.081,0.065c0.712,-0 3.368,0.129 4.21,0.129c1.036,0 1.554,-0.518 1.554,-1.554c0,-0.648 -0.712,-0.972 -2.072,-0.972c-2.656,0 -3.951,-0.259 -3.951,-0.842c-0,0 0.065,-0.194 0.194,-1.036l8.679,-34.586c0.324,-1.36 0.907,-2.202 1.749,-2.526c0.388,-0.129 1.489,-0.194 3.368,-0.194c1.683,-0 2.461,-0 2.461,-1.554Z" style="fill:#0dcaf2;fill-rule:nonzero;stroke:#1e3a5f;stroke-width:1px;"/>
        </g>
    </g>
  <path d="M320.847,235.956l-84.218,-167.299" style="fill:none;stroke:#0dcaf2;stroke-width:7.68px;stroke-linecap:round;stroke-miterlimit:1.5;"/>
  <path d="M323.262,236.695l400.703,-80.58" style="fill:none;stroke:#0dcaf2;stroke-width:7.68px;stroke-linecap:round;stroke-miterlimit:1.5;"/>
  <path d="M320.439,237.091l-259.919,141.877" style="fill:none;stroke:#0dcaf2;stroke-width:7.68px;stroke-linecap:round;stroke-miterlimit:1.5;"/>
  <path d="M552.383,481.854l-231.627,-244.066" style="fill:none;stroke:#0dcaf2;stroke-width:7.68px;stroke-linecap:round;stroke-miterlimit:1.5;"/>
  <path d="M719.028,479.081l-659.116,-407.428" style="fill:none;stroke:#9370db;stroke-width:7.68px;stroke-linecap:round;stroke-miterlimit:1.5;"/>
  <path d="M719.028,479.081l-396.327,-244.985" style="fill:none;stroke:#ff7faf;stroke-width:7.68px;stroke-linecap:round;stroke-miterlimit:1.5;"/>
  <rect x="59.154" y="66.3" width="665.186" height="417.719" style="fill:none;stroke:#0dcaf2;stroke-width:7.68px;stroke-linecap:round;stroke-miterlimit:14;"/>
  <path d="M321.785,72.049l-1.568,406.219" style="fill:none;stroke:#8dcc33;stroke-width:7.5px;stroke-linecap:round;stroke-linejoin:miter;stroke-miterlimit:1.5;stroke-dasharray:11.25,15,0,0,0,0;"/>
  <path d="M64.064,237.698l655.369,-4.079" style="fill:none;stroke:#8dcc33;stroke-width:7.5px;stroke-linecap:round;stroke-linejoin:miter;stroke-miterlimit:1.5;stroke-dasharray:11.25,15,0,0,0,0;"/>
  <g>
        <path id="MJX-66-TEX-I-210E" d="M330.172,115c0.022,0 0.83,-0.056 2.422,-0.168c1.592,-0.111 2.411,-0.179 2.455,-0.202c0.27,0 0.405,0.101 0.405,0.304c-0,0.246 -0.405,1.939 -1.212,5.079c-0.852,3.319 -1.278,5.013 -1.278,5.08c0,0.044 0.078,-0.012 0.235,-0.169c1.369,-1.21 2.827,-1.816 4.374,-1.816c1.211,0 2.186,0.303 2.926,0.908c0.741,0.606 1.121,1.492 1.144,2.658c0,1.144 -0.426,2.915 -1.278,5.315c-0.852,2.4 -1.279,3.835 -1.279,4.306c0.023,0.314 0.079,0.527 0.169,0.639c0.089,0.112 0.258,0.168 0.504,0.168c0.628,0 1.211,-0.336 1.75,-1.009c0.538,-0.672 0.975,-1.592 1.311,-2.758c0.068,-0.247 0.135,-0.392 0.202,-0.438c0.068,-0.045 0.247,-0.067 0.539,-0.067c0.448,0 0.673,0.09 0.673,0.269c-0,0.023 -0.045,0.191 -0.135,0.505c-0.359,1.323 -0.93,2.411 -1.715,3.263c-0.764,0.964 -1.671,1.447 -2.726,1.447l-0.167,-0c-1.055,-0 -1.817,-0.303 -2.288,-0.909c-0.471,-0.605 -0.707,-1.245 -0.707,-1.918c-0,-0.358 0.404,-1.681 1.211,-3.969c0.807,-2.288 1.222,-4.003 1.245,-5.147c-0,-1.323 -0.493,-1.985 -1.48,-1.985l-0.168,0c-1.862,0 -3.477,1.1 -4.845,3.297l-0.235,0.438l-1.144,4.541c-0.718,2.916 -1.132,4.508 -1.245,4.777c-0.291,0.605 -0.785,0.908 -1.48,0.908c-0.314,0 -0.583,-0.101 -0.807,-0.303c-0.224,-0.201 -0.348,-0.403 -0.37,-0.605c0,-0.314 0.819,-3.723 2.456,-10.227l2.489,-9.957c-0,-0.292 -0.079,-0.471 -0.235,-0.539c-0.157,-0.067 -0.595,-0.123 -1.312,-0.168l-0.707,-0c-0.135,-0.134 -0.202,-0.224 -0.202,-0.269c-0,-0.045 0.023,-0.258 0.067,-0.639c0.113,-0.426 0.258,-0.64 0.438,-0.64Z" style="fill:#8dcc33;fill-rule:nonzero;stroke:#1e3a5f;stroke-width:0.71px;"/>
    </g>
  <g>
        <path id="MJX-66-TEX-N-31" d="M351.116,129.276l-0.309,0.119c-0.222,0.079 -0.539,0.159 -0.952,0.238c-0.412,0.079 -0.871,0.134 -1.379,0.166l-0.452,0l-0,-1.094l0.452,0c0.745,-0.032 1.435,-0.15 2.069,-0.356c0.635,-0.206 1.078,-0.397 1.332,-0.572c0.254,-0.174 0.476,-0.348 0.666,-0.522c0.032,-0.048 0.127,-0.072 0.286,-0.072c0.142,-0 0.277,0.047 0.404,0.143l0,7.111l0.023,7.136c0.111,0.11 0.206,0.181 0.286,0.213c0.079,0.032 0.269,0.064 0.571,0.096c0.301,0.031 0.792,0.047 1.474,0.047l0.619,0l-0,1.094l-0.262,0c-0.333,-0.047 -1.593,-0.071 -3.782,-0.071c-2.156,-0 -3.401,0.024 -3.734,0.071l-0.285,0l0,-1.094l1.522,0c0.254,0 0.452,-0.008 0.595,-0.024c0.143,-0.016 0.27,-0.039 0.381,-0.071c0.11,-0.032 0.174,-0.048 0.19,-0.048c0.016,0 0.063,-0.039 0.142,-0.118c0.08,-0.08 0.127,-0.112 0.143,-0.095l-0,-12.297Z" style="fill:#8dcc33;fill-rule:nonzero;stroke:#1e3a5f;stroke-width:0.71px;"/>
    </g>
  <g>
        <path id="MJX-66-TEX-I-210E1" serif:id="MJX-66-TEX-I-210E" d="M329.364,351.836c0.023,-0 0.83,-0.056 2.423,-0.169c1.592,-0.111 2.41,-0.179 2.455,-0.201c0.269,-0 0.404,0.1 0.404,0.303c-0,0.246 -0.404,1.939 -1.211,5.079c-0.852,3.319 -1.279,5.013 -1.279,5.08c0,0.045 0.079,-0.012 0.236,-0.169c1.368,-1.21 2.826,-1.815 4.373,-1.815c1.211,-0 2.187,0.302 2.927,0.908c0.74,0.605 1.121,1.491 1.144,2.657c0,1.144 -0.426,2.915 -1.279,5.315c-0.852,2.4 -1.278,3.835 -1.278,4.306c0.023,0.314 0.079,0.528 0.168,0.639c0.09,0.112 0.258,0.169 0.505,0.169c0.628,-0 1.211,-0.337 1.749,-1.009c0.539,-0.673 0.976,-1.593 1.312,-2.759c0.068,-0.247 0.135,-0.392 0.202,-0.438c0.068,-0.044 0.247,-0.066 0.539,-0.066c0.448,-0 0.672,0.089 0.672,0.268c0,0.023 -0.044,0.191 -0.135,0.505c-0.358,1.323 -0.93,2.411 -1.715,3.263c-0.763,0.964 -1.671,1.447 -2.725,1.447l-0.168,-0c-1.054,-0 -1.817,-0.303 -2.287,-0.909c-0.471,-0.605 -0.707,-1.245 -0.707,-1.917c-0,-0.359 0.403,-1.682 1.211,-3.97c0.807,-2.287 1.222,-4.003 1.245,-5.146c-0,-1.324 -0.494,-1.985 -1.481,-1.985l-0.167,-0c-1.862,-0 -3.477,1.099 -4.845,3.296l-0.235,0.438l-1.144,4.541c-0.718,2.916 -1.133,4.508 -1.245,4.777c-0.291,0.606 -0.785,0.908 -1.48,0.908c-0.314,0 -0.583,-0.101 -0.808,-0.302c-0.224,-0.202 -0.347,-0.404 -0.37,-0.606c0,-0.314 0.819,-3.723 2.456,-10.227l2.49,-9.957c-0,-0.292 -0.079,-0.471 -0.236,-0.539c-0.157,-0.067 -0.594,-0.123 -1.312,-0.168l-0.706,0c-0.135,-0.134 -0.202,-0.224 -0.202,-0.268c-0,-0.046 0.022,-0.258 0.067,-0.64c0.112,-0.426 0.258,-0.639 0.437,-0.639Z" style="fill:#8dcc33;fill-rule:nonzero;stroke:#1e3a5f;stroke-width:0.71px;"/>
    </g>
  <g>
        <path id="MJX-66-TEX-N-32" d="M347.835,369.655c-0.428,-0 -0.769,-0.143 -1.023,-0.428c-0.253,-0.285 -0.38,-0.634 -0.38,-1.046c-0,-1.126 0.42,-2.101 1.261,-2.926c0.839,-0.824 1.886,-1.237 3.139,-1.237c1.443,0 2.648,0.444 3.615,1.332c0.967,0.888 1.459,2.038 1.474,3.449c0,0.682 -0.158,1.332 -0.475,1.95c-0.317,0.619 -0.698,1.157 -1.142,1.618c-0.444,0.459 -1.078,1.046 -1.902,1.76c-0.571,0.491 -1.364,1.22 -2.379,2.188l-1.403,1.331l1.807,0.024c2.49,0 3.814,-0.039 3.973,-0.118c0.11,-0.032 0.301,-0.738 0.57,-2.118l0,-0.071l0.951,0l0,0.071c-0.015,0.048 -0.118,0.77 -0.309,2.165c-0.19,1.395 -0.309,2.125 -0.356,2.188l-0,0.072l-8.824,-0l-0,-0.738c-0,-0.111 0.047,-0.23 0.142,-0.357c0.096,-0.127 0.334,-0.404 0.714,-0.832c0.46,-0.507 0.857,-0.952 1.189,-1.332c0.143,-0.159 0.413,-0.452 0.809,-0.88c0.396,-0.428 0.666,-0.722 0.809,-0.88c0.143,-0.159 0.372,-0.42 0.69,-0.785c0.317,-0.365 0.538,-0.634 0.665,-0.809c0.127,-0.174 0.309,-0.412 0.547,-0.713c0.238,-0.301 0.405,-0.555 0.5,-0.761c0.095,-0.206 0.214,-0.436 0.357,-0.69c0.142,-0.253 0.245,-0.507 0.309,-0.761c0.063,-0.253 0.119,-0.491 0.167,-0.714c0.046,-0.221 0.071,-0.483 0.071,-0.784c-0,-0.999 -0.27,-1.864 -0.809,-2.593c-0.539,-0.729 -1.308,-1.094 -2.307,-1.094c-0.523,0 -0.983,0.135 -1.38,0.405c-0.396,0.269 -0.674,0.531 -0.832,0.785c-0.159,0.253 -0.238,0.404 -0.238,0.451c-0,0.016 0.04,0.024 0.119,0.024c0.286,-0 0.578,0.111 0.88,0.333c0.302,0.222 0.452,0.587 0.452,1.094c0,0.397 -0.127,0.729 -0.381,0.999c-0.253,0.269 -0.61,0.412 -1.07,0.428Z" style="fill:#8dcc33;fill-rule:nonzero;stroke:#1e3a5f;stroke-width:0.71px;"/>
    </g>
  <g>
        <path id="MJX-66-TEX-I-210E2" serif:id="MJX-66-TEX-I-210E" d="M168.113,242.075c0.022,-0 0.83,-0.057 2.422,-0.169c1.593,-0.112 2.411,-0.18 2.457,-0.202c0.268,0 0.403,0.101 0.403,0.303c0,0.247 -0.403,1.94 -1.211,5.08c-0.852,3.319 -1.278,5.012 -1.278,5.08c-0,0.045 0.078,-0.012 0.235,-0.169c1.368,-1.211 2.826,-1.816 4.373,-1.816c1.211,-0 2.187,0.302 2.927,0.908c0.74,0.606 1.122,1.492 1.144,2.658c-0,1.143 -0.427,2.915 -1.279,5.315c-0.852,2.399 -1.278,3.835 -1.278,4.306c0.022,0.314 0.079,0.527 0.168,0.639c0.09,0.112 0.258,0.168 0.505,0.168c0.628,0 1.211,-0.336 1.749,-1.009c0.538,-0.673 0.976,-1.592 1.312,-2.759c0.067,-0.246 0.135,-0.392 0.202,-0.437c0.067,-0.045 0.247,-0.067 0.538,-0.067c0.448,-0 0.673,0.089 0.673,0.269c-0,0.022 -0.045,0.19 -0.134,0.504c-0.359,1.324 -0.931,2.412 -1.716,3.264c-0.762,0.964 -1.671,1.446 -2.725,1.446l-0.168,0c-1.054,0 -1.817,-0.303 -2.288,-0.908c-0.471,-0.606 -0.706,-1.245 -0.706,-1.917c0,-0.359 0.404,-1.683 1.211,-3.971c0.807,-2.286 1.222,-4.002 1.244,-5.146c0,-1.324 -0.493,-1.985 -1.48,-1.985l-0.168,-0c-1.861,-0 -3.476,1.099 -4.844,3.297l-0.236,0.437l-1.144,4.541c-0.717,2.916 -1.132,4.508 -1.244,4.778c-0.292,0.605 -0.785,0.907 -1.48,0.907c-0.314,0 -0.583,-0.1 -0.807,-0.302c-0.225,-0.202 -0.348,-0.404 -0.37,-0.605c-0,-0.315 0.818,-3.723 2.455,-10.227l2.489,-9.958c0,-0.291 -0.078,-0.471 -0.235,-0.538c-0.157,-0.067 -0.594,-0.123 -1.312,-0.168l-0.706,0c-0.135,-0.135 -0.202,-0.224 -0.202,-0.269c0,-0.045 0.022,-0.258 0.067,-0.64c0.112,-0.426 0.258,-0.638 0.437,-0.638Z" style="fill:#8dcc33;fill-rule:nonzero;stroke:#1e3a5f;stroke-width:0.71px;"/>
    </g>
  <g>
        <path id="MJX-66-TEX-N-33" d="M187.013,259.085c-0.429,0 -0.762,-0.135 -0.999,-0.405c-0.238,-0.269 -0.366,-0.618 -0.381,-1.046c-0,-0.872 0.381,-1.649 1.142,-2.331c0.76,-0.682 1.68,-1.023 2.758,-1.023c0.555,0 0.904,0.008 1.047,0.025c1.173,0.19 2.069,0.61 2.687,1.26c0.619,0.65 0.936,1.355 0.952,2.116c-0,0.825 -0.27,1.626 -0.809,2.403c-0.539,0.777 -1.284,1.339 -2.236,1.688l-0.071,0.048c-0,0.016 0.071,0.04 0.214,0.072c0.143,0.031 0.373,0.103 0.69,0.213c0.317,0.111 0.618,0.278 0.904,0.5c1.3,0.84 1.95,1.95 1.95,3.33c0,1.252 -0.492,2.347 -1.475,3.281c-0.982,0.936 -2.227,1.404 -3.734,1.404c-1.268,0 -2.362,-0.341 -3.282,-1.023c-0.92,-0.682 -1.379,-1.546 -1.379,-2.592c-0,-0.444 0.142,-0.801 0.428,-1.07c0.285,-0.27 0.641,-0.413 1.07,-0.429c0.444,0 0.808,0.143 1.094,0.429c0.286,0.285 0.428,0.642 0.428,1.07c0,0.175 -0.024,0.333 -0.071,0.476c-0.048,0.143 -0.103,0.269 -0.167,0.38c-0.063,0.111 -0.15,0.206 -0.261,0.286c-0.112,0.079 -0.207,0.142 -0.286,0.19c-0.079,0.048 -0.158,0.079 -0.238,0.095c-0.079,0.016 -0.142,0.04 -0.19,0.071l-0.095,0.024c0.809,0.714 1.792,1.07 2.949,1.07c0.872,0 1.53,-0.42 1.974,-1.26c0.27,-0.524 0.405,-1.324 0.405,-2.402l-0,-0.476c-0,-1.506 -0.508,-2.513 -1.522,-3.02c-0.238,-0.096 -0.722,-0.151 -1.451,-0.167l-1,-0.024l-0.071,-0.047c-0.032,-0.048 -0.047,-0.175 -0.047,-0.381c-0,-0.285 0.063,-0.428 0.19,-0.428c0.444,0 0.904,-0.04 1.38,-0.119c0.538,-0.079 1.03,-0.412 1.474,-0.999c0.444,-0.586 0.666,-1.474 0.666,-2.664l-0,-0.19c-0,-0.904 -0.277,-1.53 -0.832,-1.879c-0.349,-0.222 -0.722,-0.333 -1.119,-0.333c-0.507,0 -0.974,0.088 -1.403,0.262c-0.427,0.174 -0.729,0.356 -0.903,0.547c-0.174,0.19 -0.262,0.285 -0.262,0.285l0.071,0c0.048,0.016 0.112,0.032 0.191,0.048c0.079,0.016 0.158,0.055 0.238,0.119c0.079,0.063 0.174,0.119 0.285,0.166c0.111,0.047 0.19,0.135 0.238,0.262c0.047,0.126 0.111,0.246 0.19,0.357c0.08,0.111 0.103,0.269 0.072,0.475c-0,0.349 -0.112,0.659 -0.334,0.928c-0.221,0.269 -0.579,0.412 -1.069,0.428Z" style="fill:#8dcc33;fill-rule:nonzero;stroke:#1e3a5f;stroke-width:0.71px;"/>
    </g>
  <g>
        <path id="MJX-66-TEX-I-210E3" serif:id="MJX-66-TEX-I-210E" d="M540.649,240.509c0.023,-0 0.83,-0.056 2.422,-0.168c1.593,-0.113 2.411,-0.179 2.456,-0.202c0.269,-0 0.404,0.101 0.404,0.302c-0,0.247 -0.404,1.941 -1.211,5.08c-0.853,3.32 -1.279,5.013 -1.279,5.08c0,0.045 0.079,-0.011 0.236,-0.168c1.368,-1.211 2.826,-1.817 4.373,-1.817c1.211,0 2.187,0.303 2.927,0.909c0.74,0.605 1.121,1.491 1.144,2.657c-0,1.144 -0.426,2.916 -1.279,5.316c-0.852,2.399 -1.278,3.835 -1.278,4.305c0.023,0.314 0.078,0.527 0.168,0.639c0.09,0.113 0.258,0.169 0.505,0.169c0.628,-0 1.211,-0.337 1.749,-1.01c0.538,-0.673 0.975,-1.592 1.312,-2.758c0.068,-0.247 0.134,-0.393 0.202,-0.437c0.067,-0.045 0.246,-0.068 0.538,-0.068c0.449,0 0.673,0.09 0.673,0.269c0,0.023 -0.045,0.191 -0.135,0.505c-0.359,1.323 -0.93,2.411 -1.716,3.263c-0.762,0.965 -1.67,1.446 -2.724,1.446l-0.169,0c-1.053,0 -1.816,-0.302 -2.287,-0.908c-0.471,-0.605 -0.706,-1.244 -0.706,-1.917c-0,-0.359 0.403,-1.682 1.211,-3.969c0.807,-2.288 1.222,-4.004 1.245,-5.148c-0,-1.323 -0.494,-1.984 -1.481,-1.984l-0.168,-0c-1.862,-0 -3.476,1.098 -4.844,3.296l-0.235,0.437l-1.144,4.542c-0.718,2.915 -1.133,4.508 -1.245,4.777c-0.292,0.606 -0.785,0.908 -1.481,0.908c-0.314,0 -0.582,-0.1 -0.807,-0.302c-0.224,-0.202 -0.347,-0.404 -0.37,-0.606c0,-0.314 0.819,-3.723 2.456,-10.227l2.49,-9.957c-0,-0.292 -0.079,-0.471 -0.236,-0.538c-0.157,-0.068 -0.594,-0.124 -1.312,-0.169l-0.707,0c-0.134,-0.134 -0.201,-0.224 -0.201,-0.269c-0,-0.045 0.022,-0.258 0.067,-0.639c0.112,-0.426 0.258,-0.639 0.437,-0.639Z" style="fill:#8dcc33;fill-rule:nonzero;stroke:#1e3a5f;stroke-width:0.71px;"/>
    </g>
  <g>
        <path id="MJX-66-TEX-N-34" d="M567.516,268.531c-0.286,-0.048 -1.309,-0.071 -3.069,-0.071c-1.839,0 -2.901,0.023 -3.187,0.071l-0.214,0l0,-1.093l1.38,-0c0.111,-0 0.245,-0.017 0.404,-0.048c0.159,-0.032 0.27,-0.072 0.333,-0.119c0.064,-0.048 0.119,-0.111 0.167,-0.191c0.015,-0.031 0.023,-0.459 0.023,-1.284l0,-1.189l-6.159,0l-0,-1.094l3.591,-5.494c2.426,-3.679 3.655,-5.526 3.687,-5.542c0.031,-0.032 0.198,-0.047 0.499,-0.047l0.428,-0l0.143,0.143l-0,10.94l2.188,0l-0,1.094l-2.188,0l-0,2.355c-0,0.11 0.047,0.206 0.142,0.285c0.127,0.111 0.579,0.174 1.356,0.191l0.69,-0l-0,1.093l-0.214,0Zm-4.02,-5.018l0,-7.944l-5.208,7.92l2.592,0.024l2.616,0Z" style="fill:#8dcc33;fill-rule:nonzero;stroke:#1e3a5f;stroke-width:0.71px;"/>
    </g>
  <path id="MJX-169-NCM-N-32" d="M642.093,514.834c-2.018,-0 -3.72,0.712 -5.184,2.137c-1.465,1.425 -2.217,3.087 -2.217,5.106c0,1.345 0.99,2.335 2.217,2.335c1.187,-0 2.176,-1.029 2.176,-2.217c0,-1.306 -0.949,-2.216 -2.216,-2.216c-0.119,0 -0.198,0 -0.277,0.04c0.752,-1.94 2.493,-3.642 4.987,-3.642c3.245,0 5.066,2.81 5.066,6.214c-0,2.652 -1.346,5.502 -4.037,8.51l-7.441,8.39c-0.514,0.594 -0.475,0.554 -0.475,1.702l14.684,0l1.148,-7.124l-1.306,-0c-0.317,2.018 -0.594,3.166 -0.832,3.522c-0.198,0.198 -1.385,0.278 -3.562,0.278l-6.609,-0l3.839,-3.76c2.691,-2.533 6.095,-5.264 7.243,-7.362c0.791,-1.385 1.187,-2.771 1.187,-4.156c0,-4.67 -3.641,-7.757 -8.391,-7.757Z" style="fill:#0dcaf2;fill-rule:nonzero;stroke:#1e3a5f;stroke-width:0.42px;"/>
  <path id="MJX-169-NCM-N-33" d="M46.391,222.845c2.613,-0.99 5.066,-3.483 5.066,-6.848c0,-1.701 -0.831,-3.087 -2.453,-4.155c-1.425,-0.911 -3.048,-1.386 -4.869,-1.386c-1.781,0 -3.324,0.475 -4.709,1.386c-1.544,1.029 -2.336,2.374 -2.336,4.076c0,1.306 0.871,2.217 2.138,2.217c1.266,-0 2.137,-0.911 2.137,-2.177c-0,-1.306 -0.752,-2.019 -2.256,-2.098c1.029,-1.385 2.652,-2.097 4.868,-2.097c2.375,-0 3.562,1.385 3.562,4.195c0,1.662 -0.316,3.047 -0.91,4.195c-1.069,1.9 -2.533,2.256 -4.987,2.256c-0.475,0.079 -0.712,0.277 -0.712,0.633c-0,0.594 0.277,0.594 1.068,0.594l1.702,0c2.968,0 4.472,2.098 4.472,6.333c0,3.364 -1.226,6.293 -4.234,6.293c-2.573,-0 -4.473,-0.871 -5.621,-2.613c1.386,0.04 2.415,-0.989 2.415,-2.335c-0,-1.345 -0.99,-2.335 -2.335,-2.335c-1.544,0 -2.336,0.792 -2.336,2.415c0,1.939 0.871,3.482 2.613,4.709c1.543,1.069 3.364,1.584 5.382,1.584c2.256,-0 4.196,-0.752 5.898,-2.217c1.701,-1.464 2.533,-3.285 2.533,-5.501c-0,-3.721 -2.929,-6.293 -6.096,-7.124Z" style="fill:#0dcaf2;fill-rule:nonzero;stroke:#1e3a5f;stroke-width:0.42px;"/>
  <path id="MJX-169-NCM-N-331" serif:id="MJX-169-NCM-N-33" d="M740.552,308.733c2.613,-0.99 5.067,-3.483 5.067,-6.847c-0,-1.702 -0.832,-3.087 -2.454,-4.156c-1.425,-0.91 -3.048,-1.385 -4.869,-1.385c-1.781,-0 -3.324,0.475 -4.709,1.385c-1.544,1.029 -2.335,2.375 -2.335,4.077c-0,1.306 0.87,2.216 2.137,2.216c1.266,-0 2.137,-0.91 2.137,-2.177c-0,-1.306 -0.752,-2.018 -2.256,-2.097c1.029,-1.386 2.652,-2.098 4.868,-2.098c2.375,-0 3.562,1.385 3.562,4.195c0,1.662 -0.316,3.048 -0.91,4.196c-1.069,1.899 -2.533,2.255 -4.987,2.255c-0.475,0.08 -0.712,0.278 -0.712,0.634c-0,0.593 0.277,0.593 1.068,0.593l1.702,0c2.969,0 4.473,2.098 4.473,6.333c-0,3.364 -1.227,6.293 -4.235,6.293c-2.573,-0 -4.473,-0.871 -5.621,-2.612c1.386,0.039 2.415,-0.99 2.415,-2.335c-0,-1.346 -0.99,-2.335 -2.335,-2.335c-1.544,-0 -2.336,0.791 -2.336,2.414c0,1.939 0.871,3.483 2.613,4.71c1.543,1.068 3.364,1.583 5.382,1.583c2.256,-0 4.196,-0.752 5.898,-2.217c1.701,-1.464 2.533,-3.285 2.533,-5.501c-0,-3.72 -2.929,-6.293 -6.096,-7.124Z" style="fill:#0dcaf2;fill-rule:nonzero;stroke:#1e3a5f;stroke-width:0.42px;"/>
  <path id="MJX-169-NCM-N-34" d="M47.151,279.971c-0.417,-0 -0.787,0.23 -1.065,0.644l-13.994,21.368l0,1.658l12.094,-0l-0,3.776c-0,0.829 -0.186,1.381 -0.51,1.612c-0.324,0.23 -1.205,0.322 -2.734,0.322l-1.158,-0l-0,1.796c1.344,-0.092 3.475,-0.138 6.348,-0.138c2.873,-0 5.004,0.046 6.348,0.138l-0,-1.796l-1.159,-0c-1.529,-0 -2.409,-0.092 -2.733,-0.322c-0.325,-0.231 -0.51,-0.783 -0.51,-1.612l-0,-3.776l4.541,-0l-0,-1.796l-4.541,-0l-0,-21.091c-0,-0.461 -0.324,-0.783 -0.927,-0.783m-2.687,5.71l-0,16.164l-10.565,-0l10.565,-16.164Z" style="fill:#0dcaf2;fill-rule:nonzero;stroke:#1e3a5f;stroke-width:0.83px;"/>
  <path id="MJX-169-NCM-N-341" serif:id="MJX-169-NCM-N-34" d="M509.243,31.814c-0.365,0 -0.69,0.202 -0.933,0.565l-12.258,18.717l-0,1.453l10.594,-0l-0,3.308c-0,0.726 -0.163,1.21 -0.447,1.411c-0.284,0.202 -1.055,0.283 -2.395,0.283l-1.014,-0l-0,1.573c1.177,-0.081 3.044,-0.121 5.56,-0.121c2.517,0 4.384,0.04 5.561,0.121l0,-1.573l-1.015,-0c-1.339,-0 -2.11,-0.081 -2.394,-0.283c-0.284,-0.201 -0.447,-0.685 -0.447,-1.411l0,-3.308l3.978,-0l-0,-1.574l-3.978,0l0,-18.475c0,-0.403 -0.284,-0.686 -0.812,-0.686m-2.354,5.002l0,14.159l-9.254,0l9.254,-14.159Z" style="fill:#0dcaf2;fill-rule:nonzero;stroke:#1e3a5f;stroke-width:0.42px;"/>
  <path id="MJX-169-NCM-N-342" serif:id="MJX-169-NCM-N-34" d="M293.381,490.421c-0.365,0 -0.69,0.202 -0.934,0.565l-12.257,18.717l-0,1.453l10.593,-0l0,3.307c0,0.727 -0.162,1.211 -0.446,1.412c-0.284,0.202 -1.056,0.283 -2.395,0.283l-1.015,-0l0,1.573c1.177,-0.081 3.045,-0.121 5.561,-0.121c2.517,-0 4.384,0.04 5.561,0.121l-0,-1.573l-1.015,-0c-1.339,-0 -2.111,-0.081 -2.395,-0.283c-0.284,-0.201 -0.446,-0.685 -0.446,-1.412l-0,-3.307l3.977,-0l0,-1.574l-3.977,0l-0,-18.475c-0,-0.404 -0.284,-0.686 -0.812,-0.686m-2.354,5.002l-0,14.159l-9.254,0l9.254,-14.159Z" style="fill:#0dcaf2;fill-rule:nonzero;stroke:#1e3a5f;stroke-width:0.42px;"/>
  <path id="MJX-169-NCM-N-35" d="M139.112,21.794c0.198,0 0.435,-0.158 0.633,-0.435c1.187,-1.781 2.81,-2.652 4.868,-2.652c1.385,-0 2.454,0.792 3.166,2.414c0.436,1.069 0.673,2.692 0.673,4.868c0,2.494 -0.316,4.235 -0.91,5.264c-0.99,1.623 -2.335,2.454 -4.037,2.454c-2.652,0 -4.75,-1.9 -5.462,-3.958c0.119,0.04 0.198,0 0.356,0c1.188,0 2.177,-0.91 2.177,-2.097c0,-1.227 -0.989,-2.058 -2.177,-2.058c-1.385,-0 -1.979,0.752 -1.979,2.216c0,3.958 3.206,7.322 7.164,7.322c2.414,0 4.472,-0.871 6.135,-2.612c1.662,-1.742 2.493,-3.839 2.493,-6.254c0,-2.295 -0.673,-4.274 -2.018,-5.976c-1.465,-1.86 -3.285,-2.77 -5.502,-2.77c-1.86,-0 -3.483,0.593 -4.789,1.781l0,-7.045c1.069,0.316 2.098,0.475 3.167,0.475c1.82,-0 3.403,-0.436 4.749,-1.346c1.227,-0.752 2.058,-1.504 2.533,-2.216c0.237,-0.317 0.356,-0.555 0.356,-0.673c0,-0.396 -0.198,-0.594 -0.593,-0.594c-2.177,0.831 -4.037,1.267 -5.541,1.267c-1.782,-0 -3.483,-0.357 -5.106,-1.109c-0.198,-0.079 -0.356,-0.118 -0.515,-0.118c-0.356,-0 -0.554,0.356 -0.554,1.108l0,11.557c0,0.831 0,1.187 0.713,1.187Z" style="fill:#0dcaf2;fill-rule:nonzero;stroke:#1e3a5f;stroke-width:0.42px;"/>
  <path id="MJX-169-NCM-N-36" d="M401.153,497.113c1.487,-0 2.208,-0.767 2.208,-2.299c0,-3.245 -2.433,-5.003 -5.768,-5.003c-3.741,0 -6.716,1.758 -8.924,5.319c-1.938,3.064 -2.884,6.535 -2.884,10.456c-0,5.723 1.036,9.734 3.155,12.123c1.802,2.073 3.875,3.11 6.264,3.11c2.749,-0 5.003,-1.037 6.76,-3.11c1.668,-1.983 2.524,-4.372 2.524,-7.121c0,-2.749 -0.811,-5.093 -2.434,-7.031c-1.712,-2.073 -3.92,-3.154 -6.58,-3.154c-2.343,-0 -4.146,1.307 -5.363,3.83l0,-0.27c0,-5.093 1.262,-9.419 3.966,-11.402c1.172,-0.857 2.389,-1.262 3.606,-1.262c1.622,-0 2.794,0.45 3.56,1.397c-1.532,-0 -2.298,0.856 -2.298,2.208c-0,1.262 0.946,2.209 2.208,2.209m-1.758,7.391c0.496,1.036 0.767,3.065 0.767,6.039c-0,2.93 -0.226,4.867 -0.722,5.859c-0.901,1.848 -2.298,2.794 -4.236,2.794c-1.307,0 -2.298,-0.45 -3.02,-1.352c-0.585,-0.721 -0.991,-1.352 -1.171,-1.848c-0.541,-1.397 -0.812,-3.515 -0.812,-6.399c0,-1.262 0.181,-2.479 0.496,-3.651c0.586,-2.118 2.254,-4.101 4.732,-4.101c1.758,-0 3.11,0.901 3.966,2.659Z" style="fill:#0dcaf2;fill-rule:nonzero;stroke:#1e3a5f;stroke-width:0.83px;"/>
  <g>
        <g>
            <path id="MJX-79-TEX-S4-E150" d="M561.854,490.167l-0.653,0.236l-0,1.381l0.87,0.552c6.598,4.207 16.604,7.388 30.018,9.544c5.366,0.763 10.985,1.223 16.858,1.381l1.305,-0c0.653,-0 1.124,0.013 1.414,0.039c1.015,-0 1.631,-0.039 1.849,-0.118c0.217,-0.079 0.326,-0.329 0.326,-0.75l0,-2.879c0,-0.473 -0.109,-0.749 -0.326,-0.828c-0.218,-0.079 -0.798,-0.132 -1.74,-0.158c-9.644,0 -18.635,-0.723 -26.973,-2.169c-8.338,-1.446 -14.429,-3.418 -18.272,-5.916c-0.29,-0.158 -0.544,-0.25 -0.761,-0.276c-0.218,-0.026 -0.907,-0.039 -2.067,-0.039l-1.848,-0Z" style="fill:#ff5151;fill-rule:nonzero;stroke:#1e3a5f;stroke-width:1px;"/>
          <path id="MJX-79-TEX-S4-E151" d="M671.893,499.553l0,3.392c0,0.184 0.18,0.276 0.539,0.276c0.287,0.052 0.826,0.079 1.616,0.079c6.179,-0 12.645,-0.474 19.399,-1.42c13.292,-2.156 23.207,-5.338 29.745,-9.544l0.862,-0.553l0,-1.38l-0.646,-0.237l-3.665,0c-0.216,0 -0.431,0.053 -0.647,0.158c-0.215,0.105 -0.395,0.197 -0.538,0.276c-0.144,0.079 -0.467,0.276 -0.97,0.592c-0.503,0.315 -1.15,0.631 -1.94,0.946c-4.67,2.13 -10.849,3.734 -18.537,4.812c-7.687,1.078 -15.411,1.617 -23.17,1.617c-0.934,0 -1.509,0.039 -1.725,0.118c-0.215,0.079 -0.323,0.368 -0.323,0.868Z" style="fill:#ff5151;fill-rule:nonzero;stroke:#1e3a5f;stroke-width:1px;"/>
          <g>
                <path id="MJX-79-TEX-S4-E153" d="M610.646,499.513l0,2.801c0,0.473 0.07,0.749 0.209,0.828c0.139,0.079 0.51,0.131 1.113,0.158c6.581,-0 12.166,0.67 16.755,2.011c4.588,1.341 7.972,2.827 10.15,4.457c0.371,0.236 0.742,0.512 1.112,0.828c0.372,0.316 0.65,0.565 0.835,0.749c0.185,0.184 0.348,0.276 0.486,0.276c0.093,0.053 0.557,0.079 1.391,0.079l1.182,0l0.417,-0.236l0,-1.381l-0.556,-0.552c-4.218,-4.207 -10.614,-7.388 -19.189,-9.544c-4.403,-0.947 -8.621,-1.42 -12.653,-1.42c-0.602,0 -0.95,0.039 -1.043,0.118c-0.093,0.079 -0.162,0.355 -0.209,0.828Z" style="fill:#ff5151;fill-rule:nonzero;stroke:#1e3a5f;stroke-width:1px;"/>
            <path id="MJX-79-TEX-S4-E152" d="M640.959,511.463l0.417,0.237l2.294,0c0.186,0 0.348,-0.053 0.487,-0.158c0.139,-0.105 0.255,-0.197 0.348,-0.276c0.092,-0.079 0.278,-0.263 0.556,-0.552c0.278,-0.289 0.718,-0.605 1.321,-0.947c2.827,-2.129 6.79,-3.733 11.888,-4.811c5.099,-1.078 10.104,-1.63 15.018,-1.657c0.602,0 0.973,-0.039 1.112,-0.118c0.139,-0.079 0.209,-0.368 0.209,-0.868l-0,-2.642c-0,-0.526 -0.07,-0.841 -0.209,-0.947c-0.139,-0.105 -0.486,-0.157 -1.043,-0.157c-4.032,-0 -8.25,0.473 -12.653,1.42c-8.575,2.155 -14.971,5.337 -19.189,9.544l-0.556,0.552l0,1.38Z" style="fill:#ff5151;fill-rule:nonzero;stroke:#1e3a5f;stroke-width:1px;"/>
            </g>
        </g>
    </g>
  <g>
        <g>
            <path id="MJX-79-TEX-S4-E1501" serif:id="MJX-79-TEX-S4-E150" d="M60.852,59.565l-0.674,-0.237l-0,-1.38l0.899,-0.553c6.821,-4.206 17.165,-7.388 31.032,-9.544c5.547,-0.762 11.356,-1.222 17.427,-1.38l1.349,-0c0.675,-0 1.162,-0.013 1.462,-0.04c1.05,0 1.686,0.04 1.911,0.119c0.225,0.079 0.338,0.328 0.338,0.749l-0,2.879c-0,0.473 -0.113,0.749 -0.338,0.828c-0.225,0.079 -0.824,0.132 -1.798,0.158c-9.97,0 -19.264,0.723 -27.884,2.169c-8.62,1.446 -14.917,3.418 -18.889,5.916c-0.3,0.158 -0.562,0.25 -0.787,0.276c-0.225,0.027 -0.937,0.04 -2.136,0.04l-1.912,-0Z" style="fill:#ff5151;fill-rule:nonzero;stroke:#1e3a5f;stroke-width:1px;"/>
          <path id="MJX-79-TEX-S4-E1511" serif:id="MJX-79-TEX-S4-E151" d="M174.609,50.179l-0,-3.392c-0,-0.184 0.185,-0.276 0.556,-0.276c0.298,-0.053 0.854,-0.079 1.671,-0.079c6.388,-0 13.073,0.473 20.055,1.42c13.74,2.156 23.99,5.337 30.749,9.544l0.891,0.552l0,1.38l-0.668,0.237l-3.788,0c-0.223,0 -0.446,-0.053 -0.669,-0.158c-0.223,-0.105 -0.408,-0.197 -0.557,-0.276c-0.148,-0.079 -0.482,-0.276 -1.002,-0.591c-0.52,-0.316 -1.189,-0.632 -2.006,-0.947c-4.828,-2.13 -11.215,-3.734 -19.163,-4.812c-7.947,-1.078 -15.931,-1.617 -23.953,-1.617c-0.965,0 -1.56,-0.039 -1.782,-0.118c-0.223,-0.079 -0.334,-0.368 -0.334,-0.867Z" style="fill:#ff5151;fill-rule:nonzero;stroke:#1e3a5f;stroke-width:1px;"/>
          <g>
                <path id="MJX-79-TEX-S4-E1531" serif:id="MJX-79-TEX-S4-E153" d="M111.293,50.218l0,-2.8c0,-0.474 0.072,-0.75 0.216,-0.829c0.144,-0.078 0.527,-0.131 1.15,-0.157c6.803,-0 12.577,-0.671 17.321,-2.012c4.744,-1.34 8.242,-2.826 10.493,-4.456c0.384,-0.237 0.767,-0.513 1.15,-0.828c0.384,-0.316 0.671,-0.566 0.863,-0.75c0.191,-0.184 0.359,-0.276 0.503,-0.276c0.096,-0.052 0.575,-0.079 1.437,-0.079l1.222,0l0.431,0.237l0,1.38l-0.574,0.552c-4.361,4.207 -10.973,7.389 -19.837,9.545c-4.552,0.946 -8.912,1.419 -13.081,1.419c-0.623,0 -0.982,-0.039 -1.078,-0.118c-0.096,-0.079 -0.168,-0.355 -0.216,-0.828Z" style="fill:#ff5151;fill-rule:nonzero;stroke:#1e3a5f;stroke-width:1px;"/>
            <path id="MJX-79-TEX-S4-E1521" serif:id="MJX-79-TEX-S4-E152" d="M142.63,38.268l0.43,-0.237l2.372,0c0.192,0 0.36,0.053 0.503,0.158c0.144,0.106 0.264,0.197 0.36,0.276c0.096,0.079 0.287,0.263 0.575,0.553c0.288,0.289 0.743,0.604 1.366,0.946c2.923,2.13 7.019,3.734 12.29,4.812c5.27,1.077 10.445,1.63 15.524,1.656c0.623,0 1.006,0.039 1.15,0.118c0.144,0.079 0.216,0.368 0.216,0.868l-0,2.643c-0,0.525 -0.072,0.841 -0.216,0.946c-0.144,0.105 -0.503,0.158 -1.078,0.158c-4.169,-0 -8.529,-0.474 -13.081,-1.42c-8.864,-2.156 -15.476,-5.338 -19.837,-9.544l-0.574,-0.552l-0,-1.381Z" style="fill:#ff5151;fill-rule:nonzero;stroke:#1e3a5f;stroke-width:1px;"/>
            </g>
        </g>
    </g>
  <g>
        <path id="MJX-150-NCM-I-1D443" d="M362.647,173.211l-20.72,0c-1.489,0 -2.201,0.065 -2.201,1.489c-0,0.713 0.712,1.036 2.137,1.036c1.295,0 3.884,-0.194 3.884,0.842c0,0.13 -0.064,0.518 -0.259,1.166l-8.546,34.381c-0.389,1.424 -1.036,2.266 -1.943,2.59c-0.453,0.129 -1.618,0.194 -3.626,0.194c-1.424,-0 -2.072,0.129 -2.072,1.489c0,0.712 0.389,1.036 1.231,1.036l8.093,-0.194l4.144,0.065c0.712,-0 3.302,0.129 4.144,0.129c1.036,0 1.554,-0.518 1.554,-1.554c-0,-0.647 -0.712,-0.971 -2.072,-0.971c-2.59,-0 -3.885,-0.259 -3.885,-0.842c0,0 0.065,-0.194 0.194,-1.036l3.885,-15.798l10.684,-0c4.208,-0 8.223,-1.295 11.978,-3.82c4.209,-2.785 6.281,-6.216 6.281,-10.295c-0,-6.41 -6.087,-9.907 -12.885,-9.907m-2.008,2.525c5.634,0 8.418,1.943 8.418,5.828c-0,3.626 -1.813,8.482 -3.691,10.165c-2.46,2.202 -5.698,3.302 -9.712,3.302l-8.676,0l4.273,-17.093c0.518,-2.202 0.518,-2.202 3.237,-2.202l6.151,0Z" style="fill:#0dcaf2;fill-rule:nonzero;stroke:#1e3a5f;stroke-width:1px;"/>
    </g>
  <circle cx="238.722" cy="64.383" r="8.602" style="fill:#ff0;"/>
  <path d="M238.722,74.431c-0.04,-0.002 -4.389,0.23 -7.597,-3.473c-5.25,-6.06 -1.569,-15.54 6.319,-16.543c8.126,-1.034 13.993,7.616 10.112,14.757c-0.809,1.488 -1.994,2.761 -3.419,3.674c-2.596,1.666 -5.089,1.573 -5.415,1.585Zm0.008,-2.892c0.248,0.007 3.198,0.069 5.402,-2.475c4.05,-4.675 0.596,-11.992 -5.596,-11.835c-6.155,0.156 -9.267,7.607 -4.993,12.089c2.183,2.29 4.91,2.222 5.17,2.221c0.005,-0 0.01,-0 0.017,-0Z" style="fill:#f33;"/>
  <circle cx="60.687" cy="377.571" r="8.602" style="fill:#ff0;"/>
  <path d="M60.687,387.619c-0.04,-0.001 -4.388,0.231 -7.597,-3.473c-5.249,-6.059 -1.569,-15.539 6.319,-16.543c8.126,-1.034 13.993,7.617 10.112,14.758c-0.809,1.487 -1.994,2.76 -3.418,3.674c-2.597,1.665 -5.089,1.572 -5.416,1.584Zm0.008,-2.892c0.248,0.007 3.198,0.069 5.402,-2.475c4.05,-4.675 0.596,-11.991 -5.595,-11.835c-6.156,0.156 -9.268,7.607 -4.994,12.09c2.183,2.29 4.911,2.222 5.171,2.22c0.004,-0 0.01,0 0.016,0Z" style="fill:#f33;"/>
  <circle cx="322.602" cy="236.119" r="8.602" style="fill:#ff0;"/>
  <path d="M322.602,246.167c-0.039,-0.001 -4.388,0.23 -7.596,-3.473c-5.25,-6.059 -1.569,-15.539 6.319,-16.543c8.126,-1.034 13.992,7.616 10.111,14.757c-0.808,1.488 -1.993,2.761 -3.418,3.674c-2.596,1.666 -5.089,1.573 -5.416,1.585Zm0.009,-2.892c0.248,0.007 3.198,0.069 5.402,-2.475c4.05,-4.675 0.596,-11.992 -5.596,-11.835c-6.155,0.156 -9.267,7.607 -4.994,12.09c2.184,2.29 4.911,2.222 5.171,2.22c0.005,-0 0.01,-0 0.017,0Z" style="fill:#f33;"/>
  <circle cx="551.478" cy="483.126" r="8.602" style="fill:#ff0;"/>
  <path d="M551.478,493.174c-0.04,-0.001 -4.389,0.23 -7.597,-3.473c-5.25,-6.059 -1.569,-15.539 6.319,-16.543c8.126,-1.034 13.993,7.616 10.112,14.757c-0.809,1.488 -1.994,2.761 -3.419,3.674c-2.596,1.666 -5.089,1.573 -5.415,1.585Zm0.008,-2.892c0.248,0.007 3.198,0.069 5.402,-2.475c4.05,-4.675 0.596,-11.992 -5.596,-11.835c-6.155,0.156 -9.267,7.607 -4.993,12.09c2.183,2.29 4.91,2.222 5.17,2.22c0.005,-0 0.01,-0 0.017,0Z" style="fill:#f33;"/>
  <circle cx="727.827" cy="155.256" r="8.602" style="fill:#ff0;"/>
  <path d="M727.827,165.305c-0.04,-0.002 -4.389,0.23 -7.597,-3.473c-5.25,-6.06 -1.569,-15.54 6.319,-16.543c8.126,-1.034 13.993,7.616 10.112,14.757c-0.809,1.488 -1.994,2.761 -3.419,3.674c-2.596,1.666 -5.089,1.572 -5.415,1.585Zm0.008,-2.892c0.248,0.007 3.198,0.069 5.402,-2.475c4.05,-4.675 0.596,-11.992 -5.596,-11.835c-6.155,0.156 -9.267,7.607 -4.993,12.089c2.183,2.29 4.91,2.222 5.17,2.221c0.005,-0.001 0.01,-0 0.017,-0Z" style="fill:#f33;"/>
</svg>
