<?xml version="1.0" encoding="UTF-8" standalone="no"?>
<!DOCTYPE svg PUBLIC "-//W3C//DTD SVG 1.1//EN" "http://www.w3.org/Graphics/SVG/1.1/DTD/svg11.dtd">
<svg width="168" height="140" viewBox="0 0 783 653" version="1.1" xmlns="http://www.w3.org/2000/svg" xmlns:xlink="http://www.w3.org/1999/xlink" xml:space="preserve" xmlns:serif="http://www.serif.com/" style="fill-rule:evenodd;clip-rule:evenodd;stroke-linejoin:round;stroke-miterlimit:2;">
    <g>
        <g>
            <path id="MJX-44-TEX-I-1D466" d="M296.559,15.81c0,-0.921 0.548,-2.502 1.643,-4.74c1.095,-2.239 2.848,-4.576 5.258,-7.012c2.41,-2.436 5.112,-3.622 8.106,-3.555c2.994,-0 5.404,0.756 7.229,2.271c1.826,1.515 2.775,3.621 2.849,6.32c-0.147,1.252 -0.256,1.943 -0.329,2.075c-0,0.197 -0.585,1.711 -1.753,4.543c-1.169,2.831 -2.373,6.024 -3.614,9.58c-1.242,3.555 -1.827,6.387 -1.754,8.493c0,2.832 0.512,4.807 1.535,5.927c1.022,1.119 2.556,1.711 4.6,1.777c1.68,0 3.25,-0.362 4.71,-1.086c1.461,-0.725 2.593,-1.482 3.396,-2.273c0.803,-0.789 1.789,-1.876 2.957,-3.258c0,-0.066 0.183,-0.724 0.548,-1.976c0.365,-1.251 0.877,-3.193 1.533,-5.826c0.658,-2.634 1.352,-5.07 2.082,-7.309c2.775,-9.876 4.308,-15.044 4.6,-15.505c0.95,-1.778 2.52,-2.667 4.711,-2.667c0.95,0 1.716,0.231 2.3,0.691c0.585,0.461 0.986,0.856 1.205,1.185c0.219,0.33 0.292,0.626 0.219,0.889c-0,0.856 -1.789,7.77 -5.367,20.74c-3.579,12.971 -5.624,20.082 -6.134,21.333c-2.045,5.465 -5.587,9.811 -10.625,13.036c-5.04,3.227 -10.079,4.873 -15.117,4.938c-3.287,0 -6.171,-0.724 -8.654,-2.172c-2.483,-1.449 -3.724,-3.622 -3.724,-6.519c0,-1.448 0.256,-2.666 0.766,-3.654c0.512,-0.988 1.206,-1.712 2.082,-2.173c0.876,-0.46 1.607,-0.789 2.19,-0.987c0.585,-0.197 1.206,-0.297 1.863,-0.297c3.213,0 4.819,1.384 4.819,4.149c0,1.317 -0.438,2.469 -1.314,3.457c-0.876,0.987 -1.716,1.646 -2.519,1.974c-0.804,0.33 -1.278,0.495 -1.424,0.495l-0.329,0.098c0.146,0.329 0.84,0.724 2.082,1.185c1.241,0.461 2.483,0.691 3.724,0.691l0.876,0c1.241,0 2.191,-0.065 2.848,-0.196c2.41,-0.593 4.637,-1.845 6.682,-3.754c2.044,-1.909 3.614,-3.95 4.71,-6.123c1.095,-2.172 1.935,-4.017 2.52,-5.531c0.583,-1.514 0.875,-2.502 0.875,-2.963l-0.656,0.395c-0.438,0.264 -1.132,0.626 -2.081,1.087c-0.95,0.461 -1.9,0.856 -2.849,1.185c-1.46,0.33 -2.885,0.493 -4.272,0.493c-3.359,0 -6.316,-0.724 -8.873,-2.172c-2.556,-1.449 -4.235,-3.786 -5.039,-7.012c-0.072,-0.461 -0.108,-1.481 -0.108,-3.062c-0,-3.752 1.277,-8.658 3.833,-14.716c2.556,-6.057 3.834,-9.909 3.834,-11.554l0,-1.384c0,-0.196 -0.146,-0.427 -0.438,-0.691c-0.293,-0.263 -0.694,-0.394 -1.205,-0.394l-0.438,-0c-1.68,-0 -3.214,0.625 -4.601,1.876c-1.387,1.251 -2.483,2.601 -3.286,4.049c-0.803,1.449 -1.424,2.831 -1.862,4.148c-0.438,1.317 -0.73,2.041 -0.876,2.173c-0.147,0.132 -0.731,0.197 -1.753,0.197l-1.534,0c-0.438,-0.394 -0.657,-0.691 -0.657,-0.889Z" style="fill:#8dcc33;fill-rule:nonzero;stroke:#1e3a5f;stroke-width:1px;"/>
        </g>
    </g>
  <g>
        <g>
            <path id="MJX-44-TEX-I-1D465" d="M730.389,406.577c0.512,-2.765 2.483,-5.959 5.915,-9.58c3.433,-3.621 7.669,-5.464 12.707,-5.531c2.556,0 4.893,0.593 7.011,1.778c2.117,1.185 3.687,2.667 4.71,4.444c3.067,-4.147 6.754,-6.222 11.063,-6.222c2.702,0 5.039,0.724 7.01,2.173c1.972,1.448 2.995,3.391 3.068,5.827c-0,1.91 -0.511,3.457 -1.534,4.642c-1.022,1.185 -2.008,1.909 -2.957,2.173c-0.95,0.263 -1.789,0.395 -2.52,0.395c-1.387,-0 -2.519,-0.362 -3.395,-1.086c-0.877,-0.725 -1.315,-1.679 -1.315,-2.864c-0,-3.029 1.825,-5.103 5.477,-6.222c-0.803,-0.857 -2.264,-1.285 -4.381,-1.285c-0.95,0 -1.644,0.066 -2.082,0.198c-2.775,1.054 -4.82,3.226 -6.134,6.518c-4.381,14.551 -6.572,23.044 -6.572,25.481c-0,1.844 0.583,3.161 1.752,3.95c1.168,0.791 2.447,1.185 3.834,1.185c2.702,0 5.367,-1.085 7.996,-3.258c2.629,-2.173 4.418,-4.84 5.368,-8c0.219,-0.659 0.437,-1.021 0.657,-1.087c0.219,-0.065 0.803,-0.132 1.753,-0.197l0.437,-0c1.096,-0 1.644,0.263 1.644,0.79c0,0.066 -0.073,0.428 -0.219,1.087c-1.169,3.752 -3.433,7.077 -6.791,9.974c-3.36,2.897 -7.267,4.346 -11.722,4.346c-5.111,0 -8.981,-2.075 -11.61,-6.222c-2.995,4.082 -6.427,6.123 -10.297,6.123l-0.657,-0c-3.578,-0 -6.134,-0.855 -7.668,-2.568c-1.534,-1.712 -2.337,-3.522 -2.41,-5.432c0,-2.107 0.693,-3.819 2.082,-5.136c1.387,-1.316 3.03,-1.974 4.928,-1.974c3.141,-0 4.711,1.382 4.711,4.147c-0,1.317 -0.439,2.469 -1.315,3.457c-0.876,0.988 -1.716,1.646 -2.519,1.976c-0.804,0.329 -1.278,0.493 -1.424,0.493l-0.329,0.099c0,0.066 0.22,0.197 0.658,0.395c0.437,0.198 1.022,0.428 1.752,0.691c0.73,0.263 1.424,0.363 2.082,0.296c2.629,0 4.892,-1.481 6.791,-4.444c0.657,-1.053 1.497,-3.292 2.519,-6.716c1.023,-3.423 2.045,-6.979 3.067,-10.665c1.022,-3.688 1.607,-5.861 1.753,-6.519c0.365,-1.778 0.548,-3.061 0.548,-3.852c-0,-1.843 -0.548,-3.16 -1.643,-3.951c-1.096,-0.789 -2.337,-1.185 -3.725,-1.185c-2.921,0 -5.659,1.054 -8.215,3.161c-2.557,2.107 -4.346,4.807 -5.367,8.099c-0.147,0.592 -0.329,0.921 -0.548,0.987c-0.22,0.066 -0.804,0.132 -1.753,0.198l-1.533,-0c-0.438,-0.396 -0.658,-0.758 -0.658,-1.087Z" style="fill:#8dcc33;fill-rule:nonzero;stroke:#1e3a5f;stroke-width:1px;"/>
        </g>
    </g>
  <path d="M372.885,646.491l0,-609.229" style="fill:none;stroke:#8dcc33;stroke-width:11.71px;stroke-linecap:round;stroke-miterlimit:1.5;"/>
  <path d="M5.854,362.627l734.19,0" style="fill:none;stroke:#8dcc33;stroke-width:11.71px;stroke-linecap:round;stroke-miterlimit:1.5;"/>
  <path d="M372.99,167.947c107.454,0 194.692,87.239 194.692,194.693c0,107.454 -87.238,194.693 -194.692,194.693c-107.453,-0 -194.692,-87.239 -194.692,-194.693c-0,-107.454 87.239,-194.693 194.692,-194.693Zm0,11.708c-100.991,0 -182.984,81.993 -182.984,182.985c-0,100.992 81.993,182.985 182.984,182.985c100.992,-0 182.984,-81.993 182.984,-182.985c0,-100.992 -81.992,-182.985 -182.984,-182.985Z" style="fill:#0dcaf2;"/>
  <g>
        <g>
            <path id="MJX-22-TEX-I-1D442" d="M356.593,411.034c0,8.204 -2.293,16.122 -6.882,23.755c-4.588,7.633 -10.503,13.732 -17.743,18.298c-7.24,4.565 -14.66,6.848 -22.259,6.848c-6.954,-0 -12.904,-2.033 -17.851,-6.099c-4.946,-4.066 -8.065,-9.987 -9.356,-17.763c-0.071,-0.57 -0.107,-2.105 -0.107,-4.601c0,-7.277 1.721,-14.197 5.161,-20.76c3.441,-6.562 8.066,-12.376 13.873,-17.441c8.889,-7.348 17.814,-11.021 26.776,-11.021c2.723,-0 4.444,0.035 5.162,0.106c6.953,0.999 12.545,4.066 16.775,9.203c4.229,5.137 6.38,11.628 6.451,19.475Zm-11.075,-4.388c-0,-6.348 -1.65,-11.306 -4.947,-14.873c-3.298,-3.567 -7.42,-5.351 -12.366,-5.351c-5.735,0 -11.256,2.141 -16.561,6.421c-5.735,4.494 -10.108,10.807 -13.119,18.94c-3.011,8.132 -4.552,15.694 -4.624,22.685c0,6.42 1.542,11.521 4.624,15.302c3.083,3.781 7.169,5.707 12.259,5.778c6.452,-0 12.581,-2.818 18.388,-8.454c5.807,-5.635 10.216,-13.304 13.227,-23.005c2.079,-6.778 3.119,-12.592 3.119,-17.443Z" style="fill:#8dcc33;fill-rule:nonzero;stroke:#1e3a5f;stroke-width:1px;"/>
        </g>
    </g>
  <path d="M373.314,4.483l24.733,40.504l-25.14,-10.356l-24.327,10.356l24.734,-40.504Z" style="fill:#8dcc33;"/>
  <path d="M772.658,363.374l-40.503,24.733l10.355,-25.14l-10.355,-24.327l40.503,24.734Z" style="fill:#8dcc33;"/>
  <path d="M375.502,350.312c-6.811,-1.427 -13.498,2.944 -14.924,9.755c-1.427,6.809 2.944,13.497 9.754,14.924c6.81,1.426 13.497,-2.945 14.925,-9.755c1.426,-6.81 -2.945,-13.497 -9.755,-14.924Z" style="fill:#ff0;"/>
  <path d="M375.502,350.312c6.81,1.427 11.181,8.114 9.755,14.924c-1.428,6.81 -8.115,11.181 -14.925,9.755c-6.81,-1.427 -11.181,-8.115 -9.754,-14.924c1.426,-6.811 8.113,-11.182 14.924,-9.755Zm-0.538,2.569c-0.013,0.064 -2.908,-0.913 -6.465,0.821c-6.108,2.979 -7.677,11.476 -2.216,16.408c4.652,4.202 12.507,3.104 15.585,-3.035c2.853,-5.691 -0.461,-12.718 -6.652,-14.138l-0.252,-0.056Z" style="fill:#ff5151;"/>
</svg>
