<?xml version="1.0" encoding="UTF-8" standalone="no"?>
<!DOCTYPE svg PUBLIC "-//W3C//DTD SVG 1.1//EN" "http://www.w3.org/Graphics/SVG/1.1/DTD/svg11.dtd">
<svg width="206" height="168" viewBox="0 0 1474 1293" version="1.1" xmlns="http://www.w3.org/2000/svg" xmlns:xlink="http://www.w3.org/1999/xlink" xml:space="preserve" xmlns:serif="http://www.serif.com/" style="fill-rule:evenodd;clip-rule:evenodd;stroke-linecap:round;stroke-linejoin:round;stroke-miterlimit:1.5;">
    <g transform="matrix(66.6667,0,0,66.6667,357.61,653.924)">
    </g>
  <text x="316.887px" y="653.924px" style="font-family:'ArialMT', 'Arial', sans-serif;font-size:66.667px;fill:#f33;">F</text>
  <g transform="matrix(66.6667,0,0,66.6667,672.687,1141.78)">
    </g>
  <text x="624.542px" y="1141.78px" style="font-family:'ArialMT', 'Arial', sans-serif;font-size:66.667px;fill:#f33;">D</text>
  <g transform="matrix(100,0,0,100,1477.94,1092.84)">
    </g>
  <text x="1405.72px" y="1092.84px" style="font-family:'ArialMT', 'Arial', sans-serif;font-size:100px;fill:#8dcc33;">C</text>
  <g transform="matrix(100,0,0,100,798.586,71.582)">
    </g>
  <text x="731.887px" y="71.582px" style="font-family:'ArialMT', 'Arial', sans-serif;font-size:100px;fill:#8dcc33;">A</text>
  <g transform="matrix(100,0,0,100,59.375,1129.85)">
    </g>
  <text x="-7.324px" y="1129.85px" style="font-family:'ArialMT', 'Arial', sans-serif;font-size:100px;fill:#8dcc33;">B</text>
  <g transform="matrix(66.6667,0,0,66.6667,1147.46,570.654)">
    </g>
  <text x="1102.99px" y="570.654px" style="font-family:'ArialMT', 'Arial', sans-serif;font-size:66.667px;fill:#f33;">E</text>
  <g transform="matrix(1,0,0,0.90904,-2.27374e-13,-31.5266)">
        <g transform="matrix(59.5858,0,0,59.5858,678.153,853.326)">
        </g>
    <text x="631.805px" y="853.326px" style="font-family:'ArialMT', 'Arial', sans-serif;font-size:59.586px;fill:#f33;">O</text>
    </g>
  <g transform="matrix(100,0,0,100,934.3,1271.09)">
    </g>
  <text x="400.608px" y="1271.09px" style="font-family:'ArialMT', 'Arial', sans-serif;font-size:100px;fill:#1e3a5f;">Figure 6–12</text>
  <path d="M763.412,87.508l-689.058,1000.94" style="fill:none;stroke:#0dcaf2;stroke-width:12.5px;"/>
  <path d="M763.412,87.508l-112.427,985.446" style="fill:none;stroke:#96f;stroke-width:12.5px;"/>
  <path d="M375.005,652.289l1017.08,405.172" style="fill:none;stroke:#33cc7b;stroke-width:12.5px;"/>
  <path d="M80.999,1088.45l996.747,-515.961" style="fill:none;stroke:#ff7bac;stroke-width:12.5px;"/>
  <path d="M763.412,87.508l628.668,969.953" style="fill:none;stroke:#0dcaf2;stroke-width:12.5px;"/>
  <path d="M74.354,1088.45l1317.73,-30.985" style="fill:none;stroke:#0dcaf2;stroke-width:12.5px;"/>
  <circle cx="683.807" cy="775.253" r="15.684" style="fill:#ff0;"/>
  <path d="M683.807,759.569c8.656,-0 15.684,7.028 15.684,15.684c0,8.657 -7.028,15.685 -15.684,15.685c-8.657,-0 -15.685,-7.028 -15.685,-15.685c0,-8.656 7.028,-15.684 15.685,-15.684Zm0.004,1.801l0,0.007c-8.906,0.168 -13.678,7.267 -13.871,13.339c-0.357,11.274 11.905,18.2 21.342,12.228c8.276,-5.238 8.802,-17.81 -0.141,-23.47c-3.458,-2.189 -7.034,-2.098 -7.33,-2.104Z" style="fill:#f33;"/>
</svg>
