<?xml version="1.0" encoding="UTF-8" standalone="no"?>
<!DOCTYPE svg PUBLIC "-//W3C//DTD SVG 1.1//EN" "http://www.w3.org/Graphics/SVG/1.1/DTD/svg11.dtd">
<svg width="256" height="168 " viewBox="0 0 1481 777" version="1.1" xmlns="http://www.w3.org/2000/svg" xmlns:xlink="http://www.w3.org/1999/xlink" xml:space="preserve" xmlns:serif="http://www.serif.com/" style="fill-rule:evenodd;clip-rule:evenodd;stroke-linecap:round;stroke-linejoin:round;stroke-miterlimit:1.5;">
    <path d="M545.256,132.106c-1.776,-1.311 -2.154,-3.817 -0.843,-5.594c1.311,-1.776 3.818,-2.154 5.594,-0.843c14.173,10.461 18.165,16.662 26.097,24.02c1.619,1.502 1.714,4.035 0.212,5.653c-1.501,1.619 -4.034,1.714 -5.653,0.212c-7.731,-7.172 -11.591,-13.251 -25.407,-23.448Z" style="fill:#fc6;"/>
  <path d="M524.974,153.734c-1.735,-1.365 -2.036,-3.882 -0.671,-5.617c1.365,-1.735 3.882,-2.036 5.617,-0.671c2.645,2.08 25.597,20.171 33.973,24.806c9.266,5.128 9.343,4.78 17.765,11.341c1.741,1.357 2.054,3.873 0.697,5.614c-1.357,1.742 -3.872,2.054 -5.614,0.697c-7.923,-6.172 -8.006,-5.828 -16.722,-10.652c-8.631,-4.777 -32.319,-23.374 -35.045,-25.518Z" style="fill:#fc6;"/>
  <path d="M507.094,180.676c-1.629,-1.489 -1.743,-4.021 -0.254,-5.651c1.489,-1.63 4.021,-1.744 5.651,-0.254c26.115,23.867 24.342,25.939 45.707,39.077c19.584,12.042 36.218,27.617 38.106,28.68c1.923,1.083 2.605,3.525 1.522,5.448c-1.084,1.924 -3.525,2.606 -5.448,1.522c-1.9,-1.07 -18.661,-16.717 -38.37,-28.836c-21.901,-13.466 -20.144,-15.52 -46.914,-39.986Z" style="fill:#fc6;"/>
  <path d="M478.845,211.581c-1.528,-1.595 -1.473,-4.129 0.121,-5.656c1.595,-1.527 4.129,-1.472 5.656,0.122c29.166,30.451 28.032,32.036 63.962,53.886c13.891,8.448 32.513,16.884 44.584,23.527c5.692,3.132 10.008,5.98 12.077,8.229c1.495,1.625 1.389,4.158 -0.236,5.652c-1.625,1.494 -4.158,1.388 -5.652,-0.236c-1.705,-1.854 -5.356,-4.056 -10.046,-6.636c-12.154,-6.688 -30.897,-15.195 -44.884,-23.7c-36.822,-22.393 -35.692,-23.981 -65.582,-55.188Z" style="fill:#fc6;"/>
  <path d="M613.469,319.764c1.865,0.895 2.755,3.093 1.993,5.053c-0.8,2.058 -3.12,3.079 -5.178,2.279c-0.387,-0.151 -6.407,-3.872 -14.581,-7.263c-63.629,-26.397 -104.612,-60.738 -131.949,-82.294c-1.733,-1.367 -2.031,-3.884 -0.664,-5.618c1.367,-1.733 3.884,-2.031 5.618,-0.664c26.951,21.253 67.327,55.161 130.061,81.187c7.53,3.124 13.275,6.523 14.637,7.285l0.063,0.035Z" style="fill:#fc6;"/>
  <path d="M440.108,268.426c-1.81,-1.264 -2.253,-3.76 -0.989,-5.569c1.264,-1.81 3.76,-2.253 5.57,-0.989c56.984,39.805 54.417,44.835 119.533,69.206c16.875,6.316 57.991,29.908 59.892,31.34c1.763,1.328 2.116,3.838 0.787,5.602c-1.328,1.763 -3.838,2.116 -5.601,0.787c-1.837,-1.383 -41.58,-24.135 -57.883,-30.237c-66.061,-24.724 -63.498,-29.757 -121.309,-70.14Z" style="fill:#fc6;"/>
  <path d="M628.967,403.236c1.328,0.189 2.532,1.042 3.108,2.361c0.883,2.024 -0.043,4.383 -2.066,5.266l-1.005,0.292l-1.071,0.026c-0.28,-0.028 -0.909,-0.15 -1.802,-0.456c-5.146,-1.762 -28.402,-11.743 -30.665,-12.715c-31.133,-13.374 -49.904,-25.209 -81.979,-37.85c-54.415,-21.446 -52.252,-25.5 -99.397,-59.872c-1.784,-1.3 -2.177,-3.804 -0.876,-5.588c1.3,-1.784 3.805,-2.177 5.588,-0.876c46.322,33.771 44.155,37.822 97.619,58.893c32.16,12.675 50.986,24.533 82.203,37.942c2.221,0.955 25.046,10.768 30.098,12.497c0.078,0.027 0.169,0.056 0.245,0.08Z" style="fill:#fc6;"/>
  <path d="M393.979,330.733c-2.036,-0.853 -2.997,-3.198 -2.144,-5.234c0.853,-2.037 3.199,-2.997 5.235,-2.144c10.548,4.418 9.314,6.498 126.882,65.84c6.89,3.477 24.877,15.173 46.08,24.992c4.089,1.894 3.993,1.942 47.976,29.512c1.871,1.172 2.438,3.643 1.265,5.514c-1.172,1.87 -3.643,2.437 -5.514,1.264c-43.196,-27.077 -43.073,-27.171 -47.089,-29.03c-21.312,-9.87 -39.397,-21.615 -46.323,-25.111c-117.103,-59.107 -115.862,-61.202 -126.368,-65.603Z" style="fill:#fc6;"/>
  <path d="M372.713,348.577c-1.945,-1.046 -2.674,-3.473 -1.629,-5.418c1.046,-1.944 3.473,-2.674 5.418,-1.628c76.868,41.333 70.65,50.824 145.649,95.732c18.751,11.228 53.404,34.423 53.741,34.627c1.889,1.141 2.497,3.602 1.355,5.492c-1.141,1.89 -3.602,2.497 -5.492,1.355c-0.336,-0.203 -34.972,-23.388 -53.714,-34.61c-74.841,-44.813 -68.623,-54.305 -145.328,-95.55Z" style="fill:#fc6;"/>
  <path d="M355.47,373.519c-1.864,-1.182 -2.418,-3.656 -1.235,-5.52c1.182,-1.865 3.655,-2.418 5.52,-1.236c55.225,35.022 116.113,93.925 125.029,98.997c3.473,1.977 33.527,19.146 41.975,27.08c1.609,1.511 1.689,4.045 0.177,5.654c-1.511,1.609 -4.044,1.689 -5.654,0.178c-8.129,-7.635 -37.112,-24.057 -40.455,-25.958c-8.936,-5.085 -70,-64.09 -125.357,-99.195Z" style="fill:#fc6;"/>
  <path d="M333.429,400.335c-1.802,-1.275 -2.231,-3.773 -0.956,-5.576c1.275,-1.802 3.773,-2.23 5.575,-0.956c29.057,20.55 31.058,29.904 53.443,43.483c5.823,3.532 23.011,13.942 68.22,50.924c14.786,12.095 25.231,17.206 30.109,21.752c1.615,1.505 1.705,4.038 0.199,5.653c-1.505,1.615 -4.038,1.705 -5.653,0.2c-4.811,-4.484 -15.139,-9.486 -29.72,-21.413c-44.614,-36.495 -61.558,-46.79 -67.305,-50.276c-22.566,-13.69 -24.62,-23.075 -53.912,-43.791Z" style="fill:#fc6;"/>
  <path d="M312.425,423.751c-1.828,-1.237 -2.308,-3.726 -1.07,-5.554c1.237,-1.828 3.726,-2.308 5.554,-1.071c30.242,20.467 42.778,34.729 50.214,43.332c2.869,3.32 4.853,5.745 6.924,7.237c6.653,4.793 58.333,42.039 81.068,62.731c1.633,1.486 1.752,4.018 0.266,5.65c-1.486,1.633 -4.018,1.752 -5.651,0.266c-22.533,-20.508 -73.766,-57.405 -80.36,-62.156c-2.456,-1.77 -4.897,-4.56 -8.3,-8.497c-7.2,-8.33 -19.359,-22.118 -48.645,-41.938Z" style="fill:#fc6;"/>
  <path d="M290.513,453.79c-1.697,-1.411 -1.93,-3.936 -0.518,-5.633c1.411,-1.698 3.935,-1.93 5.633,-0.518c5.417,4.504 47.968,39.905 65.31,59.075c3.525,3.897 4.242,3.037 49.958,42.651c1.669,1.445 1.849,3.974 0.404,5.642c-1.446,1.668 -3.974,1.849 -5.643,0.404c-46.39,-40.198 -47.074,-39.375 -50.652,-43.33c-17.119,-18.923 -59.144,-53.845 -64.492,-58.291Z" style="fill:#fc6;"/>
  <path d="M270.158,481.219c-1.683,-1.428 -1.89,-3.955 -0.461,-5.638c1.428,-1.683 3.955,-1.89 5.638,-0.461c17.172,14.576 22.619,21.83 26.211,26.772c2.084,2.867 3.412,4.875 6.583,7.27c5.641,4.258 4.908,5.024 69.063,55.096c1.74,1.358 2.05,3.874 0.692,5.614c-1.358,1.74 -3.874,2.05 -5.615,0.692c-64.062,-49.999 -63.328,-50.765 -68.961,-55.018c-3.931,-2.969 -5.649,-5.395 -8.233,-8.95c-3.41,-4.691 -8.617,-11.541 -24.917,-25.377Z" style="fill:#fc6;"/>
  <path d="M252.471,504.714c-1.692,-1.417 -1.915,-3.942 -0.497,-5.635c1.418,-1.692 3.943,-1.915 5.635,-0.497c5.841,4.893 31.653,25.503 66.756,62.181c8.335,8.71 19.787,16.201 21.73,17.908c1.659,1.457 1.823,3.986 0.367,5.645c-1.457,1.659 -3.987,1.823 -5.645,0.366c-1.991,-1.748 -13.691,-9.463 -22.232,-18.387c-34.764,-36.325 -60.329,-56.735 -66.114,-61.581Z" style="fill:#fc6;"/>
  <path d="M228.731,529.819c-1.535,-1.587 -1.493,-4.122 0.094,-5.656c1.587,-1.535 4.121,-1.493 5.656,0.094c42.725,44.169 44.238,42.46 47.89,46.344c24.162,25.691 24.078,25.716 25.401,26.895c1.647,1.47 1.792,4 0.323,5.648c-1.47,1.648 -4,1.792 -5.648,0.323c-1.347,-1.202 -1.283,-1.207 -25.904,-27.386c-3.646,-3.877 -5.159,-2.168 -47.812,-46.262Z" style="fill:#fc6;"/>
  <path d="M212.461,553.778c-1.599,-1.522 -1.661,-4.056 -0.139,-5.655c1.522,-1.599 4.056,-1.661 5.655,-0.139c5.324,5.068 5.251,5.085 47.053,46.613c6.744,6.7 11.843,10.212 17.874,16.856c1.483,1.635 1.361,4.166 -0.274,5.65c-1.635,1.484 -4.166,1.361 -5.65,-0.273c-5.93,-6.533 -10.957,-9.97 -17.588,-16.558c-41.695,-41.421 -41.621,-41.439 -46.931,-46.494Z" style="fill:#fc6;"/>
  <path d="M192.75,576.469c-1.754,-1.341 -2.089,-3.853 -0.749,-5.607c1.341,-1.754 3.853,-2.09 5.607,-0.749c1.746,1.334 2.792,0.111 52.413,58.923c1.424,1.687 1.21,4.213 -0.478,5.636c-1.687,1.424 -4.213,1.21 -5.636,-0.478c-48.533,-57.522 -49.45,-56.42 -51.157,-57.725Z" style="fill:#fc6;"/>
  <path d="M170.891,604.906c-1.45,-1.665 -1.275,-4.193 0.39,-5.643c1.665,-1.45 4.193,-1.275 5.643,0.39c12.231,14.045 10.583,15.219 23.205,28.765c1.142,1.226 10.882,11.758 13.394,16.102c1.104,1.912 0.45,4.36 -1.462,5.465c-1.911,1.105 -4.36,0.45 -5.465,-1.461c-2.295,-3.971 -11.276,-13.532 -12.32,-14.652c-12.714,-13.645 -11.065,-14.818 -23.385,-28.966Z" style="fill:#fc6;"/>
  <path d="M153.82,628.872c-1.479,-1.638 -1.349,-4.17 0.29,-5.649c1.639,-1.479 4.17,-1.349 5.649,0.29c27.268,30.215 27.524,29.975 29.629,32.818c1.314,1.774 0.94,4.281 -0.834,5.595c-1.774,1.313 -4.281,0.94 -5.595,-0.834c-2.068,-2.793 -2.348,-2.532 -29.139,-32.22Z" style="fill:#fc6;"/>
  <path d="M135.751,649.625c-1.31,-1.778 -0.93,-4.284 0.847,-5.594c1.777,-1.309 4.283,-0.93 5.593,0.847c17.121,23.231 17.813,22.665 19.213,24.743c1.234,1.831 0.749,4.319 -1.082,5.552c-1.83,1.234 -4.318,0.749 -5.552,-1.082c-1.385,-2.056 -2.082,-1.486 -19.019,-24.466Z" style="fill:#fc6;"/>
  <path d="M113.56,673.765c-1.351,-1.746 -1.03,-4.261 0.716,-5.612c1.745,-1.351 4.26,-1.031 5.611,0.715c10.932,14.126 11.414,14.704 12.455,15.943c1.42,1.691 1.2,4.216 -0.491,5.636c-1.69,1.419 -4.216,1.199 -5.635,-0.491c-1.057,-1.259 -1.551,-1.843 -12.656,-16.191Z" style="fill:#fc6;"/>
  <g transform="matrix(66.6667,0,0,66.6667,321.543,370.835)">
    </g>
  <text x="280.82px" y="370.835px" style="font-family:'ArialMT', 'Arial', sans-serif;font-size:66.667px;fill:#f33;">F</text>
  <g transform="matrix(66.6667,0,0,66.6667,715.46,776.577)">
    </g>
  <text x="667.316px" y="776.577px" style="font-family:'ArialMT', 'Arial', sans-serif;font-size:66.667px;fill:#f33;">D</text>
  <g transform="matrix(100,0,0,100,1484.92,704.926)">
    </g>
  <text x="1412.71px" y="704.926px" style="font-family:'ArialMT', 'Arial', sans-serif;font-size:100px;fill:#8dcc33;">C</text>
  <g transform="matrix(100,0,0,100,595.819,71.582)">
    </g>
  <text x="529.12px" y="71.582px" style="font-family:'ArialMT', 'Arial', sans-serif;font-size:100px;fill:#8dcc33;">A</text>
  <g transform="matrix(100,0,0,100,59.375,740.717)">
    </g>
  <text x="-7.324px" y="740.717px" style="font-family:'ArialMT', 'Arial', sans-serif;font-size:100px;fill:#8dcc33;">B</text>
  <g transform="matrix(66.6667,0,0,66.6667,959.084,325.044)">
    </g>
  <text x="914.618px" y="325.044px" style="font-family:'ArialMT', 'Arial', sans-serif;font-size:66.667px;fill:#f33;">E</text>
  <path d="M592.276,120.127c0.201,-2.199 2.149,-3.821 4.347,-3.62c2.199,0.202 3.821,2.15 3.62,4.348c-1.209,13.214 -1.929,13.062 -4.59,25.814l-0,7.798c-0,2.208 -1.793,4 -4,4c-2.208,-0 -4,-1.792 -4,-4l-0,-8.209c-0,-0.273 0.028,-0.546 0.083,-0.813c2.637,-12.71 3.36,-12.422 4.54,-25.318Z" style="fill:#fc6;"/>
  <path d="M612.163,135.657c0.73,-2.083 3.014,-3.182 5.098,-2.452c2.083,0.73 3.182,3.014 2.452,5.098c-16.194,46.223 -15.999,49.242 -17.234,52.973l0,2.757c0,2.208 -1.792,4 -4,4c-2.207,0 -4,-1.792 -4,-4l0,-3.437c0,-0.475 0.085,-0.946 0.25,-1.392c1.567,-4.223 0.286,-4.601 17.434,-53.547Z" style="fill:#fc6;"/>
  <path d="M602.439,232.755c0.02,-0.542 0.148,-1.045 0.364,-1.366l-0.083,-0.122c19.253,-48.321 26.387,-74.498 28.192,-81.128c0.58,-2.13 2.78,-3.389 4.91,-2.809c2.13,0.58 3.389,2.781 2.809,4.911c-1.824,6.699 -9.023,33.157 -28.479,81.987l-3.229,2.189l-0.487,0.488c-2.208,0 -4,-1.792 -4,-4c-0,-0.001 -0,-0.153 -0,-0.153l0.003,0.003Zm3.997,3.993l-0.075,-0.11c0.005,0.016 0.01,0.032 0.014,0.049l0.061,0.061Z" style="fill:#fc6;"/>
  <path d="M621.851,296.146c0.001,1.025 -0.39,2.049 -1.17,2.829c-1.561,1.561 -4.096,1.561 -5.657,0l-0.829,-0.829c-1.562,-1.562 -1.562,-4.095 -0,-5.657l1.383,-1.382c4.665,-16.492 15.943,-36.397 18.061,-42.556c25.499,-74.12 25.337,-73.972 27.563,-80.397c0.722,-2.086 3.003,-3.193 5.089,-2.47c2.086,0.723 3.193,3.003 2.47,5.089c-2.225,6.423 -2.063,6.276 -27.557,80.381c-2.138,6.215 -13.769,26.578 -18.187,43.069c-0.181,0.678 -0.539,1.296 -1.035,1.793l-0.131,0.13Z" style="fill:#fc6;"/>
  <path d="M630.299,344.777c0.178,1.209 -0.198,2.483 -1.128,3.413c-1.561,1.561 -4.096,1.561 -5.657,-0l-1.142,-1.143c-1.562,-1.562 -1.562,-4.094 -0,-5.656l4.133,-4.133c2.192,-8.218 11.208,-25.558 21.937,-46.363c16.4,-31.802 36.813,-72.039 40.879,-99.499c0.323,-2.184 2.359,-3.695 4.542,-3.371c2.184,0.323 3.695,2.358 3.371,4.542c-4.164,28.128 -24.883,69.42 -41.682,101.995c-10.829,20.998 -20.036,38.218 -21.496,45.509c-0.155,0.774 -0.535,1.485 -1.093,2.043l-2.664,2.663Z" style="fill:#fc6;"/>
  <path d="M717.776,208.128c0.738,-2.081 3.027,-3.17 5.107,-2.432c2.081,0.738 3.171,3.027 2.432,5.107c-13.585,38.277 -61.041,128.883 -66.796,139.866c-18.192,34.718 -18.214,34.571 -19.383,37.218c-0.892,2.02 -3.256,2.935 -5.275,2.043c-2.02,-0.892 -2.935,-3.255 -2.043,-5.275c1.184,-2.68 1.192,-2.54 19.615,-37.699c5.713,-10.903 52.857,-100.831 66.343,-138.828Z" style="fill:#fc6;"/>
  <path d="M749.148,231.04c0.885,-2.022 3.245,-2.946 5.268,-2.061c2.022,0.885 2.946,3.245 2.061,5.268c-37.39,85.461 -34.449,86.877 -63.129,133.467c-18.968,30.812 -38.205,64.825 -38.818,66.53c-0.746,2.078 -3.039,3.158 -5.116,2.412c-2.078,-0.746 -3.159,-3.039 -2.413,-5.117c0.626,-1.741 20.161,-36.548 39.534,-68.019c28.464,-46.239 25.505,-47.663 62.613,-132.48Z" style="fill:#fc6;"/>
  <path d="M781.841,254.285c1.058,-1.938 3.489,-2.652 5.427,-1.595c1.938,1.058 2.653,3.49 1.595,5.427c-24.916,45.658 -21.458,47.222 -54.784,107.474c-43.707,79.02 -42.425,79.544 -46.495,86.243c-1.146,1.887 -3.608,2.488 -5.495,1.342c-1.887,-1.146 -2.488,-3.609 -1.342,-5.495c4.057,-6.677 2.77,-7.205 46.331,-85.962c33.314,-60.229 29.856,-61.793 54.763,-107.434Z" style="fill:#fc6;"/>
  <path d="M808.02,273.074c0.705,-2.092 2.976,-3.218 5.068,-2.513c2.092,0.705 3.218,2.977 2.513,5.068c-6.615,19.618 -7.682,19.164 -90.48,189.544c-0.965,1.986 -3.361,2.814 -5.346,1.85c-1.986,-0.965 -2.815,-3.361 -1.85,-5.346c82.399,-169.558 83.513,-169.081 90.095,-188.603Z" style="fill:#fc6;"/>
  <path d="M839.666,295.445c0.425,-2.166 2.528,-3.581 4.695,-3.156c2.166,0.425 3.58,2.528 3.156,4.695c-3.053,15.576 -7.321,21.353 -10.78,26.271c-1.865,2.652 -3.497,4.969 -4.323,9.136c-7.777,39.215 -55.959,146.297 -56.88,148.932c-0.728,2.084 -3.011,3.185 -5.095,2.457c-2.084,-0.728 -3.185,-3.011 -2.457,-5.095c0.914,-2.617 48.863,-108.909 56.585,-147.85c1.097,-5.532 3.15,-8.661 5.627,-12.182c3.053,-4.342 6.778,-9.458 9.472,-23.208Z" style="fill:#fc6;"/>
  <path d="M868.794,315.036c0.663,-2.106 2.91,-3.278 5.016,-2.615c2.106,0.662 3.278,2.91 2.615,5.016c-8.13,25.846 -29.917,83.68 -33.359,100.409c-5.073,24.658 -23.615,70.326 -26.044,76.301c-0.831,2.045 -3.167,3.03 -5.212,2.198c-2.045,-0.831 -3.03,-3.167 -2.199,-5.212c2.386,-5.866 20.638,-50.688 25.619,-74.899c3.468,-16.858 25.371,-75.153 33.564,-101.198Z" style="fill:#fc6;"/>
  <path d="M903.981,341.715c0.509,-2.148 2.667,-3.478 4.815,-2.969c2.148,0.51 3.479,2.667 2.969,4.815c-11.779,49.663 -41.83,129.254 -41.895,129.45c-0.924,2.794 0.063,2.809 -10.243,35.334c-0.666,2.104 -2.916,3.272 -5.021,2.605c-2.105,-0.667 -3.272,-2.917 -2.605,-5.022c10.333,-32.612 9.347,-32.627 10.274,-35.429c0.064,-0.195 29.987,-79.373 41.706,-128.784Z" style="fill:#fc6;"/>
  <path d="M935.147,362.729c0.409,-2.17 2.502,-3.599 4.672,-3.19c2.169,0.409 3.599,2.502 3.19,4.672c-1.702,9.026 -24.217,102.314 -27.809,111.638c-8.564,22.231 -8.396,22.098 -14.794,44.892c-0.596,2.126 -2.806,3.367 -4.932,2.77c-2.125,-0.596 -3.367,-2.806 -2.77,-4.932c6.5,-23.157 6.33,-23.021 15.031,-45.606c3.547,-9.207 25.732,-101.331 27.412,-110.244Z" style="fill:#fc6;"/>
  <path d="M968.064,388.543c0.401,-2.171 2.489,-3.608 4.66,-3.206c2.171,0.401 3.608,2.489 3.207,4.66c-6.654,36.003 -11.628,69.449 -26.808,147.67c-0.42,2.168 -2.521,3.586 -4.689,3.165c-2.167,-0.421 -3.585,-2.521 -3.164,-4.689c15.172,-78.184 20.144,-111.613 26.794,-147.6Z" style="fill:#fc6;"/>
  <path d="M1002.12,412.974c0.38,-2.175 2.454,-3.632 4.629,-3.252c2.175,0.38 3.632,2.454 3.252,4.629c-21.572,123.493 -21.065,123.521 -23.403,134.163c-0.474,2.156 -2.609,3.522 -4.765,3.048c-2.156,-0.473 -3.522,-2.608 -3.049,-4.765c2.332,-10.614 1.819,-10.644 23.336,-133.823Z" style="fill:#fc6;"/>
  <path d="M1032.35,433.323c0.332,-2.182 2.374,-3.684 4.557,-3.351c2.182,0.332 3.684,2.374 3.351,4.556c-9.54,62.614 -9.659,62.386 -22.114,124.465c-0.434,2.164 -2.544,3.569 -4.709,3.135c-2.164,-0.434 -3.569,-2.544 -3.135,-4.709c12.418,-61.895 12.537,-61.667 22.05,-124.096Z" style="fill:#fc6;"/>
  <path d="M1071.42,459.945c0.214,-2.197 2.172,-3.807 4.369,-3.593c2.197,0.214 3.807,2.172 3.593,4.369c-6.224,63.882 -6.323,70.099 -6.412,76.217c-0.047,3.26 -1.591,2.992 -5.832,40.333c-0.249,2.194 -2.232,3.773 -4.425,3.523c-2.194,-0.249 -3.773,-2.232 -3.523,-4.425c4.158,-36.622 5.735,-36.35 5.781,-39.547c0.089,-6.171 0.171,-12.443 6.449,-76.877Z" style="fill:#fc6;"/>
  <path d="M1111.07,489.156c0.204,-2.198 2.155,-3.817 4.353,-3.613c2.198,0.204 3.817,2.155 3.613,4.353c-4.638,49.908 -6.601,49.467 -11.642,99.124c-0.223,2.196 -2.187,3.798 -4.383,3.575c-2.197,-0.223 -3.799,-2.187 -3.576,-4.383c5.037,-49.623 7.001,-49.182 11.635,-99.056Z" style="fill:#fc6;"/>
  <path d="M1149.23,516.01c0.062,-2.206 1.903,-3.948 4.11,-3.887c2.207,0.062 3.949,1.903 3.887,4.11c-1.188,42.687 -3.723,42.343 -4.78,84.851c-0.055,2.207 -1.891,3.954 -4.098,3.899c-2.207,-0.054 -3.955,-1.891 -3.9,-4.098c1.058,-42.52 3.593,-42.176 4.781,-84.875Z" style="fill:#fc6;"/>
  <path d="M1186.62,543.154c-0.066,-2.207 1.673,-4.052 3.879,-4.117c2.207,-0.066 4.052,1.673 4.117,3.879c1.126,37.889 -1.362,37.69 1.569,75.329c0.172,2.201 -1.476,4.127 -3.677,4.299c-2.201,0.171 -4.127,-1.477 -4.298,-3.678c-2.947,-37.831 -0.459,-37.631 -1.59,-75.712Z" style="fill:#fc6;"/>
  <path d="M1226.41,572.966c-0.138,-2.204 1.54,-4.104 3.743,-4.242c2.203,-0.137 4.104,1.54 4.241,3.744c1.705,27.34 2.19,27.039 1.389,54.42c-0.064,2.207 -1.908,3.946 -4.115,3.881c-2.207,-0.064 -3.946,-1.908 -3.882,-4.115c0.79,-27.012 0.306,-26.716 -1.376,-53.688Z" style="fill:#fc6;"/>
  <path d="M1273.07,605.279c0,-2.208 1.792,-4 4,-4c2.208,0 4,1.792 4,4c0,3.091 -0.003,31.823 0.341,38.631c0.111,2.205 -1.589,4.085 -3.793,4.197c-2.205,0.111 -4.086,-1.589 -4.197,-3.793c-0.348,-6.88 -0.351,-35.912 -0.351,-39.035Z" style="fill:#fc6;"/>
  <path d="M1316.14,634.662c0.134,-2.204 2.031,-3.884 4.235,-3.75c2.203,0.134 3.884,2.031 3.75,4.235c-1.045,17.217 -1.207,17.176 -1.263,18.672c-0.082,2.206 -1.94,3.931 -4.146,3.848c-2.206,-0.082 -3.93,-1.939 -3.848,-4.145c0.056,-1.512 0.216,-1.47 1.272,-18.86Z" style="fill:#fc6;"/>
  <path d="M601.984,231.064c0.687,-2.098 2.948,-3.244 5.046,-2.557c2.098,0.687 3.244,2.947 2.557,5.046l-2.593,7.923c-0.686,2.098 -2.947,3.244 -5.045,2.557c-2.098,-0.686 -3.244,-2.947 -2.558,-5.045l2.593,-7.924Z" style="fill:#fc6;"/>
  <path d="M594.631,195.103c0.005,-0.28 0.018,-0.604 0.05,-0.815l0.39,-1.333c0.909,-2.012 3.28,-2.908 5.292,-1.999c1.76,0.796 2.666,2.711 2.256,4.525c-0.002,0.31 -0.012,0.781 -0.053,1.058l-0.39,1.333c-0.216,0.478 0.003,0.002 -2.941,5.859c-0.991,1.973 -3.397,2.769 -5.37,1.778c-1.972,-0.991 -2.769,-3.397 -1.778,-5.37c1.709,-3.4 2.297,-4.551 2.544,-5.036Z" style="fill:#fc6;"/>
  <path d="M584.452,161.036c0.392,-1.628 1.288,-5.211 2.899,-10.931c0.598,-2.125 2.809,-3.365 4.934,-2.766c2.125,0.598 3.364,2.809 2.766,4.934c-2.234,7.939 -2.9,11.262 -3.299,12.445l-0.681,1.414l-0.963,1.013l-1.119,0.605l-1.369,0.242l-1.533,-0.28l-1.361,-0.822c-1.686,-1.426 -1.896,-3.952 -0.47,-5.637c0.063,-0.075 0.129,-0.147 0.196,-0.217Z" style="fill:#fc6;"/>
  <path d="M640.251,444.744l733.164,232.944" style="fill:none;stroke:#33cc7b;stroke-width:12.5px;"/>
  <path d="M86.875,713.479l550.454,-269.611" style="fill:none;stroke:#ff7bac;stroke-width:12.5px;"/>
  <path d="M568.309,91.307l829.348,591.188" style="fill:none;stroke:#0dcaf2;stroke-width:12.5px;"/>
  <g transform="matrix(1,0,0,0.947908,0,-22.482)">
        <g transform="matrix(44.7916,0,0,44.7916,622.657,470.422)">
        </g>
    <text x="587.816px" y="470.422px" style="font-family:'ArialMT', 'Arial', sans-serif;font-size:44.792px;fill:#f33;">O</text>
    </g>
  <path d="M568.309,91.307l-486.83,620.939" style="fill:none;stroke:#0dcaf2;stroke-width:12.5px;"/>
  <path d="M568.309,91.307l119.959,606.68" style="fill:none;stroke:#96f;stroke-width:12.5px;"/>
  <circle cx="637.329" cy="442.274" r="15.684" style="fill:#ff0;"/>
  <path d="M637.329,426.589c8.656,0 15.684,7.028 15.684,15.685c0,8.656 -7.028,15.684 -15.684,15.684c-8.657,0 -15.685,-7.028 -15.685,-15.684c0,-8.657 7.028,-15.685 15.685,-15.685Zm0.005,1.801l-0,0.007c-8.907,0.169 -13.679,7.268 -13.872,13.34c-0.357,11.273 11.906,18.199 21.342,12.227c8.276,-5.237 8.802,-17.81 -0.141,-23.47c-3.458,-2.188 -7.034,-2.098 -7.329,-2.104Z" style="fill:#f33;"/>
  <path d="M86.875,713.479l1310.78,-30.984" style="fill:none;stroke:#0dcaf2;stroke-width:12.5px;"/>
</svg>
