<?xml version="1.0" encoding="UTF-8" standalone="no"?>
<!DOCTYPE svg PUBLIC "-//W3C//DTD SVG 1.1//EN" "http://www.w3.org/Graphics/SVG/1.1/DTD/svg11.dtd">
<svg width="256" height="256" viewBox="0 0 776 741" version="1.1" xmlns="http://www.w3.org/2000/svg" xmlns:xlink="http://www.w3.org/1999/xlink" xml:space="preserve" xmlns:serif="http://www.serif.com/" style="fill-rule:evenodd;clip-rule:evenodd;stroke-linecap:round;stroke-linejoin:round;stroke-miterlimit:1.5;">
    <path d="M565.76,168.889l110.894,-62.214" style="fill:none;stroke:#ff5151;stroke-width:5.34px;"/>
  <path d="M564.775,168.903l-193.401,-0" style="fill:none;stroke:#9370db;stroke-width:5.34px;stroke-linejoin:miter;stroke-dasharray:8.01,10.67,0,0,0,0;"/>
  <path d="M565.173,169.578l-0,195.923" style="fill:none;stroke:#9370db;stroke-width:5.34px;stroke-linejoin:miter;stroke-dasharray:8.01,10.67,0,0,0,0;"/>
  <path d="M370.488,736.973l-0,-732.968" style="fill:none;stroke:#8dcc33;stroke-width:8.01px;"/>
  <path d="M4.005,370.488l732.968,-0" style="fill:none;stroke:#8dcc33;stroke-width:8.01px;"/>
  <path d="M564.951,35.872c73.508,-0 133.187,59.679 133.187,133.186c-0,73.508 -59.679,133.186 -133.187,133.186c-73.507,0 -133.186,-59.678 -133.186,-133.186c-0,-73.507 59.679,-133.186 133.186,-133.186Zm0,8.009c-69.087,-0 -125.177,56.09 -125.177,125.177c0,69.087 56.09,125.177 125.177,125.177c69.088,0 125.177,-56.09 125.177,-125.177c0,-69.087 -56.089,-125.177 -125.177,-125.177Z" style="fill:#0dcaf2;"/>
  <path d="M682.19,218.133c-6.011,-1.259 -11.913,2.598 -13.172,8.609c-1.259,6.01 2.598,11.912 8.609,13.172c6.01,1.259 11.912,-2.599 13.172,-8.609c1.259,-6.011 -2.599,-11.913 -8.609,-13.172Z" style="fill:#ff0;"/>
  <path d="M682.19,218.133c6.01,1.259 9.868,7.161 8.609,13.172c-1.26,6.01 -7.162,9.868 -13.172,8.609c-6.011,-1.26 -9.868,-7.162 -8.609,-13.172c1.259,-6.011 7.161,-9.868 13.172,-8.609Zm-0.475,2.268c-0.012,0.055 -2.567,-0.806 -5.706,0.724c-5.391,2.629 -6.775,10.129 -1.956,14.481c4.106,3.709 11.039,2.74 13.755,-2.678c2.518,-5.023 -0.407,-11.225 -5.871,-12.478l-0.222,-0.049Z" style="fill:#ff5151;"/>
  <g>
        <path id="MJX-24-TEX-I-1D466" d="M327.528,161.999c0,-0.383 0.205,-1.038 0.615,-1.968c0.41,-0.929 1.066,-1.899 1.967,-2.91c0.902,-1.011 1.913,-1.502 3.033,-1.475c1.121,-0 2.022,0.314 2.705,0.943c0.683,0.628 1.038,1.502 1.066,2.622c-0.055,0.52 -0.096,0.806 -0.123,0.861c-0,0.083 -0.219,0.71 -0.656,1.886c-0.437,1.175 -0.888,2.5 -1.352,3.975c-0.465,1.475 -0.683,2.651 -0.656,3.525c-0,1.175 0.191,1.994 0.574,2.459c0.382,0.464 0.956,0.71 1.721,0.738c0.628,-0 1.216,-0.151 1.763,-0.451c0.546,-0.301 0.97,-0.615 1.27,-0.943c0.301,-0.328 0.669,-0.778 1.107,-1.352c-0,-0.028 0.068,-0.301 0.205,-0.82c0.136,-0.519 0.327,-1.325 0.573,-2.418c0.246,-1.093 0.506,-2.104 0.779,-3.033c1.038,-4.099 1.612,-6.243 1.721,-6.435c0.355,-0.737 0.943,-1.106 1.762,-1.106c0.356,-0 0.643,0.095 0.862,0.287c0.218,0.191 0.368,0.355 0.45,0.491c0.082,0.137 0.11,0.26 0.082,0.369c0,0.355 -0.67,3.224 -2.008,8.607c-1.339,5.383 -2.104,8.334 -2.295,8.853c-0.765,2.268 -2.09,4.071 -3.976,5.41c-1.885,1.339 -3.77,2.022 -5.656,2.049c-1.229,0 -2.308,-0.301 -3.238,-0.902c-0.929,-0.601 -1.393,-1.502 -1.393,-2.704c-0,-0.601 0.095,-1.107 0.287,-1.517c0.191,-0.41 0.451,-0.711 0.778,-0.901c0.328,-0.192 0.601,-0.329 0.821,-0.411c0.218,-0.082 0.45,-0.123 0.696,-0.123c1.202,0 1.803,0.575 1.803,1.722c0,0.547 -0.163,1.025 -0.491,1.434c-0.328,0.41 -0.642,0.684 -0.943,0.82c-0.3,0.137 -0.479,0.205 -0.533,0.205l-0.123,0.041c0.055,0.137 0.315,0.301 0.779,0.492c0.465,0.191 0.929,0.287 1.393,0.287l0.328,-0c0.465,-0 0.82,-0.028 1.066,-0.082c0.901,-0.246 1.735,-0.765 2.5,-1.558c0.765,-0.792 1.353,-1.639 1.763,-2.54c0.409,-0.903 0.724,-1.668 0.942,-2.296c0.219,-0.628 0.328,-1.038 0.328,-1.229l-0.246,0.163c-0.164,0.11 -0.423,0.26 -0.779,0.451c-0.355,0.192 -0.71,0.355 -1.066,0.492c-0.546,0.137 -1.079,0.205 -1.598,0.205c-1.257,-0 -2.363,-0.301 -3.32,-0.902c-0.956,-0.601 -1.584,-1.571 -1.885,-2.909c-0.028,-0.192 -0.041,-0.615 -0.041,-1.271c0,-1.558 0.478,-3.593 1.435,-6.107c0.956,-2.514 1.434,-4.112 1.434,-4.795l0,-0.574c0,-0.082 -0.055,-0.177 -0.164,-0.287c-0.109,-0.109 -0.259,-0.164 -0.451,-0.164l-0.164,0c-0.628,0 -1.202,0.26 -1.721,0.779c-0.519,0.519 -0.929,1.079 -1.23,1.68c-0.3,0.601 -0.533,1.176 -0.697,1.721c-0.163,0.547 -0.273,0.848 -0.327,0.903c-0.055,0.054 -0.274,0.082 -0.656,0.082l-0.574,-0c-0.164,-0.164 -0.246,-0.287 -0.246,-0.369Z" style="fill:#9370db;fill-rule:nonzero;stroke:#1e3a5f;stroke-width:0.42px;stroke-linecap:butt;stroke-miterlimit:2;"/>
    </g>
  <g>
        <path id="MJX-24-TEX-N-30" d="M350.885,162.958c1.081,-1.565 2.559,-2.347 4.433,-2.347c0.927,-0 1.854,0.251 2.782,0.753c0.927,0.503 1.68,1.391 2.26,2.666c0.715,1.604 1.072,3.806 1.072,6.606c0,2.995 -0.415,5.284 -1.246,6.868c-0.387,0.811 -0.918,1.458 -1.594,1.941c-0.676,0.484 -1.265,0.783 -1.768,0.899c-0.501,0.116 -0.994,0.183 -1.477,0.202c-0.502,0 -1.005,-0.057 -1.507,-0.173c-0.502,-0.116 -1.091,-0.425 -1.767,-0.928c-0.676,-0.502 -1.207,-1.149 -1.594,-1.941c-0.831,-1.584 -1.246,-3.873 -1.246,-6.868c-0,-3.361 0.55,-5.92 1.652,-7.678Zm6.519,-0.348c-0.58,-0.618 -1.265,-0.927 -2.057,-0.927c-0.811,-0 -1.507,0.309 -2.086,0.927c-0.483,0.502 -0.802,1.198 -0.956,2.086c-0.155,0.889 -0.232,2.744 -0.232,5.564c-0,3.052 0.077,5.061 0.232,6.027c0.154,0.966 0.501,1.729 1.043,2.289c0.541,0.58 1.207,0.869 1.999,0.869c0.773,0 1.429,-0.289 1.97,-0.869c0.561,-0.579 0.908,-1.39 1.043,-2.434c0.136,-1.043 0.213,-3.004 0.232,-5.882c0,-2.801 -0.077,-4.646 -0.232,-5.534c-0.154,-0.889 -0.473,-1.595 -0.956,-2.116Z" style="fill:#9370db;fill-rule:nonzero;stroke:#1e3a5f;stroke-width:0.42px;stroke-linecap:butt;stroke-miterlimit:2;"/>
    </g>
  <g>
        <path id="MJX-24-TEX-I-1D465" d="M547.244,385.76c0.191,-1.148 0.929,-2.473 2.213,-3.975c1.284,-1.503 2.869,-2.268 4.754,-2.295c0.956,-0 1.831,0.245 2.624,0.737c0.792,0.492 1.379,1.107 1.762,1.844c1.147,-1.721 2.527,-2.581 4.14,-2.581c1.01,-0 1.885,0.3 2.622,0.901c0.738,0.601 1.121,1.407 1.148,2.418c-0,0.792 -0.191,1.435 -0.574,1.926c-0.382,0.492 -0.751,0.793 -1.106,0.902c-0.356,0.109 -0.67,0.164 -0.943,0.164c-0.519,-0 -0.943,-0.15 -1.27,-0.45c-0.328,-0.302 -0.493,-0.698 -0.493,-1.189c0,-1.257 0.684,-2.118 2.05,-2.582c-0.301,-0.356 -0.847,-0.533 -1.639,-0.533c-0.356,-0 -0.616,0.027 -0.78,0.082c-1.038,0.437 -1.803,1.339 -2.295,2.705c-1.639,6.038 -2.459,9.563 -2.459,10.574c0,0.765 0.219,1.312 0.656,1.639c0.437,0.328 0.915,0.492 1.435,0.492c1.01,0 2.008,-0.451 2.991,-1.352c0.984,-0.902 1.654,-2.009 2.009,-3.32c0.082,-0.273 0.164,-0.424 0.246,-0.451c0.082,-0.027 0.3,-0.055 0.656,-0.082l0.163,-0c0.41,-0 0.615,0.109 0.615,0.328c0,0.027 -0.027,0.177 -0.082,0.451c-0.437,1.557 -1.284,2.937 -2.541,4.139c-1.256,1.202 -2.719,1.804 -4.385,1.804c-1.913,-0 -3.361,-0.861 -4.344,-2.582c-1.121,1.694 -2.405,2.541 -3.853,2.541l-0.246,-0c-1.339,-0 -2.296,-0.356 -2.869,-1.066c-0.574,-0.71 -0.875,-1.462 -0.902,-2.254c-0,-0.874 0.26,-1.585 0.779,-2.132c0.519,-0.546 1.133,-0.819 1.844,-0.819c1.175,-0 1.763,0.574 1.763,1.722c-0,0.545 -0.164,1.024 -0.492,1.434c-0.328,0.41 -0.642,0.683 -0.943,0.82c-0.3,0.136 -0.478,0.204 -0.533,0.204l-0.123,0.041c0,0.028 0.082,0.082 0.246,0.164c0.164,0.082 0.383,0.178 0.656,0.287c0.273,0.11 0.533,0.151 0.779,0.123c0.983,0 1.83,-0.615 2.541,-1.844c0.246,-0.437 0.56,-1.367 0.942,-2.787c0.383,-1.421 0.765,-2.896 1.148,-4.426c0.383,-1.53 0.601,-2.433 0.655,-2.706c0.138,-0.737 0.206,-1.27 0.206,-1.598c-0,-0.765 -0.206,-1.311 -0.615,-1.639c-0.41,-0.328 -0.875,-0.492 -1.394,-0.492c-1.093,-0 -2.117,0.437 -3.073,1.311c-0.957,0.875 -1.626,1.995 -2.009,3.361c-0.054,0.246 -0.122,0.382 -0.204,0.41c-0.082,0.028 -0.301,0.054 -0.656,0.082l-0.574,0c-0.164,-0.164 -0.246,-0.315 -0.246,-0.451Z" style="fill:#9370db;fill-rule:nonzero;stroke:#1e3a5f;stroke-width:0.42px;stroke-linecap:butt;stroke-miterlimit:2;"/>
    </g>
  <g>
        <path id="MJX-24-TEX-N-301" serif:id="MJX-24-TEX-N-30" d="M572.691,386.801c1.081,-1.565 2.559,-2.347 4.433,-2.347c0.927,0 1.854,0.251 2.781,0.754c0.928,0.502 1.681,1.391 2.261,2.665c0.714,1.604 1.072,3.806 1.072,6.607c-0,2.994 -0.415,5.283 -1.246,6.867c-0.387,0.812 -0.918,1.459 -1.594,1.942c-0.676,0.483 -1.265,0.782 -1.768,0.898c-0.501,0.116 -0.994,0.183 -1.477,0.203c-0.503,0 -1.005,-0.058 -1.507,-0.174c-0.502,-0.116 -1.091,-0.425 -1.767,-0.927c-0.676,-0.503 -1.208,-1.15 -1.594,-1.942c-0.831,-1.584 -1.246,-3.873 -1.246,-6.867c-0,-3.362 0.55,-5.921 1.652,-7.679Zm6.519,-0.347c-0.58,-0.618 -1.265,-0.928 -2.057,-0.928c-0.811,0 -1.507,0.31 -2.087,0.928c-0.483,0.502 -0.801,1.197 -0.956,2.086c-0.155,0.888 -0.231,2.743 -0.231,5.563c-0,3.053 0.076,5.061 0.231,6.028c0.155,0.965 0.503,1.728 1.044,2.288c0.54,0.58 1.207,0.87 1.999,0.87c0.772,-0 1.429,-0.29 1.97,-0.87c0.561,-0.579 0.908,-1.39 1.043,-2.433c0.135,-1.043 0.213,-3.004 0.232,-5.883c0,-2.801 -0.077,-4.645 -0.232,-5.534c-0.154,-0.889 -0.473,-1.594 -0.956,-2.115Z" style="fill:#9370db;fill-rule:nonzero;stroke:#1e3a5f;stroke-width:0.42px;stroke-linecap:butt;stroke-miterlimit:2;"/>
    </g>
  <g>
        <g>
            <path id="MJX-261-NCM-N-28" d="M703.18,244.899c0.346,0 0.539,-0.141 0.539,-0.395c-0,-0.085 -0.077,-0.198 -0.193,-0.31c-2.003,-1.129 -3.621,-2.992 -4.815,-5.56c-1.041,-2.23 -1.58,-4.432 -1.58,-6.605l0,-2.371c0,-2.173 0.539,-4.374 1.58,-6.604c1.194,-2.568 2.812,-4.431 4.815,-5.56c0.116,-0.085 0.193,-0.197 0.193,-0.31c-0,-0.254 -0.193,-0.395 -0.539,-0.395c-0.039,-0 -0.155,0.028 -0.27,0.084c-2.312,1.298 -4.238,3.218 -5.817,5.786c-1.503,2.455 -2.273,4.77 -2.273,6.999l-0,2.371c-0,2.23 0.77,4.544 2.273,7c1.579,2.568 3.505,4.487 5.817,5.785c0.115,0.057 0.231,0.085 0.27,0.085Z" style="fill:#0dcaf2;fill-rule:nonzero;stroke:#1e3a5f;stroke-width:0.42px;stroke-linecap:butt;stroke-miterlimit:2;"/>
        </g>
    <g>
            <g>
                <path id="MJX-261-NCM-I-1D465" d="M726.218,227.372c-0,-1.298 -1.734,-1.947 -3.66,-1.947c-1.657,-0 -2.967,0.649 -3.968,1.947c-0.809,-1.298 -2.158,-1.947 -4.122,-1.947c-1.888,-0 -3.429,0.649 -4.662,1.919c-1.04,1.101 -1.58,1.919 -1.58,2.456c0,0.254 0.193,0.395 0.578,0.395c0.347,-0 0.578,-0.141 0.655,-0.395c0.732,-1.637 2.35,-3.557 4.932,-3.557c1.271,0 1.887,0.593 1.887,1.75c0,0.593 -0.693,2.794 -2.042,6.576c-0.655,1.891 -1.81,2.823 -3.467,2.823c-0.539,-0 -1.04,-0.085 -1.464,-0.226c1.002,-0.282 1.503,-0.79 1.503,-1.524c-0,-0.734 -0.501,-1.101 -1.541,-1.101c-1.272,0 -2.235,0.79 -2.235,1.722c0,1.298 1.811,1.947 3.699,1.947c1.618,0 2.928,-0.649 3.968,-1.947c0.732,1.298 2.119,1.947 4.122,1.947c1.849,0 3.39,-0.649 4.623,-1.919c1.04,-1.101 1.58,-1.919 1.58,-2.455c-0,-0.254 -0.193,-0.396 -0.578,-0.396c-0.347,0 -0.54,0.142 -0.655,0.396c-0.655,1.608 -2.389,3.556 -4.893,3.556c-1.271,-0 -1.926,-0.565 -1.926,-1.722c-0,-0.367 0.192,-1.157 0.616,-2.427l1.31,-3.81c0.732,-2.117 1.926,-3.19 3.621,-3.19c0.54,0 1.041,0.085 1.464,0.226c-1.04,0.254 -1.541,0.762 -1.541,1.524c0,0.734 0.54,1.101 1.58,1.101c1.233,-0 2.196,-0.819 2.196,-1.722Z" style="fill:#0dcaf2;fill-rule:nonzero;stroke:#1e3a5f;stroke-width:0.42px;stroke-linecap:butt;stroke-miterlimit:2;"/>
            </g>
      <g>
                <path id="MJX-261-NCM-N-2C" d="M733.307,234.908c-1.233,0 -2.042,0.677 -2.042,1.581c-0,0.846 0.886,1.552 2.042,1.552c0.539,-0 1.001,-0.113 1.348,-0.367l0.038,0.226c0,1.778 -0.809,3.302 -2.427,4.515c-0.269,0.226 -0.423,0.396 -0.423,0.508c-0,0.283 0.154,0.424 0.5,0.424c0.347,-0 0.809,-0.339 1.464,-0.988c1.31,-1.355 1.965,-2.851 1.965,-4.459c0,-1.496 -0.693,-2.992 -2.465,-2.992Z" style="fill:#0dcaf2;fill-rule:nonzero;stroke:#1e3a5f;stroke-width:0.42px;stroke-linecap:butt;stroke-miterlimit:2;"/>
            </g>
      <g>
                <path id="MJX-261-NCM-I-1D466" d="M751.363,225.425c-1.733,-0 -3.082,0.706 -4.045,2.117c-0.732,1.1 -1.117,1.862 -1.117,2.286c0,0.254 0.193,0.395 0.616,0.395c0.54,-0 0.578,-0.169 0.732,-0.593c0.887,-2.229 2.119,-3.358 3.699,-3.358c0.501,-0 0.77,0.254 0.77,0.762c0,0.451 -0.192,1.1 -0.616,1.919c-1.464,2.907 -2.196,4.854 -2.196,5.899c0,2.145 1.811,3.415 4.777,3.415c1.272,-0 2.466,-0.339 3.545,-1.016c-1.349,3.725 -3.468,5.588 -6.357,5.588c-1.31,-0 -2.196,-0.311 -2.658,-0.932c1.541,-0.056 2.311,-0.592 2.311,-1.608c0,-0.706 -0.501,-1.073 -1.541,-1.073c-1.425,0 -2.273,0.875 -2.273,1.919c0,1.553 1.926,2.541 4.161,2.541c4.43,-0 8.052,-2.992 9.015,-5.758l3.621,-10.669c0.116,-0.31 0.154,-0.536 0.154,-0.677c0,-0.564 -0.423,-0.847 -1.232,-0.847c-0.617,0 -1.118,0.226 -1.464,0.65c-0.232,0.592 -0.424,1.1 -0.54,1.524l-2.465,7.253c-0.386,1.016 -2.428,2.286 -4.161,2.286c-1.464,0 -2.196,-0.705 -2.196,-2.145c-0,-1.185 0.655,-2.992 1.926,-5.419c0.501,-0.988 0.771,-1.665 0.771,-2.06c-0,-1.383 -1.349,-2.399 -3.237,-2.399Z" style="fill:#0dcaf2;fill-rule:nonzero;stroke:#1e3a5f;stroke-width:0.42px;stroke-linecap:butt;stroke-miterlimit:2;"/>
            </g>
        </g>
    <g>
            <path id="MJX-261-NCM-N-29" d="M766.966,244.814c2.312,-1.298 4.238,-3.217 5.818,-5.785c1.502,-2.456 2.273,-4.77 2.273,-7l-0,-2.371c-0,-2.229 -0.771,-4.544 -2.273,-6.999c-1.58,-2.568 -3.506,-4.488 -5.818,-5.786c-0.115,-0.056 -0.231,-0.084 -0.269,-0.084c-0.347,-0 -0.54,0.141 -0.54,0.395c0,0.113 0.077,0.225 0.193,0.31c2.003,1.129 3.621,2.992 4.816,5.56c1.04,2.23 1.579,4.431 1.579,6.604l0,2.371c0,2.173 -0.539,4.375 -1.579,6.605c-1.195,2.568 -2.813,4.431 -4.816,5.56c-0.116,0.112 -0.193,0.225 -0.193,0.31c0,0.254 0.193,0.395 0.54,0.395c0.038,0 0.154,-0.028 0.269,-0.085Z" style="fill:#0dcaf2;fill-rule:nonzero;stroke:#1e3a5f;stroke-width:0.42px;stroke-linecap:butt;stroke-miterlimit:2;"/>
        </g>
    </g>
  <path id="MJX-24-TEX-I-1D45F" d="M606.778,121.537c0.028,-0.082 0.055,-0.192 0.082,-0.328c0.028,-0.137 0.096,-0.437 0.205,-0.902c0.109,-0.464 0.246,-0.888 0.41,-1.27c0.164,-0.383 0.369,-0.834 0.615,-1.353c0.246,-0.519 0.519,-0.929 0.819,-1.23c0.301,-0.3 0.657,-0.601 1.066,-0.901c0.41,-0.301 0.86,-0.424 1.353,-0.369c0.792,-0 1.489,0.164 2.09,0.492c0.601,0.328 1.024,0.628 1.27,0.901c0.246,0.274 0.396,0.547 0.451,0.82c0.055,0.164 0.096,0.246 0.123,0.246c0.027,-0 0.137,-0.096 0.328,-0.287c1.311,-1.421 2.828,-2.131 4.549,-2.131l0.123,-0c1.312,-0 2.295,0.56 2.951,1.68c0.219,0.519 0.328,1.025 0.328,1.517c0,0.82 -0.178,1.475 -0.533,1.967c-0.355,0.492 -0.71,0.806 -1.065,0.943c-0.355,0.136 -0.697,0.191 -1.025,0.164c-0.546,-0 -0.983,-0.151 -1.311,-0.451c-0.328,-0.301 -0.492,-0.697 -0.492,-1.189c-0,-1.312 0.765,-2.186 2.295,-2.623c-0.601,-0.355 -1.093,-0.533 -1.475,-0.533c-1.53,0 -2.938,1.011 -4.222,3.033c-0.273,0.438 -0.478,0.888 -0.615,1.353c-0.136,0.464 -0.601,2.281 -1.393,5.451c-0.929,3.825 -1.462,5.86 -1.599,6.106c-0.355,0.739 -0.942,1.107 -1.762,1.107c-0.355,-0 -0.642,-0.082 -0.86,-0.245c-0.22,-0.164 -0.37,-0.328 -0.452,-0.493c-0.082,-0.164 -0.109,-0.3 -0.082,-0.41c0,-0.355 0.547,-2.704 1.64,-7.049c1.093,-4.344 1.639,-6.763 1.639,-7.254c0,-1.066 -0.355,-1.599 -1.065,-1.599c-0.574,0 -1.066,0.383 -1.476,1.148c-0.41,0.765 -0.738,1.599 -0.984,2.5c-0.245,0.902 -0.396,1.394 -0.45,1.476c-0.055,0.054 -0.274,0.082 -0.656,0.082l-0.574,-0c-0.164,-0.164 -0.246,-0.287 -0.246,-0.369Z" style="fill:#ff5151;fill-rule:nonzero;stroke:#1e3a5f;stroke-width:0.42px;stroke-linecap:butt;stroke-miterlimit:2;"/>
</svg>
