<?xml version="1.0" encoding="UTF-8" standalone="no"?>
<!DOCTYPE svg PUBLIC "-//W3C//DTD SVG 1.1//EN" "http://www.w3.org/Graphics/SVG/1.1/DTD/svg11.dtd">
<svg width="256" height="158" viewBox="0 0 772 403" version="1.1" xmlns="http://www.w3.org/2000/svg" xmlns:xlink="http://www.w3.org/1999/xlink" xml:space="preserve" xmlns:serif="http://www.serif.com/" style="fill-rule:evenodd;clip-rule:evenodd;stroke-linejoin:round;stroke-miterlimit:2;">
    <path d="M389.473,225.093c-1.148,-1.148 -1.178,-1.23 -1.178,-2.855c0,-1.026 0.56,-2.024 1.171,-2.848c0.246,-0.332 2.289,-3.088 3.648,-3.648c0.949,-0.392 1.822,-1.171 2.849,-1.171c0.016,-0 2.859,1.176 2.863,1.184c0.392,0.949 1.17,1.822 1.17,2.85c0,1.026 -0.56,2.023 -1.17,2.848c-0.247,0.332 -2.291,3.087 -3.648,3.648c-0.949,0.391 -1.822,1.171 -2.849,1.171c-1.625,-0 -1.707,-0.029 -2.856,-1.179Z" style="fill:#fc0;"/>
  <path d="M388.206,243.734c-1.148,-1.149 -1.177,-1.231 -1.177,-2.856c-0,-1.026 0.481,-2.087 1.171,-2.848c1.135,-1.254 12.707,-14.029 14.957,-14.957c0.949,-0.392 1.822,-1.171 2.848,-1.171c0.017,-0 2.859,1.176 2.863,1.184c0.393,0.949 1.171,1.822 1.171,2.849c0,1.027 -0.482,2.087 -1.171,2.849l-14.957,14.956c-0.949,0.392 -1.822,1.172 -2.849,1.172c-1.625,0 -1.706,-0.03 -2.856,-1.178Z" style="fill:#fc0;"/>
  <path d="M390.102,261.34c-1.148,-1.149 -1.178,-1.231 -1.178,-2.855c0,-1.028 0.469,-2.101 1.171,-2.85c1.889,-2.013 21.953,-23.393 24.405,-24.405c0.949,-0.391 1.822,-1.171 2.849,-1.171c0.016,0 2.859,1.177 2.863,1.185c0.392,0.949 1.17,1.822 1.17,2.849c0,1.027 -0.469,2.099 -1.17,2.849c-1.89,2.013 -21.954,23.393 -24.406,24.405c-0.949,0.391 -1.821,1.17 -2.849,1.17c-1.624,0 -1.706,-0.029 -2.855,-1.177Z" style="fill:#fc0;"/>
  <path d="M389.035,281.757c-1.149,-1.149 -1.178,-1.231 -1.178,-2.855c0,-1.027 0.461,-2.108 1.171,-2.849c2.965,-3.092 35.277,-36.793 37.858,-37.857c0.948,-0.392 1.822,-1.171 2.848,-1.171c0.016,-0 2.859,1.177 2.863,1.184c0.392,0.949 1.171,1.822 1.171,2.849c-0,1.026 -0.461,2.108 -1.171,2.848c-2.965,3.092 -35.276,36.793 -37.857,37.858c-0.949,0.391 -1.822,1.171 -2.849,1.171c-1.625,0 -1.707,-0.03 -2.856,-1.178Z" style="fill:#fc0;"/>
  <path d="M389.018,300.403c-1.149,-1.149 -1.179,-1.231 -1.179,-2.855c-0,-1.027 0.457,-2.111 1.172,-2.849c3.79,-3.919 45.555,-47.105 48.192,-48.192c0.948,-0.392 1.822,-1.171 2.848,-1.171c0.016,-0 2.859,1.176 2.862,1.185c0.392,0.948 1.172,1.821 1.172,2.849c-0,1.026 -0.458,2.11 -1.172,2.848c-3.791,3.919 -45.556,47.104 -48.192,48.192c-0.949,0.391 -1.822,1.17 -2.848,1.17c-1.625,0 -1.707,-0.029 -2.855,-1.177Z" style="fill:#fc0;"/>
  <path d="M406.075,303.734c-1.148,-1.148 -1.177,-1.231 -1.177,-2.855c-0,-1.028 0.458,-2.11 1.17,-2.849c3.399,-3.527 40.687,-42.222 43.3,-43.3c0.949,-0.391 1.822,-1.171 2.848,-1.171c0.017,0 2.859,1.177 2.863,1.185c0.393,0.948 1.171,1.822 1.171,2.849c-0,1.026 -0.459,2.109 -1.171,2.848c-3.4,3.527 -40.687,42.222 -43.3,43.3c-0.949,0.391 -1.822,1.171 -2.849,1.171c-1.624,-0 -1.706,-0.029 -2.855,-1.178Z" style="fill:#fc0;"/>
  <path d="M426.425,304.435c-1.149,-1.149 -1.178,-1.231 -1.178,-2.855c-0,-1.027 0.461,-2.107 1.17,-2.849c2.765,-2.891 32.79,-34.296 35.353,-35.353c0.95,-0.391 1.822,-1.171 2.85,-1.171c0.015,0 2.859,1.177 2.862,1.185c0.392,0.949 1.171,1.822 1.171,2.848c-0,1.027 -0.462,2.107 -1.171,2.849c-2.764,2.891 -32.789,34.295 -35.353,35.353c-0.949,0.391 -1.822,1.171 -2.849,1.171c-1.625,0 -1.706,-0.03 -2.855,-1.178Z" style="fill:#fc0;"/>
  <path d="M448.359,303.977c-1.149,-1.148 -1.178,-1.231 -1.178,-2.855c0,-1.026 0.467,-2.101 1.171,-2.848l26.033,-26.034c0.949,-0.39 1.822,-1.17 2.849,-1.17c0.016,-0 2.859,1.176 2.862,1.185c0.392,0.948 1.171,1.822 1.171,2.848c-0,1.027 -0.468,2.102 -1.171,2.849c-2.019,2.144 -23.559,25.012 -26.033,26.032c-0.948,0.392 -1.822,1.172 -2.848,1.172c-1.625,-0 -1.707,-0.03 -2.856,-1.179Z" style="fill:#fc0;"/>
  <path d="M468.113,303.375c-1.149,-1.148 -1.179,-1.23 -1.179,-2.855c0,-1.027 0.478,-2.092 1.172,-2.849c1.324,-1.444 15.003,-16.365 17.321,-17.321c0.949,-0.392 1.822,-1.171 2.849,-1.171c0.016,-0 2.859,1.176 2.862,1.184c0.392,0.949 1.171,1.822 1.171,2.849c0,1.027 -0.477,2.092 -1.171,2.849c-1.324,1.444 -15.003,16.365 -17.322,17.321c-0.948,0.392 -1.822,1.171 -2.848,1.171c-1.624,-0 -1.707,-0.029 -2.855,-1.178Z" style="fill:#fc0;"/>
  <path d="M485.822,303.598c-1.149,-1.148 -1.178,-1.231 -1.178,-2.855c0,-1.026 0.494,-2.076 1.171,-2.848l10.648,-10.649c0.949,-0.391 1.822,-1.171 2.849,-1.171c0.016,0 2.859,1.177 2.862,1.185c0.393,0.949 1.172,1.822 1.172,2.849c-0,1.027 -0.496,2.076 -1.172,2.849c-0.793,0.906 -8.575,9.792 -10.648,10.647c-0.949,0.392 -1.822,1.172 -2.848,1.172c-1.625,-0 -1.708,-0.03 -2.856,-1.179Z" style="fill:#fc0;"/>
  <path d="M501.218,304.255c-1.148,-1.148 -1.177,-1.23 -1.177,-2.856c-0,-1.026 0.525,-2.05 1.17,-2.848c0.424,-0.523 4.243,-5.244 5.947,-5.947c0.949,-0.392 1.822,-1.171 2.849,-1.171c0.016,0 2.859,1.177 2.862,1.184c1.2,2.898 1.973,3.261 -0,5.698l-5.946,5.947c-0.95,0.392 -1.822,1.171 -2.85,1.171c-1.624,0 -1.706,-0.029 -2.855,-1.178Z" style="fill:#fc0;"/>
  <path id="MJX-73-TEX-I-1D451" d="M362.65,240.822c0.027,0 1.024,-0.07 2.992,-0.207c1.966,-0.139 2.977,-0.222 3.032,-0.25c0.333,-0 0.499,0.111 0.499,0.332c0,0.194 -1.01,4.377 -3.033,12.549c-2.022,8.171 -3.061,12.341 -3.116,12.507c-0.055,0.166 -0.07,0.374 -0.042,0.623c0,1.164 0.388,1.745 1.163,1.745c0.249,-0.028 0.527,-0.152 0.832,-0.374c0.581,-0.553 1.149,-1.883 1.703,-3.989c0.166,-0.553 0.305,-0.844 0.416,-0.872c0.055,-0.027 0.193,-0.042 0.415,-0.042l0.333,0c0.415,0 0.623,0.112 0.623,0.333c-0,0.138 -0.042,0.36 -0.125,0.664c-0.36,1.385 -0.775,2.508 -1.246,3.366c-0.472,0.859 -0.859,1.412 -1.164,1.663c-0.305,0.249 -0.692,0.471 -1.164,0.664c-0.22,0.056 -0.553,0.083 -0.997,0.083c-0.941,-0 -1.731,-0.208 -2.368,-0.623c-0.637,-0.415 -1.052,-0.845 -1.247,-1.288l-0.249,-0.624c-0.027,-0.027 -0.082,-0.013 -0.166,0.042c-0.055,0.055 -0.111,0.111 -0.166,0.167c-1.634,1.55 -3.297,2.326 -4.986,2.326c-1.523,-0 -2.868,-0.554 -4.031,-1.661c-1.163,-1.109 -1.745,-2.868 -1.745,-5.278c-0,-1.329 0.277,-2.687 0.831,-4.072c0.554,-1.385 1.219,-2.576 1.995,-3.574c1.302,-1.578 2.603,-2.673 3.906,-3.282c1.301,-0.609 2.479,-0.914 3.531,-0.914c1.551,-0 2.715,0.581 3.491,1.745c0.138,0.166 0.207,0.221 0.207,0.166c0.028,-0.11 0.402,-1.62 1.122,-4.529c0.72,-2.908 1.108,-4.446 1.163,-4.612c0,-0.36 -0.097,-0.582 -0.291,-0.665c-0.193,-0.082 -0.733,-0.152 -1.62,-0.208l-0.872,0c-0.167,-0.165 -0.249,-0.277 -0.249,-0.332c-0,-0.055 0.027,-0.319 0.082,-0.789c0.139,-0.527 0.319,-0.79 0.541,-0.79Zm-0.582,14.834c-0.637,-2.189 -1.676,-3.283 -3.117,-3.283c-0.969,0 -1.897,0.429 -2.783,1.288c-0.887,0.859 -1.579,1.981 -2.078,3.366c-0.803,2.188 -1.371,4.46 -1.704,6.814l0,0.458c0,0.221 -0.013,0.388 -0.041,0.498c0,1.246 0.25,2.105 0.748,2.576c0.499,0.471 1.094,0.72 1.787,0.748c1.495,0 3.032,-0.997 4.612,-2.992l0.333,-0.456l2.243,-9.017Z" style="fill:#9370db;fill-rule:nonzero;stroke:#1e3a5f;stroke-width:0.42px;"/>
  <path id="MJX-73-TEX-I-1D45F" d="M463.26,227.408c0.028,-0.083 0.055,-0.194 0.083,-0.333c0.028,-0.138 0.097,-0.443 0.208,-0.914c0.111,-0.471 0.25,-0.9 0.416,-1.288c0.166,-0.387 0.374,-0.845 0.623,-1.371c0.249,-0.526 0.526,-0.941 0.831,-1.246c0.305,-0.305 0.665,-0.61 1.08,-0.914c0.416,-0.305 0.873,-0.43 1.371,-0.374c0.804,-0 1.51,0.166 2.12,0.499c0.609,0.332 1.038,0.636 1.288,0.914c0.249,0.277 0.401,0.553 0.457,0.83c0.055,0.167 0.096,0.249 0.125,0.249c0.027,0 0.138,-0.097 0.332,-0.29c1.33,-1.441 2.867,-2.161 4.612,-2.161l0.124,0c1.33,0 2.327,0.568 2.992,1.704c0.222,0.526 0.333,1.039 0.333,1.537c-0,0.831 -0.181,1.496 -0.54,1.995c-0.361,0.498 -0.721,0.817 -1.081,0.955c-0.36,0.139 -0.706,0.194 -1.039,0.166c-0.554,0 -0.997,-0.152 -1.329,-0.456c-0.333,-0.306 -0.499,-0.707 -0.499,-1.205c0,-1.33 0.776,-2.217 2.327,-2.66c-0.609,-0.36 -1.108,-0.54 -1.496,-0.54c-1.551,-0 -2.977,1.025 -4.28,3.075c-0.276,0.443 -0.485,0.9 -0.623,1.371c-0.139,0.471 -0.61,2.313 -1.412,5.527c-0.942,3.877 -1.482,5.941 -1.621,6.191c-0.36,0.747 -0.955,1.121 -1.787,1.121c-0.359,0 -0.651,-0.083 -0.872,-0.249c-0.222,-0.167 -0.374,-0.332 -0.458,-0.498c-0.083,-0.167 -0.11,-0.305 -0.083,-0.416c0,-0.36 0.554,-2.743 1.662,-7.147c1.109,-4.405 1.662,-6.856 1.662,-7.355c0,-1.08 -0.359,-1.62 -1.079,-1.62c-0.583,-0 -1.081,0.388 -1.497,1.164c-0.416,0.775 -0.748,1.62 -0.997,2.534c-0.249,0.914 -0.401,1.413 -0.457,1.496c-0.056,0.056 -0.277,0.083 -0.664,0.083l-0.583,-0c-0.166,-0.166 -0.249,-0.291 -0.249,-0.374Z" style="fill:#9370db;fill-rule:nonzero;stroke:#1e3a5f;stroke-width:0.42px;"/>
  <path d="M6.057,306.982l759.698,-0" style="fill:none;stroke:#8dcc33;stroke-width:12.11px;stroke-linecap:round;stroke-miterlimit:1.5;"/>
  <path d="M378.734,306.981c0,-0.37 0,-2.499 1.78,-4.278c1.771,-1.772 3.898,-1.779 4.268,-1.78c50.343,-0.157 100.685,0 151.027,0c0.372,0 2.499,0 4.278,1.78c0.548,0.548 1.003,1.211 1.302,1.927c0.981,2.351 0.144,4.356 -0,4.703c-0.95,2.278 -2.89,3.087 -3.227,3.227c-2.671,1.114 -2.828,0.478 -153.37,0.478c-0.371,0 -2.499,0 -4.278,-1.779c-1.78,-1.78 -1.78,-3.907 -1.78,-4.278Z" style="fill:#9370db;"/>
  <path d="M384.873,0c111.187,0 201.457,90.27 201.457,201.457c0,111.187 -90.27,201.456 -201.457,201.456c-111.187,-0 -201.457,-90.269 -201.457,-201.456c0,-111.187 90.27,-201.457 201.457,-201.457Zm0,12.115c-104.5,-0 -189.342,84.841 -189.342,189.342c0,104.5 84.842,189.341 189.342,189.341c104.501,-0 189.342,-84.841 189.342,-189.341c0,-104.501 -84.841,-189.342 -189.342,-189.342Z" style="fill:#0dcaf2;"/>
  <path d="M384.697,312.719c-0.37,0 -2.499,0 -4.278,-1.779c-0.262,-0.262 -1.76,-1.76 -1.78,-4.268c-0.064,-8.407 0,-8.403 0,-105.093c0,-0.37 0,-2.499 1.78,-4.278c0.547,-0.548 1.21,-1.003 1.926,-1.302c2.352,-0.979 4.356,-0.144 4.704,0c2.278,0.95 3.087,2.891 3.227,3.228c0.307,0.735 0.471,1.546 0.478,2.342c0.084,8.407 0,8.404 0,105.093c0,0.371 0,2.498 -1.779,4.278c-1.78,1.779 -3.907,1.779 -4.278,1.779Z" style="fill:#9370db;"/>
  <path d="M540.754,310.031c-0.211,0.304 -1.425,2.052 -3.903,2.497c-2.467,0.444 -4.216,-0.764 -4.52,-0.975c-50.453,-34.87 -100.727,-70 -151.091,-105c-0.305,-0.211 -2.052,-1.426 -2.498,-3.902c-0.136,-0.763 -0.133,-1.567 0.031,-2.324c0.08,-0.369 0.537,-2.491 2.685,-3.863c2.079,-1.329 4.134,-0.886 4.492,-0.809c0.778,0.168 1.54,0.492 2.196,0.944c50.453,34.872 100.727,70.001 151.09,105.001c0.305,0.211 2.052,1.426 2.498,3.902c0.446,2.477 -0.769,4.225 -0.98,4.529Z" style="fill:#9370db;"/>
  <path d="M387.141,189.303c-6.81,-1.427 -13.497,2.944 -14.924,9.754c-1.426,6.81 2.944,13.497 9.755,14.925c6.809,1.426 13.497,-2.945 14.924,-9.755c1.427,-6.81 -2.945,-13.498 -9.755,-14.924Z" style="fill:#ff0;"/>
  <path d="M387.141,294.629c-6.81,-1.426 -13.497,2.944 -14.924,9.755c-1.426,6.809 2.944,13.497 9.755,14.924c6.809,1.427 13.497,-2.945 14.924,-9.755c1.427,-6.81 -2.945,-13.497 -9.755,-14.924Z" style="fill:#ff0;"/>
  <path d="M387.141,189.303c6.81,1.426 11.182,8.114 9.755,14.924c-1.427,6.81 -8.115,11.181 -14.924,9.755c-6.811,-1.428 -11.181,-8.115 -9.755,-14.925c1.427,-6.81 8.114,-11.181 14.924,-9.754Zm-0.538,2.569c-0.013,0.063 -2.908,-0.913 -6.465,0.821c-6.107,2.978 -7.676,11.476 -2.216,16.408c4.652,4.202 12.507,3.104 15.586,-3.035c2.853,-5.691 -0.462,-12.719 -6.653,-14.138l-0.252,-0.056Z" style="fill:#ff5151;"/>
  <path d="M387.141,294.629c6.81,1.427 11.182,8.114 9.755,14.924c-1.427,6.81 -8.115,11.182 -14.924,9.755c-6.811,-1.427 -11.181,-8.115 -9.755,-14.924c1.427,-6.811 8.114,-11.181 14.924,-9.755Zm-0.538,2.569c-0.013,0.064 -2.908,-0.913 -6.465,0.822c-6.107,2.978 -7.676,11.475 -2.216,16.407c4.652,4.202 12.507,3.104 15.586,-3.035c2.853,-5.691 -0.462,-12.718 -6.653,-14.138l-0.252,-0.056Z" style="fill:#ff5151;"/>
</svg>
