<?xml version="1.0" encoding="UTF-8" standalone="no"?>
<!DOCTYPE svg PUBLIC "-//W3C//DTD SVG 1.1//EN" "http://www.w3.org/Graphics/SVG/1.1/DTD/svg11.dtd">
<svg width="356" height="145" viewBox="0 0 1120 395" version="1.1" xmlns="http://www.w3.org/2000/svg" xmlns:xlink="http://www.w3.org/1999/xlink" xml:space="preserve" xmlns:serif="http://www.serif.com/" style="fill-rule:evenodd;clip-rule:evenodd;stroke-linecap:round;stroke-linejoin:round;stroke-miterlimit:1.5;">
    <path d="M395.287,179.456l0,-28.53" style="fill:none;stroke:#8dcc33;stroke-width:12.5px;"/>
  <path d="M726.213,179.456l0,-28.53" style="fill:none;stroke:#8dcc33;stroke-width:12.5px;"/>
  <path d="M63.713,182.064l986.317,-0" style="fill:none;stroke:#9370db;stroke-width:12.5px;stroke-linecap:square;"/>
  <path d="M15.177,200.306c-0,1.03 1.083,1.631 3.25,1.802c0.848,0 1.272,0.236 1.272,0.708c0,0.043 -0.047,0.322 -0.141,0.837c-0.141,0.601 -0.283,0.987 -0.424,1.159c-0.141,0.171 -0.448,0.257 -0.919,0.257l-0.848,0c-0.471,0 -1.272,-0.021 -2.402,-0.064c-1.131,-0.043 -2.639,-0.065 -4.523,-0.065c-3.345,0 -5.488,0.043 -6.43,0.129l-0.566,0c-0.33,-0.3 -0.494,-0.536 -0.494,-0.708c0.094,-1.159 0.4,-1.909 0.918,-2.253l0.99,0c3.297,-0.128 5.7,-1.201 7.207,-3.218c0.283,-0.257 4.546,-6.801 12.791,-19.631c8.244,-12.829 12.437,-19.33 12.578,-19.501c0.33,-0.515 0.895,-0.773 1.696,-0.773l1.767,0c0.282,0.386 0.424,0.601 0.424,0.644l1.978,20.789c1.319,13.859 2.026,20.854 2.12,20.982c0.236,0.472 1.767,0.708 4.593,0.708c1.178,0 1.767,0.215 1.767,0.644c0,0.086 -0.071,0.386 -0.212,0.901c-0.141,0.644 -0.259,1.03 -0.353,1.159c-0.095,0.128 -0.424,0.214 -0.99,0.257l-0.989,0c-0.518,0 -1.437,-0.021 -2.756,-0.064c-1.319,-0.043 -3.038,-0.065 -5.158,-0.065c-4.429,0 -7.326,0.043 -8.692,0.129l-0.848,0c-0.283,-0.257 -0.424,-0.451 -0.424,-0.579c-0,-0.129 0.047,-0.515 0.141,-1.159c0.189,-0.558 0.33,-0.901 0.424,-1.03l0.283,-0.193l1.413,0c2.544,-0.128 4.052,-0.493 4.523,-1.094l-0.848,-9.654l-16.819,-0l-2.402,3.733c-1.932,2.96 -2.897,4.698 -2.897,5.213Zm21.764,-11.971c0,-0.472 -0.282,-3.819 -0.848,-10.041c-0.565,-6.222 -0.895,-9.354 -0.989,-9.397l-1.908,2.768c-0.754,1.158 -2.238,3.454 -4.452,6.886l-6.36,9.784l7.279,0.064c4.852,0 7.278,-0.021 7.278,-0.064Z" style="fill:#8dcc33;fill-rule:nonzero;stroke:#1e3a5f;stroke-width:1.43px;stroke-linecap:butt;stroke-linejoin:miter;stroke-miterlimit:4;"/>
  <path d="M1077.63,162.174c-1.326,-0 -2.113,-0.023 -2.358,-0.068c-0.246,-0.045 -0.369,-0.291 -0.369,-0.74c0,-1.212 0.27,-1.953 0.811,-2.222c0.049,-0.045 3.243,-0.068 9.582,-0.068c12.727,0 19.434,0.045 20.122,0.135c3.096,0.449 5.676,1.459 7.74,3.03c2.063,1.571 3.12,3.636 3.169,6.195c-0,2.873 -1.425,5.454 -4.275,7.743c-2.85,2.289 -6.118,3.838 -9.803,4.646l-0.737,0.202c3.145,0.404 5.724,1.436 7.739,3.097c2.015,1.661 3.047,3.726 3.096,6.195c-0,3.277 -1.769,6.442 -5.307,9.494c-3.538,3.052 -7.887,4.781 -13.047,5.185c-0.343,0.045 -5.528,0.067 -15.552,0.067c-9.828,0 -14.815,-0.045 -14.963,-0.135c-0.196,-0.134 -0.294,-0.314 -0.294,-0.538c-0,-0.315 0.049,-0.629 0.147,-0.943c0.246,-0.853 0.491,-1.324 0.737,-1.414c0.197,-0.045 0.565,-0.067 1.106,-0.067l0.442,-0c1.327,-0 2.801,-0.068 4.422,-0.202c0.688,-0.135 1.155,-0.404 1.401,-0.808c0.147,-0.18 1.916,-6.419 5.307,-18.719c3.39,-12.3 5.086,-18.786 5.086,-19.459c-0,-0.315 -1.401,-0.517 -4.202,-0.606Zm30.81,6.262c0,-1.347 -0.368,-2.604 -1.105,-3.771c-0.737,-1.167 -1.941,-1.93 -3.612,-2.289c-0.344,-0.09 -2.604,-0.157 -6.781,-0.202l-3.096,-0c-1.081,-0 -1.941,0.022 -2.58,0.067l-0.958,0c-0.737,0.045 -1.204,0.269 -1.4,0.673c-0.099,0.18 -0.885,2.873 -2.359,8.08c-0,0.135 -0.025,0.27 -0.074,0.404l-2.285,8.484l5.971,0c3.98,0 6.265,-0.045 6.855,-0.134c2.948,-0.449 5.577,-1.751 7.886,-3.906c2.31,-2.154 3.489,-4.623 3.538,-7.406Zm-3.98,21.21c0,-1.975 -0.565,-3.614 -1.695,-4.916c-1.13,-1.301 -2.605,-2.065 -4.423,-2.289c-0.295,-0.045 -2.334,-0.067 -6.117,-0.067c-5.799,-0 -8.723,0.022 -8.772,0.067c0,0.09 -0.417,1.728 -1.253,4.915c-0.835,3.187 -1.695,6.352 -2.58,9.494l-1.326,4.714c-0,0.179 0.295,0.269 0.884,0.269c0.59,0 2.58,0.045 5.971,0.135c4.373,-0 6.732,-0.023 7.076,-0.068c3.046,-0.314 5.847,-1.616 8.402,-3.905c2.555,-2.289 3.833,-5.072 3.833,-8.349Z" style="fill:#8dcc33;fill-rule:nonzero;stroke:#1e3a5f;stroke-width:1.5px;stroke-linecap:butt;stroke-linejoin:miter;stroke-miterlimit:4;"/>
  <path d="M702.061,232.952c-0,-4.876 1.522,-9.562 4.568,-14.057c3.045,-4.495 6.885,-8.057 11.521,-10.686c4.636,-2.629 9.272,-3.965 13.908,-4.007c4.091,-0 7.341,1.081 9.75,3.244c0.409,0.424 0.75,0.784 1.022,1.081c0.273,0.297 0.455,0.509 0.546,0.636l0.068,0.191c0.136,-0 0.75,-0.551 1.841,-1.654c0.318,-0.254 0.659,-0.551 1.022,-0.89c0.364,-0.34 0.727,-0.679 1.091,-1.018c0.364,-0.339 0.591,-0.573 0.682,-0.7l1.022,-0.954l0.41,0c0.636,0 0.954,0.148 0.954,0.445c-0,0.17 -0.727,3.075 -2.182,8.715c-1.636,5.894 -2.454,8.862 -2.454,8.905c-0.091,0.212 -0.205,0.339 -0.341,0.381c-0.136,0.043 -0.545,0.085 -1.227,0.128l-1.091,-0c-0.273,-0.255 -0.409,-0.446 -0.409,-0.573c0,-0.042 0.023,-0.191 0.068,-0.445c0.046,-0.255 0.091,-0.679 0.137,-1.272c0.045,-0.594 0.068,-1.272 0.068,-2.036c-0,-3.011 -0.727,-5.64 -2.182,-7.887c-1.454,-2.248 -3.931,-3.393 -7.431,-3.435c-1.182,-0 -2.454,0.148 -3.818,0.445c-1.364,0.297 -3,0.806 -4.909,1.527c-1.909,0.721 -3.795,1.908 -5.658,3.562c-1.864,1.654 -3.523,3.626 -4.977,5.915c-1.455,2.418 -2.614,5.237 -3.477,8.46c-0.864,3.223 -1.296,5.852 -1.296,7.888c0,4.834 1.728,8.311 5.182,10.431c2.182,1.442 4.863,2.163 8.045,2.163c4.136,0 7.817,-1.442 11.044,-4.325c3.227,-2.884 5.363,-6.022 6.409,-9.414c0.182,-0.552 0.318,-0.87 0.409,-0.954c0.091,-0.085 0.454,-0.128 1.091,-0.128c0.909,0 1.363,0.191 1.363,0.573c0,0.212 -0.022,0.403 -0.068,0.572c-1.318,4.538 -4.136,8.439 -8.454,11.704c-4.318,3.265 -8.954,4.898 -13.908,4.898c-5.136,0 -9.476,-1.59 -13.021,-4.771c-3.546,-3.18 -5.318,-7.399 -5.318,-12.658Z" style="fill:#8dcc33;fill-rule:nonzero;stroke:#1e3a5f;stroke-width:1.4px;stroke-linecap:butt;stroke-linejoin:miter;stroke-miterlimit:4;"/>
  <path d="M726.213,20.41l-35.721,12.429l9.132,-12.225l-9.132,-12.633l35.721,12.429Z" style="fill:#0dcaf2;"/>
  <path d="M94.644,98.8l35.722,-12.429l-9.133,12.633l9.133,12.225l-35.722,-12.429Z" style="fill:#0dcaf2;"/>
  <path d="M97.794,20.42l601.679,-0" style="fill:none;stroke:#0dcaf2;stroke-width:6.25px;"/>
  <path d="M735.11,20.42l227.768,-0" style="fill:none;stroke:#0dcaf2;stroke-width:6.25px;"/>
  <path d="M119.927,98.801l842.952,-0" style="fill:none;stroke:#0dcaf2;stroke-width:6.25px;"/>
  <path d="M965.935,20.421c-0,-0 53.571,-0.002 53.571,39.19c-0,39.193 -53.571,39.191 -53.571,39.191" style="fill:none;stroke:#0dcaf2;stroke-width:6.25px;stroke-linecap:square;"/>
  <circle cx="395.288" cy="181.985" r="11.692" style="fill:#ff5151;"/>
  <circle cx="726.214" cy="181.985" r="11.692" style="fill:#ff5151;"/>
  <g>
        <g>
            <g>
                <g>
                    <g>
                        <g>
                            <path d="M385.666,207.836c-0,-0.312 -1.402,-0.512 -4.207,-0.601c-1.131,-0 -1.869,-0.022 -2.214,-0.067c-0.344,-0.044 -0.516,-0.245 -0.516,-0.601c-0,-0.356 0.098,-0.801 0.295,-1.335c0.197,-0.534 0.369,-0.868 0.517,-1.002c0.098,-0.044 4.993,-0.067 14.686,-0.067c8.216,0.045 12.817,0.067 13.801,0.067c0.984,0 1.968,0.134 2.952,0.401c3.542,0.757 6.543,2.515 9.003,5.275c2.46,2.76 3.715,6.454 3.764,11.084c0,6.944 -2.632,13.176 -7.897,18.696c-5.264,5.52 -11.463,8.814 -18.597,9.882l-1.034,0.134l-14.317,0.067l-12.103,-0c-1.181,-0 -1.944,-0.045 -2.288,-0.134c-0.344,-0.089 -0.541,-0.289 -0.59,-0.601c-0,-0.089 0.073,-0.401 0.221,-0.935c0.197,-0.712 0.394,-1.113 0.59,-1.202c0.197,-0.089 0.763,-0.155 1.698,-0.2c1.328,0 2.804,-0.067 4.428,-0.2c0.689,-0.134 1.156,-0.401 1.402,-0.801c0.148,-0.179 1.919,-6.366 5.314,-18.563c3.395,-12.197 5.092,-18.629 5.092,-19.297Zm30.701,10.617c0,-1.692 -0.271,-3.205 -0.812,-4.541c-0.541,-1.335 -1.181,-2.381 -1.919,-3.138c-0.738,-0.757 -1.648,-1.402 -2.73,-1.937c-1.083,-0.534 -2.042,-0.89 -2.878,-1.068c-0.837,-0.178 -1.698,-0.334 -2.583,-0.467l-3.174,-0c-0.836,-0 -1.648,-0.023 -2.435,-0.067l-3.174,-0c-2.165,-0 -3.395,0.222 -3.69,0.668c-0.098,0.178 -1.894,6.588 -5.387,19.23c-3.493,12.642 -5.24,19.03 -5.24,19.163c-0,0.179 0.271,0.268 0.812,0.268c0.541,-0 2.435,0.022 5.682,0.066l1.403,0c0.688,0 1.279,0.023 1.771,0.067c6.199,0 11.316,-1.825 15.35,-5.475c1.772,-1.603 3.223,-3.472 4.355,-5.609c1.131,-2.137 2.189,-4.963 3.173,-8.48c0.984,-3.517 1.476,-6.41 1.476,-8.68Z" style="fill:#8dcc33;fill-rule:nonzero;stroke:#1e3a5f;stroke-width:1.74px;stroke-linecap:butt;stroke-linejoin:miter;stroke-miterlimit:4;"/>
                        </g>
                    </g>
                </g>
            </g>
        </g>
    </g>
  <g>
        <g>
            <path d="M44.024,25.253c0,-5.58 2.099,-10.883 6.298,-15.911c4.199,-5.027 8.923,-7.569 14.171,-7.624c2.818,-0 5.304,1.354 7.459,4.061c0.884,-1.658 2.154,-2.486 3.812,-2.486c0.718,-0 1.353,0.221 1.906,0.662c0.552,0.442 0.828,0.995 0.828,1.658c0,0.718 -1.022,5.138 -3.066,13.259c-2.044,8.122 -3.094,12.707 -3.149,13.757c0,1.381 0.193,2.293 0.58,2.735c0.387,0.442 0.967,0.69 1.74,0.745c0.498,-0.055 1.05,-0.303 1.658,-0.745c1.16,-1.105 2.293,-3.757 3.398,-7.956c0.331,-1.105 0.607,-1.685 0.828,-1.74c0.111,-0.056 0.387,-0.083 0.829,-0.083l0.331,-0c1.05,-0 1.575,0.248 1.575,0.746c0,0.331 -0.138,1.077 -0.414,2.237c-0.277,1.16 -0.829,2.652 -1.658,4.475c-0.828,1.823 -1.712,3.205 -2.652,4.144c-0.718,0.718 -1.602,1.298 -2.651,1.74c-0.442,0.111 -1.105,0.166 -1.989,0.166c-1.879,-0 -3.453,-0.415 -4.724,-1.243c-1.271,-0.829 -2.099,-1.685 -2.486,-2.569l-0.497,-1.243c-0.056,-0.056 -0.166,-0.028 -0.332,0.083c-0.11,0.11 -0.221,0.221 -0.331,0.331c-3.26,3.094 -6.575,4.641 -9.945,4.641c-3.039,-0 -5.718,-1.105 -8.038,-3.315c-2.321,-2.21 -3.481,-5.718 -3.481,-10.525Zm26.353,-14.171c0,-0.331 -0.138,-0.939 -0.414,-1.823c-0.277,-0.884 -0.912,-1.851 -1.906,-2.9c-0.995,-1.05 -2.266,-1.602 -3.812,-1.658c-1.934,0 -3.785,0.857 -5.553,2.569c-1.768,1.713 -3.149,3.951 -4.143,6.713c-1.603,4.364 -2.735,8.895 -3.398,13.591l-0,0.911c-0,0.442 -0.028,0.774 -0.083,0.995c0,2.486 0.497,4.199 1.492,5.138c0.994,0.939 2.182,1.436 3.563,1.491c2.1,0 4.171,-0.911 6.216,-2.734c2.044,-1.823 3.259,-3.232 3.646,-4.227c0.11,-0.221 0.856,-3.176 2.237,-8.867c1.382,-5.69 2.1,-8.757 2.155,-9.199Z" style="fill:#0dcaf2;fill-rule:nonzero;stroke:#1e3a5f;stroke-width:0.83px;stroke-linecap:butt;stroke-linejoin:miter;stroke-miterlimit:4;"/>
        </g>
    </g>
  <g>
        <g>
            <path d="M1037.7,338.624c-0,-0.553 0.11,-1.188 0.331,-1.906c0.221,-0.718 0.553,-1.077 0.995,-1.077c0.055,-0 2.044,-0.139 5.966,-0.415c3.923,-0.276 5.939,-0.442 6.05,-0.497c0.663,-0 0.994,0.249 0.994,0.746c0,0.497 -0.939,4.447 -2.817,11.85c-0.442,1.879 -0.912,3.812 -1.409,5.801c-0.497,1.989 -0.912,3.481 -1.243,4.475l-0.332,1.575c0,0.166 0.166,0.083 0.498,-0.249c2.707,-2.21 5.497,-3.315 8.37,-3.315c3.425,0 6.187,1.271 8.287,3.813c2.099,2.541 3.176,5.745 3.232,9.613c-0,6.132 -2.183,11.684 -6.547,16.657c-4.365,4.972 -9.061,7.458 -14.088,7.458c-2.763,0 -5.276,-1.05 -7.542,-3.149c-2.265,-2.099 -3.425,-5.497 -3.48,-10.193l-0,-0.746c-0,-1.16 0.221,-2.762 0.663,-4.807c0.442,-2.044 1.795,-7.486 4.061,-16.325c2.762,-10.884 4.143,-16.657 4.143,-17.32c0,-0.663 -1.05,-1.05 -3.149,-1.16l-2.155,-0c-0.165,-0 -0.359,-0.083 -0.58,-0.249c-0.221,-0.166 -0.304,-0.359 -0.248,-0.58Zm21.795,26.684l-0,-0.497c-0,-4.088 -1.685,-6.132 -5.055,-6.132c-0.94,-0 -1.906,0.221 -2.901,0.663c-0.994,0.442 -1.906,1.022 -2.735,1.74c-0.828,0.718 -1.547,1.381 -2.154,1.989c-0.608,0.608 -1.105,1.215 -1.492,1.823l-0.497,0.663l-1.741,7.127c-1.215,4.751 -1.823,8.121 -1.823,10.11c0,2.652 0.663,4.641 1.989,5.967c0.884,0.884 1.989,1.326 3.315,1.326c1.823,-0 3.674,-0.884 5.552,-2.652c1.382,-1.271 2.487,-2.818 3.315,-4.641c0.829,-1.823 1.741,-4.723 2.735,-8.701c0.994,-3.978 1.492,-6.906 1.492,-8.785Z" style="fill:#ff7faf;fill-rule:nonzero;stroke:#1e3a5f;stroke-width:0.83px;stroke-linecap:butt;stroke-linejoin:miter;stroke-miterlimit:4;"/>
        </g>
    </g>
  <path d="M726.19,363.937l35.721,-12.429l-9.132,12.634l9.132,12.224l-35.721,-12.429Z" style="fill:#ff7faf;"/>
  <path d="M94.62,363.937l35.722,-12.429l-9.133,12.634l9.133,12.224l-35.722,-12.429Z" style="fill:#ff7faf;"/>
  <path d="M1019.51,363.947l-267.066,0" style="fill:none;stroke:#ff7faf;stroke-width:6.25px;"/>
  <path d="M717.454,363.947l-596.577,0" style="fill:none;stroke:#ff7faf;stroke-width:6.25px;"/>
  <path d="M1050.78,202.717l-0,-41.285" style="fill:none;stroke:#8dcc33;stroke-width:12.5px;"/>
  <path d="M63.618,201.555l0,-38.995" style="fill:none;stroke:#8dcc33;stroke-width:12.5px;"/>
</svg>
