<?xml version="1.0" encoding="UTF-8" standalone="no"?>
<!DOCTYPE svg PUBLIC "-//W3C//DTD SVG 1.1//EN" "http://www.w3.org/Graphics/SVG/1.1/DTD/svg11.dtd">
<svg width="148" height="188" viewBox="0 0 695 878" version="1.1" xmlns="http://www.w3.org/2000/svg" xmlns:xlink="http://www.w3.org/1999/xlink" xml:space="preserve" xmlns:serif="http://www.serif.com/" style="fill-rule:evenodd;clip-rule:evenodd;stroke-linecap:round;stroke-linejoin:round;stroke-miterlimit:1.5;">
    <path d="M65.12,165.433l0,539.607" style="fill:none;stroke:#8dcc33;stroke-width:31.55px;"/>
  <path d="M68.462,162.038l555.84,0" style="fill:none;stroke:#8dcc33;stroke-width:21.03px;"/>
  <ellipse cx="347.017" cy="714.94" rx="281.957" ry="97.274" style="fill:none;stroke:#8dcc33;stroke-width:31.55px;stroke-linecap:square;stroke-linejoin:miter;stroke-miterlimit:4;"/>
  <path d="M346.386,206.104c-4.231,-0 -4.435,-0.099 -7.426,-3.09c-1.891,-1.89 -2.812,-4.745 -3.09,-7.403c-0.184,-1.754 -1.85,-17.603 0,-22.045c1.025,-2.469 1.199,-5.513 3.09,-7.403c0.03,-0.031 7.431,-3.098 7.451,-3.09c7.545,3.127 9.64,2.368 10.493,10.493c0.184,1.754 1.847,17.6 -0,22.045c-1.028,2.469 -1.199,5.513 -3.09,7.403c-2.991,2.991 -3.198,3.09 -7.428,3.09Zm-0,87.982c-4.231,0 -4.435,-0.098 -7.426,-3.089c-1.891,-1.891 -2.931,-4.735 -3.09,-7.403c-0.212,-3.516 -2.312,-38.483 0,-44.043c1.025,-2.469 1.199,-5.51 3.09,-7.401c0.03,-0.03 7.431,-3.1 7.451,-3.089c2.471,1.022 5.513,1.198 7.403,3.089c1.891,1.891 2.928,4.733 3.09,7.401c0.212,3.518 2.312,38.485 -0,44.043c-1.028,2.468 -1.199,5.512 -3.09,7.403c-2.991,2.991 -3.198,3.089 -7.428,3.089Zm-0,87.98c-4.231,0 -4.435,-0.095 -7.426,-3.089c-1.891,-1.891 -2.931,-4.733 -3.09,-7.401c-0.212,-3.518 -2.312,-38.482 0,-44.043c1.025,-2.468 1.199,-5.512 3.09,-7.403c0.03,-0.028 7.431,-3.097 7.451,-3.087c2.471,1.022 5.513,1.197 7.403,3.087c1.891,1.891 2.928,4.735 3.09,7.403c0.212,3.519 2.312,38.483 -0,44.043c-1.028,2.469 -1.199,5.51 -3.09,7.401c-2.991,2.994 -3.198,3.089 -7.428,3.089Zm-0,87.985c-4.231,0 -4.435,-0.098 -7.426,-3.089c-1.891,-1.891 -2.931,-4.735 -3.09,-7.403c-0.212,-3.516 -2.312,-38.483 0,-44.043c1.025,-2.469 1.199,-5.51 3.09,-7.401c0.03,-0.03 7.431,-3.099 7.451,-3.089c2.471,1.022 5.513,1.199 7.403,3.089c1.891,1.891 2.928,4.733 3.09,7.401c0.212,3.518 2.312,38.485 -0,44.043c-1.028,2.468 -1.199,5.512 -3.09,7.403c-2.991,2.991 -3.198,3.089 -7.428,3.089Zm-0,87.98c-4.231,0 -4.435,-0.095 -7.426,-3.086c-1.891,-1.891 -2.931,-4.736 -3.09,-7.404c-0.212,-3.518 -2.312,-38.482 0,-44.043c1.025,-2.468 1.199,-5.51 3.09,-7.4c0.03,-0.031 7.431,-3.1 7.451,-3.09c2.471,1.022 5.513,1.197 7.403,3.09c1.891,1.89 2.928,4.732 3.09,7.4c0.212,3.519 2.312,38.483 -0,44.043c-1.028,2.469 -1.199,5.513 -3.09,7.404c-2.991,2.991 -3.198,3.086 -7.428,3.086Zm-0,87.986c-4.231,-0 -4.435,-0.099 -7.426,-3.09c-1.891,-1.89 -2.931,-4.735 -3.09,-7.403c-0.212,-3.516 -2.312,-38.483 0,-44.043c1.025,-2.469 1.199,-5.51 3.09,-7.401c0.03,-0.03 7.431,-3.099 7.451,-3.089c2.471,1.022 5.513,1.199 7.403,3.089c1.891,1.891 2.928,4.733 3.09,7.401c0.212,3.518 2.312,38.485 -0,44.043c-1.028,2.468 -1.199,5.513 -3.09,7.403c-2.991,2.991 -3.198,3.09 -7.428,3.09Zm-0,65.985c-4.231,-0 -4.435,-0.096 -7.426,-3.09c-1.891,-1.89 -2.812,-4.743 -3.09,-7.401c-0.184,-1.754 -1.85,-17.603 0,-22.048c1.025,-2.468 1.199,-5.51 3.09,-7.4c0.03,-0.031 7.431,-3.1 7.451,-3.09c7.545,3.128 9.64,2.368 10.493,10.49c0.184,1.755 1.847,17.603 -0,22.048c-1.028,2.469 -1.199,5.511 -3.09,7.401c-2.991,2.994 -3.198,3.09 -7.428,3.09Z" style="fill:#8dcc33;"/>
  <ellipse cx="346.451" cy="162.265" rx="29.512" ry="12.643" style="fill:#ff0;"/>
  <path d="M346.451,177.188c-0.164,-0.003 -13.847,0.318 -23.822,-4.859c-14.963,-7.767 -8.587,-21.841 16.2,-24.577c21.745,-2.398 43.207,5.737 38.863,17.416c-2.075,5.578 -10.379,8.501 -10.576,8.579c-9.309,3.625 -19.794,3.426 -20.665,3.441Zm-0.005,-4.544l0,-0.02c0.091,0 11.98,0.265 20.872,-3.925c7.964,-3.753 8.696,-8.577 0.432,-12.661c-15.092,-7.463 -43.205,-4.031 -47.988,4.349c-0.371,0.649 -2.34,4.1 4.969,7.891c8.729,4.53 21.253,4.356 21.715,4.366Z" style="fill:#f33;"/>
  <path d="M68.593,714.778l558.266,0" style="fill:none;stroke:#8dcc33;stroke-width:21.03px;"/>
  <ellipse cx="346.451" cy="714.458" rx="29.512" ry="12.643" style="fill:#ff0;"/>
  <path d="M346.451,729.383c-0.164,-0.003 -13.847,0.318 -23.822,-4.859c-14.963,-7.767 -8.587,-21.844 16.2,-24.578c21.745,-2.397 43.207,5.738 38.863,17.417c-2.075,5.578 -10.379,8.501 -10.576,8.577c-9.309,3.627 -19.794,3.427 -20.665,3.443Zm-0.005,-4.544l0,-0.02c0.091,-0.003 11.98,0.265 20.872,-3.925c7.964,-3.753 8.696,-8.577 0.432,-12.661c-15.092,-7.464 -43.205,-4.031 -47.988,4.349c-0.371,0.649 -2.34,4.097 4.969,7.89c8.729,4.529 21.253,4.357 21.715,4.367Z" style="fill:#f33;"/>
  <path d="M628.663,159.771l0,550.032" style="fill:none;stroke:#8dcc33;stroke-width:31.55px;"/>
  <path d="M65.143,159.771l-0,549.212" style="fill:none;stroke:#8dcc33;stroke-width:31.55px;"/>
  <ellipse cx="346.815" cy="162.255" rx="281.77" ry="97.211" style="fill:none;stroke:#8dcc33;stroke-width:31.55px;stroke-linecap:square;stroke-linejoin:miter;stroke-miterlimit:4;"/>
</svg>
