<?xml version="1.0" encoding="UTF-8" standalone="no"?>
<!DOCTYPE svg PUBLIC "-//W3C//DTD SVG 1.1//EN" "http://www.w3.org/Graphics/SVG/1.1/DTD/svg11.dtd">
<svg width="148" height="188" viewBox="0 0 275 348" version="1.1" xmlns="http://www.w3.org/2000/svg" xmlns:xlink="http://www.w3.org/1999/xlink" xml:space="preserve" xmlns:serif="http://www.serif.com/" style="fill-rule:evenodd;clip-rule:evenodd;stroke-linecap:round;stroke-linejoin:round;stroke-miterlimit:1.5;">
    <path d="M25.799,65.541l0,213.782" style="fill:none;stroke:#8dcc33;stroke-width:12.5px;"/>
  <path d="M27.123,64.196l220.213,0" style="fill:none;stroke:#dcdcdc;stroke-width:8.33px;"/>
  <ellipse cx="137.481" cy="283.245" rx="111.706" ry="38.538" style="fill:none;stroke:#8dcc33;stroke-width:12.5px;stroke-linecap:square;stroke-linejoin:miter;stroke-miterlimit:4;"/>
  <path d="M137.231,81.654c-1.676,-0 -1.757,-0.039 -2.942,-1.224c-0.749,-0.749 -1.114,-1.88 -1.224,-2.933c-0.073,-0.695 -0.733,-6.974 -0,-8.734c0.406,-0.978 0.475,-2.184 1.224,-2.933c0.012,-0.012 2.944,-1.227 2.952,-1.224c2.989,1.239 3.819,0.938 4.157,4.157c0.073,0.695 0.732,6.973 0,8.734c-0.407,0.978 -0.475,2.184 -1.224,2.933c-1.185,1.185 -1.267,1.224 -2.943,1.224Zm0,34.857c-1.676,-0 -1.757,-0.039 -2.942,-1.224c-0.749,-0.749 -1.161,-1.876 -1.224,-2.933c-0.084,-1.393 -0.916,-15.246 -0,-17.449c0.406,-0.978 0.475,-2.183 1.224,-2.932c0.012,-0.012 2.944,-1.228 2.952,-1.224c0.979,0.405 2.184,0.475 2.933,1.224c0.749,0.749 1.16,1.875 1.224,2.932c0.084,1.394 0.916,15.247 0,17.449c-0.407,0.978 -0.475,2.184 -1.224,2.933c-1.185,1.185 -1.267,1.224 -2.943,1.224Zm0,34.856c-1.676,0 -1.757,-0.038 -2.942,-1.224c-0.749,-0.749 -1.161,-1.875 -1.224,-2.932c-0.084,-1.394 -0.916,-15.246 -0,-17.449c0.406,-0.978 0.475,-2.184 1.224,-2.933c0.012,-0.011 2.944,-1.227 2.952,-1.223c0.979,0.405 2.184,0.474 2.933,1.223c0.749,0.749 1.16,1.876 1.224,2.933c0.084,1.394 0.916,15.246 0,17.449c-0.407,0.978 -0.475,2.183 -1.224,2.932c-1.185,1.186 -1.267,1.224 -2.943,1.224Zm0,34.858c-1.676,-0 -1.757,-0.039 -2.942,-1.224c-0.749,-0.749 -1.161,-1.876 -1.224,-2.933c-0.084,-1.393 -0.916,-15.246 -0,-17.449c0.406,-0.978 0.475,-2.183 1.224,-2.932c0.012,-0.012 2.944,-1.228 2.952,-1.224c0.979,0.405 2.184,0.475 2.933,1.224c0.749,0.749 1.16,1.875 1.224,2.932c0.084,1.394 0.916,15.247 0,17.449c-0.407,0.978 -0.475,2.184 -1.224,2.933c-1.185,1.185 -1.267,1.224 -2.943,1.224Zm0,34.856c-1.676,0 -1.757,-0.038 -2.942,-1.223c-0.749,-0.749 -1.161,-1.876 -1.224,-2.933c-0.084,-1.394 -0.916,-15.246 -0,-17.449c0.406,-0.978 0.475,-2.183 1.224,-2.932c0.012,-0.012 2.944,-1.228 2.952,-1.224c0.979,0.405 2.184,0.474 2.933,1.224c0.749,0.749 1.16,1.875 1.224,2.932c0.084,1.394 0.916,15.246 0,17.449c-0.407,0.978 -0.475,2.184 -1.224,2.933c-1.185,1.185 -1.267,1.223 -2.943,1.223Zm0,34.858c-1.676,-0 -1.757,-0.039 -2.942,-1.224c-0.749,-0.749 -1.161,-1.876 -1.224,-2.933c-0.084,-1.393 -0.916,-15.246 -0,-17.449c0.406,-0.978 0.475,-2.183 1.224,-2.932c0.012,-0.012 2.944,-1.228 2.952,-1.224c0.979,0.405 2.184,0.475 2.933,1.224c0.749,0.749 1.16,1.875 1.224,2.932c0.084,1.394 0.916,15.247 0,17.449c-0.407,0.978 -0.475,2.184 -1.224,2.933c-1.185,1.185 -1.267,1.224 -2.943,1.224Zm0,26.142c-1.676,0 -1.757,-0.038 -2.942,-1.224c-0.749,-0.749 -1.114,-1.879 -1.224,-2.932c-0.073,-0.695 -0.733,-6.974 -0,-8.735c0.406,-0.978 0.475,-2.183 1.224,-2.932c0.012,-0.012 2.944,-1.228 2.952,-1.224c2.989,1.239 3.819,0.938 4.157,4.156c0.073,0.695 0.732,6.974 0,8.735c-0.407,0.978 -0.475,2.183 -1.224,2.932c-1.185,1.186 -1.267,1.224 -2.943,1.224Z" style="fill:#ffa500;"/>
  <ellipse cx="137.257" cy="64.286" rx="11.692" ry="5.009" style="fill:#ff0;"/>
  <path d="M137.257,70.198c-0.065,-0.001 -5.486,0.126 -9.438,-1.925c-5.928,-3.077 -3.402,-8.653 6.418,-9.737c8.615,-0.95 17.118,2.273 15.397,6.9c-0.822,2.21 -4.112,3.368 -4.19,3.399c-3.688,1.436 -7.842,1.357 -8.187,1.363Zm-0.002,-1.8l0,-0.008c0.036,-0 4.746,0.105 8.269,-1.555c3.155,-1.487 3.445,-3.398 0.171,-5.016c-5.979,-2.957 -17.117,-1.597 -19.012,1.723c-0.147,0.257 -0.927,1.624 1.969,3.126c3.458,1.795 8.42,1.726 8.603,1.73Z" style="fill:#f33;"/>
  <path d="M27.175,283.181l221.174,-0" style="fill:none;stroke:#dcdcdc;stroke-width:8.33px;"/>
  <ellipse cx="137.257" cy="283.054" rx="11.692" ry="5.009" style="fill:#ff0;"/>
  <path d="M137.257,288.967c-0.065,-0.001 -5.486,0.126 -9.438,-1.925c-5.928,-3.077 -3.402,-8.654 6.418,-9.737c8.615,-0.95 17.118,2.273 15.397,6.9c-0.822,2.21 -4.112,3.368 -4.19,3.398c-3.688,1.437 -7.842,1.358 -8.187,1.364Zm-0.002,-1.8l0,-0.008c0.036,-0.001 4.746,0.105 8.269,-1.555c3.155,-1.487 3.445,-3.398 0.171,-5.016c-5.979,-2.957 -17.117,-1.597 -19.012,1.723c-0.147,0.257 -0.927,1.623 1.969,3.126c3.458,1.794 8.42,1.726 8.603,1.73Z" style="fill:#f33;"/>
  <path d="M249.064,63.298l0,217.912" style="fill:none;stroke:#dcdcdc;stroke-width:12.5px;"/>
  <path d="M25.808,63.298l-0,217.587" style="fill:none;stroke:#dcdcdc;stroke-width:12.5px;"/>
  <ellipse cx="137.401" cy="64.282" rx="111.632" ry="38.513" style="fill:none;stroke:#8dcc33;stroke-width:12.5px;stroke-linecap:square;stroke-linejoin:miter;stroke-miterlimit:4;"/>
</svg>
