<?xml version="1.0" encoding="UTF-8" standalone="no"?>
<!DOCTYPE svg PUBLIC "-//W3C//DTD SVG 1.1//EN" "http://www.w3.org/Graphics/SVG/1.1/DTD/svg11.dtd">
<svg width="512" height="378" viewBox="0 0 996 712" version="1.1" xmlns="http://www.w3.org/2000/svg" xmlns:xlink="http://www.w3.org/1999/xlink" xml:space="preserve" xmlns:serif="http://www.serif.com/" style="fill-rule:evenodd;clip-rule:evenodd;stroke-linecap:round;stroke-linejoin:round;stroke-miterlimit:1.5;">
    <path d="M-438.012,-956.324l783.852,0" style="fill:none;stroke:#8dcc33;stroke-width:12.5px;"/>
  <path d="M-192.626,-330.859l-0,369.771" style="fill:none;stroke:#9370db;stroke-width:8.33px;"/>
  <path d="M-438.012,-662.282l783.852,0" style="fill:none;stroke:#8dcc33;stroke-width:12.5px;"/>
  <path d="M-229.137,-858.774c-3.45,-0 -6.25,-2.801 -6.25,-6.25c-0,-3.45 2.8,-6.25 6.25,-6.25l9.856,-0c3.45,-0 6.25,2.8 6.25,6.25c0,3.449 -2.8,6.25 -6.25,6.25l-9.856,-0Zm36.14,-0c-3.45,-0 -6.25,-2.801 -6.25,-6.25c-0,-3.45 2.8,-6.25 6.25,-6.25l19.713,-0c3.45,-0 6.25,2.8 6.25,6.25c0,3.449 -2.8,6.25 -6.25,6.25l-19.713,-0Zm45.997,-0c-3.449,-0 -6.25,-2.801 -6.25,-6.25c0,-3.45 2.801,-6.25 6.25,-6.25l19.713,-0c3.449,-0 6.25,2.8 6.25,6.25c0,3.449 -2.801,6.25 -6.25,6.25l-19.713,-0Zm45.997,-0c-3.45,-0 -6.25,-2.801 -6.25,-6.25c-0,-3.45 2.8,-6.25 6.25,-6.25l19.712,-0c3.45,-0 6.25,2.8 6.25,6.25c0,3.449 -2.8,6.25 -6.25,6.25l-19.712,-0Zm45.996,-0c-3.449,-0 -6.25,-2.801 -6.25,-6.25c0,-3.45 2.801,-6.25 6.25,-6.25l19.714,-0c3.449,-0 6.25,2.8 6.25,6.25c-0,3.449 -2.801,6.25 -6.25,6.25l-19.714,-0Zm45.998,-0c-3.449,-0 -6.25,-2.801 -6.25,-6.25c0,-3.45 2.801,-6.25 6.25,-6.25l19.714,-0c3.449,-0 6.25,2.8 6.25,6.25c-0,3.449 -2.801,6.25 -6.25,6.25l-19.714,-0Zm45.997,-0c-3.45,-0 -6.25,-2.801 -6.25,-6.25c-0,-3.45 2.8,-6.25 6.25,-6.25l19.713,-0c3.45,-0 6.25,2.8 6.25,6.25c0,3.449 -2.8,6.25 -6.25,6.25l-19.713,-0Zm45.997,-0c-3.449,-0 -6.25,-2.801 -6.25,-6.25c0,-3.45 2.801,-6.25 6.25,-6.25l19.713,-0c3.45,-0 6.25,2.8 6.25,6.25c0,3.449 -2.8,6.25 -6.25,6.25l-19.713,-0Zm45.997,-0c-3.45,-0 -6.25,-2.801 -6.25,-6.25c-0,-3.45 2.8,-6.25 6.25,-6.25l19.713,-0c3.449,-0 6.25,2.8 6.25,6.25c-0,3.449 -2.801,6.25 -6.25,6.25l-19.713,-0Zm45.998,-0c-3.45,-0 -6.25,-2.801 -6.25,-6.25c-0,-3.45 2.8,-6.25 6.25,-6.25l19.712,-0c3.45,-0 6.25,2.8 6.25,6.25c0,3.449 -2.8,6.25 -6.25,6.25l-19.712,-0Zm45.997,-0c-3.45,-0 -6.25,-2.801 -6.25,-6.25c-0,-3.45 2.8,-6.25 6.25,-6.25l19.713,-0c3.45,-0 6.25,2.8 6.25,6.25c0,3.449 -2.8,6.25 -6.25,6.25l-19.713,-0Zm45.997,-0c-3.45,-0 -6.25,-2.801 -6.25,-6.25c-0,-3.45 2.8,-6.25 6.25,-6.25l19.713,-0c3.449,-0 6.25,2.8 6.25,6.25c-0,3.449 -2.801,6.25 -6.25,6.25l-19.713,-0Zm45.995,-0c-3.449,-0 -6.25,-2.801 -6.25,-6.25c0,-3.45 2.801,-6.25 6.25,-6.25l19.714,-0c3.449,-0 6.25,2.8 6.25,6.25c-0,3.449 -2.801,6.25 -6.25,6.25l-19.714,-0Zm45.998,-0c-3.45,-0 -6.25,-2.801 -6.25,-6.25c-0,-3.45 2.8,-6.25 6.25,-6.25l19.713,-0c3.449,-0 6.25,2.8 6.25,6.25c-0,3.449 -2.801,6.25 -6.25,6.25l-19.713,-0Zm45.997,-0c-3.45,-0 -6.25,-2.801 -6.25,-6.25c-0,-3.45 2.8,-6.25 6.25,-6.25l19.713,-0c3.45,-0 6.25,2.8 6.25,6.25c0,3.449 -2.8,6.25 -6.25,6.25l-19.713,-0Zm45.997,-0c-3.45,-0 -6.25,-2.801 -6.25,-6.25c-0,-3.45 2.8,-6.25 6.25,-6.25l19.713,-0c3.449,-0 6.25,2.8 6.25,6.25c-0,3.449 -2.801,6.25 -6.25,6.25l-19.713,-0Zm45.997,-0c-3.45,-0 -6.25,-2.801 -6.25,-6.25c-0,-3.45 2.8,-6.25 6.25,-6.25l19.713,-0c3.449,-0 6.25,2.8 6.25,6.25c-0,3.449 -2.801,6.25 -6.25,6.25l-19.713,-0Zm45.997,-0c-3.449,-0 -6.25,-2.801 -6.25,-6.25c0,-3.45 2.801,-6.25 6.25,-6.25l9.857,-0c3.449,-0 6.25,2.8 6.25,6.25c-0,3.449 -2.801,6.25 -6.25,6.25l-9.857,-0Z" style="fill:#8dcc33;"/>
  <path d="M-229.378,-1160.81l783.851,0" style="fill:none;stroke:#8dcc33;stroke-width:12.5px;"/>
  <path d="M-858.611,-295.49l0,308.481" style="fill:none;stroke:#8dcc33;stroke-width:12.5px;"/>
  <path d="M-458.942,39.128l264.924,-0" style="fill:none;stroke:#ff822e;stroke-width:6.25px;"/>
  <path d="M-457.408,-329.714l0,369.803" style="fill:none;stroke:#9370db;stroke-width:8.33px;"/>
  <path d="M-196.003,-328.462l-254.083,367.547" style="fill:none;stroke:#0dcaf2;stroke-width:6.25px;"/>
  <path d="M201.644,125.182l4.034,-13.381l-13.125,4.802c4.418,-0.128 8.963,4.161 9.091,8.579Z" style="fill:#9370db;"/>
  <path d="M198.815,119.074c-27.542,29.187 -128.568,136.246 -128.568,136.246" style="fill:none;stroke:#9370db;stroke-width:4.17px;"/>
  <path d="M204.93,519.274l4.422,-13.257l-13.259,4.416c4.42,0.001 8.838,4.422 8.837,8.841Z" style="fill:#9370db;"/>
  <path d="M202.28,513.086c-28.585,28.573 -134.049,133.994 -134.049,133.994" style="fill:none;stroke:#9370db;stroke-width:4.17px;"/>
  <path d="M802.376,510.307l-13.259,-4.417l4.422,13.258c-0.001,-4.42 4.417,-8.84 8.837,-8.841Z" style="fill:#0dcaf2;"/>
  <path d="M796.189,512.96c28.601,28.589 134.176,134.12 134.176,134.12" style="fill:none;stroke:#0dcaf2;stroke-width:4.17px;"/>
  <path d="M376.391,519.201l4.422,-13.258l-13.259,4.417c4.42,0.001 8.838,4.421 8.837,8.841Z" style="fill:#9370db;"/>
  <path d="M373.741,513.013c-28.594,28.582 -134.123,134.067 -134.123,134.067" style="fill:none;stroke:#9370db;stroke-width:4.17px;"/>
  <path d="M630.986,510.305l-13.259,-4.417l4.422,13.257c-0.001,-4.419 4.417,-8.839 8.837,-8.84Z" style="fill:#0dcaf2;"/>
  <path d="M624.799,512.958c28.601,28.589 134.178,134.122 134.178,134.122" style="fill:none;stroke:#0dcaf2;stroke-width:4.17px;"/>
  <path d="M90.441,504.48l-13.974,-0.178l8.242,11.287c-1.344,-4.21 1.522,-9.765 5.732,-11.109Z" style="fill:#9370db;"/>
  <path d="M85.354,508.888c47.346,24.432 267.801,138.192 267.801,138.192" style="fill:none;stroke:#9370db;stroke-width:4.17px;"/>
  <path d="M910.553,515.32l8.242,-11.286l-13.974,0.178c4.21,1.344 7.076,6.898 5.732,11.108Z" style="fill:#0dcaf2;"/>
  <path d="M909.908,508.619c-47.4,24.46 -268.322,138.461 -268.322,138.461" style="fill:none;stroke:#0dcaf2;stroke-width:4.17px;"/>
  <path d="M57.715,116.603l-13.124,-4.802l4.033,13.381c0.128,-4.418 4.674,-8.707 9.091,-8.579Z" style="fill:#9370db;"/>
  <path d="M51.454,119.074c27.542,29.187 128.568,136.246 128.568,136.246" style="fill:none;stroke:#9370db;stroke-width:4.17px;"/>
  <path d="M-428.401,7.717l-19.704,28.503" style="fill:none;stroke:#0dcaf2;stroke-width:6.25px;"/>
  <rect x="3.381" y="432.397" width="70.362" height="70.362" style="fill:none;stroke:#8dcc33;stroke-width:6.25px;stroke-linecap:square;stroke-miterlimit:4;"/>
  <rect x="578.62" y="432.397" width="70.362" height="70.362" style="fill:none;stroke:#8dcc33;stroke-width:6.25px;stroke-linecap:square;stroke-miterlimit:4;"/>
  <rect x="3.381" y="38.952" width="70.362" height="70.362" style="fill:none;stroke:#8dcc33;stroke-width:6.25px;stroke-linecap:square;stroke-miterlimit:4;"/>
  <rect x="175.063" y="432.397" width="70.362" height="70.362" style="fill:none;stroke:#8dcc33;stroke-width:6.25px;stroke-linecap:square;stroke-miterlimit:4;"/>
  <rect x="750.302" y="432.397" width="70.362" height="70.362" style="fill:none;stroke:#8dcc33;stroke-width:6.25px;stroke-linecap:square;stroke-miterlimit:4;"/>
  <rect x="175.063" y="38.952" width="70.362" height="70.362" style="fill:none;stroke:#8dcc33;stroke-width:6.25px;stroke-linecap:square;stroke-miterlimit:4;"/>
  <rect x="346.381" y="432.397" width="70.362" height="70.362" style="fill:none;stroke:#8dcc33;stroke-width:6.25px;stroke-linecap:square;stroke-miterlimit:4;"/>
  <rect x="921.62" y="432.397" width="70.362" height="70.362" style="fill:none;stroke:#8dcc33;stroke-width:6.25px;stroke-linecap:square;stroke-miterlimit:4;"/>
  <circle cx="38.562" cy="672.755" r="35.437" style="fill:none;stroke:#8dcc33;stroke-width:6.25px;stroke-linecap:square;stroke-miterlimit:4;"/>
  <circle cx="613.802" cy="672.755" r="35.437" style="fill:none;stroke:#8dcc33;stroke-width:6.25px;stroke-linecap:square;stroke-miterlimit:4;"/>
  <circle cx="38.562" cy="279.31" r="35.437" style="fill:none;stroke:#8dcc33;stroke-width:6.25px;stroke-linecap:square;stroke-miterlimit:4;"/>
  <circle cx="210.244" cy="672.755" r="35.437" style="fill:none;stroke:#8dcc33;stroke-width:6.25px;stroke-linecap:square;stroke-miterlimit:4;"/>
  <circle cx="785.483" cy="672.755" r="35.437" style="fill:none;stroke:#8dcc33;stroke-width:6.25px;stroke-linecap:square;stroke-miterlimit:4;"/>
  <circle cx="210.244" cy="279.31" r="35.437" style="fill:none;stroke:#8dcc33;stroke-width:6.25px;stroke-linecap:square;stroke-miterlimit:4;"/>
  <circle cx="381.562" cy="672.755" r="35.437" style="fill:none;stroke:#8dcc33;stroke-width:6.25px;stroke-linecap:square;stroke-miterlimit:4;"/>
  <circle cx="956.801" cy="672.755" r="35.437" style="fill:none;stroke:#8dcc33;stroke-width:6.25px;stroke-linecap:square;stroke-miterlimit:4;"/>
  <g transform="matrix(25,0,0,25,299.582,18.3854)">
    </g>
  <text x="2.243px" y="18.385px" style="font-family:'ArialMT', 'Arial', sans-serif;font-size:25px;fill:#9370db;stroke:#1e3a5f;stroke-width:0.83px;stroke-linecap:butt;stroke-miterlimit:2;">2 incorrect matches: 1 way</text>
  <g transform="matrix(25,0,0,25,299.582,408.598)">
    </g>
  <text x="2.243px" y="408.598px" style="font-family:'ArialMT', 'Arial', sans-serif;font-size:25px;fill:#9370db;stroke:#1e3a5f;stroke-width:0.83px;stroke-linecap:butt;stroke-miterlimit:2;">3 incorrect matches: 2 way</text>
  <g transform="matrix(50,0,0,50,54.3338,485.547)">
    </g>
  <text x="26.526px" y="485.547px" style="font-family:'ArialMT', 'Arial', sans-serif;font-size:50px;fill:#8dcc33;stroke:#1e3a5f;stroke-width:0.83px;stroke-linecap:butt;stroke-miterlimit:2;">1</text>
  <g transform="matrix(50,0,0,50,629.573,485.547)">
    </g>
  <text x="601.765px" y="485.547px" style="font-family:'ArialMT', 'Arial', sans-serif;font-size:50px;fill:#8dcc33;stroke:#1e3a5f;stroke-width:0.83px;stroke-linecap:butt;stroke-miterlimit:2;">1</text>
  <g transform="matrix(50,0,0,50,54.3338,92.1021)">
    </g>
  <text x="26.526px" y="92.102px" style="font-family:'ArialMT', 'Arial', sans-serif;font-size:50px;fill:#8dcc33;stroke:#1e3a5f;stroke-width:0.83px;stroke-linecap:butt;stroke-miterlimit:2;">1</text>
  <g transform="matrix(50,0,0,50,224.711,485.547)">
    </g>
  <text x="196.904px" y="485.547px" style="font-family:'ArialMT', 'Arial', sans-serif;font-size:50px;fill:#8dcc33;stroke:#1e3a5f;stroke-width:0.83px;stroke-linecap:butt;stroke-miterlimit:2;">2</text>
  <g transform="matrix(50,0,0,50,799.951,485.547)">
    </g>
  <text x="772.143px" y="485.547px" style="font-family:'ArialMT', 'Arial', sans-serif;font-size:50px;fill:#8dcc33;stroke:#1e3a5f;stroke-width:0.83px;stroke-linecap:butt;stroke-miterlimit:2;">2</text>
  <g transform="matrix(50,0,0,50,224.711,92.1021)">
    </g>
  <text x="196.904px" y="92.102px" style="font-family:'ArialMT', 'Arial', sans-serif;font-size:50px;fill:#8dcc33;stroke:#1e3a5f;stroke-width:0.83px;stroke-linecap:butt;stroke-miterlimit:2;">2</text>
  <g transform="matrix(50,0,0,50,395.551,485.229)">
    </g>
  <text x="367.744px" y="485.229px" style="font-family:'ArialMT', 'Arial', sans-serif;font-size:50px;fill:#8dcc33;stroke:#1e3a5f;stroke-width:0.83px;stroke-linecap:butt;stroke-miterlimit:2;">3</text>
  <g transform="matrix(50,0,0,50,970.791,485.229)">
    </g>
  <text x="942.983px" y="485.229px" style="font-family:'ArialMT', 'Arial', sans-serif;font-size:50px;fill:#8dcc33;stroke:#1e3a5f;stroke-width:0.83px;stroke-linecap:butt;stroke-miterlimit:2;">3</text>
  <g transform="matrix(50,0,0,50,54.3338,690.724)">
    </g>
  <text x="26.526px" y="690.724px" style="font-family:'ArialMT', 'Arial', sans-serif;font-size:50px;fill:#8dcc33;stroke:#1e3a5f;stroke-width:0.83px;stroke-linecap:butt;stroke-miterlimit:2;">1</text>
  <g transform="matrix(50,0,0,50,629.573,690.724)">
    </g>
  <text x="601.765px" y="690.724px" style="font-family:'ArialMT', 'Arial', sans-serif;font-size:50px;fill:#8dcc33;stroke:#1e3a5f;stroke-width:0.83px;stroke-linecap:butt;stroke-miterlimit:2;">1</text>
  <g transform="matrix(50,0,0,50,54.3338,297.279)">
    </g>
  <text x="26.526px" y="297.279px" style="font-family:'ArialMT', 'Arial', sans-serif;font-size:50px;fill:#8dcc33;stroke:#1e3a5f;stroke-width:0.83px;stroke-linecap:butt;stroke-miterlimit:2;">1</text>
  <g transform="matrix(50,0,0,50,224.711,690.724)">
    </g>
  <text x="196.904px" y="690.724px" style="font-family:'ArialMT', 'Arial', sans-serif;font-size:50px;fill:#8dcc33;stroke:#1e3a5f;stroke-width:0.83px;stroke-linecap:butt;stroke-miterlimit:2;">2</text>
  <g transform="matrix(50,0,0,50,799.951,690.724)">
    </g>
  <text x="772.143px" y="690.724px" style="font-family:'ArialMT', 'Arial', sans-serif;font-size:50px;fill:#8dcc33;stroke:#1e3a5f;stroke-width:0.83px;stroke-linecap:butt;stroke-miterlimit:2;">2</text>
  <g transform="matrix(50,0,0,50,224.711,297.279)">
    </g>
  <text x="196.904px" y="297.279px" style="font-family:'ArialMT', 'Arial', sans-serif;font-size:50px;fill:#8dcc33;stroke:#1e3a5f;stroke-width:0.83px;stroke-linecap:butt;stroke-miterlimit:2;">2</text>
  <g transform="matrix(50,0,0,50,395.551,690.406)">
    </g>
  <text x="367.744px" y="690.406px" style="font-family:'ArialMT', 'Arial', sans-serif;font-size:50px;fill:#8dcc33;stroke:#1e3a5f;stroke-width:0.83px;stroke-linecap:butt;stroke-miterlimit:2;">3</text>
  <g transform="matrix(50,0,0,50,970.791,690.406)">
    </g>
  <text x="942.983px" y="690.406px" style="font-family:'ArialMT', 'Arial', sans-serif;font-size:50px;fill:#8dcc33;stroke:#1e3a5f;stroke-width:0.83px;stroke-linecap:butt;stroke-miterlimit:2;">3</text>
</svg>
