<?xml version="1.0" encoding="UTF-8" standalone="no"?>
<!DOCTYPE svg PUBLIC "-//W3C//DTD SVG 1.1//EN" "http://www.w3.org/Graphics/SVG/1.1/DTD/svg11.dtd">
<svg width="256" height="78" viewBox="0 0 1499 416" version="1.1" xmlns="http://www.w3.org/2000/svg" xmlns:xlink="http://www.w3.org/1999/xlink" xml:space="preserve" xmlns:serif="http://www.serif.com/" style="fill-rule:evenodd;clip-rule:evenodd;stroke-linecap:round;stroke-linejoin:round;stroke-miterlimit:1.5;">
    <path d="M-561.804,-873.388l783.852,-0" style="fill:none;stroke:#8dcc33;stroke-width:12.5px;"/>
  <path d="M207.862,0c114.722,0 207.861,93.14 207.861,207.862c0,114.722 -93.139,207.861 -207.861,207.861c-114.722,0 -207.862,-93.139 -207.862,-207.861c0,-114.722 93.14,-207.862 207.862,-207.862Zm-0,12.5c-107.823,0 -195.362,87.539 -195.362,195.362c0,107.823 87.539,195.361 195.362,195.361c107.823,0 195.361,-87.538 195.361,-195.361c0,-107.823 -87.538,-195.362 -195.361,-195.362Z" style="fill:#90c;"/>
  <path d="M728.647,0c114.722,0 207.862,93.14 207.862,207.862c-0,114.722 -93.14,207.861 -207.862,207.861c-114.722,0 -207.861,-93.139 -207.861,-207.861c-0,-114.722 93.139,-207.862 207.861,-207.862Zm0,12.5c-107.823,0 -195.361,87.539 -195.361,195.362c-0,107.823 87.538,195.361 195.361,195.361c107.823,0 195.362,-87.538 195.362,-195.361c-0,-107.823 -87.539,-195.362 -195.362,-195.362Z" style="fill:#90c;"/>
  <path d="M1234.29,0c114.722,0 207.861,93.14 207.861,207.862c0,114.722 -93.139,207.861 -207.861,207.861c-114.722,0 -207.862,-93.139 -207.862,-207.861c0,-114.722 93.14,-207.862 207.862,-207.862Zm-0,12.5c-107.823,0 -195.362,87.539 -195.362,195.362c0,107.823 87.539,195.361 195.362,195.361c107.823,0 195.361,-87.538 195.361,-195.361c0,-107.823 -87.538,-195.362 -195.361,-195.362Z" style="fill:#90c;"/>
  <circle cx="281.627" cy="135.232" r="16.313" style="fill:#ff0;"/>
  <path d="M281.627,155.16c-1.573,-0.03 -8.336,-0.018 -14.256,-6.009c-8.908,-9.014 -7.162,-24.588 4.337,-31.203c11.669,-6.713 26.538,-0.06 29.391,13.03c2.727,12.513 -6.884,23.947 -18.959,24.175c-0.171,0.004 -0.342,0.004 -0.513,0.007Zm0.011,-7.231c10.981,-0.222 16.06,-12.209 10.255,-20.166c-5.796,-7.946 -17.997,-6.538 -21.905,2.389c-3.414,7.799 1.733,17.577 11.629,17.777l0.021,-0Z" style="fill:#f33;"/>
  <circle cx="873.795" cy="70.432" r="16.313" style="fill:#ff0;"/>
  <path d="M873.795,90.36c-1.574,-0.03 -8.336,-0.018 -14.257,-6.009c-8.907,-9.014 -7.161,-24.588 4.337,-31.203c11.67,-6.713 26.539,-0.06 29.392,13.03c2.727,12.513 -6.885,23.947 -18.959,24.176c-0.171,0.003 -0.342,0.003 -0.513,0.006Zm0.011,-7.231c10.981,-0.222 16.06,-12.209 10.255,-20.166c-5.797,-7.945 -17.997,-6.538 -21.905,2.39c-3.414,7.798 1.732,17.576 11.629,17.776l0.021,0Z" style="fill:#f33;"/>
  <circle cx="1478.14" cy="381.469" r="16.313" style="fill:#ff0;"/>
  <path d="M1478.14,401.397c-1.574,-0.03 -8.337,-0.017 -14.257,-6.009c-8.908,-9.014 -7.162,-24.588 4.337,-31.203c11.669,-6.713 26.539,-0.059 29.391,13.03c2.727,12.514 -6.884,23.947 -18.959,24.176c-0.171,0.003 -0.342,0.003 -0.512,0.006Zm0.01,-7.231c10.982,-0.222 16.06,-12.209 10.255,-20.166c-5.796,-7.945 -17.997,-6.538 -21.905,2.39c-3.413,7.798 1.733,17.576 11.629,17.776l0.021,0Z" style="fill:#f33;"/>
</svg>
