<?xml version="1.0" encoding="UTF-8" standalone="no"?>
<!DOCTYPE svg PUBLIC "-//W3C//DTD SVG 1.1//EN" "http://www.w3.org/Graphics/SVG/1.1/DTD/svg11.dtd">
<svg width="256" height="68" viewBox="0 0 804 146" version="1.1" xmlns="http://www.w3.org/2000/svg" xmlns:xlink="http://www.w3.org/1999/xlink" xml:space="preserve" xmlns:serif="http://www.serif.com/" style="fill-rule:evenodd;clip-rule:evenodd;stroke-linecap:round;stroke-linejoin:round;stroke-miterlimit:1.5;">
    <path d="M545.97,6.25l-262.358,132.991" style="fill:none;stroke:#ff7bac;stroke-width:12.5px;"/>
  <path d="M268.608,6.25l-262.358,132.991" style="fill:none;stroke:#ff7bac;stroke-width:12.5px;"/>
  <path d="M797.603,6.25l-262.358,132.991" style="fill:none;stroke:#ff7bac;stroke-width:12.5px;"/>
  <circle cx="414.728" cy="72.912" r="16.313" style="fill:#ff0;"/>
  <path d="M414.728,89.225c-9.003,-0 -16.313,-7.31 -16.313,-16.313c0,-9.003 7.31,-16.312 16.313,-16.312c9.003,-0 16.312,7.309 16.312,16.312c0,9.003 -7.309,16.313 -16.312,16.313Zm0.01,-3.616c10.982,-0.222 16.06,-12.209 10.256,-20.166c-5.797,-7.945 -17.997,-6.538 -21.905,2.39c-3.414,7.798 1.732,17.576 11.628,17.776l0.021,0Z" style="fill:#f33;"/>
  <circle cx="95.701" cy="31.247" r="16.313" style="fill:#ff0;"/>
  <path d="M95.701,47.559c-9.004,0 -16.313,-7.309 -16.313,-16.312c0,-9.003 7.309,-16.313 16.313,-16.313c9.003,0 16.312,7.31 16.312,16.313c0,9.003 -7.309,16.312 -16.312,16.312Zm0.01,-3.615c10.981,-0.222 16.06,-12.209 10.255,-20.166c-5.796,-7.946 -17.997,-6.538 -21.905,2.389c-3.414,7.799 1.733,17.577 11.629,17.777l0.021,-0Z" style="fill:#f33;"/>
  <circle cx="707.435" cy="113.987" r="16.313" style="fill:#ff0;"/>
  <path d="M707.435,130.299c-9.003,0 -16.312,-7.309 -16.312,-16.312c-0,-9.003 7.309,-16.313 16.312,-16.313c9.003,0 16.313,7.31 16.313,16.313c-0,9.003 -7.31,16.312 -16.313,16.312Zm0.011,-3.615c10.981,-0.222 16.06,-12.209 10.255,-20.166c-5.797,-7.946 -17.997,-6.538 -21.905,2.389c-3.414,7.799 1.732,17.577 11.629,17.777l0.021,-0Z" style="fill:#f33;"/>
</svg>
