<?xml version="1.0" encoding="UTF-8" standalone="no"?>
<!DOCTYPE svg PUBLIC "-//W3C//DTD SVG 1.1//EN" "http://www.w3.org/Graphics/SVG/1.1/DTD/svg11.dtd">
<svg width="256" height="78"  viewBox="0 0 1364 388" version="1.1" xmlns="http://www.w3.org/2000/svg" xmlns:xlink="http://www.w3.org/1999/xlink" xml:space="preserve" xmlns:serif="http://www.serif.com/" style="fill-rule:evenodd;clip-rule:evenodd;stroke-linejoin:round;stroke-miterlimit:2;">
    <path d="M193.876,0c107.003,0 193.876,86.873 193.876,193.876c-0,107.003 -86.873,193.876 -193.876,193.876c-107.003,-0 -193.876,-86.873 -193.876,-193.876c-0,-107.003 86.873,-193.876 193.876,-193.876Zm0,11.659c-100.568,-0 -182.217,81.649 -182.217,182.217c-0,100.569 81.649,182.217 182.217,182.217c100.569,-0 182.217,-81.648 182.217,-182.217c-0,-100.568 -81.648,-182.217 -182.217,-182.217Z" style="fill:#0dcaf2;"/>
  <path d="M679.621,0c107.003,0 193.876,86.873 193.876,193.876c0,107.003 -86.873,193.876 -193.876,193.876c-107.003,-0 -193.875,-86.873 -193.875,-193.876c-0,-107.003 86.872,-193.876 193.875,-193.876Zm0,11.659c-100.568,-0 -182.216,81.649 -182.216,182.217c-0,100.569 81.648,182.217 182.216,182.217c100.568,-0 182.218,-81.648 182.218,-182.217c-0,-100.568 -81.65,-182.217 -182.218,-182.217Z" style="fill:#0dcaf2;"/>
  <path d="M1151.24,0c107.003,0 193.875,86.873 193.875,193.876c0,107.003 -86.872,193.876 -193.875,193.876c-107.003,-0 -193.877,-86.873 -193.877,-193.876c0,-107.003 86.874,-193.876 193.877,-193.876Zm-0,11.659c-100.569,-0 -182.218,81.649 -182.218,182.217c0,100.569 81.649,182.217 182.218,182.217c100.568,-0 182.216,-81.648 182.216,-182.217c0,-100.568 -81.648,-182.217 -182.216,-182.217Z" style="fill:#0dcaf2;"/>
  <path d="M1352.81,315.645c-6.532,-1.368 -12.946,2.824 -14.314,9.356c-1.369,6.531 2.823,12.945 9.355,14.314c6.532,1.368 12.945,-2.824 14.314,-9.356c1.369,-6.532 -2.824,-12.946 -9.355,-14.314Z" style="fill:#ff0;"/>
  <path d="M817.423,53.801c-6.533,-1.368 -12.946,2.824 -14.315,9.356c-1.368,6.531 2.824,12.945 9.356,14.314c6.532,1.368 12.945,-2.824 14.314,-9.356c1.369,-6.532 -2.824,-12.946 -9.355,-14.314Z" style="fill:#ff0;"/>
  <path d="M265.09,114.229c-6.532,-1.368 -12.946,2.824 -14.314,9.356c-1.369,6.531 2.823,12.945 9.355,14.314c6.532,1.368 12.945,-2.824 14.314,-9.356c1.369,-6.532 -2.824,-12.946 -9.355,-14.314Z" style="fill:#ff0;"/>
  <path d="M1352.99,315.21c6.81,1.426 11.181,8.113 9.755,14.924c-1.428,6.81 -8.115,11.181 -14.925,9.754c-6.81,-1.427 -11.181,-8.114 -9.754,-14.924c1.427,-6.811 8.114,-11.181 14.924,-9.754Zm-0.538,2.569c-0.013,0.063 -2.908,-0.913 -6.465,0.821c-6.107,2.978 -7.676,11.476 -2.216,16.408c4.652,4.202 12.507,3.104 15.586,-3.035c2.853,-5.691 -0.462,-12.719 -6.653,-14.138l-0.252,-0.056Z" style="fill:#ff5151;"/>
  <path d="M817.597,53.366c6.81,1.426 11.181,8.113 9.755,14.924c-1.428,6.81 -8.115,11.181 -14.925,9.754c-6.81,-1.427 -11.181,-8.114 -9.754,-14.924c1.426,-6.81 8.114,-11.181 14.924,-9.754Zm-0.538,2.569c-0.013,0.063 -2.908,-0.913 -6.465,0.821c-6.108,2.978 -7.676,11.476 -2.216,16.408c4.652,4.202 12.507,3.104 15.585,-3.035c2.854,-5.691 -0.461,-12.719 -6.652,-14.138l-0.252,-0.056Z" style="fill:#ff5151;"/>
  <path d="M265.264,113.794c6.81,1.426 11.181,8.113 9.755,14.924c-1.428,6.81 -8.115,11.181 -14.925,9.754c-6.81,-1.427 -11.181,-8.114 -9.754,-14.924c1.427,-6.811 8.114,-11.181 14.924,-9.754Zm-0.538,2.569c-0.013,0.063 -2.908,-0.913 -6.465,0.821c-6.108,2.978 -7.676,11.476 -2.216,16.407c4.652,4.203 12.507,3.105 15.586,-3.034c2.853,-5.691 -0.462,-12.719 -6.653,-14.138l-0.252,-0.056Z" style="fill:#ff5151;"/>
</svg>
