<?xml version="1.0" encoding="UTF-8"?>
<svg id="Layer_1" data-name="Layer 1" xmlns="http://www.w3.org/2000/svg" viewBox="0 0 1135.68 500.47" width="512" height="256">
  <defs>
    <style>
      .cls-1 {
      fill: #fff;
      }

      .cls-1, .cls-2 {
      stroke: #337ecc;
      stroke-miterlimit: 10;
      stroke-width: 3px;
      }

      .cls-2 {
      fill: none;
      }

      .cls-3 {
      font-family: InaiMathi-Bold, InaiMathi;
      font-weight: 700;
      }

      .cls-3, .cls-4 {
      fill: #008cdc;
      font-size: 30.39px;
      }

      .cls-4 {
      font-family: AcuminConcept-ExtraCondSemibold, 'Acumin Variable Concept';
      font-variation-settings: 'wght' 600, 'wdth' 50, 'slnt' 0;
      font-weight: 600;
      }
    </style>
  </defs>
  <line class="cls-1" x1="660.89" y1="239.76" x2="1135.68" y2="239.76"/>
  <line class="cls-2" x1="659.63" y1="403.72" x2="1134.41" y2="403.72"/>
  <line class="cls-2" x1="705.84" y1="462.59" x2="976.78" y2="58.71"/>
  <text class="cls-4" transform="translate(759.81 337.13)"><tspan x="0" y="0">b</tspan></text>
  <line class="cls-2" x1="1048.95" y1="461.32" x2="976.78" y2="58.71"/>
  <text class="cls-4" transform="translate(882.12 146.89)"><tspan x="0" y="0">a</tspan></text>
  <text class="cls-4" transform="translate(1012.53 148.15)"><tspan x="0" y="0">c</tspan></text>
  <text class="cls-4" transform="translate(1040.71 336.8)"><tspan x="0" y="0">d</tspan></text>
  <text class="cls-3" transform="translate(858.38 491.63)"><tspan x="0" y="0">a : b = c : d</tspan></text>
  <line class="cls-1" y1="239.76" x2="550.75" y2="239.76"/>
  <line class="cls-2" y1="403.08" x2="550.75" y2="403.08"/>
  <line class="cls-2" y1="58.71" x2="550.75" y2="58.71"/>
  <line class="cls-2" x1="85.46" y1="462.59" x2="237.39" y2=".47"/>
  <line class="cls-2" x1="411.86" y1="465.12" x2="390.59" y2="8.06"/>
  <text class="cls-3" transform="translate(183.66 492.39)"><tspan x="0" y="0">a : b = c : d</tspan></text>
  <text class="cls-4" transform="translate(106.99 336.96)"><tspan x="0" y="0">b</tspan></text>
  <text class="cls-4" transform="translate(374.13 336.96)"><tspan x="0" y="0">d</tspan></text>
  <text class="cls-4" transform="translate(161.9 147.25)"><tspan x="0" y="0">a</tspan></text>
  <text class="cls-4" transform="translate(373.75 148.51)"><tspan x="0" y="0">c</tspan></text>
</svg>
