<?xml version="1.0" encoding="UTF-8" standalone="no"?>
<!DOCTYPE svg PUBLIC "-//W3C//DTD SVG 1.1//EN" "http://www.w3.org/Graphics/SVG/1.1/DTD/svg11.dtd">
<svg width="172" height="188" viewBox="0 0 606 664" version="1.1" xmlns="http://www.w3.org/2000/svg" xmlns:xlink="http://www.w3.org/1999/xlink" xml:space="preserve" xmlns:serif="http://www.serif.com/" style="fill-rule:evenodd;clip-rule:evenodd;stroke-linecap:round;stroke-linejoin:round;stroke-miterlimit:1.5;">
    <path d="M60.923,623.581l506.979,-556.659" style="fill:none;stroke:#0dcaf2;stroke-width:12.5px;"/>
  <path d="M265.506,398.95l302.396,-332.028" style="fill:none;stroke:#8dcc33;stroke-width:12.5px;"/>
  <circle cx="162.852" cy="511.219" r="9.91" style="fill:#ff0;"/>
  <path d="M162.852,522.033c-0.057,-0.001 -4.726,0.244 -8.176,-3.738c-5.495,-6.343 -1.917,-16.259 6.263,-17.721c8.568,-1.532 15.331,7.225 11.771,15.094c-0.827,1.827 -2.159,3.399 -3.813,4.517c-2.835,1.916 -5.608,1.837 -6.045,1.848Zm-0,-1.808c8.806,-0.222 11.886,-10.622 5.892,-15.815c-5.51,-4.774 -14.122,-1.297 -14.852,5.888c-0.466,4.581 2.742,9.77 8.96,9.927Z" style="fill:#f33;"/>
  <path id="MJX-231-NCM-N-31" d="M125.354,581.896c-1.333,1.366 -3.284,2.048 -5.852,2.048l0,1.268c1.691,0 3.088,-0.26 4.161,-0.78l0,16.45c0,0.585 -0.13,0.975 -0.422,1.138c-0.293,0.163 -1.106,0.26 -2.406,0.26l-1.138,0l0,1.268c0.813,-0.065 2.568,-0.098 5.267,-0.098c2.698,0 4.454,0.033 5.266,0.098l0,-1.268l-1.138,0c-1.332,0 -2.145,-0.097 -2.405,-0.26c-0.26,-0.163 -0.423,-0.553 -0.423,-1.138l0,-18.01c0,-0.781 -0.065,-0.976 -0.91,-0.976Z" style="fill:#9370db;fill-rule:nonzero;stroke:#1e3a5f;stroke-width:0.42px;stroke-linecap:butt;stroke-miterlimit:2;"/>
  <path id="MJX-231-NCM-N-311" serif:id="MJX-231-NCM-N-31" d="M235.682,456.093c-1.333,1.365 -3.283,2.048 -5.851,2.048l-0,1.268c1.69,-0 3.088,-0.26 4.161,-0.78l-0,16.45c-0,0.585 -0.13,0.975 -0.423,1.138c-0.292,0.162 -1.105,0.26 -2.406,0.26l-1.137,-0l-0,1.268c0.812,-0.065 2.568,-0.098 5.266,-0.098c2.699,-0 4.454,0.033 5.267,0.098l-0,-1.268l-1.138,-0c-1.333,-0 -2.146,-0.098 -2.406,-0.26c-0.26,-0.163 -0.422,-0.553 -0.422,-1.138l-0,-18.011c-0,-0.78 -0.065,-0.975 -0.911,-0.975Z" style="fill:#9370db;fill-rule:nonzero;stroke:#1e3a5f;stroke-width:0.42px;stroke-linecap:butt;stroke-miterlimit:2;"/>
  <path id="MJX-231-NCM-N-32" d="M143.813,473.203c-2.103,-0 -3.876,0.742 -5.402,2.227c-1.525,1.484 -2.309,3.216 -2.309,5.319c0,1.402 1.031,2.433 2.309,2.433c1.237,-0 2.268,-1.072 2.268,-2.309c0,-1.361 -0.989,-2.31 -2.309,-2.31c-0.124,0 -0.206,0 -0.288,0.042c0.783,-2.021 2.597,-3.794 5.195,-3.794c3.381,0 5.278,2.928 5.278,6.474c0,2.763 -1.402,5.732 -4.206,8.866l-7.752,8.741c-0.536,0.619 -0.495,0.578 -0.495,1.774l15.299,-0l1.195,-7.423l-1.36,0c-0.33,2.103 -0.619,3.299 -0.866,3.67c-0.207,0.206 -1.444,0.289 -3.712,0.289l-6.886,-0l4,-3.918c2.804,-2.639 6.35,-5.484 7.546,-7.669c0.825,-1.444 1.237,-2.887 1.237,-4.33c0,-4.866 -3.794,-8.082 -8.742,-8.082Z" style="fill:#0dcaf2;fill-rule:nonzero;stroke:#1e3a5f;stroke-width:0.42px;stroke-linecap:butt;stroke-miterlimit:2;"/>
  <g>
        <g>
            <path id="MJX-51-NCM-I-1D434" d="M566.898,47.533c1.188,0 5.278,0.198 6.531,0.198c0.989,0 1.451,-0.527 1.451,-1.517c0,-0.594 -0.396,-0.989 -1.253,-1.055c-1.913,-0.066 -2.837,-0.726 -2.837,-1.979c0,-0.594 0.594,-1.913 1.847,-3.892c1.781,-2.969 3.035,-5.146 3.892,-6.597l16.03,0c0,0.462 0.066,1.385 0.264,2.837c0.462,4.815 0.725,7.454 0.725,7.784c0,1.253 -1.451,1.847 -4.419,1.847c-1.254,-0 -1.847,0.527 -1.847,1.583c-0,0.66 0.396,0.989 1.187,0.989c1.583,0 6.597,-0.198 8.18,-0.198c1.319,0 6.003,0.198 7.322,0.198c0.99,0 1.451,-0.527 1.451,-1.583c0,-0.659 -0.593,-0.989 -1.781,-0.989c-1.847,-0 -2.968,-0.132 -3.298,-0.33c-0.33,-0.198 -0.594,-0.792 -0.66,-1.781l-3.958,-40.767c-0.198,-1.253 -0.132,-1.781 -1.517,-1.781c-0.791,-0 -1.451,0.396 -1.913,1.253l-22.692,38.063c-1.979,3.298 -4.618,5.079 -7.85,5.343c-1.055,0.066 -1.583,0.593 -1.583,1.583c-0,0.66 0.396,0.989 1.121,0.989c1.056,0 4.552,-0.198 5.607,-0.198m23.418,-37.864l1.979,20.45l-14.182,-0l12.203,-20.45Z" style="fill:#0dcaf2;fill-rule:nonzero;stroke:#1e3a5f;stroke-width:1px;stroke-linecap:butt;stroke-miterlimit:2;"/>
        </g>
    </g>
  <g>
        <g>
            <path id="MJX-51-NCM-I-1D436" d="M225.845,379.331c-0,-8.444 3.694,-17.019 7.85,-21.769c3.364,-3.892 9.169,-7.784 15.7,-7.784c6.86,0 10.224,5.212 10.224,12.336c0,0.594 -0.198,2.705 -0.198,3.298c0,0.594 0.396,0.924 1.254,0.924c0.33,-0 0.593,-0.066 0.791,-0.132c0.33,-0.462 0.528,-0.924 0.66,-1.385l4.09,-16.69c-0,-0.593 -0.33,-0.923 -0.99,-0.923c-0.264,-0 -0.659,0.264 -1.187,0.857l-4.288,4.816c-2.572,-3.76 -6.201,-5.673 -10.884,-5.673c-3.628,-0 -7.19,0.857 -10.818,2.506c-7.323,3.431 -12.666,8.84 -16.096,16.228c-1.715,3.628 -2.573,7.322 -2.573,11.082c0,5.278 1.649,9.565 5.014,12.995c3.364,3.431 7.652,5.146 12.929,5.146c5.211,-0 9.961,-1.913 14.248,-5.673c1.782,-1.517 3.299,-3.364 4.552,-5.409c1.781,-2.969 2.705,-5.014 2.705,-6.267c-0,-0.594 -0.33,-0.924 -1.056,-0.924c-0.593,0 -0.923,0.264 -1.055,0.858c-1.386,4.288 -3.562,7.718 -6.531,10.159c-3.76,3.1 -7.718,4.683 -11.808,4.683c-7.916,0 -12.533,-5.343 -12.533,-13.259Z" style="fill:#0dcaf2;fill-rule:nonzero;stroke:#1e3a5f;stroke-width:1px;stroke-linecap:butt;stroke-miterlimit:2;"/>
        </g>
    </g>
  <g>
        <g>
            <path id="MJX-51-NCM-I-1D437" d="M206.069,505.174l-17.176,-0c-1.19,-0 -1.759,0.048 -1.759,1.102c0,0.527 0.569,0.766 1.707,0.766c1.035,0 3.104,-0.143 3.104,0.623c0,0.096 -0.051,0.384 -0.206,0.863l-6.83,25.441c-0.258,1.054 -0.776,1.677 -1.552,1.916c-0.362,0.096 -1.293,0.144 -2.897,0.144c-1.138,-0 -1.655,0.096 -1.655,1.102c-0,0.527 0.569,0.767 1.655,0.767l16.918,-0c3.518,-0 6.881,-0.959 10.14,-2.923c5.536,-3.306 10.813,-9.774 10.813,-17.632c-0,-7.09 -4.708,-12.169 -12.262,-12.169m7.399,10.397c-0,5.414 -2.639,11.978 -5.329,15.188c-2.949,3.497 -6.829,5.27 -11.693,5.27l-5.742,-0c-0.569,-0 -0.931,-0 -1.138,-0.048c-0.311,0 -0.466,-0.096 -0.466,-0.239c0,-0.096 0.103,-0.432 0.259,-1.055l6.984,-26.016c0.466,-1.581 0.414,-1.629 2.587,-1.629l5.484,0c5.794,0 9.054,3.163 9.054,8.529Z" style="fill:#9370db;fill-rule:nonzero;stroke:#1e3a5f;stroke-width:1px;stroke-linecap:butt;stroke-miterlimit:2;"/>
        </g>
    </g>
  <g>
        <g>
            <path d="M14.104,621.062c-1.138,0 -1.812,-0.021 -2.022,-0.063c-0.211,-0.042 -0.316,-0.274 -0.316,-0.695c-0,-1.138 0.231,-1.833 0.695,-2.085c0.042,-0.043 2.78,-0.064 8.215,-0.064c10.911,0 16.662,0.042 17.252,0.127c2.654,0.421 4.866,1.369 6.635,2.843c1.769,1.475 2.675,3.413 2.717,5.814c0,2.696 -1.221,5.119 -3.665,7.267c-2.443,2.149 -5.245,3.602 -8.405,4.361l-0.631,0.189c2.696,0.38 4.908,1.349 6.635,2.907c1.727,1.559 2.612,3.497 2.654,5.814c-0,3.076 -1.517,6.046 -4.55,8.91c-3.033,2.865 -6.762,4.487 -11.185,4.866c-0.295,0.042 -4.74,0.063 -13.334,0.063c-8.426,0 -12.702,-0.042 -12.828,-0.126c-0.169,-0.126 -0.253,-0.295 -0.253,-0.505c-0,-0.295 0.042,-0.59 0.126,-0.885c0.211,-0.801 0.422,-1.243 0.632,-1.327c0.169,-0.042 0.485,-0.063 0.948,-0.063l0.379,-0c1.138,-0 2.402,-0.064 3.792,-0.19c0.59,-0.126 0.99,-0.379 1.201,-0.758c0.126,-0.169 1.643,-6.025 4.55,-17.568c2.906,-11.543 4.36,-17.631 4.36,-18.263c-0,-0.295 -1.201,-0.484 -3.602,-0.569Zm26.415,5.877c-0,-1.264 -0.316,-2.443 -0.948,-3.539c-0.632,-1.095 -1.664,-1.811 -3.097,-2.148c-0.295,-0.084 -2.233,-0.148 -5.813,-0.19l-2.655,0c-0.926,0 -1.664,0.021 -2.211,0.063l-0.822,0c-0.632,0.043 -1.032,0.253 -1.201,0.632c-0.084,0.169 -0.758,2.697 -2.022,7.584c0,0.126 -0.021,0.252 -0.063,0.379l-1.959,7.962l5.119,0c3.412,0 5.371,-0.042 5.877,-0.126c2.527,-0.422 4.781,-1.643 6.761,-3.665c1.98,-2.023 2.992,-4.34 3.034,-6.952Zm-3.413,19.906c0,-1.854 -0.484,-3.391 -1.453,-4.613c-0.969,-1.222 -2.233,-1.938 -3.792,-2.149c-0.253,-0.042 -2.001,-0.063 -5.245,-0.063c-4.971,0 -7.478,0.021 -7.52,0.063c0,0.085 -0.358,1.622 -1.074,4.614c-0.716,2.991 -1.454,5.961 -2.212,8.91l-1.137,4.423c-0,0.169 0.252,0.253 0.758,0.253c0.505,0 2.212,0.042 5.119,0.127c3.749,-0 5.771,-0.022 6.066,-0.064c2.612,-0.295 5.013,-1.516 7.204,-3.665c2.191,-2.148 3.286,-4.76 3.286,-7.836Z" style="fill:#0dcaf2;fill-rule:nonzero;stroke:#1e3a5f;stroke-width:0.83px;stroke-linecap:butt;stroke-linejoin:miter;stroke-miterlimit:4;"/>
        </g>
    </g>
  <path id="MJX-216-NCM-N-33" d="M398.878,216.178c2.973,-1.127 5.766,-3.965 5.766,-7.794c0,-1.937 -0.946,-3.514 -2.793,-4.73c-1.622,-1.036 -3.469,-1.577 -5.541,-1.577c-2.027,0 -3.784,0.541 -5.361,1.577c-1.757,1.171 -2.658,2.703 -2.658,4.64c0,1.487 0.991,2.523 2.433,2.523c1.442,-0 2.433,-1.036 2.433,-2.478c-0,-1.487 -0.856,-2.297 -2.568,-2.388c1.171,-1.576 3.018,-2.387 5.541,-2.387c2.703,-0 4.054,1.577 4.054,4.775c0,1.892 -0.36,3.469 -1.036,4.775c-1.216,2.163 -2.883,2.568 -5.676,2.568c-0.541,0.09 -0.811,0.315 -0.811,0.721c0,0.676 0.316,0.676 1.217,0.676l1.937,-0c3.378,-0 5.09,2.387 5.09,7.208c0,3.829 -1.396,7.162 -4.82,7.162c-2.928,0 -5.091,-0.991 -6.397,-2.973c1.577,0.045 2.748,-1.126 2.748,-2.658c-0,-1.531 -1.126,-2.658 -2.658,-2.658c-1.757,0 -2.658,0.901 -2.658,2.748c0,2.208 0.991,3.965 2.973,5.361c1.757,1.217 3.83,1.802 6.127,1.802c2.568,0 4.775,-0.856 6.712,-2.523c1.938,-1.666 2.884,-3.739 2.884,-6.261c-0,-4.235 -3.334,-7.163 -6.938,-8.109Z" style="fill:#8dcc33;fill-rule:nonzero;stroke:#1e3a5f;stroke-width:0.42px;stroke-linecap:butt;stroke-miterlimit:2;"/>
</svg>
