<?xml version="1.0" encoding="UTF-8" standalone="no"?>
<!DOCTYPE svg PUBLIC "-//W3C//DTD SVG 1.1//EN" "http://www.w3.org/Graphics/SVG/1.1/DTD/svg11.dtd">
<svg width="180" height="190" viewBox="0 0 750 750" version="1.1" xmlns="http://www.w3.org/2000/svg" xmlns:xlink="http://www.w3.org/1999/xlink" xml:space="preserve" xmlns:serif="http://www.serif.com/" style="fill-rule:evenodd;clip-rule:evenodd;stroke-linecap:round;stroke-linejoin:round;stroke-miterlimit:1.5;">
    <text x="216.839px" y="388.88px" style="font-family:'ArialMT', 'Arial', sans-serif;font-size:90.264px;fill:#8dcc33;">D</text>
  <text x="345.666px" y="241.848px" style="font-family:'ArialMT', 'Arial', sans-serif;font-size:52.521px;fill:#f60;">2</text>
  <text x="140.376px" y="539.298px" style="font-family:'ArialMT', 'Arial', sans-serif;font-size:52.521px;fill:#90c;">5</text>
  <text x="647.035px" y="590.217px" style="font-family:'ArialMT', 'Arial', sans-serif;font-size:52.521px;fill:#0fc;">7</text>
  <text x="573.65px" y="279.443px" style="font-family:'ArialMT', 'Arial', sans-serif;font-size:52.521px;fill:#ff7bac;">4</text>
  <text x="440.704px" y="317.193px" style="font-family:'ArialMT', 'Arial', sans-serif;font-size:52.521px;fill:#f33;">16</text>
  <text x="687.901px" y="744.398px" style="font-family:'ArialMT', 'Arial', sans-serif;font-size:90.264px;fill:#8dcc33;">C</text>
  <text x="493.194px" y="68.814px" style="font-family:'ArialMT', 'Arial', sans-serif;font-size:90.264px;fill:#8dcc33;">A</text>
  <text x="-6.611px" y="744.195px" style="font-family:'ArialMT', 'Arial', sans-serif;font-size:90.264px;fill:#8dcc33;">B</text>
  <text x="626.208px" y="488.949px" style="font-family:'ArialMT', 'Arial', sans-serif;font-size:90.264px;fill:#8dcc33;">E</text>
  <path d="M304.418,373.437l-237.534,333.003" style="fill:none;stroke:#90c;stroke-width:8.75px;"/>
  <path d="M506.317,90.392l-201.899,283.045" style="fill:none;stroke:#f60;stroke-width:8.75px;"/>
  <path d="M304.399,373.23l299.129,84.521" style="fill:none;stroke:#0dcaf2;stroke-width:8.8px;"/>
  <path d="M605.735,456.643l68.124,250.968" style="fill:none;stroke:#0fc;stroke-width:8.75px;"/>
  <path d="M506.317,90.392l99.418,366.251" style="fill:none;stroke:#ff7bac;stroke-width:8.75px;"/>
  <path d="M66.281,707.556l607.447,0" style="fill:none;stroke:#0dcaf2;stroke-width:8.83px;"/>
  <path d="M486.956,124.143l2.025,-2.76c3.338,2.45 7.371,3.772 11.512,3.772c3.503,-0 6.942,-0.946 9.952,-2.738l1.751,2.941c-3.54,2.108 -7.583,3.22 -11.703,3.22c-4.87,-0 -9.612,-1.554 -13.537,-4.435Z" style="fill:#f33;"/>
</svg>
