<?xml version="1.0" encoding="UTF-8" standalone="no"?>
<!DOCTYPE svg PUBLIC "-//W3C//DTD SVG 1.1//EN" "http://www.w3.org/Graphics/SVG/1.1/DTD/svg11.dtd">
<svg width="256" height="176" viewBox="0 0 1902 1333" version="1.1" xmlns="http://www.w3.org/2000/svg" xmlns:xlink="http://www.w3.org/1999/xlink" xml:space="preserve" xmlns:serif="http://www.serif.com/" style="fill-rule:evenodd;clip-rule:evenodd;stroke-linecap:round;stroke-linejoin:round;stroke-miterlimit:1.5;">
    <g transform="matrix(1,0,0,1,-7052.63,-1824.54)">
        <g transform="matrix(2.25933,0,0,-1.54357,-6027.07,5553.23)">
            <path d="M6209.86,2016.05L6547.9,2301.97L5871.83,2301.97L6209.86,2016.05Z" style="fill:rgb(13,202,242);fill-opacity:0.35;"/>
        </g>
      <g transform="matrix(4.15033e-16,-2.25933,-1.54357,-2.83549e-16,10751.5,16550.6)">
            <path d="M6175.41,1956.61L6435.59,2282.67L6046.67,2282.66L6175.41,1956.61Z" style="fill:rgb(13,202,242);fill-opacity:0.35;"/>
        </g>
      <g transform="matrix(1.38344e-16,2.25933,1.54357,-9.45163e-17,5273.51,-11470.6)">
            <path d="M6227.21,1944.82L6355.92,2270.84L5967.88,2270.83L6227.21,1944.82Z" style="fill:rgb(13,202,242);fill-opacity:0.35;"/>
        </g>
      <g transform="matrix(1,0,0,1,3704.05,404.963)">
            <g transform="matrix(100,0,0,100,4340.38,2013.78)">
            </g>
        <text x="4262.6px" y="2013.78px" style="font-family:'ArialMT', 'Arial', sans-serif;font-size:100px;fill:rgb(141,204,51);">O</text>
        </g>
      <g transform="matrix(1,0,0,1,3346.63,605.567)">
            <g transform="matrix(100,0,0,100,4329.3,2013.78)">
            </g>
        <text x="4262.6px" y="2013.78px" style="font-family:'ArialMT', 'Arial', sans-serif;font-size:100px;fill:rgb(141,204,51);">E</text>
        </g>
      <g transform="matrix(1,0,0,1,4060.27,609.105)">
            <g transform="matrix(100,0,0,100,4340.38,2013.78)">
            </g>
        <text x="4262.6px" y="2013.78px" style="font-family:'ArialMT', 'Arial', sans-serif;font-size:100px;fill:rgb(141,204,51);">G</text>
        </g>
      <g transform="matrix(1,0,0,1,3702.92,982.339)">
            <g transform="matrix(100,0,0,100,4323.69,2013.78)">
            </g>
        <text x="4262.6px" y="2013.78px" style="font-family:'ArialMT', 'Arial', sans-serif;font-size:100px;fill:rgb(141,204,51);">F</text>
        </g>
      <g transform="matrix(1,0,0,1,4534,932.005)">
            <g transform="matrix(100,0,0,100,4334.82,2013.78)">
            </g>
        <text x="4262.6px" y="2013.78px" style="font-family:'ArialMT', 'Arial', sans-serif;font-size:100px;fill:rgb(141,204,51);">C</text>
        </g>
      <g transform="matrix(1,0,0,1,2877.6,932.014)">
            <g transform="matrix(100,0,0,100,4329.3,2013.78)">
            </g>
        <text x="4262.6px" y="2013.78px" style="font-family:'ArialMT', 'Arial', sans-serif;font-size:100px;fill:rgb(141,204,51);">B</text>
        </g>
      <g transform="matrix(1,0,0,1,2875.44,5.71717)">
            <g transform="matrix(100,0,0,100,4329.3,2013.78)">
            </g>
        <text x="4262.6px" y="2013.78px" style="font-family:'ArialMT', 'Arial', sans-serif;font-size:100px;fill:rgb(141,204,51);">A</text>
        </g>
      <g transform="matrix(1,0,0,1,4532.29,7.00644)">
            <g transform="matrix(100,0,0,100,4334.82,2013.78)">
            </g>
        <text x="4262.6px" y="2013.78px" style="font-family:'ArialMT', 'Arial', sans-serif;font-size:100px;fill:rgb(141,204,51);">D</text>
        </g>
      <g transform="matrix(1,0,0,1,1727.29,461.982)">
            <g transform="matrix(100,0,0,100,6536.8,2673.85)">
            </g>
        <text x="6003.11px" y="2673.85px" style="font-family:'ArialMT', 'Arial', sans-serif;font-size:100px;fill:rgb(30,58,95);">Figure 6–28</text>
        </g>
      <g transform="matrix(-0.369947,0.319198,-0.461864,1.10894,8500.66,1779.73)">
            <path d="M8371.81,226.33L3129.8,2398.76" style="fill:none;stroke:rgb(255,123,172);stroke-width:7.13px;stroke-dasharray:21.39,21.39,0,0,0,0;"/>
        </g>
      <g transform="matrix(-0.12439,0.859351,0.653902,2.23213,6208.25,-6918.99)">
            <path d="M5072.97,1468.46L2309.21,2532.49" style="fill:none;stroke:rgb(51,204,123);stroke-width:5.64px;"/>
        </g>
      <g transform="matrix(-0.0786459,0.543326,0.41343,1.41126,7677.76,-4106.81)">
            <path d="M5072.97,1468.46L2309.21,2532.49" style="fill:none;stroke:rgb(51,204,123);stroke-width:8.91px;"/>
        </g>
      <g transform="matrix(0.514797,0.328468,0.235689,1.5166,5585.3,-1653.03)">
            <path d="M5661.15,1182.9L2017.01,2563.03" style="fill:none;stroke:rgb(13,202,242);stroke-width:8.87px;"/>
        </g>
      <g transform="matrix(0.514797,-0.328468,0.235689,-1.5166,5585.3,6550.1)">
            <path d="M5661.15,1182.9L2017.01,2563.03" style="fill:none;stroke:rgb(13,202,242);stroke-width:8.87px;"/>
        </g>
      <g transform="matrix(0.39926,-0.254812,0.183212,-1.17586,5952.84,5528.21)">
            <path d="M4552.2,1247.61L2017.01,2563.03" style="fill:none;stroke:rgb(13,202,242);stroke-width:11.44px;"/>
        </g>
      <g transform="matrix(0.399295,0.254772,0.182809,1.17633,6731.09,-631.155)">
            <path d="M4563.09,1248.56L2022.24,2564.9" style="fill:none;stroke:rgb(13,202,242);stroke-width:11.44px;"/>
        </g>
      <g transform="matrix(0.899382,0,0,0.899382,727.276,228.818)">
            <path d="M8966.07,2980.15L7214.18,2980.15L7214.18,1955.41L8966.07,1955.41L8966.07,2980.15ZM8952.17,1969.31L7228.08,1969.31L7228.08,2966.25L8952.17,2966.25L8952.17,1969.31Z" style="fill:rgb(13,202,242);"/>
        </g>
    </g>
</svg>
