<?xml version="1.0" encoding="UTF-8" standalone="no"?>
<!DOCTYPE svg PUBLIC "-//W3C//DTD SVG 1.1//EN" "http://www.w3.org/Graphics/SVG/1.1/DTD/svg11.dtd">
<svg width="226" height="168" viewBox="0 0 1362 892" version="1.1" xmlns="http://www.w3.org/2000/svg" xmlns:xlink="http://www.w3.org/1999/xlink" xml:space="preserve" xmlns:serif="http://www.serif.com/" style="fill-rule:evenodd;clip-rule:evenodd;stroke-linecap:round;stroke-linejoin:round;stroke-miterlimit:1.5;">
    <path d="M1223.8,51.105l6.664,-1.272c2.166,11.351 9.309,21.132 19.463,26.65c7.461,4.055 16.053,5.533 24.44,4.205l1.061,6.701c-9.863,1.562 -19.966,-0.176 -28.741,-4.944c-11.94,-6.489 -20.34,-17.992 -22.887,-31.34Z" style="fill:#ff7bac;"/>
  <path d="M90.774,377.278l0.19,-6.782c10.597,0.298 20.85,-3.781 28.346,-11.278c10.553,-10.553 14.068,-26.249 9.024,-40.295l6.385,-2.293c5.932,16.518 1.799,34.975 -10.611,47.386c-8.816,8.815 -20.872,13.612 -33.334,13.262Z" style="fill:#ff7bac;"/>
  <path d="M94.036,734.733l44.726,0.455" style="fill:none;stroke:#96f;stroke-width:12.5px;"/>
  <path d="M485.431,286.667l-43.68,9.626" style="fill:none;stroke:#96f;stroke-width:12.5px;"/>
  <path d="M575.908,742.406l30.722,-32.509" style="fill:none;stroke:#96f;stroke-width:12.5px;"/>
  <path d="M139.166,735.691l0,45.106" style="fill:none;stroke:#96f;stroke-width:12.5px;"/>
  <path d="M441.244,295.894l-10.156,-43.948" style="fill:none;stroke:#96f;stroke-width:12.5px;"/>
  <path d="M607.273,709.943l33.097,30.646" style="fill:none;stroke:#96f;stroke-width:12.5px;"/>
  <path d="M1267.4,734.048l-44.726,0.455" style="fill:none;stroke:#96f;stroke-width:12.5px;"/>
  <path d="M1222.27,735.006l0,45.107" style="fill:none;stroke:#96f;stroke-width:12.5px;"/>
  <g transform="matrix(50,0,0,50,130.141,415.76)">
    </g>
  <text x="102.333px" y="415.76px" style="font-family:'ArialMT', 'Arial', sans-serif;font-size:50px;fill:#ff7bac;">1</text>
  <g transform="matrix(50,0,0,50,170.375,362.306)">
    </g>
  <text x="142.567px" y="362.306px" style="font-family:'ArialMT', 'Arial', sans-serif;font-size:50px;fill:#ff7bac;">2</text>
  <g transform="matrix(50,0,0,50,1213.14,102.998)">
    </g>
  <text x="1185.33px" y="102.998px" style="font-family:'ArialMT', 'Arial', sans-serif;font-size:50px;fill:#ff7bac;">3</text>
  <g transform="matrix(50,0,0,50,1256.89,127.037)">
    </g>
  <text x="1229.08px" y="127.037px" style="font-family:'ArialMT', 'Arial', sans-serif;font-size:50px;fill:#ff7bac;">4</text>
  <g transform="matrix(100,0,0,100,739.897,155.678)">
    </g>
  <text x="684.282px" y="155.678px" style="font-family:'ArialMT', 'Arial', sans-serif;font-size:100px;fill:#33cc7b;">8</text>
  <g transform="matrix(100,0,0,100,805.308,877.062)">
    </g>
  <text x="749.693px" y="877.062px" style="font-family:'ArialMT', 'Arial', sans-serif;font-size:100px;fill:#33cc7b;">6</text>
  <g transform="matrix(100,0,0,100,66.8457,354.117)">
    </g>
  <text x="0.146px" y="354.117px" style="font-family:'ArialMT', 'Arial', sans-serif;font-size:100px;fill:#8dcc33;">A</text>
  <g transform="matrix(100,0,0,100,503.429,220.366)">
    </g>
  <text x="442.345px" y="220.366px" style="font-family:'ArialMT', 'Arial', sans-serif;font-size:100px;fill:#8dcc33;">F</text>
  <g transform="matrix(100,0,0,100,66.2616,822.749)">
    </g>
  <text x="-0.438px" y="822.749px" style="font-family:'ArialMT', 'Arial', sans-serif;font-size:100px;fill:#8dcc33;">B</text>
  <g transform="matrix(100,0,0,100,644.478,891.151)">
    </g>
  <text x="577.779px" y="891.151px" style="font-family:'ArialMT', 'Arial', sans-serif;font-size:100px;fill:#8dcc33;">E</text>
  <g transform="matrix(100,0,0,100,1365.27,820.371)">
    </g>
  <text x="1293.05px" y="820.371px" style="font-family:'ArialMT', 'Arial', sans-serif;font-size:100px;fill:#8dcc33;">C</text>
  <g transform="matrix(100,0,0,100,1362.93,71.582)">
    </g>
  <text x="1290.72px" y="71.582px" style="font-family:'ArialMT', 'Arial', sans-serif;font-size:100px;fill:#8dcc33;">D</text>
  <path d="M88.624,788.403l0,-458.876" style="fill:none;stroke:#0dcaf2;stroke-width:12.5px;"/>
  <path d="M88.624,788.403l0,-458.876" style="fill:none;stroke:#0dcaf2;stroke-width:12.5px;"/>
  <path d="M92.158,788.23l1175.16,-0" style="fill:none;stroke:#33cc7b;stroke-width:12.5px;"/>
  <path d="M1271.66,788.289l-0,-747.869" style="fill:none;stroke:#0dcaf2;stroke-width:12.5px;"/>
  <path d="M1264.61,48.121l-649.79,734.811" style="fill:none;stroke:#0dcaf2;stroke-width:12.5px;"/>
  <path d="M330.478,-1615.76l1039.55,0" style="fill:none;stroke:#33cc7b;stroke-width:12.5px;"/>
  <path d="M-1042.98,-940.767l1209.21,-0" style="fill:none;stroke:#0dcaf2;stroke-width:12.5px;"/>
  <path d="M570.699,-940.767l1209.22,-0" style="fill:none;stroke:#8dcc33;stroke-width:12.5px;"/>
  <path d="M477.72,236.743l134.043,548.166" style="fill:none;stroke:#ff7bac;stroke-width:12.5px;"/>
  <path d="M89.321,329.213l522.442,455.696" style="fill:none;stroke:#0dcaf2;stroke-width:12.5px;"/>
  <path d="M89.321,329.213l1182.34,-288.793" style="fill:none;stroke:#33cc7b;stroke-width:12.5px;"/>
</svg>
