<?xml version="1.0" encoding="UTF-8" standalone="no"?>
<!DOCTYPE svg PUBLIC "-//W3C//DTD SVG 1.1//EN" "http://www.w3.org/Graphics/SVG/1.1/DTD/svg11.dtd">
<svg width="175" height="260" viewBox="0 0 753 1061" version="1.1" xmlns="http://www.w3.org/2000/svg" xmlns:xlink="http://www.w3.org/1999/xlink" xml:space="preserve" xmlns:serif="http://www.serif.com/" style="fill-rule:evenodd;clip-rule:evenodd;stroke-linecap:round;stroke-linejoin:round;stroke-miterlimit:1.5;">
    <g transform="matrix(75,0,0,75,388.29,714.369)">
    </g>
  <text x="194.945px" y="714.369px" style="font-family:'ArialMT', 'Arial', sans-serif;font-size:75px;fill:#f60;">5</text>
  <g transform="matrix(75,0,0,75,466.826,286.871)">
    </g>
  <text x="425.114px" y="286.871px" style="font-family:'ArialMT', 'Arial', sans-serif;font-size:75px;fill:#90c;">2</text>
  <g transform="matrix(75,0,0,75,533.038,590.867)">
    </g>
  <text x="491.326px" y="590.867px" style="font-family:'ArialMT', 'Arial', sans-serif;font-size:75px;fill:#0fc;">3</text>
  <g transform="matrix(75,0,0,75,672.853,898.344)">
    </g>
  <text x="631.142px" y="898.344px" style="font-family:'ArialMT', 'Arial', sans-serif;font-size:75px;fill:#fc0;">2</text>
  <g transform="matrix(75,0,0,75,551.659,451.366)">
    </g>
  <text x="468.237px" y="451.366px" style="font-family:'ArialMT', 'Arial', sans-serif;font-size:75px;fill:#f33;">12</text>
  <g transform="matrix(107.552,0,0,107.552,633,76.9876)">
    </g>
  <text x="555.33px" y="76.988px" style="font-family:'ArialMT', 'Arial', sans-serif;font-size:107.552px;fill:#8dcc33;">D</text>
  <g transform="matrix(107.552,0,0,107.552,390.167,413.826)">
    </g>
  <text x="318.431px" y="413.826px" style="font-family:'ArialMT', 'Arial', sans-serif;font-size:107.552px;fill:#8dcc33;">A</text>
  <g transform="matrix(107.552,0,0,107.552,63.8588,1057.84)">
    </g>
  <text x="-7.877px" y="1057.84px" style="font-family:'ArialMT', 'Arial', sans-serif;font-size:107.552px;fill:#8dcc33;">B</text>
  <g transform="matrix(107.552,0,0,107.552,756.54,1059.15)">
    </g>
  <text x="678.869px" y="1059.15px" style="font-family:'ArialMT', 'Arial', sans-serif;font-size:107.552px;fill:#8dcc33;">C</text>
  <g transform="matrix(107.552,0,0,107.552,658.379,799.591)">
    </g>
  <text x="586.642px" y="799.591px" style="font-family:'ArialMT', 'Arial', sans-serif;font-size:107.552px;fill:#8dcc33;">E</text>
  <path d="M405.95,423.717l153.129,338.38" style="fill:none;stroke:#0fc;stroke-width:12.5px;"/>
  <path d="M561.72,767.933l103.986,229.784" style="fill:none;stroke:#fc0;stroke-width:12.5px;"/>
  <path d="M576.854,110.073l-15.134,652.024" style="fill:none;stroke:#0dcaf2;stroke-width:12.5px;"/>
  <path d="M84.176,1005.02l318.103,-581.304" style="fill:none;stroke:#f60;stroke-width:12.5px;"/>
  <path d="M405.95,417.008l170.904,-312.312" style="fill:none;stroke:#90c;stroke-width:12.5px;"/>
  <path d="M84.176,1005.02l581.53,-7.304" style="fill:none;stroke:#0dcaf2;stroke-width:12.5px;"/>
  <path d="M430.074,461.025l-3.983,-5.297c9.402,-7.127 14.928,-18.271 14.928,-30.1c0,-12.491 -6.159,-24.173 -16.449,-31.194l3.715,-5.489c12.1,8.256 19.344,21.993 19.344,36.683c0,13.911 -6.499,27.015 -17.555,35.397Z" style="fill:#ff7bac;"/>
  <path d="M378.106,480.291l3.643,-5.538c6.141,4.071 13.338,6.242 20.697,6.242c6.912,-0 13.689,-1.915 19.587,-5.534l3.446,5.664c-6.935,4.255 -14.905,6.507 -23.033,6.507c-8.654,-0 -17.118,-2.553 -24.34,-7.341Z" style="fill:#ff7bac;"/>
  <circle cx="402.279" cy="424.871" r="10.862" style="fill:#ff0;"/>
  <path d="M402.279,414.008c5.995,0 10.862,4.867 10.862,10.863c0,5.995 -4.867,10.862 -10.862,10.862c-5.995,-0 -10.863,-4.867 -10.863,-10.862c0,-5.996 4.868,-10.863 10.863,-10.863Zm-0,1.808c-0.253,0.008 -3.424,-0.126 -6.166,2.427c-5.405,5.031 -2.785,14.039 4.341,15.498c7.336,1.503 13.213,-6.101 9.987,-12.793c-0.729,-1.512 -1.878,-2.803 -3.285,-3.706c-2.304,-1.477 -4.506,-1.417 -4.877,-1.426Z" style="fill:#f33;"/>
  <circle cx="559.079" cy="761.097" r="10.862" style="fill:#ff0;"/>
  <path d="M559.079,750.235c5.995,0 10.863,4.867 10.863,10.862c-0,5.995 -4.868,10.863 -10.863,10.863c-5.995,-0 -10.862,-4.868 -10.862,-10.863c0,-5.995 4.867,-10.862 10.862,-10.862Zm0,1.808c-0.253,0.008 -3.424,-0.126 -6.166,2.427c-5.404,5.031 -2.784,14.039 4.341,15.498c7.337,1.502 13.214,-6.101 9.988,-12.793c-0.729,-1.512 -1.879,-2.804 -3.286,-3.706c-2.303,-1.477 -4.505,-1.417 -4.877,-1.426Z" style="fill:#f33;"/>
</svg>
