<?xml version="1.0" encoding="UTF-8" standalone="no"?>
<!DOCTYPE svg PUBLIC "-//W3C//DTD SVG 1.1//EN" "http://www.w3.org/Graphics/SVG/1.1/DTD/svg11.dtd">
<svg width="268" height="240" viewBox="0 0 836 730" version="1.1" xmlns="http://www.w3.org/2000/svg" xmlns:xlink="http://www.w3.org/1999/xlink" xml:space="preserve" xmlns:serif="http://www.serif.com/" style="fill-rule:evenodd;clip-rule:evenodd;stroke-linecap:round;stroke-linejoin:round;stroke-miterlimit:1.5;">
    <g transform="matrix(66.6667,0,0,66.6667,603.85,715.406)">
    </g>
  <text x="248.055px" y="715.406px" style="font-family:'ArialMT', 'Arial', sans-serif;font-size:66.667px;fill:#1e3a5f;">Figure 2–15</text>
  <path d="M45.123,586.782l764.078,0" style="fill:none;stroke:#0dcaf2;stroke-width:6.25px;"/>
  <path d="M45.098,291.924l587.999,-0" style="fill:none;stroke:#8dcc33;stroke-width:6.25px;"/>
  <path d="M45.128,586.812l446.772,-524.403" style="fill:none;stroke:#8dcc33;stroke-width:6.25px;"/>
  <path d="M45.119,55.521l-0,531.265" style="fill:none;stroke:#0dcaf2;stroke-width:6.25px;"/>
  <path d="M659.705,289.007c-0,1.128 1.187,1.786 3.56,1.974c0.929,-0 1.393,0.258 1.393,0.775c0,0.047 -0.051,0.353 -0.155,0.917c-0.154,0.658 -0.309,1.081 -0.464,1.269c-0.155,0.188 -0.49,0.282 -1.006,0.282l-0.929,-0c-0.516,-0 -1.393,-0.024 -2.631,-0.071c-1.239,-0.047 -2.89,-0.07 -4.954,-0.07c-3.663,-0 -6.011,0.047 -7.043,0.141l-0.619,-0c-0.361,-0.329 -0.542,-0.588 -0.542,-0.776c0.103,-1.269 0.439,-2.091 1.006,-2.467l1.084,-0c3.612,-0.141 6.243,-1.316 7.894,-3.525c0.31,-0.282 4.98,-7.449 14.009,-21.501c9.03,-14.052 13.622,-21.172 13.777,-21.36c0.361,-0.564 0.98,-0.846 1.857,-0.846l1.935,0c0.31,0.423 0.465,0.658 0.465,0.705l2.167,22.77c1.445,15.18 2.219,22.841 2.322,22.982c0.258,0.516 1.935,0.775 5.031,0.775c1.29,-0 1.934,0.235 1.934,0.705c0,0.094 -0.077,0.423 -0.232,0.987c-0.155,0.705 -0.283,1.128 -0.387,1.269c-0.103,0.141 -0.464,0.235 -1.083,0.282l-1.084,-0c-0.567,-0 -1.574,-0.024 -3.018,-0.071c-1.445,-0.047 -3.328,-0.07 -5.65,-0.07c-4.85,-0 -8.024,0.047 -9.52,0.141l-0.929,-0c-0.309,-0.282 -0.464,-0.494 -0.464,-0.635c-0,-0.141 0.051,-0.564 0.155,-1.269c0.206,-0.611 0.361,-0.987 0.464,-1.128l0.31,-0.211l1.547,-0c2.787,-0.141 4.438,-0.541 4.954,-1.198l-0.929,-10.575l-18.42,0l-2.632,4.089c-2.115,3.243 -3.173,5.146 -3.173,5.71Zm23.838,-13.112c0,-0.517 -0.309,-4.183 -0.929,-10.997c-0.619,-6.815 -0.98,-10.245 -1.083,-10.292l-2.09,3.031c-0.826,1.269 -2.451,3.783 -4.876,7.543l-6.966,10.715l7.972,0.071c5.315,-0 7.972,-0.024 7.972,-0.071Z" style="fill:#8dcc33;fill-rule:nonzero;stroke:#1e3a5f;stroke-width:0.57px;stroke-linecap:butt;stroke-linejoin:miter;stroke-miterlimit:4;"/>
  <path d="M510.969,4.586c-1.464,-0 -2.331,-0.025 -2.602,-0.075c-0.271,-0.049 -0.406,-0.322 -0.406,-0.817c-0,-1.336 0.298,-2.153 0.894,-2.45c0.054,-0.05 3.577,-0.075 10.569,-0.075c14.037,0 21.435,0.05 22.194,0.149c3.415,0.495 6.26,1.609 8.537,3.342c2.276,1.733 3.441,4.01 3.495,6.832c0,3.169 -1.571,6.016 -4.715,8.541c-3.143,2.525 -6.748,4.233 -10.813,5.125l-0.813,0.222c3.469,0.446 6.315,1.585 8.537,3.417c2.222,1.832 3.36,4.109 3.414,6.832c0,3.615 -1.951,7.105 -5.853,10.472c-3.902,3.367 -8.699,5.273 -14.39,5.719c-0.379,0.049 -6.097,0.074 -17.154,0.074c-10.84,0 -16.341,-0.049 -16.504,-0.149c-0.216,-0.148 -0.325,-0.346 -0.325,-0.594c0,-0.346 0.054,-0.693 0.163,-1.039c0.271,-0.941 0.542,-1.461 0.813,-1.56c0.217,-0.05 0.623,-0.074 1.219,-0.074l0.488,-0c1.463,-0 3.089,-0.075 4.878,-0.223c0.759,-0.149 1.274,-0.446 1.545,-0.891c0.162,-0.198 2.113,-7.08 5.853,-20.647c3.74,-13.566 5.61,-20.72 5.61,-21.463c-0,-0.347 -1.545,-0.569 -4.634,-0.668Zm33.983,6.906c-0,-1.485 -0.407,-2.871 -1.22,-4.159c-0.813,-1.287 -2.141,-2.129 -3.984,-2.525c-0.379,-0.099 -2.872,-0.173 -7.479,-0.222l-3.415,-0c-1.192,-0 -2.14,0.024 -2.845,0.074l-1.057,-0c-0.813,0.049 -1.328,0.297 -1.545,0.743c-0.108,0.198 -0.975,3.168 -2.601,8.912c-0,0.148 -0.027,0.297 -0.081,0.445l-2.521,9.358l6.585,-0c4.391,-0 6.911,-0.05 7.561,-0.149c3.252,-0.495 6.152,-1.931 8.699,-4.307c2.548,-2.377 3.848,-5.1 3.903,-8.17Zm-4.391,23.395c0,-2.179 -0.623,-3.986 -1.869,-5.422c-1.247,-1.436 -2.873,-2.277 -4.878,-2.525c-0.326,-0.049 -2.575,-0.074 -6.748,-0.074c-6.396,-0 -9.621,0.025 -9.675,0.074c0,0.099 -0.46,1.906 -1.382,5.422c-0.921,3.515 -1.87,7.006 -2.845,10.471l-1.464,5.199c0,0.198 0.326,0.297 0.976,0.297c0.65,0 2.845,0.05 6.585,0.149c4.824,-0 7.425,-0.025 7.805,-0.075c3.36,-0.346 6.45,-1.782 9.268,-4.307c2.818,-2.525 4.227,-5.595 4.227,-9.209Z" style="fill:#8dcc33;fill-rule:nonzero;stroke:#1e3a5f;stroke-width:0.57px;stroke-linecap:butt;stroke-linejoin:miter;stroke-miterlimit:4;"/>
  <path d="M45.094,29.784l11.443,32.887l-11.255,-8.408l-11.631,8.408l11.443,-32.887Z" style="fill:#0dcaf2;"/>
  <path d="M835.685,586.747l-32.888,11.443l8.408,-11.254l-8.408,-11.631l32.888,11.442Z" style="fill:#0dcaf2;"/>
  <g>
        <path id="MJX-214-NCM-I-1D460" d="M26.49,38.564c-0,-4.103 -4.175,-6.334 -8.638,-6.334c-4.535,-0 -7.774,1.367 -9.718,4.103c-1.656,2.375 -2.519,4.535 -2.519,6.478c-0,3.815 2.519,6.263 7.486,7.342c2.087,0.36 3.671,0.864 4.895,1.44c1.511,0.648 2.231,1.872 2.231,3.599c0,1.296 -0.576,2.736 -1.799,4.391c-1.512,2.088 -4.175,3.167 -7.99,3.167c-3.888,0 -6.407,-1.079 -7.559,-3.167c2.304,0.072 4.247,-1.799 4.247,-4.103c0,-1.799 -0.935,-2.735 -2.879,-2.735c-2.591,-0 -4.247,2.375 -4.247,4.967c0,4.75 5.183,7.126 10.366,7.126c5.398,-0 9.285,-1.584 11.589,-4.823c1.943,-2.663 2.879,-5.039 2.879,-7.198c0,-3.095 -1.512,-5.399 -4.463,-6.911c-2.231,-0.791 -3.959,-1.295 -5.039,-1.511c-2.519,-0.648 -5.11,-0.864 -5.11,-3.959c-0,-3.815 3.599,-6.119 7.63,-6.119c3.023,0 4.967,0.936 5.902,2.736c-1.583,0.287 -3.239,1.655 -3.239,3.455c0,1.511 0.792,2.303 2.448,2.303c2.231,0 3.527,-2.015 3.527,-4.247Z" style="fill:#0dcaf2;fill-rule:nonzero;"/>
    </g>
  <g>
        <path id="MJX-214-NCM-I-1D461" d="M829.052,619.861c0,-0.648 -0.72,-1.008 -2.231,-1.008l-5.831,-0c1.872,-7.486 2.807,-11.373 2.807,-11.661c0,-1.512 -0.791,-2.232 -2.303,-2.232c-1.656,0 -2.663,0.936 -3.095,2.807l-2.664,11.086l-6.406,-0c-1.584,-0 -2.375,0.072 -2.375,1.583c-0,0.792 0.719,1.152 2.231,1.152l5.831,0c-3.528,14.037 -5.255,21.451 -5.255,22.387c-0,4.031 2.735,6.838 6.766,6.838c2.736,0 5.111,-1.224 7.199,-3.743c1.727,-2.087 2.951,-4.103 3.743,-6.046c0.288,-0.792 0.432,-1.224 0.432,-1.44c-0,-0.648 -0.36,-1.008 -1.08,-1.008c-0.576,0 -1.008,0.36 -1.296,1.152c-2.447,5.974 -5.399,8.926 -8.926,8.926c-1.223,-0 -1.871,-1.008 -1.871,-2.952c-0,-1.079 0.144,-2.231 0.432,-3.383l5.11,-20.731l6.407,0c1.871,0 2.375,-0.144 2.375,-1.727Z" style="fill:#0dcaf2;fill-rule:nonzero;"/>
    </g>
  <g>
        <g>
            <path id="MJX-223-NCM-I-1D442" d="M38.621,610.194c1.064,-2.425 1.617,-4.851 1.617,-7.319c0,-3.319 -0.978,-6.042 -2.978,-8.212c-2,-2.17 -4.638,-3.276 -7.915,-3.276c-2.255,-0 -4.51,0.553 -6.766,1.659c-4.595,2.255 -7.957,5.83 -10.127,10.681c-1.064,2.382 -1.617,4.765 -1.617,7.191c0,3.361 0.979,6.085 2.979,8.212c2,2.128 4.638,3.192 7.957,3.192c2.213,-0 4.425,-0.554 6.68,-1.617c4.639,-2.256 8,-5.787 10.17,-10.511m-2.468,-8.978c0,5.659 -2.553,11.319 -5.276,14.68c-1.872,2.341 -5.106,4.979 -8.851,4.979c-4.553,-0 -6.936,-3.957 -6.936,-8.766c0,-1.489 0.298,-3.489 0.851,-5.914c1.149,-5.022 4.043,-9.447 7.83,-11.745c1.83,-1.106 3.617,-1.659 5.319,-1.659c4.595,-0 7.063,3.659 7.063,8.425Z" style="fill:#0dcaf2;fill-rule:nonzero;stroke:#1e3a5f;stroke-width:0.42px;stroke-linecap:butt;stroke-miterlimit:2;"/>
        </g>
    </g>
  <path d="M36.255,586.774c0,-4.889 3.969,-8.858 8.858,-8.858c4.889,-0 8.859,3.969 8.859,8.858c-0,4.889 -3.97,8.858 -8.859,8.858c-4.889,0 -8.858,-3.969 -8.858,-8.858Z" style="fill:#4cc1a1;"/>
  <path d="M36.255,291.94c0,-4.889 3.969,-8.859 8.858,-8.859c4.889,0 8.859,3.97 8.859,8.859c-0,4.889 -3.97,8.858 -8.859,8.858c-4.889,-0 -8.858,-3.969 -8.858,-8.858Z" style="fill:#4cc1a1;"/>
  <g transform="matrix(58.3333,0,0,58.3333,440.786,104.975)">
    </g>
  <text x="246.275px" y="104.975px" style="font-family:'ArialMT', 'Arial', sans-serif;font-size:58.333px;fill:#9370db;">uniform</text>
  <g transform="matrix(58.3333,0,0,58.3333,633.497,279.287)">
    </g>
  <text x="471.399px" y="279.287px" style="font-family:'ArialMT', 'Arial', sans-serif;font-size:58.333px;fill:#9370db;">at rest</text>
</svg>
