<?xml version="1.0" encoding="UTF-8" standalone="no"?>
<!DOCTYPE svg PUBLIC "-//W3C//DTD SVG 1.1//EN" "http://www.w3.org/Graphics/SVG/1.1/DTD/svg11.dtd">
<svg width="256" height="186" viewBox="0 0 1347 926" version="1.1" xmlns="http://www.w3.org/2000/svg" xmlns:xlink="http://www.w3.org/1999/xlink" xml:space="preserve" xmlns:serif="http://www.serif.com/" style="fill-rule:evenodd;clip-rule:evenodd;stroke-linecap:round;stroke-linejoin:round;stroke-miterlimit:1.5;">
    <g transform="matrix(100,0,0,100,1350.14,78.5448)">
    </g>
  <text x="1277.92px" y="78.545px" style="font-family:'ArialMT', 'Arial', sans-serif;font-size:100px;fill:#8dcc33;">C</text>
  <g transform="matrix(100,0,0,100,291.722,71.582)">
    </g>
  <text x="219.505px" y="71.582px" style="font-family:'ArialMT', 'Arial', sans-serif;font-size:100px;fill:#8dcc33;">D</text>
  <g transform="matrix(100,0,0,100,66.8457,781.858)">
    </g>
  <text x="0.146px" y="781.858px" style="font-family:'ArialMT', 'Arial', sans-serif;font-size:100px;fill:#8dcc33;">A</text>
  <g transform="matrix(100,0,0,100,1110.97,786.02)">
    </g>
  <text x="1044.27px" y="786.02px" style="font-family:'ArialMT', 'Arial', sans-serif;font-size:100px;fill:#8dcc33;">B</text>
  <g transform="matrix(62.5,0,0,62.5,572.507,143.629)">
    </g>
  <text x="530.82px" y="143.629px" style="font-family:'ArialMT', 'Arial', sans-serif;font-size:62.5px;fill:#8dcc33;">P</text>
  <path d="M74.95,743.791l231.965,-700.958" style="fill:none;stroke:#0dcaf2;stroke-width:12.5px;"/>
  <path d="M1029.07,743.459l231.965,-700.958" style="fill:none;stroke:#0dcaf2;stroke-width:12.5px;"/>
  <path d="M1027.04,744.741l-952.518,0" style="fill:none;stroke:#0dcaf2;stroke-width:12.5px;"/>
  <path d="M1260.19,42.403l-952.518,-0" style="fill:none;stroke:#0dcaf2;stroke-width:12.5px;"/>
  <path d="M1260.19,42.403l-720.954,115.365" style="fill:none;stroke:#0dcaf2;stroke-width:8.33px;"/>
  <path d="M1260.19,42.403l-1180.78,699.237" style="fill:none;stroke:#0dcaf2;stroke-width:8.33px;"/>
  <path d="M311.974,48.327l225.891,108.92" style="fill:none;stroke:#0dcaf2;stroke-width:8.33px;"/>
  <path d="M83.33,738.373l453.656,-580.624" style="fill:none;stroke:#0dcaf2;stroke-width:8.33px;"/>
  <path d="M1024.26,738.765l-485.709,-578.132" style="fill:none;stroke:#0dcaf2;stroke-width:8.33px;"/>
  <g transform="matrix(100,0,0,100,845.881,904.691)">
    </g>
  <text x="312.189px" y="904.691px" style="font-family:'ArialMT', 'Arial', sans-serif;font-size:100px;fill:#1e3a5f;">Figure 6–31</text>
  <path d="M347.516,-1684.36l1039.55,-0" style="fill:none;stroke:#33cc7b;stroke-width:12.5px;"/>
  <path d="M-1025.95,-1009.37l1209.21,0" style="fill:none;stroke:#0dcaf2;stroke-width:12.5px;"/>
  <path d="M587.737,-1009.37l1209.22,0" style="fill:none;stroke:#8dcc33;stroke-width:12.5px;"/>
</svg>
