<?xml version="1.0" encoding="UTF-8" standalone="no"?>
<!DOCTYPE svg PUBLIC "-//W3C//DTD SVG 1.1//EN" "http://www.w3.org/Graphics/SVG/1.1/DTD/svg11.dtd">
<svg width="356" height="68" viewBox="0 0 962 87" version="1.1" xmlns="http://www.w3.org/2000/svg" xmlns:xlink="http://www.w3.org/1999/xlink" xml:space="preserve" xmlns:serif="http://www.serif.com/" style="fill-rule:evenodd;clip-rule:evenodd;stroke-linecap:round;stroke-linejoin:round;stroke-miterlimit:1.5;">
    <path d="M-211.593,-868.997l313.099,-0" style="fill:none;stroke:#8dcc33;stroke-width:8.33px;stroke-dasharray:12.5,16.67,0,0,0,0;"/>
  <path d="M502.187,-845.651l264.924,0" style="fill:none;stroke:#ff822e;stroke-width:6.25px;"/>
  <path d="M765.126,-1213.24l-254.083,367.548" style="fill:none;stroke:#0dcaf2;stroke-width:6.25px;"/>
  <path d="M532.728,-877.062l-19.704,28.503" style="fill:none;stroke:#0dcaf2;stroke-width:6.25px;"/>
  <g transform="matrix(66.6667,0,0,66.6667,256.981,59.1338)">
    </g>
  <text x="68.016px" y="59.134px" style="font-family:'ArialMT', 'Arial', sans-serif;font-size:66.667px;fill:#f20d5e;">drama</text>
  <g transform="matrix(66.6667,0,0,66.6667,512.888,59.1338)">
    </g>
  <text x="323.923px" y="59.134px" style="font-family:'ArialMT', 'Arial', sans-serif;font-size:66.667px;fill:#f20d5e;">drama</text>
  <g transform="matrix(66.6667,0,0,66.6667,701.813,59.1338)">
    </g>
  <text x="579.514px" y="59.134px" style="font-family:'ArialMT', 'Arial', sans-serif;font-size:66.667px;fill:#f20d5e;">solo</text>
  <g transform="matrix(66.6667,0,0,66.6667,892.325,59.1338)">
    </g>
  <text x="770.027px" y="59.134px" style="font-family:'ArialMT', 'Arial', sans-serif;font-size:66.667px;fill:#f20d5e;">solo</text>
  <path d="M259.753,81.97l61.311,-0" style="fill:none;stroke:#0dcaf2;stroke-width:8.33px;"/>
  <path d="M4.167,81.97l61.311,-0" style="fill:none;stroke:#0dcaf2;stroke-width:8.33px;"/>
  <path d="M515.248,82.137l61.311,0" style="fill:none;stroke:#0dcaf2;stroke-width:8.33px;"/>
  <path d="M704.814,82.137l61.311,0" style="fill:none;stroke:#0dcaf2;stroke-width:8.33px;"/>
  <path d="M895.945,82.137l61.311,0" style="fill:none;stroke:#0dcaf2;stroke-width:8.33px;"/>
  <g transform="matrix(100,0,0,100,59.5254,72.8027)">
    </g>
  <text x="3.91px" y="72.803px" style="font-family:'ArialMT', 'Arial', sans-serif;font-size:100px;fill:#8dcc33;">?</text>
  <g transform="matrix(100,0,0,100,317.587,72.8027)">
    </g>
  <text x="261.972px" y="72.803px" style="font-family:'ArialMT', 'Arial', sans-serif;font-size:100px;fill:#8dcc33;">?</text>
  <g transform="matrix(100,0,0,100,572.657,72.8027)">
    </g>
  <text x="517.042px" y="72.803px" style="font-family:'ArialMT', 'Arial', sans-serif;font-size:100px;fill:#8dcc33;">?</text>
  <g transform="matrix(100,0,0,100,763.387,72.8027)">
    </g>
  <text x="707.771px" y="72.803px" style="font-family:'ArialMT', 'Arial', sans-serif;font-size:100px;fill:#8dcc33;">?</text>
  <g transform="matrix(100,0,0,100,953.902,72.8027)">
    </g>
  <text x="898.287px" y="72.803px" style="font-family:'ArialMT', 'Arial', sans-serif;font-size:100px;fill:#8dcc33;">?</text>
</svg>
