<?xml version="1.0" encoding="UTF-8" standalone="no"?>
<!DOCTYPE svg PUBLIC "-//W3C//DTD SVG 1.1//EN" "http://www.w3.org/Graphics/SVG/1.1/DTD/svg11.dtd">
<svg width="196" height="168" viewBox="0 0 817 700" version="1.1" xmlns="http://www.w3.org/2000/svg" xmlns:xlink="http://www.w3.org/1999/xlink" xml:space="preserve" xmlns:serif="http://www.serif.com/" style="fill-rule:evenodd;clip-rule:evenodd;stroke-linecap:round;stroke-linejoin:round;stroke-miterlimit:1.5;">
    <text x="770.07px" y="123.681px" style="font-family:'ArialMT', 'Arial', sans-serif;font-size:67.326px;fill:#8dcc33;">C</text>
    <text x="-4.931px" y="131.168px" style="font-family:'ArialMT', 'Arial', sans-serif;font-size:67.326px;fill:#8dcc33;">B</text>
    <text x="615.127px" y="592.108px" style="font-family:'ArialMT', 'Arial', sans-serif;font-size:67.5px;fill:#8dcc33;">D</text>
    <text x="164.131px" y="602.821px" style="font-family:'ArialMT', 'Arial', sans-serif;font-size:67.326px;fill:#8dcc33;">A</text>
    <text x="378.9px" y="98.488px" style="font-family:'ArialMT', 'Arial', sans-serif;font-size:67.326px;fill:#8dcc33;">Q</text>
    <text x="382.321px" y="621.018px" style="font-family:'ArialMT', 'Arial', sans-serif;font-size:67.326px;fill:#8dcc33;">P</text>
    <text x="415.168px" y="341.828px" style="font-family:'ArialMT', 'Arial', sans-serif;font-size:67.5px;fill:#8dcc33;">O</text>
    <text x="192.287px" y="102.436px" style="font-family:'ArialMT', 'Arial', sans-serif;font-size:67.5px;fill:#8dcc33;">N</text>
    <text x="534.947px" y="548.924px" style="font-family:'ArialMT', 'Arial', sans-serif;font-size:67.5px;fill:#8dcc33;">M</text>
    <path d="M402.83,358.112l0.154,-4.461c4.523,0.172 9.004,-0.874 12.979,-3.03c0.326,-0.177 0.649,-0.361 0.967,-0.552l2.301,3.831c-0.375,0.224 -0.754,0.441 -1.138,0.649c-4.674,2.535 -9.944,3.766 -15.263,3.563Z" style="fill:#ff7bac;"/>
    <path d="M403.047,298.547l0.121,4.452c-4.025,0.123 -7.965,1.2 -11.497,3.141l-2.144,-3.899c4.153,-2.284 8.787,-3.55 13.52,-3.694Z" style="fill:#ff7bac;"/>
    <path d="M368.383,113.921l-0,31.166" style="fill:none;stroke:#96f;stroke-width:8.42px;"/>
    <path d="M368.383,145.087l30.614,0" style="fill:none;stroke:#96f;stroke-width:8.42px;"/>
    <path d="M603.27,559.717l158.571,-448.653" style="fill:none;stroke:#0dcaf2;stroke-width:8.42px;"/>
    <path d="M46.72,110.958l158.955,448.759" style="fill:none;stroke:#0dcaf2;stroke-width:8.42px;"/>
    <path d="M762.072,109.957l-715.671,-0" style="fill:none;stroke:#0dcaf2;stroke-width:8.42px;"/>
    <path d="M408.317,377.702c2.218,-5.552 2.668,-6.377 5.692,-13.376c0.102,-0.235 0.688,-1.591 2.31,-2.236c0.5,-0.2 1.048,-0.307 1.586,-0.301c1.77,0.021 2.82,1.105 3.001,1.293c0.177,0.182 1.192,1.232 1.172,2.946c-0.016,1.364 -0.281,1.317 -4.126,10.328c-1.62,3.795 -2.807,7.113 -3.174,7.716c-1.009,1.658 -2.649,1.921 -2.928,1.966c-0.278,0.044 -1.917,0.307 -3.395,-0.953c-1.154,-0.984 -1.376,-2.253 -1.415,-2.478c-0.048,-0.273 -0.088,-1.713 -0.063,-1.832c0.11,-0.542 0.119,-1.116 0.332,-1.627c0.264,-0.634 0.639,-1.104 1.008,-1.446Z" style="fill:#fc0;"/>
    <path d="M408.56,405.647l-0.078,0.1c1.574,-2.428 4.769,-10.659 16.008,-28.364c0.138,-0.218 0.931,-1.466 2.641,-1.846c0.526,-0.117 1.084,-0.136 1.614,-0.044c0.257,0.045 1.744,0.304 2.757,1.756c0.144,0.208 0.98,1.406 0.686,3.095c-0.223,1.28 -0.463,1.192 -4.164,7.288c-9.416,15.508 -11.288,21.719 -13.344,23.782c-0.216,0.217 -1.54,1.547 -3.609,1.281c-0.533,-0.068 -1.065,-0.239 -1.533,-0.506c-0.227,-0.129 -1.536,-0.875 -1.997,-2.586c-0.288,-1.065 -0.144,-1.489 -0.103,-1.612c0.519,-1.534 1.072,-1.256 1.591,-2.79c-0.147,0.122 -0.148,0.125 -0.284,0.247l-0.068,0.068l-0.074,0.08l-0.042,0.049l-0.001,0.002Z" style="fill:#fc0;"/>
    <path d="M415.341,439.835c-0.298,0.466 -0.513,0.999 -0.896,1.399c-0.175,0.183 -1.185,1.239 -2.899,1.284c-0.844,0.023 -0.854,0.025 -1.643,-0.278c-0.241,-0.093 -1.618,-0.622 -2.328,-2.224c-0.218,-0.492 -0.347,-1.035 -0.362,-1.573c-0.031,-1.161 0.074,-1.153 0.51,-2.228c4.648,-11.451 18.728,-29.961 26.261,-41.141c0.144,-0.214 0.968,-1.437 2.68,-1.773c0.527,-0.105 1.086,-0.111 1.614,-0.006c0.257,0.052 1.736,0.346 2.713,1.822c0.946,1.43 0.661,2.862 0.612,3.111c-0.226,1.135 -0.335,1.1 -0.983,2.058c-7.257,10.735 -21.216,29.174 -25.279,39.549Z" style="fill:#fc0;"/>
    <path d="M408.335,478.267c-0.228,-0.12 -1.535,-0.812 -2.049,-2.483c-0.158,-0.514 -0.222,-1.069 -0.173,-1.605c0.109,-1.188 0.236,-1.159 0.796,-2.213c6.735,-12.695 7.571,-12.446 37.907,-56.285c0.147,-0.211 0.988,-1.427 2.708,-1.74c0.529,-0.096 1.088,-0.094 1.614,0.018c1.731,0.37 2.546,1.64 2.687,1.86c0.926,1.443 0.621,2.871 0.568,3.119c-0.115,0.541 -0.376,1.048 -0.652,1.527c-0.215,0.371 -9.25,13.322 -10.056,14.478c-20.329,29.142 -21.599,30.115 -27.663,41.573c-0.121,0.228 -0.812,1.534 -2.483,2.049c-1.671,0.514 -2.977,-0.177 -3.204,-0.298Z" style="fill:#fc0;"/>
    <path d="M407.737,511.911c-0.22,-0.135 -1.484,-0.913 -1.89,-2.613c-0.125,-0.523 -0.154,-1.081 -0.069,-1.613c0.086,-0.547 0.329,-1.061 0.569,-1.56c0.18,-0.375 3.869,-6.228 4.209,-6.767c19.283,-30.598 40.634,-59.575 44.445,-64.772c0.152,-0.207 1.027,-1.4 2.756,-1.666c0.533,-0.081 1.091,-0.063 1.614,0.064c0.254,0.062 1.72,0.418 2.634,1.935c0.131,0.216 0.885,1.468 0.48,3.134c-0.131,0.537 -0.407,1.035 -0.696,1.508c-0.497,0.815 -25.861,34.563 -48.27,70.967c-0.136,0.219 -0.91,1.478 -2.608,1.883c-1.701,0.405 -2.955,-0.366 -3.174,-0.5Z" style="fill:#fc0;"/>
    <path d="M482.945,557.391c-0.216,-0.14 -1.455,-0.945 -1.819,-2.655c-0.111,-0.527 -0.125,-1.086 -0.029,-1.615c0.1,-0.545 0.353,-1.054 0.609,-1.545c0.381,-0.731 5.991,-8.841 12.15,-19.599c0.522,-0.911 8.611,-15.189 8.697,-15.287c0.366,-0.416 0.659,-0.909 1.099,-1.245c0.201,-0.155 1.36,-1.044 3.06,-0.828c0.26,0.033 1.756,0.224 2.833,1.628c1.044,1.361 0.86,2.81 0.828,3.062c-0.07,0.548 -0.294,1.072 -0.523,1.576c-0,0 -2.128,3.697 -4.774,8.37c-6.136,10.836 -7.316,13.041 -16.309,26.9c-0.14,0.217 -0.945,1.457 -2.656,1.821c-1.711,0.363 -2.95,-0.442 -3.166,-0.583Z" style="fill:#fc0;"/>
    <path d="M506.261,557.677c-0.227,-0.122 -1.529,-0.822 -2.032,-2.496c-0.155,-0.516 -0.215,-1.072 -0.163,-1.607c0.055,-0.551 0.284,-1.072 0.479,-1.591c0,-0 1.041,-1.939 1.784,-3.265c2.94,-5.25 4.087,-6.253 9.312,-12.08c0.173,-0.192 1.158,-1.292 2.901,-1.388c0.538,-0.03 1.092,0.042 1.601,0.219c1.671,0.582 2.322,1.944 2.434,2.179c0.739,1.547 0.259,2.927 0.175,3.167c-0.182,0.522 -0.526,0.975 -0.837,1.433c-0.352,0.517 -4.535,4.717 -6.439,7.575c-1.447,2.169 -3.463,6.079 -3.52,6.147c-0.354,0.425 -0.633,0.927 -1.063,1.275c-1.33,1.082 -2.784,0.938 -3.036,0.913c-0.84,-0.083 -0.851,-0.08 -1.596,-0.481Z" style="fill:#fc0;"/>
    <path d="M408.69,547.711c-0.236,-0.103 -1.59,-0.694 -2.228,-2.323c-0.196,-0.501 -0.301,-1.05 -0.292,-1.588c0.02,-1.165 0.131,-1.15 0.609,-2.213c1.143,-2.546 7.831,-18.32 47.852,-74.387c6.312,-8.845 11.197,-15.511 12.067,-16.7c0.151,-0.208 1.024,-1.401 2.751,-1.669c0.532,-0.082 1.091,-0.066 1.614,0.06c1.721,0.415 2.503,1.706 2.638,1.929c0.887,1.467 0.545,2.887 0.486,3.134c-0.13,0.538 -0.424,1.025 -0.693,1.509c-0.093,0.169 -48.666,66.016 -59.267,90.088c-0.697,1.583 -2.08,2.125 -2.319,2.218c-1.626,0.637 -2.982,0.045 -3.218,-0.058Z" style="fill:#fc0;"/>
    <path d="M423.724,557.152c-0.227,-0.123 -1.532,-0.83 -2.03,-2.506c-0.153,-0.516 -0.212,-1.072 -0.157,-1.607c0.056,-0.551 0.287,-1.071 0.483,-1.589c0.113,-0.299 2.287,-4.163 2.49,-4.523c15.467,-27.482 42.602,-64.055 52.656,-77.509c0.154,-0.206 1.039,-1.391 2.771,-1.64c0.532,-0.077 1.09,-0.055 1.612,0.077c0.254,0.064 1.716,0.433 2.617,1.957c0.129,0.218 0.872,1.476 0.453,3.138c-0.136,0.537 -0.427,1.026 -0.709,1.502c-0.365,0.614 -35.902,47.168 -53.206,78.65c-0.756,1.376 -1.282,2.355 -1.285,2.357c-0.355,0.424 -0.636,0.925 -1.067,1.273c-0.627,0.506 -1.308,0.709 -1.432,0.746c-1.676,0.497 -2.97,-0.204 -3.196,-0.326Z" style="fill:#fc0;"/>
    <path d="M449.183,558.044c-0.211,-0.146 -1.426,-0.988 -1.739,-2.708c-0.096,-0.53 -0.094,-1.089 0.019,-1.614c0.115,-0.542 0.378,-1.047 0.653,-1.527c0.231,-0.402 25.923,-37.074 39.173,-59.305c0.608,-1.02 0.599,-1.026 0.633,-1.063c0.371,-0.41 0.672,-0.898 1.116,-1.229c0.203,-0.152 1.375,-1.023 3.073,-0.782c1.752,0.249 2.653,1.459 2.809,1.669c0.152,0.203 1.024,1.375 0.783,3.072c-0.079,0.548 -0.32,1.063 -0.546,1.569c-0.139,0.308 -2.761,4.588 -3.004,4.985c-11.757,19.19 -30.544,46.376 -37.113,55.869c-0.147,0.212 -0.989,1.428 -2.71,1.74c-1.72,0.312 -2.935,-0.529 -3.147,-0.676Z" style="fill:#fc0;"/>
    <path d="M440.204,522.98l-30.614,-0" style="fill:none;stroke:#96f;stroke-width:8.42px;"/>
    <path d="M440.204,554.146l-0,-31.166" style="fill:none;stroke:#96f;stroke-width:8.42px;"/>
    <path d="M404.428,111.227l-0.19,447.44" style="fill:none;stroke:#0dcaf2;stroke-width:8.42px;"/>
    <path d="M603.27,559.717l-397.595,0" style="fill:none;stroke:#0dcaf2;stroke-width:8.42px;"/>
    <path d="M241.869,47.874l348.816,604.167" style="fill:none;stroke:#0dcaf2;stroke-width:8.42px;"/>
    <circle cx="404.529" cy="559.421" r="8.984" style="fill:#ff0;"/>
    <path d="M404.529,550.437c4.958,-0 8.984,4.025 8.984,8.984c-0,4.958 -4.026,8.984 -8.984,8.984c-4.958,-0 -8.984,-4.026 -8.984,-8.984c-0,-4.959 4.026,-8.984 8.984,-8.984Zm0.003,1.212l0,0.005c-7.365,0.139 -10.349,8.912 -5.154,13.578c3.752,3.37 10.038,2.312 12.27,-2.703c1.023,-2.298 0.841,-5.17 -0.627,-7.371c-2.432,-3.645 -6.31,-3.505 -6.489,-3.509Z" style="fill:#f33;"/>
    <circle cx="404.14" cy="328.029" r="8.984" style="fill:#ff0;"/>
    <path d="M404.14,319.045c4.958,0 8.984,4.026 8.984,8.984c-0,4.958 -4.026,8.984 -8.984,8.984c-4.958,0 -8.984,-4.026 -8.984,-8.984c-0,-4.958 4.026,-8.984 8.984,-8.984Zm0.003,1.213l-0,0.005c-7.366,0.139 -10.349,8.912 -5.155,13.577c3.753,3.371 10.039,2.312 12.271,-2.703c1.023,-2.298 0.841,-5.17 -0.627,-7.37c-2.432,-3.645 -6.311,-3.506 -6.489,-3.509Z" style="fill:#f33;"/>
    <circle cx="404.276" cy="108.903" r="8.984" style="fill:#ff0;"/>
    <path d="M404.276,99.919c4.958,-0 8.984,4.025 8.984,8.984c-0,4.958 -4.026,8.984 -8.984,8.984c-4.958,-0 -8.984,-4.026 -8.984,-8.984c0,-4.959 4.026,-8.984 8.984,-8.984Zm0.003,1.212l-0,0.005c-7.366,0.14 -10.349,8.912 -5.154,13.577c3.753,3.371 10.038,2.313 12.27,-2.702c1.023,-2.298 0.841,-5.17 -0.626,-7.371c-2.432,-3.645 -6.311,-3.505 -6.49,-3.509Z" style="fill:#f33;"/>
</svg>
