<?xml version="1.0" encoding="UTF-8" standalone="no"?>
<!DOCTYPE svg PUBLIC "-//W3C//DTD SVG 1.1//EN" "http://www.w3.org/Graphics/SVG/1.1/DTD/svg11.dtd">
<svg width="280" height="175" viewBox="0 0 637 370" version="1.1" xmlns="http://www.w3.org/2000/svg" xmlns:xlink="http://www.w3.org/1999/xlink" xml:space="preserve" xmlns:serif="http://www.serif.com/" style="fill-rule:evenodd;clip-rule:evenodd;stroke-linecap:round;stroke-linejoin:round;stroke-miterlimit:1.5;">
    <path d="M427.316,31.938l-120.409,120.409" style="fill:none;stroke:#8dcc33;stroke-width:6.25px;"/>
  <path d="M240.056,219.198l-118.848,118.849" style="fill:none;stroke:#8dcc33;stroke-width:6.25px;"/>
  <path d="M240.936,151.644l-119.725,-119.725" style="fill:none;stroke:#8dcc33;stroke-width:6.25px;"/>
  <path d="M427.32,338.027l-119.598,-119.598" style="fill:none;stroke:#8dcc33;stroke-width:6.25px;"/>
  <path d="M435.332,346.048l-13.808,-6.68l6.125,-0.886l1.004,-6.242l6.679,13.808Z" style="fill:#8dcc33;"/>
  <path d="M112.775,23.103l13.808,6.68l-6.242,1.004l-0.887,6.124l-6.679,-13.808Z" style="fill:#8dcc33;"/>
  <path d="M112.961,346.299l6.68,-13.808l0.887,6.124l6.241,1.004l-13.808,6.68Z" style="fill:#8dcc33;"/>
  <path d="M435.715,23.545l-6.68,13.808l-1.003,-6.241l-6.125,-0.887l13.808,-6.68Z" style="fill:#8dcc33;"/>
  <g>
        <path id="MJX-190-NCM-N-31" d="M47.986,0.419c-2.031,2.079 -5.003,3.118 -8.915,3.116l-0.001,1.931c2.575,0.001 4.705,-0.394 6.339,-1.186l-0.011,25.057c0,0.892 -0.198,1.486 -0.644,1.733c-0.446,0.248 -1.684,0.396 -3.665,0.395l-1.733,-0.001l-0.001,1.931c1.238,-0.098 3.912,-0.147 8.023,-0.145c4.11,0.002 6.784,0.053 8.022,0.152l0,-1.931l-1.733,-0.001c-2.03,-0.001 -3.268,-0.15 -3.664,-0.398c-0.396,-0.247 -0.643,-0.842 -0.643,-1.733l0.012,-27.434c0,-1.188 -0.098,-1.485 -1.386,-1.486Z" style="fill:#8dcc33;fill-rule:nonzero;stroke:#1e3a5f;stroke-width:0.42px;stroke-linecap:butt;stroke-miterlimit:2;"/>
    <path id="MJX-190-NCM-N-33" d="M74.423,15.93c3.269,-1.237 6.34,-4.355 6.342,-8.564c0.001,-2.129 -1.038,-3.863 -3.068,-5.201c-1.782,-1.14 -3.812,-1.735 -6.09,-1.736c-2.229,-0.001 -4.16,0.593 -5.894,1.731c-1.932,1.287 -2.923,2.97 -2.924,5.099c-0,1.634 1.089,2.774 2.673,2.774c1.585,0.001 2.675,-1.137 2.675,-2.722c0.001,-1.634 -0.939,-2.526 -2.821,-2.626c1.288,-1.732 3.319,-2.623 6.092,-2.622c2.971,0.002 4.456,1.735 4.455,5.251c-0.001,2.08 -0.398,3.813 -1.142,5.249c-1.338,2.376 -3.17,2.821 -6.24,2.82c-0.595,0.099 -0.892,0.346 -0.892,0.792c-0,0.742 0.346,0.743 1.337,0.743l2.129,0.001c3.714,0.002 5.595,2.627 5.592,7.926c-0.002,4.209 -1.538,7.872 -5.302,7.871c-3.219,-0.002 -5.595,-1.092 -7.03,-3.272c1.733,0.051 3.021,-1.236 3.022,-2.92c0.001,-1.684 -1.237,-2.922 -2.921,-2.923c-1.931,-0.001 -2.922,0.989 -2.923,3.02c-0.001,2.426 1.088,4.358 3.266,5.894c1.931,1.338 4.209,1.982 6.734,1.984c2.823,0.001 5.249,-0.939 7.38,-2.77c2.13,-1.832 3.171,-4.109 3.172,-6.882c0.002,-4.655 -3.661,-7.875 -7.622,-8.917Z" style="fill:#8dcc33;fill-rule:nonzero;stroke:#1e3a5f;stroke-width:0.42px;stroke-linecap:butt;stroke-miterlimit:2;"/>
    <path id="MJX-190-NCM-N-32" d="M95.921,0.44c-2.526,-0.001 -4.655,0.889 -6.488,2.671c-1.833,1.782 -2.775,3.861 -2.776,6.387c-0.001,1.683 1.237,2.922 2.772,2.923c1.485,0 2.724,-1.287 2.724,-2.772c0.001,-1.634 -1.187,-2.774 -2.771,-2.775c-0.149,0 -0.248,0 -0.347,0.05c0.942,-2.426 3.122,-4.555 6.241,-4.553c4.061,0.002 6.337,3.518 6.335,7.777c-0.001,3.318 -1.686,6.883 -5.055,10.645l-9.314,10.494c-0.644,0.742 -0.595,0.693 -0.596,2.129l18.372,0.008l1.44,-8.913l-1.634,-0.001c-0.397,2.525 -0.745,3.961 -1.042,4.407c-0.248,0.247 -1.733,0.346 -4.457,0.345l-8.27,-0.004l4.806,-4.702c3.369,-3.168 7.629,-6.583 9.066,-9.207c0.991,-1.733 1.487,-3.466 1.488,-5.199c0.002,-5.843 -4.552,-9.708 -10.494,-9.71Z" style="fill:#8dcc33;fill-rule:nonzero;stroke:#1e3a5f;stroke-width:0.42px;stroke-linecap:butt;stroke-miterlimit:2;"/>
    </g>
  <g>
        <path id="MJX-190-NCM-N-311" serif:id="MJX-190-NCM-N-31" d="M9.124,335.569c-2.031,2.079 -5.003,3.117 -8.915,3.116l-0.001,1.931c2.575,0.001 4.705,-0.394 6.339,-1.186l-0.011,25.057c0,0.891 -0.198,1.486 -0.644,1.733c-0.446,0.247 -1.684,0.395 -3.665,0.395l-1.733,-0.001l-0.001,1.931c1.238,-0.098 3.912,-0.147 8.023,-0.145c4.11,0.002 6.784,0.052 8.022,0.152l0,-1.931l-1.733,-0.001c-2.03,-0.001 -3.268,-0.15 -3.664,-0.398c-0.396,-0.247 -0.643,-0.842 -0.643,-1.733l0.012,-27.434c0,-1.188 -0.098,-1.486 -1.386,-1.486Z" style="fill:#8dcc33;fill-rule:nonzero;stroke:#1e3a5f;stroke-width:0.42px;stroke-linecap:butt;stroke-miterlimit:2;"/>
    <path id="MJX-190-NCM-N-37" d="M44.083,338.654c0.347,-0.445 0.496,-1.089 0.497,-1.98l-11.984,-0.006c-3.417,-0.001 -5.348,-0.2 -5.695,-0.646c-0.148,-0.148 -0.297,-0.495 -0.395,-0.941l-1.536,-0l-1.688,10.497l1.634,0.001c0.497,-2.773 0.894,-4.259 1.191,-4.506c0.148,-0.149 1.684,-0.247 4.605,-0.246l9.706,0.005l-5.252,7.425c-4.014,5.693 -5.997,11.833 -6,18.518c-0.001,1.931 0.791,2.872 2.425,2.873c1.634,0.001 2.427,-0.94 2.428,-2.871l0.001,-2.526c0.003,-7.527 1.194,-12.973 3.523,-16.29l6.54,-9.307Z" style="fill:#8dcc33;fill-rule:nonzero;stroke:#1e3a5f;stroke-width:0.42px;stroke-linecap:butt;stroke-miterlimit:2;"/>
    <path id="MJX-190-NCM-N-312" serif:id="MJX-190-NCM-N-31" d="M58.644,335.59c-2.032,2.079 -5.003,3.118 -8.915,3.116l-0.001,1.931c2.575,0.002 4.704,-0.394 6.339,-1.185l-0.011,25.057c-0,0.891 -0.199,1.485 -0.645,1.733c-0.445,0.247 -1.683,0.395 -3.664,0.394l-1.733,-0.001l-0.001,1.932c1.238,-0.099 3.912,-0.147 8.022,-0.145c4.11,0.001 6.784,0.052 8.022,0.152l0.001,-1.932l-1.733,-0c-2.031,-0.001 -3.268,-0.15 -3.664,-0.398c-0.397,-0.248 -0.644,-0.842 -0.643,-1.734l0.011,-27.433c0.001,-1.189 -0.098,-1.486 -1.385,-1.487Z" style="fill:#8dcc33;fill-rule:nonzero;stroke:#1e3a5f;stroke-width:0.42px;stroke-linecap:butt;stroke-miterlimit:2;"/>
    <path id="MJX-190-NCM-N-2E" d="M79.577,365.955c0.001,-1.436 -1.187,-2.625 -2.623,-2.626c-1.436,-0 -2.625,1.188 -2.626,2.624c-0.001,1.436 1.187,2.625 2.623,2.625c1.436,0.001 2.625,-1.187 2.626,-2.623Z" style="fill:#8dcc33;fill-rule:nonzero;stroke:#1e3a5f;stroke-width:0.42px;stroke-linecap:butt;stroke-miterlimit:2;"/>
    <path id="MJX-190-NCM-N-36" d="M102.811,343.632c1.635,0 2.427,-0.841 2.428,-2.525c0.002,-3.565 -2.672,-5.498 -6.336,-5.499c-4.11,-0.002 -7.379,1.928 -9.808,5.839c-2.13,3.366 -3.172,7.179 -3.174,11.487c-0.002,6.289 1.135,10.697 3.461,13.322c1.98,2.279 4.257,3.419 6.882,3.42c3.02,0.001 5.497,-1.136 7.429,-3.413c1.833,-2.179 2.775,-4.803 2.776,-7.823c0.002,-3.021 -0.888,-5.596 -2.67,-7.727c-1.881,-2.278 -4.307,-3.468 -7.229,-3.469c-2.575,-0.001 -4.556,1.434 -5.894,4.207l-0,-0.298c0.002,-5.595 1.391,-10.349 4.363,-12.526c1.288,-0.94 2.625,-1.386 3.962,-1.385c1.783,0.001 3.07,0.497 3.912,1.537c-1.684,-0.001 -2.526,0.94 -2.527,2.425c-0.001,1.387 1.039,2.427 2.425,2.428m-1.934,8.12c0.544,1.139 0.84,3.368 0.839,6.636c-0.002,3.219 -0.25,5.348 -0.796,6.437c-0.991,2.03 -2.526,3.069 -4.656,3.068c-1.436,-0 -2.525,-0.496 -3.317,-1.487c-0.643,-0.792 -1.089,-1.486 -1.286,-2.03c-0.594,-1.536 -0.89,-3.863 -0.889,-7.033c0.001,-1.386 0.199,-2.723 0.547,-4.01c0.644,-2.328 2.478,-4.506 5.201,-4.504c1.931,0 3.417,0.991 4.357,2.923Z" style="fill:#8dcc33;fill-rule:nonzero;stroke:#1e3a5f;stroke-width:0.42px;stroke-linecap:butt;stroke-miterlimit:2;"/>
    </g>
  <g>
        <path id="MJX-190-NCM-I-1D465" d="M292.991,173.029c0.002,-3.559 -3.478,-5.34 -7.346,-5.341c-3.327,-0.002 -5.958,1.776 -7.97,5.334c-1.623,-3.559 -4.33,-5.34 -8.275,-5.341c-3.791,-0.002 -6.886,1.776 -9.363,5.256c-2.09,3.016 -3.174,5.259 -3.175,6.729c0,0.696 0.387,1.083 1.16,1.083c0.696,0 1.161,-0.386 1.316,-1.082c1.472,-4.486 4.723,-9.745 9.906,-9.743c2.553,0.001 3.79,1.626 3.788,4.798c-0,1.624 -1.395,7.658 -4.107,18.022c-1.318,5.183 -3.64,7.735 -6.966,7.733c-1.083,-0 -2.089,-0.233 -2.939,-0.62c2.011,-0.773 3.017,-2.165 3.018,-4.176c0.001,-2.011 -1.004,-3.017 -3.093,-3.018c-2.552,-0.001 -4.487,2.164 -4.488,4.717c-0.002,3.558 3.633,5.339 7.424,5.341c3.249,0.001 5.88,-1.777 7.97,-5.335c1.468,3.559 4.252,5.34 8.275,5.342c3.713,0.001 6.808,-1.777 9.285,-5.257c2.09,-3.016 3.174,-5.259 3.175,-6.729c-0,-0.696 -0.387,-1.083 -1.16,-1.083c-0.697,-0 -1.083,0.386 -1.316,1.082c-1.317,4.409 -4.8,9.745 -9.829,9.743c-2.552,-0.001 -3.867,-1.549 -3.865,-4.72c0,-1.006 0.388,-3.172 1.24,-6.653l2.635,-10.442c1.472,-5.801 3.872,-8.739 7.275,-8.738c1.083,0 2.089,0.233 2.94,0.62c-2.089,0.695 -3.096,2.087 -3.096,4.176c-0.001,2.011 1.081,3.018 3.17,3.018c2.475,0.002 4.41,-2.241 4.411,-4.716Z" style="fill:#8dcc33;fill-rule:nonzero;stroke:#1e3a5f;stroke-width:0.42px;stroke-linecap:butt;stroke-miterlimit:2;"/>
    </g>
  <g>
        <g>
            <path id="MJX-190-NCM-N-313" serif:id="MJX-190-NCM-N-31" d="M450.248,0.697c-2.031,2.079 -5.003,3.117 -8.915,3.116l-0.001,1.931c2.575,0.001 4.705,-0.394 6.339,-1.186l-0.011,25.057c-0,0.891 -0.198,1.485 -0.644,1.733c-0.446,0.247 -1.684,0.395 -3.665,0.394l-1.733,-0l-0.001,1.931c1.238,-0.099 3.912,-0.147 8.022,-0.145c4.111,0.002 6.785,0.052 8.023,0.152l0,-1.931l-1.733,-0.001c-2.03,-0.001 -3.268,-0.15 -3.664,-0.398c-0.396,-0.248 -0.643,-0.842 -0.643,-1.733l0.012,-27.434c0,-1.189 -0.099,-1.486 -1.386,-1.486Z" style="fill:#8dcc33;fill-rule:nonzero;stroke:#1e3a5f;stroke-width:0.42px;stroke-linecap:butt;stroke-miterlimit:2;"/>
          <path id="MJX-190-NCM-N-371" serif:id="MJX-190-NCM-N-37" d="M485.207,3.782c0.347,-0.445 0.496,-1.089 0.496,-1.981l-11.983,-0.005c-3.417,-0.001 -5.348,-0.2 -5.695,-0.646c-0.148,-0.149 -0.297,-0.495 -0.396,-0.941l-1.535,-0.001l-1.688,10.498l1.634,0c0.497,-2.772 0.894,-4.258 1.191,-4.505c0.148,-0.149 1.684,-0.247 4.605,-0.246l9.706,0.004l-5.252,7.426c-4.014,5.693 -5.997,11.833 -6,18.518c-0.001,1.931 0.791,2.872 2.425,2.873c1.634,0.001 2.427,-0.94 2.428,-2.871l0.001,-2.526c0.003,-7.527 1.194,-12.973 3.523,-16.29l6.54,-9.307Z" style="fill:#8dcc33;fill-rule:nonzero;stroke:#1e3a5f;stroke-width:0.42px;stroke-linecap:butt;stroke-miterlimit:2;"/>
          <path id="MJX-190-NCM-N-314" serif:id="MJX-190-NCM-N-31" d="M499.767,0.718c-2.031,2.079 -5.002,3.118 -8.914,3.116l-0.001,1.931c2.575,0.001 4.704,-0.394 6.339,-1.185l-0.011,25.056c-0.001,0.892 -0.199,1.486 -0.645,1.733c-0.445,0.248 -1.683,0.396 -3.664,0.395l-1.733,-0.001l-0.001,1.931c1.238,-0.098 3.912,-0.146 8.022,-0.145c4.11,0.002 6.784,0.053 8.022,0.152l0.001,-1.931l-1.733,-0.001c-2.031,-0.001 -3.269,-0.15 -3.665,-0.397c-0.396,-0.248 -0.643,-0.843 -0.643,-1.734l0.012,-27.434c0.001,-1.188 -0.098,-1.485 -1.386,-1.486Z" style="fill:#8dcc33;fill-rule:nonzero;stroke:#1e3a5f;stroke-width:0.42px;stroke-linecap:butt;stroke-miterlimit:2;"/>
          <path id="MJX-190-NCM-N-2E1" serif:id="MJX-190-NCM-N-2E" d="M520.701,31.083c0.001,-1.436 -1.187,-2.625 -2.623,-2.626c-1.436,-0.001 -2.625,1.187 -2.626,2.623c-0.001,1.436 1.187,2.625 2.623,2.626c1.436,0.001 2.625,-1.187 2.626,-2.623Z" style="fill:#8dcc33;fill-rule:nonzero;stroke:#1e3a5f;stroke-width:0.42px;stroke-linecap:butt;stroke-miterlimit:2;"/>
          <path id="MJX-190-NCM-N-361" serif:id="MJX-190-NCM-N-36" d="M543.935,8.76c1.634,0 2.427,-0.841 2.428,-2.525c0.001,-3.565 -2.672,-5.498 -6.336,-5.499c-4.11,-0.002 -7.379,1.928 -9.808,5.839c-2.13,3.366 -3.172,7.179 -3.174,11.487c-0.003,6.289 1.134,10.697 3.461,13.322c1.98,2.279 4.257,3.419 6.881,3.42c3.021,0.001 5.498,-1.137 7.43,-3.414c1.833,-2.178 2.775,-4.802 2.776,-7.823c0.002,-3.02 -0.889,-5.596 -2.67,-7.726c-1.881,-2.278 -4.307,-3.468 -7.229,-3.469c-2.575,-0.001 -4.556,1.434 -5.894,4.206l-0,-0.297c0.002,-5.596 1.391,-10.349 4.363,-12.526c1.288,-0.941 2.625,-1.386 3.962,-1.385c1.783,0.001 3.07,0.496 3.911,1.537c-1.683,-0.001 -2.525,0.939 -2.526,2.425c-0.001,1.387 1.039,2.427 2.425,2.428m-1.934,8.12c0.544,1.139 0.84,3.368 0.838,6.636c-0.001,3.219 -0.249,5.348 -0.795,6.437c-0.991,2.03 -2.526,3.069 -4.656,3.068c-1.436,-0 -2.525,-0.496 -3.317,-1.487c-0.643,-0.792 -1.089,-1.486 -1.287,-2.031c-0.593,-1.535 -0.889,-3.863 -0.888,-7.032c0.001,-1.386 0.199,-2.723 0.547,-4.011c0.644,-2.327 2.478,-4.505 5.201,-4.504c1.931,0.001 3.417,0.992 4.357,2.924Z" style="fill:#8dcc33;fill-rule:nonzero;stroke:#1e3a5f;stroke-width:0.42px;stroke-linecap:butt;stroke-miterlimit:2;"/>
        </g>
    <g>
            <path id="MJX-190-NCM-N-2212" d="M595.292,20.369l-30.603,-0.013c-0.792,-0 -1.189,0.346 -1.189,0.99c-0,0.644 0.396,0.991 1.188,0.991l30.603,0.013c0.792,0 1.189,-0.346 1.189,-0.99c0,-0.594 -0.594,-0.99 -1.188,-0.991Z" style="fill:#8dcc33;fill-rule:nonzero;stroke:#1e3a5f;stroke-width:0.42px;stroke-linecap:butt;stroke-miterlimit:2;"/>
        </g>
    <g>
            <path id="MJX-190-NCM-I-1D4651" serif:id="MJX-190-NCM-I-1D465" d="M636.356,15.287c0.001,-2.278 -2.227,-3.418 -4.703,-3.419c-2.13,-0.001 -3.814,1.137 -5.102,3.414c-1.039,-2.278 -2.772,-3.418 -5.297,-3.419c-2.427,-0.001 -4.408,1.137 -5.994,3.365c-1.337,1.931 -2.031,3.366 -2.032,4.307c0,0.446 0.248,0.694 0.743,0.694c0.445,0 0.743,-0.247 0.842,-0.693c0.942,-2.872 3.023,-6.238 6.341,-6.237c1.634,0.001 2.426,1.041 2.425,3.072c-0,1.039 -0.893,4.902 -2.629,11.536c-0.844,3.318 -2.33,4.951 -4.459,4.95c-0.694,0 -1.337,-0.149 -1.882,-0.396c1.288,-0.495 1.932,-1.386 1.933,-2.674c0,-1.287 -0.643,-1.931 -1.98,-1.932c-1.634,-0.001 -2.873,1.385 -2.874,3.02c-0.001,2.278 2.326,3.417 4.753,3.419c2.079,0 3.764,-1.138 5.102,-3.415c0.939,2.278 2.722,3.418 5.297,3.419c2.377,0.001 4.358,-1.137 5.944,-3.365c1.337,-1.93 2.031,-3.366 2.032,-4.307c-0,-0.446 -0.248,-0.693 -0.743,-0.694c-0.445,0 -0.693,0.248 -0.842,0.693c-0.843,2.823 -3.073,6.238 -6.292,6.237c-1.634,-0.001 -2.475,-0.991 -2.474,-3.022c-0,-0.643 0.248,-2.03 0.794,-4.258l1.686,-6.684c0.943,-3.714 2.479,-5.595 4.658,-5.594c0.693,0 1.337,0.149 1.881,0.397c-1.337,0.445 -1.981,1.336 -1.982,2.673c-0,1.288 0.693,1.932 2.03,1.932c1.584,0.001 2.823,-1.435 2.824,-3.019Z" style="fill:#8dcc33;fill-rule:nonzero;stroke:#1e3a5f;stroke-width:0.42px;stroke-linecap:butt;stroke-miterlimit:2;"/>
        </g>
    </g>
  <g>
        <g>
            <path id="MJX-190-NCM-I-1D4652" serif:id="MJX-190-NCM-I-1D465" d="M466.003,349.889c0.001,-2.278 -2.227,-3.418 -4.703,-3.419c-2.129,-0.001 -3.814,1.138 -5.102,3.415c-1.039,-2.278 -2.772,-3.418 -5.297,-3.419c-2.427,-0.001 -4.408,1.137 -5.994,3.365c-1.337,1.93 -2.031,3.366 -2.032,4.307c0,0.446 0.248,0.693 0.743,0.693c0.445,0.001 0.743,-0.247 0.842,-0.692c0.942,-2.872 3.023,-6.239 6.341,-6.237c1.634,0.001 2.426,1.041 2.425,3.071c-0,1.04 -0.893,4.902 -2.629,11.537c-0.844,3.317 -2.33,4.951 -4.459,4.95c-0.694,-0 -1.337,-0.149 -1.882,-0.397c1.288,-0.495 1.932,-1.386 1.933,-2.673c0,-1.288 -0.643,-1.932 -1.98,-1.932c-1.634,-0.001 -2.873,1.385 -2.874,3.019c-0.001,2.278 2.326,3.418 4.753,3.419c2.079,0.001 3.764,-1.137 5.102,-3.415c0.939,2.279 2.722,3.418 5.297,3.42c2.377,0.001 4.358,-1.137 5.944,-3.365c1.337,-1.931 2.031,-3.367 2.032,-4.307c-0,-0.446 -0.248,-0.694 -0.743,-0.694c-0.445,-0 -0.693,0.247 -0.842,0.693c-0.843,2.822 -3.073,6.238 -6.292,6.237c-1.634,-0.001 -2.475,-0.992 -2.474,-3.022c-0,-0.644 0.248,-2.03 0.794,-4.259l1.686,-6.684c0.943,-3.714 2.479,-5.595 4.658,-5.594c0.693,0.001 1.337,0.149 1.881,0.397c-1.337,0.445 -1.981,1.336 -1.982,2.674c-0,1.287 0.693,1.931 2.03,1.932c1.584,0 2.823,-1.435 2.824,-3.02Z" style="fill:#8dcc33;fill-rule:nonzero;stroke:#1e3a5f;stroke-width:0.42px;stroke-linecap:butt;stroke-miterlimit:2;"/>
        </g>
    <g>
            <path id="MJX-190-NCM-N-22121" serif:id="MJX-190-NCM-N-2212" d="M513.797,355.01l-30.603,-0.013c-0.793,-0 -1.189,0.346 -1.189,0.99c-0.001,0.644 0.395,0.991 1.188,0.991l30.603,0.013c0.792,0.001 1.188,-0.346 1.189,-0.99c0,-0.594 -0.594,-0.99 -1.188,-0.991Z" style="fill:#8dcc33;fill-rule:nonzero;stroke:#1e3a5f;stroke-width:0.42px;stroke-linecap:butt;stroke-miterlimit:2;"/>
        </g>
    <g>
            <path id="MJX-190-NCM-N-315" serif:id="MJX-190-NCM-N-31" d="M542.091,335.413c-2.031,2.079 -5.003,3.118 -8.915,3.116l-0.001,1.931c2.575,0.001 4.705,-0.394 6.339,-1.186l-0.011,25.057c-0,0.892 -0.199,1.486 -0.644,1.733c-0.446,0.248 -1.684,0.396 -3.665,0.395l-1.733,-0.001l-0.001,1.931c1.238,-0.098 3.912,-0.147 8.022,-0.145c4.11,0.002 6.784,0.053 8.022,0.152l0.001,-1.931l-1.733,-0.001c-2.03,-0.001 -3.268,-0.15 -3.664,-0.398c-0.396,-0.247 -0.644,-0.842 -0.643,-1.733l0.012,-27.434c0,-1.188 -0.099,-1.485 -1.386,-1.486Z" style="fill:#8dcc33;fill-rule:nonzero;stroke:#1e3a5f;stroke-width:0.42px;stroke-linecap:butt;stroke-miterlimit:2;"/>
      <path id="MJX-190-NCM-N-331" serif:id="MJX-190-NCM-N-33" d="M568.527,350.924c3.269,-1.236 6.341,-4.355 6.343,-8.564c0.001,-2.129 -1.039,-3.863 -3.068,-5.201c-1.782,-1.14 -3.813,-1.735 -6.09,-1.736c-2.229,-0.001 -4.16,0.593 -5.894,1.731c-1.932,1.287 -2.923,2.97 -2.924,5.099c-0.001,1.634 1.088,2.774 2.673,2.774c1.585,0.001 2.675,-1.137 2.675,-2.722c0.001,-1.634 -0.94,-2.526 -2.821,-2.626c1.288,-1.732 3.319,-2.623 6.092,-2.622c2.971,0.002 4.456,1.735 4.454,5.251c-0.001,2.08 -0.398,3.813 -1.141,5.249c-1.338,2.376 -3.17,2.821 -6.241,2.82c-0.594,0.099 -0.891,0.346 -0.891,0.792c-0.001,0.743 0.346,0.743 1.336,0.743l2.13,0.001c3.714,0.002 5.594,2.627 5.592,7.926c-0.002,4.209 -1.539,7.873 -5.302,7.871c-3.219,-0.001 -5.595,-1.092 -7.03,-3.271c1.733,0.05 3.021,-1.237 3.022,-2.921c0,-1.683 -1.237,-2.922 -2.921,-2.923c-1.931,-0.001 -2.922,0.989 -2.923,3.02c-0.001,2.426 1.088,4.358 3.266,5.894c1.931,1.338 4.208,1.983 6.734,1.984c2.822,0.001 5.249,-0.939 7.379,-2.77c2.13,-1.832 3.171,-4.109 3.173,-6.882c0.002,-4.655 -3.661,-7.875 -7.623,-8.917Z" style="fill:#8dcc33;fill-rule:nonzero;stroke:#1e3a5f;stroke-width:0.42px;stroke-linecap:butt;stroke-miterlimit:2;"/>
      <path id="MJX-190-NCM-N-321" serif:id="MJX-190-NCM-N-32" d="M590.026,335.434c-2.526,-0.001 -4.656,0.889 -6.489,2.671c-1.833,1.782 -2.774,3.861 -2.775,6.387c-0.001,1.684 1.236,2.922 2.771,2.923c1.486,0 2.725,-1.287 2.725,-2.772c0.001,-1.634 -1.187,-2.774 -2.772,-2.774c-0.148,-0.001 -0.247,-0.001 -0.346,0.049c0.942,-2.426 3.121,-4.555 6.241,-4.553c4.061,0.002 6.337,3.518 6.335,7.777c-0.001,3.318 -1.686,6.883 -5.055,10.645l-9.315,10.494c-0.644,0.742 -0.594,0.693 -0.595,2.129l18.372,0.008l1.44,-8.913l-1.634,-0.001c-0.398,2.526 -0.745,3.961 -1.042,4.407c-0.248,0.247 -1.733,0.346 -4.457,0.345l-8.27,-0.004l4.806,-4.702c3.368,-3.168 7.629,-6.583 9.066,-9.207c0.991,-1.733 1.487,-3.466 1.488,-5.199c0.002,-5.843 -4.552,-9.708 -10.494,-9.71Z" style="fill:#8dcc33;fill-rule:nonzero;stroke:#1e3a5f;stroke-width:0.42px;stroke-linecap:butt;stroke-miterlimit:2;"/>
        </g>
    </g>
</svg>
