<?xml version="1.0" encoding="UTF-8" standalone="no"?>
<!DOCTYPE svg PUBLIC "-//W3C//DTD SVG 1.1//EN" "http://www.w3.org/Graphics/SVG/1.1/DTD/svg11.dtd">
<svg width="426" height="215" viewBox="0 0 822 386" version="1.1" xmlns="http://www.w3.org/2000/svg" xmlns:xlink="http://www.w3.org/1999/xlink" xml:space="preserve" xmlns:serif="http://www.serif.com/" style="fill-rule:evenodd;clip-rule:evenodd;stroke-linecap:round;stroke-linejoin:round;stroke-miterlimit:1.5;">
    <path d="M121.505,151.703l-82.178,-74.463" style="fill:none;stroke:#8dcc33;stroke-width:6.25px;"/>
  <path d="M616.084,151.241l-82.177,-74.463" style="fill:none;stroke:#8dcc33;stroke-width:6.25px;"/>
  <path d="M204.124,305.292l-82.178,-74.463" style="fill:none;stroke:#8dcc33;stroke-width:6.25px;"/>
  <path d="M698.703,304.83l-82.178,-74.462" style="fill:none;stroke:#8dcc33;stroke-width:6.25px;"/>
  <path d="M121.866,151.433l82.949,-74.029" style="fill:none;stroke:#8dcc33;stroke-width:6.25px;"/>
  <path d="M616.445,150.971l82.949,-74.028" style="fill:none;stroke:#8dcc33;stroke-width:6.25px;"/>
  <path d="M204.484,305.022l82.95,-74.029" style="fill:none;stroke:#8dcc33;stroke-width:6.25px;"/>
  <path d="M699.063,304.56l82.95,-74.028" style="fill:none;stroke:#8dcc33;stroke-width:6.25px;"/>
  <path d="M-970.071,-966.495l-254.083,367.547" style="fill:none;stroke:#0dcaf2;stroke-width:6.25px;"/>
  <path d="M-1202.47,-630.316l-19.704,28.502" style="fill:none;stroke:#0dcaf2;stroke-width:6.25px;"/>
  <rect x="4.167" y="4.628" width="70.362" height="70.362" style="fill:none;stroke:#8dcc33;stroke-width:8.33px;stroke-linecap:square;stroke-miterlimit:4;"/>
  <rect x="498.746" y="4.167" width="70.362" height="70.362" style="fill:none;stroke:#8dcc33;stroke-width:8.33px;stroke-linecap:square;stroke-miterlimit:4;"/>
  <rect x="169.571" y="311.313" width="70.362" height="70.362" style="fill:none;stroke:#1e90ff;stroke-width:8.33px;stroke-linecap:square;stroke-miterlimit:4;"/>
  <rect x="664.15" y="310.851" width="70.362" height="70.362" style="fill:none;stroke:#1e90ff;stroke-width:8.33px;stroke-linecap:square;stroke-miterlimit:4;"/>
  <rect x="86.785" y="158.217" width="70.362" height="70.362" style="fill:none;stroke:#1e90ff;stroke-width:8.33px;stroke-linecap:square;stroke-miterlimit:4;"/>
  <rect x="581.364" y="157.756" width="70.362" height="70.362" style="fill:none;stroke:#1e90ff;stroke-width:8.33px;stroke-linecap:square;stroke-miterlimit:4;"/>
  <rect x="169.598" y="4.628" width="70.362" height="70.362" style="fill:none;stroke:#8dcc33;stroke-width:8.33px;stroke-linecap:square;stroke-miterlimit:4;"/>
  <rect x="664.177" y="4.167" width="70.362" height="70.362" style="fill:none;stroke:#8dcc33;stroke-width:8.33px;stroke-linecap:square;stroke-miterlimit:4;"/>
  <rect x="252.217" y="158.217" width="70.362" height="70.362" style="fill:none;stroke:#8dcc33;stroke-width:8.33px;stroke-linecap:square;stroke-miterlimit:4;"/>
  <rect x="746.796" y="157.756" width="70.362" height="70.362" style="fill:none;stroke:#8dcc33;stroke-width:8.33px;stroke-linecap:square;stroke-miterlimit:4;"/>
  <g transform="matrix(50,0,0,50,56.0227,57.7052)">
    </g>
  <text x="22.673px" y="57.705px" style="font-family:'ArialMT', 'Arial', sans-serif;font-size:50px;fill:#8dcc33;stroke:#1e3a5f;stroke-width:0.83px;stroke-linecap:butt;stroke-miterlimit:2;">A</text>
  <g transform="matrix(50,0,0,50,550.602,57.2434)">
    </g>
  <text x="517.252px" y="57.243px" style="font-family:'ArialMT', 'Arial', sans-serif;font-size:50px;fill:#8dcc33;stroke:#1e3a5f;stroke-width:0.83px;stroke-linecap:butt;stroke-miterlimit:2;">A</text>
  <g transform="matrix(50,0,0,50,221.427,364.39)">
    </g>
  <text x="188.077px" y="364.39px" style="font-family:'ArialMT', 'Arial', sans-serif;font-size:50px;fill:#8dcc33;stroke:#1e3a5f;stroke-width:0.83px;stroke-linecap:butt;stroke-miterlimit:2;">A</text>
  <g transform="matrix(50,0,0,50,716.006,363.928)">
    </g>
  <text x="682.656px" y="363.928px" style="font-family:'ArialMT', 'Arial', sans-serif;font-size:50px;fill:#8dcc33;stroke:#1e3a5f;stroke-width:0.83px;stroke-linecap:butt;stroke-miterlimit:2;">B</text>
  <g transform="matrix(50,0,0,50,138.641,211.294)">
    </g>
  <text x="105.292px" y="211.294px" style="font-family:'ArialMT', 'Arial', sans-serif;font-size:50px;fill:#8dcc33;stroke:#1e3a5f;stroke-width:0.83px;stroke-linecap:butt;stroke-miterlimit:2;">A</text>
  <g transform="matrix(50,0,0,50,633.22,210.832)">
    </g>
  <text x="599.871px" y="210.832px" style="font-family:'ArialMT', 'Arial', sans-serif;font-size:50px;fill:#8dcc33;stroke:#1e3a5f;stroke-width:0.83px;stroke-linecap:butt;stroke-miterlimit:2;">B</text>
  <g transform="matrix(50,0,0,50,220.954,57.7052)">
    </g>
  <text x="187.604px" y="57.705px" style="font-family:'ArialMT', 'Arial', sans-serif;font-size:50px;fill:#8dcc33;stroke:#1e3a5f;stroke-width:0.83px;stroke-linecap:butt;stroke-miterlimit:2;">B</text>
  <g transform="matrix(50,0,0,50,715.533,57.2434)">
    </g>
  <text x="682.183px" y="57.243px" style="font-family:'ArialMT', 'Arial', sans-serif;font-size:50px;fill:#8dcc33;stroke:#1e3a5f;stroke-width:0.83px;stroke-linecap:butt;stroke-miterlimit:2;">B</text>
  <g transform="matrix(50,0,0,50,306.331,211.294)">
    </g>
  <text x="270.223px" y="211.294px" style="font-family:'ArialMT', 'Arial', sans-serif;font-size:50px;fill:#8dcc33;stroke:#1e3a5f;stroke-width:0.83px;stroke-linecap:butt;stroke-miterlimit:2;">C</text>
  <g transform="matrix(50,0,0,50,800.91,210.832)">
    </g>
  <text x="764.802px" y="210.832px" style="font-family:'ArialMT', 'Arial', sans-serif;font-size:50px;fill:#8dcc33;stroke:#1e3a5f;stroke-width:0.83px;stroke-linecap:butt;stroke-miterlimit:2;">C</text>
  <path d="M-617.705,-927.302l783.852,-0" style="fill:none;stroke:#9370db;stroke-width:12.5px;"/>
</svg>
