<?xml version="1.0" encoding="UTF-8" standalone="no"?>
<!DOCTYPE svg PUBLIC "-//W3C//DTD SVG 1.1//EN" "http://www.w3.org/Graphics/SVG/1.1/DTD/svg11.dtd">
<svg width="266" height="186" viewBox="0 0 1109 775" version="1.1" xmlns="http://www.w3.org/2000/svg" xmlns:xlink="http://www.w3.org/1999/xlink" xml:space="preserve" xmlns:serif="http://www.serif.com/" style="fill-rule:evenodd;clip-rule:evenodd;stroke-linecap:round;stroke-linejoin:round;stroke-miterlimit:1.5;">
    <text x="66px" y="645.488px" style="font-family:'ArialMT', 'Arial', sans-serif;font-size:78.521px;fill:#8dcc33;">B</text>
  <text x="58.423px" y="101.885px" style="font-family:'ArialMT', 'Arial', sans-serif;font-size:78.521px;fill:#8dcc33;">A</text>
  <text x="984.68px" y="96.025px" style="font-family:'ArialMT', 'Arial', sans-serif;font-size:78.521px;fill:#8dcc33;">D</text>
  <text x="987.02px" y="637.706px" style="font-family:'ArialMT', 'Arial', sans-serif;font-size:78.521px;fill:#8dcc33;">C</text>
  <text x="461.298px" y="268.108px" style="font-family:'ArialMT', 'Arial', sans-serif;font-size:78.521px;fill:#8dcc33;">P</text>
  <text x="993.302px" y="217.689px" style="font-family:'ArialMT', 'Arial', sans-serif;font-size:78.521px;fill:#8dcc33;">G</text>
  <text x="53.615px" y="507.149px" style="font-family:'ArialMT', 'Arial', sans-serif;font-size:78.521px;fill:#8dcc33;">E</text>
  <text x="731.681px" y="688.77px" style="font-family:'ArialMT', 'Arial', sans-serif;font-size:78.521px;fill:#8dcc33;">F</text>
  <text x="322.252px" y="56.207px" style="font-family:'ArialMT', 'Arial', sans-serif;font-size:78.521px;fill:#8dcc33;">H</text>
  <path d="M459.247,293.518l-107.644,-213.834" style="fill:none;stroke:#0dcaf2;stroke-width:9.82px;"/>
  <path d="M462.333,294.463l512.163,-102.994" style="fill:none;stroke:#0dcaf2;stroke-width:9.82px;"/>
  <path d="M458.725,294.97l-332.219,181.342" style="fill:none;stroke:#0dcaf2;stroke-width:9.82px;"/>
  <path d="M755.187,607.817l-296.056,-311.957" style="fill:none;stroke:#0dcaf2;stroke-width:9.82px;"/>
  <text x="364.883px" y="750.042px" style="font-family:'ArialMT', 'Arial', sans-serif;font-size:56.357px;fill:#1e3a5f;">Figure 6–29</text>
  <rect x="124.761" y="76.671" width="850.215" height="533.912" style="fill:none;stroke:#0dcaf2;stroke-width:9.82px;stroke-miterlimit:14;"/>
  <circle cx="124.353" cy="473.949" r="8.934" style="fill:#ff0;"/>
  <path d="M124.353,465.014c4.93,0 8.934,4.004 8.934,8.935c-0,4.93 -4.004,8.934 -8.934,8.934c-4.931,0 -8.935,-4.004 -8.935,-8.934c-0,-4.931 4.004,-8.935 8.935,-8.935Zm-0,1.42c-7.233,0.137 -9.983,8.807 -4.917,13.197c4.723,4.09 12.225,0.928 12.429,-5.488c0.106,-3.367 -2.358,-7.579 -7.512,-7.709Z" style="fill:#f33;"/>
  <circle cx="458.601" cy="294.375" r="8.934" style="fill:#ff0;"/>
  <path d="M458.601,285.441c4.931,0 8.934,4.004 8.934,8.934c0,4.931 -4.003,8.935 -8.934,8.935c-4.931,0 -8.934,-4.004 -8.934,-8.935c0,-4.93 4.003,-8.934 8.934,-8.934Zm0,1.42c-7.231,0.137 -9.982,8.807 -4.916,13.196c4.722,4.091 12.226,0.929 12.428,-5.487c0.107,-3.367 -2.358,-7.579 -7.512,-7.709Z" style="fill:#f33;"/>
  <circle cx="352.525" cy="77.156" r="8.934" style="fill:#ff0;"/>
  <path d="M352.525,68.221c4.931,0 8.934,4.004 8.934,8.935c-0,4.93 -4.003,8.934 -8.934,8.934c-4.932,0 -8.935,-4.004 -8.935,-8.934c0,-4.931 4.003,-8.935 8.935,-8.935Zm-0,1.42c-7.232,0.137 -9.983,8.808 -4.917,13.196c4.723,4.091 12.226,0.929 12.429,-5.487c0.106,-3.367 -2.358,-7.579 -7.512,-7.709Z" style="fill:#f33;"/>
  <circle cx="974.747" cy="192.778" r="8.934" style="fill:#ff0;"/>
  <path d="M974.747,183.844c4.932,-0 8.935,4.004 8.935,8.934c-0,4.931 -4.003,8.935 -8.935,8.935c-4.931,-0 -8.934,-4.004 -8.934,-8.935c0,-4.93 4.003,-8.934 8.934,-8.934Zm0,1.419c-7.231,0.138 -9.982,8.808 -4.916,13.197c4.723,4.091 12.225,0.929 12.429,-5.487c0.106,-3.367 -2.358,-7.579 -7.513,-7.71Z" style="fill:#f33;"/>
  <circle cx="752.174" cy="610.48" r="8.934" style="fill:#ff0;"/>
  <path d="M752.174,601.546c4.931,0 8.934,4.003 8.934,8.934c0,4.931 -4.003,8.934 -8.934,8.934c-4.931,0 -8.934,-4.003 -8.934,-8.934c-0,-4.931 4.003,-8.934 8.934,-8.934Zm0,1.419c-7.232,0.137 -9.982,8.808 -4.916,13.197c4.722,4.091 12.225,0.928 12.428,-5.487c0.107,-3.368 -2.358,-7.579 -7.512,-7.71Z" style="fill:#f33;"/>
</svg>
