<?xml version="1.0" encoding="UTF-8" standalone="no"?>
<!DOCTYPE svg PUBLIC "-//W3C//DTD SVG 1.1//EN" "http://www.w3.org/Graphics/SVG/1.1/DTD/svg11.dtd">
<svg width="440" height="190" viewBox="0 0 1283 501" version="1.1" xmlns="http://www.w3.org/2000/svg" xmlns:xlink="http://www.w3.org/1999/xlink" xml:space="preserve" xmlns:serif="http://www.serif.com/" style="fill-rule:evenodd;clip-rule:evenodd;stroke-linecap:round;stroke-linejoin:round;stroke-miterlimit:1.5;">
    <path d="M1276.65,6.25l-1270.22,0" style="fill:none;stroke:#8dcc33;stroke-width:12.5px;"/>
  <path d="M1276.65,231.772l-1270.22,0" style="fill:none;stroke:#8dcc33;stroke-width:6.25px;"/>
  <path d="M352.622,230.594l-345.171,-139.746" style="fill:none;stroke:#8dcc33;stroke-width:6.25px;"/>
  <path d="M352.622,230.594l-219.209,-222.632" style="fill:none;stroke:#8dcc33;stroke-width:6.25px;"/>
  <path d="M1276.65,407.6l-1270.22,0" style="fill:none;stroke:#8dcc33;stroke-width:6.25px;"/>
  <path d="M1276.65,321.01l-1270.22,0" style="fill:none;stroke:#8dcc33;stroke-width:6.25px;"/>
  <path d="M1276.65,494.533l-1270.22,-0" style="fill:none;stroke:#8dcc33;stroke-width:12.5px;"/>
  <path d="M6.25,6.64l0,487.195" style="fill:none;stroke:#8dcc33;stroke-width:12.5px;"/>
  <path d="M352.191,6.64l0,487.759" style="fill:none;stroke:#8dcc33;stroke-width:6.25px;"/>
  <path d="M594.2,5.675l0,489.99" style="fill:none;stroke:#8dcc33;stroke-width:6.25px;"/>
  <path d="M826.03,5.675l0,487.733" style="fill:none;stroke:#8dcc33;stroke-width:6.25px;"/>
  <path d="M1063.49,5.675l-0,489.241" style="fill:none;stroke:#8dcc33;stroke-width:6.25px;"/>
  <path d="M1276.74,6.64l-0,486.905" style="fill:none;stroke:#8dcc33;stroke-width:12.5px;"/>
  <path d="M119.848,-1191.05l783.852,0" style="fill:none;stroke:#8dcc33;stroke-width:12.5px;"/>
  <path d="M98.917,-489.643l264.925,0" style="fill:none;stroke:#ff822e;stroke-width:6.25px;"/>
  <path d="M361.857,-857.233l-254.083,367.547" style="fill:none;stroke:#0dcaf2;stroke-width:6.25px;"/>
  <path d="M129.458,-521.054l-19.703,28.503" style="fill:none;stroke:#0dcaf2;stroke-width:6.25px;"/>
  <path d="M714.223,-818.04l783.852,0" style="fill:none;stroke:#9370db;stroke-width:12.5px;"/>
  <g transform="matrix(25,0,0,25,165.109,196.834)">
    </g>
  <text x="102.597px" y="196.834px" style="font-family:'ArialMT', 'Arial', sans-serif;font-size:25px;fill:#1e90ff;stroke:#1e3a5f;stroke-width:0.83px;stroke-linecap:butt;stroke-miterlimit:2;">Class</text>
  <g transform="matrix(25,0,0,25,189.567,87.8161)">
    </g>
  <text x="17.241px" y="87.816px" style="font-family:'ArialMT', 'Arial', sans-serif;font-size:25px;fill:#1e90ff;stroke:#1e3a5f;stroke-width:0.83px;stroke-linecap:butt;stroke-miterlimit:2;">No. of Students</text>
  <g transform="matrix(25,0,0,25,328.73,100.133)">
    </g>
  <text x="263.423px" y="100.133px" style="font-family:'ArialMT', 'Arial', sans-serif;font-size:25px;fill:#1e90ff;stroke:#1e3a5f;stroke-width:0.83px;stroke-linecap:butt;stroke-miterlimit:2;">Score</text>
  <g transform="matrix(50,0,0,50,489.392,137.298)">
    </g>
  <text x="461.585px" y="137.298px" style="font-family:'ArialMT', 'Arial', sans-serif;font-size:50px;fill:#8dcc33;stroke:#1e3a5f;stroke-width:0.83px;stroke-linecap:butt;stroke-miterlimit:2;">6</text>
  <g transform="matrix(50,0,0,50,499.896,289.191)">
    </g>
  <text x="444.28px" y="289.191px" style="font-family:'ArialMT', 'Arial', sans-serif;font-size:50px;fill:#8dcc33;stroke:#1e3a5f;stroke-width:0.83px;stroke-linecap:butt;stroke-miterlimit:2;">10</text>
  <g transform="matrix(50,0,0,50,499.896,380.116)">
    </g>
  <text x="444.28px" y="380.116px" style="font-family:'ArialMT', 'Arial', sans-serif;font-size:50px;fill:#8dcc33;stroke:#1e3a5f;stroke-width:0.83px;stroke-linecap:butt;stroke-miterlimit:2;">15</text>
  <g transform="matrix(50,0,0,50,499.896,465.89)">
    </g>
  <text x="444.28px" y="465.89px" style="font-family:'ArialMT', 'Arial', sans-serif;font-size:50px;fill:#8dcc33;stroke:#1e3a5f;stroke-width:0.83px;stroke-linecap:butt;stroke-miterlimit:2;">10</text>
  <g transform="matrix(50,0,0,50,736.773,289.191)">
    </g>
  <text x="681.157px" y="289.191px" style="font-family:'ArialMT', 'Arial', sans-serif;font-size:50px;fill:#8dcc33;stroke:#1e3a5f;stroke-width:0.83px;stroke-linecap:butt;stroke-miterlimit:2;">10</text>
  <g transform="matrix(50,0,0,50,736.773,380.116)">
    </g>
  <text x="681.157px" y="380.116px" style="font-family:'ArialMT', 'Arial', sans-serif;font-size:50px;fill:#8dcc33;stroke:#1e3a5f;stroke-width:0.83px;stroke-linecap:butt;stroke-miterlimit:2;">15</text>
  <g transform="matrix(50,0,0,50,736.773,465.89)">
    </g>
  <text x="681.157px" y="465.89px" style="font-family:'ArialMT', 'Arial', sans-serif;font-size:50px;fill:#8dcc33;stroke:#1e3a5f;stroke-width:0.83px;stroke-linecap:butt;stroke-miterlimit:2;">10</text>
  <g transform="matrix(50,0,0,50,971.96,289.191)">
    </g>
  <text x="916.345px" y="289.191px" style="font-family:'ArialMT', 'Arial', sans-serif;font-size:50px;fill:#8dcc33;stroke:#1e3a5f;stroke-width:0.83px;stroke-linecap:butt;stroke-miterlimit:2;">10</text>
  <g transform="matrix(50,0,0,50,971.96,380.116)">
    </g>
  <text x="916.345px" y="380.116px" style="font-family:'ArialMT', 'Arial', sans-serif;font-size:50px;fill:#8dcc33;stroke:#1e3a5f;stroke-width:0.83px;stroke-linecap:butt;stroke-miterlimit:2;">10</text>
  <g transform="matrix(50,0,0,50,971.96,465.89)">
    </g>
  <text x="916.345px" y="465.89px" style="font-family:'ArialMT', 'Arial', sans-serif;font-size:50px;fill:#8dcc33;stroke:#1e3a5f;stroke-width:0.83px;stroke-linecap:butt;stroke-miterlimit:2;">15</text>
  <g transform="matrix(50,0,0,50,1195.06,289.191)">
    </g>
  <text x="1139.45px" y="289.191px" style="font-family:'ArialMT', 'Arial', sans-serif;font-size:50px;fill:#8dcc33;stroke:#1e3a5f;stroke-width:0.83px;stroke-linecap:butt;stroke-miterlimit:2;">10</text>
  <g transform="matrix(50,0,0,50,1195.06,380.116)">
    </g>
  <text x="1139.45px" y="380.116px" style="font-family:'ArialMT', 'Arial', sans-serif;font-size:50px;fill:#8dcc33;stroke:#1e3a5f;stroke-width:0.83px;stroke-linecap:butt;stroke-miterlimit:2;">20</text>
  <g transform="matrix(50,0,0,50,1195.06,465.89)">
    </g>
  <text x="1139.45px" y="465.89px" style="font-family:'ArialMT', 'Arial', sans-serif;font-size:50px;fill:#8dcc33;stroke:#1e3a5f;stroke-width:0.83px;stroke-linecap:butt;stroke-miterlimit:2;">15</text>
  <g transform="matrix(50,0,0,50,199.484,289.829)">
    </g>
  <text x="166.134px" y="289.829px" style="font-family:'ArialMT', 'Arial', sans-serif;font-size:50px;fill:#8dcc33;stroke:#1e3a5f;stroke-width:0.83px;stroke-linecap:butt;stroke-miterlimit:2;">A</text>
  <g transform="matrix(50,0,0,50,200.653,382.325)">
    </g>
  <text x="167.303px" y="382.325px" style="font-family:'ArialMT', 'Arial', sans-serif;font-size:50px;fill:#8dcc33;stroke:#1e3a5f;stroke-width:0.83px;stroke-linecap:butt;stroke-miterlimit:2;">B</text>
  <g transform="matrix(50,0,0,50,202.242,466.604)">
    </g>
  <text x="166.134px" y="466.604px" style="font-family:'ArialMT', 'Arial', sans-serif;font-size:50px;fill:#8dcc33;stroke:#1e3a5f;stroke-width:0.83px;stroke-linecap:butt;stroke-miterlimit:2;">C</text>
  <g transform="matrix(50,0,0,50,725.892,137.298)">
    </g>
  <text x="698.084px" y="137.298px" style="font-family:'ArialMT', 'Arial', sans-serif;font-size:50px;fill:#8dcc33;stroke:#1e3a5f;stroke-width:0.83px;stroke-linecap:butt;stroke-miterlimit:2;">7</text>
  <g transform="matrix(50,0,0,50,957.064,137.298)">
    </g>
  <text x="929.257px" y="137.298px" style="font-family:'ArialMT', 'Arial', sans-serif;font-size:50px;fill:#8dcc33;stroke:#1e3a5f;stroke-width:0.83px;stroke-linecap:butt;stroke-miterlimit:2;">8</text>
  <g transform="matrix(50,0,0,50,1183.06,137.298)">
    </g>
  <text x="1155.25px" y="137.298px" style="font-family:'ArialMT', 'Arial', sans-serif;font-size:50px;fill:#8dcc33;stroke:#1e3a5f;stroke-width:0.83px;stroke-linecap:butt;stroke-miterlimit:2;">9</text>
</svg>
