<?xml version="1.0" encoding="UTF-8" standalone="no"?>
<!DOCTYPE svg PUBLIC "-//W3C//DTD SVG 1.1//EN" "http://www.w3.org/Graphics/SVG/1.1/DTD/svg11.dtd">
<svg width="190" height="210" viewBox="0 0 1525 1780" version="1.1" xmlns="http://www.w3.org/2000/svg" xmlns:xlink="http://www.w3.org/1999/xlink" xml:space="preserve" xmlns:serif="http://www.serif.com/" style="fill-rule:evenodd;clip-rule:evenodd;stroke-linecap:round;stroke-linejoin:round;stroke-miterlimit:1.5;">
    <g transform="matrix(100,0,0,100,464.246,930.654)">
    </g>
  <text x="397.546px" y="930.654px" style="font-family:'ArialMT', 'Arial', sans-serif;font-size:100px;fill:#8dcc33;">E</text>
  <g transform="matrix(100,0,0,100,1528.9,1508.59)">
    </g>
  <text x="1456.69px" y="1508.59px" style="font-family:'ArialMT', 'Arial', sans-serif;font-size:100px;fill:#8dcc33;">C</text>
  <g transform="matrix(100,0,0,100,59.375,1509.81)">
    </g>
  <text x="-7.324px" y="1509.81px" style="font-family:'ArialMT', 'Arial', sans-serif;font-size:100px;fill:#8dcc33;">B</text>
  <g transform="matrix(100,0,0,100,1119.1,71.582)">
    </g>
  <text x="1052.4px" y="71.582px" style="font-family:'ArialMT', 'Arial', sans-serif;font-size:100px;fill:#8dcc33;">A</text>
  <g transform="matrix(100,0,0,100,1183.46,1275.78)">
    </g>
  <text x="1111.24px" y="1275.78px" style="font-family:'ArialMT', 'Arial', sans-serif;font-size:100px;fill:#8dcc33;">H</text>
  <g transform="matrix(100,0,0,100,1124.57,1598.96)">
    </g>
  <text x="1052.35px" y="1598.96px" style="font-family:'ArialMT', 'Arial', sans-serif;font-size:100px;fill:#8dcc33;">D</text>
  <path d="M1432.6,1494.68l-340.575,-1400.28" style="fill:none;stroke:#0dcaf2;stroke-width:12.5px;"/>
  <path d="M1432.6,1494.68l-937.137,-563.52" style="fill:none;stroke:#0dcaf2;stroke-width:12.5px;"/>
  <path d="M526.866,954.149l-23.954,33.587" style="fill:none;stroke:#0dcaf2;stroke-width:12.5px;"/>
  <path d="M468.274,968.617l32.811,20.212" style="fill:none;stroke:#0dcaf2;stroke-width:12.5px;"/>
  <path d="M1085.75,1442.18l-43.772,-1.113" style="fill:none;stroke:#0dcaf2;stroke-width:12.5px;"/>
  <path d="M1041.98,1441.07l-0,44.433" style="fill:none;stroke:#0dcaf2;stroke-width:12.5px;"/>
  <path d="M1092.03,1490.37l0,-1395.97" style="fill:none;stroke:#0dcaf2;stroke-width:12.5px;"/>
  <path d="M1092.03,94.4l-1007.57,1395.97" style="fill:none;stroke:#0dcaf2;stroke-width:12.5px;"/>
  <path d="M1432.6,1494.68l-1348.15,-4.31" style="fill:none;stroke:#0dcaf2;stroke-width:12.5px;"/>
  <g transform="matrix(100,0,0,100,1023.47,1758.27)">
    </g>
  <text x="489.776px" y="1758.27px" style="font-family:'ArialMT', 'Arial', sans-serif;font-size:100px;fill:#1e3a5f;">Figure 6–19</text>
</svg>
