<?xml version="1.0" encoding="UTF-8" standalone="no"?>
<!DOCTYPE svg PUBLIC "-//W3C//DTD SVG 1.1//EN" "http://www.w3.org/Graphics/SVG/1.1/DTD/svg11.dtd">
<svg width="230" height="238" viewBox="0 0 1015 1029" version="1.1" xmlns="http://www.w3.org/2000/svg" xmlns:xlink="http://www.w3.org/1999/xlink" xml:space="preserve" xmlns:serif="http://www.serif.com/" style="fill-rule:evenodd;clip-rule:evenodd;stroke-linecap:round;stroke-linejoin:round;">
    <circle cx="505.221" cy="700.684" r="149.752" style="fill:none;stroke:#8dcc33;stroke-width:9.88px;"/>
  <path d="M506.128,784.885l0,219.262" style="fill:none;stroke:#ff7faf;stroke-width:7.41px;stroke-miterlimit:1.5;stroke-dasharray:11.12,14.82,0,0,0,0;"/>
  <path d="M289.978,646.594l-259.43,-449.962" style="fill:none;stroke:#9370db;stroke-width:14.82px;stroke-miterlimit:1.5;"/>
  <path d="M396.751,831.784l-152.714,-264.871" style="fill:none;stroke:#ff5151;stroke-width:14.82px;stroke-miterlimit:1.5;"/>
  <path d="M721.463,649.706l262.49,-453.084" style="fill:none;stroke:#9370db;stroke-width:14.82px;stroke-miterlimit:1.5;"/>
  <path d="M616.409,831.041l153.706,-265.312" style="fill:none;stroke:#ff5151;stroke-width:14.82px;stroke-miterlimit:1.5;"/>
  <path d="M506.063,1021.51l135.295,-233.535" style="fill:none;stroke:#0dcaf2;stroke-width:14.82px;stroke-miterlimit:1.5;"/>
  <ellipse cx="506.621" cy="783.113" rx="8.321" ry="4.525" style="fill:#ff0;"/>
  <path d="M506.621,787.004l0,1.287c-0.06,-0.002 -4.527,0.085 -7.302,-2.148c-3.935,-3.167 -0.62,-8.038 7.079,-8.197c6.707,-0.138 11.342,4.016 8.205,7.554c-0.953,1.076 -2.316,1.642 -2.593,1.764c-2.17,0.951 -4.947,1.008 -5.385,1.017l-0.004,-1.277l-0.001,-0.009c0.05,-0.001 3.127,0.084 5.577,-1.247c5.56,-3.023 -0.855,-7.683 -8.31,-6.255c-4.809,0.922 -7.136,4.405 -2.149,6.588c0.818,0.359 1.807,0.579 1.968,0.614c1.073,0.239 2.68,0.3 2.915,0.309Z" style="fill:#f33;"/>
  <ellipse cx="506.133" cy="196.561" rx="22.516" ry="9.223" style="fill:#ff0;"/>
  <path d="M506.133,207.5c-0.127,-0.003 -10.543,0.23 -18.134,-3.538c-10.694,-5.307 -7.408,-15.125 10.141,-17.76c16.098,-2.417 33.98,2.863 32.095,11.548c-0.479,2.205 -2.339,4.455 -6.156,6.305c-7.565,3.664 -17.752,3.441 -17.946,3.445Zm0.003,-3.43c0.298,0.003 9.232,0.158 15.959,-2.873c1.423,-0.641 5.898,-2.879 4.598,-5.654c-2.445,-5.215 -19.543,-8.616 -32.688,-4.977c-4.838,1.34 -10.889,4.369 -7.813,7.941c1.139,1.323 3.454,2.726 6.975,3.805c6.021,1.845 12.27,1.749 12.962,1.758l0.007,0Z" style="fill:#f33;"/>
  <ellipse cx="507.231" cy="196.612" rx="476.681" ry="166.063" style="fill:none;stroke:#9370db;stroke-width:14.82px;stroke-linecap:square;stroke-linejoin:miter;"/>
  <ellipse cx="506.622" cy="783.104" rx="135.533" ry="43.989" style="fill:none;stroke:#0dcaf2;stroke-width:14.82px;stroke-linecap:square;stroke-linejoin:miter;"/>
  <path d="M506.147,1021.52l-133.37,-231.321" style="fill:none;stroke:#0dcaf2;stroke-width:14.82px;stroke-miterlimit:1.5;"/>
  <path d="M754.685,550.943l-496.782,0" style="fill:none;stroke:#ff5151;stroke-width:9.88px;stroke-miterlimit:1.5;stroke-dasharray:14.82,19.76,0,0,0,0;"/>
  <path d="M506.294,766l0,-57.301" style="fill:none;stroke:#ff5151;stroke-width:9.88px;stroke-miterlimit:1.5;stroke-dasharray:7.91,15.8,0,0,0,0;"/>
  <path d="M506.294,690.886l0,-137.305" style="fill:none;stroke:#ff5151;stroke-width:9.88px;stroke-miterlimit:1.5;stroke-dasharray:7.91,15.8,0,0,0,0;"/>
  <path d="M643.067,704.744l-119.147,0" style="fill:none;stroke:#8dcc33;stroke-width:7.41px;stroke-miterlimit:1.5;stroke-dasharray:11.12,11.12,0,0,0,0;"/>
  <path d="M626.369,783.08l-104.563,-0" style="fill:none;stroke:#0dcaf2;stroke-width:7.41px;stroke-miterlimit:1.5;stroke-dasharray:11.12,11.12,0,0,0,0;"/>
  <ellipse cx="506.088" cy="550.994" rx="18.629" ry="8.838" style="fill:#ff0;"/>
  <path d="M506.088,560.904c-0.061,-0.001 -8.672,0.223 -14.907,-3.361c-9.027,-5.188 -4.972,-13.955 9.213,-16.049c13.646,-2.014 27.692,3.544 25.084,11.308c-1.155,3.437 -5.809,5.444 -6.442,5.717c-5.828,2.513 -12.415,2.375 -12.948,2.385Zm0.002,-2.144c0.219,0.002 7.668,0.159 13.289,-2.775c7.947,-4.147 3.947,-9.761 -5.456,-11.912c-15.066,-3.446 -31.879,4.173 -22.89,10.822c1.388,1.027 3.427,2.011 6.068,2.732c4.366,1.191 8.422,1.124 8.986,1.133l0.003,0Z" style="fill:#f33;"/>
  <path d="M364.2,751.151c2.668,7.961 9.725,24.43 18.244,35.266" style="fill:none;stroke:#8dcc33;stroke-width:9.88px;stroke-miterlimit:1.5;"/>
  <path d="M368.619,781.863c0,0 18.069,21.903 33.148,25.621" style="fill:none;stroke:#0dcaf2;stroke-width:7.41px;stroke-miterlimit:1.5;"/>
  <path d="M646.645,749.933c-5.013,12.959 -9.908,23.429 -19.402,38.244" style="fill:none;stroke:#8dcc33;stroke-width:9.88px;stroke-miterlimit:1.5;"/>
  <path d="M641.068,783.87c0,0 -12.681,20.576 -33.148,25.621" style="fill:none;stroke:#0dcaf2;stroke-width:7.41px;stroke-miterlimit:1.5;"/>
  <g>
        <path id="MJX-111-NCM-I-1D45F" d="M583.941,678.698c0,-2.024 -2.086,-3.277 -4.327,-3.277c-2.493,0 -4.58,1.109 -6.311,3.374c-0.509,-1.88 -2.24,-3.374 -4.632,-3.374c-2.086,0 -3.613,1.543 -4.683,4.676c-0.508,1.59 -0.763,2.506 -0.763,2.795c-0,0.434 0.255,0.675 0.814,0.675c0.255,-0 0.408,-0.049 0.56,-0.145c0.255,-0.434 0.408,-0.772 0.459,-1.108c0.916,-3.663 2.086,-5.495 3.46,-5.495c0.866,-0 1.324,0.675 1.324,2.024c0,0.627 -0.254,1.928 -0.763,3.905l-2.902,10.942c-0.152,0.626 -0.458,1.879 -0.458,2.121c0,0.963 0.56,1.445 1.629,1.445c1.018,-0 1.68,-0.482 2.036,-1.445l0.967,-3.472c0.56,-2.072 0.916,-3.422 1.069,-4.048l1.578,-6.17c0.102,-0.386 0.509,-1.013 1.17,-1.928c1.375,-1.832 2.953,-3.374 5.446,-3.374c0.612,-0 1.121,0.096 1.578,0.337c-1.527,0.434 -2.29,1.35 -2.29,2.652c-0,1.253 0.712,1.879 2.088,1.879c1.679,-0 2.951,-1.398 2.951,-2.989Z" style="fill:#8dcc33;fill-rule:nonzero;stroke:#1e3a5f;stroke-width:0.42px;stroke-linecap:butt;stroke-miterlimit:2;"/>
    </g>
  <g>
        <path id="MJX-111-NCM-I-210E" d="M498.473,912.424c-0.879,3.016 -2.103,4.542 -3.709,4.542c-0.498,-0 -0.766,-0.343 -0.766,-1.069c0,-0.572 0.23,-1.449 0.689,-2.632c1.53,-4.085 2.295,-6.87 2.295,-8.359c-0,-2.71 -1.759,-4.198 -4.475,-4.198c-2.026,-0 -3.786,0.839 -5.277,2.48l2.791,-11.412c-0.076,-0.344 -0.153,-0.572 -0.65,-0.572c-1.262,-0 -4.053,0.343 -4.551,0.381c-0.574,0.076 -0.88,0.344 -0.88,0.917c0,0.381 0.345,0.572 1.033,0.572c0.804,0 1.683,-0.039 1.759,0.496l-5.583,22.48c-0.115,0.42 -0.153,0.687 -0.153,0.84c-0,0.801 0.42,1.221 1.224,1.221c0.765,-0 1.299,-0.382 1.567,-1.106l1.531,-6.26c0.459,-1.87 0.802,-3.282 1.07,-4.237c0.115,-0.266 0.421,-0.801 0.918,-1.564c1.376,-2.061 3.06,-3.092 5.087,-3.092c1.261,-0 1.873,0.84 1.873,2.481c-0,1.565 -0.765,4.351 -2.294,8.397c-0.345,0.877 -0.498,1.565 -0.498,2.137c0,1.832 1.378,3.244 3.213,3.244c1.683,-0 3.022,-0.955 3.977,-2.901c0.727,-1.526 1.11,-2.557 1.11,-3.053c-0,-0.344 -0.192,-0.534 -0.612,-0.534c-0.115,-0 -0.689,0.343 -0.689,0.801Z" style="fill:#ff7faf;fill-rule:nonzero;stroke:#1e3a5f;stroke-width:0.42px;stroke-linecap:butt;stroke-miterlimit:2;"/>
    </g>
  <g>
        <path id="MJX-111-NCM-I-1D459" d="M697.13,737.955l-8.352,23.973c-0.202,0.654 -0.336,1.215 -0.336,1.636c-0,2.476 2.625,4.438 6.196,4.438c3.301,0 5.657,-2.429 7.072,-7.289c-0,-0.421 -0.337,-0.655 -1.078,-0.655c-0.538,0 -0.942,0.328 -1.145,0.982c-1.347,3.692 -2.896,5.561 -4.715,5.561c-1.145,0 -1.683,-0.654 -1.683,-1.916c-0,-0.701 0.135,-1.448 0.404,-2.196l9.362,-26.73l-0,-0.187c-0.202,-0.327 -0.606,-0.514 -1.078,-0.514c-2.155,-0 -7.139,0.42 -7.947,0.468c-1.01,0.092 -1.482,0.467 -1.482,1.168c-0,0.42 0.606,0.654 1.886,0.654c1.145,-0 2.896,-0 2.896,0.607Z" style="fill:#ff5151;fill-rule:nonzero;stroke:#1e3a5f;stroke-width:0.83px;stroke-linecap:butt;stroke-miterlimit:2;"/>
    </g>
  <g>
        <path id="MJX-111-NCM-I-1D4591" serif:id="MJX-111-NCM-I-1D459" d="M314.827,737.955l-8.352,23.973c-0.201,0.654 -0.336,1.215 -0.336,1.636c-0,2.476 2.627,4.438 6.196,4.438c3.301,0 5.659,-2.429 7.073,-7.289c0,-0.421 -0.337,-0.655 -1.078,-0.655c-0.539,0 -0.943,0.328 -1.145,0.982c-1.348,3.692 -2.896,5.561 -4.714,5.561c-1.146,0 -1.685,-0.654 -1.685,-1.916c-0,-0.701 0.135,-1.448 0.404,-2.196l9.362,-26.73l0,-0.187c-0.201,-0.327 -0.606,-0.514 -1.078,-0.514c-2.155,-0 -7.139,0.42 -7.947,0.468c-1.01,0.092 -1.482,0.467 -1.482,1.168c0,0.42 0.607,0.654 1.886,0.654c1.145,-0 2.896,-0 2.896,0.607Z" style="fill:#ff5151;fill-rule:nonzero;stroke:#1e3a5f;stroke-width:0.83px;stroke-linecap:butt;stroke-miterlimit:2;"/>
    </g>
  <ellipse cx="505.027" cy="705.494" rx="149.473" ry="66.034" style="fill:none;stroke:#8dcc33;stroke-width:9.88px;"/>
  <ellipse cx="506.697" cy="550.865" rx="267.355" ry="86.803" style="fill:none;stroke:#ff5151;stroke-width:14.82px;stroke-linecap:square;stroke-linejoin:miter;"/>
  <ellipse cx="506.56" cy="704.755" rx="9.887" ry="5.376" style="fill:#ff0;"/>
  <path d="M506.56,710.775c-7.991,-0.165 -10.749,-3.842 -10.515,-6.355c0.545,-5.832 13.772,-7.705 19.259,-3.052c4.407,3.738 0.299,9.049 -7.957,9.39c-0.063,0.004 -0.058,0.002 -0.787,0.017Zm-0,-1.277l-0.002,-0.009c0.024,-0 3.872,0.109 6.838,-1.583c6.228,-3.552 -0.609,-8.988 -9.443,-7.688c-5.966,0.879 -9.418,5.073 -3.755,7.941c0.637,0.322 1.637,0.68 2.448,0.873c1.873,0.446 3.154,0.438 3.914,0.466Z" style="fill:#f33;"/>
  <g>
        <path id="MJX-112-NCM-N-31" d="M614.113,523.105c-1.152,1.203 -2.838,1.802 -5.057,1.802l0,1.117c1.461,0 2.669,-0.229 3.596,-0.687l-0,14.477c-0,0.516 -0.112,0.858 -0.365,1.002c-0.253,0.143 -0.956,0.228 -2.08,0.228l-0.983,0l0,1.116c0.702,-0.057 2.22,-0.085 4.552,-0.085c2.333,-0 3.849,0.028 4.552,0.085l-0,-1.116l-0.984,0c-1.151,0 -1.854,-0.085 -2.078,-0.228c-0.225,-0.144 -0.367,-0.486 -0.367,-1.002l0,-15.85c0,-0.687 -0.055,-0.859 -0.786,-0.859Z" style="fill:#ff5151;fill-rule:nonzero;stroke:#1e3a5f;stroke-width:0.42px;stroke-linecap:butt;stroke-miterlimit:2;"/>
    </g>
  <g>
        <g>
            <path id="MJX-112-NCM-N-221A" d="M482.02,705.773c0.073,-0.218 0.11,-0.363 0.11,-0.437c0,-0.388 -0.148,-0.582 -0.442,-0.582c-0.166,-0 -0.295,0.097 -0.369,0.315c-2.634,6.94 -3.942,10.434 -3.942,10.482l0,0.024c0,0.171 -1.253,3.688 -3.775,10.604l-3.188,-9.269c-0.091,-0.267 -0.184,-0.388 -0.294,-0.388c-0.056,0 -0.166,0.073 -0.313,0.218l-1.806,1.795c-0.166,0.171 -0.239,0.292 -0.239,0.413c-0,0.243 0.092,0.364 0.257,0.364c0.056,-0 0.148,-0.073 0.295,-0.218l0.885,-0.849l3.573,10.36c0.092,0.267 0.221,0.412 0.405,0.412c0.222,0 0.369,-0.12 0.461,-0.339l8.382,-22.905Z" style="fill:#ff5151;fill-rule:nonzero;stroke:#1e3a5f;stroke-width:0.42px;stroke-linecap:butt;stroke-miterlimit:2;"/>
        </g>
    <g>
            <g>
                <path id="MJX-112-NCM-N-33" d="M487.711,718.931c1.216,-0.607 2.358,-2.135 2.358,-4.198c0,-1.043 -0.387,-1.892 -1.142,-2.547c-0.663,-0.559 -1.418,-0.849 -2.266,-0.849c-0.829,-0 -1.547,0.29 -2.192,0.849c-0.718,0.63 -1.087,1.456 -1.087,2.499c-0,0.801 0.405,1.358 0.995,1.358c0.59,0 0.994,-0.557 0.994,-1.333c0,-0.802 -0.349,-1.238 -1.049,-1.287c0.479,-0.848 1.234,-1.286 2.266,-1.286c1.104,0 1.657,0.85 1.657,2.573c-0,1.018 -0.147,1.868 -0.423,2.571c-0.497,1.165 -1.179,1.384 -2.322,1.384c-0.22,0.048 -0.33,0.169 -0.33,0.387c-0,0.364 0.128,0.364 0.496,0.364l0.792,0c1.383,0 2.082,1.286 2.082,3.883c0,2.062 -0.571,3.857 -1.971,3.857c-1.198,0 -2.081,-0.533 -2.616,-1.6c0.645,0.024 1.124,-0.607 1.124,-1.432c0,-0.825 -0.461,-1.432 -1.087,-1.432c-0.718,-0 -1.087,0.486 -1.087,1.48c0,1.189 0.405,2.135 1.216,2.888c0.719,0.655 1.566,0.97 2.505,0.97c1.051,-0 1.953,-0.461 2.745,-1.359c0.792,-0.897 1.179,-2.014 1.179,-3.372c0,-2.281 -1.363,-3.858 -2.837,-4.368Z" style="fill:#ff5151;fill-rule:nonzero;stroke:#1e3a5f;stroke-width:0.42px;stroke-linecap:butt;stroke-miterlimit:2;"/>
            </g>
        </g>
    <rect x="482.13" y="704.754" width="9.21" height="1.456" style="fill:#ff5151;stroke:#1e3a5f;stroke-width:0.42px;stroke-linecap:butt;stroke-miterlimit:2;"/>
    </g>
  <g>
        <path id="MJX-112-NCM-N-32" d="M667.416,772.223c-1.434,-0 -2.642,0.515 -3.681,1.546c-1.04,1.029 -1.573,2.231 -1.573,3.69c-0,0.972 0.703,1.688 1.573,1.688c0.843,0 1.546,-0.744 1.546,-1.603c-0,-0.943 -0.675,-1.601 -1.574,-1.601c-0.084,-0 -0.141,-0 -0.196,0.028c0.533,-1.402 1.77,-2.631 3.54,-2.631c2.304,-0 3.596,2.03 3.596,4.491c0,1.917 -0.955,3.976 -2.866,6.151l-5.282,6.066c-0.366,0.429 -0.337,0.401 -0.337,1.229l10.424,0l0.815,-5.15l-0.928,0c-0.224,1.46 -0.421,2.29 -0.589,2.547c-0.141,0.143 -0.984,0.2 -2.529,0.2l-4.692,0l2.725,-2.717c1.91,-1.832 4.327,-3.805 5.142,-5.322c0.562,-1.001 0.843,-2.003 0.843,-3.004c-0,-3.376 -2.586,-5.608 -5.957,-5.608Z" style="fill:#ff5151;fill-rule:nonzero;stroke:#1e3a5f;stroke-width:0.42px;stroke-linecap:butt;stroke-miterlimit:2;"/>
    </g>
</svg>
