<?xml version="1.0" encoding="UTF-8" standalone="no"?>
<!DOCTYPE svg PUBLIC "-//W3C//DTD SVG 1.1//EN" "http://www.w3.org/Graphics/SVG/1.1/DTD/svg11.dtd">
<svg  width="286" height="184" viewBox="0 0 1068 657" version="1.1" xmlns="http://www.w3.org/2000/svg" xmlns:xlink="http://www.w3.org/1999/xlink" xml:space="preserve" xmlns:serif="http://www.serif.com/" style="fill-rule:evenodd;clip-rule:evenodd;stroke-linejoin:round;stroke-miterlimit:2;">
    <g transform="matrix(66.6667,0,0,66.6667,710.991,642.696)">
    </g>
  <text x="355.196px" y="642.696px" style="font-family:'ArialMT', 'Arial', sans-serif;font-size:66.667px;fill:#1e3a5f;">Figure 6–13</text>
  <g>
        <g>
            <path id="MJX-51-NCM-I-1D434" d="M800.363,44.517c1.111,0 4.939,0.185 6.112,0.185c0.926,0 1.358,-0.494 1.358,-1.42c0,-0.555 -0.37,-0.926 -1.173,-0.987c-1.79,-0.062 -2.654,-0.68 -2.654,-1.853c-0,-0.555 0.555,-1.79 1.728,-3.642c1.667,-2.778 2.84,-4.815 3.643,-6.173l15.001,-0c0,0.432 0.062,1.296 0.247,2.654c0.432,4.507 0.679,6.976 0.679,7.285c0,1.173 -1.358,1.729 -4.136,1.729c-1.173,-0 -1.729,0.493 -1.729,1.481c0,0.618 0.371,0.926 1.112,0.926c1.481,0 6.173,-0.185 7.655,-0.185c1.234,0 5.618,0.185 6.852,0.185c0.926,0 1.358,-0.494 1.358,-1.481c0,-0.618 -0.555,-0.926 -1.666,-0.926c-1.729,-0 -2.778,-0.124 -3.087,-0.309c-0.309,-0.185 -0.556,-0.741 -0.617,-1.667l-3.705,-38.152c-0.185,-1.173 -0.123,-1.667 -1.419,-1.667c-0.741,-0 -1.359,0.37 -1.791,1.173l-21.237,35.621c-1.852,3.087 -4.321,4.754 -7.346,5.001c-0.988,0.061 -1.482,0.555 -1.482,1.481c0,0.618 0.371,0.926 1.05,0.926c0.988,0 4.26,-0.185 5.247,-0.185m21.916,-35.436l1.852,19.138l-13.273,-0l11.421,-19.138Z" style="fill:#0dcaf2;fill-rule:nonzero;stroke:#1e3a5f;stroke-width:1px;"/>
        </g>
    </g>
  <g>
        <g>
            <path id="MJX-51-NCM-I-1D436" d="M1029.15,519.956c-0,-7.902 3.457,-15.928 7.346,-20.373c3.149,-3.642 8.581,-7.284 14.693,-7.284c6.421,-0 9.569,4.877 9.569,11.544c0,0.556 -0.185,2.531 -0.185,3.087c-0,0.555 0.37,0.864 1.173,0.864c0.309,-0 0.556,-0.062 0.741,-0.123c0.308,-0.433 0.494,-0.865 0.617,-1.297l3.828,-15.619c-0,-0.555 -0.309,-0.864 -0.926,-0.864c-0.247,-0 -0.618,0.247 -1.112,0.802l-4.012,4.507c-2.408,-3.519 -5.803,-5.309 -10.187,-5.309c-3.395,-0 -6.729,0.802 -10.124,2.346c-6.853,3.21 -11.853,8.272 -15.063,15.187c-1.606,3.395 -2.408,6.852 -2.408,10.371c-0,4.939 1.543,8.952 4.692,12.162c3.148,3.21 7.161,4.815 12.1,4.815c4.877,0 9.322,-1.79 13.334,-5.309c1.667,-1.42 3.087,-3.149 4.26,-5.062c1.667,-2.778 2.531,-4.692 2.531,-5.865c0,-0.556 -0.308,-0.864 -0.987,-0.864c-0.556,-0 -0.865,0.247 -0.988,0.802c-1.297,4.013 -3.334,7.223 -6.112,9.507c-3.519,2.902 -7.223,4.383 -11.05,4.383c-7.409,0 -11.73,-5 -11.73,-12.408Z" style="fill:#0dcaf2;fill-rule:nonzero;stroke:#1e3a5f;stroke-width:1px;"/>
        </g>
    </g>
  <g>
        <g>
            <path id="MJX-51-NCM-I-1D437" d="M581.802,517.356l-20.496,0c-1.42,0 -2.099,0.062 -2.099,1.42c-0,0.679 0.679,0.988 2.037,0.988c1.235,-0 3.704,-0.185 3.704,0.802c0,0.124 -0.061,0.494 -0.247,1.112l-8.149,32.781c-0.308,1.358 -0.926,2.161 -1.852,2.469c-0.432,0.124 -1.543,0.185 -3.457,0.185c-1.358,0 -1.975,0.124 -1.975,1.42c-0,0.679 0.679,0.988 1.975,0.988l20.187,0c4.198,0 8.211,-1.235 12.1,-3.766c6.606,-4.259 12.903,-12.594 12.903,-22.718c0,-9.137 -5.618,-15.681 -14.631,-15.681m8.828,13.397c0,6.976 -3.148,15.433 -6.359,19.57c-3.519,4.506 -8.149,6.79 -13.952,6.79l-6.852,0c-0.679,0 -1.112,0 -1.359,-0.061c-0.37,-0 -0.555,-0.124 -0.555,-0.309c-0,-0.123 0.123,-0.556 0.309,-1.358l8.334,-33.522c0.555,-2.038 0.494,-2.099 3.086,-2.099l6.544,-0c6.915,-0 10.804,4.074 10.804,10.989Z" style="fill:#0dcaf2;fill-rule:nonzero;stroke:#1e3a5f;stroke-width:1px;"/>
        </g>
    </g>
  <g>
        <g>
            <path id="MJX-51-NCM-I-1D438" d="M466.971,193.419c0,0.618 0.679,0.926 1.976,0.926c2.469,0 3.704,0.247 3.704,0.803c-0,0.185 -0.124,0.617 -0.309,1.42l-8.026,32.287c-0.308,1.358 -0.926,2.161 -1.852,2.47c-0.432,0.123 -1.543,0.185 -3.457,0.185c-1.358,-0 -1.975,0.123 -1.975,1.42c-0,0.679 0.679,0.988 1.975,0.988l31.67,-0c1.482,-0 1.605,-0.124 2.099,-1.173l2.47,-5.557c1.667,-3.827 2.839,-6.667 3.519,-8.581c-0.124,-0.555 -0.309,-0.926 -0.988,-0.926c-0.432,0 -0.803,0.309 -1.05,0.865c-1.543,3.642 -3.025,6.42 -4.506,8.396c-2.47,3.333 -6.112,4.568 -11.915,4.568l-8.952,-0c-0.617,-0 -1.049,-0 -1.296,-0.062c-0.371,0 -0.556,-0.123 -0.556,-0.308c0,-0.124 0.124,-0.556 0.309,-1.359l4.074,-16.483l5.865,0c2.902,0 4.445,0.371 4.754,1.173c0.123,0.309 0.185,0.741 0.185,1.358c-0,0.803 -0.123,1.791 -0.432,2.964c-0.124,0.308 -0.185,0.555 -0.185,0.74c-0,0.618 0.37,0.926 1.049,0.926c0.556,0 0.926,-0.494 1.173,-1.42l3.457,-14.322c0,-0.617 -0.308,-0.926 -0.988,-0.926c-0.493,-0 -0.864,0.432 -1.049,1.296c-0.617,2.408 -1.42,3.951 -2.469,4.692c-1.05,0.741 -2.778,1.111 -5.31,1.111l-5.432,0l3.58,-14.384c0.494,-2.099 0.494,-2.161 3.087,-2.161l8.581,0c3.149,0 5.309,0.309 6.482,0.927c1.729,0.926 2.593,2.778 2.593,5.556c0,1.049 -0.061,2.16 -0.247,3.21c0,0.123 0,0.309 -0.061,0.555l-0,0.556c-0,0.679 0.308,0.988 0.926,0.988c0.617,-0 0.987,-0.556 1.111,-1.729l1.235,-10.556c0.185,-1.729 -0.247,-1.914 -1.914,-1.914l-30.806,-0c-1.42,-0 -2.099,0.062 -2.099,1.481Z" style="fill:#0dcaf2;fill-rule:nonzero;stroke:#1e3a5f;stroke-width:1px;"/>
        </g>
    </g>
  <g>
        <g>
            <path d="M13.309,482.617c-1.064,0 -1.695,-0.019 -1.892,-0.059c-0.197,-0.039 -0.296,-0.256 -0.296,-0.65c0,-1.065 0.217,-1.715 0.651,-1.952c0.039,-0.039 2.602,-0.059 7.688,-0.059c10.212,0 15.593,0.039 16.145,0.118c2.484,0.395 4.554,1.282 6.21,2.662c1.656,1.38 2.504,3.193 2.543,5.441c0,2.523 -1.143,4.79 -3.43,6.801c-2.287,2.01 -4.909,3.371 -7.866,4.08l-0.591,0.178c2.523,0.355 4.593,1.261 6.21,2.72c1.616,1.459 2.444,3.273 2.484,5.441c-0,2.878 -1.42,5.658 -4.258,8.339c-2.839,2.681 -6.328,4.199 -10.468,4.554c-0.276,0.039 -4.436,0.059 -12.479,0.059c-7.885,-0 -11.887,-0.039 -12.005,-0.118c-0.158,-0.119 -0.237,-0.276 -0.237,-0.473c-0,-0.276 0.039,-0.552 0.118,-0.828c0.197,-0.75 0.395,-1.163 0.592,-1.242c0.157,-0.04 0.453,-0.059 0.887,-0.059l0.355,-0c1.064,-0 2.247,-0.06 3.548,-0.178c0.552,-0.118 0.927,-0.355 1.124,-0.71c0.118,-0.157 1.537,-5.638 4.258,-16.441c2.72,-10.803 4.081,-16.5 4.081,-17.091c-0,-0.276 -1.124,-0.454 -3.372,-0.533Zm24.721,5.501c0,-1.183 -0.295,-2.287 -0.887,-3.312c-0.591,-1.025 -1.557,-1.696 -2.898,-2.011c-0.276,-0.079 -2.089,-0.138 -5.441,-0.178l-2.484,0c-0.867,0 -1.557,0.02 -2.07,0.06l-0.768,-0c-0.592,0.039 -0.966,0.236 -1.124,0.591c-0.079,0.158 -0.71,2.523 -1.893,7.097c0,0.118 -0.019,0.236 -0.059,0.355l-1.833,7.451l4.79,0c3.194,0 5.027,-0.039 5.5,-0.118c2.366,-0.394 4.475,-1.538 6.328,-3.43c1.854,-1.892 2.8,-4.061 2.839,-6.505Zm-3.193,18.629c-0,-1.735 -0.454,-3.174 -1.361,-4.317c-0.906,-1.144 -2.089,-1.814 -3.548,-2.011c-0.237,-0.04 -1.873,-0.059 -4.909,-0.059c-4.652,-0 -6.998,0.019 -7.037,0.059c-0,0.079 -0.336,1.518 -1.006,4.317c-0.67,2.799 -1.36,5.579 -2.07,8.339l-1.064,4.14c-0,0.157 0.236,0.236 0.709,0.236c0.474,0 2.07,0.04 4.791,0.119c3.509,-0 5.401,-0.02 5.677,-0.06c2.445,-0.276 4.692,-1.419 6.742,-3.43c2.051,-2.011 3.076,-4.455 3.076,-7.333Z" style="fill:#0dcaf2;fill-rule:nonzero;stroke:#1e3a5f;stroke-width:0.83px;stroke-linejoin:miter;stroke-miterlimit:4;"/>
        </g>
    </g>
  <g>
        <path d="M813.772,58.302l-756.593,440.675" style="fill:none;stroke:#0dcaf2;stroke-width:7.82px;stroke-linecap:round;stroke-miterlimit:1.5;"/>
    </g>
  <g>
        <path d="M814.138,58.581l195.776,449.072" style="fill:none;stroke:#0dcaf2;stroke-width:7.82px;stroke-linecap:round;stroke-miterlimit:1.5;"/>
    </g>
  <g>
        <path d="M814.138,58.581l-238.669,444.745" style="fill:none;stroke:#0dcaf2;stroke-width:7.82px;stroke-linecap:round;stroke-miterlimit:1.5;"/>
    </g>
  <g>
        <path d="M486.685,251.044l88.791,251.672" style="fill:none;stroke:#0dcaf2;stroke-width:7.82px;stroke-linecap:round;stroke-miterlimit:1.5;"/>
    </g>
  <g>
        <path d="M489.488,247.62l520.175,259.57" style="fill:none;stroke:#0dcaf2;stroke-width:7.82px;stroke-linecap:round;stroke-miterlimit:1.5;"/>
    </g>
  <path d="M1010,508.331l-953.003,-8.352" style="fill:none;stroke:#0dcaf2;stroke-width:7.82px;stroke-linecap:round;stroke-miterlimit:1.5;"/>
</svg>
