<?xml version="1.0" encoding="UTF-8" standalone="no"?>
<!DOCTYPE svg PUBLIC "-//W3C//DTD SVG 1.1//EN" "http://www.w3.org/Graphics/SVG/1.1/DTD/svg11.dtd">
<svg width="456" height="95" viewBox="0 0 1264 215" version="1.1" xmlns="http://www.w3.org/2000/svg" xmlns:xlink="http://www.w3.org/1999/xlink" xml:space="preserve" xmlns:serif="http://www.serif.com/" style="fill-rule:evenodd;clip-rule:evenodd;stroke-linecap:square;stroke-linejoin:round;stroke-miterlimit:1.5;">
    <path d="M66.368,181.651l986.317,-0" style="fill:none;stroke:#8dcc33;stroke-width:12.5px;"/>
  <g transform="matrix(33.3333,0,0,33.3333,1222.94,40.7167)">
    </g>
  <text x="1058.04px" y="40.717px" style="font-family:'ArialMT', 'Arial', sans-serif;font-size:33.333px;fill:#ff7faf;stroke:#1e3a5f;stroke-width:1px;stroke-linecap:butt;stroke-miterlimit:2;">messenger</text>
  <g transform="matrix(33.3333,0,0,33.3333,601.634,167.112)">
    </g>
  <text x="518.252px" y="167.112px" style="font-family:'ArialMT', 'Arial', sans-serif;font-size:33.333px;fill:#8dcc33;stroke:#1e3a5f;stroke-width:0.83px;stroke-linecap:butt;stroke-miterlimit:2;">800m</text>
  <g transform="matrix(29.1667,0,0,29.1667,1209.51,192.433)">
    </g>
  <text x="1097.67px" y="192.433px" style="font-family:'ArialMT', 'Arial', sans-serif;font-size:29.167px;fill:#8dcc33;stroke:#1e3a5f;stroke-width:0.83px;stroke-linecap:butt;stroke-miterlimit:2;">80m/min</text>
  <g transform="matrix(29.1667,0,0,29.1667,634.321,21.6508)">
    </g>
  <text x="506.261px" y="21.651px" style="font-family:'ArialMT', 'Arial', sans-serif;font-size:29.167px;fill:#ff7faf;stroke:#1e3a5f;stroke-width:0.83px;stroke-linecap:butt;stroke-miterlimit:2;">240m/min</text>
  <path d="M66.274,35.315l35.722,-12.429l-9.133,12.633l9.133,12.225l-35.722,-12.429Z" style="fill:#ff7faf;"/>
  <path d="M1263.23,202.268l-35.722,12.429l9.133,-12.225l-9.133,-12.633l35.722,12.429Z" style="fill:#8dcc33;"/>
  <path d="M1053.44,113.693l-35.722,12.429l9.133,-12.224l-9.133,-12.634l35.722,12.429Z" style="fill:#ff7faf;"/>
  <path d="M88.691,35.315l961.663,0" style="fill:none;stroke:#ff7faf;stroke-width:6.25px;stroke-linecap:round;"/>
  <path d="M1068.33,202.269l169.728,-0" style="fill:none;stroke:#8dcc33;stroke-width:6.25px;stroke-linecap:round;"/>
  <path d="M55.575,113.696l974.639,0" style="fill:none;stroke:#ff7faf;stroke-width:6.25px;stroke-linecap:round;"/>
  <path d="M56.696,35.316c0,0 -53.571,-0.001 -53.571,39.191c0,39.193 53.571,39.19 53.571,39.19" style="fill:none;stroke:#ff7faf;stroke-width:6.25px;stroke-linecap:round;"/>
  <path d="M1053.44,202.304l0,-41.285" style="fill:none;stroke:#8dcc33;stroke-width:12.5px;stroke-linecap:round;"/>
  <path d="M66.274,201.142l-0,-38.995" style="fill:none;stroke:#8dcc33;stroke-width:12.5px;stroke-linecap:round;"/>
</svg>
