<?xml version="1.0" encoding="UTF-8" standalone="no"?>
<!DOCTYPE svg PUBLIC "-//W3C//DTD SVG 1.1//EN" "http://www.w3.org/Graphics/SVG/1.1/DTD/svg11.dtd">
<svg width="256" height="186" viewBox="0 0 1414 1064" version="1.1" xmlns="http://www.w3.org/2000/svg" xmlns:xlink="http://www.w3.org/1999/xlink" xml:space="preserve" xmlns:serif="http://www.serif.com/" style="fill-rule:evenodd;clip-rule:evenodd;stroke-linecap:round;stroke-linejoin:round;stroke-miterlimit:1.5;">
    <g transform="matrix(100,0,0,100,734.704,925.007)">
    </g>
  <text x="668.005px" y="925.007px" style="font-family:'ArialMT', 'Arial', sans-serif;font-size:100px;fill:#8dcc33;">B</text>
  <g transform="matrix(100,0,0,100,1417.88,494.721)">
    </g>
  <text x="1345.67px" y="494.721px" style="font-family:'ArialMT', 'Arial', sans-serif;font-size:100px;fill:#8dcc33;">C</text>
  <g transform="matrix(100,0,0,100,737.806,71.582)">
    </g>
  <text x="665.59px" y="71.582px" style="font-family:'ArialMT', 'Arial', sans-serif;font-size:100px;fill:#8dcc33;">D</text>
  <g transform="matrix(100,0,0,100,965.504,444.887)">
    </g>
  <text x="898.804px" y="444.887px" style="font-family:'ArialMT', 'Arial', sans-serif;font-size:100px;fill:#8dcc33;">P</text>
  <g transform="matrix(100,0,0,100,413.304,733.221)">
    </g>
  <text x="330.004px" y="733.221px" style="font-family:'ArialMT', 'Arial', sans-serif;font-size:100px;fill:#8dcc33;">M</text>
  <g transform="matrix(100,0,0,100,1062.1,749.55)">
    </g>
  <text x="989.88px" y="749.55px" style="font-family:'ArialMT', 'Arial', sans-serif;font-size:100px;fill:#8dcc33;">N</text>
  <g transform="matrix(100,0,0,100,66.8457,496.36)">
    </g>
  <text x="0.146px" y="496.36px" style="font-family:'ArialMT', 'Arial', sans-serif;font-size:100px;fill:#8dcc33;">A</text>
  <g transform="matrix(100,0,0,100,970.466,1042.72)">
    </g>
  <text x="436.775px" y="1042.72px" style="font-family:'ArialMT', 'Arial', sans-serif;font-size:100px;fill:#1e3a5f;">Figure 6–30</text>
  <path d="M-894.979,-973.433l528.179,-366.763" style="fill:none;stroke:#33cc7b;stroke-width:12.5px;"/>
  <path d="M80.77,-1041.75l1039.55,-0" style="fill:none;stroke:#33cc7b;stroke-width:12.5px;"/>
  <path d="M96.787,459.965l1209.21,0" style="fill:none;stroke:#0dcaf2;stroke-width:12.5px;"/>
  <path d="M395.217,643.546l534.611,-183.581" style="fill:none;stroke:#0dcaf2;stroke-width:12.5px;"/>
  <path d="M1011.25,646.707l-81.427,-186.742" style="fill:none;stroke:#0dcaf2;stroke-width:12.5px;"/>
  <path d="M704.041,99.446l618.608,365.774l-618.608,365.775l-618.608,-365.775l618.608,-365.774Z" style="fill:none;stroke:#0dcaf2;stroke-width:12.5px;stroke-miterlimit:14;"/>
</svg>
