<?xml version="1.0" encoding="UTF-8" standalone="no"?>
<!DOCTYPE svg PUBLIC "-//W3C//DTD SVG 1.1//EN" "http://www.w3.org/Graphics/SVG/1.1/DTD/svg11.dtd">
<svg width="256" height="200" viewBox="0 0 791 600" version="1.1" xmlns="http://www.w3.org/2000/svg" xmlns:xlink="http://www.w3.org/1999/xlink" xml:space="preserve" xmlns:serif="http://www.serif.com/" style="fill-rule:evenodd;clip-rule:evenodd;stroke-linejoin:round;stroke-miterlimit:2;">
    <g>
        <g>
            <path id="MJX-51-NCM-I-1D434" d="M11.519,74.61c1.111,0 4.939,0.186 6.112,0.186c0.926,-0 1.358,-0.494 1.358,-1.42c-0,-0.556 -0.371,-0.926 -1.173,-0.988c-1.791,-0.062 -2.655,-0.679 -2.655,-1.852c0,-0.556 0.556,-1.79 1.729,-3.643c1.667,-2.778 2.84,-4.815 3.642,-6.173l15.002,-0c-0,0.432 0.061,1.296 0.247,2.655c0.432,4.506 0.679,6.976 0.679,7.284c-0,1.173 -1.358,1.729 -4.136,1.729c-1.173,-0 -1.729,0.494 -1.729,1.482c-0,0.617 0.37,0.926 1.111,0.926c1.482,-0 6.174,-0.186 7.655,-0.186c1.235,0 5.618,0.186 6.853,0.186c0.926,-0 1.358,-0.494 1.358,-1.482c0,-0.617 -0.556,-0.926 -1.667,-0.926c-1.728,-0 -2.778,-0.124 -3.087,-0.309c-0.308,-0.185 -0.555,-0.741 -0.617,-1.667l-3.704,-38.152c-0.185,-1.173 -0.123,-1.667 -1.42,-1.667c-0.741,0 -1.358,0.371 -1.79,1.173l-21.237,35.621c-1.852,3.087 -4.321,4.754 -7.346,5.001c-0.988,0.062 -1.482,0.556 -1.482,1.482c-0,0.617 0.37,0.926 1.049,0.926c0.988,-0 4.26,-0.186 5.248,-0.186m21.916,-35.435l1.852,19.137l-13.273,0l11.421,-19.137Z" style="fill:#0dcaf2;fill-rule:nonzero;stroke:#1e3a5f;stroke-width:1px;"/>
        </g>
    </g>
    <g>
        <g>
            <path id="MJX-51-NCM-I-1D436" d="M752.279,483.798c-0,-7.902 3.457,-15.927 7.346,-20.372c3.148,-3.642 8.581,-7.285 14.693,-7.285c6.42,0 9.569,4.877 9.569,11.545c-0,0.555 -0.185,2.531 -0.185,3.086c-0,0.556 0.37,0.865 1.173,0.865c0.308,-0 0.555,-0.062 0.74,-0.124c0.309,-0.432 0.494,-0.864 0.618,-1.296l3.827,-15.619c0,-0.556 -0.308,-0.864 -0.926,-0.864c-0.247,-0 -0.617,0.246 -1.111,0.802l-4.013,4.507c-2.407,-3.519 -5.803,-5.309 -10.186,-5.309c-3.395,-0 -6.729,0.802 -10.124,2.345c-6.853,3.211 -11.854,8.273 -15.064,15.187c-1.605,3.396 -2.407,6.853 -2.407,10.372c-0,4.939 1.543,8.951 4.691,12.161c3.149,3.211 7.162,4.816 12.1,4.816c4.877,-0 9.322,-1.79 13.335,-5.309c1.667,-1.42 3.087,-3.149 4.26,-5.063c1.667,-2.778 2.531,-4.692 2.531,-5.864c0,-0.556 -0.309,-0.865 -0.988,-0.865c-0.555,0 -0.864,0.247 -0.988,0.803c-1.296,4.013 -3.333,7.223 -6.111,9.507c-3.519,2.902 -7.223,4.383 -11.051,4.383c-7.408,0 -11.729,-5 -11.729,-12.409Z" style="fill:#0dcaf2;fill-rule:nonzero;stroke:#1e3a5f;stroke-width:1px;"/>
        </g>
    </g>
    <g>
        <g>
            <path id="MJX-51-NCM-I-1D437" d="M33.034,455.576l-20.496,0c-1.42,0 -2.099,0.062 -2.099,1.42c0,0.679 0.679,0.988 2.038,0.988c1.234,0 3.704,-0.185 3.704,0.803c-0,0.123 -0.062,0.494 -0.247,1.111l-8.149,32.781c-0.309,1.358 -0.926,2.161 -1.852,2.47c-0.432,0.123 -1.544,0.185 -3.457,0.185c-1.359,-0 -1.976,0.123 -1.976,1.42c0,0.679 0.679,0.987 1.976,0.987l20.187,0c4.198,0 8.211,-1.234 12.1,-3.765c6.606,-4.26 12.902,-12.594 12.902,-22.719c0,-9.137 -5.617,-15.681 -14.631,-15.681m8.828,13.397c0,6.976 -3.148,15.434 -6.358,19.57c-3.519,4.507 -8.149,6.791 -13.952,6.791l-6.853,-0c-0.679,-0 -1.111,-0 -1.358,-0.062c-0.371,0 -0.556,-0.123 -0.556,-0.309c0,-0.123 0.124,-0.555 0.309,-1.358l8.334,-33.522c0.556,-2.037 0.494,-2.099 3.087,-2.099l6.544,0c6.914,0 10.803,4.075 10.803,10.989Z" style="fill:#0dcaf2;fill-rule:nonzero;stroke:#1e3a5f;stroke-width:1px;"/>
        </g>
    </g>
    <g>
        <g>
            <path id="MJX-51-NCM-I-1D438" d="M120.281,2.442c-0,0.618 0.679,0.926 1.975,0.926c2.47,0 3.704,0.247 3.704,0.803c0,0.185 -0.123,0.617 -0.308,1.42l-8.026,32.287c-0.308,1.358 -0.926,2.161 -1.852,2.47c-0.432,0.123 -1.543,0.185 -3.457,0.185c-1.358,-0 -1.976,0.123 -1.976,1.42c0,0.679 0.68,0.988 1.976,0.988l31.67,-0c1.482,-0 1.605,-0.124 2.099,-1.173l2.469,-5.557c1.667,-3.827 2.84,-6.667 3.519,-8.581c-0.123,-0.555 -0.308,-0.926 -0.987,-0.926c-0.433,0 -0.803,0.309 -1.05,0.865c-1.543,3.642 -3.025,6.42 -4.507,8.396c-2.469,3.333 -6.111,4.568 -11.914,4.568l-8.952,-0c-0.617,-0 -1.05,-0 -1.296,-0.062c-0.371,0 -0.556,-0.123 -0.556,-0.309c-0,-0.123 0.123,-0.555 0.309,-1.358l4.074,-16.483l5.865,0c2.901,0 4.445,0.37 4.754,1.173c0.123,0.309 0.185,0.741 0.185,1.358c-0,0.803 -0.124,1.791 -0.432,2.963c-0.124,0.309 -0.186,0.556 -0.186,0.741c0,0.618 0.371,0.926 1.05,0.926c0.555,0 0.926,-0.494 1.173,-1.42l3.457,-14.322c-0,-0.617 -0.309,-0.926 -0.988,-0.926c-0.494,-0 -0.864,0.432 -1.049,1.296c-0.618,2.408 -1.42,3.951 -2.47,4.692c-1.049,0.741 -2.778,1.111 -5.309,1.111l-5.433,0l3.581,-14.384c0.494,-2.099 0.494,-2.161 3.087,-2.161l8.581,0c3.148,0 5.309,0.309 6.482,0.926c1.729,0.927 2.593,2.779 2.593,5.557c0,1.049 -0.062,2.16 -0.247,3.21c0,0.123 0,0.309 -0.062,0.555l0,0.556c0,0.679 0.309,0.988 0.926,0.988c0.618,-0 0.988,-0.556 1.112,-1.729l1.234,-10.556c0.185,-1.729 -0.247,-1.914 -1.913,-1.914l-30.806,-0c-1.42,-0 -2.099,0.062 -2.099,1.481Z" style="fill:#0dcaf2;fill-rule:nonzero;stroke:#1e3a5f;stroke-width:1px;"/>
        </g>
    </g>
    <g>
        <g>
            <path d="M756.615,35.506c-1.064,-0 -1.695,-0.02 -1.892,-0.059c-0.197,-0.04 -0.296,-0.257 -0.296,-0.651c-0,-1.064 0.217,-1.715 0.65,-1.951c0.04,-0.04 2.603,-0.06 7.689,-0.06c10.211,0 15.593,0.04 16.145,0.119c2.484,0.394 4.554,1.281 6.21,2.661c1.656,1.38 2.503,3.194 2.543,5.441c-0,2.523 -1.143,4.79 -3.43,6.801c-2.287,2.011 -4.909,3.371 -7.866,4.081l-0.591,0.177c2.523,0.355 4.593,1.262 6.209,2.721c1.617,1.458 2.445,3.272 2.484,5.441c0,2.878 -1.419,5.657 -4.258,8.338c-2.839,2.681 -6.328,4.199 -10.468,4.554c-0.276,0.04 -4.435,0.059 -12.478,0.059c-7.886,0 -11.888,-0.039 -12.006,-0.118c-0.158,-0.118 -0.236,-0.276 -0.236,-0.473c-0,-0.276 0.039,-0.552 0.118,-0.828c0.197,-0.749 0.394,-1.163 0.591,-1.242c0.158,-0.039 0.454,-0.059 0.887,-0.059l0.355,-0c1.065,-0 2.248,-0.059 3.549,-0.178c0.552,-0.118 0.926,-0.354 1.123,-0.709c0.119,-0.158 1.538,-5.638 4.258,-16.441c2.721,-10.803 4.081,-16.5 4.081,-17.092c0,-0.276 -1.124,-0.453 -3.371,-0.532Zm24.721,5.5c-0,-1.183 -0.296,-2.287 -0.887,-3.312c-0.592,-1.025 -1.558,-1.695 -2.898,-2.011c-0.276,-0.079 -2.09,-0.138 -5.441,-0.177l-2.484,-0c-0.867,-0 -1.557,0.02 -2.07,0.059l-0.769,0c-0.591,0.039 -0.966,0.237 -1.123,0.591c-0.079,0.158 -0.71,2.524 -1.893,7.097c0,0.119 -0.02,0.237 -0.059,0.355l-1.833,7.452l4.79,-0c3.194,-0 5.027,-0.04 5.5,-0.118c2.366,-0.395 4.475,-1.538 6.328,-3.431c1.853,-1.892 2.799,-4.061 2.839,-6.505Zm-3.194,18.629c0,-1.735 -0.453,-3.174 -1.36,-4.317c-0.907,-1.143 -2.09,-1.814 -3.548,-2.011c-0.237,-0.039 -1.873,-0.059 -4.909,-0.059c-4.652,0 -6.998,0.02 -7.038,0.059c0,0.079 -0.335,1.518 -1.005,4.317c-0.67,2.8 -1.36,5.579 -2.07,8.339l-1.065,4.14c0,0.158 0.237,0.237 0.71,0.237c0.473,-0 2.07,0.039 4.79,0.118c3.509,-0 5.402,-0.02 5.678,-0.059c2.444,-0.276 4.692,-1.42 6.742,-3.43c2.05,-2.011 3.075,-4.456 3.075,-7.334Z" style="fill:#0dcaf2;fill-rule:nonzero;stroke:#1e3a5f;stroke-width:0.83px;stroke-linejoin:miter;stroke-miterlimit:4;"/>
        </g>
    </g>
    <g>
        <g>
            <g>
                <path id="MJX-163-NCM-I-1D439" d="M434.168,1.977c-0,0.65 0.729,0.975 2.122,0.975c2.653,-0 3.979,0.26 3.979,0.845c0,0.195 -0.132,0.65 -0.331,1.495l-8.622,33.996c-0.398,1.43 -1.061,2.275 -1.99,2.6c-0.464,0.13 -1.658,0.195 -3.713,0.195c-1.459,0 -2.123,0.13 -2.123,1.495c0,0.715 0.398,1.04 1.26,1.04l8.622,-0.195l9.815,0.195c1.061,0 1.592,-0.52 1.592,-1.495c0,-1.105 -0.73,-1.04 -2.454,-1.04c-2.918,0 -4.576,-0.13 -4.974,-0.455c-0.199,-0.065 -0.265,-0.325 -0.265,-0.65l4.244,-17.226l6.168,0c3.051,0 5.173,0.13 5.173,2.601c0,0.845 -0.133,1.885 -0.464,3.12c-0.066,0.195 -0.133,0.455 -0.199,0.715c-0,0.715 0.331,1.04 1.061,1.04c0.332,-0.065 0.796,-0.52 1.26,-1.495l3.581,-13.976c0.133,-0.52 0.199,-0.91 0.199,-1.105c-0.199,-0.585 -0.597,-0.91 -1.061,-0.91c-0.53,0 -0.928,0.52 -1.194,1.495c-0.663,2.47 -1.591,4.03 -2.652,4.81c-1.061,0.78 -2.918,1.17 -5.571,1.17l-5.637,0l4.111,-15.99c0.531,-2.21 0.531,-2.275 3.316,-2.275l8.622,-0c6.433,-0 9.351,0.975 9.351,6.76c0,1.3 -0.066,2.47 -0.199,3.445c-0.066,0.715 -0.133,1.105 -0.133,1.17c0,0.715 0.332,1.04 0.995,1.04c0.663,0 1.061,-0.585 1.194,-1.82l1.326,-11.115c0.199,-1.82 -0.265,-2.015 -2.055,-2.015l-32.099,-0c-1.526,-0 -2.255,0.065 -2.255,1.56Z" style="fill:#0dcaf2;fill-rule:nonzero;stroke:#1e3a5f;stroke-width:0.83px;"/>
            </g>
        </g>
    </g>
    <g>
        <path id="MJX-245-NCM-I-1D442" d="M336.56,233.248c1.52,-3.467 2.311,-6.934 2.311,-10.461c-0,-4.744 -1.399,-8.637 -4.257,-11.739c-2.859,-3.101 -6.63,-4.683 -11.313,-4.683c-3.224,0 -6.447,0.791 -9.671,2.372c-6.568,3.224 -11.373,8.333 -14.475,15.266c-1.521,3.406 -2.311,6.812 -2.311,10.279c-0,4.805 1.399,8.697 4.257,11.738c2.859,3.041 6.63,4.562 11.374,4.562c3.162,-0 6.325,-0.791 9.549,-2.311c6.629,-3.224 11.434,-8.272 14.536,-15.023m-3.528,-12.833c0,8.089 -3.649,16.178 -7.542,20.983c-2.676,3.345 -7.298,7.116 -12.65,7.116c-6.508,0 -9.914,-5.656 -9.914,-12.529c-0,-2.129 0.426,-4.987 1.216,-8.454c1.642,-7.177 5.778,-13.502 11.191,-16.787c2.616,-1.581 5.17,-2.372 7.603,-2.372c6.569,0 10.096,5.231 10.096,12.043Z" style="fill:#0dcaf2;fill-rule:nonzero;stroke:#1e3a5f;stroke-width:1px;"/>
    </g>
    <path d="M435.162,53.764l-370.631,418.225" style="fill:none;stroke:#0dcaf2;stroke-width:8.75px;stroke-linecap:round;stroke-miterlimit:1.5;"/>
    <path d="M729.124,472.706l-600.651,-418.217" style="fill:none;stroke:#0dcaf2;stroke-width:8.75px;stroke-linecap:round;stroke-miterlimit:1.5;"/>
    <text x="242.572px" y="585.987px" style="font-family:'ArialMT', 'Arial', sans-serif;font-size:62.1px;fill:#1e3a5f;">Figure 6–35</text>
    <rect x="60.544" y="53.308" width="672.41" height="422.255" style="fill:none;stroke:#0dcaf2;stroke-width:8.75px;stroke-linecap:round;stroke-miterlimit:14;"/>
    <path id="MJX-230-NCM-N-32" d="M301.022,87.834c-2.476,-0 -4.564,0.874 -6.361,2.622c-1.797,1.748 -2.72,3.788 -2.72,6.264c0,1.651 1.214,2.865 2.72,2.865c1.457,0 2.671,-1.262 2.671,-2.719c-0,-1.603 -1.166,-2.719 -2.72,-2.719c-0.145,-0 -0.243,-0 -0.34,0.048c0.923,-2.379 3.06,-4.467 6.119,-4.467c3.982,-0 6.216,3.447 6.216,7.624c-0,3.253 -1.652,6.749 -4.954,10.44l-9.129,10.295c-0.631,0.728 -0.583,0.679 -0.583,2.088l18.016,-0l1.408,-8.741l-1.602,-0c-0.389,2.476 -0.728,3.885 -1.02,4.322c-0.243,0.243 -1.699,0.34 -4.37,0.34l-8.11,-0l4.711,-4.614c3.302,-3.107 7.478,-6.458 8.886,-9.032c0.971,-1.699 1.457,-3.399 1.457,-5.098c-0,-5.731 -4.468,-9.518 -10.295,-9.518Z" style="fill:#0dcaf2;fill-rule:nonzero;stroke:#1e3a5f;stroke-width:1px;"/>
    <path id="MJX-230-NCM-N-35" d="M152.786,219.384c0.243,-0 0.534,-0.194 0.777,-0.534c1.457,-2.185 3.448,-3.254 5.973,-3.254c1.7,0 3.011,0.971 3.885,2.962c0.534,1.311 0.825,3.302 0.825,5.973c0,3.06 -0.388,5.196 -1.117,6.459c-1.214,1.991 -2.865,3.01 -4.953,3.01c-3.253,0 -5.827,-2.33 -6.701,-4.856c0.146,0.049 0.243,0 0.437,0c1.457,0 2.671,-1.116 2.671,-2.573c-0,-1.506 -1.214,-2.525 -2.671,-2.525c-1.7,-0 -2.428,0.922 -2.428,2.719c0,4.856 3.933,8.984 8.789,8.984c2.963,-0 5.488,-1.069 7.527,-3.205c2.04,-2.137 3.059,-4.711 3.059,-7.673c0,-2.816 -0.825,-5.244 -2.476,-7.332c-1.797,-2.283 -4.031,-3.4 -6.75,-3.4c-2.282,0 -4.273,0.729 -5.876,2.186l0,-8.644c1.311,0.388 2.574,0.583 3.885,0.583c2.234,-0 4.176,-0.534 5.827,-1.651c1.506,-0.923 2.525,-1.846 3.108,-2.72c0.291,-0.388 0.437,-0.68 0.437,-0.825c0,-0.486 -0.243,-0.729 -0.728,-0.729c-2.671,1.02 -4.953,1.554 -6.799,1.554c-2.185,0 -4.273,-0.437 -6.264,-1.359c-0.243,-0.097 -0.437,-0.146 -0.631,-0.146c-0.437,-0 -0.68,0.437 -0.68,1.36l0,14.179c0,1.02 0,1.457 0.874,1.457Z" style="fill:#0dcaf2;fill-rule:nonzero;stroke:#1e3a5f;stroke-width:1px;"/>
    <path id="MJX-230-NCM-N-38" d="M344.256,332.935c-2.38,-0 -4.468,0.777 -6.216,2.331c-1.748,1.553 -2.622,3.496 -2.622,5.875c-0,1.991 0.728,3.788 2.185,5.39c0.34,0.389 1.408,1.214 3.205,2.477c-4.419,2.282 -6.653,5.244 -6.653,8.838c0,2.574 1.068,4.662 3.157,6.264c1.942,1.505 4.224,2.234 6.895,2.234c2.719,-0 5.099,-0.874 7.09,-2.622c1.991,-1.749 3.01,-4.031 3.01,-6.702c0,-2.233 -0.776,-4.224 -2.379,-6.021c-0.583,-0.631 -2.088,-1.748 -4.467,-3.254c3.739,-1.991 5.584,-4.516 5.584,-7.478c-0,-4.419 -4.225,-7.332 -8.789,-7.332m6.264,7.332c-0,2.525 -1.506,4.711 -4.516,6.507l-5.779,-3.787c-1.505,-0.972 -2.282,-2.234 -2.282,-3.74c-0,-2.913 3.156,-4.71 6.264,-4.71c3.351,0 6.313,2.38 6.313,5.73m-6.264,24.329c-3.982,-0 -7.333,-2.865 -7.333,-6.75c0,-3.254 1.797,-5.876 5.39,-7.867l5.73,3.642c2.331,1.506 3.497,3.205 3.497,5.148c-0,3.496 -3.642,5.827 -7.284,5.827Z" style="fill:#0dcaf2;fill-rule:nonzero;stroke:#1e3a5f;stroke-width:1px;"/>
</svg>
