<?xml version="1.0" encoding="UTF-8" standalone="no"?>
<!DOCTYPE svg PUBLIC "-//W3C//DTD SVG 1.1//EN" "http://www.w3.org/Graphics/SVG/1.1/DTD/svg11.dtd">
<svg width="226" height="168" viewBox="0 0 1200 953" version="1.1" xmlns="http://www.w3.org/2000/svg" xmlns:xlink="http://www.w3.org/1999/xlink" xml:space="preserve" xmlns:serif="http://www.serif.com/" style="fill-rule:evenodd;clip-rule:evenodd;stroke-linecap:round;stroke-linejoin:round;stroke-miterlimit:1.5;">
    <path d="M74.43,713.869l575.617,0.095l102.546,-288.662l-447.733,-361.717l-230.43,650.284Z" style="fill:#0dcaf2;fill-opacity:0.35;"/>
    <g transform="matrix(100,0,0,100,280.742,71.582)">
    </g>
    <text x="214.043px" y="71.582px" style="font-family:'ArialMT', 'Arial', sans-serif;font-size:100px;fill:#8dcc33;">A</text>
    <g transform="matrix(100,0,0,100,776.2,371.546)">
    </g>
    <text x="698.416px" y="371.546px" style="font-family:'ArialMT', 'Arial', sans-serif;font-size:100px;fill:#8dcc33;">O</text>
    <g transform="matrix(100,0,0,100,683.311,808.672)">
    </g>
    <text x="611.095px" y="808.672px" style="font-family:'ArialMT', 'Arial', sans-serif;font-size:100px;fill:#8dcc33;">C</text>
    <g transform="matrix(100,0,0,100,982.068,74.3938)">
    </g>
    <text x="909.851px" y="74.394px" style="font-family:'ArialMT', 'Arial', sans-serif;font-size:100px;fill:#8dcc33;">D</text>
    <g transform="matrix(100,0,0,100,1205.19,778.335)">
    </g>
    <text x="1138.49px" y="778.335px" style="font-family:'ArialMT', 'Arial', sans-serif;font-size:100px;fill:#8dcc33;">E</text>
    <g transform="matrix(100,0,0,100,59.375,775.011)">
    </g>
    <text x="-7.324px" y="775.011px" style="font-family:'ArialMT', 'Arial', sans-serif;font-size:100px;fill:#8dcc33;">B</text>
    <g transform="matrix(100,0,0,100,889.911,931.196)">
    </g>
    <text x="356.22px" y="931.196px" style="font-family:'ArialMT', 'Arial', sans-serif;font-size:100px;fill:#1e3a5f;">Figure 6–34</text>
    <path d="M892.938,52.056l235.526,666.388" style="fill:none;stroke:#0dcaf2;stroke-width:12.5px;"/>
    <path d="M66.291,718.601l236.096,-666.545" style="fill:none;stroke:#0dcaf2;stroke-width:12.5px;"/>
    <path d="M654.91,718.601l236.097,-666.545" style="fill:none;stroke:#0dcaf2;stroke-width:12.5px;"/>
    <path d="M1118.43,713.364l-811.785,-656.298" style="fill:none;stroke:#0dcaf2;stroke-width:12.5px;"/>
    <path d="M1128.81,720.088l-1062.99,0" style="fill:none;stroke:#0dcaf2;stroke-width:12.5px;"/>
    <path d="M892.938,52.056l-590.551,0" style="fill:none;stroke:#0dcaf2;stroke-width:12.5px;"/>
</svg>
