<?xml version="1.0" encoding="UTF-8" standalone="no"?>
<!DOCTYPE svg PUBLIC "-//W3C//DTD SVG 1.1//EN" "http://www.w3.org/Graphics/SVG/1.1/DTD/svg11.dtd">
<svg width="256" height="256" viewBox="0 0 1157 1325" version="1.1" xmlns="http://www.w3.org/2000/svg" xmlns:xlink="http://www.w3.org/1999/xlink" xml:space="preserve" xmlns:serif="http://www.serif.com/" style="fill-rule:evenodd;clip-rule:evenodd;stroke-linecap:round;stroke-linejoin:round;stroke-miterlimit:1.5;">
    <g transform="matrix(100,0,0,100,1151.63,77.5123)">
    </g>
  <text x="1090.55px" y="77.512px" style="font-family:'ArialMT', 'Arial', sans-serif;font-size:100px;fill:#8dcc33;">F</text>
  <g transform="matrix(100,0,0,100,70.1409,72.8027)">
    </g>
  <text x="-2.076px" y="72.803px" style="font-family:'ArialMT', 'Arial', sans-serif;font-size:100px;fill:#8dcc33;">C</text>
  <g transform="matrix(100,0,0,100,68.1749,1094.8)">
    </g>
  <text x="-4.042px" y="1094.8px" style="font-family:'ArialMT', 'Arial', sans-serif;font-size:100px;fill:#8dcc33;">D</text>
  <g transform="matrix(100,0,0,100,1162.22,1096.43)">
    </g>
  <text x="1095.53px" y="1096.43px" style="font-family:'ArialMT', 'Arial', sans-serif;font-size:100px;fill:#8dcc33;">E</text>
  <g transform="matrix(100,0,0,100,72.4609,434.117)">
    </g>
  <text x="-5.322px" y="434.117px" style="font-family:'ArialMT', 'Arial', sans-serif;font-size:100px;fill:#8dcc33;">G</text>
  <g transform="matrix(100,0,0,100,457.273,1142.99)">
    </g>
  <text x="385.056px" y="1142.99px" style="font-family:'ArialMT', 'Arial', sans-serif;font-size:100px;fill:#8dcc33;">H</text>
  <g transform="matrix(100,0,0,100,863.181,1303.58)">
    </g>
  <text x="329.489px" y="1303.58px" style="font-family:'ArialMT', 'Arial', sans-serif;font-size:100px;fill:#1e3a5f;">Figure 6–26</text>
  <path d="M-643.336,-993.606l528.179,-366.763" style="fill:none;stroke:#33cc7b;stroke-width:12.5px;"/>
  <path d="M-906.04,2922.79l935.899,735.864" style="fill:none;stroke:#ff7bac;stroke-width:8.33px;stroke-dasharray:25,25,0,0,0,0;"/>
  <path d="M332.413,-1061.92l1039.55,-0" style="fill:none;stroke:#33cc7b;stroke-width:12.5px;"/>
  <rect x="85.578" y="59.242" width="988.923" height="989.641" style="fill:none;stroke:#0dcaf2;stroke-width:12.5px;"/>
  <path d="M1068.76,712.223l-331.654,-645.418l-645.418,331.654l331.654,645.419l645.418,-331.655Z" style="fill:none;stroke:#0dcaf2;stroke-width:12.5px;"/>
</svg>
