<?xml version="1.0" encoding="UTF-8" standalone="no"?>
<!DOCTYPE svg PUBLIC "-//W3C//DTD SVG 1.1//EN" "http://www.w3.org/Graphics/SVG/1.1/DTD/svg11.dtd">
<svg width="168" height="286" viewBox="0 0 796 1289" version="1.1" xmlns="http://www.w3.org/2000/svg" xmlns:xlink="http://www.w3.org/1999/xlink" xml:space="preserve" xmlns:serif="http://www.serif.com/" style="fill-rule:evenodd;clip-rule:evenodd;stroke-linecap:round;stroke-linejoin:round;stroke-miterlimit:1.5;">
    <g transform="matrix(100,0,0,100,434.448,72.8027)">
    </g>
  <text x="362.231px" y="72.803px" style="font-family:'ArialMT', 'Arial', sans-serif;font-size:100px;fill:#8dcc33;">C</text>
  <g transform="matrix(100,0,0,100,800.792,681.068)">
    </g>
  <text x="734.093px" y="681.068px" style="font-family:'ArialMT', 'Arial', sans-serif;font-size:100px;fill:#8dcc33;">B</text>
  <g transform="matrix(100,0,0,100,66.8457,678.997)">
    </g>
  <text x="0.146px" y="678.997px" style="font-family:'ArialMT', 'Arial', sans-serif;font-size:100px;fill:#8dcc33;">A</text>
  <g transform="matrix(100,0,0,100,436.493,1287.64)">
    </g>
  <text x="364.277px" y="1287.63px" style="font-family:'ArialMT', 'Arial', sans-serif;font-size:100px;fill:#0dcaf2;">C</text>
  <path d="M76.155,642.885l321.515,-556.882" style="fill:none;stroke:#33cc7b;stroke-width:12.5px;"/>
  <path d="M78.111,643.504l643.031,-0" style="fill:none;stroke:#33cc7b;stroke-width:12.5px;"/>
  <path d="M402.412,86.003l321.516,556.882" style="fill:none;stroke:#33cc7b;stroke-width:12.5px;"/>
  <path d="M76.155,644.933l321.515,556.881" style="fill:none;stroke:#0dcaf2;stroke-width:12.5px;"/>
  <path d="M402.412,1201.81l321.516,-556.881" style="fill:none;stroke:#0dcaf2;stroke-width:12.5px;"/>
  <path d="M544.458,371.326l37.636,-16.259" style="fill:none;stroke:#ff7bac;stroke-width:6.25px;"/>
  <path d="M210.562,367.039l39.171,12.104" style="fill:none;stroke:#ff7bac;stroke-width:6.25px;"/>
  <path d="M420.266,623.577l-1.553,40.969" style="fill:none;stroke:#ff7bac;stroke-width:6.25px;"/>
  <path d="M550.336,384.932l37.636,-16.259" style="fill:none;stroke:#ff7bac;stroke-width:6.25px;"/>
  <path d="M206.186,381.199l39.171,12.104" style="fill:none;stroke:#ff7bac;stroke-width:6.25px;"/>
  <path d="M405.456,623.016l-1.553,40.969" style="fill:none;stroke:#ff7bac;stroke-width:6.25px;"/>
</svg>
