<?xml version="1.0" encoding="UTF-8" standalone="no"?>
<!DOCTYPE svg PUBLIC "-//W3C//DTD SVG 1.1//EN" "http://www.w3.org/Graphics/SVG/1.1/DTD/svg11.dtd">
<svg width="168" height="188" viewBox="0 0 797 797" version="1.1" xmlns="http://www.w3.org/2000/svg" xmlns:xlink="http://www.w3.org/1999/xlink" xml:space="preserve" xmlns:serif="http://www.serif.com/" style="fill-rule:evenodd;clip-rule:evenodd;stroke-linecap:round;stroke-linejoin:round;stroke-miterlimit:1.5;">
    <path d="M6.25,398.176l783.852,-0" style="fill:none;stroke:#8dcc33;stroke-width:12.5px;"/>
  <path d="M398.176,6.25l-0,783.852" style="fill:none;stroke:#8dcc33;stroke-width:12.5px;"/>
  <path d="M398.22,190.651c114.722,-0 207.861,93.139 207.861,207.861c0,114.722 -93.139,207.862 -207.861,207.862c-114.722,-0 -207.862,-93.14 -207.862,-207.862c-0,-114.722 93.14,-207.861 207.862,-207.861Zm-0,12.5c-107.823,-0 -195.362,87.538 -195.362,195.361c-0,107.823 87.539,195.362 195.362,195.362c107.823,-0 195.361,-87.539 195.361,-195.362c0,-107.823 -87.538,-195.361 -195.361,-195.361Z" style="fill:#90c;"/>
</svg>
