<?xml version="1.0" encoding="UTF-8" standalone="no"?>
<!DOCTYPE svg PUBLIC "-//W3C//DTD SVG 1.1//EN" "http://www.w3.org/Graphics/SVG/1.1/DTD/svg11.dtd">
<svg width="670" height="328" viewBox="0 0 1489 693" version="1.1" xmlns="http://www.w3.org/2000/svg" xmlns:xlink="http://www.w3.org/1999/xlink" xml:space="preserve" xmlns:serif="http://www.serif.com/" style="fill-rule:evenodd;clip-rule:evenodd;stroke-linecap:round;stroke-linejoin:round;stroke-miterlimit:1.5;">
    <path d="M121.505,151.241l-82.178,-74.463" style="fill:none;stroke:#8dcc33;stroke-width:6.25px;"/>
  <path d="M615.385,151.241l-82.177,-74.463" style="fill:none;stroke:#8dcc33;stroke-width:6.25px;"/>
  <path d="M1119.63,151.241l-82.177,-74.463" style="fill:none;stroke:#8dcc33;stroke-width:6.25px;"/>
  <path d="M204.124,304.83l-82.178,-74.462" style="fill:none;stroke:#8dcc33;stroke-width:6.25px;"/>
  <path d="M698.004,304.83l-82.178,-74.462" style="fill:none;stroke:#8dcc33;stroke-width:6.25px;"/>
  <path d="M1202.25,304.83l-82.177,-74.462" style="fill:none;stroke:#8dcc33;stroke-width:6.25px;"/>
  <path d="M780.302,458.284l-82.177,-74.463" style="fill:none;stroke:#8dcc33;stroke-width:6.25px;"/>
  <path d="M1284.55,458.284l-82.178,-74.463" style="fill:none;stroke:#8dcc33;stroke-width:6.25px;"/>
  <path d="M861.839,611.228l-82.177,-74.462" style="fill:none;stroke:#8dcc33;stroke-width:6.25px;"/>
  <path d="M1366.09,611.228l-82.177,-74.462" style="fill:none;stroke:#8dcc33;stroke-width:6.25px;"/>
  <path d="M121.866,150.971l82.949,-74.028" style="fill:none;stroke:#8dcc33;stroke-width:6.25px;"/>
  <path d="M615.746,150.971l82.949,-74.028" style="fill:none;stroke:#8dcc33;stroke-width:6.25px;"/>
  <path d="M1120,150.971l82.95,-74.028" style="fill:none;stroke:#8dcc33;stroke-width:6.25px;"/>
  <path d="M204.484,304.56l82.95,-74.028" style="fill:none;stroke:#8dcc33;stroke-width:6.25px;"/>
  <path d="M698.364,304.56l82.95,-74.028" style="fill:none;stroke:#8dcc33;stroke-width:6.25px;"/>
  <path d="M1202.62,304.56l82.949,-74.028" style="fill:none;stroke:#8dcc33;stroke-width:6.25px;"/>
  <path d="M780.663,458.014l82.95,-74.029" style="fill:none;stroke:#8dcc33;stroke-width:6.25px;"/>
  <path d="M1284.91,458.014l82.95,-74.029" style="fill:none;stroke:#8dcc33;stroke-width:6.25px;"/>
  <path d="M862.2,610.958l82.949,-74.028" style="fill:none;stroke:#8dcc33;stroke-width:6.25px;"/>
  <path d="M1366.45,610.958l82.95,-74.028" style="fill:none;stroke:#8dcc33;stroke-width:6.25px;"/>
  <path d="M-970.071,-1606.43l-254.083,367.547" style="fill:none;stroke:#0dcaf2;stroke-width:6.25px;"/>
  <path d="M-1202.47,-1270.25l-19.704,28.502" style="fill:none;stroke:#0dcaf2;stroke-width:6.25px;"/>
  <rect x="4.167" y="4.167" width="70.362" height="70.362" style="fill:none;stroke:#8dcc33;stroke-width:8.33px;stroke-linecap:square;stroke-miterlimit:4;"/>
  <rect x="498.047" y="4.167" width="70.362" height="70.362" style="fill:none;stroke:#8dcc33;stroke-width:8.33px;stroke-linecap:square;stroke-miterlimit:4;"/>
  <rect x="1002.3" y="4.167" width="70.362" height="70.362" style="fill:none;stroke:#8dcc33;stroke-width:8.33px;stroke-linecap:square;stroke-miterlimit:4;"/>
  <rect x="169.571" y="310.851" width="70.362" height="70.362" style="fill:none;stroke:#1e90ff;stroke-width:8.33px;stroke-linecap:square;stroke-miterlimit:4;"/>
  <rect x="826.626" y="617.501" width="70.362" height="70.362" style="fill:none;stroke:#1e90ff;stroke-width:8.33px;stroke-linecap:square;stroke-miterlimit:4;"/>
  <rect x="1330.88" y="617.501" width="70.362" height="70.362" style="fill:none;stroke:#1e90ff;stroke-width:8.33px;stroke-linecap:square;stroke-miterlimit:4;"/>
  <rect x="86.785" y="157.756" width="70.362" height="70.362" style="fill:none;stroke:#1e90ff;stroke-width:8.33px;stroke-linecap:square;stroke-miterlimit:4;"/>
  <rect x="580.665" y="157.756" width="70.362" height="70.362" style="fill:none;stroke:#1e90ff;stroke-width:8.33px;stroke-linecap:square;stroke-miterlimit:4;"/>
  <rect x="1084.92" y="157.756" width="70.362" height="70.362" style="fill:none;stroke:#1e90ff;stroke-width:8.33px;stroke-linecap:square;stroke-miterlimit:4;"/>
  <rect x="662.964" y="311.209" width="70.362" height="70.362" style="fill:none;stroke:#1e90ff;stroke-width:8.33px;stroke-linecap:square;stroke-miterlimit:4;"/>
  <rect x="1167.21" y="311.209" width="70.362" height="70.362" style="fill:none;stroke:#1e90ff;stroke-width:8.33px;stroke-linecap:square;stroke-miterlimit:4;"/>
  <rect x="744.501" y="464.154" width="70.362" height="70.362" style="fill:none;stroke:#1e90ff;stroke-width:8.33px;stroke-linecap:square;stroke-miterlimit:4;"/>
  <rect x="1248.75" y="464.154" width="70.362" height="70.362" style="fill:none;stroke:#1e90ff;stroke-width:8.33px;stroke-linecap:square;stroke-miterlimit:4;"/>
  <rect x="169.598" y="4.167" width="70.362" height="70.362" style="fill:none;stroke:#8dcc33;stroke-width:8.33px;stroke-linecap:square;stroke-miterlimit:4;"/>
  <rect x="663.478" y="4.167" width="70.362" height="70.362" style="fill:none;stroke:#8dcc33;stroke-width:8.33px;stroke-linecap:square;stroke-miterlimit:4;"/>
  <rect x="1167.73" y="4.167" width="70.362" height="70.362" style="fill:none;stroke:#8dcc33;stroke-width:8.33px;stroke-linecap:square;stroke-miterlimit:4;"/>
  <rect x="252.217" y="157.756" width="70.362" height="70.362" style="fill:none;stroke:#8dcc33;stroke-width:8.33px;stroke-linecap:square;stroke-miterlimit:4;"/>
  <rect x="746.097" y="157.756" width="70.362" height="70.362" style="fill:none;stroke:#8dcc33;stroke-width:8.33px;stroke-linecap:square;stroke-miterlimit:4;"/>
  <rect x="1250.35" y="157.756" width="70.362" height="70.362" style="fill:none;stroke:#8dcc33;stroke-width:8.33px;stroke-linecap:square;stroke-miterlimit:4;"/>
  <rect x="828.396" y="311.209" width="70.362" height="70.362" style="fill:none;stroke:#8dcc33;stroke-width:8.33px;stroke-linecap:square;stroke-miterlimit:4;"/>
  <rect x="1332.65" y="311.209" width="70.362" height="70.362" style="fill:none;stroke:#8dcc33;stroke-width:8.33px;stroke-linecap:square;stroke-miterlimit:4;"/>
  <rect x="909.932" y="464.154" width="70.362" height="70.362" style="fill:none;stroke:#8dcc33;stroke-width:8.33px;stroke-linecap:square;stroke-miterlimit:4;"/>
  <rect x="1414.18" y="464.154" width="70.362" height="70.362" style="fill:none;stroke:#8dcc33;stroke-width:8.33px;stroke-linecap:square;stroke-miterlimit:4;"/>
  <g transform="matrix(50,0,0,50,56.0227,57.2434)">
    </g>
  <text x="22.673px" y="57.243px" style="font-family:'ArialMT', 'Arial', sans-serif;font-size:50px;fill:#8dcc33;stroke:#1e3a5f;stroke-width:0.83px;stroke-linecap:butt;stroke-miterlimit:2;">A</text>
  <g transform="matrix(50,0,0,50,549.903,57.2434)">
    </g>
  <text x="516.553px" y="57.243px" style="font-family:'ArialMT', 'Arial', sans-serif;font-size:50px;fill:#8dcc33;stroke:#1e3a5f;stroke-width:0.83px;stroke-linecap:butt;stroke-miterlimit:2;">A</text>
  <g transform="matrix(50,0,0,50,1054.15,57.2434)">
    </g>
  <text x="1020.8px" y="57.243px" style="font-family:'ArialMT', 'Arial', sans-serif;font-size:50px;fill:#8dcc33;stroke:#1e3a5f;stroke-width:0.83px;stroke-linecap:butt;stroke-miterlimit:2;">A</text>
  <g transform="matrix(50,0,0,50,221.427,363.928)">
    </g>
  <text x="188.077px" y="363.928px" style="font-family:'ArialMT', 'Arial', sans-serif;font-size:50px;fill:#8dcc33;stroke:#1e3a5f;stroke-width:0.83px;stroke-linecap:butt;stroke-miterlimit:2;">A</text>
  <g transform="matrix(50,0,0,50,878.482,670.577)">
    </g>
  <text x="845.132px" y="670.577px" style="font-family:'ArialMT', 'Arial', sans-serif;font-size:50px;fill:#8dcc33;stroke:#1e3a5f;stroke-width:0.83px;stroke-linecap:butt;stroke-miterlimit:2;">A</text>
  <g transform="matrix(50,0,0,50,1382.73,670.577)">
    </g>
  <text x="1349.38px" y="670.577px" style="font-family:'ArialMT', 'Arial', sans-serif;font-size:50px;fill:#8dcc33;stroke:#1e3a5f;stroke-width:0.83px;stroke-linecap:butt;stroke-miterlimit:2;">A</text>
  <g transform="matrix(50,0,0,50,138.641,210.832)">
    </g>
  <text x="105.292px" y="210.832px" style="font-family:'ArialMT', 'Arial', sans-serif;font-size:50px;fill:#8dcc33;stroke:#1e3a5f;stroke-width:0.83px;stroke-linecap:butt;stroke-miterlimit:2;">A</text>
  <g transform="matrix(50,0,0,50,632.521,210.832)">
    </g>
  <text x="599.172px" y="210.832px" style="font-family:'ArialMT', 'Arial', sans-serif;font-size:50px;fill:#8dcc33;stroke:#1e3a5f;stroke-width:0.83px;stroke-linecap:butt;stroke-miterlimit:2;">A</text>
  <g transform="matrix(50,0,0,50,1136.77,210.832)">
    </g>
  <text x="1103.42px" y="210.832px" style="font-family:'ArialMT', 'Arial', sans-serif;font-size:50px;fill:#8dcc33;stroke:#1e3a5f;stroke-width:0.83px;stroke-linecap:butt;stroke-miterlimit:2;">B</text>
  <g transform="matrix(50,0,0,50,717.579,364.286)">
    </g>
  <text x="681.47px" y="364.286px" style="font-family:'ArialMT', 'Arial', sans-serif;font-size:50px;fill:#8dcc33;stroke:#1e3a5f;stroke-width:0.83px;stroke-linecap:butt;stroke-miterlimit:2;">C</text>
  <g transform="matrix(50,0,0,50,1221.83,364.286)">
    </g>
  <text x="1185.72px" y="364.286px" style="font-family:'ArialMT', 'Arial', sans-serif;font-size:50px;fill:#8dcc33;stroke:#1e3a5f;stroke-width:0.83px;stroke-linecap:butt;stroke-miterlimit:2;">C</text>
  <g transform="matrix(50,0,0,50,796.357,517.231)">
    </g>
  <text x="763.007px" y="517.231px" style="font-family:'ArialMT', 'Arial', sans-serif;font-size:50px;fill:#8dcc33;stroke:#1e3a5f;stroke-width:0.83px;stroke-linecap:butt;stroke-miterlimit:2;">B</text>
  <g transform="matrix(50,0,0,50,1300.61,517.231)">
    </g>
  <text x="1267.26px" y="517.231px" style="font-family:'ArialMT', 'Arial', sans-serif;font-size:50px;fill:#8dcc33;stroke:#1e3a5f;stroke-width:0.83px;stroke-linecap:butt;stroke-miterlimit:2;">A</text>
  <g transform="matrix(50,0,0,50,220.954,57.2434)">
    </g>
  <text x="187.604px" y="57.243px" style="font-family:'ArialMT', 'Arial', sans-serif;font-size:50px;fill:#8dcc33;stroke:#1e3a5f;stroke-width:0.83px;stroke-linecap:butt;stroke-miterlimit:2;">B</text>
  <g transform="matrix(50,0,0,50,714.834,57.2434)">
    </g>
  <text x="681.484px" y="57.243px" style="font-family:'ArialMT', 'Arial', sans-serif;font-size:50px;fill:#8dcc33;stroke:#1e3a5f;stroke-width:0.83px;stroke-linecap:butt;stroke-miterlimit:2;">B</text>
  <g transform="matrix(50,0,0,50,1219.08,57.2434)">
    </g>
  <text x="1185.74px" y="57.243px" style="font-family:'ArialMT', 'Arial', sans-serif;font-size:50px;fill:#8dcc33;stroke:#1e3a5f;stroke-width:0.83px;stroke-linecap:butt;stroke-miterlimit:2;">B</text>
  <g transform="matrix(50,0,0,50,306.331,210.832)">
    </g>
  <text x="270.223px" y="210.832px" style="font-family:'ArialMT', 'Arial', sans-serif;font-size:50px;fill:#8dcc33;stroke:#1e3a5f;stroke-width:0.83px;stroke-linecap:butt;stroke-miterlimit:2;">C</text>
  <g transform="matrix(50,0,0,50,800.211,210.832)">
    </g>
  <text x="764.103px" y="210.832px" style="font-family:'ArialMT', 'Arial', sans-serif;font-size:50px;fill:#8dcc33;stroke:#1e3a5f;stroke-width:0.83px;stroke-linecap:butt;stroke-miterlimit:2;">C</text>
  <g transform="matrix(50,0,0,50,1304.46,210.832)">
    </g>
  <text x="1268.35px" y="210.832px" style="font-family:'ArialMT', 'Arial', sans-serif;font-size:50px;fill:#8dcc33;stroke:#1e3a5f;stroke-width:0.83px;stroke-linecap:butt;stroke-miterlimit:2;">C</text>
  <g transform="matrix(50,0,0,50,879.751,364.286)">
    </g>
  <text x="846.401px" y="364.286px" style="font-family:'ArialMT', 'Arial', sans-serif;font-size:50px;fill:#8dcc33;stroke:#1e3a5f;stroke-width:0.83px;stroke-linecap:butt;stroke-miterlimit:2;">B</text>
  <g transform="matrix(50,0,0,50,1384,364.286)">
    </g>
  <text x="1350.65px" y="364.286px" style="font-family:'ArialMT', 'Arial', sans-serif;font-size:50px;fill:#8dcc33;stroke:#1e3a5f;stroke-width:0.83px;stroke-linecap:butt;stroke-miterlimit:2;">A</text>
  <g transform="matrix(50,0,0,50,961.288,517.231)">
    </g>
  <text x="927.938px" y="517.231px" style="font-family:'ArialMT', 'Arial', sans-serif;font-size:50px;fill:#8dcc33;stroke:#1e3a5f;stroke-width:0.83px;stroke-linecap:butt;stroke-miterlimit:2;">A</text>
  <g transform="matrix(50,0,0,50,1465.54,517.231)">
    </g>
  <text x="1432.19px" y="517.231px" style="font-family:'ArialMT', 'Arial', sans-serif;font-size:50px;fill:#8dcc33;stroke:#1e3a5f;stroke-width:0.83px;stroke-linecap:butt;stroke-miterlimit:2;">B</text>
</svg>
