<?xml version="1.0" encoding="UTF-8" standalone="no"?>
<!DOCTYPE svg PUBLIC "-//W3C//DTD SVG 1.1//EN" "http://www.w3.org/Graphics/SVG/1.1/DTD/svg11.dtd">
<svg width="326" height="140" viewBox="0 0 954 354" version="1.1" xmlns="http://www.w3.org/2000/svg" xmlns:xlink="http://www.w3.org/1999/xlink" xml:space="preserve" xmlns:serif="http://www.serif.com/" style="fill-rule:evenodd;clip-rule:evenodd;stroke-linecap:round;stroke-linejoin:round;stroke-miterlimit:1.5;">
    <path d="M482.324,143.613l-0,198.571" style="fill:none;stroke:#9370db;stroke-width:12.5px;"/>
  <path d="M602.455,347.116l-240.263,-0" style="fill:none;stroke:#9370db;stroke-width:12.5px;"/>
  <path d="M90.326,76.544l0,62.444" style="fill:none;stroke:#9370db;stroke-width:12.5px;"/>
  <path d="M874.293,77.531l0,62.444" style="fill:none;stroke:#9370db;stroke-width:12.5px;"/>
  <g>
        <path d="M37.947,70.636l104.758,0" style="fill:none;stroke:#8dcc33;stroke-width:12.5px;"/>
    <path d="M163.398,53.985l-20.693,16.651" style="fill:none;stroke:#8dcc33;stroke-width:12.5px;"/>
    <path d="M17.377,53.985l20.694,16.651" style="fill:none;stroke:#8dcc33;stroke-width:12.5px;"/>
    </g>
  <g>
        <path d="M821.914,71.623l104.758,-0" style="fill:none;stroke:#8dcc33;stroke-width:12.5px;"/>
    <path d="M947.365,54.971l-20.693,16.652" style="fill:none;stroke:#8dcc33;stroke-width:12.5px;"/>
    <path d="M801.344,54.971l20.694,16.652" style="fill:none;stroke:#8dcc33;stroke-width:12.5px;"/>
    </g>
  <path d="M-1844.4,-782.572l-19.704,28.503" style="fill:none;stroke:#0dcaf2;stroke-width:6.25px;"/>
  <path d="M90.398,140.255l783.851,0" style="fill:none;stroke:#9370db;stroke-width:12.5px;"/>
  <g transform="matrix(50,0,0,50,934.108,46.4385)">
    </g>
  <text x="811.867px" y="46.439px" style="font-family:'ArialMT', 'Arial', sans-serif;font-size:50px;fill:#dc143c;stroke:#1e3a5f;stroke-width:0.83px;stroke-linecap:butt;stroke-miterlimit:2;">items</text>
  <g transform="matrix(50,0,0,50,179.518,36.2077)">
    </g>
  <text x="-0.194px" y="36.208px" style="font-family:'ArialMT', 'Arial', sans-serif;font-size:50px;fill:#dc143c;stroke:#1e3a5f;stroke-width:0.83px;stroke-linecap:butt;stroke-miterlimit:2;">weights</text>
</svg>
