<?xml version="1.0" encoding="UTF-8" standalone="no"?>
<!DOCTYPE svg PUBLIC "-//W3C//DTD SVG 1.1//EN" "http://www.w3.org/Graphics/SVG/1.1/DTD/svg11.dtd">
<svg width="356" height="68" viewBox="0 0 844 87" version="1.1" xmlns="http://www.w3.org/2000/svg" xmlns:xlink="http://www.w3.org/1999/xlink" xml:space="preserve" xmlns:serif="http://www.serif.com/" style="fill-rule:evenodd;clip-rule:evenodd;stroke-linecap:round;stroke-linejoin:round;stroke-miterlimit:1.5;">
    <path d="M90.791,-845.651l264.924,0" style="fill:none;stroke:#ff822e;stroke-width:6.25px;"/>
  <path d="M353.73,-1213.24l-254.083,367.548" style="fill:none;stroke:#0dcaf2;stroke-width:6.25px;"/>
  <path d="M121.332,-877.062l-19.704,28.503" style="fill:none;stroke:#0dcaf2;stroke-width:6.25px;"/>
  <g transform="matrix(66.6667,0,0,66.6667,148.116,60.7374)">
    </g>
  <text x="73.962px" y="60.737px" style="font-family:'ArialMT', 'Arial', sans-serif;font-size:66.667px;fill:#f20d5e;">on</text>
  <g transform="matrix(66.6667,0,0,66.6667,303.016,60.6561)">
    </g>
  <text x="228.862px" y="60.656px" style="font-family:'ArialMT', 'Arial', sans-serif;font-size:66.667px;fill:#f20d5e;">on</text>
  <g transform="matrix(66.6667,0,0,66.6667,456.108,60.6561)">
    </g>
  <text x="381.955px" y="60.656px" style="font-family:'ArialMT', 'Arial', sans-serif;font-size:66.667px;fill:#f20d5e;">on</text>
  <g transform="matrix(66.6667,0,0,66.6667,610.065,60.6561)">
    </g>
  <text x="535.911px" y="60.656px" style="font-family:'ArialMT', 'Arial', sans-serif;font-size:66.667px;fill:#f20d5e;">on</text>
  <g transform="matrix(66.6667,0,0,66.6667,768.291,60.6561)">
    </g>
  <text x="694.137px" y="60.656px" style="font-family:'ArialMT', 'Arial', sans-serif;font-size:66.667px;fill:#f20d5e;">on</text>
  <path d="M154.395,81.97l61.311,-0" style="fill:none;stroke:#0dcaf2;stroke-width:8.33px;"/>
  <path d="M4.167,81.97l61.311,-0" style="fill:none;stroke:#0dcaf2;stroke-width:8.33px;"/>
  <path d="M313.438,82.137l61.311,0" style="fill:none;stroke:#0dcaf2;stroke-width:8.33px;"/>
  <path d="M464.245,82.137l61.311,0" style="fill:none;stroke:#0dcaf2;stroke-width:8.33px;"/>
  <path d="M619.517,82.397l61.311,-0" style="fill:none;stroke:#0dcaf2;stroke-width:8.33px;"/>
  <path d="M778.458,82.397l61.311,-0" style="fill:none;stroke:#0dcaf2;stroke-width:8.33px;"/>
  <g transform="matrix(100,0,0,100,59.5254,72.8027)">
    </g>
  <text x="3.91px" y="72.803px" style="font-family:'ArialMT', 'Arial', sans-serif;font-size:100px;fill:#8dcc33;">?</text>
  <g transform="matrix(100,0,0,100,212.229,72.8027)">
    </g>
  <text x="156.614px" y="72.803px" style="font-family:'ArialMT', 'Arial', sans-serif;font-size:100px;fill:#8dcc33;">?</text>
  <g transform="matrix(100,0,0,100,370.847,72.8027)">
    </g>
  <text x="315.232px" y="72.803px" style="font-family:'ArialMT', 'Arial', sans-serif;font-size:100px;fill:#8dcc33;">?</text>
  <g transform="matrix(100,0,0,100,522.818,72.8027)">
    </g>
  <text x="467.203px" y="72.803px" style="font-family:'ArialMT', 'Arial', sans-serif;font-size:100px;fill:#8dcc33;">?</text>
  <g transform="matrix(100,0,0,100,677.474,73.0622)">
    </g>
  <text x="621.858px" y="73.062px" style="font-family:'ArialMT', 'Arial', sans-serif;font-size:100px;fill:#8dcc33;">?</text>
  <g transform="matrix(100,0,0,100,836.415,73.0622)">
    </g>
  <text x="780.799px" y="73.062px" style="font-family:'ArialMT', 'Arial', sans-serif;font-size:100px;fill:#8dcc33;">?</text>
</svg>
