<?xml version="1.0" encoding="UTF-8" standalone="no"?>
<!DOCTYPE svg PUBLIC "-//W3C//DTD SVG 1.1//EN" "http://www.w3.org/Graphics/SVG/1.1/DTD/svg11.dtd">
<svg width="180" height="208" viewBox="0 0 875 970" version="1.1" xmlns="http://www.w3.org/2000/svg" xmlns:xlink="http://www.w3.org/1999/xlink" xml:space="preserve" xmlns:serif="http://www.serif.com/" style="fill-rule:evenodd;clip-rule:evenodd;stroke-linejoin:round;stroke-miterlimit:2;">
    <g>
        <path id="MJX-51-NCM-I-1D434" d="M566.715,73.28c1.823,-0 8.107,0.304 10.031,0.304c1.521,0 2.231,-0.81 2.231,-2.331c-0,-0.912 -0.609,-1.521 -1.926,-1.621c-2.939,-0.101 -4.356,-1.114 -4.356,-3.04c-0,-0.911 0.911,-2.938 2.835,-5.979c2.737,-4.56 4.663,-7.904 5.98,-10.132l24.624,-0c-0,0.708 0.101,2.127 0.405,4.356c0.71,7.397 1.116,11.451 1.116,11.957c-0,1.926 -2.231,2.838 -6.791,2.838c-1.924,-0 -2.837,0.81 -2.837,2.432c-0,1.014 0.609,1.52 1.825,1.52c2.432,0 10.132,-0.304 12.564,-0.304c2.027,-0 9.222,0.304 11.249,0.304c1.521,0 2.229,-0.81 2.229,-2.432c-0,-1.014 -0.912,-1.52 -2.735,-1.52c-2.837,-0 -4.562,-0.202 -5.068,-0.507c-0.506,-0.304 -0.912,-1.216 -1.012,-2.736l-6.081,-62.623c-0.304,-1.926 -0.203,-2.737 -2.331,-2.737c-1.216,-0 -2.229,0.607 -2.938,1.926l-34.859,58.468c-3.04,5.069 -7.093,7.803 -12.058,8.209c-1.622,0.1 -2.433,0.911 -2.433,2.432c0,1.014 0.607,1.52 1.723,1.52c1.621,0 6.992,-0.304 8.613,-0.304m35.974,-58.166l3.04,31.414l-21.787,0l18.747,-31.414Z" style="fill:#0dcaf2;fill-rule:nonzero;stroke:#1e3a5f;stroke-width:2.06px;"/>
    </g>
  <g>
        <path id="MJX-51-NCM-I-1D436" d="M811.738,811.736c0,-12.969 5.675,-26.145 12.058,-33.439c5.169,-5.98 14.087,-11.957 24.118,-11.957c10.54,-0 15.706,8.004 15.706,18.949c0,0.911 -0.302,4.154 -0.302,5.066c-0,0.911 0.607,1.42 1.924,1.42c0.506,-0 0.911,-0.103 1.216,-0.204c0.506,-0.71 0.811,-1.418 1.014,-2.128l6.282,-25.638c0,-0.912 -0.506,-1.418 -1.52,-1.418c-0.406,-0 -1.013,0.405 -1.823,1.317l-6.587,7.397c-3.953,-5.776 -9.525,-8.714 -16.721,-8.714c-5.574,-0 -11.045,1.317 -16.619,3.85c-11.248,5.27 -19.456,13.578 -24.725,24.929c-2.634,5.574 -3.951,11.247 -3.951,17.025c-0,8.105 2.533,14.691 7.7,19.961c5.169,5.27 11.755,7.904 19.862,7.904c8.005,-0 15.301,-2.939 21.888,-8.715c2.737,-2.329 5.066,-5.166 6.992,-8.308c2.737,-4.56 4.154,-7.702 4.154,-9.628c0,-0.912 -0.506,-1.418 -1.621,-1.418c-0.912,-0 -1.418,0.405 -1.622,1.317c-2.127,6.586 -5.471,11.856 -10.031,15.605c-5.776,4.764 -11.856,7.196 -18.138,7.196c-12.161,-0 -19.254,-8.208 -19.254,-20.369Z" style="fill:#0dcaf2;fill-rule:nonzero;stroke:#1e3a5f;stroke-width:2.06px;"/>
    </g>
  <g>
        <path id="MJX-51-NCM-I-1D437" d="M327.328,352.919l-33.643,0c-2.331,0 -3.446,0.103 -3.446,2.331c-0,1.116 1.115,1.622 3.345,1.622c2.027,-0 6.079,-0.305 6.079,1.317c-0,0.203 -0.101,0.81 -0.406,1.825l-13.375,53.808c-0.506,2.228 -1.52,3.547 -3.041,4.054c-0.708,0.201 -2.533,0.304 -5.673,0.304c-2.23,0 -3.243,0.202 -3.243,2.329c0,1.116 1.114,1.622 3.243,1.622l33.135,-0c6.891,-0 13.478,-2.027 19.863,-6.181c10.841,-6.992 21.177,-20.672 21.177,-37.292c0,-14.996 -9.22,-25.739 -24.015,-25.739m14.49,21.99c0,11.451 -5.167,25.334 -10.436,32.123c-5.776,7.397 -13.377,11.148 -22.902,11.148l-11.247,0c-1.116,0 -1.826,0 -2.231,-0.103c-0.607,0 -0.912,-0.201 -0.912,-0.506c0,-0.202 0.202,-0.912 0.507,-2.228l13.679,-55.025c0.914,-3.345 0.811,-3.446 5.068,-3.446l10.741,-0c11.35,-0 17.733,6.687 17.733,18.037Z" style="fill:#0dcaf2;fill-rule:nonzero;stroke:#1e3a5f;stroke-width:2.06px;"/>
    </g>
  <g>
        <path id="MJX-51-NCM-I-1D438" d="M740.234,455.393c0,1.014 1.113,1.521 3.243,1.521c4.052,-0 6.079,0.405 6.079,1.317c-0,0.304 -0.202,1.014 -0.507,2.331l-13.173,52.997c-0.506,2.231 -1.52,3.548 -3.039,4.054c-0.71,0.204 -2.535,0.304 -5.675,0.304c-2.231,0 -3.243,0.202 -3.243,2.33c0,1.115 1.115,1.621 3.243,1.621l51.983,0c2.432,0 2.636,-0.202 3.446,-1.924l4.054,-9.121c2.735,-6.283 4.661,-10.943 5.776,-14.085c-0.204,-0.912 -0.506,-1.521 -1.622,-1.521c-0.709,0 -1.316,0.508 -1.722,1.42c-2.535,5.977 -4.965,10.539 -7.397,13.782c-4.054,5.472 -10.033,7.498 -19.558,7.498l-14.694,0c-1.012,0 -1.722,0 -2.128,-0.1c-0.609,-0 -0.911,-0.204 -0.911,-0.509c-0,-0.201 0.201,-0.911 0.506,-2.228l6.687,-27.056l9.628,-0c4.762,-0 7.297,0.607 7.803,1.926c0.201,0.506 0.302,1.216 0.302,2.228c0,1.317 -0.201,2.938 -0.708,4.864c-0.203,0.506 -0.304,0.912 -0.304,1.216c-0,1.013 0.609,1.521 1.722,1.521c0.912,-0 1.521,-0.811 1.926,-2.331l5.675,-23.509c0,-1.015 -0.506,-1.521 -1.621,-1.521c-0.811,0 -1.42,0.71 -1.722,2.128c-1.015,3.953 -2.332,6.486 -4.054,7.702c-1.722,1.216 -4.56,1.823 -8.716,1.823l-8.916,-0l5.876,-23.61c0.811,-3.447 0.811,-3.547 5.066,-3.547l14.087,-0c5.167,-0 8.714,0.506 10.64,1.52c2.838,1.519 4.256,4.56 4.256,9.12c-0,1.722 -0.101,3.547 -0.406,5.27c0,0.201 0,0.506 -0.1,0.911l-0,0.912c-0,1.115 0.506,1.621 1.52,1.621c1.012,0 1.62,-0.911 1.823,-2.837l2.027,-17.328c0.305,-2.838 -0.405,-3.142 -3.142,-3.142l-50.565,-0c-2.332,-0 -3.445,0.103 -3.445,2.432Z" style="fill:#0dcaf2;fill-rule:nonzero;stroke:#1e3a5f;stroke-width:2.06px;"/>
    </g>
  <g>
        <path d="M22.548,771.151c-1.747,-0 -2.784,-0.031 -3.107,-0.097c-0.323,-0.064 -0.486,-0.42 -0.486,-1.068c0,-1.747 0.356,-2.815 1.068,-3.204c0.066,-0.064 4.272,-0.097 12.62,-0.097c16.762,0 25.595,0.066 26.503,0.194c4.076,0.648 7.473,2.105 10.191,4.368c2.719,2.266 4.11,5.243 4.175,8.933c0,4.142 -1.876,7.862 -5.629,11.162c-3.756,3.301 -8.058,5.534 -12.912,6.698l-0.971,0.292c4.142,0.583 7.539,2.07 10.193,4.466c2.653,2.395 4.013,5.372 4.077,8.93c-0,4.724 -2.33,9.288 -6.988,13.687c-4.661,4.402 -10.387,6.894 -17.184,7.476c-0.453,0.066 -7.28,0.097 -20.482,0.097c-12.945,-0 -19.513,-0.064 -19.706,-0.194c-0.26,-0.193 -0.389,-0.452 -0.389,-0.776c-0,-0.454 0.064,-0.907 0.193,-1.36c0.325,-1.23 0.648,-1.909 0.971,-2.039c0.26,-0.064 0.745,-0.097 1.457,-0.097l0.583,0c1.747,0 3.689,-0.096 5.823,-0.29c0.907,-0.195 1.523,-0.582 1.846,-1.166c0.193,-0.258 2.522,-9.254 6.989,-26.987c4.466,-17.733 6.698,-27.083 6.698,-28.054c0,-0.453 -1.846,-0.745 -5.533,-0.874Zm40.577,9.029c0,-1.943 -0.485,-3.754 -1.456,-5.437c-0.972,-1.683 -2.556,-2.784 -4.756,-3.3c-0.454,-0.13 -3.43,-0.227 -8.932,-0.292l-4.076,-0c-1.424,-0 -2.558,0.032 -3.398,0.096l-1.263,0c-0.971,0.066 -1.584,0.389 -1.844,0.971c-0.129,0.26 -1.164,4.143 -3.107,11.651c0,0.193 -0.033,0.387 -0.096,0.582l-3.009,12.231l7.863,0c5.241,0 8.251,-0.064 9.027,-0.193c3.882,-0.648 7.345,-2.525 10.387,-5.632c3.043,-3.105 4.595,-6.665 4.66,-10.677Zm-5.243,30.579c0,-2.848 -0.742,-5.21 -2.232,-7.087c-1.488,-1.877 -3.43,-2.977 -5.823,-3.3c-0.389,-0.066 -3.075,-0.097 -8.058,-0.097c-7.636,-0 -11.488,0.031 -11.552,0.097c0,0.129 -0.551,2.491 -1.65,7.086c-1.101,4.595 -2.233,9.157 -3.397,13.688l-1.749,6.794c-0,0.259 0.388,0.389 1.164,0.389c0.778,0 3.399,0.064 7.865,0.193c5.759,0 8.866,-0.032 9.319,-0.096c4.012,-0.453 7.702,-2.33 11.066,-5.63c3.366,-3.301 5.047,-7.313 5.047,-12.037Z" style="fill:#0dcaf2;fill-rule:nonzero;stroke:#1e3a5f;stroke-width:1.71px;stroke-linejoin:miter;stroke-miterlimit:4;"/>
    </g>
  <text x="239.375px" y="952.446px" style="font-family:'ArialMT', 'Arial', sans-serif;font-size:80.019px;fill:#1e3a5f;">Figure 6–15</text>
  <path d="M591.059,94.789l-502.122,703.932" style="fill:none;stroke:#0dcaf2;stroke-width:12.5px;stroke-linecap:round;stroke-miterlimit:1.5;"/>
  <path d="M362.751,418.657l339.388,95.896" style="fill:none;stroke:#0dcaf2;stroke-width:12.5px;stroke-linecap:round;stroke-miterlimit:1.5;"/>
  <path d="M591.059,94.789l191.444,705.27" style="fill:none;stroke:#0dcaf2;stroke-width:12.5px;stroke-linecap:round;stroke-miterlimit:1.5;"/>
  <path d="M88.863,799.997l690.848,0" style="fill:none;stroke:#0dcaf2;stroke-width:12.5px;stroke-linecap:round;stroke-miterlimit:1.5;"/>
</svg>
