<?xml version="1.0" encoding="UTF-8" standalone="no"?>
<!DOCTYPE svg PUBLIC "-//W3C//DTD SVG 1.1//EN" "http://www.w3.org/Graphics/SVG/1.1/DTD/svg11.dtd">
<svg width="456" height="188" viewBox="0 0 765 283" version="1.1" xmlns="http://www.w3.org/2000/svg" xmlns:xlink="http://www.w3.org/1999/xlink" xml:space="preserve" xmlns:serif="http://www.serif.com/" style="fill-rule:evenodd;clip-rule:evenodd;stroke-linecap:round;stroke-linejoin:round;stroke-miterlimit:1.5;">
    <path d="M-438.012,-1091.55l783.852,0" style="fill:none;stroke:#8dcc33;stroke-width:12.5px;"/>
  <path d="M-458.942,-390.144l264.924,0" style="fill:none;stroke:#ff822e;stroke-width:6.25px;"/>
  <path d="M-196.003,-757.734l-254.083,367.548" style="fill:none;stroke:#0dcaf2;stroke-width:6.25px;"/>
  <path d="M46.563,89.059l-6.03,-12.608l-6.468,12.388c3.179,-3.069 9.428,-2.96 12.498,0.22Z" style="fill:#dcdcdc;"/>
  <path d="M40.357,86.449c-0.527,30.03 -2.06,117.367 -2.06,117.367" style="fill:none;stroke:#dcdcdc;stroke-width:4.17px;"/>
  <path d="M-428.401,-421.555l-19.704,28.503" style="fill:none;stroke:#0dcaf2;stroke-width:6.25px;"/>
  <rect x="3.381" y="3.125" width="70.362" height="70.362" style="fill:none;stroke:#8dcc33;stroke-width:6.25px;stroke-linecap:square;stroke-miterlimit:4;"/>
  <rect x="518.743" y="3.125" width="70.362" height="70.362" style="fill:none;stroke:#8dcc33;stroke-width:6.25px;stroke-linecap:square;stroke-miterlimit:4;"/>
  <rect x="175.063" y="3.125" width="70.362" height="70.362" style="fill:none;stroke:#8dcc33;stroke-width:6.25px;stroke-linecap:square;stroke-miterlimit:4;"/>
  <rect x="690.424" y="3.125" width="70.362" height="70.362" style="fill:none;stroke:#8dcc33;stroke-width:6.25px;stroke-linecap:square;stroke-miterlimit:4;"/>
  <rect x="346.381" y="3.125" width="70.362" height="70.362" style="fill:none;stroke:#8dcc33;stroke-width:6.25px;stroke-linecap:square;stroke-miterlimit:4;"/>
  <circle cx="38.562" cy="243.483" r="35.437" style="fill:none;stroke:#8dcc33;stroke-width:6.25px;stroke-linecap:square;stroke-miterlimit:4;"/>
  <circle cx="553.924" cy="243.483" r="35.437" style="fill:none;stroke:#8dcc33;stroke-width:6.25px;stroke-linecap:square;stroke-miterlimit:4;"/>
  <circle cx="210.244" cy="243.483" r="35.437" style="fill:none;stroke:#8dcc33;stroke-width:6.25px;stroke-linecap:square;stroke-miterlimit:4;"/>
  <circle cx="725.606" cy="243.483" r="35.437" style="fill:none;stroke:#8dcc33;stroke-width:6.25px;stroke-linecap:square;stroke-miterlimit:4;"/>
  <circle cx="381.562" cy="243.483" r="35.437" style="fill:none;stroke:#8dcc33;stroke-width:6.25px;stroke-linecap:square;stroke-miterlimit:4;"/>
  <g transform="matrix(50,0,0,50,54.3338,56.275)">
    </g>
  <text x="26.526px" y="56.275px" style="font-family:'ArialMT', 'Arial', sans-serif;font-size:50px;fill:#8dcc33;stroke:#1e3a5f;stroke-width:0.83px;stroke-linecap:butt;stroke-miterlimit:2;">1</text>
  <g transform="matrix(50,0,0,50,568.719,56.2017)">
    </g>
  <text x="540.911px" y="56.202px" style="font-family:'ArialMT', 'Arial', sans-serif;font-size:50px;fill:#8dcc33;stroke:#1e3a5f;stroke-width:0.83px;stroke-linecap:butt;stroke-miterlimit:2;">4</text>
  <g transform="matrix(50,0,0,50,224.711,56.275)">
    </g>
  <text x="196.904px" y="56.275px" style="font-family:'ArialMT', 'Arial', sans-serif;font-size:50px;fill:#8dcc33;stroke:#1e3a5f;stroke-width:0.83px;stroke-linecap:butt;stroke-miterlimit:2;">2</text>
  <g transform="matrix(50,0,0,50,739.473,55.6524)">
    </g>
  <text x="711.665px" y="55.652px" style="font-family:'ArialMT', 'Arial', sans-serif;font-size:50px;fill:#8dcc33;stroke:#1e3a5f;stroke-width:0.83px;stroke-linecap:butt;stroke-miterlimit:2;">5</text>
  <g transform="matrix(50,0,0,50,395.551,55.9576)">
    </g>
  <text x="367.744px" y="55.958px" style="font-family:'ArialMT', 'Arial', sans-serif;font-size:50px;fill:#8dcc33;stroke:#1e3a5f;stroke-width:0.83px;stroke-linecap:butt;stroke-miterlimit:2;">3</text>
  <g transform="matrix(50,0,0,50,54.3338,261.452)">
    </g>
  <text x="26.526px" y="261.452px" style="font-family:'ArialMT', 'Arial', sans-serif;font-size:50px;fill:#8dcc33;stroke:#1e3a5f;stroke-width:0.83px;stroke-linecap:butt;stroke-miterlimit:2;">1</text>
  <g transform="matrix(50,0,0,50,568.719,261.379)">
    </g>
  <text x="540.911px" y="261.379px" style="font-family:'ArialMT', 'Arial', sans-serif;font-size:50px;fill:#8dcc33;stroke:#1e3a5f;stroke-width:0.83px;stroke-linecap:butt;stroke-miterlimit:2;">4</text>
  <g transform="matrix(50,0,0,50,224.711,261.452)">
    </g>
  <text x="196.904px" y="261.452px" style="font-family:'ArialMT', 'Arial', sans-serif;font-size:50px;fill:#8dcc33;stroke:#1e3a5f;stroke-width:0.83px;stroke-linecap:butt;stroke-miterlimit:2;">2</text>
  <g transform="matrix(50,0,0,50,739.473,260.829)">
    </g>
  <text x="711.665px" y="260.829px" style="font-family:'ArialMT', 'Arial', sans-serif;font-size:50px;fill:#8dcc33;stroke:#1e3a5f;stroke-width:0.83px;stroke-linecap:butt;stroke-miterlimit:2;">5</text>
  <g transform="matrix(50,0,0,50,395.551,261.135)">
    </g>
  <text x="367.744px" y="261.135px" style="font-family:'ArialMT', 'Arial', sans-serif;font-size:50px;fill:#8dcc33;stroke:#1e3a5f;stroke-width:0.83px;stroke-linecap:butt;stroke-miterlimit:2;">3</text>
</svg>
