<?xml version="1.0" encoding="UTF-8" standalone="no"?>
<!DOCTYPE svg PUBLIC "-//W3C//DTD SVG 1.1//EN" "http://www.w3.org/Graphics/SVG/1.1/DTD/svg11.dtd">
<svg width="236" height="168" viewBox="0 0 1250 967" version="1.1" xmlns="http://www.w3.org/2000/svg" xmlns:xlink="http://www.w3.org/1999/xlink" xml:space="preserve" xmlns:serif="http://www.serif.com/" style="fill-rule:evenodd;clip-rule:evenodd;stroke-linecap:round;stroke-linejoin:round;stroke-miterlimit:1.5;">
    <g transform="matrix(75,0,0,75,496.173,201.328)">
    </g>
    <text x="454.461px" y="201.328px" style="font-family:'ArialMT', 'Arial', sans-serif;font-size:75px;fill:#f60;">2</text>
    <g transform="matrix(75,0,0,75,264.715,366.225)">
    </g>
    <text x="223.004px" y="366.225px" style="font-family:'ArialMT', 'Arial', sans-serif;font-size:75px;fill:#f60;">5</text>
    <g transform="matrix(75,0,0,75,549.714,596.677)">
    </g>
    <text x="508.003px" y="596.677px" style="font-family:'ArialMT', 'Arial', sans-serif;font-size:75px;fill:#f60;">8</text>
    <g transform="matrix(100,0,0,100,66.8457,91.5429)">
    </g>
    <text x="0.146px" y="91.543px" style="font-family:'ArialMT', 'Arial', sans-serif;font-size:100px;fill:#8dcc33;">A</text>
    <g transform="matrix(100,0,0,100,71.99,810.619)">
    </g>
    <text x="-0.227px" y="810.619px" style="font-family:'ArialMT', 'Arial', sans-serif;font-size:100px;fill:#8dcc33;">D</text>
    <g transform="matrix(100,0,0,100,1253.33,806.222)">
    </g>
    <text x="1181.12px" y="806.222px" style="font-family:'ArialMT', 'Arial', sans-serif;font-size:100px;fill:#8dcc33;">C</text>
    <g transform="matrix(100,0,0,100,1244.55,92.285)">
    </g>
    <text x="1177.85px" y="92.285px" style="font-family:'ArialMT', 'Arial', sans-serif;font-size:100px;fill:#8dcc33;">B</text>
    <g transform="matrix(100,0,0,100,713.783,72.6791)">
    </g>
    <text x="652.699px" y="72.679px" style="font-family:'ArialMT', 'Arial', sans-serif;font-size:100px;fill:#8dcc33;">F</text>
    <g transform="matrix(100,0,0,100,232.921,71.582)">
    </g>
    <text x="166.221px" y="71.582px" style="font-family:'ArialMT', 'Arial', sans-serif;font-size:100px;fill:#8dcc33;">E</text>
    <g transform="matrix(100,0,0,100,541.025,407.87)">
    </g>
    <text x="463.242px" y="407.87px" style="font-family:'ArialMT', 'Arial', sans-serif;font-size:100px;fill:#8dcc33;">O</text>
    <path d="M685.879,88.531l-596.833,673.472" style="fill:none;stroke:#0dcaf2;stroke-width:12.5px;"/>
    <path d="M1159.25,763.158l-967.237,-673.46" style="fill:none;stroke:#0dcaf2;stroke-width:12.5px;"/>
    <g transform="matrix(100,0,0,100,909.439,945.576)">
    </g>
    <text x="375.748px" y="945.576px" style="font-family:'ArialMT', 'Arial', sans-serif;font-size:100px;fill:#1e3a5f;">Figure 6–35</text>
    <rect x="82.626" y="87.796" width="1082.79" height="679.963" style="fill:none;stroke:#0dcaf2;stroke-width:12.5px;stroke-miterlimit:14;"/>
    <g transform="matrix(75,0,0,75,892.654,316.471)">
    </g>
    <text x="850.942px" y="316.471px" style="font-family:'ArialMT', 'Arial', sans-serif;font-size:75px;fill:#999;fill-opacity:0.69;">?</text>
</svg>
