<?xml version="1.0" encoding="UTF-8" standalone="no"?>
<!DOCTYPE svg PUBLIC "-//W3C//DTD SVG 1.1//EN" "http://www.w3.org/Graphics/SVG/1.1/DTD/svg11.dtd">
<svg width="256" height="48" viewBox="0 0 678 87" version="1.1" xmlns="http://www.w3.org/2000/svg" xmlns:xlink="http://www.w3.org/1999/xlink" xml:space="preserve" xmlns:serif="http://www.serif.com/" style="fill-rule:evenodd;clip-rule:evenodd;stroke-linecap:round;stroke-linejoin:round;stroke-miterlimit:1.5;">
    <path d="M87.563,-845.651l264.925,0" style="fill:none;stroke:#ff822e;stroke-width:6.25px;"/>
  <path d="M350.503,-1213.24l-254.083,367.548" style="fill:none;stroke:#0dcaf2;stroke-width:6.25px;"/>
  <path d="M118.104,-877.062l-19.703,28.503" style="fill:none;stroke:#0dcaf2;stroke-width:6.25px;"/>
  <g transform="matrix(100,0,0,100,147.303,76.0475)">
    </g>
  <text x="75.086px" y="76.047px" style="font-family:'ArialMT', 'Arial', sans-serif;font-size:100px;fill:#f20d5e;">D</text>
  <path d="M151.167,81.97l61.311,-0" style="fill:none;stroke:#0dcaf2;stroke-width:8.33px;"/>
  <path d="M4.167,81.97l61.311,-0" style="fill:none;stroke:#0dcaf2;stroke-width:8.33px;"/>
  <path d="M310.21,82.137l61.311,0" style="fill:none;stroke:#0dcaf2;stroke-width:8.33px;"/>
  <path d="M455.196,82.137l61.311,0" style="fill:none;stroke:#0dcaf2;stroke-width:8.33px;"/>
  <path d="M612.331,82.137l61.311,0" style="fill:none;stroke:#0dcaf2;stroke-width:8.33px;"/>
  <g transform="matrix(100,0,0,100,292.239,76.0475)">
    </g>
  <text x="225.54px" y="76.047px" style="font-family:'ArialMT', 'Arial', sans-serif;font-size:100px;fill:#f20d5e;">E</text>
  <g transform="matrix(100,0,0,100,446.405,76.0475)">
    </g>
  <text x="385.321px" y="76.047px" style="font-family:'ArialMT', 'Arial', sans-serif;font-size:100px;fill:#f20d5e;">F</text>
  <g transform="matrix(100,0,0,100,604.626,76.0475)">
    </g>
  <text x="526.843px" y="76.047px" style="font-family:'ArialMT', 'Arial', sans-serif;font-size:100px;fill:#f20d5e;">G</text>
  <g transform="matrix(100,0,0,100,59.5254,72.8027)">
    </g>
  <text x="3.91px" y="72.803px" style="font-family:'ArialMT', 'Arial', sans-serif;font-size:100px;fill:#8dcc33;">?</text>
  <g transform="matrix(100,0,0,100,209.001,72.8027)">
    </g>
  <text x="153.386px" y="72.803px" style="font-family:'ArialMT', 'Arial', sans-serif;font-size:100px;fill:#8dcc33;">?</text>
  <g transform="matrix(100,0,0,100,367.62,72.8027)">
    </g>
  <text x="312.005px" y="72.803px" style="font-family:'ArialMT', 'Arial', sans-serif;font-size:100px;fill:#8dcc33;">?</text>
  <g transform="matrix(100,0,0,100,513.769,72.8027)">
    </g>
  <text x="458.154px" y="72.803px" style="font-family:'ArialMT', 'Arial', sans-serif;font-size:100px;fill:#8dcc33;">?</text>
  <g transform="matrix(100,0,0,100,670.288,72.8027)">
    </g>
  <text x="614.672px" y="72.803px" style="font-family:'ArialMT', 'Arial', sans-serif;font-size:100px;fill:#8dcc33;">?</text>
</svg>
