<?xml version="1.0" encoding="UTF-8" standalone="no"?>
<!DOCTYPE svg PUBLIC "-//W3C//DTD SVG 1.1//EN" "http://www.w3.org/Graphics/SVG/1.1/DTD/svg11.dtd">
<svg width="256" height="266" viewBox="0 0 754 754" version="1.1" xmlns="http://www.w3.org/2000/svg" xmlns:xlink="http://www.w3.org/1999/xlink" xml:space="preserve" xmlns:serif="http://www.serif.com/" style="fill-rule:evenodd;clip-rule:evenodd;stroke-linecap:round;stroke-linejoin:round;stroke-miterlimit:1.5;">
    <path d="M5.917,376.933l742.032,-0" style="fill:none;stroke:#8dcc33;stroke-width:11.83px;"/>
  <path d="M376.933,5.917l-0,742.032" style="fill:none;stroke:#8dcc33;stroke-width:11.83px;"/>
  <path d="M376.975,180.48c108.601,-0 196.771,88.17 196.771,196.771c-0,108.601 -88.17,196.772 -196.771,196.772c-108.602,0 -196.773,-88.171 -196.773,-196.772c0,-108.601 88.171,-196.771 196.773,-196.771Zm-0,11.833c-102.071,-0 -184.94,82.867 -184.94,184.938c0,102.071 82.869,184.939 184.94,184.939c102.07,0 184.938,-82.868 184.938,-184.939c-0,-102.071 -82.868,-184.938 -184.938,-184.938Z" style="fill:#0dcaf2;"/>
</svg>
