<?xml version="1.0" encoding="UTF-8" standalone="no"?>
<!DOCTYPE svg PUBLIC "-//W3C//DTD SVG 1.1//EN" "http://www.w3.org/Graphics/SVG/1.1/DTD/svg11.dtd">
<svg width="226" height="285" viewBox="0 0 724 852" version="1.1" xmlns="http://www.w3.org/2000/svg" xmlns:xlink="http://www.w3.org/1999/xlink" xml:space="preserve" xmlns:serif="http://www.serif.com/" style="fill-rule:evenodd;clip-rule:evenodd;stroke-linecap:round;stroke-linejoin:round;stroke-miterlimit:1.5;">
    <path d="M719.265,132.52l-715.339,715.341" style="fill:none;stroke:#8dcc33;stroke-width:7.85px;"/>
  <path d="M719.274,847.815l-715.339,-715.34" style="fill:none;stroke:#9370db;stroke-width:7.85px;"/>
  <text x="124.434px" y="43.194px" style="font-family:'ArialMT', 'Arial', sans-serif;font-size:59.613px;fill:#8e44ad;stroke:#1e3a5f;stroke-width:1.04px;stroke-linecap:butt;stroke-miterlimit:2;">two lines intersect</text>
  <circle cx="361.604" cy="490.145" r="11.206" style="fill:#ff0;"/>
  <path d="M361.604,502.485c-0.051,-0.001 -5.389,0.283 -9.33,-4.265c-6.448,-7.443 -1.924,-19.085 7.761,-20.317c9.982,-1.27 17.185,9.356 12.419,18.124c-0.993,1.827 -2.45,3.391 -4.199,4.512c-3.188,2.046 -6.247,1.931 -6.651,1.946Zm0.006,-2.27c0.258,0.008 4.471,0.138 7.608,-3.482c5.554,-6.412 1.093,-16.441 -7.354,-16.655c-8.494,-0.215 -13.417,9.621 -8.181,16.282c0.898,1.142 2.048,2.092 3.339,2.754c2.241,1.148 4.244,1.091 4.577,1.101l0.011,0Z" style="fill:#f33;"/>
</svg>
