<?xml version="1.0" encoding="UTF-8" standalone="no"?>
<!DOCTYPE svg PUBLIC "-//W3C//DTD SVG 1.1//EN" "http://www.w3.org/Graphics/SVG/1.1/DTD/svg11.dtd">
<svg width="712" height="168" viewBox="0 0 4570 995" version="1.1" xmlns="http://www.w3.org/2000/svg" xmlns:xlink="http://www.w3.org/1999/xlink" xml:space="preserve" xmlns:serif="http://www.serif.com/" style="fill-rule:evenodd;clip-rule:evenodd;stroke-linecap:round;stroke-linejoin:round;stroke-miterlimit:1.5;">
    <g transform="matrix(100,0,0,100,1389.8,194.592)">
    </g>
  <text x="1317.58px" y="194.592px" style="font-family:'ArialMT', 'Arial', sans-serif;font-size:100px;fill:#0dcaf2;">D</text>
  <g transform="matrix(100,0,0,100,2940.88,194.592)">
    </g>
  <text x="2868.66px" y="194.592px" style="font-family:'ArialMT', 'Arial', sans-serif;font-size:100px;fill:#0dcaf2;">D</text>
  <g transform="matrix(100,0,0,100,4495.82,194.592)">
    </g>
  <text x="4423.61px" y="194.592px" style="font-family:'ArialMT', 'Arial', sans-serif;font-size:100px;fill:#0dcaf2;">D</text>
  <g transform="matrix(100,0,0,100,155.575,879.978)">
    </g>
  <text x="88.876px" y="879.978px" style="font-family:'ArialMT', 'Arial', sans-serif;font-size:100px;fill:#0dcaf2;">B</text>
  <g transform="matrix(100,0,0,100,1706.65,879.978)">
    </g>
  <text x="1639.95px" y="879.978px" style="font-family:'ArialMT', 'Arial', sans-serif;font-size:100px;fill:#0dcaf2;">B</text>
  <g transform="matrix(100,0,0,100,3261.6,879.978)">
    </g>
  <text x="3194.9px" y="879.978px" style="font-family:'ArialMT', 'Arial', sans-serif;font-size:100px;fill:#0dcaf2;">B</text>
  <g transform="matrix(100,0,0,100,147.495,186.987)">
    </g>
  <text x="80.795px" y="186.987px" style="font-family:'ArialMT', 'Arial', sans-serif;font-size:100px;fill:#0dcaf2;">A</text>
  <g transform="matrix(100,0,0,100,1698.57,186.987)">
    </g>
  <text x="1631.87px" y="186.987px" style="font-family:'ArialMT', 'Arial', sans-serif;font-size:100px;fill:#0dcaf2;">A</text>
  <g transform="matrix(100,0,0,100,3253.52,186.987)">
    </g>
  <text x="3186.82px" y="186.987px" style="font-family:'ArialMT', 'Arial', sans-serif;font-size:100px;fill:#0dcaf2;">A</text>
  <g transform="matrix(100,0,0,100,1383.66,873.679)">
    </g>
  <text x="1311.44px" y="873.679px" style="font-family:'ArialMT', 'Arial', sans-serif;font-size:100px;fill:#0dcaf2;">C</text>
  <g transform="matrix(100,0,0,100,2934.73,873.679)">
    </g>
  <text x="2862.51px" y="873.679px" style="font-family:'ArialMT', 'Arial', sans-serif;font-size:100px;fill:#0dcaf2;">C</text>
  <g transform="matrix(100,0,0,100,4489.68,873.679)">
    </g>
  <text x="4417.46px" y="873.679px" style="font-family:'ArialMT', 'Arial', sans-serif;font-size:100px;fill:#0dcaf2;">C</text>
  <path d="M220.192,2356.97l935.899,735.865" style="fill:none;stroke:#ff7bac;stroke-width:8.33px;stroke-dasharray:25,25,0,0,0,0;"/>
  <path d="M1458.64,-1627.74l1039.55,0" style="fill:none;stroke:#33cc7b;stroke-width:12.5px;"/>
  <path d="M2839.46,175.455l-523.527,645.428" style="fill:none;stroke:#fc0;stroke-width:12.5px;"/>
  <path d="M4393.34,545.557l-1112.12,273.422" style="fill:none;stroke:#fc0;stroke-width:12.5px;"/>
  <path d="M1288.26,819.025l-1113.07,-643.222" style="fill:none;stroke:#fc0;stroke-width:12.5px;"/>
  <path d="M2306.63,821.564l-580.365,-645.761" style="fill:none;stroke:#fc0;stroke-width:12.5px;"/>
  <path d="M4393.27,534.009l-1112.05,-358.206" style="fill:none;stroke:#fc0;stroke-width:12.5px;"/>
  <path d="M1300.88,831.494l-1137.94,0l-0,-668.548l1137.94,-0l0,668.548Zm-12.5,-656.048l-1112.94,-0l-0,643.548l1112.94,0l0,-643.548Z" style="fill:#33cc7b;"/>
  <path d="M2851.96,831.494l-1137.94,0l-0,-668.548l1137.94,-0l-0,668.548Zm-12.5,-656.048l-1112.94,-0l-0,643.548l1112.94,0l-0,-643.548Z" style="fill:#33cc7b;"/>
  <path d="M4406.91,831.494l-1137.94,0l0,-668.548l1137.94,-0l-0,668.548Zm-12.5,-656.048l-1112.94,-0l0,643.548l1112.94,0l-0,-643.548Z" style="fill:#33cc7b;"/>
  <path d="M3282.28,204.865c-0.27,-0.27 -1.823,-1.823 -1.823,-4.419c0,-0.8 0.152,-1.616 0.456,-2.355c0.313,-0.76 0.8,-1.456 1.36,-2.058c2.631,-2.822 5.457,-5.456 8.185,-8.185c0.271,-0.27 1.823,-1.823 4.42,-1.823c0.799,0 1.615,0.152 2.355,0.456c2.431,1.001 3.284,3.073 3.431,3.432c0.97,2.355 0.144,4.361 0,4.71c-0.312,0.76 -0.799,1.456 -1.36,2.057c-2.63,2.823 -5.456,5.457 -8.185,8.185c-0.27,0.271 -1.823,1.823 -4.419,1.823c-2.597,0 -4.149,-1.552 -4.42,-1.823Z" style="fill:#ff7bac;"/>
  <path d="M3282.25,232.746c-0.27,-0.271 -1.823,-1.823 -1.823,-4.42c0,-0.382 0,-2.556 1.816,-4.412c9.931,-10.151 20.083,-20.083 30.125,-30.125c0.27,-0.27 1.823,-1.823 4.419,-1.823c0.8,0 1.615,0.152 2.355,0.456c2.431,1.001 3.284,3.073 3.432,3.432c0.969,2.355 0.143,4.361 -0,4.709c-0.313,0.761 -0.785,1.47 -1.36,2.058c-9.931,10.151 -20.084,20.083 -30.125,30.125c-0.27,0.27 -1.823,1.823 -4.419,1.823c-2.597,-0 -4.149,-1.553 -4.42,-1.823Z" style="fill:#ff7bac;"/>
  <path d="M3281.43,271.043c-0.271,-0.27 -1.823,-1.823 -1.823,-4.419c-0,-2.575 1.547,-4.141 1.815,-4.412c19.203,-19.429 38.632,-38.632 57.948,-57.948c0.27,-0.27 1.823,-1.823 4.419,-1.823c0.8,0 1.616,0.152 2.355,0.456c2.431,1.001 3.284,3.073 3.432,3.432c0.143,0.348 0.969,2.355 0,4.709c-0.313,0.761 -0.782,1.473 -1.36,2.058c-19.203,19.428 -38.632,38.632 -57.948,57.947c-0.27,0.271 -1.823,1.823 -4.419,1.823c-2.596,0 -4.149,-1.552 -4.419,-1.823Z" style="fill:#ff7bac;"/>
  <path d="M3281.4,310.132c-0.27,-0.271 -1.823,-1.823 -1.823,-4.42c0,-2.582 1.547,-4.141 1.816,-4.412c29.133,-29.361 58.494,-58.494 87.741,-87.741c0.27,-0.27 1.823,-1.823 4.419,-1.823c0.8,0 1.616,0.152 2.355,0.456c2.432,1 3.284,3.073 3.432,3.432c0.144,0.348 0.969,2.354 0,4.709c-1.139,2.769 -1.718,2.415 -89.101,89.799c-0.271,0.27 -1.823,1.823 -4.42,1.823c-2.596,-0 -4.149,-1.553 -4.419,-1.823Z" style="fill:#ff7bac;"/>
  <path d="M3281.1,354.563c-0.27,-0.271 -1.823,-1.823 -1.823,-4.42c0,-2.586 1.547,-4.141 1.816,-4.412c40.707,-40.936 81.644,-81.644 122.466,-122.466c0.27,-0.27 1.823,-1.823 4.419,-1.823c0.8,0 1.616,0.152 2.355,0.456c2.431,1.001 3.284,3.073 3.432,3.432c0.143,0.349 0.969,2.355 -0,4.71c-0.313,0.76 -0.781,1.474 -1.36,2.057c-40.707,40.936 -81.644,81.644 -122.466,122.466c-0.27,0.27 -1.823,1.823 -4.419,1.823c-2.597,-0 -4.149,-1.553 -4.42,-1.823Z" style="fill:#ff7bac;"/>
  <path d="M3281.5,393.663c-0.27,-0.27 -1.823,-1.823 -1.823,-4.419c0,-2.588 1.547,-4.142 1.816,-4.413c50.272,-50.501 100.774,-100.773 151.161,-151.16c0.27,-0.271 1.823,-1.823 4.419,-1.823c0.8,-0 1.616,0.151 2.355,0.455c0.359,0.148 2.431,1.001 3.432,3.432c0.969,2.355 0.143,4.361 -0,4.71c-0.313,0.76 -0.78,1.475 -1.36,2.057c-50.272,50.502 -100.774,100.774 -151.161,151.161c-0.27,0.271 -1.823,1.823 -4.419,1.823c-2.597,0 -4.149,-1.552 -4.42,-1.823Z" style="fill:#ff7bac;"/>
  <path d="M3279.29,443.936c-0.27,-0.271 -1.823,-1.823 -1.823,-4.42c0,-2.59 1.547,-4.142 1.816,-4.412c63.216,-63.446 126.662,-126.662 189.993,-189.993c0.27,-0.27 1.823,-1.823 4.419,-1.823c0.8,0 1.615,0.152 2.355,0.456c2.431,1.001 3.284,3.073 3.432,3.432c0.143,0.349 0.969,2.355 -0,4.71c-0.313,0.76 -0.78,1.475 -1.36,2.057c-63.216,63.446 -126.662,126.662 -189.993,189.993c-0.27,0.27 -1.823,1.823 -4.419,1.823c-2.597,-0 -4.149,-1.553 -4.42,-1.823Z" style="fill:#ff7bac;"/>
  <path d="M3279.9,499.058c-0.271,-0.271 -1.823,-1.823 -1.823,-4.419c-0,-2.591 1.546,-4.143 1.816,-4.413c77.019,-77.25 154.269,-154.269 231.404,-231.404c0.27,-0.271 1.823,-1.823 4.419,-1.823c0.8,-0 1.616,0.151 2.355,0.456c2.431,1 3.284,3.073 3.432,3.432c0.969,2.354 0.143,4.361 -0,4.709c-0.313,0.76 -0.78,1.475 -1.36,2.058c-77.02,77.25 -154.27,154.269 -231.405,231.404c-0.27,0.27 -1.823,1.823 -4.419,1.823c-2.596,-0 -4.149,-1.553 -4.419,-1.823Z" style="fill:#ff7bac;"/>
  <path d="M3282.34,554.279c-0.27,-0.27 -1.823,-1.823 -1.823,-4.419c0,-2.592 1.547,-4.142 1.816,-4.413c90.721,-90.951 181.672,-181.672 272.508,-272.508c0.271,-0.27 1.823,-1.823 4.42,-1.823c0.799,0 1.615,0.152 2.354,0.456c0.359,0.148 2.432,1.001 3.432,3.432c0.144,0.349 0.969,2.355 0,4.71c-0.313,0.76 -0.779,1.475 -1.36,2.057c-90.72,90.952 -181.672,181.672 -272.508,272.508c-0.27,0.271 -1.823,1.823 -4.419,1.823c-2.597,0 -4.149,-1.552 -4.42,-1.823Z" style="fill:#ff7bac;"/>
  <path d="M3278.91,620.008c-0.27,-0.271 -1.823,-1.823 -1.823,-4.42c-0,-2.592 1.546,-4.142 1.816,-4.412c107.692,-107.924 215.616,-215.617 323.425,-323.425c0.27,-0.27 1.823,-1.823 4.419,-1.823c0.8,0 1.615,0.152 2.355,0.456c0.359,0.148 2.431,1 3.432,3.432c0.969,2.355 0.143,4.361 -0,4.709c-0.313,0.761 -0.78,1.476 -1.36,2.058c-107.693,107.924 -215.617,215.616 -323.425,323.425c-0.271,0.27 -1.823,1.823 -4.42,1.823c-2.596,-0 -4.149,-1.553 -4.419,-1.823Z" style="fill:#ff7bac;"/>
  <path d="M3279.34,698.349c-0.27,-0.271 -1.823,-1.823 -1.823,-4.42c0,-2.593 1.546,-4.142 1.816,-4.412c127.208,-127.44 254.648,-254.648 381.972,-381.972c0.27,-0.271 1.823,-1.823 4.419,-1.823c0.8,-0 1.616,0.151 2.355,0.456c0.359,0.147 2.432,1 3.432,3.432c0.144,0.348 0.969,2.354 0,4.709c-0.313,0.76 -0.779,1.476 -1.36,2.058c-127.208,127.439 -254.648,254.648 -381.972,381.972c-0.271,0.27 -1.823,1.823 -4.42,1.823c-2.596,-0 -4.149,-1.553 -4.419,-1.823Z" style="fill:#ff7bac;"/>
  <path d="M3280.02,782.55c-0.271,-0.271 -1.823,-1.823 -1.823,-4.42c-0,-2.593 1.546,-4.142 1.816,-4.412c148.352,-148.584 296.936,-296.936 445.404,-445.404c0.27,-0.271 1.823,-1.823 4.419,-1.823c0.799,-0 1.615,0.151 2.355,0.456c2.431,1 3.284,3.072 3.432,3.432c0.143,0.348 0.969,2.354 -0,4.709c-0.313,0.76 -0.78,1.476 -1.361,2.058c-148.352,148.583 -296.936,296.936 -445.403,445.404c-0.271,0.27 -1.823,1.823 -4.42,1.823c-2.596,-0 -4.149,-1.553 -4.419,-1.823Z" style="fill:#ff7bac;"/>
  <path d="M3339.47,798.543c-0.27,-0.27 -1.823,-1.823 -1.823,-4.419c-0,-2.594 1.546,-4.142 1.816,-4.412c147.508,-147.74 295.248,-295.248 442.872,-442.872c0.27,-0.271 1.823,-1.823 4.419,-1.823c0.8,-0 1.615,0.151 2.355,0.456c2.431,1 3.284,3.072 3.432,3.432c0.969,2.354 0.143,4.361 -0,4.709c-0.313,0.76 -0.78,1.476 -1.36,2.058c-147.509,147.739 -295.248,295.247 -442.872,442.871c-0.271,0.271 -1.823,1.823 -4.42,1.823c-2.596,0 -4.149,-1.552 -4.419,-1.823Z" style="fill:#ff7bac;"/>
  <path d="M3432.33,776.792c-0.27,-0.27 -1.823,-1.823 -1.823,-4.419c0,-2.593 1.546,-4.142 1.816,-4.412c134.812,-135.044 269.856,-269.856 404.784,-404.784c0.271,-0.271 1.823,-1.823 4.42,-1.823c0.799,-0 1.615,0.151 2.354,0.455c0.359,0.148 2.432,1.001 3.432,3.432c0.969,2.355 0.144,4.361 0,4.71c-0.313,0.76 -0.779,1.475 -1.36,2.057c-134.812,135.044 -269.856,269.856 -404.784,404.784c-0.27,0.271 -1.823,1.823 -4.419,1.823c-2.597,0 -4.149,-1.552 -4.42,-1.823Z" style="fill:#ff7bac;"/>
  <path d="M3537.95,749.553c-0.27,-0.27 -1.823,-1.823 -1.823,-4.419c0,-2.593 1.547,-4.142 1.816,-4.413c119.071,-119.302 238.373,-238.372 357.56,-357.559c0.27,-0.27 1.823,-1.823 4.419,-1.823c0.8,0 1.616,0.152 2.355,0.456c2.431,1 3.284,3.073 3.432,3.432c0.143,0.348 0.969,2.354 -0,4.709c-0.313,0.76 -0.779,1.476 -1.36,2.058c-119.071,119.302 -238.373,238.373 -357.56,357.559c-0.27,0.271 -1.823,1.823 -4.419,1.823c-2.596,0 -4.149,-1.552 -4.42,-1.823Z" style="fill:#ff7bac;"/>
  <path d="M3642.32,723.167c-0.271,-0.271 -1.823,-1.823 -1.823,-4.42c-0,-2.592 1.546,-4.142 1.816,-4.412c103.987,-104.219 208.207,-208.207 312.31,-312.311c0.271,-0.27 1.823,-1.823 4.42,-1.823c0.799,0 1.615,0.152 2.354,0.456c2.432,1.001 3.284,3.073 3.432,3.432c0.969,2.355 0.144,4.361 0,4.709c-0.313,0.761 -0.779,1.476 -1.36,2.058c-103.988,104.219 -208.207,208.207 -312.31,312.311c-0.271,0.27 -1.823,1.823 -4.42,1.823c-2.596,-0 -4.149,-1.553 -4.419,-1.823Z" style="fill:#ff7bac;"/>
  <path d="M3723.76,703.815c-0.27,-0.27 -1.823,-1.823 -1.823,-4.419c0,-2.592 1.546,-4.142 1.816,-4.413c92.67,-92.901 185.572,-185.571 278.357,-278.357c0.271,-0.271 1.823,-1.823 4.42,-1.823c0.799,-0 1.615,0.151 2.355,0.456c2.431,1 3.284,3.072 3.431,3.432c0.97,2.354 0.144,4.361 0,4.709c-0.312,0.76 -0.779,1.475 -1.36,2.058c-92.67,92.901 -185.571,185.571 -278.357,278.357c-0.271,0.27 -1.823,1.823 -4.42,1.823c-2.596,0 -4.149,-1.553 -4.419,-1.823Z" style="fill:#ff7bac;"/>
  <path d="M3824.95,678.084c-0.27,-0.27 -1.823,-1.823 -1.823,-4.419c0,-2.591 1.546,-4.142 1.816,-4.413c78.031,-78.262 156.293,-156.293 234.44,-234.44c0.271,-0.27 1.823,-1.823 4.42,-1.823c0.799,0 1.615,0.152 2.354,0.456c0.359,0.148 2.432,1.001 3.432,3.432c0.144,0.348 0.969,2.355 0,4.709c-0.313,0.761 -0.779,1.476 -1.36,2.058c-78.031,78.262 -156.293,156.293 -234.44,234.44c-0.271,0.271 -1.823,1.823 -4.42,1.823c-2.596,0 -4.149,-1.552 -4.419,-1.823Z" style="fill:#ff7bac;"/>
  <path d="M3941.29,649.633c-0.271,-0.271 -1.823,-1.823 -1.823,-4.42c-0,-2.589 1.546,-4.142 1.816,-4.412c61.632,-61.863 123.495,-123.496 185.243,-185.243c0.27,-0.271 1.823,-1.823 4.419,-1.823c0.8,-0 1.616,0.151 2.355,0.455c0.359,0.148 2.431,1.001 3.432,3.432c0.143,0.349 0.969,2.355 0,4.71c-0.313,0.76 -0.78,1.475 -1.36,2.057c-61.633,61.863 -123.496,123.496 -185.243,185.244c-0.271,0.27 -1.823,1.823 -4.42,1.823c-2.596,-0 -4.149,-1.553 -4.419,-1.823Z" style="fill:#ff7bac;"/>
  <path d="M4028.74,628.105c-0.27,-0.27 -1.823,-1.823 -1.823,-4.419c0,-2.588 1.547,-4.142 1.816,-4.412c49.15,-49.381 98.531,-98.531 147.796,-147.797c0.271,-0.27 1.823,-1.823 4.42,-1.823c0.799,0 1.615,0.152 2.354,0.456c2.432,1.001 3.285,3.073 3.432,3.432c0.144,0.348 0.969,2.355 0,4.71c-0.313,0.76 -0.78,1.474 -1.36,2.057c-49.15,49.38 -98.531,98.531 -147.796,147.796c-0.27,0.271 -1.823,1.823 -4.419,1.823c-2.597,0 -4.149,-1.552 -4.42,-1.823Z" style="fill:#ff7bac;"/>
  <path d="M4110.39,608.271c-0.271,-0.27 -1.823,-1.823 -1.823,-4.419c-0,-2.585 1.547,-4.142 1.816,-4.413c37.296,-37.525 74.822,-74.822 112.234,-112.234c0.27,-0.27 1.823,-1.823 4.419,-1.823c0.799,0 1.615,0.152 2.355,0.456c2.431,1.001 3.284,3.073 3.432,3.432c0.143,0.349 0.969,2.355 -0,4.71c-1.136,2.76 -1.714,2.411 -113.594,114.291c-0.271,0.271 -1.823,1.823 -4.42,1.823c-2.596,0 -4.149,-1.552 -4.419,-1.823Z" style="fill:#ff7bac;"/>
  <path d="M4207.14,581.831c-0.271,-0.271 -1.823,-1.823 -1.823,-4.42c-0,-2.579 1.547,-4.141 1.816,-4.412c23.534,-23.761 47.295,-47.295 70.943,-70.943c0.27,-0.271 1.823,-1.823 4.419,-1.823c0.8,-0 1.616,0.151 2.355,0.456c2.431,1 3.284,3.072 3.432,3.432c0.143,0.348 0.969,2.354 -0,4.709c-0.313,0.76 -0.782,1.473 -1.36,2.058c-23.534,23.761 -47.296,47.295 -70.943,70.943c-0.271,0.27 -1.823,1.823 -4.42,1.823c-2.596,-0 -4.149,-1.553 -4.419,-1.823Z" style="fill:#ff7bac;"/>
  <path d="M4279.46,565.104c-0.271,-0.271 -1.823,-1.823 -1.823,-4.42c-0,-0.381 -0,-2.565 1.816,-4.412c13.186,-13.409 26.595,-26.596 39.893,-39.894c0.271,-0.27 1.823,-1.823 4.42,-1.823c0.799,0 1.615,0.152 2.355,0.456c2.431,1.001 3.284,3.073 3.432,3.432c0.143,0.348 0.969,2.355 -0,4.709c-0.313,0.761 -0.784,1.472 -1.361,2.058c-13.186,13.409 -26.596,26.596 -39.894,39.894c-0.27,0.27 -1.823,1.823 -4.419,1.823c-2.596,-0 -4.149,-1.553 -4.419,-1.823Z" style="fill:#ff7bac;"/>
  <path d="M4347.84,549.865c-0.27,-0.27 -1.823,-1.823 -1.823,-4.419c-0,-0.382 -0,-2.504 1.816,-4.413c3.989,-4.193 8.184,-8.184 12.276,-12.276c0.271,-0.271 1.823,-1.823 4.42,-1.823c0.799,-0 1.615,0.151 2.354,0.456c2.432,1 3.285,3.073 3.432,3.432c0.97,2.354 0.144,4.361 0,4.709c-0.312,0.76 -0.793,1.462 -1.36,2.058c-3.989,4.193 -8.184,8.184 -12.276,12.276c-0.271,0.271 -1.823,1.823 -4.42,1.823c-2.596,0 -4.149,-1.552 -4.419,-1.823Z" style="fill:#ff7bac;"/>
  <path d="M169.152,825.311l-0.029,-656.128" style="fill:none;stroke:#f60;stroke-width:12.5px;"/>
  <path d="M2845.71,169.221l-1125.52,-0.038" style="fill:none;stroke:#f60;stroke-width:12.5px;"/>
  <path d="M3275.18,825.311l-0.028,-656.128" style="fill:none;stroke:#f60;stroke-width:12.5px;"/>
  <path d="M1294.66,825.304l-1125.48,-0.003" style="fill:none;stroke:#fc0;stroke-width:12.5px;"/>
  <path d="M173.944,208.204c-0.27,-0.271 -1.823,-1.823 -1.823,-4.42c0,-0.799 0.152,-1.615 0.456,-2.354c0.313,-0.761 0.797,-1.459 1.36,-2.058c3.034,-3.231 6.268,-6.268 9.402,-9.402c0.271,-0.27 1.823,-1.823 4.42,-1.823c0.799,-0 1.615,0.151 2.354,0.456c0.359,0.147 2.432,1 3.432,3.432c0.144,0.348 0.969,2.354 0,4.709c-0.313,0.76 -0.797,1.458 -1.36,2.058c-3.034,3.231 -6.268,6.268 -9.402,9.402c-0.271,0.27 -1.823,1.823 -4.42,1.823c-2.596,-0 -4.149,-1.553 -4.419,-1.823Z" style="fill:#ff7bac;"/>
  <path d="M176.809,247.945c-0.271,-0.27 -1.823,-1.823 -1.823,-4.419c-0,-0.382 -0,-2.558 1.816,-4.412c10.527,-10.748 21.276,-21.277 31.915,-31.915c0.27,-0.271 1.823,-1.823 4.419,-1.823c0.8,-0 1.615,0.151 2.355,0.456c0.359,0.147 2.431,1 3.432,3.431c0.969,2.355 0.143,4.362 -0,4.71c-0.313,0.76 -0.785,1.47 -1.36,2.058c-10.528,10.748 -21.277,21.276 -31.915,31.914c-0.271,0.271 -1.823,1.823 -4.42,1.823c-2.596,0 -4.149,-1.552 -4.419,-1.823Z" style="fill:#ff7bac;"/>
  <path d="M174.463,296.834c-0.27,-0.27 -1.823,-1.823 -1.823,-4.419c0,-2.577 1.548,-4.141 1.816,-4.413c21.321,-21.547 42.868,-42.868 64.302,-64.302c0.271,-0.27 1.823,-1.823 4.42,-1.823c0.799,0 1.615,0.152 2.354,0.456c2.432,1.001 3.284,3.073 3.432,3.432c0.969,2.355 0.144,4.361 0,4.71c-0.313,0.76 -0.782,1.473 -1.36,2.057c-21.32,21.547 -42.868,42.868 -64.302,64.302c-0.27,0.271 -1.823,1.823 -4.419,1.823c-2.597,0 -4.149,-1.552 -4.42,-1.823Z" style="fill:#ff7bac;"/>
  <path d="M176.919,346.252c-0.27,-0.27 -1.823,-1.823 -1.823,-4.419c0,-2.583 1.547,-4.142 1.816,-4.413c31.415,-31.643 63.059,-63.058 94.588,-94.588c0.271,-0.27 1.823,-1.823 4.42,-1.823c0.799,0 1.615,0.152 2.354,0.456c0.359,0.148 2.432,1.001 3.432,3.432c0.144,0.349 0.969,2.355 0,4.71c-1.138,2.766 -1.716,2.414 -95.948,96.645c-0.27,0.271 -1.823,1.823 -4.419,1.823c-2.597,0 -4.149,-1.552 -4.42,-1.823Z" style="fill:#ff7bac;"/>
  <path d="M174.043,400.195c-0.271,-0.27 -1.823,-1.823 -1.823,-4.419c-0,-2.587 1.547,-4.142 1.816,-4.413c43.373,-43.602 86.976,-86.976 130.464,-130.464c0.271,-0.271 1.823,-1.823 4.42,-1.823c0.799,-0 1.615,0.151 2.355,0.456c2.431,1 3.284,3.073 3.431,3.432c0.144,0.348 0.97,2.354 0,4.709c-0.312,0.76 -0.78,1.475 -1.36,2.058c-43.373,43.602 -86.976,86.976 -130.464,130.464c-0.271,0.271 -1.823,1.823 -4.42,1.823c-2.596,0 -4.149,-1.552 -4.419,-1.823Z" style="fill:#ff7bac;"/>
  <path d="M175.278,456.825c-0.271,-0.27 -1.823,-1.823 -1.823,-4.419c-0,-2.589 1.546,-4.142 1.816,-4.412c54.727,-54.958 109.685,-109.686 164.528,-164.529c0.27,-0.27 1.823,-1.823 4.419,-1.823c0.8,0 1.616,0.152 2.355,0.456c2.431,1.001 3.284,3.073 3.432,3.432c0.143,0.348 0.969,2.355 0,4.709c-0.313,0.761 -0.78,1.475 -1.36,2.058c-54.728,54.958 -109.686,109.686 -164.529,164.528c-0.27,0.271 -1.823,1.823 -4.419,1.823c-2.596,0 -4.149,-1.552 -4.419,-1.823Z" style="fill:#ff7bac;"/>
  <path d="M174.455,515.463c-0.27,-0.271 -1.823,-1.823 -1.823,-4.42c0,-2.59 1.546,-4.142 1.816,-4.412c68.285,-68.515 136.8,-136.8 205.2,-205.2c0.27,-0.27 1.823,-1.823 4.419,-1.823c0.8,0 1.616,0.152 2.355,0.456c2.431,1.001 3.284,3.073 3.432,3.432c0.143,0.348 0.969,2.355 -0,4.709c-0.313,0.761 -0.78,1.476 -1.36,2.058c-68.285,68.515 -136.8,136.8 -205.2,205.2c-0.271,0.27 -1.823,1.823 -4.42,1.823c-2.596,-0 -4.149,-1.553 -4.419,-1.823Z" style="fill:#ff7bac;"/>
  <path d="M174.063,584.194c-0.27,-0.271 -1.823,-1.823 -1.823,-4.42c-0,-2.591 1.546,-4.142 1.816,-4.412c82.639,-82.87 165.51,-165.51 248.265,-248.265c0.27,-0.271 1.823,-1.823 4.419,-1.823c0.8,-0 1.616,0.151 2.355,0.456c2.432,1 3.284,3.072 3.432,3.432c0.969,2.354 0.144,4.361 0,4.709c-0.313,0.76 -0.779,1.475 -1.36,2.058c-82.64,82.87 -165.51,165.51 -248.265,248.265c-0.271,0.27 -1.823,1.823 -4.42,1.823c-2.596,-0 -4.149,-1.553 -4.419,-1.823Z" style="fill:#ff7bac;"/>
  <path d="M174.981,648.726c-0.27,-0.27 -1.823,-1.823 -1.823,-4.419c0,-2.592 1.546,-4.142 1.816,-4.412c95.93,-96.162 192.092,-192.092 288.137,-288.138c0.271,-0.27 1.823,-1.823 4.42,-1.823c0.799,0 1.615,0.152 2.354,0.456c2.432,1.001 3.285,3.073 3.432,3.432c0.144,0.348 0.97,2.355 0,4.709c-0.313,0.761 -0.779,1.476 -1.36,2.058c-95.93,96.161 -192.091,192.092 -288.137,288.137c-0.271,0.271 -1.823,1.823 -4.42,1.823c-2.596,0 -4.148,-1.552 -4.419,-1.823Z" style="fill:#ff7bac;"/>
  <path d="M175.145,725.04c-0.27,-0.271 -1.823,-1.823 -1.823,-4.42c0,-2.592 1.547,-4.142 1.816,-4.412c111.511,-111.742 223.252,-223.252 334.878,-334.878c0.271,-0.271 1.823,-1.823 4.42,-1.823c0.799,-0 1.615,0.151 2.355,0.455c0.359,0.148 2.431,1.001 3.432,3.432c0.969,2.355 0.143,4.361 -0,4.71c-0.313,0.76 -0.78,1.475 -1.361,2.057c-111.51,111.742 -223.252,223.253 -334.878,334.879c-0.27,0.27 -1.823,1.823 -4.419,1.823c-2.597,-0 -4.149,-1.553 -4.42,-1.823Z" style="fill:#ff7bac;"/>
  <path d="M175.319,801.108c-0.27,-0.27 -1.823,-1.823 -1.823,-4.419c0,-2.593 1.547,-4.142 1.816,-4.412c127.632,-127.863 255.494,-255.494 383.241,-383.241c0.271,-0.271 1.823,-1.823 4.42,-1.823c0.799,-0 1.615,0.151 2.354,0.456c2.432,1 3.285,3.072 3.432,3.432c0.144,0.348 0.969,2.354 0,4.709c-0.313,0.76 -0.779,1.476 -1.36,2.058c-127.631,127.862 -255.494,255.494 -383.241,383.24c-0.27,0.271 -1.823,1.824 -4.419,1.824c-2.597,-0 -4.149,-1.553 -4.42,-1.824Z" style="fill:#ff7bac;"/>
  <path d="M220.938,821.252c-0.27,-0.27 -1.823,-1.823 -1.823,-4.419c-0,-2.593 1.546,-4.142 1.816,-4.412c127.093,-127.325 254.417,-254.418 381.626,-381.626c0.27,-0.271 1.823,-1.823 4.419,-1.823c0.8,-0 1.616,0.151 2.355,0.455c2.431,1.001 3.284,3.073 3.432,3.432c0.143,0.349 0.969,2.355 -0,4.71c-0.313,0.76 -0.779,1.476 -1.36,2.057c-127.093,127.325 -254.418,254.418 -381.626,381.626c-0.271,0.271 -1.823,1.823 -4.42,1.823c-2.596,0 -4.149,-1.552 -4.419,-1.823Z" style="fill:#ff7bac;"/>
  <path d="M290.652,821.834c-0.27,-0.271 -1.823,-1.823 -1.823,-4.42c0,-2.593 1.547,-4.142 1.816,-4.412c118.471,-118.703 237.174,-237.174 355.761,-355.761c0.271,-0.27 1.823,-1.823 4.42,-1.823c0.799,-0 1.615,0.151 2.354,0.456c0.359,0.148 2.432,1 3.432,3.432c0.969,2.354 0.144,4.361 0,4.709c-0.313,0.76 -0.779,1.476 -1.36,2.058c-118.471,118.702 -237.174,237.174 -355.761,355.761c-0.27,0.27 -1.823,1.823 -4.419,1.823c-2.597,-0 -4.149,-1.553 -4.42,-1.823Z" style="fill:#ff7bac;"/>
  <path d="M369.596,820.393c-0.271,-0.271 -1.823,-1.823 -1.823,-4.42c-0,-2.592 1.546,-4.142 1.816,-4.412c108.508,-108.739 217.247,-217.247 325.87,-325.87c0.27,-0.27 1.823,-1.823 4.419,-1.823c0.8,-0 1.616,0.151 2.355,0.456c2.431,1 3.284,3.073 3.432,3.432c0.143,0.348 0.969,2.354 0,4.709c-0.313,0.76 -0.779,1.476 -1.36,2.058c-108.508,108.739 -217.247,217.247 -325.87,325.87c-0.271,0.27 -1.823,1.823 -4.42,1.823c-2.596,-0 -4.149,-1.553 -4.419,-1.823Z" style="fill:#ff7bac;"/>
  <path d="M443.122,821.998c-0.271,-0.271 -1.823,-1.823 -1.823,-4.42c-0,-2.592 1.546,-4.142 1.816,-4.412c99.227,-99.459 198.686,-198.687 298.029,-298.03c0.271,-0.27 1.824,-1.823 4.42,-1.823c0.799,0 1.615,0.152 2.355,0.456c0.359,0.148 2.431,1 3.432,3.432c0.143,0.348 0.969,2.355 -0,4.709c-0.313,0.761 -0.78,1.476 -1.361,2.058c-99.227,99.459 -198.686,198.687 -298.03,298.03c-0.27,0.27 -1.823,1.823 -4.419,1.823c-2.596,-0 -4.149,-1.553 -4.419,-1.823Z" style="fill:#ff7bac;"/>
  <path d="M512.486,821.227c-0.271,-0.27 -1.823,-1.823 -1.823,-4.419c-0,-2.592 1.546,-4.142 1.816,-4.413c91.102,-91.333 182.436,-182.436 273.654,-273.654c0.27,-0.27 1.823,-1.823 4.419,-1.823c0.8,0 1.616,0.152 2.355,0.456c2.432,1 3.284,3.073 3.432,3.432c0.969,2.355 0.144,4.361 0,4.709c-0.313,0.761 -0.779,1.476 -1.36,2.058c-91.103,91.333 -182.436,182.436 -273.654,273.654c-0.271,0.271 -1.823,1.823 -4.42,1.823c-2.596,0 -4.149,-1.552 -4.419,-1.823Z" style="fill:#ff7bac;"/>
  <path d="M588.58,819.399c-0.271,-0.27 -1.823,-1.823 -1.823,-4.419c-0,-2.591 1.546,-4.142 1.816,-4.412c81.796,-82.027 163.823,-163.824 245.735,-245.736c0.27,-0.27 1.823,-1.823 4.419,-1.823c0.8,0 1.616,0.152 2.355,0.456c2.432,1.001 3.284,3.073 3.432,3.432c0.144,0.348 0.969,2.355 0,4.709c-0.313,0.761 -0.779,1.476 -1.36,2.058c-81.796,82.027 -163.824,163.824 -245.735,245.735c-0.271,0.271 -1.823,1.823 -4.42,1.823c-2.596,0 -4.149,-1.552 -4.419,-1.823Z" style="fill:#ff7bac;"/>
  <path d="M655.508,820.86c-0.27,-0.27 -1.823,-1.823 -1.823,-4.419c0,-2.591 1.546,-4.142 1.816,-4.412c73.244,-73.476 146.72,-146.72 220.08,-220.08c0.27,-0.271 1.823,-1.823 4.419,-1.823c0.8,-0 1.616,0.151 2.355,0.455c0.359,0.148 2.431,1.001 3.432,3.432c0.969,2.355 0.143,4.361 -0,4.71c-0.313,0.76 -0.78,1.475 -1.36,2.057c-73.245,73.476 -146.72,146.72 -220.08,220.08c-0.271,0.271 -1.823,1.823 -4.42,1.823c-2.596,0 -4.149,-1.552 -4.419,-1.823Z" style="fill:#ff7bac;"/>
  <path d="M736.666,820.599c-0.27,-0.27 -1.823,-1.823 -1.823,-4.419c0,-2.59 1.547,-4.142 1.816,-4.413c63.296,-63.526 126.822,-126.822 190.233,-190.232c0.27,-0.271 1.823,-1.823 4.419,-1.823c0.8,-0 1.616,0.151 2.355,0.455c0.359,0.148 2.431,1.001 3.432,3.432c0.969,2.355 0.143,4.361 0,4.71c-0.313,0.76 -0.78,1.475 -1.36,2.057c-63.296,63.526 -126.822,126.822 -190.233,190.233c-0.27,0.27 -1.823,1.823 -4.419,1.823c-2.597,-0 -4.149,-1.553 -4.42,-1.823Z" style="fill:#ff7bac;"/>
  <path d="M804.925,821.507c-0.271,-0.27 -1.823,-1.823 -1.823,-4.419c-0,-2.589 1.547,-4.142 1.816,-4.413c55.29,-55.52 110.81,-110.81 166.215,-166.215c0.271,-0.271 1.823,-1.823 4.42,-1.823c0.799,-0 1.615,0.151 2.354,0.455c0.36,0.148 2.432,1.001 3.432,3.432c0.144,0.349 0.97,2.355 0,4.71c-0.312,0.76 -0.78,1.475 -1.36,2.057c-55.29,55.521 -110.81,110.811 -166.215,166.216c-0.271,0.27 -1.823,1.823 -4.42,1.823c-2.596,-0 -4.149,-1.553 -4.419,-1.823Z" style="fill:#ff7bac;"/>
  <path d="M864.19,822.572c-0.27,-0.27 -1.823,-1.823 -1.823,-4.419c0,-2.588 1.547,-4.142 1.816,-4.412c49.051,-49.28 98.331,-98.331 147.496,-147.496c0.27,-0.27 1.823,-1.823 4.419,-1.823c0.8,0 1.616,0.152 2.355,0.456c0.359,0.148 2.431,1 3.432,3.432c0.969,2.354 0.144,4.361 0,4.709c-0.313,0.76 -0.78,1.475 -1.36,2.058c-49.05,49.28 -98.331,98.33 -147.496,147.495c-0.27,0.271 -1.823,1.823 -4.419,1.823c-2.597,0 -4.149,-1.552 -4.42,-1.823Z" style="fill:#ff7bac;"/>
  <path d="M921.402,821.463c-0.27,-0.27 -1.823,-1.823 -1.823,-4.419c-0,-2.586 1.547,-4.142 1.816,-4.412c41.556,-41.786 83.342,-83.342 125.013,-125.013c0.27,-0.271 1.823,-1.823 4.419,-1.823c0.8,-0 1.616,0.151 2.355,0.455c2.432,1.001 3.284,3.073 3.432,3.432c0.969,2.355 0.144,4.361 0,4.71c-0.313,0.76 -0.78,1.474 -1.36,2.057c-41.556,41.786 -83.342,83.342 -125.013,125.013c-0.271,0.271 -1.823,1.823 -4.42,1.823c-2.596,0 -4.149,-1.552 -4.419,-1.823Z" style="fill:#ff7bac;"/>
  <path d="M988.464,820.19c-0.27,-0.27 -1.823,-1.823 -1.823,-4.419c0,-2.584 1.547,-4.142 1.816,-4.413c33.176,-33.404 66.58,-66.58 99.87,-99.87c0.271,-0.27 1.823,-1.823 4.42,-1.823c0.799,0 1.615,0.152 2.355,0.456c0.359,0.148 2.431,1.001 3.432,3.432c0.143,0.348 0.969,2.355 -0,4.709c-1.138,2.764 -1.716,2.413 -101.231,101.928c-0.27,0.271 -1.823,1.823 -4.419,1.823c-2.597,0 -4.149,-1.552 -4.42,-1.823Z" style="fill:#ff7bac;"/>
  <path d="M1053.29,818.582c-0.271,-0.271 -1.823,-1.823 -1.823,-4.42c-0,-2.579 1.547,-4.141 1.815,-4.412c24.199,-24.426 48.626,-48.625 72.938,-72.938c0.271,-0.27 1.823,-1.823 4.42,-1.823c0.799,0 1.615,0.152 2.355,0.456c2.431,1 3.284,3.073 3.432,3.432c0.143,0.348 0.969,2.355 -0,4.709c-1.143,2.777 -1.723,2.42 -74.299,74.996c-0.27,0.27 -1.823,1.823 -4.419,1.823c-2.596,-0 -4.149,-1.553 -4.419,-1.823Z" style="fill:#ff7bac;"/>
  <path d="M1116.82,822.717c-0.27,-0.271 -1.823,-1.823 -1.823,-4.42c-0,-0.382 -0,-2.573 1.816,-4.412c17.764,-17.99 35.754,-35.755 53.632,-53.632c0.27,-0.27 1.823,-1.823 4.419,-1.823c0.8,-0 1.616,0.151 2.355,0.456c2.431,1 3.284,3.073 3.432,3.432c0.143,0.348 0.969,2.354 -0,4.709c-0.313,0.76 -0.783,1.473 -1.36,2.058c-17.765,17.989 -35.755,35.754 -53.632,53.632c-0.271,0.27 -1.823,1.823 -4.42,1.823c-2.596,-0 -4.149,-1.553 -4.419,-1.823Z" style="fill:#ff7bac;"/>
  <path d="M1170.48,820.934c-0.27,-0.27 -1.823,-1.823 -1.823,-4.419c0,-0.382 0,-2.561 1.816,-4.413c11.248,-11.469 22.719,-22.718 34.078,-34.077c0.27,-0.271 1.823,-1.823 4.419,-1.823c0.8,-0 1.616,0.151 2.355,0.455c0.359,0.148 2.431,1.001 3.432,3.432c0.143,0.349 0.969,2.355 -0,4.71c-0.313,0.76 -0.785,1.47 -1.36,2.057c-11.248,11.47 -22.719,22.719 -34.078,34.078c-0.27,0.27 -1.823,1.823 -4.419,1.823c-2.597,0 -4.149,-1.553 -4.42,-1.823Z" style="fill:#ff7bac;"/>
  <path d="M1223.56,822.308c-0.27,-0.271 -1.823,-1.823 -1.823,-4.42c0,-0.381 0,-2.514 1.816,-4.412c4.592,-4.8 9.394,-9.394 14.091,-14.091c0.271,-0.271 1.823,-1.823 4.42,-1.823c0.799,-0 1.615,0.151 2.355,0.455c2.431,1.001 3.284,3.073 3.432,3.432c0.143,0.349 0.969,2.355 -0,4.71c-0.313,0.76 -0.792,1.463 -1.361,2.057c-4.592,4.8 -9.394,9.395 -14.091,14.092c-0.27,0.27 -1.823,1.823 -4.419,1.823c-2.597,-0 -4.149,-1.553 -4.42,-1.823Z" style="fill:#ff7bac;"/>
  <path d="M1750.28,196.869c-0.27,-0.27 -1.823,-1.823 -1.823,-4.419c0,-0.382 0,-2.494 1.816,-4.413c3.555,-3.756 7.314,-7.313 10.97,-10.97c0.271,-0.27 1.824,-1.823 4.42,-1.823c0.799,0 1.615,0.152 2.355,0.456c2.431,1 3.284,3.073 3.432,3.432c0.143,0.348 0.969,2.354 -0,4.709c-0.313,0.761 -0.795,1.461 -1.361,2.058c-3.554,3.756 -7.313,7.313 -10.97,10.97c-0.27,0.271 -1.823,1.823 -4.419,1.823c-2.597,0 -4.149,-1.552 -4.42,-1.823Z" style="fill:#ff7bac;"/>
  <path d="M1771.79,219.012c-0.27,-0.27 -1.823,-1.823 -1.823,-4.419c0,-0.382 0,-2.56 1.816,-4.413c10.78,-11 21.782,-21.781 32.672,-32.672c0.271,-0.27 1.823,-1.823 4.42,-1.823c0.799,0 1.615,0.152 2.354,0.456c0.359,0.148 2.432,1.001 3.432,3.432c0.969,2.355 0.144,4.361 0,4.709c-0.313,0.761 -0.784,1.471 -1.36,2.058c-10.779,11.001 -21.781,21.781 -32.672,32.672c-0.27,0.27 -1.823,1.823 -4.419,1.823c-2.597,0 -4.149,-1.553 -4.42,-1.823Z" style="fill:#ff7bac;"/>
  <path d="M1791.78,242.157c-0.271,-0.271 -1.823,-1.823 -1.823,-4.42c-0,-2.574 1.547,-4.141 1.816,-4.412c18.66,-18.886 37.548,-37.548 56.321,-56.322c0.271,-0.27 1.823,-1.823 4.42,-1.823c0.799,0 1.615,0.152 2.355,0.456c0.359,0.148 2.431,1.001 3.432,3.432c0.143,0.348 0.969,2.355 -0,4.709c-0.313,0.761 -0.783,1.473 -1.361,2.058c-18.66,18.886 -37.547,37.548 -56.321,56.322c-0.271,0.27 -1.823,1.823 -4.42,1.823c-2.596,-0 -4.149,-1.553 -4.419,-1.823Z" style="fill:#ff7bac;"/>
  <path d="M1815.02,268.435c-0.271,-0.271 -1.823,-1.823 -1.823,-4.42c-0,-2.581 1.547,-4.141 1.816,-4.412c27.921,-28.149 56.071,-56.071 84.106,-84.107c0.27,-0.27 1.823,-1.823 4.419,-1.823c0.8,0 1.616,0.152 2.355,0.456c0.359,0.148 2.431,1.001 3.432,3.432c0.144,0.348 0.969,2.355 0,4.709c-1.14,2.771 -1.719,2.417 -85.467,86.165c-0.27,0.27 -1.823,1.823 -4.419,1.823c-2.596,-0 -4.149,-1.553 -4.419,-1.823Z" style="fill:#ff7bac;"/>
  <path d="M1838.66,296.612c-0.27,-0.27 -1.823,-1.823 -1.823,-4.419c0,-2.586 1.547,-4.142 1.816,-4.413c37.736,-37.965 75.702,-75.701 113.552,-113.552c0.271,-0.27 1.823,-1.823 4.42,-1.823c0.799,0 1.615,0.152 2.354,0.456c0.359,0.148 2.432,1 3.432,3.432c0.969,2.355 0.144,4.361 0,4.709c-1.136,2.76 -1.714,2.412 -114.912,115.61c-0.27,0.27 -1.823,1.823 -4.419,1.823c-2.597,0 -4.149,-1.553 -4.42,-1.823Z" style="fill:#ff7bac;"/>
  <path d="M1866.61,325.103c-0.271,-0.27 -1.823,-1.823 -1.823,-4.419c-0,-2.588 1.547,-4.142 1.816,-4.413c46.668,-46.898 93.567,-93.567 140.35,-140.35c0.271,-0.27 1.823,-1.823 4.419,-1.823c0.8,-0 1.616,0.151 2.355,0.456c2.432,1 3.284,3.073 3.432,3.432c0.144,0.348 0.969,2.354 0,4.709c-0.313,0.76 -0.78,1.475 -1.36,2.058c-46.668,46.898 -93.567,93.567 -140.35,140.35c-0.271,0.27 -1.823,1.823 -4.42,1.823c-2.596,0 -4.149,-1.553 -4.419,-1.823Z" style="fill:#ff7bac;"/>
  <path d="M1895.67,356.751c-0.271,-0.271 -1.823,-1.823 -1.823,-4.42c-0,-2.589 1.546,-4.142 1.816,-4.412c57.252,-57.483 114.736,-114.736 172.103,-172.104c0.271,-0.27 1.823,-1.823 4.42,-1.823c0.799,0 1.615,0.152 2.355,0.456c2.431,1.001 3.284,3.073 3.431,3.432c0.97,2.355 0.144,4.361 0,4.71c-0.312,0.76 -0.78,1.475 -1.36,2.057c-57.252,57.483 -114.735,114.736 -172.103,172.104c-0.271,0.27 -1.823,1.823 -4.42,1.823c-2.596,-0 -4.149,-1.553 -4.419,-1.823Z" style="fill:#ff7bac;"/>
  <path d="M1923.62,389.148c-0.27,-0.271 -1.823,-1.823 -1.823,-4.42c0,-2.59 1.547,-4.142 1.816,-4.412c68.069,-68.3 136.369,-136.369 204.554,-204.553c0.27,-0.271 1.823,-1.823 4.419,-1.823c0.8,-0 1.615,0.151 2.355,0.456c0.359,0.147 2.431,1 3.432,3.431c0.143,0.349 0.969,2.355 -0,4.71c-0.313,0.76 -0.78,1.475 -1.36,2.058c-68.07,68.299 -136.369,136.368 -204.554,204.553c-0.27,0.27 -1.823,1.823 -4.419,1.823c-2.597,-0 -4.149,-1.553 -4.42,-1.823Z" style="fill:#ff7bac;"/>
  <path d="M1957.13,426.339c-0.27,-0.27 -1.823,-1.823 -1.823,-4.419c0,-2.592 1.547,-4.143 1.816,-4.413c80.715,-80.945 161.661,-161.66 242.491,-242.491c0.271,-0.27 1.823,-1.823 4.42,-1.823c0.799,0 1.615,0.152 2.354,0.456c2.432,1.001 3.285,3.073 3.432,3.432c0.97,2.355 0.144,4.361 0,4.709c-0.313,0.761 -0.779,1.476 -1.36,2.058c-80.715,80.946 -161.66,161.661 -242.491,242.491c-0.27,0.27 -1.823,1.823 -4.419,1.823c-2.597,-0 -4.149,-1.553 -4.42,-1.823Z" style="fill:#ff7bac;"/>
  <path d="M1987.74,460.684c-0.27,-0.27 -1.823,-1.823 -1.823,-4.419c-0,-2.592 1.546,-4.142 1.816,-4.413c92.144,-92.374 184.518,-184.518 276.778,-276.777c0.27,-0.271 1.823,-1.823 4.419,-1.823c0.8,-0 1.616,0.151 2.355,0.455c0.359,0.148 2.431,1.001 3.432,3.432c0.969,2.355 0.143,4.361 -0,4.71c-0.313,0.76 -0.78,1.475 -1.36,2.057c-92.144,92.375 -184.519,184.519 -276.778,276.778c-0.271,0.271 -1.823,1.823 -4.42,1.823c-2.596,0 -4.149,-1.552 -4.419,-1.823Z" style="fill:#ff7bac;"/>
  <path d="M2024.26,498.804c-0.27,-0.271 -1.823,-1.823 -1.823,-4.42c0,-2.592 1.547,-4.142 1.816,-4.412c104.566,-104.797 209.362,-209.362 314.043,-314.043c0.27,-0.27 1.823,-1.823 4.419,-1.823c0.8,0 1.616,0.152 2.355,0.456c2.431,1.001 3.284,3.073 3.432,3.432c0.969,2.355 0.143,4.361 -0,4.709c-0.313,0.761 -0.78,1.476 -1.36,2.058c-104.565,104.796 -209.362,209.362 -314.043,314.043c-0.27,0.27 -1.823,1.823 -4.419,1.823c-2.597,-0 -4.149,-1.553 -4.42,-1.823Z" style="fill:#ff7bac;"/>
  <path d="M2055.39,535.696c-0.27,-0.27 -1.823,-1.823 -1.823,-4.419c0,-2.593 1.547,-4.142 1.816,-4.412c116.895,-117.127 234.022,-234.022 351.033,-351.033c0.27,-0.27 1.823,-1.823 4.419,-1.823c0.8,0 1.616,0.152 2.355,0.456c2.431,1.001 3.284,3.073 3.432,3.432c0.143,0.348 0.969,2.355 -0,4.709c-0.313,0.761 -0.779,1.476 -1.36,2.058c-116.895,117.126 -234.022,234.022 -351.033,351.032c-0.27,0.271 -1.823,1.823 -4.419,1.823c-2.597,0 -4.149,-1.552 -4.42,-1.823Z" style="fill:#ff7bac;"/>
  <path d="M2082.34,566.452c-0.271,-0.271 -1.823,-1.823 -1.823,-4.42c-0,-2.593 1.546,-4.142 1.816,-4.412c128.002,-128.234 256.236,-256.237 384.355,-384.355c0.27,-0.27 1.823,-1.823 4.419,-1.823c0.8,0 1.615,0.152 2.355,0.456c2.431,1.001 3.284,3.073 3.432,3.432c0.143,0.348 0.969,2.355 -0,4.709c-0.313,0.761 -0.78,1.476 -1.36,2.058c-128.003,128.234 -256.237,256.237 -384.355,384.355c-0.271,0.27 -1.823,1.823 -4.42,1.823c-2.596,-0 -4.149,-1.553 -4.419,-1.823Z" style="fill:#ff7bac;"/>
  <path d="M2114.47,600.878c-0.271,-0.271 -1.823,-1.823 -1.823,-4.42c-0,-2.593 1.546,-4.142 1.816,-4.412c138.934,-139.166 278.099,-278.099 417.149,-417.149c0.27,-0.271 1.823,-1.823 4.419,-1.823c0.8,-0 1.616,0.151 2.355,0.456c0.359,0.147 2.431,1 3.432,3.432c0.969,2.354 0.143,4.361 -0,4.709c-0.313,0.76 -0.78,1.476 -1.36,2.058c-138.934,139.165 -278.1,278.099 -417.149,417.149c-0.271,0.27 -1.823,1.823 -4.42,1.823c-2.596,-0 -4.149,-1.553 -4.419,-1.823Z" style="fill:#ff7bac;"/>
  <path d="M2146.66,638.812c-0.27,-0.27 -1.823,-1.823 -1.823,-4.419c-0,-2.594 1.546,-4.142 1.816,-4.412c151.441,-151.673 303.113,-303.114 454.67,-454.671c0.271,-0.27 1.823,-1.823 4.42,-1.823c0.799,0 1.615,0.152 2.354,0.456c0.359,0.148 2.432,1.001 3.432,3.432c0.144,0.349 0.969,2.355 0,4.71c-0.313,0.76 -0.779,1.475 -1.36,2.057c-151.441,151.673 -303.113,303.114 -454.67,454.67c-0.271,0.271 -1.823,1.823 -4.42,1.823c-2.596,0 -4.149,-1.552 -4.419,-1.823Z" style="fill:#ff7bac;"/>
  <path d="M2178.61,672.551c-0.271,-0.27 -1.823,-1.823 -1.823,-4.419c-0,-2.594 1.546,-4.142 1.815,-4.413c163.323,-163.554 326.877,-326.877 490.316,-490.315c0.27,-0.271 1.823,-1.823 4.419,-1.823c0.8,-0 1.616,0.151 2.355,0.456c0.359,0.147 2.431,1 3.432,3.432c0.969,2.354 0.143,4.361 0,4.709c-0.313,0.76 -0.779,1.476 -1.36,2.058c-163.323,163.554 -326.877,326.877 -490.316,490.315c-0.27,0.271 -1.823,1.823 -4.419,1.823c-2.596,0 -4.149,-1.552 -4.419,-1.823Z" style="fill:#ff7bac;"/>
  <path d="M2211.46,708.589c-0.27,-0.27 -1.823,-1.823 -1.823,-4.419c0,-2.594 1.547,-4.142 1.816,-4.413c174.093,-174.324 348.418,-348.417 522.627,-522.626c0.27,-0.271 1.823,-1.823 4.419,-1.823c0.8,-0 1.616,0.151 2.355,0.456c2.431,1 3.284,3.073 3.432,3.432c0.143,0.348 0.969,2.354 0,4.709c-0.313,0.76 -0.779,1.476 -1.36,2.058c-174.093,174.324 -348.418,348.417 -522.627,522.626c-0.27,0.271 -1.823,1.823 -4.419,1.823c-2.597,0 -4.149,-1.552 -4.42,-1.823Z" style="fill:#ff7bac;"/>
  <path d="M2242.48,746.022c-0.271,-0.271 -1.823,-1.823 -1.823,-4.42c-0,-2.594 1.546,-4.142 1.816,-4.412c186.988,-187.22 374.209,-374.209 561.313,-561.313c0.271,-0.271 1.823,-1.823 4.42,-1.823c0.799,-0 1.615,0.151 2.354,0.455c2.432,1.001 3.285,3.073 3.432,3.432c0.144,0.349 0.969,2.355 0,4.71c-0.313,0.76 -0.779,1.476 -1.36,2.057c-186.988,187.221 -374.209,374.209 -561.313,561.314c-0.271,0.27 -1.823,1.823 -4.42,1.823c-2.596,-0 -4.149,-1.553 -4.419,-1.823Z" style="fill:#ff7bac;"/>
  <path d="M2273.7,776.292c-0.273,-0.268 -1.84,-1.805 -1.866,-4.401c-0.025,-2.593 1.506,-4.157 1.773,-4.43c124.131,-126.821 248.495,-253.413 372.743,-380.12c0.268,-0.273 1.805,-1.841 4.401,-1.866c0.8,-0.008 1.617,0.135 2.359,0.432c0.361,0.145 2.441,0.977 3.466,3.399c0.992,2.345 0.186,4.359 0.046,4.709c-0.306,0.763 -0.765,1.483 -1.34,2.071c-124.131,126.821 -248.495,253.413 -372.743,380.12c-0.268,0.273 -1.805,1.84 -4.402,1.866c-2.596,0.025 -4.164,-1.512 -4.437,-1.78Z" style="fill:#ff7bac;"/>
  <path d="M2293.31,799.369c-0.276,-0.265 -1.858,-1.788 -1.907,-4.384c-0.049,-2.588 1.468,-4.171 1.733,-4.446c52.397,-54.651 105.03,-109.077 157.544,-163.616c0.266,-0.276 1.789,-1.857 4.385,-1.906c0.799,-0.015 1.618,0.121 2.363,0.411c0.361,0.141 2.449,0.954 3.496,3.366c0.15,0.346 1.013,2.336 0.089,4.709c-0.299,0.766 -0.752,1.489 -1.321,2.083c-52.398,54.651 -105.03,109.077 -157.545,163.616c-0.265,0.275 -1.788,1.857 -4.384,1.906c-2.596,0.049 -4.178,-1.474 -4.453,-1.739Z" style="fill:#ff7bac;"/>
</svg>
